# Blender 4.1.1
# www.blender.org
mtllib aa0087.mtl
o Liquid_Domain
v -8.463840 -9.000848 6.133715
v -4.473733 -9.046435 6.128160
v 8.459796 -9.084758 6.207651
v -8.432734 -9.073042 -6.186447
v 8.452060 -9.083555 -6.183226
v 2.827098 1.799135 -6.201873
v -0.237786 -7.946572 6.150904
v -6.685332 -7.950180 4.626760
v -4.251815 -8.249281 5.160058
v -2.407260 -7.834959 5.848570
v -5.739756 -7.569475 0.891151
v -6.270754 -7.617088 5.925632
v 0.538366 -7.069602 4.748062
v -4.002094 -7.824308 0.260407
v -8.421984 -1.251300 6.181322
v -0.925354 -7.354994 0.803491
v -4.263647 -6.716881 5.517501
v -2.252843 -5.674372 5.326086
v -3.515270 -6.365794 0.582354
v -0.921907 -5.367605 0.568467
v -5.087380 -5.732854 6.157835
v -7.302151 -4.478471 5.310915
v -2.690846 -6.786015 2.954827
v -4.832345 -6.367321 1.663145
v -4.809102 -5.563715 5.220011
v -0.223397 -3.773555 3.937616
v -7.391608 -5.518843 0.310595
v -3.325212 -5.688813 -1.124929
v 5.244793 -6.319808 -0.755721
v 7.005484 -6.374592 -1.908925
v -6.672819 -4.343004 1.806252
v -4.619282 -4.831512 -1.586126
v 6.749550 -5.289594 1.057437
v 4.886634 -6.083608 -2.413099
v -3.002199 -4.535680 5.249286
v -4.165513 -5.298094 2.936101
v -0.717466 -5.055824 6.010760
v 7.122246 -4.061517 -3.286351
v -3.504066 -3.408885 6.073786
v -1.724158 -3.704892 -1.598401
v -4.837264 -3.757665 5.928037
v -7.272984 -2.227605 1.144598
v -4.627010 -4.682430 0.964409
v 6.307724 -2.928653 2.021038
v -4.862584 -3.298610 -0.337568
v -4.311783 -2.865230 6.105400
v -0.912609 -2.306686 -0.037360
v 1.070948 -3.038197 -1.046368
v 1.792929 -2.661632 -3.302672
v 3.593817 -2.382114 -4.160308
v -0.049126 -2.171857 4.584626
v 6.992705 0.514517 1.849815
v -6.156426 -3.769155 -2.224058
v -6.425784 -2.658205 -3.917876
v 6.802292 -3.293678 -5.168376
v -3.463592 5.584669 -6.180646
v -6.922771 -2.324915 3.332732
v 2.385965 -2.495939 3.137939
v 2.119552 -2.929363 0.829670
v -2.870665 -1.445374 -0.611443
v -2.712065 -0.861760 4.498734
v -7.368831 -0.768733 -1.680371
v -3.165140 -0.786006 -4.130715
v 8.383539 2.048955 -3.351373
v -5.428377 -0.814164 4.408031
v 4.054127 1.510574 6.181974
v -1.757496 -1.499882 2.337141
v -7.467934 -0.037642 3.061843
v 2.156586 0.717608 0.911937
v 4.467776 -1.335049 -2.955238
v -6.706109 -0.564261 6.098741
v 6.251656 -0.700981 -4.596088
v -1.987735 1.333105 -0.052295
v 2.305742 0.001517 -1.282821
v 7.334149 1.472156 -2.882946
v -6.807367 -0.638300 -3.213628
v -7.476990 -0.275653 5.820479
v 3.570055 -0.722364 5.158296
v 5.292779 0.182518 4.553387
v -1.818262 2.130140 2.837888
v 8.365508 5.777913 3.788443
v -1.641225 -0.002358 -1.773229
v 4.578731 1.638904 -2.707047
v 6.027006 1.252925 -5.268737
v -5.062637 1.088931 -4.493886
v -7.306968 0.986841 6.135234
v -5.443291 0.351594 3.786035
v -6.541402 1.365007 2.813102
v -7.075026 3.305831 0.146641
v -2.943181 1.829423 -2.495859
v -5.793725 1.049176 5.019574
v -3.285793 2.204683 5.383646
v 3.469719 1.697477 5.159040
v 2.302635 2.137157 4.149985
v 4.785952 1.482025 3.928130
v 8.153335 4.209318 -2.418373
v -8.420983 6.333402 -6.107093
v 3.627393 3.005346 -5.818494
v 7.973814 6.671941 -6.181970
v 0.897408 3.646381 1.032525
v -6.712058 2.860237 -1.806846
v 8.099931 2.138240 -2.928736
v 7.753685 3.559491 -3.803740
v -8.408716 7.026424 6.102023
v 8.228345 4.682382 2.027398
v 8.153307 3.744706 -0.371351
v 5.801399 3.557507 -3.257237
v -6.840840 5.068038 -4.836768
v 5.596409 2.721299 4.701316
v -5.925385 3.758805 4.000138
v -3.524175 3.851790 3.088153
v 6.820708 4.668235 2.250961
v 2.663083 3.195083 -0.472756
v 1.225793 2.950840 -1.673358
v 8.403252 3.898664 -3.433683
v -6.596008 5.625034 3.418350
v -8.426524 6.916092 -0.389183
v 2.960529 3.907365 -2.641922
v 5.687963 3.448991 -4.754923
v -3.865918 3.773846 -4.071621
v 3.183638 3.947752 -5.593256
v -2.476638 5.550303 -5.486697
v 2.022559 4.598267 -4.067980
v 1.946652 6.044420 0.137353
v 4.088742 4.329550 0.015677
v 1.026816 5.191424 -1.603041
v 1.033281 6.980068 6.162360
v 0.300636 4.907681 4.516868
v -3.660777 5.170506 4.138660
v 8.102192 5.959134 0.708640
v 5.912316 5.024991 -4.275144
v 5.124276 5.609285 -6.138288
v 4.777965 4.315691 -5.134950
v 1.746892 6.170930 -6.139342
v 8.326405 7.026927 6.159855
v 3.561536 6.702122 5.126580
v -2.992417 6.848063 -0.159792
v 8.346386 6.266429 -1.785750
v 5.838127 6.351071 -3.716486
v 2.652089 5.893027 -4.640933
v 5.976223 5.183460 5.051291
v -6.683472 6.810904 0.830076
v -3.057678 5.715441 -1.349016
v 7.188386 6.333832 -4.748141
v 5.958958 6.647596 -5.457599
v -0.200437 7.007081 4.340346
v -3.871132 6.697823 3.012734
v 4.756662 5.014272 -1.692365
v 3.822682 5.684260 -3.765991
v 6.332927 6.857313 -4.433479
v 7.648306 6.728356 2.072541
v 8.089403 6.794195 4.775978
v -6.149840 6.626394 -5.796103
v 1.212695 6.686646 -2.734114
v -2.879900 6.927838 -4.476294
v 1.044872 7.108373 -6.088281
vn -0.4863 -0.5030 0.7145
vn -0.0176 -0.5413 0.8407
vn 0.5019 -0.5221 0.6896
vn -0.5032 -0.5239 -0.6872
vn 0.5054 -0.5222 -0.6869
vn 0.0145 0.0432 -0.9990
vn -0.2076 0.2465 0.9466
vn 0.6570 0.7511 -0.0645
vn -0.0085 0.8620 -0.5069
vn 0.3345 0.8886 0.3137
vn 0.6666 0.1635 0.7272
vn 0.3426 0.3519 0.8711
vn -0.9016 0.4305 -0.0423
vn 0.1485 0.3999 0.9045
vn -0.5519 0.0321 0.8333
vn -0.4975 0.5402 0.6787
vn -0.4602 -0.2864 -0.8403
vn 0.5144 -0.2774 -0.8115
vn 0.3392 0.2764 0.8992
vn -0.7708 0.2477 0.5870
vn 0.0018 -0.2218 0.9751
vn 0.6592 -0.1366 -0.7394
vn 0.6901 -0.5890 -0.4205
vn 0.3847 -0.5702 0.7259
vn -0.4475 -0.0733 -0.8913
vn -0.9982 -0.0319 0.0512
vn 0.2578 0.1030 0.9607
vn -0.0718 0.7265 0.6834
vn 0.2930 0.9087 -0.2975
vn -0.6102 0.7391 0.2851
vn -0.3346 0.0910 0.9380
vn 0.5204 0.1445 0.8416
vn -0.4182 0.5622 -0.7135
vn 0.3098 0.7454 0.5903
vn -0.1028 0.4490 -0.8876
vn -0.0379 0.9993 -0.0042
vn -0.2262 -0.3493 0.9093
vn -0.6755 0.4723 0.5662
vn -0.4738 0.0588 0.8787
vn -0.3474 -0.1724 0.9217
vn 0.0682 0.0289 0.9973
vn 0.9097 0.2925 0.2947
vn 0.7663 0.5687 0.2989
vn -0.4115 0.4322 -0.8024
vn 0.5857 0.5418 0.6028
vn -0.0201 -0.5925 0.8053
vn -0.6922 -0.4758 0.5427
vn 0.7727 0.6308 -0.0713
vn 0.6922 0.1104 0.7133
vn 0.4291 0.0233 0.9030
vn -0.7432 -0.4377 -0.5060
vn -0.9305 0.1023 -0.3517
vn 0.3067 0.9491 0.0713
vn 0.4030 0.5179 0.7546
vn -0.2688 0.4047 0.8741
vn -0.0128 0.4013 -0.9159
vn 0.9301 -0.0480 -0.3641
vn 0.5356 0.6416 -0.5491
vn 0.7969 0.4968 -0.3437
vn -0.7692 0.4044 0.4947
vn -0.4201 -0.3421 -0.8405
vn 0.9757 0.1687 0.1395
vn -0.5414 0.2236 0.8105
vn 0.7473 0.5834 0.3180
vn -0.0558 0.1425 -0.9882
vn -0.0046 0.0001 1.0000
vn -0.8236 -0.5654 0.0442
vn 0.9384 -0.3303 -0.1017
vn 0.9766 0.2020 -0.0734
vn 0.4991 -0.5161 0.6960
vn -0.2611 0.2597 0.9297
vn 0.7518 0.0570 0.6569
vn -0.9969 -0.0707 0.0331
vn 0.8410 -0.2578 0.4756
vn -0.9488 0.3141 -0.0320
vn 0.8594 -0.0518 0.5086
vn 0.7908 0.2704 0.5491
vn 0.1189 0.4111 -0.9038
vn -0.5353 0.1767 -0.8260
vn -0.9107 -0.3863 -0.1463
vn 0.5635 0.6933 -0.4493
vn -0.9730 0.1419 0.1822
vn 0.6513 -0.1931 0.7338
vn 0.0873 -0.1707 0.9814
vn 0.0839 -0.0141 0.9964
vn 0.0687 -0.1728 0.9826
vn 0.5586 -0.8237 -0.0968
vn 0.7304 -0.2393 -0.6398
vn 0.9971 -0.0756 0.0135
vn -0.8022 0.0538 0.5947
vn 0.1298 -0.5997 -0.7896
vn -0.2172 -0.3277 -0.9195
vn 0.1188 0.1281 -0.9846
vn 0.8169 0.3963 -0.4191
vn -0.0797 0.0188 -0.9966
vn 0.1706 -0.1654 0.9714
vn -0.4838 0.6014 -0.6358
vn -0.1146 0.2564 -0.9598
vn 0.4261 0.5843 -0.6907
vn 0.9229 0.1294 0.3626
vn 0.9732 -0.0371 0.2271
vn -0.2343 0.0662 -0.9699
vn -0.6517 -0.1304 0.7472
vn -0.5070 0.5703 0.6463
vn 0.8062 0.5913 0.0205
vn -0.0531 0.8544 -0.5168
vn 0.6861 0.4652 0.5593
vn 0.4698 0.6359 0.6123
vn -0.5702 0.2391 -0.7859
vn 0.2263 0.2207 -0.9487
vn -0.7380 -0.2592 -0.6231
vn -0.7351 0.5693 -0.3682
vn 0.5054 -0.3353 0.7951
vn 0.3463 0.5761 -0.7404
vn 0.9954 -0.0768 0.0580
vn 0.6712 0.3867 -0.6324
vn -0.6400 0.7660 -0.0611
vn -0.5214 -0.2438 -0.8178
vn -0.2216 0.6566 0.7210
vn -0.1877 0.4089 0.8931
vn 0.2612 0.3237 0.9094
vn -0.6100 0.1233 0.7827
vn 0.9369 -0.3152 0.1511
vn 0.6576 0.5652 0.4981
vn 0.4679 -0.0865 0.8795
vn 0.3566 -0.6119 -0.7060
vn 0.0248 0.6222 0.7825
vn 0.6629 0.2436 -0.7080
vn -0.4631 -0.1161 -0.8787
vn 0.1514 0.8650 -0.4785
vn 0.8094 -0.4884 0.3262
vn 0.0265 0.1264 -0.9916
vn -0.4344 -0.1105 0.8939
vn 0.0185 0.0259 -0.9995
vn 0.4974 0.5792 0.6459
vn 0.0574 0.6211 -0.7816
vn -0.7377 0.6735 -0.0464
vn 0.2449 0.3208 0.9149
vn -0.4623 0.7453 0.4804
vn 0.7069 0.5256 0.4734
vn -0.3016 0.1946 -0.9334
vn 0.7389 0.6736 -0.0185
vn -0.9934 -0.1141 0.0109
vn -0.3733 0.9172 0.1397
vn -0.1279 0.9917 0.0111
vn 0.3389 0.9069 -0.2503
vn -0.5479 0.6727 -0.4972
vn 0.6976 0.5940 0.4006
vn -0.0577 0.7514 -0.6573
vn -0.1430 0.8980 -0.4162
vn -0.1269 0.0809 -0.9886
vn -0.8469 0.4331 -0.3085
vn 0.0251 0.9997 -0.0066
vn 0.4922 0.8682 0.0630
vn -0.7361 0.6536 -0.1760
vn 0.0723 0.6991 -0.7113
s 1
usemtl Liquid_Domain_Material
f 1//1 4//4 2//2
f 5//5 3//3 2//2
f 5//5 2//2 4//4
f 2//2 12//12 1//1
f 2//2 3//3 7//7
f 5//5 4//4 6//6
f 10//10 2//2 7//7
f 12//12 9//9 8//8
f 7//7 9//9 10//10
f 11//11 8//8 9//9
f 9//9 7//7 13//13
f 13//13 14//14 9//9
f 9//9 14//14 11//11
f 16//16 14//14 13//13
f 17//17 12//12 2//2
f 9//9 12//12 17//17
f 10//10 9//9 17//17
f 8//8 11//11 24//24
f 4//4 1//1 15//15
f 1//1 12//12 15//15
f 10//10 17//17 18//18
f 14//14 24//24 11//11
f 14//14 19//19 24//24
f 14//14 16//16 19//19
f 2//2 21//21 17//17
f 10//10 21//21 2//2
f 37//37 10//10 18//18
f 7//7 37//37 13//13
f 12//12 8//8 22//22
f 23//23 25//25 24//24
f 16//16 20//20 19//19
f 21//21 12//12 25//25
f 18//18 17//17 23//23
f 23//23 17//17 25//25
f 22//22 8//8 27//27
f 13//13 26//26 20//20
f 24//24 27//27 8//8
f 13//13 20//20 16//16
f 24//24 19//19 43//43
f 30//30 34//34 29//29
f 10//10 37//37 21//21
f 21//21 25//25 17//17
f 12//12 22//22 25//25
f 18//18 23//23 35//35
f 24//24 43//43 23//23
f 43//43 19//19 32//32
f 19//19 28//28 32//32
f 30//30 29//29 33//33
f 25//25 36//36 24//24
f 35//35 23//23 36//36
f 24//24 36//36 31//31
f 23//23 43//43 36//36
f 6//6 4//4 56//56
f 21//21 15//15 12//12
f 26//26 13//13 37//37
f 35//35 36//36 25//25
f 24//24 31//31 27//27
f 20//20 28//28 19//19
f 21//21 39//39 41//41
f 21//21 37//37 39//39
f 22//22 27//27 42//42
f 31//31 42//42 27//27
f 20//20 40//40 28//28
f 28//28 40//40 32//32
f 30//30 38//38 34//34
f 59//59 33//33 29//29
f 43//43 32//32 45//45
f 59//59 29//29 34//34
f 59//59 34//34 49//49
f 34//34 38//38 49//49
f 21//21 41//41 15//15
f 7//7 66//66 37//37
f 7//7 3//3 66//66
f 35//35 25//25 41//41
f 25//25 22//22 46//46
f 31//31 36//36 43//43
f 33//33 59//59 44//44
f 40//40 45//45 32//32
f 15//15 41//41 46//46
f 46//46 41//41 25//25
f 35//35 41//41 39//39
f 18//18 35//35 51//51
f 18//18 51//51 37//37
f 51//51 26//26 37//37
f 22//22 42//42 57//57
f 26//26 51//51 20//20
f 31//31 43//43 42//42
f 20//20 47//47 40//40
f 33//33 38//38 30//30
f 48//48 59//59 49//49
f 38//38 50//50 49//49
f 38//38 55//55 50//50
f 37//37 66//66 39//39
f 20//20 51//51 47//47
f 44//44 52//52 33//33
f 52//52 38//38 33//33
f 40//40 47//47 45//45
f 35//35 39//39 51//51
f 44//44 59//59 58//58
f 42//42 43//43 45//45
f 51//51 39//39 61//61
f 57//57 46//46 22//22
f 45//45 62//62 42//42
f 45//45 53//53 62//62
f 60//60 45//45 47//47
f 63//63 53//53 45//45
f 46//46 57//57 65//65
f 58//58 79//79 44//44
f 54//54 53//53 63//63
f 46//46 71//71 15//15
f 39//39 46//46 65//65
f 51//51 61//61 67//67
f 57//57 42//42 68//68
f 51//51 67//67 47//47
f 60//60 47//47 67//67
f 63//63 45//45 60//60
f 74//74 49//49 50//50
f 70//70 74//74 50//50
f 135//135 3//3 5//5
f 58//58 59//59 69//69
f 74//74 48//48 49//49
f 76//76 53//53 54//54
f 72//72 70//70 50//50
f 63//63 85//85 54//54
f 72//72 50//50 55//55
f 71//71 77//77 15//15
f 3//3 135//135 66//66
f 65//65 57//57 71//71
f 79//79 58//58 78//78
f 48//48 74//74 59//59
f 52//52 75//75 38//38
f 76//76 62//62 53//53
f 38//38 75//75 55//55
f 54//54 85//85 76//76
f 71//71 57//57 77//77
f 39//39 65//65 61//61
f 77//77 57//57 68//68
f 44//44 79//79 52//52
f 42//42 62//62 68//68
f 67//67 73//73 60//60
f 63//63 60//60 82//82
f 39//39 66//66 46//46
f 86//86 65//65 71//71
f 55//55 75//75 84//84
f 55//55 84//84 72//72
f 77//77 86//86 15//15
f 71//71 46//46 86//86
f 135//135 5//5 81//81
f 77//77 68//68 86//86
f 67//67 61//61 80//80
f 80//80 73//73 67//67
f 73//73 82//82 60//60
f 83//83 74//74 70//70
f 84//84 83//83 70//70
f 82//82 90//90 63//63
f 84//84 70//70 72//72
f 85//85 63//63 90//90
f 5//5 6//6 99//99
f 86//86 91//91 65//65
f 61//61 65//65 92//92
f 93//93 78//78 58//58
f 68//68 87//87 91//91
f 87//87 68//68 88//88
f 79//79 109//109 52//52
f 94//94 58//58 69//69
f 88//88 68//68 62//62
f 69//69 59//59 74//74
f 79//79 78//78 93//93
f 58//58 94//94 93//93
f 95//95 79//79 93//93
f 91//91 86//86 68//68
f 109//109 79//79 95//95
f 88//88 62//62 89//89
f 76//76 85//85 101//101
f 75//75 64//64 84//84
f 92//92 65//65 91//91
f 92//92 80//80 61//61
f 73//73 90//90 82//82
f 101//101 62//62 76//76
f 87//87 88//88 111//111
f 5//5 64//64 105//105
f 69//69 74//74 100//100
f 101//101 89//89 62//62
f 96//96 64//64 102//102
f 75//75 102//102 64//64
f 84//84 64//64 103//103
f 107//107 113//113 74//74
f 52//52 106//106 75//75
f 64//64 96//96 106//106
f 117//117 97//97 15//15
f 74//74 83//83 107//107
f 101//101 85//85 108//108
f 15//15 97//97 4//4
f 99//99 6//6 98//98
f 109//109 95//95 93//93
f 91//91 87//87 111//111
f 111//111 88//88 110//110
f 81//81 5//5 105//105
f 94//94 69//69 100//100
f 105//105 64//64 106//106
f 83//83 84//84 103//103
f 64//64 5//5 115//115
f 111//111 92//92 91//91
f 92//92 111//111 80//80
f 113//113 100//100 74//74
f 75//75 103//103 102//102
f 96//96 102//102 115//115
f 102//102 103//103 115//115
f 103//103 64//64 115//115
f 94//94 128//128 93//93
f 109//109 112//112 52//52
f 104//104 117//117 15//15
f 80//80 111//111 73//73
f 106//106 96//96 75//75
f 75//75 96//96 103//103
f 118//118 119//119 114//114
f 103//103 107//107 83//83
f 120//120 85//85 90//90
f 119//119 121//121 114//114
f 85//85 120//120 108//108
f 56//56 134//134 6//6
f 15//15 86//86 104//104
f 66//66 127//127 46//46
f 116//116 110//110 88//88
f 100//100 128//128 94//94
f 112//112 106//106 52//52
f 113//113 107//107 125//125
f 73//73 122//122 90//90
f 90//90 122//122 120//120
f 119//119 118//118 107//107
f 121//121 123//123 114//114
f 133//133 121//121 119//119
f 99//99 98//98 132//132
f 46//46 127//127 86//86
f 109//109 93//93 141//141
f 109//109 141//141 112//112
f 113//113 124//124 100//100
f 114//114 126//126 118//118
f 103//103 119//119 107//107
f 93//93 128//128 141//141
f 129//129 111//111 110//110
f 130//130 106//106 112//112
f 125//125 124//124 113//113
f 148//148 125//125 107//107
f 114//114 123//123 126//126
f 131//131 107//107 118//118
f 133//133 119//119 131//131
f 115//115 5//5 99//99
f 56//56 4//4 97//97
f 98//98 6//6 134//134
f 98//98 134//134 132//132
f 141//141 128//128 136//136
f 128//128 100//100 146//146
f 116//116 88//88 89//89
f 73//73 137//137 143//143
f 148//148 124//124 125//125
f 73//73 143//143 122//122
f 107//107 131//131 148//148
f 133//133 118//118 149//149
f 133//133 131//131 118//118
f 120//120 153//153 108//108
f 145//145 119//119 103//103
f 129//129 110//110 116//116
f 81//81 105//105 112//112
f 105//105 106//106 130//130
f 111//111 137//137 73//73
f 118//118 126//126 123//123
f 148//148 131//131 139//139
f 139//139 103//103 96//96
f 123//123 149//149 118//118
f 122//122 153//153 120//120
f 66//66 135//135 127//127
f 81//81 112//112 141//141
f 129//129 116//116 147//147
f 147//147 111//111 129//129
f 116//116 89//89 142//142
f 130//130 112//112 105//105
f 142//142 89//89 101//101
f 96//96 115//115 138//138
f 143//143 155//155 122//122
f 139//139 131//131 144//144
f 140//140 149//149 123//123
f 144//144 103//103 139//139
f 133//133 150//150 121//121
f 131//131 119//119 150//150
f 150//150 119//119 145//145
f 144//144 145//145 103//103
f 115//115 99//99 138//138
f 123//123 121//121 140//140
f 134//134 56//56 156//156
f 146//146 100//100 124//124
f 154//154 124//124 148//148
f 101//101 108//108 142//142
f 139//139 96//96 138//138
f 148//148 149//149 154//154
f 139//139 149//149 148//148
f 149//149 139//139 133//133
f 150//150 144//144 131//131
f 121//121 150//150 145//145
f 121//121 145//145 140//140
f 153//153 122//122 56//56
f 86//86 127//127 104//104
f 128//128 146//146 136//136
f 141//141 152//152 81//81
f 135//135 81//81 151//151
f 137//137 155//155 143//143
f 149//149 140//140 154//154
f 133//133 139//139 150//150
f 144//144 138//138 99//99
f 56//56 97//97 153//153
f 132//132 134//134 156//156
f 136//136 152//152 141//141
f 135//135 151//151 152//152
f 81//81 152//152 151//151
f 147//147 137//137 111//111
f 150//150 139//139 138//138
f 108//108 97//97 142//142
f 138//138 144//144 150//150
f 156//156 154//154 140//140
f 108//108 153//153 97//97
f 122//122 155//155 56//56
f 56//56 155//155 156//156
f 145//145 156//156 140//140
f 132//132 156//156 145//145
f 132//132 145//145 99//99
f 127//127 146//146 104//104
f 135//135 136//136 127//127
f 152//152 136//136 135//135
f 147//147 116//116 104//104
f 136//136 146//146 127//127
f 104//104 146//146 147//147
f 116//116 142//142 104//104
f 146//146 137//137 147//147
f 142//142 117//117 104//104
f 124//124 154//154 146//146
f 146//146 155//155 137//137
f 154//154 156//156 146//146
f 156//156 155//155 146//146
f 117//117 142//142 97//97
f 144//144 99//99 145//145
