# Blender 4.1.1
# www.blender.org
mtllib aa0072.mtl
o Liquid_Domain
v -8.401945 -9.101190 6.163711
v 8.471221 -9.069464 6.190183
v -8.444144 -9.086965 -6.193498
v -1.210312 -9.087632 0.201294
v 8.458222 -9.063898 -6.207711
v -0.071163 -7.823754 1.053705
v -1.470014 -7.794022 -0.958345
v -4.667420 -7.331029 4.303697
v -5.041488 -7.705061 1.893558
v 0.720868 -7.031436 3.176700
v -4.399520 -6.638015 5.453003
v -3.124423 -6.373042 4.408096
v -4.391649 -7.176215 -1.095175
v -0.273593 -2.528565 1.456511
v -3.944461 -5.086758 -0.402314
v -7.283335 -5.986125 5.303394
v -0.054376 -4.807507 0.464809
v -5.270289 -6.618849 3.820107
v -1.974831 -5.651578 -1.237483
v 8.338855 -2.400968 2.036372
v -5.762239 -4.796309 -0.898886
v -8.447946 -2.183829 1.637377
v -6.267653 -5.412019 1.525794
v -5.573329 -4.413498 1.756724
v -0.621714 -2.979968 6.222609
v -6.786717 -1.544981 4.963932
v -1.857638 -3.855900 -2.434786
v 8.457673 -1.609335 6.179527
v -7.419626 -2.639603 1.792832
v 6.848001 -4.388762 1.962954
v 7.613707 -3.959218 2.123469
v -4.202805 -2.975161 -1.867338
v 7.186515 -4.595140 -1.633267
v -5.931535 -3.761579 -1.475382
v -4.133816 -3.017523 5.286705
v 5.689359 -2.887461 -0.782192
v 7.687051 -2.532235 1.151766
v 8.307406 -3.627069 -0.273293
v 2.092052 -2.991652 4.224316
v 3.368113 -3.545119 2.772409
v 4.069005 -2.841892 -1.792810
v 7.319187 -1.920682 -4.416720
v 8.399002 0.792474 -6.174701
v -8.009529 1.426620 6.204914
v -1.585504 -2.378208 3.343131
v 2.462672 -3.374172 -0.017643
v 1.770007 -2.661248 -2.107861
v 4.910659 -2.168358 -1.549497
v 8.161534 -1.628180 -1.888851
v -2.020192 1.222173 4.607333
v -7.138662 -2.438098 -1.904397
v -5.982388 -1.232967 -4.047495
v -6.266813 6.902008 -6.195722
v 4.140872 -1.966890 4.481458
v -5.967891 -2.213688 1.141726
v 1.591058 1.248234 1.032295
v -4.967750 -1.628838 -1.763129
v 6.133286 -1.007954 -4.522285
v 3.282003 -1.350973 5.304669
v 7.368746 -1.662773 5.296123
v 6.497834 -2.463667 4.264755
v 2.404601 0.246977 2.490049
v 5.951211 -1.498229 2.405805
v -6.495514 -1.501915 2.690593
v 8.204293 0.578034 0.722138
v -2.220770 -1.692038 -0.636080
v 7.830049 0.635114 0.240010
v 4.330215 0.024759 -2.461695
v 8.336302 0.248777 2.239064
v 2.270537 0.848325 -0.124608
v 1.003283 1.988509 -1.292649
v 1.924322 -0.972550 -3.162441
v 7.897208 0.009218 -4.407648
v 8.243661 -0.611588 -4.712372
v 7.593988 6.219419 5.414051
v -6.200987 0.897820 2.137225
v 8.156041 0.387432 -0.402274
v 5.390837 4.023304 6.106908
v 2.097648 1.288722 3.659690
v 7.644140 1.298584 1.782274
v -5.522492 0.518092 3.752859
v -3.100114 0.317510 -1.368247
v 6.642645 0.865449 -2.802965
v 2.948951 2.557162 5.118904
v -7.017416 2.033520 4.025707
v -3.833641 0.787757 -3.286662
v -7.072764 0.375783 -2.668984
v 7.332247 1.004525 -3.453109
v 6.992294 2.480633 5.405975
v -6.621642 1.764915 -1.670899
v -6.422734 1.996248 4.961491
v -4.463661 1.669485 4.796158
v -2.080668 1.459020 1.268724
v 1.392223 1.669374 -2.009101
v -6.051779 1.223203 -3.784385
v 2.805241 6.580155 6.133600
v -8.404887 7.059071 0.859638
v 7.174589 1.201236 -4.938467
v 1.746523 2.861509 -6.183000
v -3.567417 2.601400 3.515204
v 8.429272 4.335388 -1.795691
v 8.149860 3.226119 -0.073380
v 4.510357 4.171946 -3.945558
v -8.402875 6.783822 -6.029920
v 5.807018 1.862488 -4.993780
v -4.647154 3.128319 -0.979537
v 7.740782 1.929016 -3.140934
v -5.401992 2.700021 -4.665927
v 0.632001 3.948275 4.407388
v -7.286608 3.857707 -1.980141
v -6.623391 3.229546 -4.699980
v 8.129907 2.854960 1.903463
v -6.881200 4.028281 2.899110
v -5.552972 4.655738 -1.888434
v 3.849519 2.991447 -6.114157
v -2.642105 3.901126 4.957488
v -5.054449 3.559110 3.638983
v 7.518409 6.099143 0.330217
v 1.705829 6.754780 -2.363493
v 3.259569 4.804424 -3.444995
v -5.129176 5.317644 -4.843585
v 1.901428 3.843133 -5.218781
v 1.557269 5.674106 5.108799
v -0.087235 3.866253 1.100075
v 4.820145 4.900591 5.732482
v 4.985141 4.695841 5.817949
v -6.595219 6.840710 3.483480
v -5.435988 6.602809 2.071766
v 0.031200 6.831755 -0.949172
v 7.926618 7.097696 -2.490028
v 8.244963 6.055193 -4.026776
v 1.116084 4.627409 -3.456633
v 2.866957 5.707336 -4.505139
v 3.071508 5.131132 -5.883658
v -2.742655 7.014377 6.157205
v 8.391521 7.057686 6.135475
v -2.982513 5.467084 1.300698
v -7.121691 6.403208 1.037657
v 3.216107 6.802312 -6.102113
v 8.043761 6.959289 -6.145381
v -2.155960 6.901702 3.176658
v -6.023517 6.994049 -0.827578
v -5.297089 6.757209 -3.888042
v 5.688944 5.966257 -5.241520
v 0.216435 6.975153 -5.509436
v 8.189280 6.181657 -0.849063
v -6.828293 6.275170 -4.334914
v 4.556209 6.319872 -3.245557
v -8.410176 6.946438 6.103261
v 5.995289 7.286242 5.882319
v -2.369528 6.802567 5.250813
v -1.127092 6.328268 -0.146466
v -2.498376 7.098722 -4.011393
v 4.826050 6.556489 -4.863469
v -3.817783 5.602531 -4.671858
v -4.317517 7.073605 -6.054710
v -0.790401 6.730751 -2.653876
vn -0.5022 -0.5273 0.6854
vn 0.5084 -0.5223 0.6846
vn -0.5033 -0.5236 -0.6874
vn 0.0016 -1.0000 -0.0008
vn 0.5107 -0.5172 -0.6868
vn -0.6146 0.7599 0.2117
vn -0.3240 0.5907 0.7390
vn 0.1631 0.9321 -0.3233
vn 0.5075 0.8608 0.0377
vn -0.7224 0.3846 -0.5746
vn -0.2115 0.4198 -0.8826
vn -0.4354 0.2599 -0.8619
vn 0.5515 0.2978 0.7792
vn -0.7647 -0.6439 -0.0263
vn 0.3191 0.3365 0.8860
vn 0.6224 0.3884 -0.6795
vn -0.8947 -0.0607 0.4425
vn 0.6779 0.7253 0.1199
vn -0.1922 0.2130 0.9580
vn 0.7271 0.3324 -0.6007
vn 0.5371 0.5353 0.6519
vn -1.0000 0.0003 0.0030
vn 0.8905 0.2164 0.4002
vn 0.5929 -0.1480 0.7916
vn 0.0009 0.0009 1.0000
vn 0.5850 -0.0527 -0.8093
vn -0.2269 0.0268 0.9736
vn 0.5990 0.0087 0.8007
vn 0.7317 -0.1422 0.6667
vn 0.2957 0.8913 -0.3438
vn -0.7276 0.6032 -0.3267
vn 0.0237 0.0370 0.9990
vn -0.0526 0.8885 0.4559
vn 0.4561 0.6198 0.6386
vn -0.2373 -0.0071 -0.9714
vn 0.5768 0.8147 0.0598
vn -0.9645 0.2133 0.1556
vn 0.7446 0.5816 -0.3275
vn 0.5167 0.5974 -0.6133
vn -0.3313 0.9298 -0.1604
vn -0.2944 0.7065 0.6436
vn -0.2338 0.5362 0.8111
vn 0.6018 0.0032 -0.7987
vn -0.0972 0.0050 0.9953
vn -0.7972 -0.1932 -0.5720
vn 0.5223 0.8505 0.0616
vn 0.5737 0.6549 0.4918
vn -0.0553 0.5744 0.8167
vn 0.2258 0.2202 0.9490
vn -0.6228 -0.3558 -0.6968
vn 0.8907 0.4133 0.1892
vn 0.0714 0.3536 0.9327
vn 0.0447 0.7499 -0.6600
vn -0.1323 0.8953 -0.4253
vn 0.9695 0.1016 0.2232
vn 0.9170 0.3988 -0.0108
vn -0.5452 0.2700 0.7936
vn 0.4362 0.0380 0.8990
vn 0.2951 0.2632 -0.9185
vn -0.4821 0.3657 -0.7961
vn 0.1950 0.8940 -0.4034
vn 0.9423 -0.0356 -0.3329
vn 0.4025 0.9091 -0.1076
vn 0.3269 -0.4949 0.8051
vn 0.2134 0.2999 0.9298
vn -0.6860 -0.3808 0.6200
vn -0.9550 0.0596 0.2906
vn 0.1748 0.1030 0.9792
vn 0.8248 -0.0240 -0.5650
vn 0.9319 0.3332 -0.1431
vn 0.9668 0.1630 0.1968
vn 0.2776 0.0808 0.9573
vn -0.4972 -0.3648 0.7872
vn 0.9981 -0.0501 0.0363
vn -0.5487 0.4490 -0.7052
vn 0.9241 -0.0140 -0.3820
vn -0.3177 -0.8283 0.4614
vn -0.0165 0.0747 0.9971
vn 0.8877 0.2938 -0.3544
vn -0.3405 0.0035 -0.9402
vn 0.3365 -0.7671 0.5461
vn -0.8089 -0.0929 0.5806
vn 0.4298 -0.0462 0.9017
vn 0.3181 0.1199 -0.9404
vn 0.5229 -0.7382 0.4261
vn -0.7629 0.0621 0.6435
vn 0.9496 -0.1720 0.2621
vn -0.5992 0.1675 0.7829
vn -0.0345 0.0359 -0.9988
vn 0.9985 0.0516 0.0157
vn 0.2756 -0.5992 -0.7517
vn 0.0018 -0.6485 -0.7612
vn -0.8810 -0.4499 0.1465
vn 0.6478 -0.0067 0.7618
vn 0.4556 0.2103 0.8650
vn -0.0340 0.7260 0.6869
vn -0.5163 0.8534 -0.0724
vn -0.2986 0.6307 0.7163
vn 0.0951 0.1001 -0.9904
vn -0.2693 -0.7645 -0.5857
vn 0.9970 0.0554 0.0533
vn 0.0895 -0.2651 0.9601
vn 0.5805 0.1093 0.8069
vn -0.5271 0.5811 -0.6201
vn 0.5377 0.4966 0.6814
vn -0.8434 -0.4948 0.2093
vn -0.9709 0.2044 0.1250
vn -0.3994 0.2013 0.8944
vn 0.2875 0.6326 -0.7191
vn 0.9665 0.1663 0.1955
vn 0.5665 0.1860 0.8028
vn 0.1731 0.1464 -0.9740
vn 0.7566 0.2050 -0.6209
vn -0.9659 -0.2564 0.0356
vn -0.1037 0.1472 -0.9836
vn 0.5341 0.5552 -0.6376
vn 0.0412 0.1424 -0.9890
vn -0.8485 0.5158 -0.1182
vn 0.4726 0.8096 0.3482
vn 0.3899 -0.0981 0.9156
vn -0.3391 0.6729 0.6575
vn 0.7058 0.6884 0.1669
vn 0.1116 0.3818 -0.9175
vn 0.7103 0.6279 0.3181
vn 0.2051 0.0961 -0.9740
vn -0.8607 -0.5030 -0.0785
vn 0.1477 0.9218 -0.3584
vn -0.8975 0.4399 -0.0332
vn 0.1959 0.8603 0.4706
vn -0.1073 0.9923 0.0612
vn 0.3728 0.6428 0.6692
vn 0.0534 0.5609 -0.8262
vn -0.5509 0.5171 -0.6551
vn -0.5356 -0.4703 -0.7014
vn 0.0424 0.6445 0.7634
vn 0.4619 0.6688 0.5825
vn 0.8504 0.0776 0.5204
vn 0.8504 0.5080 -0.1369
vn 0.0648 0.6333 -0.7712
vn 0.4251 0.6966 -0.5780
vn 0.8003 0.5991 -0.0244
vn -0.7859 0.6183 -0.0035
vn -0.3506 0.8661 -0.3562
vn 0.1975 0.6012 0.7743
vn 0.2728 0.9197 0.2824
vn 0.2199 0.8618 -0.4572
vn 0.6156 0.6972 0.3674
vn 0.5251 0.3375 0.7813
vn -0.5080 0.5368 0.6736
vn -0.2616 0.9615 0.0846
vn 0.6147 0.7053 -0.3532
vn 0.1464 0.9626 0.2281
vn -0.1817 0.9833 -0.0094
vn 0.2539 0.9672 0.0052
vn -0.4495 0.8861 0.1130
vn -0.1820 0.8329 -0.5226
vn 0.1208 0.9923 -0.0274
s 1
usemtl Liquid_Domain_Material
f 2//2 1//1 4//4
f 2//2 4//4 5//5
f 4//4 1//1 3//3
f 5//5 4//4 3//3
f 1//1 22//22 3//3
f 2//2 25//25 1//1
f 6//6 7//7 8//8
f 7//7 13//13 9//9
f 18//18 8//8 9//9
f 8//8 7//7 9//9
f 6//6 8//8 10//10
f 11//11 12//12 8//8
f 12//12 10//10 8//8
f 13//13 15//15 9//9
f 11//11 8//8 16//16
f 18//18 16//16 8//8
f 23//23 18//18 9//9
f 14//14 17//17 10//10
f 6//6 10//10 17//17
f 6//6 17//17 7//7
f 7//7 17//17 19//19
f 13//13 7//7 19//19
f 15//15 13//13 19//19
f 12//12 11//11 45//45
f 10//10 12//12 45//45
f 10//10 45//45 14//14
f 18//18 23//23 16//16
f 9//9 21//21 23//23
f 9//9 15//15 21//21
f 2//2 5//5 38//38
f 28//28 2//2 20//20
f 21//21 24//24 23//23
f 17//17 27//27 19//19
f 5//5 3//3 53//53
f 16//16 23//23 29//29
f 2//2 38//38 20//20
f 19//19 27//27 15//15
f 16//16 26//26 11//11
f 11//11 35//35 45//45
f 29//29 26//26 16//16
f 33//33 30//30 31//31
f 15//15 32//32 21//21
f 29//29 23//23 24//24
f 15//15 27//27 32//32
f 11//11 26//26 35//35
f 61//61 31//31 30//30
f 37//37 33//33 31//31
f 30//30 33//33 36//36
f 17//17 14//14 27//27
f 21//21 32//32 34//34
f 38//38 5//5 49//49
f 2//2 28//28 25//25
f 30//30 36//36 63//63
f 46//46 39//39 40//40
f 21//21 34//34 24//24
f 37//37 38//38 33//33
f 49//49 33//33 38//38
f 49//49 5//5 74//74
f 1//1 25//25 44//44
f 54//54 41//41 40//40
f 24//24 55//55 29//29
f 40//40 41//41 46//46
f 55//55 24//24 34//34
f 14//14 66//66 27//27
f 32//32 57//57 34//34
f 41//41 47//47 46//46
f 36//36 33//33 42//42
f 60//60 31//31 61//61
f 40//40 39//39 54//54
f 61//61 30//30 63//63
f 63//63 36//36 41//41
f 41//41 36//36 48//48
f 32//32 27//27 66//66
f 42//42 48//48 36//36
f 34//34 52//52 51//51
f 33//33 49//49 42//42
f 59//59 54//54 39//39
f 59//59 60//60 61//61
f 45//45 35//35 50//50
f 37//37 31//31 20//20
f 46//46 56//56 39//39
f 66//66 57//57 32//32
f 41//41 72//72 47//47
f 42//42 58//58 48//48
f 61//61 54//54 59//59
f 54//54 61//61 63//63
f 55//55 64//64 29//29
f 63//63 41//41 54//54
f 14//14 45//45 66//66
f 37//37 20//20 65//65
f 51//51 55//55 34//34
f 67//67 38//38 37//37
f 48//48 68//68 41//41
f 68//68 72//72 41//41
f 57//57 52//52 34//34
f 20//20 31//31 69//69
f 39//39 56//56 62//62
f 46//46 47//47 71//71
f 58//58 68//68 48//48
f 74//74 5//5 43//43
f 43//43 5//5 99//99
f 76//76 81//81 64//64
f 64//64 55//55 76//76
f 37//37 65//65 67//67
f 20//20 38//38 65//65
f 38//38 67//67 77//77
f 77//77 65//65 38//38
f 70//70 46//46 71//71
f 71//71 47//47 72//72
f 49//49 73//73 42//42
f 28//28 78//78 25//25
f 28//28 136//136 78//78
f 59//59 89//89 60//60
f 28//28 20//20 136//136
f 59//59 39//39 79//79
f 75//75 80//80 60//60
f 60//60 80//80 31//31
f 31//31 80//80 69//69
f 50//50 66//66 45//45
f 55//55 51//51 76//76
f 82//82 57//57 66//66
f 58//58 83//83 68//68
f 49//49 88//88 73//73
f 87//87 51//51 52//52
f 86//86 52//52 57//57
f 42//42 73//73 58//58
f 25//25 96//96 44//44
f 59//59 84//84 89//89
f 84//84 59//59 79//79
f 60//60 89//89 75//75
f 26//26 29//29 85//85
f 39//39 62//62 79//79
f 93//93 82//82 66//66
f 51//51 87//87 90//90
f 49//49 74//74 43//43
f 52//52 86//86 95//95
f 88//88 83//83 58//58
f 73//73 88//88 58//58
f 50//50 35//35 92//92
f 20//20 69//69 136//136
f 64//64 85//85 29//29
f 64//64 81//81 85//85
f 76//76 51//51 90//90
f 46//46 70//70 56//56
f 67//67 49//49 77//77
f 82//82 86//86 57//57
f 49//49 67//67 88//88
f 72//72 94//94 71//71
f 68//68 94//94 72//72
f 53//53 99//99 5//5
f 26//26 91//91 35//35
f 35//35 91//91 92//92
f 26//26 85//85 91//91
f 50//50 93//93 66//66
f 65//65 77//77 49//49
f 52//52 95//95 87//87
f 1//1 44//44 149//149
f 1//1 149//149 22//22
f 65//65 49//49 101//101
f 67//67 107//107 88//88
f 49//49 43//43 101//101
f 83//83 103//103 68//68
f 81//81 92//92 85//85
f 92//92 81//81 100//100
f 81//81 76//76 100//100
f 82//82 93//93 106//106
f 95//95 86//86 108//108
f 98//98 88//88 107//107
f 98//98 105//105 88//88
f 22//22 104//104 3//3
f 25//25 78//78 96//96
f 79//79 62//62 56//56
f 136//136 69//69 112//112
f 69//69 80//80 112//112
f 70//70 71//71 56//56
f 102//102 107//107 67//67
f 106//106 86//86 82//82
f 90//90 87//87 95//95
f 43//43 99//99 115//115
f 50//50 92//92 100//100
f 84//84 79//79 109//109
f 50//50 100//100 93//93
f 106//106 93//93 100//100
f 65//65 102//102 67//67
f 76//76 90//90 113//113
f 102//102 65//65 101//101
f 68//68 103//103 94//94
f 95//95 108//108 111//111
f 92//92 91//91 85//85
f 71//71 124//124 56//56
f 88//88 103//103 83//83
f 113//113 100//100 76//76
f 109//109 79//79 56//56
f 124//124 109//109 56//56
f 22//22 97//97 104//104
f 95//95 111//111 90//90
f 117//117 100//100 113//113
f 75//75 112//112 80//80
f 90//90 110//110 113//113
f 106//106 114//114 86//86
f 103//103 120//120 94//94
f 108//108 86//86 114//114
f 105//105 103//103 88//88
f 115//115 99//99 122//122
f 3//3 104//104 53//53
f 109//109 124//124 116//116
f 112//112 118//118 102//102
f 71//71 94//94 119//119
f 102//102 118//118 107//107
f 114//114 121//121 108//108
f 89//89 78//78 126//126
f 123//123 89//89 84//84
f 84//84 109//109 123//123
f 118//118 112//112 75//75
f 124//124 137//137 116//116
f 106//106 100//100 114//114
f 132//132 115//115 122//122
f 108//108 121//121 111//111
f 96//96 135//135 44//44
f 78//78 125//125 96//96
f 123//123 125//125 89//89
f 125//125 78//78 89//89
f 116//116 123//123 109//109
f 100//100 128//128 114//114
f 124//124 71//71 119//119
f 119//119 94//94 120//120
f 107//107 131//131 98//98
f 133//133 115//115 132//132
f 111//111 121//121 147//147
f 134//134 115//115 133//133
f 98//98 144//144 105//105
f 99//99 53//53 156//156
f 125//125 126//126 96//96
f 117//117 128//128 100//100
f 124//124 129//129 137//137
f 118//118 146//146 107//107
f 107//107 146//146 130//130
f 43//43 131//131 101//101
f 90//90 111//111 147//147
f 144//144 103//103 105//105
f 134//134 99//99 139//139
f 115//115 134//134 139//139
f 43//43 139//139 140//140
f 44//44 135//135 149//149
f 126//126 78//78 150//150
f 89//89 126//126 75//75
f 116//116 137//137 141//141
f 138//138 113//113 110//110
f 128//128 142//142 114//114
f 110//110 90//90 147//147
f 122//122 157//157 132//132
f 103//103 148//148 120//120
f 134//134 122//122 99//99
f 43//43 115//115 139//139
f 136//136 150//150 78//78
f 151//151 116//116 141//141
f 149//149 97//97 22//22
f 117//117 113//113 127//127
f 117//117 127//127 128//128
f 113//113 138//138 127//127
f 112//112 102//102 146//146
f 146//146 102//102 101//101
f 138//138 110//110 147//147
f 129//129 124//124 119//119
f 130//130 131//131 107//107
f 131//131 130//130 101//101
f 114//114 143//143 121//121
f 122//122 145//145 157//157
f 122//122 134//134 145//145
f 131//131 144//144 98//98
f 99//99 156//156 139//139
f 126//126 150//150 96//96
f 150//150 136//136 75//75
f 116//116 151//151 123//123
f 126//126 125//125 75//75
f 136//136 112//112 146//146
f 129//129 152//152 137//137
f 114//114 142//142 143//143
f 120//120 148//148 119//119
f 144//144 148//148 103//103
f 155//155 121//121 143//143
f 131//131 43//43 140//140
f 125//125 123//123 150//150
f 125//125 150//150 75//75
f 152//152 141//141 137//137
f 130//130 146//146 101//101
f 132//132 157//157 133//133
f 156//156 155//155 153//153
f 133//133 154//154 134//134
f 151//151 96//96 123//123
f 96//96 150//150 123//123
f 138//138 147//147 97//97
f 133//133 157//157 119//119
f 119//119 154//154 133//133
f 148//148 144//144 154//154
f 121//121 53//53 147//147
f 121//121 156//156 53//53
f 155//155 156//156 121//121
f 134//134 154//154 145//145
f 96//96 151//151 135//135
f 135//135 127//127 149//149
f 136//136 118//118 75//75
f 136//136 146//146 118//118
f 127//127 97//97 149//149
f 151//151 141//141 135//135
f 135//135 128//128 127//127
f 127//127 138//138 97//97
f 135//135 142//142 128//128
f 141//141 142//142 135//135
f 152//152 153//153 141//141
f 141//141 153//153 142//142
f 142//142 153//153 155//155
f 152//152 157//157 153//153
f 129//129 157//157 152//152
f 147//147 104//104 97//97
f 155//155 143//143 142//142
f 119//119 157//157 129//129
f 148//148 154//154 119//119
f 157//157 145//145 153//153
f 145//145 156//156 153//153
f 147//147 53//53 104//104
f 144//144 131//131 140//140
f 139//139 145//145 154//154
f 144//144 139//139 154//154
f 140//140 139//139 144//144
f 139//139 156//156 145//145
