# Blender 4.1.1
# www.blender.org
mtllib aa0065.mtl
o Liquid_Domain
v -8.419739 -9.090061 6.164896
v 8.473280 -9.077642 6.153296
v 8.481242 -9.085016 -6.113482
v -8.449951 -9.080376 -6.206290
v -4.995875 -2.368788 6.196517
v -3.428391 -7.752899 0.396261
v -1.938111 -7.426367 3.902777
v -5.241075 -7.206095 3.390265
v -0.836895 -7.425175 2.031960
v -1.196084 -6.363831 2.942361
v -6.450367 -5.634936 4.449046
v -3.468785 -6.381293 4.568305
v 8.339969 -2.475596 -0.423870
v -2.564988 -6.161599 0.332392
v -4.059884 -5.872573 -0.149406
v 6.090977 -6.154778 4.860737
v -1.688827 -4.539048 3.447025
v -7.075116 -5.831702 2.173973
v -6.083764 -5.718470 -0.108101
v -3.285204 -5.797695 -1.881073
v 5.294899 -5.257861 1.362247
v -5.048391 -4.661652 -0.171105
v -7.296533 -3.989347 -0.555792
v 7.845197 -0.705745 -6.205391
v 6.346813 -4.314806 4.608240
v -8.444674 -3.284740 0.635549
v 7.189590 -4.968678 2.186090
v 5.357138 -4.165668 -1.079828
v -4.649508 -4.033948 4.174435
v 5.035685 -5.077818 4.317755
v 6.116500 -3.879933 0.911773
v 7.792279 -3.952260 0.334895
v -3.037619 -3.497785 -1.355466
v -8.441194 6.596035 -2.036153
v 7.493264 -3.844304 5.007693
v -0.144758 -2.512077 2.157495
v 8.451382 -2.355762 -2.086298
v 2.151902 -4.242818 -2.283518
v 8.328474 -2.555375 -4.759651
v -1.385922 -3.041796 4.571388
v 1.235873 -4.515964 1.563438
v 2.549369 -3.360992 2.183891
v -7.275894 -2.153246 1.650216
v 1.071862 -2.455278 -0.700796
v 7.737315 -1.603964 -1.726911
v -7.264316 -2.827713 -2.108943
v 3.619563 -3.339702 -3.533847
v 4.692814 -2.003387 6.166396
v -6.990801 -1.686481 4.228325
v 0.334745 -2.598758 3.692193
v 2.923535 -3.407999 3.910791
v 7.793751 -1.392431 2.533170
v 4.221758 -3.221475 2.640516
v -1.778074 -1.456037 0.036550
v 4.443616 -4.130719 -1.501522
v -5.621253 -2.682429 -1.629157
v -4.110253 6.713980 -6.197920
v 4.735738 -2.457401 5.294785
v -4.128238 0.648964 4.238101
v 8.336515 -1.716546 1.488864
v 6.464335 -2.480089 -2.248370
v 1.137918 -1.218985 -2.770796
v 2.596717 -1.788429 4.813857
v 7.629223 0.885315 4.651343
v -2.376930 -0.917998 4.064444
v -5.204096 -0.048391 -2.928073
v 6.123853 0.230431 -3.464677
v -5.800989 -1.667076 2.842488
v 2.086795 -1.588895 -0.180143
v 8.340171 0.434143 -2.143892
v 6.465847 -0.072217 -4.949622
v -8.440776 7.034297 6.167494
v 6.802892 0.570569 5.215244
v -6.580266 -0.744747 0.730815
v 0.131316 1.050796 -2.426052
v -3.094088 -0.926626 -1.669994
v -7.156407 0.202173 -4.079677
v 2.742693 -0.992986 -3.274637
v 3.886992 1.401913 5.235373
v 8.373592 -0.966269 0.235543
v -5.787465 3.209044 3.440904
v -6.318165 0.444247 2.879640
v 7.503282 0.758022 -1.428213
v 8.340319 6.986997 6.129663
v -5.602785 2.174429 4.439217
v 7.729540 3.412232 1.101459
v 2.074004 0.953544 -0.468469
v -7.516404 1.318751 -2.906981
v 2.294098 1.333260 4.007353
v -3.080734 4.440871 3.152504
v -4.172291 3.453722 -0.618957
v -5.121372 2.212301 -2.236634
v 5.022715 2.024872 -3.172918
v 8.053217 -0.345654 -5.369925
v -6.912091 2.188866 -0.821095
v 0.858341 2.012133 -0.811719
v 2.462322 1.301408 -2.725934
v -6.691013 1.514261 -3.450797
v 7.074744 1.724936 -4.472611
v -8.320287 6.874129 -6.161820
v 1.357489 2.378049 -2.089738
v 8.010314 1.688992 -6.091132
v 7.899312 2.828068 -2.358445
v 8.362535 4.021715 -5.634438
v 1.740511 3.344763 5.075917
v 0.986147 2.564297 3.927216
v 7.511358 4.722128 5.360075
v -4.693534 2.170497 -4.719454
v -0.313187 6.637892 -6.169508
v -2.535450 3.469270 3.972337
v -0.643303 2.534553 0.754714
v -7.136778 6.273284 -1.578571
v -4.379589 3.075897 -3.593119
v -5.410450 3.768329 -4.643121
v 5.810707 2.249194 -5.254918
v -0.614528 3.160106 -1.809528
v 7.569242 6.132075 -5.334954
v -4.501397 5.099047 4.245329
v 0.256377 3.905572 4.911947
v -1.649304 3.619186 2.064711
v 8.342878 6.401528 2.616232
v 2.124044 3.066938 -4.351371
v -3.703985 6.322306 -5.009001
v 3.528364 3.873275 -6.142179
v 8.333548 6.896522 -0.641309
v 7.540921 5.226218 -1.147672
v -6.333601 3.197924 -4.078349
v 3.545896 5.243723 -3.386826
v 4.910673 3.352327 -3.800963
v -3.314539 4.785977 -3.403117
v 1.143154 3.709072 -5.321402
v 7.603995 6.498472 -6.054022
v -6.617573 4.820751 1.350552
v -6.717437 5.316887 0.325325
v -0.983652 6.824551 -0.684209
v 7.819304 6.770093 4.673214
v -5.090946 4.561724 2.765449
v -3.406235 4.943252 -0.303832
v -3.554898 5.042255 -1.545910
v -4.748217 5.609766 -3.751309
v 1.095659 6.674937 6.118766
v 7.792020 6.606790 2.432698
v -3.265590 4.165553 1.806075
v -2.230917 6.766948 1.327449
v 7.304839 6.729656 -2.976351
v 8.390387 6.959278 -5.124928
v 3.136798 6.275528 -5.185874
v 1.994585 6.647516 5.368720
v -4.034584 6.776483 -2.976265
v 4.499237 7.053552 -5.656323
v -6.495378 7.001729 -5.521657
v 6.344015 6.815908 5.554638
v 3.356561 6.760323 -6.082667
v -0.699840 7.062001 5.201996
v -7.999207 7.046911 -1.229079
v -6.000576 7.030957 0.226275
v -1.262914 7.020499 -5.302920
vn -0.5020 -0.5259 0.6866
vn 0.5081 -0.5216 0.6855
vn 0.5123 -0.5220 -0.6819
vn -0.5025 -0.5231 -0.6884
vn -0.0017 0.0004 1.0000
vn 0.1055 0.6954 0.7108
vn -0.3972 0.5702 -0.7191
vn 0.3880 0.8791 -0.2767
vn -0.8487 0.4764 0.2297
vn -0.9139 -0.0652 -0.4007
vn 0.4940 0.2686 -0.8269
vn -0.0993 0.1947 -0.9758
vn 0.4077 0.5064 0.7598
vn -0.7116 0.2178 0.6679
vn 0.3617 0.7210 0.5910
vn -0.0984 0.5960 -0.7969
vn -0.8689 0.0864 -0.4875
vn 0.8816 0.4714 0.0252
vn 0.2409 0.6494 0.7213
vn -0.1680 0.5436 0.8224
vn 0.2250 0.8968 0.3809
vn 0.2803 0.3942 0.8752
vn 0.7080 0.4512 0.5432
vn 0.5000 0.0179 -0.8659
vn -0.1874 0.4641 -0.8658
vn -1.0000 -0.0007 0.0017
vn -0.6244 0.7498 0.2190
vn -0.4711 0.7987 0.3744
vn -0.1012 -0.0091 -0.9948
vn 0.6231 0.5213 -0.5831
vn -0.3270 0.7904 0.5180
vn -0.5287 0.7872 0.3176
vn -0.9224 0.0748 0.3790
vn -0.9311 0.3649 0.0011
vn -0.5090 0.4142 -0.7546
vn 0.9602 -0.2782 -0.0250
vn 0.8238 0.4013 -0.4004
vn 0.4241 0.7959 0.4321
vn 0.9451 0.3038 0.1208
vn -0.5638 0.0970 -0.8202
vn 0.2150 0.9765 -0.0134
vn -0.3858 0.9224 -0.0203
vn 0.9290 -0.3223 -0.1818
vn 0.9998 0.0137 0.0136
vn -0.8301 0.2642 -0.4910
vn 0.4904 0.5683 0.6607
vn -0.0729 0.3350 0.9394
vn 0.0037 0.0024 1.0000
vn 0.6958 -0.1291 -0.7065
vn 0.7152 -0.0395 -0.6978
vn 0.3163 0.8066 -0.4993
vn -0.9940 -0.0064 -0.1096
vn 0.4662 0.8799 0.0917
vn -0.9403 -0.0492 0.3367
vn -0.0376 0.9757 0.2157
vn -0.0464 0.4565 0.8885
vn 0.0065 0.4957 -0.8685
vn 0.1419 0.2011 -0.9692
vn -0.0845 -0.0097 -0.9964
vn 0.4474 0.0817 -0.8906
vn -0.2080 0.7953 0.5694
vn 0.6340 0.1940 0.7486
vn 0.5380 0.1074 -0.8361
vn -0.8752 0.0234 -0.4831
vn -0.7269 -0.3495 -0.5911
vn -0.4804 0.1158 0.8693
vn 0.5579 0.1256 0.8203
vn 0.8627 -0.4757 0.1717
vn 0.8408 -0.4338 -0.3239
vn 0.7625 -0.5781 -0.2903
vn 0.6404 -0.0000 0.7681
vn -0.5008 0.5241 0.6888
vn -0.2597 0.0119 -0.9656
vn 0.9706 -0.1609 -0.1793
vn 0.8397 -0.2230 0.4952
vn -0.5948 -0.0404 0.8029
vn 0.2173 0.0590 0.9743
vn 0.1168 -0.0413 0.9923
vn 0.1839 -0.0094 -0.9829
vn 0.9196 -0.3882 0.0595
vn 0.8507 -0.3238 -0.4141
vn 0.9999 -0.0096 0.0131
vn -0.9912 -0.0708 -0.1118
vn 0.4916 0.5746 0.6543
vn 0.3546 -0.1415 -0.9243
vn -1.0000 0.0011 0.0094
vn 0.8608 0.3146 -0.4001
vn 0.9610 -0.0919 0.2608
vn 0.7931 0.3502 -0.4984
vn -0.7131 -0.6955 0.0884
vn -0.9095 0.0827 0.4074
vn -0.7211 -0.1256 0.6813
vn 0.3408 0.1347 0.9304
vn 0.9084 -0.0464 0.4155
vn 0.9750 -0.0028 -0.2222
vn 0.6863 0.7227 -0.0815
vn 0.2365 -0.1416 0.9613
vn -0.0578 -0.0453 0.9973
vn -0.3815 0.1480 0.9125
vn -0.5020 0.5080 -0.6999
vn 0.5181 0.2739 0.8103
vn 0.5665 -0.0128 -0.8239
vn -0.9925 0.0862 0.0863
vn 0.8849 0.0123 -0.4656
vn 0.2314 0.2873 -0.9295
vn 0.5960 0.6766 -0.4324
vn -0.5465 0.0375 -0.8366
vn 0.0576 0.8865 0.4592
vn 0.0043 0.4784 -0.8781
vn -0.8062 -0.2025 -0.5559
vn 0.6681 0.7427 0.0446
vn 0.9286 0.3597 -0.0915
vn 0.0238 0.4075 -0.9129
vn 0.3660 0.6211 0.6930
vn 0.0669 0.6627 0.7459
vn 0.7870 0.5721 0.2307
vn -0.7880 0.2384 0.5676
vn 0.1194 -0.7168 -0.6870
vn 0.4789 0.4049 -0.7789
vn 0.8553 0.4805 -0.1937
vn 0.9447 0.3257 0.0386
vn -0.0784 0.9248 0.3722
vn -0.5946 0.3548 -0.7215
vn 0.0339 0.0405 -0.9986
vn 0.2588 0.9573 0.1289
vn -0.9955 0.0692 0.0643
vn 0.1538 0.4446 0.8824
vn 0.1114 0.9859 0.1250
vn 0.6118 0.7905 -0.0294
vn -0.8543 0.5087 -0.1070
vn 0.0973 0.4996 0.8608
vn 0.2731 0.5563 -0.7848
vn 0.6484 -0.6645 -0.3716
vn 0.6405 -0.5334 -0.5525
vn 0.6871 0.7097 0.1555
vn -0.4887 0.7831 -0.3845
vn 0.3214 -0.9270 -0.1931
vn -0.8016 -0.5964 0.0430
vn -0.9042 -0.2823 -0.3204
vn -0.1423 0.9352 -0.3244
vn -0.0358 0.7664 0.6414
vn -0.9057 0.4236 -0.0178
vn -0.9652 0.0485 -0.2570
vn 0.5477 0.8362 0.0264
vn -0.8257 0.5637 0.0222
vn 0.5254 0.7870 -0.3233
vn 0.0531 0.4298 0.9014
vn -0.1495 0.6140 -0.7750
vn -0.8073 0.4514 -0.3802
vn 0.0443 0.8999 0.4338
vn 0.2000 0.9550 0.2190
vn -0.1248 0.6723 -0.7297
vn -0.0557 0.6837 -0.7276
vn 0.4183 0.8848 -0.2052
vn -0.1527 0.9795 -0.1317
vn 0.0083 0.9462 -0.3234
vn 0.1998 0.9730 0.1153
s 1
usemtl Liquid_Domain_Material
f 2//2 1//1 3//3
f 1//1 4//4 3//3
f 2//2 5//5 1//1
f 26//26 4//4 1//1
f 2//2 48//48 5//5
f 8//8 7//7 6//6
f 6//6 7//7 9//9
f 8//8 12//12 7//7
f 10//10 9//9 7//7
f 6//6 9//9 14//14
f 8//8 6//6 15//15
f 15//15 6//6 14//14
f 12//12 8//8 11//11
f 13//13 2//2 3//3
f 3//3 4//4 24//24
f 11//11 8//8 18//18
f 8//8 15//15 18//18
f 17//17 7//7 12//12
f 10//10 7//7 17//17
f 10//10 17//17 9//9
f 17//17 14//14 9//9
f 15//15 19//19 18//18
f 14//14 20//20 15//15
f 16//16 27//27 21//21
f 19//19 23//23 18//18
f 22//22 19//19 15//15
f 22//22 15//15 20//20
f 4//4 57//57 24//24
f 12//12 11//11 29//29
f 30//30 16//16 21//21
f 25//25 27//27 16//16
f 2//2 13//13 60//60
f 30//30 25//25 16//16
f 18//18 23//23 11//11
f 28//28 55//55 21//21
f 56//56 22//22 20//20
f 12//12 29//29 17//17
f 30//30 21//21 53//53
f 27//27 31//31 21//21
f 53//53 21//21 55//55
f 32//32 31//31 27//27
f 21//21 31//31 28//28
f 17//17 33//33 14//14
f 19//19 22//22 23//23
f 14//14 33//33 20//20
f 13//13 3//3 37//37
f 26//26 34//34 4//4
f 27//27 25//25 35//35
f 35//35 32//32 27//27
f 38//38 41//41 42//42
f 37//37 3//3 39//39
f 29//29 40//40 17//17
f 51//51 30//30 53//53
f 60//60 13//13 32//32
f 55//55 38//38 42//42
f 13//13 45//45 32//32
f 56//56 23//23 22//22
f 41//41 38//38 44//44
f 55//55 47//47 38//38
f 28//28 47//47 55//55
f 30//30 51//51 58//58
f 58//58 25//25 30//30
f 35//35 25//25 58//58
f 50//50 51//51 41//41
f 42//42 41//41 51//51
f 35//35 52//52 32//32
f 41//41 36//36 50//50
f 42//42 51//51 53//53
f 11//11 23//23 43//43
f 40//40 54//54 17//17
f 53//53 55//55 42//42
f 36//36 41//41 44//44
f 46//46 23//23 56//56
f 29//29 11//11 59//59
f 49//49 11//11 43//43
f 60//60 32//32 52//52
f 54//54 33//33 17//17
f 20//20 33//33 76//76
f 31//31 61//61 28//28
f 32//32 61//61 31//31
f 61//61 32//32 45//45
f 44//44 38//38 62//62
f 62//62 38//38 47//47
f 28//28 61//61 47//47
f 35//35 58//58 73//73
f 11//11 49//49 59//59
f 50//50 63//63 51//51
f 54//54 76//76 33//33
f 20//20 76//76 56//56
f 37//37 39//39 61//61
f 39//39 3//3 94//94
f 94//94 3//3 24//24
f 58//58 51//51 63//63
f 35//35 73//73 64//64
f 29//29 59//59 40//40
f 64//64 52//52 35//35
f 43//43 23//23 46//46
f 56//56 66//66 46//46
f 45//45 37//37 61//61
f 47//47 78//78 62//62
f 65//65 54//54 40//40
f 50//50 36//36 63//63
f 69//69 63//63 36//36
f 49//49 43//43 68//68
f 36//36 44//44 69//69
f 43//43 46//46 74//74
f 37//37 80//80 13//13
f 45//45 70//70 37//37
f 71//71 61//61 39//39
f 1//1 5//5 72//72
f 40//40 59//59 65//65
f 68//68 43//43 74//74
f 80//80 45//45 13//13
f 66//66 56//56 76//76
f 44//44 62//62 75//75
f 66//66 77//77 46//46
f 61//61 78//78 47//47
f 79//79 58//58 63//63
f 73//73 58//58 79//79
f 68//68 82//82 49//49
f 80//80 60//60 52//52
f 45//45 80//80 52//52
f 44//44 75//75 69//69
f 37//37 70//70 80//80
f 45//45 83//83 70//70
f 67//67 61//61 71//71
f 39//39 94//94 71//71
f 49//49 85//85 59//59
f 49//49 82//82 81//81
f 68//68 74//74 82//82
f 45//45 52//52 83//83
f 86//86 83//83 52//52
f 87//87 69//69 75//75
f 74//74 46//46 88//88
f 61//61 67//67 78//78
f 4//4 100//100 57//57
f 63//63 89//89 79//79
f 49//49 81//81 85//85
f 63//63 69//69 89//89
f 65//65 90//90 54//54
f 89//89 69//69 87//87
f 64//64 86//86 52//52
f 91//91 76//76 54//54
f 92//92 76//76 91//91
f 92//92 66//66 76//76
f 62//62 78//78 75//75
f 67//67 93//93 78//78
f 46//46 77//77 88//88
f 48//48 2//2 84//84
f 65//65 59//59 110//110
f 82//82 74//74 95//95
f 54//54 90//90 91//91
f 74//74 88//88 95//95
f 96//96 87//87 75//75
f 66//66 92//92 77//77
f 78//78 97//97 75//75
f 70//70 83//83 94//94
f 94//94 24//24 102//102
f 77//77 92//92 98//98
f 78//78 93//93 97//97
f 83//83 99//99 94//94
f 99//99 71//71 94//94
f 70//70 94//94 102//102
f 34//34 100//100 4//4
f 1//1 72//72 26//26
f 110//110 90//90 65//65
f 87//87 96//96 89//89
f 101//101 96//96 75//75
f 77//77 98//98 88//88
f 93//93 67//67 99//99
f 67//67 71//71 99//99
f 57//57 109//109 24//24
f 24//24 124//124 102//102
f 84//84 2//2 60//60
f 96//96 106//106 89//89
f 101//101 75//75 97//97
f 83//83 103//103 99//99
f 70//70 102//102 104//104
f 89//89 105//105 79//79
f 105//105 89//89 106//106
f 107//107 86//86 64//64
f 80//80 70//70 121//121
f 96//96 101//101 116//116
f 64//64 73//73 107//107
f 106//106 96//96 111//111
f 86//86 103//103 83//83
f 116//116 111//111 96//96
f 108//108 114//114 113//113
f 129//129 115//115 122//122
f 59//59 85//85 110//110
f 72//72 34//34 26//26
f 133//133 81//81 82//82
f 82//82 95//95 133//133
f 95//95 88//88 112//112
f 98//98 92//92 127//127
f 97//97 93//93 128//128
f 93//93 129//129 128//128
f 129//129 93//93 99//99
f 103//103 117//117 99//99
f 99//99 115//115 129//129
f 99//99 117//117 115//115
f 85//85 118//118 110//110
f 105//105 106//106 119//119
f 119//119 111//111 120//120
f 106//106 111//111 119//119
f 60//60 80//80 121//121
f 90//90 143//143 91//91
f 116//116 101//101 122//122
f 122//122 131//131 116//116
f 98//98 127//127 88//88
f 24//24 109//109 124//124
f 73//73 79//79 105//105
f 85//85 81//81 118//118
f 111//111 116//116 135//135
f 86//86 126//126 103//103
f 91//91 127//127 92//92
f 101//101 128//128 122//122
f 97//97 128//128 101//101
f 113//113 130//130 108//108
f 122//122 115//115 147//147
f 48//48 141//141 5//5
f 73//73 105//105 107//107
f 136//136 86//86 107//107
f 133//133 95//95 134//134
f 111//111 135//135 120//120
f 143//143 138//138 91//91
f 125//125 121//121 70//70
f 112//112 134//134 95//95
f 88//88 127//127 112//112
f 128//128 129//129 122//122
f 131//131 122//122 147//147
f 102//102 124//124 132//132
f 139//139 91//91 138//138
f 127//127 91//91 140//140
f 114//114 127//127 140//140
f 130//130 113//113 114//114
f 130//130 114//114 140//140
f 130//130 123//123 108//108
f 114//114 108//108 123//123
f 132//132 124//124 153//153
f 102//102 132//132 104//104
f 118//118 81//81 137//137
f 110//110 118//118 90//90
f 118//118 137//137 143//143
f 90//90 118//118 143//143
f 133//133 137//137 81//81
f 143//143 137//137 138//138
f 139//139 130//130 91//91
f 48//48 84//84 141//141
f 105//105 119//119 148//148
f 136//136 142//142 86//86
f 137//137 133//133 139//139
f 138//138 137//137 139//139
f 103//103 126//126 117//117
f 126//126 145//145 117//117
f 125//125 70//70 146//146
f 130//130 140//140 91//91
f 116//116 157//157 135//135
f 157//157 116//116 131//131
f 5//5 141//141 72//72
f 120//120 144//144 119//119
f 133//133 134//134 149//149
f 139//139 133//133 149//149
f 139//139 123//123 130//130
f 115//115 150//150 147//147
f 115//115 117//117 150//150
f 119//119 141//141 148//148
f 107//107 105//105 148//148
f 107//107 148//148 152//152
f 107//107 152//152 136//136
f 119//119 154//154 141//141
f 60//60 121//121 84//84
f 142//142 126//126 86//86
f 135//135 144//144 120//120
f 112//112 127//127 151//151
f 145//145 132//132 117//117
f 151//151 127//127 114//114
f 70//70 104//104 146//146
f 124//124 109//109 153//153
f 119//119 144//144 154//154
f 134//134 112//112 156//156
f 156//156 149//149 134//134
f 139//139 149//149 123//123
f 146//146 104//104 132//132
f 84//84 121//121 136//136
f 125//125 126//126 142//142
f 126//126 125//125 145//145
f 151//151 155//155 112//112
f 114//114 157//157 151//151
f 123//123 157//157 114//114
f 131//131 147//147 157//157
f 150//150 153//153 147//147
f 132//132 150//150 117//117
f 109//109 57//57 157//157
f 132//132 153//153 150//150
f 72//72 141//141 154//154
f 141//141 84//84 152//152
f 152//152 148//148 141//141
f 84//84 136//136 152//152
f 154//154 155//155 72//72
f 72//72 155//155 34//34
f 136//136 121//121 125//125
f 136//136 125//125 142//142
f 154//154 156//156 155//155
f 144//144 156//156 154//154
f 144//144 135//135 156//156
f 156//156 112//112 155//155
f 135//135 157//157 156//156
f 157//157 149//149 156//156
f 125//125 146//146 145//145
f 157//157 123//123 149//149
f 146//146 132//132 145//145
f 34//34 155//155 100//100
f 151//151 100//100 155//155
f 57//57 151//151 157//157
f 147//147 153//153 157//157
f 57//57 100//100 151//151
f 153//153 109//109 157//157
