# Blender 4.1.1
# www.blender.org
mtllib aa0086.mtl
o Liquid_Domain
v -8.424949 -9.063609 6.134392
v -2.859236 -9.077359 6.140619
v -8.420175 -9.076652 -6.205386
v 8.442116 -9.074191 -6.202397
v -3.443664 -7.242376 6.085548
v -8.448177 -2.602656 0.198773
v 8.390950 1.782840 -2.646489
v -3.606710 -8.011902 5.586648
v -6.084709 -8.173096 4.878871
v 0.764673 -7.462423 4.379910
v -5.273022 -7.772724 0.255134
v -0.877337 -7.056362 0.754709
v -2.838752 -7.576723 1.167074
v -0.063542 -6.617889 5.964733
v -6.780329 -7.181542 5.862713
v -2.307831 -5.816463 5.374650
v -5.556713 -5.910626 1.187048
v -7.653835 -5.010982 1.559303
v -2.885447 -5.733536 0.933500
v 8.437766 -9.072084 6.203317
v -3.691460 -6.045778 2.340966
v -1.296172 -5.143381 0.131673
v -6.920858 -5.999155 0.462791
v 6.735645 -6.005491 0.529834
v 4.896801 -6.700720 -1.421943
v 7.048400 -6.018447 -1.800704
v -4.811121 -5.042377 6.140885
v -5.117957 -4.879007 2.885146
v -3.881962 -5.926844 -0.046362
v -8.396490 -0.723589 6.155301
v -4.904789 -5.021632 4.962459
v -3.937006 -5.803317 5.577006
v -2.345522 -5.094167 3.917941
v 0.034254 -2.287074 3.687661
v -4.601027 -5.097782 -2.025638
v -7.068630 -3.757461 5.228077
v -7.007533 -4.183318 0.248687
v 7.230927 -4.143569 -3.773854
v 7.120663 -1.003444 1.052065
v -1.233376 -3.073447 -1.481631
v -4.019035 -3.208228 5.661078
v 8.458111 4.090117 2.563429
v -5.058674 -2.967640 -1.017024
v -0.655338 -4.476532 6.101607
v -1.931744 -1.992626 5.134447
v -7.358624 -2.396962 2.205987
v 2.204339 -2.835185 0.665486
v -1.901362 -1.845887 -0.318446
v 1.870234 -3.565958 -1.672612
v 6.557824 -3.097843 -5.349188
v -6.285807 -1.898834 3.682046
v 1.975664 -2.855754 -3.328428
v 3.926465 -2.558714 -4.090684
v -2.959804 5.825268 -6.187932
v 4.915851 2.001664 -6.172920
v 5.604871 -2.137130 2.908710
v -6.140625 -2.719208 -0.734379
v -6.611134 -3.102612 -3.487678
v -6.670614 -0.906042 6.074169
v 2.236170 -2.426208 2.726246
v -3.083339 -1.102216 -1.186447
v 2.070130 -0.212840 -1.227992
v -7.349335 0.331782 -1.315133
v -5.647904 -2.703598 1.258198
v -3.241682 -0.748872 -4.210635
v -5.206189 0.086161 -4.640854
v -2.435869 -0.094383 4.426742
v -1.980357 -0.658325 -1.937511
v 3.247788 -0.344146 5.280844
v -7.238485 0.672772 3.783242
v 6.238106 -0.824604 -4.167190
v 6.425261 1.035044 3.475317
v -1.903064 0.541575 0.044047
v -5.156157 0.900603 5.264057
v 2.069397 2.211968 -0.376103
v 7.403019 0.856662 -3.872868
v 6.860728 1.230944 -4.864886
v -3.365493 2.059887 -2.602232
v 8.359756 5.382966 -6.155944
v 8.368749 6.955327 6.159041
v 3.583370 1.105400 4.739537
v -6.017054 0.521057 3.267941
v 7.130799 2.394266 1.281121
v -6.241320 1.806227 6.183112
v 8.281648 3.556630 -0.108999
v 8.026083 2.447558 -3.255071
v -3.735605 2.629884 5.094491
v -1.554111 2.244691 3.485652
v -7.164437 2.830799 0.429846
v 6.970884 2.621085 -3.877935
v -8.421938 7.005441 6.151304
v 5.124748 2.800104 5.290261
v 0.620751 3.428662 2.146980
v 8.362918 2.401895 -3.912386
v 2.910751 4.714561 -6.081700
v -2.771285 3.262775 0.523866
v -2.502202 4.360122 -1.686413
v 6.003203 3.334577 -3.310457
v 7.830162 2.669328 -1.924593
v -5.475572 1.560058 -4.028406
v -3.290587 3.852037 3.266539
v -6.526520 2.748713 -1.702692
v 2.017501 2.421734 -2.652386
v 4.059381 2.653045 -5.088230
v 0.710286 3.935461 -1.813565
v 4.126911 3.868649 -6.004438
v 2.627720 3.192421 4.878230
v 2.353388 5.755433 -0.103648
v 4.291049 4.171175 -0.057772
v 2.418747 4.169603 -1.343722
v 2.107281 5.292022 -5.050064
v 6.648839 4.497878 3.451752
v -5.858139 4.227003 4.060106
v -3.422983 5.188708 3.954401
v 2.059051 4.799661 -3.657081
v -6.774104 4.122611 -4.603055
v 5.039868 4.536518 -5.235269
v 6.816502 4.181277 -5.229077
v 0.031144 4.821138 4.181328
v 8.025076 5.906067 3.685724
v -6.903334 6.374256 2.941395
v 8.107712 5.374670 0.928543
v 6.204958 5.322159 -3.824900
v -3.995550 3.904056 -4.466611
v 7.469925 5.970254 -4.948061
v -8.395705 6.447404 -6.180451
v -1.932332 7.050889 6.128260
v 7.526918 5.502748 4.977485
v 8.088881 4.897025 -1.064569
v 4.383288 4.304932 -3.666873
v 5.211144 6.548079 -6.087670
v 8.139153 6.359702 1.509548
v 6.140630 6.017859 -3.181410
v -2.510733 6.981786 -6.071105
v -6.034782 6.488449 -5.708981
v 0.622647 6.722099 4.862474
v -5.066185 6.106474 2.787828
v 1.225724 6.946504 0.815693
v -3.209090 6.914405 0.438327
v 4.869255 4.894779 -1.735118
v -8.248524 6.650950 -4.034788
v 5.193004 5.648151 -5.094465
v 7.961658 5.479585 2.040173
v -3.333210 6.354368 -1.570290
v 8.138152 6.847073 -1.305076
v 2.337204 5.756734 -3.416017
v 6.381809 6.639025 -3.648339
v 4.225176 7.007257 5.169280
v -3.446110 6.768454 3.327018
v 6.734557 6.775431 3.591842
v -7.175966 6.905048 -0.889710
v 1.387059 6.881093 -3.367925
v 2.204495 6.118520 -4.998587
vn -0.4890 -0.4982 0.7160
vn -0.0020 -0.5197 0.8543
vn -0.5016 -0.5237 -0.6886
vn 0.5037 -0.5221 -0.6883
vn 0.3549 -0.0964 0.9299
vn -1.0000 0.0037 -0.0007
vn 0.9336 0.3042 -0.1891
vn 0.2581 0.8439 -0.4703
vn 0.4161 0.8962 -0.1540
vn -0.8012 0.5890 -0.1057
vn 0.2570 0.4031 0.8783
vn -0.4638 0.4851 0.7413
vn -0.1767 0.7957 0.5793
vn -0.5388 0.2492 -0.8047
vn 0.4015 0.2725 0.8744
vn 0.5131 -0.4763 -0.7140
vn -0.6178 -0.3061 0.7243
vn 0.9465 -0.1275 0.2965
vn -0.1654 0.4293 0.8879
vn 0.4996 -0.5211 0.6920
vn 0.6518 -0.7574 0.0389
vn -0.6244 0.4387 0.6463
vn 0.2067 0.6894 0.6943
vn -0.3574 0.6649 -0.6559
vn 0.3098 0.9467 0.0882
vn -0.6882 0.6677 0.2839
vn -0.0340 -0.3296 0.9435
vn -0.6193 -0.0739 0.7817
vn 0.2033 0.6572 0.7258
vn -0.4787 0.1449 0.8659
vn -0.6338 -0.4438 -0.6335
vn -0.5567 -0.6095 -0.5644
vn 0.9506 0.0367 -0.3084
vn -0.7594 -0.6452 -0.0835
vn 0.3633 0.3543 0.8616
vn 0.5436 -0.2585 -0.7985
vn 0.1428 -0.5779 0.8035
vn -0.5856 0.5545 0.5913
vn -0.9530 0.0970 -0.2869
vn -0.4545 -0.2061 0.8666
vn 0.0975 -0.0108 -0.9952
vn 0.9413 0.3238 0.0959
vn 0.2360 0.8175 0.5253
vn -0.2776 -0.3269 0.9034
vn -0.3207 -0.4502 -0.8334
vn 0.8957 0.2401 0.3742
vn 0.6718 0.7011 -0.2393
vn -0.6504 -0.3864 0.6540
vn 0.8919 0.4410 -0.1000
vn -0.1271 0.2414 0.9621
vn 0.3528 0.1825 -0.9177
vn 0.6567 0.0709 0.7508
vn 0.4020 0.0317 0.9151
vn -0.2635 0.3490 -0.8993
vn -0.0011 0.0239 -0.9997
vn -0.4082 0.5835 -0.7021
vn 0.6476 0.7387 -0.1871
vn 0.4189 0.6912 0.5888
vn -0.2339 0.5229 0.8197
vn 0.6320 0.6479 -0.4252
vn -0.7561 0.6424 0.1252
vn 0.8959 -0.1958 0.3987
vn 0.9768 -0.0346 0.2113
vn 0.6669 0.6651 0.3361
vn -0.5457 0.1884 0.8166
vn 0.1679 -0.1285 0.9774
vn -0.5786 -0.0867 -0.8110
vn -0.9317 0.3321 0.1468
vn 0.1568 0.2552 -0.9541
vn 0.6218 -0.7356 0.2687
vn 0.3717 -0.2423 0.8962
vn -0.7698 0.1855 -0.6107
vn -0.9840 -0.0688 0.1642
vn -0.3956 -0.2483 -0.8842
vn 0.8175 -0.1492 0.5563
vn -0.9225 0.1135 0.3690
vn -0.1251 -0.1356 0.9828
vn -0.8051 -0.0382 0.5919
vn 0.5474 0.3745 -0.7484
vn 0.5144 0.5460 0.6613
vn -0.3528 -0.0135 -0.9356
vn 0.5151 -0.8222 -0.2424
vn -0.9413 0.1671 -0.2934
vn -0.0304 -0.2047 0.9783
vn 0.2247 0.8498 -0.4768
vn -0.4039 0.1661 0.8996
vn 0.0273 -0.4912 -0.8706
vn -0.8994 -0.2769 -0.3384
vn 0.9972 -0.0716 0.0212
vn 0.1422 0.0788 0.9867
vn -0.5046 0.5541 0.6621
vn -0.2475 0.2305 -0.9411
vn 0.9317 0.3206 0.1708
vn 0.8664 -0.4659 -0.1796
vn 0.2897 0.0922 -0.9527
vn -0.9617 -0.2667 -0.0637
vn -0.9896 -0.0722 0.1247
vn 0.8179 0.3233 0.4759
vn -0.9988 0.0476 0.0091
vn 0.2760 0.0544 0.9596
vn -0.7437 -0.2874 -0.6036
vn 0.9610 0.2291 0.1550
vn 0.2935 0.9219 -0.2529
vn 0.0534 0.7933 0.6064
vn 0.8319 -0.0933 -0.5470
vn -0.0055 0.5871 -0.8095
vn 0.3784 0.1552 -0.9126
vn 0.6924 0.4819 0.5371
vn 0.4940 -0.0156 0.8693
vn -0.2071 -0.1922 -0.9592
vn 0.8994 0.1921 0.3927
vn -0.6764 0.6595 -0.3278
vn 0.2957 -0.0606 -0.9534
vn -0.4189 -0.1771 -0.8906
vn 0.5935 -0.7988 -0.0982
vn 0.5653 0.4268 0.7059
vn -0.5230 -0.1077 0.8455
vn -0.2703 0.2460 0.9308
vn 0.7624 0.5107 -0.3974
vn 0.4326 -0.7209 -0.5415
vn 0.5951 0.6891 -0.4134
vn 0.1122 0.6055 -0.7879
vn 0.5742 -0.6992 -0.4260
vn -0.4236 0.4847 0.7653
vn -0.6216 -0.4609 0.6334
vn -0.5027 0.5088 -0.6989
vn 0.0411 0.6554 0.7542
vn -0.5984 -0.0622 -0.7988
vn 0.1089 -0.0885 0.9901
vn -0.1410 -0.2654 -0.9538
vn 0.0333 0.7711 -0.6359
vn 0.1983 0.6158 -0.7625
vn -0.3166 0.3050 0.8982
vn -0.3596 0.6521 -0.6674
vn 0.2519 0.9424 0.2200
vn -0.0509 0.5669 -0.8222
vn 0.0915 -0.0346 -0.9952
vn 0.5697 0.7650 0.3003
vn -0.7695 0.6370 -0.0463
vn 0.6402 0.6112 0.4655
vn -0.3780 0.9153 0.1388
vn -0.1845 0.3875 0.9032
vn 0.1855 -0.7687 -0.6122
vn -0.9984 0.0230 -0.0513
vn 0.2110 0.5750 0.7905
vn 0.5392 0.8096 -0.2320
vn -0.2840 0.9102 -0.3016
vn -0.0179 0.6516 -0.7583
vn -0.3828 0.8132 -0.4384
vn -0.6707 0.3829 -0.6353
vn 0.5786 0.8120 -0.0769
vn 0.4411 0.8930 -0.0896
vn 0.5264 0.5143 0.6770
s 1
usemtl Liquid_Domain_Material
f 4//4 20//20 2//2
f 4//4 2//2 1//1
f 4//4 1//1 3//3
f 1//1 2//2 5//5
f 1//1 6//6 3//3
f 20//20 4//4 7//7
f 2//2 8//8 5//5
f 10//10 13//13 8//8
f 8//8 2//2 14//14
f 2//2 20//20 44//44
f 14//14 10//10 8//8
f 8//8 13//13 9//9
f 12//12 13//13 10//10
f 13//13 11//11 9//9
f 5//5 15//15 1//1
f 15//15 32//32 8//8
f 8//8 9//9 15//15
f 15//15 9//9 18//18
f 9//9 11//11 18//18
f 2//2 44//44 14//14
f 8//8 32//32 16//16
f 18//18 11//11 17//17
f 13//13 29//29 11//11
f 15//15 5//5 32//32
f 16//16 5//5 8//8
f 13//13 19//19 29//29
f 34//34 12//12 10//10
f 17//17 23//23 18//18
f 28//28 17//17 11//11
f 21//21 28//28 11//11
f 29//29 21//21 11//11
f 13//13 22//22 19//19
f 12//12 22//22 13//13
f 26//26 25//25 24//24
f 5//5 27//27 32//32
f 1//1 30//30 6//6
f 33//33 32//32 21//21
f 32//32 28//28 21//21
f 15//15 30//30 1//1
f 27//27 15//15 31//31
f 32//32 27//27 31//31
f 44//44 5//5 16//16
f 32//32 33//33 16//16
f 34//34 10//10 14//14
f 42//42 20//20 7//7
f 12//12 34//34 22//22
f 23//23 17//17 37//37
f 35//35 29//29 19//19
f 34//34 14//14 44//44
f 15//15 18//18 36//36
f 31//31 28//28 32//32
f 18//18 23//23 37//37
f 19//19 22//22 35//35
f 39//39 26//26 24//24
f 25//25 52//52 49//49
f 25//25 38//38 52//52
f 26//26 38//38 25//25
f 27//27 30//30 15//15
f 15//15 36//36 31//31
f 64//64 33//33 21//21
f 21//21 29//29 64//64
f 37//37 17//17 28//28
f 34//34 40//40 22//22
f 56//56 25//25 49//49
f 24//24 25//25 56//56
f 3//3 55//55 4//4
f 41//41 45//45 16//16
f 41//41 16//16 33//33
f 41//41 28//28 31//31
f 41//41 33//33 28//28
f 33//33 64//64 28//28
f 29//29 35//35 43//43
f 39//39 38//38 26//26
f 35//35 22//22 40//40
f 5//5 44//44 27//27
f 31//31 36//36 41//41
f 37//37 28//28 18//18
f 27//27 44//44 30//30
f 16//16 45//45 44//44
f 36//36 18//18 46//46
f 28//28 46//46 18//18
f 56//56 39//39 24//24
f 56//56 49//49 47//47
f 64//64 29//29 43//43
f 48//48 35//35 40//40
f 53//53 38//38 50//50
f 51//51 36//36 46//46
f 28//28 64//64 46//46
f 43//43 57//57 64//64
f 35//35 48//48 43//43
f 53//53 52//52 38//38
f 3//3 54//54 55//55
f 45//45 34//34 44//44
f 56//56 47//47 60//60
f 43//43 58//58 57//57
f 4//4 55//55 79//79
f 30//30 44//44 59//59
f 51//51 41//41 36//36
f 61//61 43//43 48//48
f 63//63 46//46 64//64
f 40//40 34//34 48//48
f 62//62 47//47 49//49
f 49//49 52//52 62//62
f 58//58 43//43 65//65
f 20//20 80//80 44//44
f 56//56 72//72 39//39
f 34//34 45//45 48//48
f 57//57 58//58 63//63
f 52//52 53//53 62//62
f 45//45 41//41 67//67
f 46//46 59//59 51//51
f 64//64 57//57 63//63
f 68//68 43//43 61//61
f 43//43 68//68 65//65
f 66//66 58//58 65//65
f 50//50 71//71 53//53
f 41//41 51//51 67//67
f 56//56 60//60 69//69
f 62//62 53//53 71//71
f 38//38 76//76 50//50
f 50//50 76//76 71//71
f 4//4 79//79 7//7
f 67//67 73//73 45//45
f 45//45 73//73 48//48
f 46//46 63//63 70//70
f 48//48 73//73 61//61
f 66//66 63//63 58//58
f 20//20 42//42 80//80
f 59//59 74//74 51//51
f 59//59 46//46 30//30
f 67//67 51//51 74//74
f 72//72 56//56 69//69
f 75//75 60//60 47//47
f 61//61 73//73 68//68
f 77//77 62//62 71//71
f 84//84 74//74 59//59
f 81//81 72//72 69//69
f 70//70 30//30 46//46
f 39//39 76//76 38//38
f 65//65 78//78 66//66
f 69//69 60//60 75//75
f 83//83 39//39 72//72
f 75//75 47//47 62//62
f 42//42 7//7 85//85
f 83//83 76//76 39//39
f 68//68 73//73 78//78
f 65//65 68//68 78//78
f 63//63 66//66 100//100
f 76//76 77//77 71//71
f 84//84 30//30 70//70
f 63//63 82//82 70//70
f 7//7 79//79 86//86
f 67//67 74//74 87//87
f 88//88 67//67 87//87
f 69//69 107//107 81//81
f 84//84 70//70 82//82
f 74//74 84//84 82//82
f 67//67 88//88 73//73
f 100//100 89//89 63//63
f 90//90 62//62 77//77
f 86//86 79//79 77//77
f 72//72 81//81 92//92
f 30//30 91//91 6//6
f 7//7 90//90 76//76
f 90//90 94//94 76//76
f 100//100 66//66 78//78
f 94//94 86//86 76//76
f 76//76 86//86 77//77
f 44//44 84//84 59//59
f 80//80 84//84 44//44
f 74//74 82//82 87//87
f 69//69 93//93 107//107
f 69//69 75//75 93//93
f 96//96 73//73 88//88
f 96//96 97//97 73//73
f 89//89 100//100 102//102
f 73//73 97//97 78//78
f 62//62 98//98 75//75
f 76//76 99//99 7//7
f 62//62 90//90 98//98
f 7//7 86//86 90//90
f 90//90 77//77 94//94
f 55//55 54//54 95//95
f 88//88 87//87 101//101
f 83//83 85//85 76//76
f 85//85 99//99 76//76
f 85//85 7//7 94//94
f 7//7 99//99 94//94
f 86//86 94//94 99//99
f 54//54 3//3 126//126
f 55//55 95//95 106//106
f 30//30 84//84 91//91
f 87//87 82//82 101//101
f 72//72 112//112 83//83
f 96//96 88//88 101//101
f 78//78 124//124 100//100
f 98//98 104//104 103//103
f 77//77 79//79 94//94
f 81//81 107//107 92//92
f 82//82 63//63 89//89
f 75//75 108//108 93//93
f 98//98 109//109 75//75
f 85//85 94//94 129//129
f 105//105 110//110 103//103
f 110//110 130//130 103//103
f 98//98 103//103 130//130
f 100//100 124//124 116//116
f 103//103 104//104 111//111
f 98//98 118//118 104//104
f 118//118 98//98 90//90
f 92//92 112//112 72//72
f 82//82 113//113 114//114
f 101//101 82//82 114//114
f 93//93 119//119 107//107
f 113//113 82//82 121//121
f 82//82 89//89 121//121
f 99//99 85//85 129//129
f 105//105 103//103 115//115
f 98//98 130//130 123//123
f 86//86 118//118 90//90
f 104//104 106//106 111//111
f 104//104 118//118 117//117
f 84//84 80//80 127//127
f 80//80 42//42 120//120
f 112//112 122//122 83//83
f 122//122 85//85 83//83
f 89//89 102//102 121//121
f 109//109 108//108 75//75
f 110//110 115//115 130//130
f 99//99 129//129 86//86
f 116//116 102//102 100//100
f 103//103 111//111 115//115
f 86//86 125//125 118//118
f 94//94 79//79 145//145
f 104//104 117//117 106//106
f 6//6 126//126 3//3
f 55//55 106//106 79//79
f 92//92 128//128 112//112
f 42//42 85//85 122//122
f 140//140 109//109 98//98
f 98//98 123//123 140//140
f 129//129 125//125 86//86
f 78//78 97//97 124//124
f 117//117 123//123 130//130
f 95//95 54//54 134//134
f 117//117 131//131 106//106
f 92//92 107//107 148//148
f 120//120 42//42 128//128
f 128//128 42//42 112//112
f 114//114 96//96 101//101
f 42//42 132//132 112//112
f 122//122 112//112 132//132
f 140//140 123//123 133//133
f 94//94 145//145 129//129
f 151//151 102//102 116//116
f 97//97 134//134 124//124
f 123//123 117//117 118//118
f 116//116 124//124 135//135
f 95//95 111//111 106//106
f 79//79 106//106 131//131
f 119//119 136//136 107//107
f 92//92 148//148 128//128
f 137//137 113//113 121//121
f 96//96 114//114 149//149
f 132//132 42//42 143//143
f 93//93 138//138 119//119
f 143//143 42//42 122//122
f 93//93 108//108 138//138
f 97//97 96//96 139//139
f 105//105 115//115 110//110
f 91//91 141//141 6//6
f 133//133 129//129 145//145
f 133//133 123//123 129//129
f 129//129 123//123 125//125
f 141//141 126//126 6//6
f 111//111 130//130 115//115
f 123//123 118//118 142//142
f 95//95 153//153 111//111
f 142//142 95//95 117//117
f 84//84 127//127 91//91
f 137//137 114//114 113//113
f 109//109 140//140 108//108
f 108//108 140//140 146//146
f 121//121 102//102 151//151
f 97//97 144//144 134//134
f 147//147 117//117 130//130
f 117//117 147//147 142//142
f 142//142 153//153 95//95
f 117//117 95//95 131//131
f 107//107 136//136 148//148
f 137//137 149//149 114//114
f 149//149 139//139 96//96
f 143//143 122//122 120//120
f 133//133 145//145 147//147
f 133//133 146//146 140//140
f 151//151 116//116 141//141
f 130//130 146//146 147//147
f 130//130 111//111 146//146
f 123//123 142//142 147//147
f 124//124 54//54 135//135
f 134//134 54//54 124//124
f 128//128 150//150 120//120
f 150//150 143//143 120//120
f 150//150 132//132 143//143
f 122//122 132//132 120//120
f 144//144 97//97 139//139
f 133//133 147//147 146//146
f 145//145 79//79 147//147
f 111//111 153//153 152//152
f 146//146 111//111 152//152
f 125//125 123//123 147//147
f 79//79 125//125 147//147
f 116//116 135//135 141//141
f 118//118 125//125 142//142
f 54//54 126//126 135//135
f 128//128 148//148 150//150
f 137//137 121//121 149//149
f 136//136 119//119 127//127
f 80//80 120//120 132//132
f 119//119 138//138 127//127
f 138//138 108//108 152//152
f 108//108 146//146 152//152
f 142//142 131//131 153//153
f 125//125 79//79 131//131
f 95//95 134//134 131//131
f 127//127 80//80 148//148
f 148//148 136//136 127//127
f 127//127 149//149 91//91
f 80//80 150//150 148//148
f 149//149 121//121 91//91
f 132//132 150//150 80//80
f 121//121 151//151 91//91
f 127//127 139//139 149//149
f 151//151 141//141 91//91
f 152//152 127//127 138//138
f 134//134 139//139 127//127
f 152//152 134//134 127//127
f 134//134 144//144 139//139
f 153//153 134//134 152//152
f 135//135 126//126 141//141
f 131//131 134//134 153//153
f 125//125 131//131 142//142
