# Blender 4.1.1
# www.blender.org
mtllib aa0002.mtl
o Liquid_Domain
v 2.204662 -1.923242 -0.032355
v -2.017467 -1.928998 3.388045
v 2.083317 -1.824652 3.732872
v 1.607154 0.139587 1.414117
v -1.221062 -1.718389 1.283444
v -0.291305 -0.790278 -1.655869
v -1.450406 2.676089 3.269332
v -1.108579 1.279139 1.338969
v 1.793328 1.385218 3.902840
v -1.369576 2.312350 -0.541385
v 1.821965 1.606184 -0.725932
vn 0.6816 -0.7232 -0.1119
vn -0.5936 -0.6444 0.4821
vn 0.5525 -0.6667 0.5002
vn 0.9656 0.1719 0.1952
vn -0.5175 -0.8554 -0.0212
vn -0.2063 -0.2912 -0.9342
vn -0.4266 0.8264 0.3675
vn -0.5876 0.8008 -0.1163
vn 0.5130 0.4953 0.7011
vn -0.5302 0.7725 -0.3493
vn 0.6254 0.6352 -0.4533
s 1
usemtl Liquid_Domain_Material
f 4//4 3//3 2//2
f 4//4 5//5 1//1
f 1//1 5//5 6//6
f 5//5 4//4 2//2
f 9//9 2//2 3//3
f 7//7 2//2 9//9
f 5//5 2//2 8//8
f 5//5 10//10 6//6
f 11//11 1//1 6//6
f 2//2 7//7 8//8
f 5//5 8//8 10//10
f 1//1 11//11 4//4
f 9//9 3//3 4//4
f 6//6 10//10 11//11
f 8//8 7//7 4//4
f 7//7 9//9 4//4
f 4//4 10//10 8//8
f 4//4 11//11 10//10
