# Blender 4.1.1
# www.blender.org
mtllib aa0069.mtl
o Liquid_Domain
v -8.443707 -9.088016 6.149543
v 8.435543 -9.081446 6.180340
v -8.446368 -9.045350 -6.193346
v 8.410131 -9.085178 -6.209248
v -0.359709 -3.273673 6.214199
v -8.462063 -2.851452 1.123292
v 8.472309 -5.381455 -2.627230
v -1.718439 -7.631488 1.130120
v 0.041991 -7.405401 2.867928
v -2.860659 -7.433170 4.104692
v -4.992889 -7.657259 2.892490
v -3.756183 -7.433662 -1.048256
v -4.815068 -6.633536 3.929354
v -5.014803 -5.344498 0.581552
v -2.153102 -6.150717 -1.387554
v -1.177752 -4.550395 1.881259
v -8.101273 -3.684863 6.184775
v -2.713269 -5.845148 4.716562
v -6.091288 -4.989743 -0.714606
v -6.568994 -5.699485 2.886579
v -1.112615 -4.132587 -0.117177
v 7.914219 -2.959777 -3.910025
v 8.427336 -1.932013 6.173686
v 6.415160 -5.576479 3.314470
v 7.369630 -4.431803 1.943112
v 8.181813 -0.177884 -6.148906
v -6.129652 -4.635991 5.440267
v -1.974276 -1.762619 4.456051
v -6.836664 -4.091334 1.890957
v 7.615128 -4.726808 0.152231
v -2.518809 -4.761204 -2.317194
v 7.336187 -2.312166 5.114399
v 7.156826 -3.479521 -0.626911
v -5.075600 -3.149595 -1.969739
v 7.331213 -3.210755 -3.844010
v 8.389523 -0.734642 -3.182311
v -7.070285 -1.752819 4.659439
v 8.328066 -0.319232 4.358397
v 4.450185 -2.375444 2.178338
v -5.514679 -3.434348 2.316638
v 5.857499 -3.198976 -0.571843
v 7.759507 -2.222318 1.497885
v 2.399322 -3.742859 -1.829686
v -6.803068 -2.613150 -1.256719
v 1.017614 -2.270182 4.173561
v 2.161060 -4.104675 2.331669
v 1.581877 -2.603889 -0.557523
v 7.916346 -2.878374 -3.394665
v -5.953967 -1.765972 -2.941556
v 1.377225 -3.143231 5.276585
v 3.053475 -2.246197 5.192471
v 5.682037 -3.621487 2.366479
v 5.511279 -1.689731 -2.143754
v 1.989232 -2.121836 -3.757466
v 5.913848 -2.309848 5.282290
v -4.556521 -1.672987 -1.441895
v -2.130921 1.189691 4.472510
v 2.371677 -1.185896 2.560274
v 7.838162 -0.546404 -1.951405
v 7.307629 -0.314544 -4.818677
v 6.519306 -0.117341 -4.585106
v 8.226230 -1.428561 3.385723
v 2.438365 0.447512 0.020170
v -6.854728 0.907801 1.012507
v -6.827147 1.569210 -4.215767
v -8.372237 7.022006 -6.200348
v -8.416378 7.016608 6.174557
v -2.102924 -1.773917 -0.794285
v 1.519967 0.796597 1.261922
v 8.391784 3.519175 2.092971
v -2.108695 0.514851 -0.111033
v 1.120080 1.922469 -1.677941
v 2.837452 0.035542 -3.094884
v 4.313577 2.552558 -6.162998
v -6.918612 1.082522 4.650102
v -6.004687 -0.831381 2.002008
v -4.362929 0.232158 -2.550905
v -2.308084 7.005873 6.187273
v 7.742064 0.478417 4.286619
v 1.779754 1.122991 4.031718
v 7.664123 1.297577 1.185464
v -5.809648 1.846612 -4.314838
v -8.413530 6.752191 -0.836918
v 7.495777 4.730331 5.243551
v -5.791660 0.901169 2.885475
v 2.123991 1.690850 2.747989
v 8.299810 -0.509136 1.672713
v 6.397142 0.445603 -3.049449
v -4.434239 2.535170 4.798999
v 7.684134 3.812201 0.471207
v 7.159349 3.094689 -4.992585
v 8.324177 4.279901 3.347162
v 5.279727 1.144766 -4.661873
v 5.362504 1.600830 -5.289222
v -6.970682 4.916577 2.119323
v -6.969056 2.771733 -3.423352
v 5.413606 2.079752 -4.678276
v 5.999294 3.155483 -6.134313
v 2.560700 6.720795 6.106893
v 8.345856 6.921896 6.143882
v -4.601388 3.065063 3.250826
v -4.568146 3.232309 -0.318524
v 4.746926 3.249679 -3.627239
v 7.729729 6.430878 -3.172335
v 8.340466 6.800907 -2.423923
v 6.154388 2.616378 -5.131609
v 3.866008 2.867498 5.436374
v 0.263501 2.805273 3.781942
v -5.948620 3.760961 -4.793297
v -4.054317 3.714201 4.335285
v -1.494574 3.706002 5.131704
v -2.185200 3.468840 2.330953
v -8.433152 7.004796 2.681060
v -0.013060 3.192801 -0.043037
v 3.229438 3.251779 -5.417860
v -4.463707 4.410711 3.436436
v -4.562601 3.880352 3.535280
v 5.021643 4.745107 -3.282814
v 1.989969 3.576713 -3.815343
v 5.702717 4.690342 -5.069833
v 4.845366 6.270000 -5.556508
v 1.934666 3.883759 5.236031
v -4.505086 4.590559 4.170447
v 8.193912 4.455325 2.654588
v -6.960423 5.005456 -1.101746
v -1.154867 4.922344 -2.214207
v 8.301341 5.675572 0.723860
v 8.261468 4.525329 -0.280311
v 4.961999 6.089970 -6.152086
v -5.317305 6.105160 -0.584688
v -4.191287 4.172334 -4.445269
v 1.705455 6.521704 -5.458609
v 1.280284 6.438835 5.427478
v 0.578163 5.602554 -1.987021
v 3.779664 5.382251 -3.761532
v -3.109180 6.749631 -3.114341
v 8.392056 6.898215 -6.172573
v -1.525474 7.044767 1.570826
v 7.497641 6.506871 0.956967
v -6.928373 6.216709 -4.833604
v -0.013925 5.048903 -4.301478
v -4.545976 6.508972 -4.106143
v -2.244919 6.605785 4.609121
v -5.529785 6.560923 0.994150
v -0.816030 6.706728 0.281660
v -5.136292 7.079153 -2.270764
v -2.636539 7.116127 -5.310370
v 0.757753 6.505871 -6.169469
v -6.859656 6.648921 2.151747
v 8.356154 6.504601 -0.514102
v 1.400808 7.099092 -3.320036
v 2.906326 6.959068 -2.668000
v -0.149786 6.826079 -4.683626
v 6.825160 6.626643 -5.022205
v -8.062992 6.887229 -4.367221
v 7.729426 6.666519 5.412639
vn -0.5042 -0.5274 0.6838
vn 0.5026 -0.5244 0.6874
vn -0.5038 -0.5222 -0.6881
vn 0.5099 -0.5110 -0.6920
vn 0.0005 -0.0004 1.0000
vn -1.0000 0.0013 -0.0001
vn 0.9952 0.0482 -0.0847
vn -0.3039 0.9159 0.2621
vn -0.8410 0.4348 -0.3222
vn -0.0420 0.6841 -0.7282
vn 0.4950 0.8553 -0.1528
vn 0.2976 0.4730 0.8293
vn 0.3778 0.6068 -0.6993
vn 0.5024 0.7480 0.4337
vn -0.3190 0.4320 0.8436
vn -0.9795 -0.1783 -0.0936
vn -0.0407 -0.0020 0.9992
vn -0.3319 0.1960 -0.9227
vn 0.5350 0.6919 0.4849
vn 0.8579 0.5132 -0.0258
vn -0.9751 0.0038 0.2218
vn 0.6127 0.1751 0.7706
vn 0.6000 0.0146 0.7999
vn 0.0942 0.9772 -0.1901
vn -0.4745 0.8558 0.2061
vn 0.5860 -0.0132 -0.8102
vn 0.3561 0.2647 -0.8962
vn -0.6949 -0.0345 -0.7183
vn 0.9711 -0.1142 0.2098
vn -0.1877 0.8310 0.5237
vn -0.2176 0.1978 0.9558
vn -0.4844 0.2874 -0.8263
vn -0.3055 0.9002 0.3104
vn 0.0574 0.1944 0.9792
vn 0.3864 0.6475 0.6569
vn 0.9959 -0.0427 -0.0794
vn 0.8968 0.0095 -0.4424
vn 0.6119 -0.2792 -0.7400
vn 0.1085 0.9939 0.0183
vn 0.5343 -0.3260 0.7799
vn 0.0975 0.9322 0.3486
vn -0.9815 0.1460 0.1236
vn 0.2731 0.8863 0.3740
vn 0.8959 0.3001 0.3277
vn 0.9596 -0.0796 -0.2699
vn 0.1652 0.9833 -0.0762
vn 0.9712 0.2359 0.0338
vn 0.1293 0.2357 -0.9632
vn 0.0362 0.5131 0.8575
vn 0.3455 0.3007 -0.8889
vn 0.1247 0.3552 -0.9265
vn 0.6635 0.7261 0.1805
vn 0.1861 0.5790 0.7938
vn 0.2643 0.2519 0.9310
vn 0.0348 0.3702 -0.9283
vn -0.4300 0.1572 0.8890
vn -0.6716 -0.2827 -0.6848
vn 0.9621 -0.2546 0.0976
vn -0.9982 -0.0336 0.0487
vn -0.3370 0.1319 0.9322
vn 0.6900 0.0755 0.7199
vn 0.1550 0.9051 -0.3961
vn 0.9903 0.1116 0.0834
vn 0.9595 0.1203 -0.2549
vn 0.5255 0.0132 0.8507
vn -0.4837 0.6017 -0.6356
vn -0.5014 0.5265 0.6866
vn -0.7597 -0.1877 0.6225
vn 0.9556 0.2586 -0.1411
vn 0.6390 0.5092 0.5765
vn -0.8768 -0.3486 0.3313
vn 0.8280 0.1349 0.5443
vn 0.1058 -0.1172 0.9875
vn 0.0452 0.1251 -0.9911
vn 0.6576 -0.4998 -0.5637
vn 0.9985 0.0031 0.0551
vn -0.7084 0.0317 0.7051
vn 0.0595 0.6391 0.7668
vn -0.9340 -0.2028 -0.2940
vn 0.8750 0.2244 -0.4289
vn -0.9984 -0.0078 0.0558
vn -0.3100 0.0076 0.9507
vn -0.6935 0.7203 0.0136
vn -0.5250 0.0806 -0.8473
vn 0.9498 -0.2824 -0.1345
vn 0.8800 0.4748 0.0124
vn 0.4575 -0.0667 0.8867
vn 0.6010 0.1493 0.7852
vn 0.2360 -0.2569 -0.9372
vn -0.9933 0.1101 0.0349
vn -0.5404 0.1100 0.8342
vn 0.6968 -0.1258 -0.7061
vn -0.0000 -0.0000 -0.0000
vn 0.7208 -0.2326 -0.6530
vn 0.9471 0.0505 0.3169
vn -0.1374 0.1123 -0.9841
vn 0.0040 0.7063 0.7079
vn 0.4830 0.5966 0.6409
vn 0.4292 0.1017 -0.8975
vn -0.8651 -0.4187 0.2762
vn 0.5485 -0.0616 0.8339
vn -0.8364 0.5232 0.1633
vn 0.4919 0.8704 -0.0232
vn 0.2129 0.3631 0.9071
vn 0.1230 0.0155 -0.9923
vn 0.4097 0.8586 -0.3081
vn -0.0641 0.4529 0.8893
vn -0.6693 -0.4780 -0.5689
vn 0.4416 0.4404 -0.7817
vn 0.8046 0.5866 0.0925
vn -0.6722 0.7366 -0.0743
vn 0.6306 0.7198 0.2904
vn 0.1962 0.8357 0.5130
vn -0.7933 -0.4561 0.4033
vn -0.2935 0.1136 -0.9492
vn 0.6964 0.3035 0.6503
vn 0.0717 0.7939 -0.6038
vn -0.2375 0.3878 0.8906
vn -0.1391 0.7406 0.6574
vn 0.1163 0.2332 -0.9655
vn 0.0491 -0.7155 -0.6969
vn 0.1056 -0.8889 0.4458
vn 0.9998 -0.0164 -0.0060
vn 0.6728 0.5420 0.5035
vn 0.6298 -0.0522 -0.7750
vn 0.5829 0.7831 0.2166
vn -0.0052 0.4501 -0.8930
vn -0.8352 0.5442 0.0794
vn -0.3471 0.8953 -0.2792
vn 0.2646 0.7699 0.5806
vn 0.1136 0.4185 -0.9011
vn -0.0988 0.7361 0.6696
vn 0.1163 0.6172 -0.7781
vn -0.1432 0.9833 -0.1124
vn 0.4633 0.5843 -0.6663
vn 0.7000 0.7088 0.0868
vn -0.8862 0.3965 -0.2395
vn 0.4480 0.6788 0.5819
vn 0.6701 0.5414 0.5079
vn -0.0685 0.5834 -0.8093
vn 0.9482 -0.0070 -0.3177
vn -0.6159 0.5409 -0.5728
vn 0.8865 0.2309 0.4010
vn -0.4302 0.8877 0.1640
vn -0.1324 0.9910 0.0195
vn 0.0626 0.5455 -0.8358
vn -0.0506 -0.2308 -0.9717
vn 0.8973 -0.4252 0.1188
vn -0.4325 0.7444 -0.5087
vn 0.4067 0.7808 0.4743
vn 0.4475 0.8168 0.3642
vn -0.4254 0.7641 0.4850
vn 0.3136 0.9495 0.0035
vn -0.3795 0.7869 -0.4866
s 1
usemtl Liquid_Domain_Material
f 2//2 1//1 4//4
f 4//4 1//1 3//3
f 1//1 5//5 17//17
f 2//2 5//5 1//1
f 2//2 4//4 7//7
f 1//1 6//6 3//3
f 8//8 11//11 10//10
f 9//9 8//8 10//10
f 8//8 12//12 11//11
f 10//10 11//11 13//13
f 11//11 12//12 14//14
f 8//8 15//15 12//12
f 10//10 13//13 18//18
f 9//9 10//10 18//18
f 8//8 9//9 15//15
f 13//13 11//11 20//20
f 11//11 14//14 20//20
f 15//15 9//9 16//16
f 15//15 14//14 12//12
f 27//27 18//18 13//13
f 19//19 20//20 14//14
f 2//2 23//23 5//5
f 2//2 7//7 23//23
f 16//16 9//9 18//18
f 16//16 21//21 15//15
f 15//15 31//31 14//14
f 15//15 21//21 31//31
f 4//4 3//3 66//66
f 20//20 27//27 13//13
f 20//20 19//19 29//29
f 23//23 7//7 62//62
f 24//24 25//25 52//52
f 19//19 14//14 31//31
f 7//7 4//4 22//22
f 18//18 28//28 16//16
f 24//24 32//32 25//25
f 33//33 25//25 30//30
f 34//34 19//19 31//31
f 18//18 27//27 28//28
f 27//27 20//20 37//37
f 24//24 52//52 55//55
f 25//25 33//33 41//41
f 25//25 41//41 52//52
f 25//25 42//42 30//30
f 68//68 31//31 21//21
f 22//22 35//35 7//7
f 22//22 4//4 26//26
f 55//55 32//32 24//24
f 23//23 62//62 38//38
f 16//16 28//28 21//21
f 46//46 39//39 43//43
f 44//44 40//40 29//29
f 43//43 47//47 46//46
f 29//29 19//19 44//44
f 30//30 42//42 33//33
f 19//19 34//34 44//44
f 7//7 48//48 36//36
f 35//35 48//48 7//7
f 45//45 50//50 46//46
f 45//45 46//46 47//47
f 39//39 52//52 41//41
f 41//41 43//43 39//39
f 87//87 7//7 36//36
f 34//34 49//49 44//44
f 31//31 68//68 34//34
f 48//48 35//35 33//33
f 46//46 50//50 51//51
f 32//32 62//62 25//25
f 37//37 20//20 29//29
f 39//39 46//46 51//51
f 33//33 53//53 41//41
f 68//68 56//56 34//34
f 33//33 35//35 53//53
f 54//54 47//47 43//43
f 41//41 54//54 43//43
f 22//22 26//26 36//36
f 4//4 66//66 26//26
f 27//27 57//57 28//28
f 52//52 51//51 55//55
f 52//52 39//39 51//51
f 62//62 42//42 25//25
f 40//40 44//44 76//76
f 62//62 7//7 87//87
f 42//42 48//48 33//33
f 61//61 53//53 35//35
f 48//48 22//22 36//36
f 5//5 78//78 17//17
f 45//45 51//51 50//50
f 37//37 29//29 75//75
f 45//45 47//47 58//58
f 59//59 60//60 48//48
f 56//56 49//49 34//34
f 41//41 53//53 54//54
f 35//35 60//60 61//61
f 22//22 60//60 35//35
f 40//40 76//76 29//29
f 58//58 47//47 69//69
f 70//70 87//87 36//36
f 42//42 59//59 48//48
f 17//17 67//67 1//1
f 57//57 68//68 28//28
f 75//75 29//29 76//76
f 28//28 68//68 21//21
f 62//62 87//87 42//42
f 47//47 63//63 69//69
f 44//44 65//65 64//64
f 27//27 37//37 75//75
f 27//27 75//75 57//57
f 42//42 87//87 81//81
f 44//44 64//64 76//76
f 42//42 81//81 59//59
f 47//47 54//54 72//72
f 54//54 53//53 73//73
f 48//48 60//60 22//22
f 26//26 66//66 74//74
f 62//62 32//32 38//38
f 45//45 80//80 51//51
f 72//72 63//63 47//47
f 56//56 68//68 77//77
f 56//56 77//77 49//49
f 65//65 44//44 49//49
f 53//53 61//61 88//88
f 17//17 78//78 67//67
f 55//55 51//51 107//105
f 38//38 32//32 79//79
f 64//64 85//85 76//76
f 71//71 77//77 68//68
f 73//73 53//53 88//88
f 49//49 82//82 65//65
f 55//55 84//84 32//32
f 80//80 107//105 51//51
f 45//45 58//58 80//80
f 80//80 58//58 86//86
f 87//87 38//38 79//79
f 81//81 87//87 79//79
f 57//57 71//71 68//68
f 73//73 72//72 54//54
f 77//77 82//82 49//49
f 6//6 83//83 3//3
f 55//55 107//105 84//84
f 75//75 76//76 85//85
f 23//23 99//97 5//5
f 67//67 6//6 1//1
f 86//86 58//58 69//69
f 71//71 102//100 77//77
f 81//81 90//90 59//59
f 60//60 91//91 61//61
f 75//75 89//89 57//57
f 108//106 80//80 86//86
f 57//57 117//115 71//71
f 38//38 87//87 70//70
f 61//61 91//91 88//88
f 75//75 85//85 89//89
f 95//94 85//85 64//64
f 102//100 71//71 117//115
f 63//63 72//72 114//112
f 64//64 65//65 96//95
f 59//59 91//91 60//60
f 97//93 93//93 94//93
f 93//93 97//93 94//93
f 23//23 38//38 100//98
f 100//98 38//38 92//92
f 32//32 84//84 79//79
f 69//69 114//112 86//86
f 69//69 63//63 114//112
f 103//101 72//72 73//73
f 88//88 103//101 73//73
f 59//59 104//102 91//91
f 82//82 96//95 65//65
f 88//88 91//91 106//104
f 105//103 36//36 26//26
f 74//74 98//96 26//26
f 23//23 100//98 99//97
f 80//80 122//120 107//105
f 101//99 89//89 85//85
f 117//115 57//57 110//108
f 90//90 104//102 59//59
f 106//104 103//101 88//88
f 110//108 57//57 89//89
f 122//120 80//80 108//106
f 92//92 38//38 70//70
f 108//106 112//110 111//109
f 86//86 114//112 108//106
f 70//70 36//36 127//125
f 109//107 96//95 82//82
f 111//109 122//120 108//106
f 85//85 117//115 101//99
f 108//106 114//112 112//110
f 95//94 64//64 125//123
f 113//111 83//83 6//6
f 96//95 125//123 64//64
f 91//91 120//118 106//104
f 120//118 98//96 115//113
f 98//96 74//74 115//113
f 74//74 66//66 148//146
f 5//5 99//97 78//78
f 67//67 113//111 6//6
f 89//89 123//121 110//108
f 84//84 81//81 79//79
f 89//89 101//99 116//114
f 110//108 116//114 101//99
f 110//108 101//99 117//115
f 85//85 95//94 117//115
f 90//90 81//81 70//70
f 102//100 82//82 77//77
f 118//116 103//101 106//104
f 104//102 154//152 91//91
f 120//118 115//113 119//117
f 83//83 66//66 3//3
f 121//119 115//113 74//74
f 120//118 74//74 129//127
f 121//119 74//74 120//118
f 98//96 120//118 129//127
f 89//89 117//115 123//121
f 116//114 117//115 89//89
f 110//108 123//121 116//114
f 81//81 84//84 92//92
f 81//81 92//92 70//70
f 117//115 144//142 102//100
f 112//110 114//112 126//124
f 124//122 70//70 127//125
f 127//125 36//36 128//126
f 36//36 105//103 128//126
f 140//138 96//95 109//107
f 120//118 118//116 106//104
f 84//84 124//122 92//92
f 117//115 116//114 144//142
f 102//100 130//128 82//82
f 82//82 130//128 109//107
f 141//139 119//117 115//113
f 115//113 132//130 141//139
f 119//117 135//133 120//118
f 74//74 148//146 129//127
f 122//120 111//109 133//131
f 70//70 124//122 90//90
f 117//115 95//94 123//121
f 116//114 123//121 95//94
f 144//142 116//114 95//94
f 95//94 125//123 149//147
f 114//112 134//132 126//124
f 103//101 118//116 72//72
f 105//103 26//26 137//135
f 26//26 98//96 137//135
f 107//105 122//120 84//84
f 111//109 112//110 143//141
f 90//90 124//122 139//137
f 112//110 126//124 138//136
f 128//126 90//90 127//125
f 72//72 134//132 114//112
f 125//123 96//95 140//138
f 141//139 126//124 134//132
f 134//132 119//117 141//139
f 131//129 142//140 136//134
f 118//116 120//118 135//133
f 142//140 131//129 109//107
f 91//91 154//152 120//118
f 98//96 129//127 137//135
f 84//84 156//154 124//122
f 126//124 145//143 138//136
f 128//126 104//102 90//90
f 128//126 150//148 104//102
f 128//126 105//103 150//148
f 72//72 152//150 134//132
f 152//150 72//72 118//116
f 151//149 119//117 134//132
f 131//129 147//145 109//107
f 153//151 141//139 132//130
f 143//141 133//131 111//109
f 122//120 133//131 84//84
f 100//98 92//92 124//122
f 143//141 112//110 138//136
f 124//122 156//154 139//137
f 100//98 124//122 127//125
f 127//125 90//90 139//137
f 130//128 146//144 109//107
f 135//133 119//117 151//149
f 115//113 121//119 132//130
f 84//84 133//131 156//154
f 95//94 149//147 144//142
f 100//98 127//125 150//148
f 144//142 130//128 102//100
f 150//148 127//125 139//137
f 104//102 150//148 139//137
f 134//132 152//150 151//149
f 145//143 126//124 153//151
f 152//150 118//116 135//133
f 153//151 126//124 141//139
f 109//107 147//145 140//138
f 154//152 121//119 120//118
f 154//152 129//127 121//119
f 140//138 149//147 125//123
f 135//133 151//149 152//150
f 109//107 146//144 142//140
f 136//134 147//145 131//129
f 83//83 155//153 66//66
f 99//97 100//98 156//154
f 156//154 133//131 99//97
f 99//97 143//141 78//78
f 133//131 143//141 99//97
f 78//78 113//111 67//67
f 143//141 138//136 78//78
f 78//78 138//136 113//111
f 144//142 149//147 113//111
f 138//136 144//142 113//111
f 100//98 150//148 156//154
f 113//111 149//147 83//83
f 156//154 105//103 139//137
f 156//154 150//148 105//103
f 138//136 130//128 144//142
f 139//137 105//103 104//102
f 149//147 155//153 83//83
f 149//147 140//138 155//153
f 138//136 136//134 130//128
f 138//136 145//143 136//134
f 130//128 136//134 146//144
f 136//134 142//140 146//144
f 145//143 147//145 136//134
f 105//103 137//135 104//102
f 153//151 147//145 145//143
f 140//138 66//66 155//153
f 66//66 140//138 147//145
f 153//151 132//130 147//145
f 132//130 148//146 147//145
f 137//135 129//127 154//152
f 104//102 137//135 154//152
f 147//145 148//146 66//66
f 121//119 148//146 132//130
f 129//127 148//146 121//119
