# Blender 4.1.1
# www.blender.org
mtllib aa0135.mtl
o Liquid_Domain
v -8.404355 -9.101120 6.198346
v -8.440503 -9.058926 -6.203352
v 8.451818 -9.084890 -6.193481
v -8.404491 -0.509054 1.699981
v -3.734544 -6.957160 0.794979
v -5.443248 -6.463663 4.504601
v -7.446950 -5.739222 4.421148
v -5.000399 -7.226829 2.412028
v -2.473189 -5.560060 2.409782
v -7.498572 -5.577549 2.562020
v -3.830433 -5.775985 -0.353311
v -4.610318 -4.525619 3.884580
v -1.910124 -5.055768 0.787453
v 4.556842 -5.341013 2.830233
v 2.803780 -4.897846 1.187190
v -7.324824 -4.423164 1.902108
v -5.336361 -3.499910 0.348193
v 4.705858 -3.544699 3.346343
v -2.560692 -2.701073 1.998968
v 5.368266 -2.713829 1.184903
v 4.237053 -3.718618 1.720387
v -7.547687 -3.379731 0.449998
v -8.432680 0.287132 6.162697
v -4.750740 -1.522740 6.173518
v -3.164224 -2.500710 4.955313
v -7.143184 -2.216630 0.341700
v -2.951816 -2.561974 0.148663
v -7.106394 -3.872023 -2.683910
v -5.227211 -3.436733 -2.252274
v -6.162107 -2.695628 5.114397
v -8.484554 2.679236 -6.179231
v -2.559802 -0.947965 1.761989
v -7.489403 -1.595774 0.237690
v -6.611827 -1.672181 -2.769211
v -5.210645 -1.479060 -3.399412
v -3.658192 -0.112914 4.963298
v -4.173156 -1.714489 1.613688
v -6.449199 -2.330798 -1.263498
v -3.262907 -0.779395 -2.638083
v 8.412560 6.884180 6.180596
v -7.412443 -1.135154 4.935721
v -7.822946 -0.122469 2.551518
v -3.383532 -0.038545 4.038678
v -3.259074 -0.191463 1.160421
v -3.119369 -0.153533 -1.136974
v -4.575349 0.248066 1.175226
v -5.682185 -1.025093 0.355993
v -4.749657 0.491678 -0.056969
v 5.495636 -1.016056 1.632018
v 6.075439 -1.062729 -0.029954
v 7.037431 -0.553924 -0.089316
v -7.657252 -0.292632 -2.343003
v -6.620896 1.631482 5.278013
v 5.092292 0.088085 0.054992
v -5.691586 0.367960 -3.780114
v -6.249099 0.318447 3.783438
v -4.813833 -0.118053 -4.269042
v -0.721161 -0.092141 -6.212718
v -2.767552 2.115258 -6.096565
v -1.983766 1.228912 4.095995
v -1.369074 0.183272 -2.258358
v -0.859050 1.102321 -4.913465
v -7.670789 1.357575 2.074098
v -1.965579 2.252578 1.425081
v -1.203182 1.293871 -0.870095
v 8.463214 0.558146 -0.617923
v 5.307897 2.267461 2.984757
v 4.059078 1.046417 -1.023489
v -3.430048 1.163512 0.206204
v 4.323623 1.863089 -2.230752
v 5.398340 1.326362 -4.130789
v -3.583223 2.000975 -5.333035
v -3.618571 2.261307 4.644991
v 7.393828 3.727148 -0.498718
v -7.014678 4.428399 -1.775861
v 6.036250 0.529837 -3.039834
v -6.405633 1.751374 -3.579646
v 8.303138 5.646955 -6.182025
v -7.198490 3.424863 3.993694
v 8.435932 6.757374 -1.922510
v 6.733295 2.221872 -3.752445
v -2.034837 2.168003 -5.659670
v -1.652206 2.459664 -6.102372
v -1.981602 3.407863 -0.046086
v 4.907770 3.342735 -3.784964
v -5.806564 3.113395 -5.913869
v -4.320215 4.135169 4.703433
v -7.079882 3.277619 1.284732
v 3.080266 3.751760 -2.293916
v -0.146145 2.406734 -2.872613
v -2.164162 2.835447 -5.828805
v -2.459167 2.219754 -5.864167
v -6.844810 3.309454 -6.057395
v 6.193710 2.549222 3.924545
v -2.182210 2.638141 -4.021446
v 6.489039 3.570200 -3.990695
v -3.607431 3.965085 -5.731327
v -1.221410 3.423882 -4.985969
v 8.467973 -9.080833 6.209348
v 3.665836 3.688252 1.067198
v -2.779929 2.928018 -1.286299
v -3.622410 6.925487 6.163615
v -3.806153 3.726456 3.197632
v 8.196057 5.296165 -4.756505
v -5.828410 3.888522 -5.880536
v -2.876241 3.776538 -2.619194
v -3.573006 4.206058 -4.121220
v -7.806115 5.557373 -5.669123
v 0.692204 6.948057 6.179710
v -7.033151 6.725305 4.363717
v -8.362473 6.742577 1.432047
v -7.545610 6.357726 2.072832
v -3.528115 5.386187 -0.720557
v 7.032264 6.546263 -0.682411
v 1.566587 5.440536 -4.758333
v -8.316772 6.942328 -6.192040
v -2.076620 4.929606 -6.185698
v -5.961868 5.709062 -6.138754
v -4.045143 6.263003 4.869660
v 6.584853 6.650855 4.756598
v -7.775979 5.570958 0.633874
v -4.254770 6.847726 -2.984540
v -6.963033 6.696712 -4.985271
v 6.849134 5.432500 -4.763677
v -4.065017 6.442441 -6.155913
v -6.073043 5.190930 -5.364296
v -3.510089 5.093552 2.375585
v -4.588755 5.754590 0.384669
v 1.494101 5.254997 0.310377
v -4.956456 6.984089 -5.370583
v 4.997054 5.294401 -4.941465
v -8.442523 6.949492 6.093634
v 3.910412 4.767013 4.501292
v 0.009685 5.753287 0.587990
v 3.262954 6.854198 -6.112187
v 0.407980 6.719396 4.551976
v 7.506085 7.035841 -2.369327
v -7.437826 6.642255 -1.611558
v 3.963790 6.663443 -5.373430
v -2.543692 6.999992 1.367376
v -3.407708 6.728538 -0.296865
v 7.595991 7.165008 -5.985025
v 7.888533 7.128379 5.636303
v -3.084222 6.994078 4.589957
v -1.012932 7.017519 0.895890
v -0.131376 6.913594 -4.852927
vn -0.5017 -0.5237 0.6885
vn -0.5035 -0.5231 -0.6876
vn 0.5032 -0.5230 -0.6879
vn -1.0000 0.0008 0.0008
vn -0.1094 0.9014 0.4189
vn -0.1293 0.4305 -0.8933
vn 0.5507 0.4356 -0.7120
vn 0.0141 0.9983 0.0557
vn -0.7695 0.3496 -0.5344
vn 0.8164 0.4096 0.4071
vn 0.0109 0.3260 0.9453
vn -0.4730 0.2164 -0.8541
vn -0.9032 0.2287 0.3632
vn -0.1600 0.8426 -0.5141
vn 0.5526 0.2573 0.7927
vn 0.8174 0.3485 0.4588
vn 0.1981 -0.1037 0.9747
vn -0.1002 -0.3442 -0.9335
vn -0.9074 -0.0005 -0.4203
vn -0.3236 -0.5022 0.8019
vn 0.3899 -0.2522 0.8856
vn 0.6126 0.3705 0.6982
vn -0.5931 0.0019 0.8051
vn -0.0017 0.0024 1.0000
vn -0.5764 0.2255 -0.7855
vn -0.0834 0.3257 0.9418
vn -0.2584 -0.3711 0.8919
vn 0.5804 0.7408 0.3381
vn -0.4497 0.8931 -0.0160
vn 0.0293 0.1819 -0.9829
vn -0.5662 0.0730 -0.8210
vn -0.9825 0.0056 0.1861
vn 0.9462 0.2407 0.2162
vn 0.6874 0.0860 0.7212
vn 0.2718 0.3616 0.8918
vn -0.5320 -0.0654 -0.8442
vn 0.1024 -0.1994 0.9746
vn 0.4840 0.7816 -0.3935
vn -0.5658 0.7901 0.2359
vn 0.5231 0.4491 0.7244
vn 0.6966 -0.0492 -0.7158
vn 0.9528 -0.1882 -0.2383
vn -0.8326 0.1963 -0.5179
vn -0.2404 0.1880 0.9523
vn -0.4799 0.5528 -0.6813
vn -0.3081 0.5437 0.7807
vn -0.6748 0.6548 -0.3404
vn -0.6013 0.7143 -0.3582
vn 0.2347 0.7906 -0.5656
vn 0.1219 0.9680 0.2195
vn -0.8162 0.5773 0.0215
vn 0.8521 0.1284 0.5074
vn 0.3056 -0.0844 -0.9484
vn 0.8294 0.5586 0.0053
vn 0.6157 0.2621 0.7431
vn 0.9772 -0.2120 0.0081
vn 0.2161 0.4602 0.8611
vn -0.0059 0.0089 -0.9999
vn 0.1294 0.3454 -0.9295
vn -0.7285 -0.0232 -0.6846
vn -0.6600 0.7326 -0.1667
vn -0.5865 0.4474 0.6752
vn 0.9804 -0.1150 -0.1600
vn -0.9947 -0.0813 0.0631
vn -0.4427 0.0480 -0.8954
vn 0.9999 0.0057 -0.0089
vn 0.7250 0.4616 -0.5112
vn 0.7972 0.5975 0.0870
vn -0.7344 0.6559 0.1746
vn 0.7159 0.4870 0.5004
vn 0.1953 0.3884 0.9006
vn 0.1100 0.4164 0.9025
vn -0.5124 -0.2237 -0.8291
vn -0.7444 -0.0800 -0.6630
vn 0.9847 0.1024 0.1414
vn -0.1038 0.8292 0.5493
vn 0.9063 0.4197 -0.0496
vn 0.6251 0.1985 -0.7549
vn 0.9726 0.0280 -0.2310
vn 0.7883 0.5999 -0.1370
vn -0.6336 0.1264 0.7633
vn -0.5219 0.5860 0.6199
vn -0.3609 0.0067 -0.9326
vn -0.9700 -0.0984 0.2222
vn 0.3331 0.4262 0.8411
vn 0.2479 0.9326 -0.2622
vn -0.6326 0.0234 -0.7741
vn 0.9993 -0.0260 0.0285
vn 0.7239 0.6565 0.2122
vn -0.9172 -0.3708 -0.1456
vn -0.3650 0.4660 0.8060
vn -0.1196 0.9880 -0.0982
vn 0.3472 0.4672 -0.8131
vn -0.2889 0.4791 -0.8288
vn -0.3697 -0.8761 -0.3096
vn -0.5318 0.2682 0.8033
vn 0.1295 0.9902 0.0525
vn -0.8487 -0.5225 0.0816
vn 0.5027 -0.5224 0.6887
vn 0.7588 0.5960 -0.2627
vn -0.8863 -0.3656 -0.2842
vn -0.0507 0.6494 0.7588
vn -0.9175 -0.1793 -0.3550
vn 0.8347 0.5393 0.1112
vn -0.0000 -0.1211 -0.9926
vn -0.7647 -0.6437 -0.0304
vn -0.8032 -0.5756 -0.1534
vn 0.6906 0.0129 -0.7232
vn 0.0097 0.6235 0.7818
vn 0.3551 0.7607 -0.5434
vn -0.5355 0.8435 0.0404
vn 0.8117 0.5782 -0.0827
vn -0.9509 -0.3090 0.0163
vn -0.9568 0.2866 -0.0484
vn 0.3883 0.5965 0.7024
vn -0.1981 0.4860 -0.8512
vn -0.2850 -0.2205 -0.9328
vn -0.0000 -0.1551 -0.9879
vn -0.3201 0.5458 -0.7744
vn -0.3303 0.7599 -0.5599
vn 0.9990 0.0446 -0.0064
vn -0.9409 0.2334 0.2454
vn 0.7503 0.5709 -0.3334
vn -0.2362 0.7131 0.6601
vn -0.4090 0.1072 -0.9062
vn -0.0000 -0.1303 -0.9915
vn -0.9852 0.1092 -0.1321
vn -0.9986 -0.0022 0.0535
vn 0.4886 0.8722 -0.0249
vn -0.8050 0.4612 -0.3732
vn -0.0272 0.3689 0.9291
vn -0.5107 0.5632 0.6496
vn 0.2656 0.4458 -0.8549
vn 0.4564 0.8863 -0.0780
vn 0.0133 0.6735 -0.7391
vn 0.4872 0.8074 -0.3327
vn -0.2408 0.9251 -0.2938
vn 0.7083 0.6970 0.1118
vn 0.0234 0.6841 0.7290
vn -0.3916 0.9200 0.0153
vn -0.8142 0.5673 0.1234
vn 0.3892 0.8648 -0.3172
vn 0.1368 0.9873 0.0812
vn -0.4160 0.8889 -0.1920
vn 0.0887 0.6179 -0.7813
vn 0.1997 0.9646 0.1723
s 1
usemtl Liquid_Domain_Material
f 99//99 1//1 3//3
f 1//1 2//2 3//3
f 1//1 4//4 2//2
f 6//6 5//5 8//8
f 8//8 7//7 6//6
f 9//9 5//5 6//6
f 7//7 8//8 10//10
f 9//9 13//13 5//5
f 5//5 16//16 8//8
f 11//11 16//16 5//5
f 12//12 9//9 6//6
f 8//8 16//16 10//10
f 6//6 7//7 12//12
f 13//13 11//11 5//5
f 11//11 17//17 16//16
f 3//3 2//2 58//58
f 7//7 30//30 12//12
f 14//14 15//15 18//18
f 11//11 13//13 27//27
f 7//7 10//10 16//16
f 18//18 15//15 21//21
f 19//19 9//9 12//12
f 21//21 15//15 14//14
f 13//13 9//9 19//19
f 18//18 20//20 14//14
f 14//14 20//20 21//21
f 22//22 16//16 17//17
f 11//11 27//27 17//17
f 1//1 99//99 24//24
f 25//25 12//12 30//30
f 22//22 17//17 26//26
f 1//1 24//24 23//23
f 1//1 23//23 4//4
f 25//25 19//19 12//12
f 21//21 20//20 18//18
f 19//19 32//32 13//13
f 13//13 32//32 27//27
f 29//29 28//28 38//38
f 4//4 31//31 2//2
f 7//7 16//16 33//33
f 29//29 35//35 28//28
f 16//16 22//22 33//33
f 27//27 32//32 44//44
f 22//22 26//26 33//33
f 38//38 28//28 34//34
f 28//28 35//35 34//34
f 7//7 41//41 30//30
f 30//30 36//36 25//25
f 26//26 17//17 37//37
f 37//37 17//17 27//27
f 38//38 47//47 29//29
f 36//36 19//19 25//25
f 7//7 33//33 42//42
f 43//43 19//19 36//36
f 37//37 27//27 44//44
f 26//26 38//38 33//33
f 47//47 38//38 26//26
f 29//29 45//45 39//39
f 99//99 3//3 66//66
f 57//57 35//35 29//29
f 57//57 29//29 39//39
f 41//41 7//7 42//42
f 46//46 26//26 37//37
f 29//29 47//47 48//48
f 29//29 48//48 45//45
f 34//34 33//33 38//38
f 32//32 19//19 43//43
f 37//37 44//44 46//46
f 51//51 50//50 49//49
f 46//46 47//47 26//26
f 33//33 34//34 52//52
f 34//34 35//35 52//52
f 30//30 41//41 53//53
f 49//49 50//50 54//54
f 35//35 55//55 52//52
f 41//41 42//42 56//56
f 94//94 51//51 49//49
f 50//50 51//51 76//76
f 39//39 45//45 61//61
f 35//35 57//57 55//55
f 30//30 53//53 36//36
f 60//60 32//32 43//43
f 42//42 33//33 63//63
f 46//46 48//48 47//47
f 45//45 65//65 61//61
f 54//54 50//50 76//76
f 62//62 39//39 61//61
f 62//62 57//57 39//39
f 63//63 56//56 42//42
f 60//60 64//64 32//32
f 69//69 46//46 44//44
f 63//63 33//33 52//52
f 69//69 45//45 48//48
f 68//68 54//54 76//76
f 58//58 2//2 31//31
f 36//36 53//53 73//73
f 36//36 73//73 43//43
f 49//49 54//54 67//67
f 64//64 44//44 32//32
f 48//48 46//46 69//69
f 69//69 44//44 64//64
f 70//70 68//68 76//76
f 90//90 62//62 61//61
f 57//57 72//72 55//55
f 99//99 40//40 109//109
f 23//23 132//132 4//4
f 56//56 79//79 41//41
f 43//43 73//73 60//60
f 69//69 101//101 45//45
f 65//65 45//45 101//101
f 76//76 51//51 81//81
f 52//52 55//55 75//75
f 65//65 90//90 61//61
f 62//62 72//72 57//57
f 58//58 31//31 93//93
f 58//58 59//59 83//83
f 53//53 41//41 79//79
f 63//63 79//79 56//56
f 54//54 68//68 67//67
f 74//74 81//81 51//51
f 55//55 77//77 75//75
f 71//71 70//70 76//76
f 71//71 76//76 81//81
f 55//55 72//72 86//86
f 82//82 72//72 62//62
f 58//58 93//93 86//86
f 59//59 58//58 86//86
f 40//40 99//99 66//66
f 67//67 94//94 49//49
f 64//64 84//84 69//69
f 85//85 70//70 71//71
f 81//81 85//85 71//71
f 90//90 98//98 62//62
f 55//55 86//86 77//77
f 59//59 72//72 82//82
f 59//59 82//82 83//83
f 99//99 109//109 24//24
f 60//60 73//73 64//64
f 79//79 63//63 88//88
f 67//67 68//68 100//100
f 63//63 52//52 88//88
f 65//65 101//101 90//90
f 68//68 70//70 89//89
f 70//70 85//85 89//89
f 62//62 98//98 82//82
f 59//59 91//91 72//72
f 72//72 91//91 97//97
f 59//59 92//92 91//91
f 92//92 82//82 91//91
f 3//3 78//78 66//66
f 59//59 86//86 97//97
f 92//92 59//59 97//97
f 82//82 92//92 97//97
f 82//82 97//97 83//83
f 58//58 83//83 117//117
f 53//53 87//87 73//73
f 73//73 103//103 64//64
f 64//64 103//103 84//84
f 100//100 68//68 89//89
f 88//88 52//52 75//75
f 101//101 106//106 90//90
f 90//90 106//106 95//95
f 90//90 95//95 98//98
f 86//86 72//72 97//97
f 98//98 91//91 82//82
f 97//97 91//91 83//83
f 24//24 102//102 23//23
f 87//87 103//103 73//73
f 100//100 133//133 67//67
f 4//4 111//111 31//31
f 69//69 84//84 101//101
f 95//95 106//106 107//107
f 81//81 96//96 85//85
f 58//58 117//117 78//78
f 3//3 58//58 78//78
f 133//133 94//94 67//67
f 120//120 51//51 94//94
f 84//84 103//103 127//127
f 95//95 107//107 98//98
f 77//77 86//86 93//93
f 83//83 91//91 117//117
f 107//107 117//117 98//98
f 77//77 93//93 108//108
f 98//98 117//117 91//91
f 53//53 79//79 110//110
f 66//66 80//80 40//40
f 127//127 113//113 84//84
f 88//88 75//75 121//121
f 51//51 114//114 74//74
f 89//89 129//129 100//100
f 74//74 114//114 81//81
f 81//81 114//114 96//96
f 85//85 115//115 89//89
f 96//96 131//131 85//85
f 66//66 78//78 104//104
f 118//118 126//126 105//105
f 93//93 31//31 108//108
f 78//78 117//117 135//135
f 24//24 109//109 102//102
f 132//132 111//111 4//4
f 53//53 119//119 87//87
f 94//94 133//133 120//120
f 79//79 88//88 112//112
f 112//112 88//88 121//121
f 133//133 100//100 129//129
f 101//101 84//84 113//113
f 89//89 115//115 129//129
f 75//75 77//77 138//138
f 66//66 104//104 80//80
f 85//85 131//131 115//115
f 123//123 77//77 108//108
f 107//107 125//125 117//117
f 53//53 110//110 119//119
f 133//133 129//129 134//134
f 128//128 113//113 127//127
f 106//106 101//101 122//122
f 114//114 124//124 96//96
f 96//96 124//124 131//131
f 116//116 108//108 31//31
f 78//78 135//135 142//142
f 119//119 103//103 87//87
f 133//133 134//134 136//136
f 113//113 122//122 101//101
f 31//31 111//111 116//116
f 138//138 77//77 123//123
f 107//107 106//106 130//130
f 125//125 107//107 130//130
f 117//117 125//125 135//135
f 23//23 102//102 132//132
f 103//103 144//144 127//127
f 120//120 114//114 51//51
f 121//121 75//75 138//138
f 129//129 115//115 146//146
f 105//105 126//126 118//118
f 133//133 136//136 120//120
f 119//119 144//144 103//103
f 79//79 112//112 110//110
f 127//127 144//144 140//140
f 134//134 145//145 136//136
f 127//127 141//141 128//128
f 112//112 121//121 138//138
f 128//128 141//141 113//113
f 122//122 113//113 141//141
f 106//106 122//122 130//130
f 115//115 131//131 139//139
f 123//123 108//108 116//116
f 124//124 139//139 131//131
f 104//104 142//142 124//124
f 78//78 142//142 104//104
f 137//137 114//114 120//120
f 143//143 40//40 80//80
f 127//127 140//140 141//141
f 129//129 146//146 134//134
f 114//114 137//137 124//124
f 137//137 104//104 124//124
f 80//80 104//104 137//137
f 115//115 139//139 146//146
f 124//124 142//142 139//139
f 143//143 109//109 40//40
f 102//102 110//110 132//132
f 143//143 136//136 109//109
f 102//102 119//119 110//110
f 119//119 102//102 144//144
f 109//109 144//144 102//102
f 120//120 136//136 143//143
f 110//110 112//112 132//132
f 112//112 111//111 132//132
f 109//109 145//145 144//144
f 136//136 145//145 109//109
f 143//143 137//137 120//120
f 145//145 140//140 144//144
f 80//80 137//137 143//143
f 112//112 138//138 111//111
f 145//145 134//134 140//140
f 140//140 122//122 141//141
f 138//138 116//116 111//111
f 134//134 146//146 140//140
f 140//140 130//130 122//122
f 146//146 130//130 140//140
f 123//123 116//116 138//138
f 135//135 146//146 139//139
f 135//135 130//130 146//146
f 142//142 135//135 139//139
f 135//135 125//125 130//130
