# Blender 4.1.1
# www.blender.org
mtllib aa0175.mtl
o Liquid_Domain
v -8.134167 -8.755833 6.217273
v -8.480535 -9.101856 5.867706
v 8.424219 -9.094872 6.182997
v 8.455401 -9.090189 -6.204174
v -8.479282 -9.100937 -5.868983
v -8.134167 -8.755833 -6.217273
v 8.402666 -3.455216 6.138341
v 8.394552 -2.862773 3.331985
v 5.606680 -4.569472 1.421318
v 7.356142 -4.546708 2.405448
v 6.667807 -4.145853 0.397332
v 5.351385 -4.367527 3.940296
v 4.699754 -3.498580 4.986715
v 4.025919 -3.365808 3.920819
v 7.739846 -2.896929 3.897125
v 5.634827 -3.162852 2.198182
v 6.639888 -0.965904 6.048320
v 7.544767 -3.240916 5.015217
v 6.458218 -2.683193 -0.811933
v 4.176428 0.344913 6.145700
v 7.724339 -2.192765 1.140885
v -8.392735 6.766877 6.163491
v 3.266190 -1.291756 5.247249
v 8.387071 0.214547 6.114130
v 6.810340 -1.881441 5.509501
v 7.974254 -1.249409 3.833829
v 4.110684 -2.832539 1.776517
v 6.005577 -1.865883 0.449462
v 7.054696 -1.949162 -2.382309
v 4.127693 -1.718081 0.738690
v 8.382400 -1.039902 2.435131
v 6.407673 -2.718901 -3.006215
v -8.449236 2.973260 -2.563043
v 6.181786 -0.624822 -4.822132
v 1.626631 1.648241 -6.184228
v 2.540691 -0.434874 4.978274
v 7.806108 0.071603 1.709388
v 3.464699 -1.385017 -1.770729
v 7.010180 -0.226444 -4.597224
v 7.552350 -0.033106 5.784189
v 8.133460 -0.047379 4.874388
v -2.540789 -0.594326 1.335270
v -4.594803 -0.384815 0.912603
v -4.105512 0.709442 -6.186138
v 7.384338 0.346215 4.050623
v -4.158438 -1.124746 1.579641
v 2.615694 0.808937 -4.235716
v 6.588144 1.004239 -2.489771
v -5.734745 -0.739695 -1.599070
v 4.612601 -0.280518 -4.547786
v 6.650150 0.553866 5.781370
v -4.115831 0.778862 2.383266
v -3.353081 1.050550 1.313698
v -4.643723 0.542642 -0.558986
v -6.455434 -0.162782 -1.223418
v -3.579748 0.639006 -2.455544
v -6.033725 -0.160998 -3.838704
v 8.389166 4.883898 -6.163539
v 5.011082 0.488598 5.280632
v 7.570346 1.771981 -4.057615
v 2.215788 1.592756 4.224627
v -7.219585 1.145429 -3.327430
v 5.290856 1.541776 -4.772251
v 6.951911 2.750569 -4.961469
v -3.488915 2.183344 -5.138481
v 2.784436 2.174778 5.475501
v 5.089898 1.812934 4.612488
v 2.704442 1.835325 -0.696926
v 7.588184 2.132400 -1.142208
v -7.640198 3.042699 -2.091629
v -3.002317 1.904833 -3.227024
v 3.022741 2.142942 -5.401001
v -4.237901 2.000442 -5.509601
v 3.049163 3.197813 -6.064241
v 8.405264 2.708742 0.273402
v -7.198276 3.423678 -4.794316
v 6.655797 2.698070 4.950105
v 7.551356 2.713416 4.114566
v -6.379592 2.720130 -1.848216
v -6.017658 3.002808 -3.160343
v -8.374161 5.253223 -6.128634
v -5.601239 2.930623 -5.553168
v 7.728962 4.483820 2.672535
v -3.198178 2.712131 -3.674564
v 8.323623 4.809610 -4.946244
v 1.318427 2.963449 1.450509
v 7.393051 4.532522 -2.502912
v -7.269758 4.049489 -1.278872
v -2.756150 3.331858 -6.062222
v 1.325329 2.859741 -5.741196
v 3.836498 3.513688 -5.283884
v -5.272859 4.869335 -5.969567
v 4.264092 3.865233 4.837127
v -0.221884 3.967419 1.899578
v 0.267653 4.720340 -2.059592
v 7.324486 5.174235 -5.111752
v 2.427275 3.886069 -5.143644
v 1.613270 6.659839 6.196273
v 8.387731 7.042303 6.144469
v 1.531575 4.626576 4.108049
v -8.352262 6.820068 -3.347966
v -6.537679 5.294363 -1.681132
v -4.747936 5.151101 -4.107884
v 1.755022 2.542298 -4.621677
v 7.551448 6.012050 -6.073660
v -7.312990 6.483349 -1.027028
v 5.754921 6.188886 -5.725799
v 0.206682 6.396288 -5.463549
v -7.776978 5.275874 -4.992750
v 6.691080 6.983004 5.415198
v 7.270260 6.683157 4.512134
v 8.405549 6.747953 -1.778161
v -1.519885 6.862156 -1.137703
v 7.313369 6.657469 -2.252758
v -7.205630 6.602708 -3.143602
v -6.434487 5.765656 3.228997
v -6.729657 5.418205 0.121409
v -4.481831 6.907659 -0.332566
v -7.972791 6.655722 -5.051961
v -7.030056 6.423919 4.233415
v -3.615688 6.926617 -3.999962
v -7.770567 6.103981 -5.959764
v -7.844563 7.087403 5.804277
v -0.513588 7.039629 1.921650
v 0.059092 6.847197 4.775310
v -4.040269 7.077043 1.571281
v -1.057404 6.944487 -5.829294
vn -0.2807 -0.2826 0.9172
vn -0.6251 -0.6508 0.4309
vn 0.5033 -0.5214 0.6891
vn 0.5043 -0.5223 -0.6877
vn -0.6247 -0.6508 -0.4315
vn -0.2820 -0.2815 -0.9172
vn 0.5932 0.0146 0.8049
vn 0.9981 0.0601 0.0165
vn 0.6385 0.7131 0.2895
vn -0.6150 0.7861 -0.0614
vn -0.2803 0.6971 0.6599
vn 0.2111 0.9569 -0.1997
vn 0.3078 0.5643 -0.7660
vn 0.7672 0.6399 0.0442
vn -0.8856 0.4193 -0.1996
vn 0.7401 0.5443 0.3950
vn 0.1660 0.5465 0.8208
vn -0.6596 0.4081 -0.6312
vn 0.2005 0.9245 0.3241
vn 0.0213 -0.0037 0.9998
vn -0.9582 0.1808 0.2218
vn -0.5420 0.4079 0.7347
vn 0.5092 0.3193 -0.7992
vn 0.5517 -0.0401 0.8331
vn -0.2486 0.2865 -0.9253
vn -0.6334 0.0855 0.7691
vn 0.5844 0.6803 0.4423
vn 0.6440 0.6798 0.3509
vn -0.9318 0.3114 0.1862
vn 0.6538 0.6885 0.3138
vn 0.9903 0.0262 0.1362
vn -0.2154 0.8760 0.4315
vn -0.9997 0.0202 0.0141
vn -0.0874 0.4095 0.9081
vn -0.0014 0.0862 -0.9963
vn 0.8483 0.3263 -0.4171
vn -0.9974 -0.0414 0.0598
vn 0.7692 0.6390 -0.0047
vn -0.7204 0.3241 0.6132
vn -0.8783 -0.0808 0.4711
vn -0.4317 -0.9003 -0.0546
vn -0.8897 0.4087 0.2034
vn 0.5706 0.1207 0.8123
vn -0.0048 0.0914 -0.9958
vn -0.9611 -0.2616 -0.0888
vn 0.2966 0.9037 -0.3087
vn 0.6846 0.5218 0.5089
vn -0.9941 0.1073 0.0160
vn 0.0267 0.9711 -0.2373
vn 0.2934 0.4774 0.8283
vn -0.1110 -0.7349 -0.6691
vn 0.2141 -0.3983 -0.8919
vn -0.2898 -0.8513 0.4374
vn -0.3042 0.0727 -0.9498
vn 0.5729 0.4493 -0.6855
vn -0.8021 0.5910 -0.0856
vn 0.2303 0.7478 0.6227
vn 0.6099 0.2436 -0.7541
vn 0.0978 -0.1581 -0.9826
vn -0.9855 0.1683 0.0235
vn 0.9242 0.3270 -0.1972
vn 0.8514 0.3936 0.3468
vn -0.0385 0.1205 0.9920
vn -0.1807 0.1080 0.9776
vn -0.6662 0.6626 0.3423
vn 0.2680 -0.1006 -0.9581
vn 0.0078 -0.2199 -0.9755
vn 0.8576 0.5143 0.0020
vn -0.9545 0.1595 0.2520
vn 0.8928 0.1274 -0.4321
vn -0.9394 -0.1495 -0.3086
vn 0.2424 0.1475 0.9589
vn -0.1743 0.9753 -0.1356
vn -0.1810 0.4548 -0.8720
vn 1.0000 0.0015 0.0009
vn 0.7753 0.2783 0.5669
vn -0.2662 -0.1036 -0.9583
vn -0.9148 -0.0175 -0.4035
vn -0.3296 -0.3990 -0.8557
vn -0.7002 -0.4292 -0.5706
vn -0.5691 0.2125 -0.7943
vn 0.5017 0.3404 0.7952
vn -0.9961 -0.0855 -0.0217
vn -0.6665 -0.6295 -0.3995
vn 0.8406 0.5414 0.0142
vn 0.6529 0.7399 0.1623
vn -0.9998 0.0004 0.0192
vn 0.1837 0.1682 -0.9685
vn -0.3516 0.1521 -0.9237
vn 0.3595 0.5840 -0.7278
vn -0.1912 0.4152 0.8894
vn 0.7933 0.5527 -0.2553
vn 0.0762 -0.0587 -0.9954
vn 0.9003 0.3555 -0.2510
vn 0.7984 0.5834 0.1488
vn -0.1723 0.6737 0.7186
vn -0.1638 0.9126 0.3745
vn 0.0104 0.4472 0.8944
vn 0.4965 0.5603 0.6630
vn 0.5612 0.1449 -0.8149
vn -0.5131 0.8036 -0.3016
vn -0.5717 0.5217 -0.6332
vn -0.6889 0.3413 -0.6395
vn 0.7033 0.5330 0.4703
vn 0.2932 0.7871 -0.5427
vn 0.7069 0.6964 -0.1236
vn -0.3662 0.9305 -0.0120
vn 0.6657 0.5836 -0.4651
vn 0.7415 0.6431 0.1912
vn -0.1359 0.8432 -0.5202
vn -0.7110 0.6377 -0.2964
vn 0.6518 0.7398 -0.1670
vn 0.4836 0.8743 0.0419
vn -0.6118 0.7311 -0.3021
vn 0.7265 0.6582 -0.1975
vn -0.1216 0.8789 -0.4612
vn 0.2630 0.9631 -0.0564
vn -0.4089 0.9091 -0.0791
vn -0.0369 0.7328 0.6794
vn -0.0263 0.8983 -0.4386
vn -0.4755 0.7951 -0.3764
vn 0.0669 0.7710 -0.6333
vn -0.1796 0.9473 0.2652
vn 0.4994 0.8525 -0.1542
vn 0.2071 0.9216 -0.3282
vn -0.2259 0.9721 -0.0627
vn 0.0216 0.6484 -0.7610
s 1
usemtl Liquid_Domain_Material
f 2//2 3//3 1//1
f 3//3 2//2 4//4
f 4//4 2//2 5//5
f 4//4 5//5 6//6
f 3//3 20//20 1//1
f 3//3 7//7 20//20
f 3//3 4//4 7//7
f 7//7 4//4 8//8
f 10//10 9//9 12//12
f 9//9 10//10 11//11
f 4//4 75//75 8//8
f 2//2 1//1 22//22
f 20//20 7//7 17//17
f 12//12 14//14 13//13
f 12//12 15//15 10//10
f 12//12 9//9 16//16
f 11//11 19//19 9//9
f 13//13 18//18 12//12
f 15//15 12//12 18//18
f 12//12 16//16 14//14
f 15//15 21//21 10//10
f 16//16 9//9 28//28
f 10//10 21//21 11//11
f 21//21 19//19 11//11
f 18//18 13//13 25//25
f 13//13 14//14 23//23
f 14//14 16//16 27//27
f 9//9 19//19 28//28
f 8//8 75//75 31//31
f 7//7 24//24 17//17
f 7//7 8//8 24//24
f 15//15 18//18 25//25
f 27//27 23//23 14//14
f 21//21 15//15 26//26
f 30//30 27//27 28//28
f 27//27 16//16 28//28
f 21//21 29//29 19//19
f 32//32 19//19 29//29
f 13//13 23//23 25//25
f 26//26 37//37 21//21
f 32//32 28//28 19//19
f 34//34 32//32 29//29
f 23//23 27//27 30//30
f 26//26 8//8 31//31
f 2//2 33//33 5//5
f 28//28 32//32 38//38
f 32//32 34//34 50//50
f 4//4 6//6 35//35
f 15//15 24//24 26//26
f 26//26 24//24 8//8
f 30//30 36//36 23//23
f 28//28 38//38 30//30
f 38//38 32//32 50//50
f 34//34 29//29 39//39
f 40//40 17//17 24//24
f 17//17 40//40 25//25
f 15//15 25//25 40//40
f 41//41 15//15 40//40
f 41//41 24//24 15//15
f 26//26 45//45 37//37
f 42//42 43//43 46//46
f 39//39 29//29 48//48
f 35//35 58//58 4//4
f 25//25 59//59 17//17
f 21//21 37//37 29//29
f 30//30 38//38 47//47
f 50//50 47//47 38//38
f 26//26 41//41 45//45
f 41//41 26//26 31//31
f 46//46 52//52 42//42
f 46//46 43//43 52//52
f 29//29 37//37 48//48
f 49//49 55//55 54//54
f 55//55 49//49 57//57
f 75//75 4//4 58//58
f 6//6 44//44 35//35
f 51//51 20//20 17//17
f 51//51 17//17 59//59
f 23//23 36//36 66//66
f 23//23 66//66 59//59
f 25//25 23//23 59//59
f 40//40 45//45 41//41
f 61//61 36//36 30//30
f 53//53 43//43 42//42
f 49//49 54//54 56//56
f 55//55 57//57 62//62
f 57//57 49//49 56//56
f 48//48 60//60 39//39
f 51//51 40//40 24//24
f 51//51 45//45 40//40
f 41//41 31//31 24//24
f 53//53 42//42 52//52
f 52//52 43//43 53//53
f 68//68 61//61 30//30
f 68//68 30//30 47//47
f 34//34 63//63 50//50
f 34//34 64//64 63//63
f 39//39 64//64 34//34
f 1//1 20//20 98//98
f 51//51 24//24 20//20
f 51//51 78//78 45//45
f 57//57 56//56 65//65
f 50//50 63//63 72//72
f 44//44 6//6 81//81
f 36//36 61//61 66//66
f 37//37 69//69 48//48
f 55//55 70//70 54//54
f 54//54 79//79 71//71
f 71//71 56//56 54//54
f 55//55 62//62 70//70
f 56//56 71//71 65//65
f 57//57 73//73 62//62
f 65//65 73//73 57//57
f 104//104 47//47 50//50
f 50//50 72//72 104//104
f 59//59 77//77 51//51
f 59//59 66//66 67//67
f 67//67 77//77 59//59
f 45//45 78//78 37//37
f 75//75 24//24 31//31
f 37//37 78//78 69//69
f 70//70 79//79 54//54
f 51//51 77//77 78//78
f 86//86 61//61 68//68
f 79//79 80//80 71//71
f 84//84 71//71 80//80
f 33//33 81//81 5//5
f 6//6 5//5 81//81
f 82//82 73//73 44//44
f 74//74 35//35 90//90
f 67//67 66//66 93//93
f 78//78 83//83 69//69
f 62//62 76//76 70//70
f 104//104 68//68 47//47
f 84//84 65//65 71//71
f 39//39 60//60 96//96
f 73//73 82//82 62//62
f 75//75 58//58 85//85
f 63//63 91//91 72//72
f 89//89 73//73 65//65
f 44//44 81//81 92//92
f 44//44 92//92 82//82
f 44//44 73//73 89//89
f 35//35 74//74 58//58
f 67//67 93//93 77//77
f 94//94 66//66 61//61
f 86//86 94//94 61//61
f 83//83 87//87 69//69
f 104//104 95//95 68//68
f 48//48 87//87 60//60
f 89//89 84//84 80//80
f 62//62 82//82 76//76
f 89//89 65//65 84//84
f 64//64 39//39 96//96
f 72//72 91//91 104//104
f 1//1 98//98 22//22
f 93//93 66//66 100//100
f 88//88 79//79 70//70
f 48//48 69//69 87//87
f 87//87 96//96 60//60
f 90//90 104//104 97//97
f 97//97 74//74 90//90
f 44//44 89//89 35//35
f 24//24 99//99 20//20
f 94//94 100//100 66//66
f 2//2 101//101 33//33
f 95//95 86//86 68//68
f 91//91 97//97 104//104
f 63//63 64//64 91//91
f 20//20 99//99 98//98
f 24//24 75//75 99//99
f 102//102 79//79 88//88
f 79//79 102//102 80//80
f 103//103 89//89 80//80
f 64//64 96//96 91//91
f 74//74 97//97 91//91
f 58//58 74//74 105//105
f 78//78 111//111 83//83
f 22//22 101//101 2//2
f 95//95 94//94 86//86
f 88//88 70//70 106//106
f 70//70 76//76 106//106
f 33//33 101//101 81//81
f 108//108 95//95 104//104
f 104//104 90//90 108//108
f 82//82 109//109 76//76
f 82//82 92//92 109//109
f 35//35 89//89 127//127
f 78//78 77//77 111//111
f 75//75 85//85 112//112
f 103//103 80//80 102//102
f 108//108 113//113 95//95
f 114//114 96//96 87//87
f 77//77 93//93 110//110
f 95//95 113//113 94//94
f 88//88 106//106 102//102
f 76//76 109//109 115//115
f 109//109 92//92 122//122
f 91//91 96//96 107//107
f 91//91 107//107 74//74
f 92//92 81//81 122//122
f 90//90 35//35 127//127
f 90//90 127//127 108//108
f 111//111 77//77 110//110
f 83//83 111//111 87//87
f 99//99 75//75 112//112
f 94//94 113//113 100//100
f 117//117 102//102 106//106
f 106//106 76//76 115//115
f 85//85 96//96 114//114
f 101//101 109//109 81//81
f 103//103 127//127 89//89
f 105//105 85//85 58//58
f 74//74 107//107 105//105
f 116//116 117//117 120//120
f 102//102 117//117 118//118
f 115//115 109//109 101//101
f 122//122 119//119 109//109
f 105//105 107//107 96//96
f 105//105 96//96 85//85
f 93//93 100//100 110//110
f 125//125 100//100 124//124
f 126//126 117//117 116//116
f 124//124 100//100 113//113
f 120//120 117//117 106//106
f 87//87 111//111 114//114
f 103//103 102//102 118//118
f 109//109 119//119 81//81
f 103//103 121//121 127//127
f 110//110 100//100 125//125
f 116//116 120//120 126//126
f 126//126 118//118 117//117
f 121//121 103//103 118//118
f 112//112 85//85 114//114
f 119//119 122//122 81//81
f 22//22 98//98 123//123
f 123//123 98//98 110//110
f 110//110 98//98 99//99
f 110//110 125//125 123//123
f 125//125 124//124 123//123
f 111//111 110//110 99//99
f 123//123 126//126 120//120
f 124//124 126//126 123//123
f 123//123 101//101 22//22
f 120//120 106//106 123//123
f 106//106 101//101 123//123
f 99//99 114//114 111//111
f 113//113 126//126 124//124
f 99//99 112//112 114//114
f 126//126 121//121 118//118
f 106//106 115//115 101//101
f 126//126 127//127 121//121
f 113//113 127//127 126//126
f 113//113 108//108 127//127
