# Blender 4.1.1
# www.blender.org
mtllib aa0117.mtl
o Liquid_Domain
v -8.187490 -9.069440 6.068313
v -8.444489 -9.069669 -6.203265
v 8.417329 -9.094664 -6.194048
v -6.415105 -7.951696 5.713138
v 8.465044 -9.093458 6.214159
v -8.400110 -6.682392 3.994962
v -8.331524 -5.951870 6.151623
v -4.225601 -7.593319 6.161659
v -5.013224 -7.748430 4.386693
v -3.665743 -8.037178 -0.339272
v -1.771431 -7.532607 1.932509
v -1.846832 -7.369816 4.413609
v -4.553567 -6.364617 0.457489
v -4.980321 -6.222835 5.600984
v -8.009024 -6.110624 5.145461
v -6.628871 -5.916254 2.077958
v -3.565690 -5.207186 0.459881
v -6.778506 -5.635959 6.050281
v -4.057761 -4.986054 5.685307
v -2.817832 -5.358748 1.833175
v 3.269842 -6.770228 -1.602464
v -2.981830 -4.724132 5.450823
v 5.084450 -5.827847 0.841044
v 6.965952 -5.629141 -0.579360
v 2.776509 -5.833946 -0.946278
v 5.886410 -4.735583 -2.040287
v -8.404559 -4.036101 0.455054
v -1.490155 -4.696851 3.361459
v -6.751436 -5.274918 0.311761
v -4.951289 -3.843652 -0.921396
v 3.384232 -3.190175 -2.124630
v -7.000791 -3.362506 5.278262
v -8.288569 -4.882137 3.309122
v -3.377759 -4.023454 1.121004
v 6.792080 -2.692714 0.256726
v -3.840644 -2.894136 6.129232
v -7.089802 -3.549347 1.825650
v 1.454450 4.721607 -6.198120
v -7.431264 -2.805990 4.473174
v 0.122656 -2.999367 2.427351
v -1.944808 -3.187613 2.214690
v 6.780969 -4.122074 -4.483228
v -4.410851 -3.568920 5.702547
v -1.661788 -3.150210 5.617334
v -8.286073 -2.867540 2.178673
v 3.905274 -3.003937 0.378401
v 4.757213 -2.681616 -4.209076
v 7.084537 -2.607883 -2.766650
v -7.261727 -3.286080 0.088330
v -6.094990 -2.782426 6.131994
v -8.226255 -2.458018 4.152191
v -6.636929 -1.223895 -1.861700
v -2.917879 -2.071013 5.206918
v -3.392212 -2.159670 2.292116
v -2.095784 -1.948236 2.289047
v -1.633807 -1.515630 3.753016
v -7.383396 -0.908472 0.120335
v -3.606866 -0.696629 0.762066
v 4.234280 -0.458382 0.339478
v 4.528323 -1.580721 -1.106563
v -5.406560 -0.209224 -1.321321
v 6.267580 -0.116098 -0.477119
v 5.977473 -1.465516 -3.144310
v -4.924222 0.364629 -6.191627
v -4.936851 0.012771 5.399680
v -8.435661 -1.603337 -0.523011
v -6.925150 -0.835230 5.169629
v -7.587983 0.573110 -2.927748
v -1.124161 -0.965366 -1.445845
v -4.153259 -0.652626 -3.512730
v 7.565982 0.624023 -2.793769
v -6.468852 -0.443277 -3.522947
v -5.947921 -0.833444 -4.744749
v -2.565331 -0.407474 -0.206830
v -1.285525 0.643743 -4.648104
v 5.689664 1.250319 -4.139140
v -2.672720 2.149127 5.265534
v -6.933238 -0.115202 3.363616
v -7.415565 6.607796 0.862375
v 4.913628 -0.787491 1.614963
v -4.769970 0.849092 3.801304
v -2.031573 0.966046 3.463737
v 8.447072 1.859929 -1.100502
v -5.461156 1.324364 -3.368946
v -6.519169 2.293596 -5.095689
v -1.126669 2.348701 0.780752
v -6.603054 0.450511 -0.136038
v -1.523683 1.743871 -0.628735
v -8.372861 4.272332 -2.715397
v -2.658931 2.709975 6.171463
v -1.023652 3.462029 -3.749390
v -6.786999 1.840744 4.293236
v 5.458064 2.218549 1.925301
v 2.694990 3.543272 0.343214
v -2.254163 4.543401 -5.324488
v -2.856525 3.226161 6.073828
v 2.982729 1.579997 2.026556
v 3.956620 2.942204 1.791561
v -8.413713 6.774608 0.772661
v 7.516214 2.275486 -1.670135
v -0.509605 3.865368 3.896853
v -2.954356 3.364029 3.895304
v 7.157993 2.568372 3.309569
v 6.703125 1.911042 0.112105
v 5.175954 2.640270 -4.946836
v 1.174461 2.619155 3.061060
v 7.717375 4.021167 0.953761
v -7.086193 6.623462 4.750631
v -4.984516 4.651963 4.681773
v -7.609237 4.396851 -2.074282
v -2.183499 4.437372 6.112273
v 6.287196 4.167809 -1.177857
v 2.688542 4.327698 -2.523760
v 4.108941 3.624960 0.582845
v 4.335192 4.961915 -1.704049
v 3.705777 4.370624 -4.286216
v 3.740377 6.461744 -6.116534
v -2.100162 4.934407 4.578343
v 2.189312 4.514098 1.989764
v -8.349362 6.724202 -6.147883
v 7.147583 4.703678 -4.895573
v 8.379655 6.977004 6.158375
v 8.380158 6.952407 -6.158421
v 1.145336 5.794026 3.106902
v -1.053248 5.436542 -6.113356
v -8.437426 7.049006 6.151726
v 7.519153 5.598654 -3.524586
v -3.445639 6.730159 -6.056181
v -0.229395 6.677727 3.992591
v -0.424936 6.980952 -1.613964
v 1.584830 5.514041 -5.288822
v -7.710669 6.404167 -5.209289
v 6.523875 7.025452 -5.119369
v -4.695232 6.058235 -5.458888
v 4.626802 5.757355 3.668091
v 8.380463 6.816413 -3.467294
v 6.793265 5.831658 0.435021
v 0.425661 7.011352 -5.412194
v 3.647147 6.970645 2.417652
v -2.979354 7.067900 6.075266
v 4.940130 6.988625 4.676824
v 7.271729 6.956483 1.288201
v 1.845007 6.961039 -1.758115
vn -0.4603 -0.5065 0.7291
vn -0.5044 -0.5226 -0.6873
vn 0.5014 -0.5242 -0.6884
vn 0.1139 0.7226 0.6818
vn 0.5013 -0.5226 0.6896
vn -0.7074 0.6252 0.3296
vn -0.5537 -0.0542 0.8310
vn -0.2087 0.1101 0.9718
vn -0.0293 0.9987 -0.0414
vn 0.0132 0.4469 0.8945
vn -0.8777 0.4361 0.1987
vn -0.6232 0.5518 -0.5542
vn 0.4466 0.3966 0.8020
vn -0.5649 -0.1258 -0.8155
vn 0.1213 0.3517 -0.9282
vn 0.5073 0.7747 0.3774
vn -0.6553 -0.0696 0.7521
vn 0.5051 -0.4198 0.7541
vn 0.3588 0.8374 0.4124
vn -0.8606 -0.0916 0.5010
vn 0.3699 0.7694 0.5207
vn -0.7652 0.6430 -0.0319
vn -0.0099 0.5022 -0.8647
vn -0.8508 0.5249 0.0227
vn 0.9234 0.2760 -0.2666
vn -0.4499 0.6142 0.6483
vn -0.9571 0.2797 0.0754
vn -0.8889 0.4393 0.1297
vn 0.6098 0.5045 0.6113
vn -0.2330 0.2706 0.9341
vn 0.8420 -0.1217 0.5256
vn 0.4814 -0.1485 -0.8638
vn -0.4683 -0.1187 0.8756
vn -0.7825 -0.1066 0.6135
vn -0.8508 -0.0100 -0.5255
vn -0.3073 -0.1361 0.9418
vn 1.0000 -0.0038 0.0042
vn -0.0027 0.2156 -0.9765
vn 0.9491 -0.2668 -0.1676
vn -0.8014 0.0018 0.5981
vn -0.3227 0.0370 0.9458
vn -0.3537 0.3890 0.8506
vn -0.2473 0.4469 -0.8598
vn -0.5467 -0.1070 -0.8304
vn -0.9791 0.0039 -0.2033
vn 0.8292 -0.0144 -0.5588
vn 0.4268 -0.1632 0.8895
vn -0.9731 0.0534 0.2242
vn 0.4169 0.5191 0.7461
vn 0.1886 -0.1379 0.9723
vn -0.9999 -0.0051 -0.0087
vn 0.3761 0.5799 0.7226
vn -0.2864 -0.2910 -0.9128
vn -0.5111 0.1185 0.8513
vn -0.5061 0.0251 0.8621
vn -0.8824 -0.4105 -0.2300
vn 0.8684 -0.4548 0.1974
vn -0.4026 0.6696 0.6241
vn 0.9858 0.1656 0.0267
vn 0.7289 -0.4724 0.4956
vn -0.5265 0.5326 0.6627
vn -0.8968 0.0610 -0.4382
vn 0.0717 -0.2407 0.9679
vn -0.0022 0.0066 -1.0000
vn 0.2258 -0.3534 -0.9078
vn -0.9494 -0.1099 0.2941
vn 0.6047 -0.3723 -0.7041
vn 0.9434 0.3066 0.1266
vn -0.6177 0.7376 -0.2727
vn 0.1080 0.9767 -0.1853
vn -0.8980 -0.0119 0.4398
vn 0.2581 0.9566 -0.1351
vn 0.2743 0.6878 0.6721
vn -0.4168 0.9087 0.0257
vn -0.5724 0.3851 0.7239
vn 0.0452 0.4882 0.8716
vn -0.0354 0.1115 -0.9931
vn 0.9351 -0.1389 -0.3261
vn 0.6646 0.7006 -0.2596
vn -0.0322 0.2283 -0.9731
vn 0.3148 -0.2926 -0.9029
vn -0.9643 0.1524 -0.2167
vn 1.0000 0.0058 -0.0025
vn -0.1504 0.8426 -0.5171
vn 0.3834 0.1703 0.9077
vn -0.9283 0.3593 0.0962
vn 0.9957 -0.0924 -0.0058
vn -0.9503 0.2843 -0.1270
vn -0.8956 0.4297 0.1152
vn -0.1166 0.2026 0.9723
vn -0.9644 0.1100 0.2404
vn 0.4694 0.2299 -0.8526
vn -0.0389 0.0660 -0.9971
vn 0.8155 -0.4351 0.3817
vn -0.0786 0.3795 0.9218
vn 0.4473 -0.0791 0.8909
vn -0.1262 0.3436 -0.9306
vn -0.3529 -0.4402 -0.8256
vn -0.5495 0.7794 -0.3010
vn -0.9793 -0.0619 -0.1928
vn -0.7332 0.2935 -0.6134
vn 0.3949 0.0235 -0.9184
vn -0.1763 0.1536 -0.9723
vn -0.9162 0.3138 -0.2493
vn 0.2104 0.3051 0.9288
vn 0.5274 0.0828 -0.8456
vn -0.9914 -0.1273 0.0296
vn 0.3634 0.7967 -0.4828
vn -0.0495 0.1275 -0.9906
vn 0.7874 0.5435 -0.2908
vn -0.0398 0.0013 0.9992
vn -0.9870 -0.0151 -0.1601
vn 0.8680 0.4515 -0.2066
vn 0.1016 -0.8672 -0.4875
vn 0.5770 -0.1651 -0.7999
vn 0.3541 0.5142 0.7811
vn -0.2288 0.6887 -0.6880
vn -0.1956 0.0874 -0.9768
vn 0.2617 -0.8948 -0.3618
vn -0.5137 0.6226 -0.5904
vn -0.5063 0.0928 0.8573
vn 0.5012 0.5268 0.6865
vn 0.4927 0.5331 -0.6878
vn -0.6740 0.5364 -0.5079
vn -0.2264 0.5260 -0.8198
vn -0.4886 0.5734 0.6577
vn -0.9536 0.2439 0.1763
vn 0.3312 0.8783 -0.3448
vn -0.3194 0.6264 -0.7110
vn -0.6336 0.7661 0.1080
vn 0.4119 0.8851 -0.2168
vn 0.0034 0.7075 0.7067
vn -0.2357 0.8616 0.4496
vn 0.1077 0.3069 0.9456
vn -0.5818 0.8055 0.1128
vn 0.4212 0.8678 0.2636
vn -0.2622 0.2334 -0.9364
vn 0.0554 0.8295 -0.5557
vn -0.1319 0.9671 0.2174
vn -0.0536 0.8116 0.5818
vn -0.0879 0.9857 -0.1434
vn -0.0167 0.9851 -0.1709
vn 0.3251 0.8921 -0.3137
s 1
usemtl Liquid_Domain_Material
f 5//5 1//1 3//3
f 2//2 3//3 1//1
f 1//1 4//4 7//7
f 7//7 6//6 1//1
f 1//1 6//6 2//2
f 83//83 5//5 3//3
f 1//1 8//8 4//4
f 1//1 5//5 8//8
f 9//9 4//4 8//8
f 12//12 10//10 9//9
f 12//12 11//11 10//10
f 9//9 16//16 4//4
f 13//13 9//9 10//10
f 7//7 15//15 6//6
f 14//14 9//9 8//8
f 4//4 6//6 15//15
f 4//4 16//16 6//6
f 16//16 9//9 13//13
f 4//4 18//18 7//7
f 4//4 15//15 18//18
f 9//9 14//14 19//19
f 12//12 20//20 11//11
f 17//17 10//10 11//11
f 10//10 17//17 13//13
f 8//8 18//18 14//14
f 12//12 9//9 22//22
f 17//17 11//11 20//20
f 25//25 23//23 21//21
f 24//24 21//21 23//23
f 9//9 19//19 22//22
f 33//33 6//6 16//16
f 6//6 27//27 2//2
f 21//21 24//24 26//26
f 18//18 32//32 14//14
f 28//28 12//12 22//22
f 12//12 28//28 20//20
f 16//16 29//29 33//33
f 33//33 27//27 6//6
f 29//29 16//16 13//13
f 30//30 29//29 13//13
f 30//30 13//13 17//17
f 21//21 26//26 31//31
f 8//8 19//19 18//18
f 18//18 15//15 32//32
f 15//15 7//7 33//33
f 34//34 17//17 20//20
f 24//24 23//23 35//35
f 21//21 31//31 25//25
f 3//3 2//2 64//64
f 18//18 19//19 36//36
f 22//22 19//19 8//8
f 3//3 64//64 38//38
f 32//32 19//19 14//14
f 32//32 15//15 39//39
f 22//22 44//44 28//28
f 33//33 39//39 15//15
f 44//44 40//40 28//28
f 28//28 41//41 20//20
f 37//37 33//33 29//29
f 20//20 41//41 34//34
f 23//23 25//25 46//46
f 27//27 66//66 2//2
f 31//31 26//26 42//42
f 18//18 50//50 7//7
f 18//18 36//36 43//43
f 19//19 44//44 36//36
f 22//22 8//8 44//44
f 32//32 43//43 19//19
f 19//19 43//43 44//44
f 33//33 45//45 27//27
f 37//37 29//29 49//49
f 30//30 49//49 29//29
f 24//24 35//35 26//26
f 42//42 26//26 48//48
f 31//31 42//42 47//47
f 43//43 50//50 18//18
f 8//8 36//36 44//44
f 8//8 5//5 36//36
f 33//33 37//37 39//39
f 40//40 41//41 28//28
f 49//49 27//27 45//45
f 46//46 25//25 31//31
f 43//43 32//32 50//50
f 49//49 45//45 37//37
f 49//49 66//66 27//27
f 30//30 17//17 34//34
f 49//49 30//30 52//52
f 50//50 32//32 53//53
f 50//50 53//53 36//36
f 36//36 53//53 43//43
f 44//44 43//43 53//53
f 51//51 45//45 33//33
f 41//41 40//40 55//55
f 41//41 54//54 34//34
f 80//80 23//23 46//46
f 7//7 51//51 33//33
f 37//37 67//67 39//39
f 41//41 55//55 54//54
f 49//49 57//57 66//66
f 35//35 48//48 26//26
f 63//63 47//47 42//42
f 48//48 63//63 42//42
f 56//56 44//44 53//53
f 56//56 40//40 44//44
f 78//78 67//67 37//37
f 78//78 37//37 57//57
f 45//45 57//57 37//37
f 34//34 54//54 58//58
f 80//80 35//35 23//23
f 46//46 31//31 59//59
f 52//52 57//57 49//49
f 30//30 34//34 61//61
f 47//47 60//60 31//31
f 60//60 47//47 63//63
f 7//7 126//126 51//51
f 67//67 32//32 39//39
f 55//55 40//40 56//56
f 46//46 59//59 80//80
f 62//62 35//35 80//80
f 58//58 61//61 34//34
f 59//59 31//31 60//60
f 35//35 62//62 48//48
f 3//3 38//38 123//123
f 32//32 67//67 65//65
f 32//32 65//65 53//53
f 51//51 126//126 45//45
f 54//54 55//55 58//58
f 57//57 45//45 66//66
f 52//52 30//30 61//61
f 56//56 82//82 55//55
f 45//45 126//126 66//66
f 74//74 58//58 55//55
f 69//69 70//70 74//74
f 62//62 71//71 48//48
f 70//70 73//73 72//72
f 78//78 57//57 87//87
f 57//57 52//52 87//87
f 52//52 68//68 87//87
f 70//70 69//69 75//75
f 75//75 73//73 70//70
f 36//36 5//5 90//90
f 53//53 65//65 77//77
f 78//78 65//65 67//67
f 77//77 56//56 53//53
f 61//61 58//58 74//74
f 59//59 60//60 76//76
f 74//74 70//70 84//84
f 76//76 60//60 63//63
f 61//61 72//72 52//52
f 72//72 68//68 52//52
f 48//48 71//71 63//63
f 72//72 84//84 70//70
f 71//71 76//76 63//63
f 66//66 120//120 2//2
f 2//2 120//120 64//64
f 81//81 65//65 78//78
f 55//55 82//82 86//86
f 93//93 62//62 80//80
f 86//86 74//74 55//55
f 88//88 69//69 74//74
f 72//72 61//61 84//84
f 68//68 72//72 73//73
f 68//68 73//73 85//85
f 56//56 77//77 82//82
f 59//59 97//97 80//80
f 86//86 88//88 74//74
f 74//74 84//84 61//61
f 69//69 91//91 75//75
f 89//89 120//120 66//66
f 78//78 92//92 81//81
f 79//79 78//78 87//87
f 73//73 75//75 95//95
f 36//36 90//90 50//50
f 78//78 79//79 92//92
f 80//80 97//97 93//93
f 94//94 59//59 76//76
f 88//88 91//91 69//69
f 66//66 99//99 89//89
f 71//71 100//100 76//76
f 73//73 95//95 85//85
f 77//77 65//65 81//81
f 97//97 98//98 93//93
f 106//106 97//97 59//59
f 93//93 104//104 62//62
f 62//62 104//104 71//71
f 104//104 100//100 71//71
f 50//50 90//90 96//96
f 77//77 81//81 102//102
f 82//82 77//77 101//101
f 101//101 86//86 82//82
f 113//113 94//94 76//76
f 98//98 97//97 106//106
f 93//93 103//103 104//104
f 104//104 103//103 107//107
f 59//59 94//94 106//106
f 77//77 102//102 96//96
f 81//81 92//92 109//109
f 81//81 109//109 102//102
f 87//87 68//68 110//110
f 105//105 113//113 76//76
f 121//121 105//105 76//76
f 91//91 95//95 75//75
f 50//50 96//96 126//126
f 77//77 96//96 90//90
f 90//90 111//111 77//77
f 122//122 5//5 83//83
f 101//101 77//77 111//111
f 92//92 108//108 109//109
f 114//114 93//93 98//98
f 104//104 107//107 112//112
f 104//104 112//112 100//100
f 88//88 86//86 91//91
f 113//113 105//105 116//116
f 100//100 121//121 76//76
f 95//95 134//134 85//85
f 83//83 3//3 123//123
f 96//96 101//101 111//111
f 96//96 102//102 118//118
f 119//119 106//106 94//94
f 137//137 103//103 93//93
f 94//94 113//113 115//115
f 100//100 127//127 121//121
f 125//125 64//64 128//128
f 38//38 64//64 125//125
f 50//50 126//126 7//7
f 101//101 96//96 118//118
f 98//98 106//106 119//119
f 114//114 98//98 119//119
f 119//119 94//94 114//114
f 116//116 131//131 113//113
f 110//110 68//68 132//132
f 85//85 132//132 68//68
f 103//103 137//137 107//107
f 114//114 94//94 115//115
f 38//38 117//117 123//123
f 140//140 126//126 96//96
f 92//92 79//79 108//108
f 101//101 124//124 86//86
f 137//137 93//93 114//114
f 100//100 112//112 127//127
f 89//89 132//132 120//120
f 132//132 89//89 110//110
f 105//105 121//121 116//116
f 85//85 134//134 132//132
f 64//64 120//120 128//128
f 111//111 140//140 96//96
f 90//90 122//122 111//111
f 5//5 122//122 90//90
f 102//102 109//109 118//118
f 124//124 130//130 86//86
f 107//107 137//137 112//112
f 79//79 87//87 110//110
f 114//114 115//115 137//137
f 130//130 91//91 86//86
f 83//83 123//123 136//136
f 91//91 125//125 95//95
f 109//109 108//108 118//118
f 66//66 126//126 99//99
f 121//121 133//133 116//116
f 125//125 128//128 95//95
f 125//125 138//138 38//38
f 101//101 118//118 129//129
f 124//124 101//101 129//129
f 122//122 83//83 136//136
f 137//137 142//142 112//112
f 99//99 110//110 89//89
f 113//113 131//131 143//143
f 91//91 130//130 125//125
f 131//131 38//38 138//138
f 117//117 38//38 131//131
f 129//129 141//141 135//135
f 129//129 139//139 124//124
f 139//139 129//129 135//135
f 137//137 115//115 143//143
f 112//112 142//142 127//127
f 127//127 136//136 133//133
f 127//127 133//133 121//121
f 122//122 140//140 111//111
f 108//108 140//140 118//118
f 129//129 118//118 140//140
f 99//99 108//108 79//79
f 143//143 142//142 137//137
f 99//99 79//79 110//110
f 115//115 113//113 143//143
f 142//142 136//136 127//127
f 143//143 131//131 138//138
f 131//131 116//116 133//133
f 128//128 132//132 134//134
f 95//95 128//128 134//134
f 131//131 133//133 117//117
f 117//117 133//133 123//123
f 141//141 140//140 122//122
f 140//140 108//108 126//126
f 141//141 129//129 140//140
f 141//141 139//139 135//135
f 142//142 139//139 141//141
f 122//122 142//142 141//141
f 108//108 99//99 126//126
f 122//122 136//136 142//142
f 142//142 130//130 139//139
f 139//139 130//130 124//124
f 142//142 143//143 130//130
f 143//143 138//138 130//130
f 138//138 125//125 130//130
f 136//136 123//123 133//133
f 120//120 132//132 128//128
