# Blender 4.1.1
# www.blender.org
mtllib aa0100.mtl
o Liquid_Domain
v -8.363188 -9.096700 6.087545
v 8.458397 -9.070039 6.200771
v 8.420418 -9.076289 -6.205211
v -8.441460 -9.057841 -6.155718
v -5.521728 -4.177358 6.115657
v -8.404623 -4.320729 1.403459
v 0.707629 -7.827079 2.299577
v -3.746098 -7.139473 4.906116
v -1.044081 -7.223193 3.341015
v -8.368815 -3.867023 6.143891
v -6.467129 -6.481946 4.973584
v -7.598835 -6.509258 3.544592
v -2.181236 -7.628493 3.623895
v -5.548756 -6.314615 1.661745
v -1.585644 -6.140096 1.053059
v -7.145337 -7.324591 0.921680
v -7.242620 -7.256202 -2.183712
v -2.434093 -5.629701 3.377552
v 1.010979 -6.061769 2.865519
v -0.448649 -5.492290 2.391252
v -3.499218 -6.817373 1.830006
v -7.211868 -5.791537 0.224505
v 8.441779 -0.679453 -2.011786
v -2.610588 -5.633332 -0.317415
v -4.719276 -5.518636 -1.650514
v -7.336551 -5.309643 5.777515
v -0.756902 -5.680231 0.666107
v 6.459846 -5.347330 1.024160
v -5.209775 -3.621194 -3.274245
v -2.717261 -4.606239 4.861039
v -7.651936 -4.327779 3.373499
v 4.628633 -6.012782 -1.766293
v 7.115852 -4.290829 -1.564404
v 8.450504 0.778837 6.141547
v -7.412146 -4.302486 -3.487920
v 5.906599 -3.686452 -2.238672
v -5.882717 -3.462979 5.560863
v -1.837251 -1.844906 1.382099
v -2.088678 -3.387846 -0.686639
v -7.239018 -2.671503 5.969512
v 5.575679 -2.180761 6.042192
v 4.660815 -3.334968 2.473337
v 5.230371 -3.886907 0.500960
v 6.796157 -2.968450 0.594040
v -6.672094 -3.122124 -4.816607
v -2.812422 -1.414750 4.706398
v 3.112357 -4.455179 2.511075
v -1.391873 -3.191159 1.340608
v -7.053926 -1.593444 -0.420009
v 3.534112 -1.759491 -0.179923
v 3.288107 -2.939431 5.332724
v -7.736418 -0.919068 3.424080
v 2.211771 -2.706900 0.375626
v -6.412196 -2.477227 -2.210315
v -6.999547 -2.403089 -3.185674
v -2.478264 -2.243922 -3.600908
v -4.652274 -1.099351 5.451728
v 2.368207 -2.062800 4.473008
v 4.555644 -1.702053 5.733570
v 5.794997 -1.261596 6.084723
v 5.233067 -1.895432 3.936596
v 7.141429 -1.682859 -4.274851
v 7.002174 -1.250138 2.412653
v 5.574909 -1.306119 -0.616073
v -8.453276 4.677923 -2.643896
v -3.095783 6.883063 -6.118522
v -4.847855 -0.053800 6.131521
v 5.581037 1.079439 6.087620
v 6.250993 -0.377824 5.039821
v -7.149247 0.081156 1.162063
v 3.021613 0.211952 -2.635921
v -5.691455 -0.668272 -4.388227
v -7.073172 -0.684457 5.436568
v 2.643805 0.354432 4.576159
v 5.676239 0.312051 -1.317482
v -0.690487 0.220329 -2.490019
v 8.443346 7.027968 -6.172752
v 5.006987 0.172484 5.485774
v -1.384632 1.632673 1.061204
v 2.736588 1.097485 -0.742020
v 4.642594 1.559386 -6.189847
v 7.428247 1.012722 -0.750713
v -5.671200 0.154899 -0.804220
v -7.509717 0.620132 -1.590067
v -2.304259 0.725538 6.219750
v -3.338510 0.988847 5.671763
v -6.752629 0.556582 3.879009
v -2.087590 1.446361 2.419183
v 6.425498 0.344558 5.859861
v -1.014259 1.812405 -1.359337
v -2.194884 0.512803 -3.509624
v 3.518749 1.169269 -5.033574
v -4.856201 1.431210 -4.908009
v 6.607467 0.962624 -4.892695
v -8.406636 7.081228 6.085820
v -5.525664 1.150913 5.118925
v 3.915237 1.388851 5.347999
v 7.516924 3.090735 4.184505
v -1.252062 2.742006 2.787018
v -7.087380 2.973180 1.814065
v 3.404435 1.399859 -1.869482
v 6.772774 1.678634 5.603781
v -3.303882 2.145891 4.331589
v -2.874802 2.684613 -3.126769
v -6.854031 3.301885 3.756685
v 6.558224 3.249138 1.287855
v -1.114040 2.548206 0.265650
v 1.941511 3.518174 2.366186
v 7.418413 4.989874 -2.394957
v -5.045798 4.013889 4.479111
v 2.793117 3.330490 4.541649
v 7.279514 2.451255 -1.660406
v 3.613568 3.277391 -1.816671
v 3.940847 3.160739 -4.928151
v -6.628118 4.319009 -1.446057
v -6.671589 5.207478 -4.231995
v 6.153515 6.684128 -5.100118
v 1.452114 6.987748 6.162319
v -2.825036 4.048467 3.796228
v 3.805571 4.999539 -3.770488
v -4.463908 3.935062 -4.307749
v -1.366021 4.472807 -6.199228
v 6.260099 5.020588 5.289616
v 7.039007 4.565721 1.414717
v 6.254004 5.085390 -4.668249
v 3.490747 6.734721 -5.569550
v -3.153865 4.232598 2.010266
v 0.563111 5.799912 3.466373
v -0.771234 5.360571 -0.507371
v 4.765975 5.384792 -1.216508
v -0.651780 4.393255 -2.913250
v -7.528458 5.360006 -2.611586
v -2.874486 4.909580 -5.305525
v -8.342640 6.785949 -1.738087
v 2.768188 5.916244 2.349983
v -8.385934 7.146360 -6.128406
v 8.418638 6.952462 6.179934
v 2.795105 6.893843 5.442406
v -0.756163 5.299839 -5.346286
v 2.831197 6.929214 -6.126451
v -5.139540 6.989479 6.146023
v -4.647082 6.482463 4.589954
v -7.481724 6.796120 0.688085
v 4.997050 6.835006 -1.543554
v -3.367015 6.750063 2.192357
v -6.617666 6.584138 -1.388649
v 0.067239 6.739211 -2.465275
v 4.674345 6.523754 -3.731575
v 6.197052 6.616214 -1.636377
v 0.288015 6.944075 -5.142799
v 6.686803 6.421850 4.953394
v -6.766291 6.551546 4.573630
v 7.116586 6.919375 -0.143859
v 1.788712 6.982440 0.978688
v -7.048556 6.950597 -4.847926
v -0.132586 6.853235 4.021449
v 0.127563 7.064455 -0.379008
v 3.234165 7.038861 -3.831994
vn -0.5030 -0.5283 0.6841
vn 0.5018 -0.5187 0.6921
vn 0.5007 -0.5239 -0.6891
vn -0.5053 -0.5238 -0.6858
vn -0.1653 0.0562 0.9846
vn -1.0000 -0.0009 0.0065
vn -0.5288 0.8374 0.1385
vn -0.1883 0.5644 -0.8037
vn 0.4284 0.3070 -0.8498
vn -0.5053 -0.0007 0.8629
vn 0.1635 0.7198 -0.6746
vn 0.7365 0.6697 -0.0948
vn -0.7150 0.6859 -0.1355
vn -0.0411 0.9695 0.2417
vn 0.2578 0.9190 0.2984
vn 0.2221 0.8098 0.5430
vn 0.2862 0.8872 0.3619
vn -0.7217 0.5934 -0.3564
vn -0.7295 -0.3866 -0.5642
vn -0.4849 -0.5686 -0.6645
vn -0.2871 0.9055 0.3125
vn -0.5973 0.7820 0.1780
vn 1.0000 -0.0000 -0.0012
vn -0.5002 0.5816 0.6415
vn -0.4685 0.7120 0.5230
vn 0.4451 0.4185 -0.7917
vn -0.5720 0.1268 0.8104
vn -0.1940 0.4930 -0.8481
vn -0.3820 0.6667 0.6399
vn -0.5599 0.0856 -0.8241
vn 0.9996 0.0018 -0.0289
vn 0.5028 0.6378 0.5835
vn -0.7887 0.4925 0.3679
vn 0.5477 -0.0038 0.8367
vn 0.6190 0.2996 0.7260
vn 0.4800 0.4960 0.7236
vn -0.4421 -0.1322 -0.8872
vn -0.9889 -0.0875 -0.1200
vn -0.8660 0.3410 0.3658
vn 0.7714 -0.6270 0.1093
vn -0.0018 0.0162 0.9999
vn -0.5217 0.8429 -0.1315
vn 0.7316 0.5041 -0.4589
vn -0.7972 0.2949 -0.5268
vn 0.2979 0.2190 0.9291
vn -0.7035 0.0896 -0.7050
vn 0.1845 0.9813 0.0548
vn -0.9108 -0.2612 0.3197
vn 0.9655 -0.2243 0.1325
vn 0.1625 0.4134 0.8959
vn 0.2085 0.5576 -0.8035
vn 0.9670 -0.2493 -0.0520
vn 0.5733 0.5092 0.6419
vn 0.8716 -0.4280 0.2390
vn 0.8766 -0.4391 -0.1970
vn -0.5107 0.4040 0.7589
vn -0.0837 0.0120 -0.9964
vn 0.9004 0.1379 -0.4126
vn 0.3336 -0.0710 -0.9401
vn -0.4251 0.2187 0.8783
vn -0.6361 0.7038 -0.3163
vn -0.4118 0.4369 0.7997
vn -0.8932 0.3125 -0.3232
vn 0.7827 0.3609 0.5070
vn -0.9664 0.2534 -0.0442
vn 0.5057 0.7822 -0.3640
vn -0.0176 -0.0052 0.9998
vn 0.2437 -0.2339 0.9412
vn -0.8811 0.3728 -0.2910
vn 0.9940 -0.0541 0.0951
vn 0.9377 0.3108 -0.1554
vn 0.3214 0.0131 0.9468
vn 0.3901 -0.4618 -0.7966
vn 0.7875 -0.0296 -0.6157
vn 0.9292 0.3509 -0.1162
vn -0.9194 -0.0800 0.3851
vn 0.4818 0.5618 -0.6725
vn 0.1524 0.0657 -0.9861
vn -0.9570 0.2156 -0.1942
vn 0.7996 0.1866 0.5708
vn 0.0015 0.0048 -1.0000
vn -0.9986 -0.0173 -0.0495
vn 0.9034 0.2427 -0.3536
vn 0.9837 0.1667 0.0672
vn -0.0084 -0.0007 1.0000
vn -0.2581 -0.2445 -0.9347
vn 0.8417 -0.2848 -0.4587
vn -0.9263 0.3472 -0.1464
vn -0.2852 0.5299 0.7986
vn -0.9852 0.0708 0.1560
vn -0.5168 -0.1303 0.8462
vn 0.5438 0.1756 0.8207
vn -0.0868 0.0393 0.9954
vn -0.4994 0.0585 0.8644
vn -0.4880 0.5885 0.6446
vn 0.3889 -0.1472 -0.9095
vn 0.3153 -0.0048 -0.9490
vn -0.9922 -0.1243 -0.0064
vn -0.9313 -0.2321 -0.2807
vn 0.9974 0.0103 -0.0708
vn 0.9624 0.2712 0.0148
vn -0.5930 -0.2037 -0.7790
vn -0.2823 -0.4634 -0.8400
vn -0.6794 -0.3123 0.6640
vn 0.8220 -0.0046 -0.5694
vn -0.9293 0.1452 -0.3396
vn -0.9651 -0.0195 -0.2612
vn 0.9736 0.0711 0.2168
vn -0.9313 -0.2884 0.2224
vn -0.0994 -0.1100 -0.9889
vn 0.5865 0.1135 -0.8020
vn -0.9973 0.0086 0.0733
vn 0.9457 -0.2612 0.1934
vn 0.5474 -0.0110 0.8368
vn 0.9996 -0.0161 -0.0218
vn 0.6246 0.2844 0.7274
vn -0.3496 0.7910 0.5022
vn 0.0118 0.6304 0.7761
vn -0.4438 -0.6599 -0.6062
vn 0.9686 -0.0884 -0.2325
vn -0.1737 0.2383 0.9555
vn -0.0126 0.3136 -0.9495
vn -0.4262 -0.0769 -0.9013
vn -0.9675 0.1386 -0.2115
vn -0.9831 -0.1372 0.1212
vn 0.1870 0.8677 0.4605
vn -0.7871 -0.4214 -0.4505
vn 0.8156 0.4919 0.3047
vn -0.8693 0.2209 -0.4421
vn 0.9103 -0.2392 0.3379
vn -0.7839 0.5392 0.3078
vn 0.2630 0.9147 -0.3068
vn 0.1621 0.7381 0.6550
vn -0.5013 0.7167 -0.4847
vn 0.6584 0.3305 0.6762
vn -0.5189 0.6042 -0.6047
vn 0.4790 0.5679 0.6694
vn 0.1367 0.7527 -0.6440
vn -0.4962 0.8333 -0.2437
vn -0.0423 0.6770 -0.7347
vn -0.0394 0.6623 0.7482
vn -0.5817 0.4263 -0.6928
vn 0.6455 0.7631 0.0306
vn 0.7771 0.5745 0.2572
vn -0.6629 0.5617 -0.4951
vn 0.7558 0.6020 -0.2577
vn -0.9199 0.3855 -0.0722
vn 0.6379 0.2497 -0.7285
vn -0.8906 0.2589 0.3740
vn -0.4838 0.7631 -0.4286
vn -0.4722 0.7202 -0.5083
vn 0.3836 0.7833 -0.4892
vn -0.7072 0.7066 0.0262
vn 0.2858 0.9311 0.2265
vn 0.0696 0.8123 0.5790
vn 0.3214 0.9401 -0.1134
vn -0.3666 0.9111 -0.1886
vn 0.3316 0.9047 -0.2676
s 1
usemtl Liquid_Domain_Material
f 2//2 1//1 3//3
f 1//1 4//4 3//3
f 2//2 5//5 1//1
f 2//2 85//85 5//5
f 1//1 6//6 4//4
f 2//2 3//3 23//23
f 3//3 4//4 122//122
f 1//1 10//10 6//6
f 7//7 15//15 9//9
f 1//1 5//5 10//10
f 11//11 13//13 12//12
f 8//8 13//13 11//11
f 13//13 14//14 12//12
f 14//14 13//13 21//21
f 7//7 27//27 15//15
f 8//8 18//18 13//13
f 7//7 9//9 19//19
f 16//16 12//12 14//14
f 7//7 19//19 27//27
f 22//22 12//12 16//16
f 14//14 22//22 16//16
f 11//11 12//12 26//26
f 20//20 19//19 9//9
f 13//13 18//18 21//21
f 20//20 9//9 15//15
f 14//14 21//21 25//25
f 17//17 22//22 25//25
f 5//5 26//26 10//10
f 18//18 24//24 21//21
f 19//19 20//20 27//27
f 25//25 22//22 14//14
f 15//15 27//27 24//24
f 25//25 21//21 24//24
f 25//25 29//29 17//17
f 11//11 30//30 8//8
f 30//30 18//18 8//8
f 26//26 12//12 31//31
f 15//15 18//18 20//20
f 15//15 24//24 18//18
f 12//12 22//22 17//17
f 32//32 28//28 33//33
f 29//29 35//35 17//17
f 18//18 30//30 20//20
f 12//12 17//17 35//35
f 28//28 32//32 43//43
f 37//37 26//26 5//5
f 30//30 11//11 26//26
f 38//38 20//20 30//30
f 31//31 12//12 35//35
f 43//43 32//32 36//36
f 32//32 33//33 36//36
f 26//26 37//37 30//30
f 2//2 23//23 34//34
f 20//20 48//48 27//27
f 27//27 48//48 24//24
f 44//44 33//33 28//28
f 39//39 25//25 24//24
f 2//2 34//34 41//41
f 48//48 20//20 38//38
f 43//43 44//44 28//28
f 25//25 39//39 29//29
f 29//29 45//45 35//35
f 10//10 26//26 40//40
f 30//30 37//37 46//46
f 26//26 31//31 40//40
f 30//30 46//46 38//38
f 51//51 42//42 47//47
f 52//52 31//31 49//49
f 42//42 50//50 47//47
f 50//50 53//53 47//47
f 31//31 35//35 49//49
f 24//24 48//48 39//39
f 64//64 43//43 36//36
f 37//37 5//5 40//40
f 58//58 51//51 47//47
f 50//50 42//42 43//43
f 29//29 39//39 56//56
f 54//54 35//35 55//55
f 29//29 56//56 45//45
f 35//35 45//45 55//55
f 4//4 136//136 122//122
f 46//46 37//37 57//57
f 59//59 60//60 51//51
f 51//51 60//60 61//61
f 31//31 52//52 40//40
f 53//53 58//58 47//47
f 64//64 50//50 43//43
f 49//49 35//35 54//54
f 36//36 33//33 62//62
f 5//5 85//85 67//67
f 51//51 58//58 74//74
f 42//42 51//51 61//61
f 42//42 61//61 63//63
f 42//42 63//63 43//43
f 44//44 43//43 63//63
f 6//6 65//65 4//4
f 60//60 59//59 41//41
f 51//51 74//74 59//59
f 48//48 38//38 39//39
f 71//71 64//64 36//36
f 122//122 136//136 66//66
f 5//5 67//67 40//40
f 58//58 53//53 74//74
f 52//52 49//49 70//70
f 56//56 39//39 76//76
f 72//72 55//55 45//45
f 36//36 62//62 71//71
f 40//40 67//67 10//10
f 59//59 68//68 41//41
f 34//34 60//60 41//41
f 37//37 40//40 73//73
f 73//73 40//40 52//52
f 60//60 69//69 61//61
f 50//50 64//64 80//80
f 44//44 82//82 33//33
f 33//33 82//82 62//62
f 54//54 55//55 72//72
f 56//56 72//72 45//45
f 23//23 3//3 77//77
f 41//41 85//85 2//2
f 41//41 68//68 85//85
f 59//59 69//69 68//68
f 69//69 60//60 68//68
f 37//37 73//73 57//57
f 69//69 59//59 78//78
f 46//46 57//57 86//86
f 78//78 59//59 74//74
f 63//63 82//82 44//44
f 53//53 50//50 80//80
f 54//54 72//72 49//49
f 52//52 70//70 87//87
f 49//49 83//83 70//70
f 64//64 71//71 75//75
f 56//56 76//76 91//91
f 82//82 94//94 62//62
f 91//91 72//72 56//56
f 74//74 97//97 78//78
f 87//87 57//57 73//73
f 69//69 63//63 61//61
f 88//88 38//38 46//46
f 88//88 79//79 38//38
f 64//64 75//75 80//80
f 49//49 84//84 83//83
f 81//81 3//3 122//122
f 81//81 77//77 3//3
f 89//89 68//68 60//60
f 60//60 34//34 89//89
f 89//89 69//69 78//78
f 87//87 73//73 52//52
f 46//46 99//99 88//88
f 53//53 80//80 74//74
f 38//38 79//79 39//39
f 79//79 90//90 39//39
f 76//76 39//39 90//90
f 71//71 101//101 75//75
f 71//71 62//62 92//92
f 89//89 78//78 68//68
f 86//86 57//57 96//96
f 87//87 96//96 57//57
f 83//83 84//84 70//70
f 84//84 49//49 72//72
f 82//82 112//112 94//94
f 91//91 93//93 72//72
f 62//62 94//94 92//92
f 89//89 34//34 102//102
f 102//102 69//69 89//89
f 98//98 69//69 102//102
f 86//86 99//99 46//46
f 87//87 70//70 100//100
f 63//63 106//106 82//82
f 75//75 101//101 80//80
f 90//90 91//91 76//76
f 72//72 93//93 116//116
f 78//78 102//102 68//68
f 103//103 86//86 96//96
f 101//101 71//71 114//114
f 71//71 92//92 114//114
f 72//72 116//116 84//84
f 102//102 34//34 68//68
f 102//102 78//78 97//97
f 105//105 87//87 100//100
f 69//69 106//106 63//63
f 79//79 107//107 90//90
f 104//104 91//91 90//90
f 112//112 109//109 94//94
f 96//96 110//110 103//103
f 86//86 103//103 99//99
f 87//87 105//105 96//96
f 97//97 74//74 111//111
f 88//88 99//99 79//79
f 108//108 74//74 80//80
f 100//100 70//70 84//84
f 80//80 101//101 113//113
f 92//92 94//94 114//114
f 85//85 68//68 118//118
f 96//96 105//105 110//110
f 74//74 108//108 111//111
f 98//98 106//106 69//69
f 79//79 99//99 107//107
f 91//91 104//104 93//93
f 34//34 137//137 68//68
f 102//102 97//97 123//123
f 102//102 123//123 98//98
f 95//95 6//6 10//10
f 124//124 82//82 106//106
f 82//82 124//124 112//112
f 113//113 101//101 114//114
f 115//115 84//84 116//116
f 10//10 67//67 141//141
f 103//103 110//110 119//119
f 99//99 103//103 119//119
f 99//99 127//127 107//107
f 100//100 84//84 115//115
f 80//80 113//113 108//108
f 107//107 129//129 90//90
f 121//121 104//104 90//90
f 113//113 114//114 120//120
f 121//121 93//93 104//104
f 93//93 121//121 116//116
f 81//81 140//140 77//77
f 90//90 131//131 121//121
f 94//94 109//109 125//125
f 94//94 125//125 117//117
f 94//94 117//117 114//114
f 97//97 111//111 123//123
f 127//127 99//99 119//119
f 107//107 127//127 129//129
f 115//115 116//116 132//132
f 81//81 122//122 140//140
f 10//10 141//141 95//95
f 106//106 98//98 123//123
f 111//111 108//108 128//128
f 135//135 108//108 113//113
f 90//90 129//129 131//131
f 130//130 113//113 120//120
f 131//131 133//133 121//121
f 114//114 117//117 126//126
f 65//65 136//136 4//4
f 111//111 128//128 156//156
f 110//110 127//127 119//119
f 128//128 108//108 135//135
f 6//6 134//134 65//65
f 143//143 100//100 115//115
f 130//130 135//135 113//113
f 130//130 120//120 148//148
f 133//133 116//116 121//121
f 67//67 85//85 141//141
f 118//118 141//141 85//85
f 137//137 118//118 68//68
f 123//123 151//151 106//106
f 6//6 95//95 134//134
f 143//143 115//115 146//146
f 137//137 23//23 77//77
f 133//133 131//131 139//139
f 122//122 139//139 140//140
f 111//111 156//156 138//138
f 110//110 105//105 152//152
f 110//110 152//152 142//142
f 34//34 23//23 137//137
f 110//110 142//142 127//127
f 151//151 124//124 106//106
f 124//124 153//153 112//112
f 112//112 153//153 109//109
f 149//149 125//125 109//109
f 66//66 116//116 133//133
f 120//120 114//114 126//126
f 139//139 122//122 133//133
f 111//111 138//138 123//123
f 127//127 142//142 145//145
f 105//105 100//100 152//152
f 100//100 143//143 152//152
f 151//151 153//153 124//124
f 129//129 127//127 145//145
f 146//146 115//115 132//132
f 65//65 134//134 132//132
f 147//147 131//131 129//129
f 130//130 148//148 144//144
f 132//132 136//136 65//65
f 66//66 133//133 122//122
f 123//123 138//138 151//151
f 135//135 130//130 154//154
f 147//147 150//150 131//131
f 116//116 155//155 132//132
f 131//131 150//150 139//139
f 148//148 120//120 158//158
f 158//158 120//120 126//126
f 140//140 139//139 150//150
f 118//118 138//138 156//156
f 128//128 154//154 156//156
f 154//154 128//128 135//135
f 129//129 145//145 157//157
f 130//130 144//144 154//154
f 157//157 147//147 129//129
f 149//149 109//109 153//153
f 132//132 134//134 146//146
f 149//149 117//117 125//125
f 136//136 132//132 155//155
f 116//116 66//66 155//155
f 138//138 118//118 137//137
f 118//118 156//156 141//141
f 151//151 138//138 137//137
f 141//141 152//152 95//95
f 142//142 152//152 141//141
f 156//156 157//157 141//141
f 142//142 141//141 145//145
f 137//137 153//153 151//151
f 157//157 145//145 141//141
f 137//137 77//77 153//153
f 152//152 143//143 95//95
f 156//156 154//154 157//157
f 143//143 134//134 95//95
f 154//154 158//158 157//157
f 146//146 134//134 143//143
f 144//144 158//158 154//154
f 149//149 153//153 77//77
f 144//144 148//148 158//158
f 77//77 117//117 149//149
f 157//157 150//150 147//147
f 158//158 150//150 157//157
f 158//158 126//126 150//150
f 126//126 140//140 150//150
f 66//66 136//136 155//155
f 126//126 117//117 140//140
f 77//77 140//140 117//117
