# Blender 4.1.1
# www.blender.org
mtllib aa0204.mtl
o Liquid_Domain
v -8.134167 -8.755833 6.217273
v -8.475990 -9.098954 5.870600
v 8.458363 -9.091796 6.210986
v -8.478765 -9.103348 -5.868058
v 8.451537 -9.093225 -6.209404
v -8.134167 -8.755833 -6.217273
v 8.464398 -1.368876 -0.250333
v 5.766298 0.251060 -6.173373
v -8.471807 7.066703 5.829819
v -8.464900 0.070317 -1.497109
v 6.605772 -2.897742 -0.720303
v 7.691591 -0.398419 -0.437030
v 8.445236 0.170098 -6.121069
v -8.096478 6.950512 6.178677
v 5.350642 6.695513 6.170101
v 8.405844 6.827013 6.148841
v 6.351756 -0.980348 -0.420629
v 6.922177 -1.279775 -3.606140
v 5.294779 0.860073 -2.584285
v -4.739470 -1.205514 -2.907976
v 6.322865 -1.397942 -4.808051
v -5.480711 -1.468712 -0.579716
v -3.801448 -0.092318 1.278076
v -2.801894 -0.965592 -1.228990
v 7.618278 1.148043 -1.791443
v -6.737756 -0.998235 -3.294529
v -2.801476 0.402918 -3.160202
v 5.164573 -0.358018 -4.004367
v 4.153293 0.035395 -4.215824
v 6.199355 -0.510745 2.321282
v 7.118182 -0.249086 1.271692
v 6.563557 0.866570 0.619989
v 4.946292 -0.162579 -4.446690
v -8.419851 5.371181 -5.544528
v -1.310855 2.185443 -6.156453
v 2.021967 1.103561 -6.211970
v -6.936253 0.564449 1.298429
v 6.161247 0.818362 -5.195498
v -6.215910 0.665236 -4.072601
v 7.085978 1.281588 -5.593204
v 7.274531 1.248160 4.161446
v -2.173342 0.896595 2.372298
v -1.664732 1.007718 -1.227056
v 7.570563 2.133854 -4.470181
v 5.305210 1.098839 -5.183138
v 8.410004 1.939434 -5.025852
v 5.702557 2.795498 -6.085777
v -6.286403 1.324617 2.452948
v 7.718013 3.440438 2.566054
v -6.549368 1.410578 -0.847644
v 2.789942 0.757784 -4.794711
v -2.550924 1.186126 -4.688996
v 2.453835 2.093373 -5.688356
v 6.071339 0.538697 4.262904
v 5.557220 1.804035 3.118661
v -7.071797 2.934731 0.091761
v 5.200809 1.826260 -1.124234
v 0.178933 2.294326 -1.733261
v -7.075626 0.648454 -3.350231
v -5.730041 2.635666 -5.286963
v 4.090127 1.790111 4.651392
v -1.790842 2.023347 3.501692
v 8.397584 6.972057 4.044388
v -0.026999 2.588034 0.359870
v 3.671382 1.573403 -1.165732
v -0.071959 2.234697 -3.803419
v -1.982725 2.600667 -4.662605
v 5.533873 2.714045 -5.461141
v 7.021108 3.176364 4.910096
v -0.669091 2.725265 2.595464
v 4.301904 2.389918 1.984761
v 6.658507 2.958910 -2.763038
v -8.394829 5.570937 -3.346470
v -7.198557 3.173677 -3.087246
v -8.112104 4.462526 -4.392671
v 1.852228 4.087335 -5.996477
v 3.651718 3.133877 4.304111
v -6.721679 4.129786 2.733682
v 3.105073 3.073947 -1.974967
v -6.662213 4.552479 -5.438659
v 5.231660 5.045046 5.234294
v -2.866276 3.330768 2.673252
v 1.021459 4.407942 -5.093715
v -0.324650 2.902961 -5.337504
v -7.813095 6.497302 -6.096374
v -0.212943 4.130368 0.405642
v 1.313960 4.614780 -1.493706
v 7.781327 3.905909 -3.263023
v 2.943700 5.815309 -5.240960
v -4.497395 5.012809 2.326817
v -0.341152 3.853595 2.383674
v -8.391530 5.777607 0.278541
v 7.057182 6.723702 0.640171
v 3.171472 4.832439 0.032322
v -7.382643 5.688670 0.171470
v 7.812948 5.029974 -1.870816
v -2.315632 4.064944 -5.527448
v -6.300169 5.707106 3.533788
v -2.214892 5.545980 2.772686
v 8.364564 6.965782 -0.061249
v 2.683531 6.672438 -3.347696
v -7.526202 5.552336 -2.924633
v 4.201648 6.601752 5.005101
v 3.171818 5.042196 2.988852
v -3.795154 5.544353 -6.071814
v 7.178034 6.711835 5.151904
v -5.692680 6.040544 -5.506205
v 7.673609 6.800474 2.139940
v -0.794101 6.925484 3.542973
v 1.712063 6.779850 -5.100591
v -7.959580 6.543583 -5.111519
v -3.852382 7.016913 3.088299
v 2.276706 6.957092 1.611941
v 1.641279 6.980872 -0.608956
v 3.033258 6.794354 -0.994609
v -6.672167 6.748115 4.769646
v 3.155019 6.414915 3.619253
v 3.205189 7.090829 5.753280
v -7.592394 6.993253 2.737547
v 4.586238 6.868992 0.836717
vn -0.2866 -0.2794 0.9164
vn -0.6248 -0.6498 0.4329
vn 0.5026 -0.5226 0.6887
vn -0.6257 -0.6465 -0.4365
vn 0.5028 -0.5228 -0.6884
vn -0.2927 -0.2734 -0.9163
vn 1.0000 0.0036 0.0001
vn 0.0706 0.0733 -0.9948
vn -0.6061 0.7102 0.3582
vn -1.0000 0.0083 -0.0053
vn 0.0519 0.9351 -0.3506
vn -0.9823 0.1033 -0.1565
vn 0.5492 0.2080 -0.8094
vn -0.2570 0.5155 0.8175
vn -0.0077 0.3303 0.9438
vn 0.5036 0.5317 0.6810
vn 0.9050 0.1580 -0.3950
vn -0.5061 0.7999 0.3224
vn 0.9823 0.1510 -0.1112
vn -0.1995 0.7889 0.5813
vn -0.0466 0.7890 0.6126
vn 0.2110 0.9346 -0.2865
vn -0.0521 0.7127 -0.6995
vn -0.5769 0.8162 0.0316
vn -0.9948 0.0006 0.1017
vn 0.4995 0.6525 0.5699
vn -0.5210 0.7067 0.4787
vn 0.8643 0.3127 -0.3939
vn 0.0805 0.9170 -0.3908
vn 0.3522 0.9347 -0.0477
vn -0.4121 0.9061 -0.0955
vn 0.8642 0.4934 -0.0990
vn 0.1485 0.1949 0.9695
vn -0.9234 0.3080 0.2289
vn 0.0506 0.2043 -0.9776
vn 0.0346 0.0955 -0.9948
vn 0.7611 0.4921 -0.4226
vn 0.3960 0.2779 0.8752
vn 0.3464 0.3931 0.8518
vn 0.0359 0.8559 -0.5159
vn -0.7019 0.3873 -0.5978
vn -0.3611 0.7728 -0.5219
vn -0.7272 0.6844 0.0529
vn -0.7491 0.4835 -0.4529
vn -0.0093 0.5776 0.8162
vn 0.5590 0.5783 -0.5942
vn 0.2780 0.6979 -0.6600
vn 0.2082 0.3605 -0.9092
vn -0.9976 0.0309 -0.0620
vn 0.9939 0.0225 -0.1075
vn 0.6671 0.6518 0.3607
vn -0.2723 0.5387 0.7973
vn 0.6773 0.4836 -0.5544
vn 0.1330 0.7565 -0.6404
vn 0.6510 0.7306 0.2059
vn 0.9890 0.1334 -0.0637
vn 0.3754 0.8950 -0.2409
vn -0.7475 0.6642 -0.0033
vn 0.8888 0.0926 0.4489
vn 0.2067 0.3032 0.9302
vn 0.5566 0.5366 -0.6343
vn -0.0665 0.1811 -0.9812
vn 0.6024 0.7981 0.0056
vn -0.8663 0.4102 -0.2852
vn 0.5032 0.8088 -0.3043
vn -0.6130 0.7477 0.2555
vn -0.1299 0.4103 0.9026
vn 0.1426 0.6860 0.7135
vn -0.4941 0.1527 -0.8559
vn -0.8098 0.3138 -0.4958
vn 0.6729 0.7367 -0.0666
vn -0.9961 0.0885 0.0068
vn -0.5073 0.7082 -0.4910
vn 0.9731 0.1958 0.1211
vn -0.3090 0.8499 0.4268
vn 0.0431 0.2531 -0.9665
vn 0.8789 0.1494 -0.4530
vn 0.8437 0.1813 -0.5053
vn 0.9749 0.1349 -0.1772
vn 0.2016 0.2912 0.9352
vn 0.1316 0.0565 -0.9897
vn 0.2856 0.0007 -0.9583
vn -0.8300 0.4488 -0.3313
vn -0.3127 0.9498 0.0130
vn -0.3094 0.6078 -0.7314
vn -0.9180 0.2173 -0.3317
vn -0.9325 0.3025 -0.1975
vn -0.1041 0.7342 -0.6709
vn 0.6948 0.3451 -0.6310
vn -0.1303 0.2447 -0.9608
vn -0.6478 0.2547 -0.7180
vn -0.6971 0.6894 -0.1972
vn -0.7996 0.5969 -0.0657
vn 0.9873 -0.0664 -0.1446
vn 0.6926 0.6895 -0.2117
vn -0.6074 0.5753 -0.5478
vn 0.4939 0.7471 0.4448
vn 0.1303 0.5186 -0.8450
vn 0.1004 0.2486 -0.9634
vn 0.4397 0.7939 -0.4199
vn 0.7037 0.7079 -0.0609
vn 0.6451 0.7111 -0.2796
vn 0.3045 0.5957 -0.7433
vn 0.9768 0.1448 -0.1577
vn 0.4304 0.7256 -0.5368
vn -0.3089 0.8158 -0.4889
vn 0.1831 0.6259 0.7581
vn -0.7224 0.6863 0.0843
vn -0.0501 0.8221 -0.5671
vn -0.2905 0.7617 -0.5792
vn -0.2971 0.4630 0.8351
vn -0.0893 0.7294 -0.6782
vn -0.2339 0.9716 -0.0369
vn -0.5087 0.8535 -0.1128
vn 0.6804 0.6772 -0.2801
vn -0.0790 0.9268 -0.3672
vn 0.8312 0.4780 -0.2840
vn 0.0718 0.9687 0.2376
vn 0.1842 0.9152 -0.3586
vn 0.9126 0.4090 -0.0033
s 1
usemtl Liquid_Domain_Material
f 2//2 3//3 1//1
f 3//3 2//2 5//5
f 5//5 2//2 4//4
f 5//5 4//4 6//6
f 3//3 5//5 7//7
f 5//5 8//8 13//13
f 2//2 1//1 9//9
f 2//2 10//10 4//4
f 5//5 36//36 8//8
f 7//7 5//5 13//13
f 18//18 11//11 12//12
f 1//1 14//14 9//9
f 5//5 6//6 36//36
f 17//17 11//11 19//19
f 24//24 20//20 22//22
f 20//20 26//26 22//22
f 18//18 28//28 11//11
f 28//28 18//18 21//21
f 24//24 22//22 23//23
f 12//12 25//25 18//18
f 11//11 28//28 19//19
f 29//29 28//28 21//21
f 11//11 17//17 31//31
f 12//12 11//11 31//31
f 37//37 22//22 26//26
f 24//24 27//27 20//20
f 21//21 33//33 29//29
f 31//31 17//17 32//32
f 23//23 42//42 24//24
f 32//32 17//17 19//19
f 21//21 38//38 33//33
f 10//10 34//34 4//4
f 4//4 34//34 6//6
f 6//6 35//35 36//36
f 30//30 54//54 41//41
f 30//30 41//41 31//31
f 37//37 48//48 22//22
f 48//48 23//23 22//22
f 32//32 30//30 31//31
f 37//37 26//26 59//59
f 24//24 43//43 27//27
f 20//20 39//39 26//26
f 27//27 39//39 20//20
f 33//33 38//38 28//28
f 51//51 29//29 33//33
f 21//21 18//18 40//40
f 40//40 38//38 21//21
f 3//3 7//7 16//16
f 42//42 43//43 24//24
f 37//37 59//59 50//50
f 51//51 65//65 29//29
f 25//25 44//44 18//18
f 19//19 28//28 38//38
f 26//26 39//39 59//59
f 33//33 28//28 45//45
f 45//45 28//28 29//29
f 18//18 44//44 40//40
f 33//33 45//45 51//51
f 8//8 40//40 13//13
f 3//3 15//15 1//1
f 23//23 62//62 42//42
f 54//54 30//30 55//55
f 55//55 30//30 32//32
f 45//45 65//65 57//57
f 29//29 65//65 45//45
f 19//19 38//38 45//45
f 52//52 27//27 43//43
f 39//39 27//27 52//52
f 40//40 46//46 13//13
f 8//8 36//36 47//47
f 8//8 47//47 40//40
f 15//15 3//3 16//16
f 54//54 69//69 41//41
f 54//54 55//55 61//61
f 9//9 10//10 2//2
f 31//31 25//25 12//12
f 57//57 32//32 19//19
f 19//19 45//45 57//57
f 52//52 43//43 58//58
f 52//52 60//60 39//39
f 41//41 49//49 31//31
f 62//62 23//23 82//82
f 16//16 7//7 63//63
f 43//43 42//42 64//64
f 55//55 32//32 57//57
f 37//37 50//50 56//56
f 71//71 57//57 65//65
f 66//66 52//52 58//58
f 65//65 51//51 79//79
f 79//79 51//51 53//53
f 51//51 45//45 53//53
f 38//38 68//68 45//45
f 54//54 61//61 69//69
f 61//61 55//55 71//71
f 62//62 70//70 42//42
f 23//23 48//48 90//90
f 23//23 90//90 82//82
f 55//55 57//57 71//71
f 42//42 70//70 64//64
f 31//31 49//49 25//25
f 58//58 43//43 64//64
f 7//7 13//13 63//63
f 56//56 50//50 59//59
f 13//13 46//46 63//63
f 25//25 72//72 44//44
f 59//59 39//39 74//74
f 73//73 75//75 10//10
f 46//46 40//40 44//44
f 53//53 45//45 68//68
f 38//38 40//40 68//68
f 36//36 35//35 76//76
f 36//36 53//53 47//47
f 71//71 77//77 61//61
f 48//48 37//37 78//78
f 74//74 39//39 80//80
f 66//66 67//67 52//52
f 75//75 34//34 10//10
f 40//40 47//47 68//68
f 37//37 56//56 78//78
f 88//88 46//46 44//44
f 80//80 39//39 60//60
f 66//66 84//84 67//67
f 84//84 35//35 97//97
f 84//84 76//76 35//35
f 53//53 68//68 47//47
f 35//35 6//6 85//85
f 36//36 76//76 53//53
f 61//61 77//77 81//81
f 69//69 61//61 81//81
f 62//62 91//91 70//70
f 82//82 91//91 62//62
f 70//70 86//86 64//64
f 104//104 71//71 65//65
f 87//87 58//58 64//64
f 72//72 88//88 44//44
f 79//79 53//53 89//89
f 97//97 67//67 84//84
f 66//66 83//83 84//84
f 52//52 67//67 60//60
f 89//89 53//53 76//76
f 6//6 34//34 85//85
f 35//35 105//105 97//97
f 9//9 92//92 10//10
f 70//70 91//91 86//86
f 49//49 93//93 25//25
f 65//65 79//79 94//94
f 95//95 56//56 59//59
f 25//25 96//96 72//72
f 58//58 87//87 66//66
f 74//74 80//80 75//75
f 76//76 84//84 83//83
f 69//69 49//49 41//41
f 78//78 98//98 48//48
f 71//71 104//104 77//77
f 65//65 94//94 104//104
f 56//56 95//95 78//78
f 86//86 87//87 64//64
f 92//92 73//73 10//10
f 95//95 59//59 74//74
f 93//93 96//96 25//25
f 96//96 88//88 72//72
f 87//87 83//83 66//66
f 80//80 34//34 75//75
f 60//60 67//67 97//97
f 78//78 119//119 98//98
f 98//98 90//90 48//48
f 82//82 99//99 91//91
f 95//95 74//74 102//102
f 94//94 79//79 101//101
f 79//79 89//89 101//101
f 1//1 15//15 14//14
f 77//77 103//103 81//81
f 103//103 77//77 104//104
f 63//63 46//46 100//100
f 100//100 46//46 96//96
f 88//88 96//96 46//46
f 74//74 75//75 102//102
f 60//60 97//97 107//107
f 35//35 85//85 105//105
f 81//81 106//106 69//69
f 82//82 90//90 99//99
f 117//117 104//104 94//94
f 102//102 75//75 73//73
f 80//80 107//107 34//34
f 60//60 107//107 80//80
f 69//69 106//106 49//49
f 99//99 109//109 91//91
f 117//117 94//94 120//120
f 49//49 108//108 93//93
f 87//87 110//110 83//83
f 107//107 111//111 34//34
f 34//34 111//111 85//85
f 97//97 105//105 107//107
f 76//76 110//110 89//89
f 104//104 117//117 103//103
f 98//98 119//119 116//116
f 90//90 98//98 112//112
f 90//90 112//112 99//99
f 119//119 78//78 95//95
f 91//91 114//114 86//86
f 87//87 86//86 114//114
f 95//95 73//73 92//92
f 96//96 93//93 100//100
f 95//95 102//102 73//73
f 94//94 101//101 115//115
f 114//114 110//110 87//87
f 76//76 83//83 110//110
f 81//81 103//103 106//106
f 106//106 108//108 49//49
f 91//91 109//109 113//113
f 114//114 91//91 113//113
f 107//107 85//85 111//111
f 85//85 107//107 105//105
f 109//109 99//99 112//112
f 9//9 119//119 92//92
f 95//95 92//92 119//119
f 94//94 115//115 120//120
f 101//101 89//89 110//110
f 14//14 15//15 118//118
f 118//118 15//15 16//16
f 16//16 106//106 118//118
f 63//63 106//106 16//16
f 14//14 116//116 9//9
f 118//118 112//112 14//14
f 106//106 103//103 118//118
f 118//118 109//109 112//112
f 14//14 112//112 116//116
f 103//103 117//117 118//118
f 63//63 108//108 106//106
f 98//98 116//116 112//112
f 113//113 109//109 118//118
f 117//117 113//113 118//118
f 116//116 119//119 9//9
f 63//63 100//100 108//108
f 117//117 120//120 113//113
f 100//100 93//93 108//108
f 120//120 114//114 113//113
f 120//120 115//115 114//114
f 115//115 101//101 114//114
f 101//101 110//110 114//114
