# Blender 4.1.1
# www.blender.org
mtllib aa0270.mtl
o Liquid_Domain
v -8.134167 -8.755833 6.217273
v -8.479750 -9.101902 5.868806
v 8.465361 -8.781259 6.184719
v 8.134167 -9.108939 5.864167
v -8.480875 -9.101768 -5.867655
v 8.476563 -9.101880 -5.870392
v -8.134167 -8.755833 -6.217273
v 8.134167 -8.755833 -6.217273
v 8.481771 0.501271 -3.495862
v 8.438643 7.014010 5.903651
v -8.447518 3.994594 -6.159078
v -8.474479 6.648588 -0.572193
v 2.338770 -0.415008 0.337077
v 6.035567 -0.958750 -3.852047
v -1.650795 2.414751 -6.175727
v 2.574820 0.155769 0.971224
v 3.919743 0.307610 -0.165130
v 4.373878 -0.157111 -2.421762
v 6.307796 0.271734 -4.603527
v 6.187023 0.902202 -0.836848
v 4.192759 0.107970 -3.753256
v 6.433018 0.737560 -2.454901
v -8.399472 4.765426 -3.695424
v 7.111374 1.689752 -4.165205
v 1.972641 1.282502 -0.044199
v 2.053610 0.163746 -1.072069
v 3.088270 0.529875 -4.537127
v 1.348249 1.340104 1.364788
v 4.473117 1.976498 0.105607
v 4.845079 1.003030 -4.580315
v 3.960049 1.086252 -6.193960
v 7.931556 5.163470 -6.194112
v 2.838816 2.333400 1.481317
v 0.787335 0.795926 -2.147017
v 8.438791 5.699130 -5.609163
v -5.972447 3.083273 -6.168410
v 7.082843 3.990947 -0.380102
v 1.228330 1.843367 -4.811151
v 2.988022 2.293326 -5.360874
v 1.285105 2.118422 -0.281182
v 6.493419 3.171642 -0.089541
v 8.132433 6.658257 6.207790
v 0.283352 2.460518 2.080757
v 0.030519 1.932519 1.137344
v -0.723885 2.431054 -0.134609
v -7.196968 2.570925 -4.680861
v -6.255581 2.196236 -4.649114
v 6.710599 3.337379 -4.961596
v 2.689188 4.059651 -6.051642
v -0.267426 3.026597 3.659285
v 1.075575 3.469749 2.139389
v -6.994567 2.719879 -2.711299
v -5.195755 3.429139 -5.125876
v -0.156746 3.323416 -5.342242
v 2.959936 3.987417 -5.515996
v -4.999739 3.319194 -5.808135
v -3.684065 3.686825 -5.646789
v -0.474476 2.683426 3.272138
v 2.602435 3.428216 2.419874
v 4.560077 4.449627 2.002668
v -7.309867 3.383963 -1.176158
v -5.760260 3.549900 -0.037047
v 5.465877 5.251751 -6.088585
v -2.902035 3.584170 3.487070
v 0.117968 4.148643 3.408589
v -5.775398 3.468353 1.743447
v -6.380123 3.640024 0.015211
v 7.123487 5.788399 -4.288947
v -1.293236 3.199906 -5.038007
v -7.658748 4.119361 -4.694725
v 1.595549 5.023148 -5.719414
v 6.390172 5.581367 -5.509971
v -0.065989 4.029795 -5.902874
v -3.950627 4.309163 2.554468
v -3.580179 3.794841 1.742099
v -2.461463 3.642778 -0.027038
v -5.822666 4.844978 0.183251
v -4.058738 4.102767 -1.911755
v -2.804033 5.044815 3.931497
v -8.460297 7.075813 5.886456
v 2.412327 4.773038 3.553126
v 4.144952 5.551339 4.018080
v -5.917339 5.033648 1.893987
v -8.024722 4.858505 -5.816341
v 3.239314 6.701970 4.432677
v 6.701983 5.257098 1.977675
v 8.428488 6.732756 0.075029
v 7.411241 6.721461 0.239684
v -8.052552 6.097874 -2.600142
v -7.698469 6.708989 6.200539
v -1.441619 6.818416 3.953314
v 1.110616 6.728914 3.847422
v 6.492579 6.038071 3.953867
v -7.254361 6.152310 -0.950459
v 6.683513 6.472905 -5.858271
v 1.219801 6.874628 6.107079
v 5.187320 6.974350 6.117502
v 6.042748 6.864554 4.663324
v -4.532183 5.544498 2.743846
v 7.508965 6.405055 -5.250036
v -3.251067 6.699738 4.516439
v 7.868639 7.073524 -2.977962
v 1.968998 7.068316 4.811531
v -4.505646 7.034204 4.821053
v 8.049611 7.012047 2.940180
v -8.009305 7.050970 -0.756241
v -6.429970 6.937551 2.550557
v 8.071386 7.017894 -0.470393
v -6.203298 6.905783 0.611985
vn -0.2813 -0.2855 0.9162
vn -0.6217 -0.6503 0.4367
vn 0.5424 -0.3625 0.7579
vn 0.2886 -0.9016 0.3222
vn -0.6215 -0.6526 -0.4334
vn 0.6222 -0.6480 -0.4393
vn -0.2760 -0.2890 -0.9167
vn 0.2874 -0.2806 -0.9158
vn 1.0000 0.0034 -0.0043
vn 0.6165 0.6517 0.4418
vn -0.5367 0.2431 -0.8080
vn -0.9000 0.4230 -0.1050
vn 0.3154 0.9057 -0.2832
vn -0.2786 0.9249 0.2586
vn -0.0264 0.2890 -0.9570
vn -0.1783 0.5409 -0.8220
vn -0.5007 0.6328 -0.5907
vn -0.0125 0.9920 -0.1259
vn -0.3102 0.3965 0.8640
vn -0.6054 0.5872 -0.5373
vn 0.2670 0.8567 0.4413
vn -0.7565 0.5760 -0.3097
vn -0.8079 0.4612 -0.3667
vn -0.9321 0.2107 0.2945
vn 0.8846 0.4662 -0.0063
vn 0.6005 0.7991 -0.0288
vn 0.1404 0.7335 0.6650
vn 0.2789 0.6904 -0.6675
vn -0.4259 0.3946 -0.8142
vn 0.0071 0.3949 0.9187
vn -0.0056 0.0162 -0.9999
vn 0.3411 0.2028 -0.9179
vn -0.3115 0.4381 -0.8432
vn 0.5135 0.8581 -0.0036
vn 0.7238 0.4446 -0.5277
vn 0.0755 0.2170 -0.9733
vn -0.9435 0.2475 -0.2206
vn 0.3045 0.6430 0.7028
vn -0.0027 0.2824 0.9593
vn 0.4761 0.8561 -0.2010
vn -0.5835 0.4478 -0.6775
vn 0.2865 0.2432 0.9267
vn -0.3503 0.6502 -0.6742
vn 0.4173 0.9067 -0.0606
vn 0.4334 0.8900 -0.1417
vn 0.5971 0.6002 0.5322
vn -0.2565 0.8855 0.3874
vn -0.5305 0.1440 0.8354
vn 0.0569 0.4688 -0.8815
vn -0.3404 0.3807 -0.8598
vn -0.1830 0.6336 -0.7517
vn 0.1919 0.9642 -0.1830
vn -0.3790 0.9162 -0.1301
vn 0.0691 0.4816 0.8737
vn -0.0139 0.4691 0.8830
vn -0.1361 0.9899 -0.0393
vn 0.0532 0.8423 -0.5364
vn 0.0035 0.9000 -0.4359
vn -0.1655 0.6925 -0.7022
vn -0.3873 0.6873 -0.6145
vn 0.7313 0.5144 -0.4479
vn -0.0802 0.9959 -0.0415
vn -0.3193 0.5813 -0.7485
vn 0.4626 0.6037 -0.6493
vn -0.2669 0.2524 -0.9301
vn 0.4537 0.6940 -0.5590
vn 0.7508 0.5151 -0.4135
vn -0.9299 0.3329 0.1562
vn 0.1858 0.9798 0.0744
vn 0.7692 0.5792 0.2699
vn -0.0090 0.9984 0.0552
vn -0.5751 0.4352 0.6928
vn -0.3973 0.7920 -0.4635
vn 0.4986 0.5419 -0.6765
vn 0.1091 0.9872 -0.1163
vn 0.4056 0.9140 0.0009
vn 0.9333 -0.0676 -0.3526
vn -0.0413 0.9988 -0.0271
vn 0.1683 0.3150 -0.9340
vn -0.5903 0.6044 0.5351
vn 0.0017 0.4666 -0.8845
vn -0.0956 0.5966 -0.7968
vn 0.7859 0.2242 -0.5763
vn -0.1423 0.8816 -0.4500
vn 0.0891 0.5835 -0.8072
vn -0.7064 0.5602 -0.4326
vn 0.8946 0.4468 -0.0063
vn -0.7687 0.6369 -0.0586
vn -0.0615 0.8275 -0.5581
vn -0.1347 0.2738 0.9523
vn -0.1112 0.5792 -0.8076
vn 0.0717 0.5689 -0.8192
vn -0.4678 0.6457 -0.6036
vn 0.7540 0.3901 -0.5285
vn -0.2661 0.8969 -0.3532
vn -0.0048 0.7781 0.6281
vn -0.0041 0.7133 0.7008
vn -0.2192 0.8310 -0.5113
vn 0.5009 0.4926 -0.7117
vn -0.0221 0.9784 -0.2057
vn -0.2468 0.0654 -0.9669
vn 0.0065 0.9898 -0.1424
vn 0.0371 0.9848 -0.1695
vn 0.1181 0.9514 -0.2846
vn -0.0661 0.9948 -0.0777
vn -0.0868 0.9149 -0.3943
vn 0.3861 0.8946 -0.2248
vn 0.1689 0.9856 0.0056
vn 0.6737 0.7092 -0.2079
s 1
usemtl Liquid_Domain_Material
f 1//1 2//2 3//3
f 2//2 4//4 3//3
f 6//6 3//3 4//4
f 4//4 2//2 6//6
f 2//2 5//5 6//6
f 6//6 5//5 7//7
f 8//8 6//6 7//7
f 9//9 3//3 6//6
f 3//3 42//42 1//1
f 10//10 42//42 3//3
f 3//3 9//9 10//10
f 8//8 7//7 31//31
f 2//2 12//12 5//5
f 14//14 21//21 18//18
f 17//17 13//13 16//16
f 18//18 26//26 13//13
f 17//17 18//18 13//13
f 22//22 14//14 18//18
f 20//20 18//18 17//17
f 21//21 34//34 26//26
f 18//18 21//21 26//26
f 14//14 30//30 21//21
f 14//14 19//19 30//30
f 24//24 19//19 14//14
f 13//13 28//28 16//16
f 12//12 23//23 5//5
f 13//13 26//26 25//25
f 22//22 24//24 14//14
f 34//34 21//21 27//27
f 27//27 21//21 30//30
f 7//7 36//36 15//15
f 31//31 32//32 8//8
f 2//2 1//1 80//80
f 25//25 28//28 13//13
f 26//26 40//40 25//25
f 18//18 20//20 22//22
f 34//34 27//27 38//38
f 23//23 11//11 5//5
f 7//7 15//15 31//31
f 16//16 28//28 33//33
f 17//17 16//16 33//33
f 17//17 29//29 20//20
f 34//34 40//40 26//26
f 48//48 19//19 24//24
f 27//27 39//39 38//38
f 27//27 30//30 39//39
f 9//9 6//6 35//35
f 7//7 11//11 36//36
f 35//35 6//6 8//8
f 28//28 25//25 40//40
f 33//33 29//29 17//17
f 34//34 45//45 40//40
f 37//37 20//20 41//41
f 20//20 37//37 22//22
f 19//19 48//48 30//30
f 28//28 44//44 43//43
f 40//40 45//45 44//44
f 44//44 28//28 40//40
f 29//29 41//41 20//20
f 34//34 76//76 45//45
f 37//37 24//24 22//22
f 34//34 38//38 69//69
f 7//7 5//5 11//11
f 32//32 31//31 63//63
f 32//32 35//35 8//8
f 1//1 42//42 90//90
f 43//43 44//44 58//58
f 28//28 43//43 51//51
f 51//51 33//33 28//28
f 47//47 46//46 52//52
f 31//31 15//15 49//49
f 50//50 43//43 58//58
f 58//58 44//44 76//76
f 33//33 51//51 59//59
f 45//45 76//76 44//44
f 76//76 34//34 69//69
f 52//52 53//53 47//47
f 69//69 38//38 54//54
f 38//38 39//39 54//54
f 30//30 48//48 39//39
f 15//15 36//36 57//57
f 36//36 56//56 57//57
f 50//50 65//65 43//43
f 43//43 65//65 51//51
f 59//59 60//60 33//33
f 33//33 60//60 29//29
f 60//60 41//41 29//29
f 61//61 67//67 52//52
f 62//62 52//52 67//67
f 52//52 46//46 61//61
f 52//52 62//62 53//53
f 47//47 53//53 46//46
f 69//69 15//15 57//57
f 39//39 55//55 54//54
f 31//31 49//49 63//63
f 64//64 50//50 58//58
f 58//58 76//76 64//64
f 51//51 65//65 59//59
f 76//76 75//75 64//64
f 66//66 62//62 67//67
f 37//37 68//68 24//24
f 61//61 46//46 70//70
f 46//46 56//56 70//70
f 53//53 56//56 46//46
f 54//54 55//55 71//71
f 48//48 72//72 39//39
f 69//69 73//73 15//15
f 54//54 73//73 69//69
f 64//64 79//79 50//50
f 66//66 74//74 75//75
f 64//64 75//75 74//74
f 75//75 62//62 66//66
f 61//61 77//77 67//67
f 75//75 78//78 62//62
f 76//76 78//78 75//75
f 69//69 78//78 76//76
f 53//53 62//62 78//78
f 78//78 57//57 53//53
f 69//69 57//57 78//78
f 56//56 53//53 57//57
f 71//71 73//73 54//54
f 15//15 73//73 49//49
f 50//50 79//79 65//65
f 2//2 80//80 12//12
f 64//64 74//74 79//79
f 65//65 81//81 59//59
f 59//59 81//81 82//82
f 66//66 67//67 83//83
f 61//61 94//94 77//77
f 61//61 70//70 94//94
f 24//24 68//68 48//48
f 56//56 84//84 70//70
f 49//49 71//71 55//55
f 36//36 11//11 84//84
f 84//84 56//56 36//36
f 65//65 79//79 91//91
f 60//60 59//59 82//82
f 66//66 83//83 74//74
f 86//86 41//41 60//60
f 86//86 37//37 41//41
f 83//83 67//67 77//77
f 37//37 88//88 68//68
f 87//87 9//9 35//35
f 48//48 68//68 72//72
f 23//23 84//84 11//11
f 84//84 23//23 70//70
f 72//72 55//55 39//39
f 73//73 71//71 49//49
f 85//85 82//82 81//81
f 79//79 74//74 99//99
f 10//10 9//9 87//87
f 86//86 60//60 82//82
f 74//74 83//83 99//99
f 89//89 94//94 70//70
f 89//89 70//70 23//23
f 49//49 55//55 63//63
f 72//72 63//63 55//55
f 65//65 92//92 81//81
f 93//93 86//86 82//82
f 83//83 107//107 99//99
f 77//77 109//109 83//83
f 89//89 23//23 12//12
f 95//95 63//63 72//72
f 42//42 96//96 90//90
f 42//42 97//97 96//96
f 82//82 98//98 93//93
f 65//65 91//91 92//92
f 81//81 92//92 85//85
f 83//83 109//109 107//107
f 86//86 88//88 37//37
f 77//77 94//94 109//109
f 63//63 95//95 32//32
f 79//79 101//101 91//91
f 100//100 72//72 68//68
f 95//95 72//72 100//100
f 100//100 32//32 95//95
f 35//35 32//32 100//100
f 1//1 90//90 80//80
f 104//104 101//101 79//79
f 85//85 98//98 82//82
f 79//79 99//99 104//104
f 104//104 99//99 107//107
f 10//10 87//87 105//105
f 86//86 93//93 88//88
f 94//94 106//106 109//109
f 106//106 89//89 12//12
f 106//106 94//94 89//89
f 88//88 102//102 68//68
f 87//87 35//35 102//102
f 102//102 100//100 68//68
f 102//102 35//35 100//100
f 80//80 90//90 96//96
f 97//97 42//42 10//10
f 96//96 104//104 80//80
f 103//103 104//104 96//96
f 97//97 103//103 96//96
f 97//97 98//98 103//103
f 91//91 101//101 104//104
f 103//103 91//91 104//104
f 98//98 85//85 103//103
f 105//105 97//97 10//10
f 105//105 98//98 97//97
f 103//103 92//92 91//91
f 85//85 92//92 103//103
f 105//105 93//93 98//98
f 80//80 106//106 12//12
f 107//107 106//106 80//80
f 104//104 107//107 80//80
f 105//105 88//88 93//93
f 105//105 108//108 88//88
f 105//105 87//87 108//108
f 107//107 109//109 106//106
f 108//108 102//102 88//88
f 87//87 102//102 108//108
