# Blender 4.1.1
# www.blender.org
mtllib aa0248.mtl
o Liquid_Domain
v -8.430454 -9.096226 6.203524
v 8.428015 -9.083619 6.209206
v -8.462252 -9.083706 -6.194458
v 8.471201 -9.091398 -6.207721
v -8.425846 -5.168461 1.448965
v -8.478957 -2.157332 5.861098
v -2.689276 3.424317 6.173660
v -8.276561 -1.896065 4.407456
v -8.386517 2.733227 6.157627
v -7.260818 -4.023931 3.533077
v -8.146213 -4.006371 2.126460
v -7.277422 -3.831050 0.731729
v 8.361151 6.902966 -6.197323
v -5.423728 -4.043134 4.261019
v -8.073191 -3.861434 2.553591
v -7.943941 -4.144466 -0.255453
v -8.259379 -1.415960 -0.134201
v -8.241940 -1.423415 -2.781476
v -3.590072 -0.743536 4.078702
v -4.384067 -2.384262 2.745452
v -7.690223 -1.698200 1.540280
v -1.951472 1.104307 -6.173063
v -5.098464 -2.544169 -0.078394
v -7.313617 -2.556878 -2.881913
v -8.326233 -1.746850 2.418240
v -3.134156 -0.068006 4.949598
v -5.470088 -0.832130 5.106278
v -5.125022 -0.885017 -2.639264
v -4.626112 -0.117445 3.185211
v -7.565501 0.880113 -1.201308
v -7.689847 -0.218955 -5.214712
v -8.321630 1.876213 -6.157811
v -8.211059 0.541727 3.365177
v -3.755614 1.055020 0.309216
v -8.295552 0.848653 3.700937
v -8.123786 1.132544 2.200040
v -8.019820 -0.338007 0.313851
v -2.901998 0.275649 -4.540278
v 8.456381 6.910178 6.148254
v -4.733144 5.429801 6.090187
v -6.529892 2.295411 5.314079
v -7.657138 0.743928 3.691892
v -1.604677 3.505802 0.018562
v -2.319214 2.052602 -2.428606
v -8.282734 1.144754 -3.008544
v -7.696027 1.594308 -4.607112
v -2.487305 3.476350 3.075102
v -8.220155 2.459311 -0.156526
v -4.413539 3.833158 -6.196872
v -8.215248 2.399813 4.774271
v -4.199559 2.039329 -4.305447
v -2.847166 2.122116 -5.537427
v -7.638059 3.239837 -3.636325
v -8.115594 2.898459 -4.761573
v -0.955374 4.121870 6.168114
v -8.035018 3.919182 -2.476652
v 6.054317 2.183253 -3.806623
v 1.852068 5.150959 -6.072032
v 6.113941 3.335057 -2.807512
v 1.679338 2.387085 -3.916340
v -8.373543 3.750495 -3.458553
v 5.306757 4.310408 -5.318887
v -7.933068 3.383443 -4.824466
v -1.745896 4.197940 -6.073184
v -7.681132 4.718885 1.815176
v -6.761423 3.235014 -1.086380
v -8.451834 6.937785 -5.974225
v -3.359115 3.112651 4.892150
v -1.350671 3.774147 5.214196
v -4.993892 4.102479 4.568447
v -0.792325 4.379793 2.018758
v -7.948926 3.974964 0.249651
v -7.294917 4.891347 0.089698
v -5.663667 3.771559 -3.198066
v -7.920041 5.205314 -0.772450
v 2.715444 4.591362 -1.327153
v 1.677289 3.415625 -2.485880
v 7.460010 7.084618 -4.187391
v -6.275285 5.175934 -5.996874
v 0.357297 5.259314 4.630489
v -8.045782 5.074274 1.185589
v -8.209511 5.170853 1.050327
v -4.792477 6.617239 -1.652278
v 6.791962 4.142575 -1.413037
v -0.115751 4.489172 -1.901301
v -0.314111 4.320921 -4.526778
v -2.910302 5.351866 5.864480
v -2.206486 5.971621 5.332246
v -8.333967 6.808774 6.021309
v 4.934807 4.890064 -3.011892
v -0.443685 5.849932 -5.916422
v 5.664683 6.930582 -5.560854
v -1.312774 5.407260 5.863905
v -0.665344 6.772653 5.639452
v -7.441586 6.720471 2.371857
v 5.199573 4.781487 -0.156585
v -8.169530 5.276947 0.874331
v 6.740664 6.138761 -2.028759
v -4.737383 6.183558 -4.359511
v -2.186859 5.882261 6.184184
v -7.356081 5.926082 5.560120
v -6.147404 6.695597 5.824041
v 2.637239 5.085448 4.320336
v -8.269446 5.960168 0.535283
v -8.024035 6.912720 -2.013149
v -0.536283 6.793430 6.113549
v -6.244895 6.926975 -6.003113
v 4.089959 7.008288 3.665681
v 3.611847 7.229856 0.432512
v -1.149183 6.968508 0.903996
v 6.510081 6.949521 4.374287
v 7.852695 6.986781 2.385692
v 0.445955 7.113770 -0.743605
v -3.014410 6.963794 -2.861961
vn -0.5014 -0.5243 0.6883
vn 0.5010 -0.5224 0.6900
vn -0.5085 -0.5182 -0.6877
vn 0.5030 -0.5213 -0.6894
vn -0.9888 0.1386 0.0556
vn -0.9970 0.0134 0.0757
vn -0.0849 0.3254 0.9418
vn -0.6554 0.1942 -0.7299
vn -0.6156 0.0334 0.7873
vn 0.4567 0.7397 -0.4943
vn 0.0417 -0.4858 0.8731
vn 0.1711 0.9849 0.0252
vn 0.4758 0.5114 -0.7156
vn -0.2335 0.7440 -0.6260
vn 0.3106 0.1609 -0.9368
vn 0.1094 0.9642 0.2415
vn -0.2600 -0.4371 -0.8610
vn -0.2878 0.7326 0.6168
vn -0.8644 0.3239 0.3846
vn -0.8768 0.4528 0.1616
vn 0.9966 0.0777 0.0274
vn -0.0160 0.0608 -0.9980
vn -0.7210 0.6494 0.2417
vn 0.0554 0.7725 0.6326
vn -0.7925 0.5040 0.3433
vn -0.6650 0.2315 -0.7101
vn 0.1159 0.1408 -0.9832
vn -0.6213 0.7325 0.2781
vn -0.9029 0.1680 0.3957
vn 0.9926 -0.1144 -0.0399
vn 0.1713 0.4366 0.8832
vn -0.6323 -0.0247 -0.7743
vn -0.8800 -0.4721 -0.0528
vn -0.8631 0.5022 -0.0545
vn -0.7530 0.5278 -0.3930
vn -0.0800 0.8681 -0.4898
vn -0.3203 0.7456 0.5844
vn -0.6410 0.3087 0.7027
vn 0.5018 0.5200 0.6912
vn 0.4954 0.6057 0.6227
vn 0.1205 0.1172 -0.9858
vn 0.5849 0.3902 -0.7111
vn -0.9490 0.0934 0.3010
vn -0.9541 -0.0284 0.2982
vn -0.2783 -0.8434 -0.4595
vn 0.7951 -0.5863 -0.1554
vn -0.6980 0.7161 -0.0083
vn -0.1018 0.5616 0.8211
vn 0.0789 0.2257 -0.9710
vn -0.5148 0.3022 -0.8023
vn -0.3328 -0.4818 0.8106
vn 0.1908 0.3417 -0.9202
vn 0.6183 -0.7628 0.1891
vn -0.7287 0.4739 0.4944
vn -0.0390 0.0963 0.9946
vn -0.3187 -0.1433 0.9370
vn -0.5192 0.8516 0.0724
vn 0.0794 0.8202 -0.5666
vn -0.7474 0.0238 -0.6639
vn 0.3405 0.9291 0.1440
vn -0.9958 -0.0479 0.0786
vn -0.3233 0.3549 0.8772
vn 0.0846 -0.6732 0.7346
vn -0.0879 0.3723 -0.9239
vn 0.9814 -0.1159 -0.1533
vn 0.3797 -0.6157 -0.6904
vn -0.5284 0.5429 -0.6528
vn -0.2336 0.5134 -0.8257
vn -0.5343 0.6994 -0.4747
vn 0.0787 0.1576 -0.9844
vn -0.8261 0.4748 0.3034
vn -0.3336 -0.8725 0.3570
vn 0.9423 0.2314 0.2419
vn -0.1843 -0.5510 0.8139
vn -0.2280 0.4476 -0.8647
vn 0.0941 0.7229 -0.6845
vn 0.1708 0.7632 -0.6232
vn -0.3552 0.9195 0.1683
vn 0.2278 0.1442 -0.9630
vn -0.3743 0.8425 -0.3874
vn 0.8227 -0.2468 -0.5121
vn -0.8004 -0.0289 -0.5987
vn -0.3727 0.4720 0.7990
vn -0.5678 0.7901 0.2311
vn 0.4005 0.6193 -0.6754
vn 0.3254 0.9073 0.2663
vn -0.9732 0.2298 0.0062
vn -0.2506 0.4328 -0.8659
vn -0.3581 0.6940 0.6246
vn -0.1659 0.5925 -0.7883
vn -0.2412 0.9186 -0.3130
vn -0.4963 0.8620 0.1025
vn -0.8791 -0.2867 0.3809
vn 0.0201 0.8138 -0.5808
vn 0.5179 0.8080 -0.2807
vn 0.2481 0.7984 -0.5487
vn -0.9757 -0.0980 0.1961
vn -0.8745 0.4739 0.1030
vn 0.3195 0.8316 -0.4542
vn -0.2345 0.5956 0.7683
vn 0.5040 0.6016 -0.6197
vn -0.0505 0.9473 0.3164
vn -0.4207 0.8184 -0.3913
vn -0.3728 0.8233 -0.4279
vn -0.4318 0.4564 0.7779
vn -0.1261 0.7135 0.6892
vn 0.3521 0.5625 -0.7481
vn -0.3292 0.9424 -0.0582
vn 0.2647 0.8869 -0.3785
vn -0.2881 0.7916 0.5388
vn 0.0148 0.9970 -0.0762
vn -0.2924 0.9475 -0.1293
vn 0.1995 0.8612 -0.4675
vn 0.2738 0.8073 -0.5228
s 1
usemtl Liquid_Domain_Material
f 1//1 3//3 4//4
f 2//2 1//1 4//4
f 5//5 3//3 1//1
f 1//1 6//6 5//5
f 6//6 8//8 5//5
f 1//1 9//9 6//6
f 1//1 7//7 9//9
f 2//2 7//7 1//1
f 8//8 15//15 5//5
f 11//11 5//5 12//12
f 10//10 12//12 5//5
f 10//10 5//5 15//15
f 10//10 14//14 12//12
f 14//14 20//20 12//12
f 11//11 15//15 8//8
f 11//11 25//25 5//5
f 5//5 17//17 16//16
f 16//16 18//18 5//5
f 2//2 4//4 39//39
f 15//15 11//11 21//21
f 21//21 11//11 12//12
f 25//25 17//17 5//5
f 16//16 17//17 21//21
f 21//21 12//12 16//16
f 23//23 16//16 12//12
f 3//3 32//32 22//22
f 3//3 22//22 4//4
f 14//14 19//19 20//20
f 21//21 8//8 10//10
f 21//21 10//10 15//15
f 8//8 25//25 11//11
f 23//23 12//12 20//20
f 16//16 23//23 24//24
f 5//5 18//18 3//3
f 8//8 21//21 25//25
f 10//10 27//27 14//14
f 14//14 26//26 19//19
f 8//8 27//27 10//10
f 16//16 24//24 18//18
f 23//23 28//28 24//24
f 14//14 27//27 26//26
f 19//19 29//29 20//20
f 21//21 17//17 30//30
f 24//24 31//31 18//18
f 28//28 31//31 24//24
f 18//18 32//32 3//3
f 9//9 7//7 40//40
f 21//21 33//33 25//25
f 25//25 33//33 17//17
f 21//21 30//30 37//37
f 34//34 23//23 20//20
f 23//23 34//34 28//28
f 18//18 31//31 32//32
f 8//8 35//35 33//33
f 36//36 17//17 33//33
f 38//38 31//31 28//28
f 27//27 8//8 33//33
f 36//36 37//37 17//17
f 37//37 36//36 21//21
f 6//6 35//35 8//8
f 33//33 21//21 42//42
f 36//36 42//42 21//21
f 6//6 9//9 35//35
f 27//27 41//41 26//26
f 27//27 33//33 42//42
f 29//29 19//19 47//47
f 35//35 36//36 33//33
f 20//20 29//29 34//34
f 34//34 44//44 28//28
f 31//31 46//46 32//32
f 41//41 68//68 26//26
f 27//27 42//42 41//41
f 47//47 19//19 26//26
f 37//37 48//48 17//17
f 44//44 34//34 43//43
f 45//45 30//30 17//17
f 28//28 44//44 38//38
f 32//32 49//49 22//22
f 35//35 50//50 42//42
f 42//42 36//36 35//35
f 30//30 48//48 37//37
f 51//51 38//38 44//44
f 51//51 31//31 38//38
f 22//22 49//49 52//52
f 4//4 22//22 58//58
f 9//9 50//50 35//35
f 50//50 41//41 42//42
f 26//26 68//68 47//47
f 34//34 47//47 43//43
f 17//17 48//48 45//45
f 45//45 32//32 46//46
f 31//31 63//63 46//46
f 31//31 51//51 63//63
f 4//4 58//58 13//13
f 34//34 29//29 47//47
f 30//30 45//45 53//53
f 46//46 53//53 45//45
f 46//46 63//63 54//54
f 56//56 48//48 30//30
f 48//48 56//56 45//45
f 60//60 77//77 57//57
f 74//74 53//53 51//51
f 51//51 53//53 63//63
f 56//56 30//30 53//53
f 77//77 59//59 57//57
f 61//61 54//54 45//45
f 45//45 54//54 32//32
f 46//46 54//54 53//53
f 57//57 62//62 60//60
f 54//54 63//63 32//32
f 22//22 52//52 64//64
f 22//22 64//64 58//58
f 43//43 74//74 51//51
f 44//44 43//43 51//51
f 60//60 86//86 77//77
f 53//53 54//54 61//61
f 53//53 61//61 63//63
f 58//58 60//60 62//62
f 39//39 4//4 13//13
f 52//52 49//49 64//64
f 58//58 64//64 91//91
f 69//69 68//68 7//7
f 50//50 101//101 41//41
f 68//68 41//41 70//70
f 69//69 47//47 68//68
f 71//71 43//43 47//47
f 72//72 66//66 73//73
f 56//56 61//61 45//45
f 58//58 86//86 60//60
f 50//50 65//65 101//101
f 71//71 47//47 69//69
f 72//72 65//65 50//50
f 75//75 73//73 66//66
f 72//72 75//75 66//66
f 85//85 76//76 77//77
f 77//77 86//86 85//85
f 53//53 74//74 56//56
f 90//90 59//59 77//77
f 59//59 90//90 57//57
f 32//32 79//79 49//49
f 2//2 55//55 7//7
f 2//2 106//106 55//55
f 68//68 40//40 7//7
f 40//40 68//68 70//70
f 69//69 80//80 71//71
f 65//65 72//72 81//81
f 50//50 82//82 72//72
f 81//81 72//72 73//73
f 43//43 71//71 83//83
f 96//96 84//84 76//76
f 61//61 32//32 63//63
f 57//57 78//78 62//62
f 9//9 40//40 89//89
f 55//55 100//100 7//7
f 100//100 87//87 7//7
f 39//39 106//106 2//2
f 100//100 55//55 69//69
f 100//100 69//69 88//88
f 7//7 87//87 69//69
f 87//87 88//88 69//69
f 41//41 101//101 70//70
f 9//9 89//89 50//50
f 50//50 104//104 82//82
f 43//43 83//83 74//74
f 76//76 84//84 90//90
f 76//76 90//90 77//77
f 85//85 86//86 99//99
f 86//86 64//64 99//99
f 91//91 64//64 86//86
f 58//58 62//62 92//92
f 64//64 49//49 99//99
f 93//93 100//100 88//88
f 94//94 69//69 93//93
f 93//93 69//69 55//55
f 94//94 80//80 69//69
f 101//101 102//102 70//70
f 70//70 102//102 40//40
f 89//89 104//104 50//50
f 101//101 65//65 95//95
f 104//104 81//81 82//82
f 82//82 97//97 72//72
f 81//81 73//73 82//82
f 72//72 97//97 75//75
f 97//97 104//104 75//75
f 76//76 85//85 113//113
f 84//84 98//98 90//90
f 32//32 61//61 67//67
f 86//86 58//58 91//91
f 40//40 101//101 89//89
f 97//97 81//81 104//104
f 81//81 97//97 65//65
f 97//97 82//82 73//73
f 97//97 73//73 65//65
f 65//65 73//73 104//104
f 73//73 75//75 104//104
f 85//85 114//114 113//113
f 56//56 105//105 61//61
f 56//56 74//74 105//105
f 114//114 85//85 99//99
f 98//98 57//57 90//90
f 99//99 49//49 79//79
f 92//92 62//62 78//78
f 93//93 106//106 100//100
f 55//55 106//106 93//93
f 94//94 93//93 88//88
f 110//110 71//71 80//80
f 84//84 96//96 111//111
f 109//109 111//111 96//96
f 65//65 104//104 95//95
f 113//113 109//109 76//76
f 109//109 96//96 76//76
f 105//105 74//74 83//83
f 98//98 78//78 57//57
f 32//32 107//107 79//79
f 40//40 102//102 101//101
f 103//103 108//108 109//109
f 103//103 109//109 80//80
f 110//110 83//83 71//71
f 105//105 67//67 61//61
f 32//32 67//67 107//107
f 58//58 92//92 13//13
f 100//100 106//106 87//87
f 87//87 106//106 88//88
f 106//106 94//94 88//88
f 103//103 80//80 106//106
f 80//80 94//94 106//106
f 108//108 103//103 106//106
f 95//95 89//89 101//101
f 84//84 111//111 112//112
f 80//80 113//113 110//110
f 109//109 113//113 80//80
f 84//84 112//112 98//98
f 112//112 78//78 98//98
f 112//112 39//39 78//78
f 39//39 13//13 78//78
f 99//99 79//79 107//107
f 39//39 108//108 106//106
f 111//111 108//108 39//39
f 112//112 111//111 39//39
f 111//111 109//109 108//108
f 95//95 104//104 89//89
f 110//110 114//114 83//83
f 113//113 114//114 110//110
f 114//114 105//105 83//83
f 114//114 99//99 105//105
f 107//107 67//67 105//105
f 99//99 107//107 105//105
f 13//13 92//92 78//78
