# Blender 4.1.1
# www.blender.org
mtllib aa0280.mtl
o Liquid_Domain
v -8.134167 -8.755833 6.217273
v -8.479079 -9.105206 5.864152
v 8.134167 -8.755833 6.217273
v -8.482860 -9.096738 -5.875121
v 8.464456 -9.099526 5.878241
v 8.476677 -9.103598 -5.869867
v -8.137004 -8.741297 -6.220548
v 5.308020 0.618899 -6.210890
v -8.467722 6.731260 5.872030
v 8.134167 -8.755833 -6.217273
v 3.808582 -1.485783 -3.309058
v 4.954935 -0.580676 -1.309188
v 4.307128 -0.591324 -1.859726
v 4.927767 0.069565 -4.402565
v -8.443832 4.978370 -3.246147
v 3.299351 0.701071 -0.789352
v -8.384742 1.608844 -4.708820
v -8.244334 1.641693 -6.053815
v 6.234848 0.474056 -2.152745
v 2.154949 -0.172382 -3.495562
v 2.850761 1.101391 -5.343952
v -1.363785 3.785130 -6.182444
v 4.332191 -0.022275 -0.142013
v 6.689711 1.126188 -3.243546
v 1.517488 0.751087 -4.754382
v 3.097396 0.304854 0.965607
v 5.371041 2.202972 0.665860
v 0.785434 0.613170 -2.063143
v 1.321481 2.125691 2.476894
v 0.668890 2.344799 -5.398610
v -0.015070 0.991938 -6.194460
v 8.476592 6.827156 6.165196
v 1.350760 1.911990 0.022143
v -5.695392 1.969941 -5.715670
v 4.953774 1.783519 -5.228745
v 2.498814 2.479970 -5.899590
v 1.631445 1.884043 4.021785
v 3.720247 2.307447 4.503561
v 3.804547 1.782108 3.672428
v 3.644048 1.728383 2.617267
v 0.912781 1.805183 1.342728
v 7.270535 4.292356 -3.970243
v 6.960674 4.391805 -4.949562
v -7.115990 1.755400 -4.858247
v -8.145936 7.058540 6.201460
v 0.017714 3.420876 6.184653
v -0.220766 2.510333 3.529545
v -0.124335 2.059691 -1.316994
v -0.220144 4.049834 -4.846710
v -7.677168 2.963243 -4.550712
v 3.535208 4.582688 -5.458619
v 2.268302 2.995835 4.481416
v 1.158754 2.690135 3.026559
v 3.071905 3.251530 3.396688
v 6.623738 3.440346 0.558056
v -5.181643 1.807087 -6.126808
v -0.475514 3.113774 5.087469
v -0.040146 3.713048 5.459571
v 2.049414 3.629278 2.437472
v 8.455868 5.491504 -2.290604
v -6.620058 4.721835 -5.775380
v 4.762423 4.879504 -5.758720
v -1.606116 4.469136 4.679331
v 7.001881 4.185036 3.316154
v -2.043478 5.043837 4.144438
v -6.726100 4.633851 -3.614490
v 3.333377 5.099467 -6.048932
v 8.353374 4.665312 -6.167283
v -1.299854 6.719610 6.179550
v 0.732694 4.458375 4.435501
v -2.498275 3.267277 -1.018872
v -1.571292 4.599145 -5.042921
v 1.870207 5.062672 4.803432
v 6.268382 4.062484 4.725259
v 5.652831 5.572486 -6.041784
v 4.113853 6.621753 4.700739
v 6.627338 5.150643 1.675814
v -5.112174 6.505211 -6.194244
v 8.374964 6.990746 2.378205
v -3.873471 5.528959 1.133908
v 6.485847 6.637583 1.451669
v -3.544390 4.544995 -2.921609
v 6.710260 6.557396 -1.027857
v -6.917962 5.264390 -2.769419
v -5.574051 5.371381 -3.399480
v -2.996785 6.645835 -6.072084
v 7.255424 6.618377 4.061483
v -0.241943 6.623628 4.789347
v -2.528783 5.443201 4.079700
v -4.252607 5.621325 -3.593536
v 7.813294 6.258589 -5.841377
v 7.423942 6.125900 -5.141379
v -4.292057 5.841533 4.410572
v -4.023495 6.735336 4.841546
v -5.473549 5.933561 1.922155
v -4.822898 5.492849 -0.446624
v 7.784955 6.044192 -3.464911
v -8.323526 7.035844 -3.161229
v -7.469423 6.627551 -3.300381
v -4.700507 6.858504 -4.001201
v -5.559613 7.059720 -5.774981
v -2.324780 6.792183 4.471256
v -5.092158 6.745685 3.268900
v -5.243445 6.879958 0.167232
v 7.875970 6.916099 -2.052296
v -2.551505 6.786136 -5.114501
v -4.556630 7.075240 5.792973
v 1.365598 7.116913 5.680494
v 6.522730 6.909986 5.083704
v -6.669361 7.033855 2.222250
v -6.106003 6.986189 -1.917311
vn -0.2840 -0.2856 0.9153
vn -0.6221 -0.6513 0.4345
vn 0.2795 -0.2847 0.9170
vn -0.6206 -0.6474 -0.4425
vn 0.6194 -0.6535 0.4351
vn 0.6211 -0.6518 -0.4351
vn -0.2816 -0.2764 -0.9189
vn -0.0003 0.0140 -0.9999
vn -0.9037 0.2972 0.3083
vn 0.2793 -0.2866 -0.9164
vn -0.0354 0.9788 0.2019
vn -0.3537 0.8728 -0.3363
vn 0.0807 0.9652 -0.2488
vn -0.3529 0.6563 0.6668
vn -0.6264 0.2320 -0.7442
vn 0.4857 0.8470 -0.2159
vn -0.8519 0.3417 -0.3968
vn -0.5109 0.5059 -0.6950
vn -0.7743 0.6179 -0.1367
vn 0.4547 0.8600 0.2315
vn -0.0029 0.4783 0.8782
vn 0.3265 0.2689 -0.9062
vn -0.1652 0.9012 -0.4008
vn -0.8627 0.4561 0.2185
vn 0.4513 0.6915 0.5640
vn 0.1918 0.9348 -0.2991
vn -0.6617 0.5674 -0.4901
vn 0.6070 0.7756 -0.1732
vn 0.2753 0.5748 -0.7706
vn 0.6121 0.7251 -0.3156
vn 0.0358 0.1101 -0.9933
vn 0.5104 0.5081 0.6938
vn 0.3569 0.9327 -0.0526
vn -0.5109 0.4019 -0.7599
vn -0.2907 0.2688 0.9183
vn -0.3189 0.3000 0.8991
vn -0.4165 0.9077 -0.0505
vn -0.0148 0.5854 -0.8106
vn 0.0524 0.9928 -0.1075
vn -0.0864 0.7856 -0.6127
vn 0.4153 0.9003 -0.1301
vn -0.9716 0.2255 0.0723
vn -0.6473 0.2456 0.7216
vn -0.3596 0.5901 -0.7228
vn -0.3546 0.5597 0.7490
vn 0.0016 0.0023 1.0000
vn 0.4660 0.8755 -0.1283
vn 0.5994 0.8004 -0.0069
vn 0.6563 0.7509 -0.0734
vn -0.5264 0.2742 -0.8048
vn -0.2680 0.3797 0.8855
vn -0.0644 0.5637 -0.8234
vn -0.4801 0.8772 -0.0088
vn 0.6116 0.7824 0.1174
vn -0.9144 0.3542 -0.1959
vn -0.1287 0.0740 -0.9889
vn 0.3930 0.6002 -0.6966
vn -0.0317 -0.0871 -0.9957
vn -0.0961 0.7067 -0.7010
vn 0.9688 0.2285 -0.0959
vn -0.7104 0.2168 -0.6696
vn -0.1301 0.3979 0.9081
vn 0.6230 0.1323 -0.7710
vn -0.8629 0.4934 -0.1090
vn 0.6449 0.3805 -0.6628
vn -0.5780 0.7245 -0.3754
vn -0.4837 0.7599 -0.4344
vn 0.5699 0.1493 -0.8080
vn 0.0054 0.3856 0.9227
vn -0.0534 -0.1229 -0.9910
vn 0.6233 0.7802 0.0522
vn 0.6570 0.7415 0.1363
vn 0.0717 0.0907 -0.9933
vn -0.4442 0.3855 -0.8088
vn -0.3152 0.6863 -0.6555
vn 0.0089 0.4219 -0.9066
vn -0.9854 -0.0629 0.1584
vn -0.1643 0.2741 -0.9476
vn 0.5602 0.8283 -0.0043
vn 0.4447 0.8771 -0.1814
vn -0.7923 0.6028 0.0941
vn 0.4036 0.8577 0.3186
vn -0.7849 0.5876 -0.1964
vn 0.3418 0.4889 -0.8026
vn -0.2481 0.8505 0.4638
vn 0.3123 0.5530 -0.7724
vn -0.9016 0.1312 -0.4121
vn 0.1201 0.4270 -0.8963
vn 0.3186 0.6229 -0.7145
vn 0.2715 0.4829 0.8325
vn 0.3248 0.7531 -0.5721
vn -0.4724 0.8237 0.3137
vn 0.4532 0.5857 -0.6720
vn 0.1448 0.7933 -0.5914
vn 0.5626 0.8249 -0.0554
vn 0.5979 0.7576 -0.2619
vn -0.2935 0.9559 -0.0049
vn -0.4607 0.6085 -0.6461
vn 0.3001 0.2673 -0.9157
vn -0.1382 0.7306 0.6687
vn -0.5184 0.7865 -0.3357
vn -0.0025 0.6131 -0.7900
vn 0.6348 0.6700 -0.3849
vn 0.6665 0.7443 0.0421
vn 0.1700 0.8687 -0.4652
vn 0.6113 0.7525 0.2451
vn 0.0479 0.9875 0.1504
vn 0.0012 0.9961 0.0886
vn -0.1546 0.8572 -0.4911
vn 0.2387 0.9695 -0.0563
vn 0.5674 0.6856 -0.4561
s 1
usemtl Liquid_Domain_Material
f 2//2 5//5 1//1
f 1//1 5//5 3//3
f 5//5 2//2 6//6
f 6//6 2//2 4//4
f 6//6 4//4 7//7
f 10//10 6//6 7//7
f 5//5 6//6 32//32
f 10//10 7//7 8//8
f 2//2 1//1 9//9
f 9//9 4//4 2//2
f 8//8 7//7 31//31
f 68//68 6//6 10//10
f 60//60 32//32 6//6
f 11//11 13//13 14//14
f 3//3 46//46 1//1
f 12//12 13//13 23//23
f 13//13 11//11 16//16
f 16//16 11//11 20//20
f 11//11 14//14 20//20
f 17//17 18//18 4//4
f 7//7 4//4 18//18
f 7//7 18//18 56//56
f 16//16 26//26 23//23
f 23//23 13//13 16//16
f 16//16 20//20 28//28
f 12//12 19//19 14//14
f 14//14 13//13 12//12
f 21//21 20//20 14//14
f 7//7 56//56 22//22
f 32//32 3//3 5//5
f 26//26 16//16 41//41
f 28//28 33//33 16//16
f 19//19 24//24 14//14
f 25//25 28//28 20//20
f 21//21 25//25 20//20
f 10//10 8//8 68//68
f 29//29 40//40 26//26
f 40//40 23//23 26//26
f 23//23 19//19 12//12
f 15//15 17//17 4//4
f 35//35 21//21 14//14
f 26//26 41//41 29//29
f 23//23 40//40 27//27
f 41//41 16//16 33//33
f 23//23 27//27 19//19
f 55//55 24//24 19//19
f 25//25 21//21 30//30
f 56//56 18//18 34//34
f 7//7 22//22 31//31
f 46//46 3//3 32//32
f 27//27 55//55 19//19
f 28//28 25//25 48//48
f 30//30 48//48 25//25
f 14//14 24//24 43//43
f 35//35 14//14 43//43
f 44//44 18//18 17//17
f 34//34 18//18 44//44
f 31//31 30//30 36//36
f 37//37 53//53 47//47
f 48//48 33//33 28//28
f 43//43 24//24 42//42
f 21//21 36//36 30//30
f 31//31 36//36 67//67
f 1//1 45//45 9//9
f 57//57 52//52 37//37
f 57//57 37//37 47//47
f 39//39 52//52 38//38
f 37//37 52//52 53//53
f 53//53 41//41 47//47
f 29//29 41//41 53//53
f 41//41 48//48 47//47
f 33//33 48//48 41//41
f 48//48 30//30 49//49
f 17//17 50//50 44//44
f 44//44 50//50 34//34
f 35//35 51//51 21//21
f 21//21 51//51 36//36
f 31//31 67//67 8//8
f 54//54 52//52 39//39
f 39//39 74//74 40//40
f 39//39 40//40 54//54
f 59//59 54//54 40//40
f 40//40 29//29 59//59
f 40//40 55//55 27//27
f 47//47 48//48 71//71
f 35//35 62//62 51//51
f 30//30 22//22 49//49
f 60//60 6//6 68//68
f 30//30 31//31 22//22
f 58//58 52//52 57//57
f 39//39 38//38 74//74
f 53//53 59//59 29//29
f 40//40 74//74 55//55
f 48//48 49//49 71//71
f 34//34 50//50 61//61
f 56//56 34//34 61//61
f 56//56 78//78 22//22
f 1//1 46//46 45//45
f 63//63 58//58 57//57
f 52//52 58//58 70//70
f 47//47 63//63 57//57
f 63//63 47//47 65//65
f 52//52 59//59 53//53
f 54//54 59//59 52//52
f 65//65 47//47 71//71
f 64//64 55//55 74//74
f 71//71 49//49 82//82
f 51//51 67//67 36//36
f 38//38 52//52 73//73
f 38//38 73//73 74//74
f 49//49 72//72 82//82
f 15//15 50//50 17//17
f 50//50 84//84 66//66
f 35//35 43//43 62//62
f 8//8 67//67 75//75
f 63//63 70//70 58//58
f 52//52 70//70 73//73
f 65//65 71//71 89//89
f 55//55 64//64 77//77
f 55//55 77//77 24//24
f 84//84 50//50 15//15
f 66//66 61//61 50//50
f 49//49 22//22 72//72
f 67//67 62//62 75//75
f 8//8 75//75 68//68
f 74//74 73//73 76//76
f 71//71 80//80 89//89
f 71//71 82//82 80//80
f 82//82 72//72 90//90
f 92//92 62//62 43//43
f 56//56 61//61 78//78
f 46//46 69//69 45//45
f 32//32 60//60 79//79
f 4//4 9//9 15//15
f 77//77 81//81 24//24
f 80//80 82//82 96//96
f 96//96 82//82 84//84
f 82//82 85//85 84//84
f 83//83 42//42 24//24
f 85//85 66//66 84//84
f 85//85 61//61 66//66
f 51//51 62//62 67//67
f 22//22 78//78 86//86
f 70//70 63//63 88//88
f 70//70 88//88 73//73
f 74//74 87//87 64//64
f 87//87 77//77 64//64
f 81//81 83//83 24//24
f 85//85 82//82 90//90
f 42//42 97//97 43//43
f 60//60 68//68 91//91
f 85//85 100//100 61//61
f 22//22 86//86 106//106
f 72//72 22//22 106//106
f 62//62 92//92 75//75
f 46//46 32//32 69//69
f 74//74 76//76 109//109
f 109//109 87//87 74//74
f 94//94 89//89 93//93
f 63//63 65//65 88//88
f 89//89 95//95 93//93
f 89//89 80//80 95//95
f 87//87 81//81 77//77
f 80//80 96//96 95//95
f 83//83 105//105 42//42
f 105//105 97//97 42//42
f 15//15 99//99 84//84
f 15//15 98//98 99//99
f 90//90 100//100 85//85
f 92//92 43//43 97//97
f 60//60 91//91 97//97
f 97//97 91//91 92//92
f 100//100 101//101 61//61
f 68//68 75//75 91//91
f 94//94 102//102 89//89
f 65//65 89//89 102//102
f 76//76 73//73 88//88
f 93//93 95//95 103//103
f 104//104 95//95 96//96
f 84//84 111//111 96//96
f 84//84 99//99 111//111
f 97//97 105//105 60//60
f 106//106 90//90 72//72
f 75//75 92//92 91//91
f 61//61 101//101 78//78
f 102//102 88//88 65//65
f 103//103 94//94 93//93
f 103//103 95//95 110//110
f 104//104 110//110 95//95
f 9//9 98//98 15//15
f 79//79 60//60 105//105
f 96//96 111//111 104//104
f 90//90 106//106 100//100
f 45//45 69//69 107//107
f 107//107 69//69 108//108
f 69//69 32//32 108//108
f 32//32 109//109 108//108
f 102//102 94//94 107//107
f 108//108 102//102 107//107
f 88//88 102//102 108//108
f 76//76 88//88 108//108
f 109//109 76//76 108//108
f 32//32 79//79 109//109
f 79//79 87//87 109//109
f 107//107 110//110 45//45
f 94//94 103//103 107//107
f 45//45 98//98 9//9
f 110//110 98//98 45//45
f 103//103 110//110 107//107
f 81//81 87//87 79//79
f 104//104 98//98 110//110
f 111//111 98//98 104//104
f 79//79 105//105 81//81
f 105//105 83//83 81//81
f 111//111 99//99 98//98
f 106//106 101//101 100//100
f 106//106 86//86 101//101
f 86//86 78//78 101//101
