# Blender 4.1.1
# www.blender.org
mtllib aa0364.mtl
o Liquid_Domain
v -8.134167 -8.755833 6.217273
v -8.476566 -9.103764 5.867520
v 8.134167 -8.755833 6.217273
v -8.472713 -9.099525 -5.868997
v 8.482397 -9.103346 5.864943
v 8.476856 -9.099191 -5.871127
v -8.134167 -8.755833 -6.217273
v 8.134167 -8.755833 -6.217273
v -8.462922 4.211990 -5.796304
v -8.116460 6.666407 6.199849
v -8.460512 7.024619 5.870214
v 8.433483 2.761185 -6.151310
v 8.350932 6.835731 6.201032
v -1.954928 -0.069380 -6.192690
v -5.533154 -1.551946 2.159112
v -5.437919 -1.723087 1.365343
v -6.689968 -1.008372 0.657477
v -5.018547 -0.148671 1.064396
v -0.055227 6.910978 6.198515
v -6.422000 0.113103 -1.833612
v -4.914942 -0.635205 -3.316447
v -6.350954 -0.650328 -3.852490
v -6.991031 2.905676 0.403919
v -5.564823 0.233742 -2.086995
v 8.470896 3.108807 -2.672188
v -1.605583 -0.141317 -2.050016
v -2.067388 0.091332 -5.165912
v -6.205924 2.167369 0.993184
v -1.363389 1.245215 -5.015776
v -5.960311 0.270146 -4.864626
v -1.695300 0.874983 -5.695781
v -2.769240 1.607040 -1.958648
v -1.581305 1.434335 0.196947
v -5.418139 1.777582 1.006911
v -6.963119 4.915766 -3.049541
v -5.589251 2.783533 -6.104452
v -3.782162 3.126438 -6.027964
v -2.075316 1.669480 4.037794
v -3.548984 2.260223 2.022742
v -8.452773 6.853717 0.395883
v -2.350041 0.878927 1.197411
v -5.119447 2.610410 -1.190798
v -1.262343 3.350434 -0.276456
v -5.323643 2.124283 -5.505969
v -0.456746 1.637738 -6.207839
v -7.990500 3.190685 -6.172748
v -7.231811 2.642063 -4.547044
v -3.848799 2.591419 -5.462372
v -3.958759 2.970799 -0.018849
v 6.287066 2.794170 -0.419393
v -2.410648 3.346128 -5.294531
v -7.146786 3.122011 -5.765141
v 4.978537 2.523896 -0.576854
v -1.280548 3.645488 -6.164020
v 3.145588 3.339328 -6.171649
v 4.757957 3.248975 2.454471
v -2.171319 3.371733 2.311973
v -5.174977 3.474831 1.242446
v 4.399097 3.133378 -2.260960
v 6.828147 3.713720 -2.252908
v 4.914692 3.198620 -4.982436
v 6.783020 6.718272 4.491696
v 4.132868 5.321402 -0.189267
v 7.634118 4.005414 -3.517151
v 7.495910 4.055243 -4.815556
v 8.433592 6.857858 1.290592
v -1.397419 4.370913 -2.086815
v 4.038727 4.505687 -4.925081
v 0.402436 4.646297 -5.631434
v 4.713147 4.881256 -6.118495
v -3.436629 4.332860 3.374058
v 0.043313 5.439556 1.647195
v -0.859837 5.152583 0.322405
v -1.350075 5.683561 -2.464111
v 7.534180 5.387152 -1.745790
v 2.210149 5.796815 -3.569471
v 4.685205 5.760149 -5.713227
v -1.274523 5.478174 -5.272563
v 7.816516 5.082488 -5.905061
v -3.457757 4.715324 4.724752
v 5.827971 5.510700 4.751033
v -6.907954 5.941432 2.367191
v -3.241196 5.491048 -2.390374
v -4.067879 5.097214 -3.999352
v -2.159320 4.852162 -4.891398
v -4.323513 6.695496 4.760892
v -1.496608 6.933263 4.595695
v -1.977143 5.595340 3.562570
v 5.865475 3.045255 3.173236
v 6.844636 6.891752 0.997854
v -3.335657 5.477933 1.765928
v 2.888825 4.817445 -5.312472
v 4.168177 5.059979 3.048296
v -3.510419 6.049906 2.224740
v -4.801245 6.029937 1.661170
v -6.518954 6.554945 -1.202169
v 0.224151 6.971644 -0.448667
v 3.435394 6.946302 -1.118143
v -4.122818 6.067633 -3.963257
v -8.040928 5.151638 -5.915856
v -5.743340 6.016515 4.346529
v -6.137750 5.551554 2.475298
v -4.939313 6.337935 2.516875
v -0.069606 7.048417 3.137328
v -7.815491 6.902425 -2.290581
v -2.268636 6.267747 -5.360027
v -1.783515 6.919649 2.019942
v 0.149123 5.665146 -4.931921
v 1.188118 6.977630 -3.354134
v -7.912517 7.040095 1.711088
v 8.072835 6.627734 -0.363600
v -0.471892 6.928503 -1.794510
v 6.428194 7.101570 5.738616
v -7.078527 6.952196 4.865613
v 1.155732 6.999476 3.166942
v 4.583035 6.919433 4.076740
v -0.469045 6.834355 1.068845
vn -0.2840 -0.2850 0.9155
vn -0.6219 -0.6510 0.4353
vn 0.2787 -0.2891 0.9158
vn -0.6225 -0.6507 -0.4348
vn 0.6223 -0.6517 0.4335
vn 0.6211 -0.6528 -0.4337
vn -0.2861 -0.2839 -0.9152
vn 0.2763 -0.2886 -0.9167
vn -0.8362 0.1486 -0.5280
vn -0.2789 0.2627 0.9237
vn -0.6127 0.6587 0.4368
vn 0.6218 0.1572 -0.7672
vn 0.5180 0.4871 0.7031
vn -0.0001 0.0956 -0.9954
vn -0.0733 0.4027 -0.9124
vn -0.3631 0.9316 0.0174
vn 0.8263 0.5595 -0.0641
vn -0.9845 -0.0115 -0.1752
vn -0.0009 0.6001 0.7999
vn 0.7176 0.6865 0.1170
vn -0.0823 0.9471 -0.3101
vn 0.5708 0.7946 0.2069
vn 0.9529 0.0927 -0.2889
vn -0.6488 0.6445 -0.4046
vn 0.9622 0.2427 -0.1233
vn -0.4103 0.7335 -0.5418
vn -0.3152 0.7042 0.6362
vn 0.4273 0.0787 -0.9007
vn -0.9845 0.1462 -0.0970
vn 0.3698 0.4430 0.8167
vn -0.2348 0.9292 -0.2852
vn 0.3874 0.6308 -0.6723
vn -0.7959 0.6004 -0.0779
vn -0.5244 0.4130 -0.7446
vn 0.9423 0.2453 -0.2277
vn 0.1005 0.7719 -0.6278
vn 0.2396 0.8773 -0.4159
vn -0.1091 0.1484 -0.9829
vn 0.6386 0.3219 -0.6990
vn -0.7751 0.6307 -0.0389
vn 0.0605 0.9954 -0.0744
vn -0.4919 0.7557 -0.4323
vn -0.9828 0.1843 -0.0057
vn 0.1416 0.4510 0.8812
vn -0.2338 0.0295 -0.9718
vn -0.1604 0.1326 -0.9781
vn 0.9596 0.2419 0.1435
vn 0.1137 0.4675 0.8767
vn 0.1715 0.9820 0.0793
vn -0.6419 0.7668 -0.0057
vn -0.9124 -0.0762 -0.4020
vn 0.6222 0.7570 -0.1996
vn 0.2899 0.9557 0.0512
vn -0.3118 0.1610 -0.9364
vn -0.0436 0.1770 -0.9832
vn 0.6504 0.6975 -0.3008
vn -0.2991 -0.1993 -0.9332
vn 0.0390 0.1194 -0.9921
vn 0.4501 0.8928 0.0148
vn -0.6268 0.7720 -0.1057
vn 0.1698 0.7412 0.6495
vn -0.8143 0.0068 -0.5804
vn 0.9050 0.4242 -0.0314
vn 0.2709 0.9509 -0.1494
vn 0.4229 0.7886 0.4464
vn 0.6972 0.7107 -0.0940
vn -0.9210 0.0486 0.3865
vn 0.4860 0.7079 0.5126
vn 0.0917 0.5474 -0.8318
vn -0.2015 0.3392 -0.9189
vn -0.0483 0.9302 0.3640
vn -0.6740 -0.0080 -0.7387
vn -0.8674 0.2961 0.4000
vn -0.5816 0.7750 0.2474
vn -0.0208 0.7373 -0.6752
vn 0.5864 0.6592 -0.4707
vn -0.4089 0.9125 -0.0105
vn -0.0870 0.6538 -0.7516
vn 0.5905 0.7110 -0.3817
vn -0.0565 0.6178 -0.7843
vn 0.0094 0.2348 -0.9720
vn 0.9040 0.3431 -0.2549
vn -0.5530 0.1474 0.8200
vn -0.7387 -0.6476 -0.1870
vn -0.7274 -0.2173 -0.6509
vn 0.0095 0.4805 -0.8769
vn -0.2391 0.9022 -0.3590
vn -0.6453 0.7582 0.0938
vn -0.2235 0.7651 -0.6039
vn -0.6156 0.7700 -0.1678
vn 0.0303 0.1871 -0.9819
vn 0.0484 0.8170 -0.5745
vn 0.6559 0.5476 -0.5195
vn -0.0902 0.9955 0.0286
vn -0.1528 0.5625 -0.8125
vn 0.8305 0.5360 -0.1516
vn -0.4149 0.8987 0.1423
vn 0.6504 0.7406 -0.1689
vn -0.7450 0.6621 -0.0817
vn -0.0340 0.6397 -0.7679
vn 0.3143 0.7506 -0.5812
vn -0.0322 0.7503 -0.6603
vn -0.0355 0.9961 0.0809
vn -0.1437 0.9892 0.0291
vn -0.1132 0.8804 -0.4604
vn 0.0155 0.5627 -0.8265
vn -0.3823 0.9173 -0.1113
vn 0.1179 0.7744 -0.6216
vn 0.1168 0.8555 -0.5045
vn -0.0030 0.9994 -0.0338
vn 0.5057 0.6355 -0.5834
vn -0.5722 0.8175 0.0664
vn 0.0238 0.9853 0.1693
vn 0.1838 0.9749 -0.1258
vn 0.1602 0.9834 -0.0856
vn 0.2801 0.7179 -0.6373
vn -0.4472 0.5780 -0.6825
s 1
usemtl Liquid_Domain_Material
f 2//2 5//5 1//1
f 1//1 5//5 3//3
f 5//5 2//2 6//6
f 6//6 2//2 4//4
f 6//6 4//4 7//7
f 8//8 6//6 7//7
f 4//4 9//9 7//7
f 1//1 10//10 11//11
f 2//2 1//1 11//11
f 2//2 11//11 9//9
f 12//12 6//6 8//8
f 13//13 3//3 5//5
f 8//8 7//7 14//14
f 2//2 9//9 4//4
f 15//15 16//16 17//17
f 5//5 6//6 25//25
f 14//14 7//7 36//36
f 3//3 13//13 1//1
f 18//18 16//16 15//15
f 1//1 13//13 19//19
f 20//20 17//17 16//16
f 8//8 14//14 45//45
f 24//24 16//16 18//18
f 16//16 24//24 20//20
f 6//6 12//12 25//25
f 24//24 21//21 20//20
f 21//21 22//22 20//20
f 21//21 26//26 27//27
f 27//27 22//22 21//21
f 7//7 46//46 36//36
f 17//17 28//28 15//15
f 17//17 23//23 28//28
f 26//26 21//21 32//32
f 26//26 29//29 27//27
f 27//27 30//30 22//22
f 30//30 47//47 22//22
f 27//27 29//29 31//31
f 27//27 44//44 30//30
f 27//27 48//48 44//44
f 15//15 28//28 34//34
f 34//34 18//18 15//15
f 34//34 24//24 18//18
f 32//32 33//33 26//26
f 22//22 35//35 20//20
f 21//21 42//42 32//32
f 35//35 22//22 47//47
f 31//31 48//48 27//27
f 14//14 36//36 37//37
f 14//14 31//31 45//45
f 38//38 41//41 39//39
f 38//38 33//33 41//41
f 32//32 41//41 33//33
f 17//17 20//20 23//23
f 33//33 43//43 26//26
f 21//21 24//24 42//42
f 26//26 43//43 29//29
f 45//45 31//31 29//29
f 7//7 9//9 46//46
f 14//14 37//37 31//31
f 23//23 20//20 35//35
f 31//31 37//37 48//48
f 11//11 40//40 9//9
f 41//41 32//32 39//39
f 39//39 32//32 49//49
f 34//34 42//42 24//24
f 44//44 47//47 30//30
f 8//8 45//45 55//55
f 8//8 55//55 12//12
f 38//38 39//39 57//57
f 39//39 34//34 28//28
f 42//42 34//34 49//49
f 39//39 49//49 34//34
f 32//32 42//42 49//49
f 51//51 29//29 43//43
f 44//44 36//36 52//52
f 45//45 29//29 51//51
f 36//36 46//46 52//52
f 89//89 50//50 56//56
f 50//50 53//53 56//56
f 44//44 52//52 47//47
f 44//44 48//48 36//36
f 45//45 51//51 54//54
f 45//45 54//54 55//55
f 57//57 33//33 38//38
f 39//39 28//28 58//58
f 33//33 57//57 43//43
f 56//56 53//53 59//59
f 53//53 50//50 59//59
f 60//60 59//59 50//50
f 43//43 67//67 51//51
f 25//25 12//12 64//64
f 64//64 12//12 65//65
f 36//36 48//48 37//37
f 89//89 62//62 50//50
f 39//39 58//58 57//57
f 56//56 59//59 63//63
f 43//43 73//73 67//67
f 59//59 60//60 61//61
f 64//64 61//61 60//60
f 5//5 25//25 66//66
f 23//23 102//102 28//28
f 28//28 102//102 58//58
f 62//62 90//90 50//50
f 90//90 60//60 50//50
f 75//75 64//64 60//60
f 67//67 85//85 51//51
f 61//61 76//76 59//59
f 68//68 76//76 61//61
f 47//47 52//52 35//35
f 64//64 65//65 61//61
f 65//65 12//12 79//79
f 55//55 54//54 69//69
f 55//55 92//92 70//70
f 55//55 70//70 12//12
f 19//19 10//10 1//1
f 13//13 5//5 66//66
f 56//56 93//93 89//89
f 91//91 57//57 58//58
f 57//57 72//72 43//43
f 56//56 63//63 93//93
f 72//72 73//73 43//43
f 90//90 75//75 60//60
f 67//67 73//73 74//74
f 59//59 76//76 63//63
f 66//66 25//25 75//75
f 61//61 65//65 77//77
f 85//85 78//78 51//51
f 77//77 68//68 61//61
f 51//51 78//78 54//54
f 78//78 69//69 54//54
f 69//69 92//92 55//55
f 12//12 70//70 79//79
f 101//101 80//80 71//71
f 62//62 89//89 81//81
f 23//23 82//82 102//102
f 57//57 117//117 72//72
f 64//64 75//75 25//25
f 85//85 83//83 84//84
f 67//67 83//83 85//85
f 76//76 68//68 92//92
f 9//9 100//100 46//46
f 52//52 46//46 100//100
f 70//70 92//92 68//68
f 80//80 88//88 71//71
f 80//80 87//87 88//88
f 103//103 101//101 71//71
f 95//95 58//58 102//102
f 117//117 57//57 91//91
f 91//91 58//58 95//95
f 67//67 74//74 83//83
f 35//35 52//52 100//100
f 77//77 65//65 79//79
f 108//108 69//69 78//78
f 77//77 70//70 68//68
f 79//79 70//70 77//77
f 81//81 89//89 93//93
f 71//71 94//94 103//103
f 115//115 93//93 63//63
f 96//96 82//82 23//23
f 97//97 73//73 72//72
f 23//23 35//35 96//96
f 66//66 75//75 111//111
f 63//63 76//76 98//98
f 99//99 84//84 83//83
f 84//84 99//99 106//106
f 92//92 69//69 76//76
f 85//85 84//84 106//106
f 85//85 106//106 78//78
f 101//101 86//86 80//80
f 102//102 101//101 103//103
f 116//116 81//81 93//93
f 91//91 95//95 94//94
f 63//63 98//98 115//115
f 97//97 74//74 73//73
f 35//35 105//105 96//96
f 35//35 100//100 105//105
f 74//74 78//78 83//83
f 108//108 78//78 74//74
f 9//9 105//105 100//100
f 78//78 106//106 83//83
f 108//108 76//76 69//69
f 80//80 86//86 87//87
f 81//81 116//116 62//62
f 101//101 102//102 82//82
f 107//107 88//88 104//104
f 88//88 94//94 71//71
f 95//95 102//102 103//103
f 94//94 95//95 103//103
f 91//91 94//94 107//107
f 91//91 107//107 117//117
f 97//97 112//112 74//74
f 108//108 109//109 76//76
f 83//83 106//106 99//99
f 101//101 114//114 86//86
f 87//87 104//104 88//88
f 101//101 82//82 114//114
f 93//93 115//115 116//116
f 94//94 88//88 107//107
f 114//114 82//82 96//96
f 117//117 97//97 72//72
f 90//90 111//111 75//75
f 40//40 105//105 9//9
f 74//74 112//112 108//108
f 109//109 108//108 112//112
f 76//76 109//109 98//98
f 11//11 10//10 19//19
f 19//19 13//13 113//113
f 19//19 87//87 11//11
f 86//86 114//114 11//11
f 87//87 86//86 11//11
f 19//19 115//115 87//87
f 113//113 116//116 19//19
f 116//116 115//115 19//19
f 113//113 62//62 116//116
f 13//13 66//66 113//113
f 11//11 110//110 40//40
f 114//114 110//110 11//11
f 115//115 104//104 87//87
f 113//113 90//90 62//62
f 66//66 90//90 113//113
f 114//114 96//96 110//110
f 104//104 117//117 107//107
f 115//115 117//117 104//104
f 66//66 111//111 90//90
f 115//115 98//98 117//117
f 110//110 105//105 40//40
f 98//98 97//97 117//117
f 96//96 105//105 110//110
f 98//98 109//109 97//97
f 97//97 109//109 112//112
