# Blender 4.1.1
# www.blender.org
mtllib aa0309.mtl
o Liquid_Domain
v 8.461776 -9.085550 6.177918
v -8.425453 -9.087846 -6.206321
v 8.458890 -9.091441 -6.208885
v 8.274414 1.927410 6.043738
v -8.482697 6.053769 -5.773840
v 8.424562 0.928067 0.438972
v 7.098250 -1.972669 6.160252
v 6.936865 -3.225930 4.881154
v 7.612579 -0.954752 3.879048
v 8.400033 0.138960 4.460313
v 8.372523 -0.229314 -2.581931
v 5.604675 -1.487194 4.675115
v 5.912336 0.575976 6.156671
v 4.116182 -1.715512 4.543173
v 2.165572 -1.879255 2.391649
v 6.457219 -0.230522 5.661810
v 7.992997 -0.491695 6.122503
v 4.765540 -0.960688 2.414508
v 4.830988 -0.936339 0.380458
v 2.453873 -0.947328 0.669042
v 7.699856 0.614096 4.937545
v 3.553083 0.358793 4.786494
v 6.905806 -0.428933 -1.475277
v 1.062536 3.922982 -6.195424
v -8.470774 -9.090514 6.208962
v -2.277178 7.011001 6.185881
v 6.405484 0.428503 1.959482
v 7.953937 1.102090 -0.673421
v 6.294366 1.376975 5.420897
v 7.829684 0.066324 2.472683
v 2.552840 1.342824 1.290351
v 1.701674 0.028514 3.528421
v 1.194955 1.927074 3.403550
v 6.787238 0.736648 0.149708
v 1.500743 1.096253 5.206167
v 4.654136 1.538511 -0.222555
v 6.426888 1.054003 -2.497725
v 7.853106 1.753553 3.562608
v 7.821795 2.224351 2.323731
v 1.020047 3.229762 4.980152
v -8.452886 6.901560 -0.168583
v -6.292540 1.027474 -0.362145
v 8.349772 4.433862 -6.145022
v 8.076765 1.933803 -1.477912
v 8.105336 1.835031 -2.661962
v 7.520056 6.891650 -6.115286
v 6.790724 4.704359 6.036732
v -4.191257 2.518257 0.504450
v -5.732289 2.672696 -1.499985
v 0.799621 1.742065 -3.463836
v 4.511246 2.508373 -3.750937
v 5.316866 2.855094 -4.403573
v 8.022655 1.779123 -3.583851
v 3.485167 2.411661 -4.911164
v -1.591335 4.703755 -6.074103
v 7.614310 3.003329 5.865639
v 8.379140 3.985524 5.626614
v -6.357336 3.069981 0.833149
v -6.553913 3.391420 -0.496574
v 8.008974 3.438061 -3.181879
v -0.071049 3.121989 -2.522793
v 0.703538 3.326158 -5.183027
v 2.340615 2.758183 0.603993
v 2.583976 6.059672 6.160663
v -1.029808 3.493438 4.528116
v 8.197220 3.495864 1.722712
v -4.773933 3.938070 0.693337
v 0.016791 3.625392 -0.492349
v 2.336149 3.782754 -1.157862
v 7.951989 4.269390 -5.104581
v 2.519508 4.213705 -4.421316
v -3.912600 3.248243 -6.176722
v 2.999387 4.368500 5.191840
v 4.542801 4.700567 4.705765
v -1.155642 3.281462 3.311084
v 8.025324 5.284176 4.468769
v 8.037810 5.777646 -2.865643
v 7.389697 6.051742 3.974860
v -4.969881 4.003053 0.107019
v -4.141549 3.898191 -2.547211
v 5.470343 6.528347 -5.613976
v 7.816599 6.612426 5.849624
v -1.600342 5.701558 3.925758
v 0.226733 5.173074 0.725230
v 8.022688 4.559944 -1.004066
v -6.421194 3.986862 -2.166033
v -4.670492 4.884496 -1.563614
v -5.299830 4.448695 -3.300784
v 1.200775 5.453159 -2.729887
v -3.880430 4.485934 -5.522712
v -5.877373 4.483628 1.389059
v -6.518237 4.482756 -0.547086
v -7.046486 6.166486 -4.171810
v -1.698999 5.166920 -4.039225
v -2.619700 5.348913 -5.377293
v 2.623636 5.632069 4.594924
v 1.084696 5.309579 0.930144
v -2.549944 6.130147 -2.044431
v 3.063559 5.977434 -5.501290
v -8.240308 7.013703 -6.069315
v -4.589428 5.788521 -5.963252
v -8.408059 7.009620 6.193817
v 3.990873 6.251209 4.448413
v 8.119707 6.354043 3.222939
v -6.723222 6.918327 2.585334
v -6.563432 6.463861 -2.599387
v 8.145821 5.441545 -4.266069
v 8.348491 6.839242 5.551726
v 0.993611 5.561271 5.056252
v 0.975601 6.757826 3.323253
v 8.133747 6.509977 -3.899225
v 7.614316 6.151095 -4.167641
v 2.052890 5.671388 -6.019022
v 4.119415 5.785573 5.645633
v -0.544387 6.680989 4.171135
v -2.983517 7.025219 1.292740
v -5.757372 6.666609 -4.734049
v 7.380006 6.865923 -5.468656
v 0.839431 6.689820 5.716232
v 0.476328 6.981910 0.627614
v -7.421507 7.120042 -1.388280
v 1.233757 7.110279 -4.494062
v 1.707308 6.838031 -3.286500
vn 0.5047 -0.5210 0.6884
vn -0.5009 -0.5233 -0.6893
vn 0.5042 -0.5215 -0.6884
vn 0.4076 0.0958 0.9081
vn -0.9612 0.2381 -0.1394
vn 0.9286 0.3525 -0.1163
vn -0.0299 0.2135 0.9765
vn -0.0984 0.9846 0.1443
vn -0.5626 0.7265 0.3946
vn 0.7142 0.3730 -0.5923
vn 0.8806 0.3899 0.2693
vn 0.2817 0.9586 -0.0419
vn 0.0912 0.0431 0.9949
vn 0.2242 0.7826 -0.5807
vn 0.5184 0.8551 0.0085
vn 0.6623 -0.1804 -0.7272
vn -0.1296 -0.0203 0.9914
vn -0.4910 0.8705 0.0348
vn 0.1627 0.7987 0.5794
vn 0.4459 0.2944 0.8453
vn -0.9096 0.0784 -0.4080
vn 0.2244 0.4614 -0.8584
vn 0.0466 0.9658 0.2551
vn -0.0086 0.0521 -0.9986
vn -0.5020 -0.5232 0.6886
vn 0.0409 0.6164 0.7863
vn -0.2954 0.9443 0.1449
vn 0.2688 0.4743 -0.8383
vn 0.5209 0.1559 -0.8393
vn -0.3414 0.8139 0.4702
vn 0.6897 0.1206 0.7140
vn 0.7705 0.5019 -0.3929
vn 0.8470 0.5256 0.0793
vn -0.7875 -0.3891 -0.4781
vn 0.4943 0.3670 -0.7880
vn 0.6574 0.4683 0.5904
vn 0.4411 0.6624 0.6055
vn -0.0526 0.1232 -0.9910
vn 0.0276 0.6410 0.7671
vn 0.3599 0.2062 -0.9099
vn -0.7356 0.6772 0.0177
vn 0.3168 0.9414 0.1157
vn 0.6895 0.1600 -0.7064
vn 0.0097 -0.6187 0.7856
vn 0.0399 -0.8691 -0.4931
vn 0.4047 0.6491 -0.6441
vn 0.8172 0.4473 0.3635
vn -0.8507 0.3404 -0.4005
vn -0.0440 -0.0442 0.9981
vn 0.3528 0.9083 -0.2248
vn 0.0915 0.9856 0.1424
vn -0.0944 0.6079 0.7884
vn 0.4593 0.5417 0.7040
vn -0.0834 0.5942 0.8000
vn -0.0751 0.5118 -0.8558
vn -0.8187 0.0717 0.5698
vn 0.9898 -0.1080 -0.0933
vn 0.6221 0.0407 -0.7819
vn 0.6926 -0.6082 0.3877
vn -0.0482 -0.0652 -0.9967
vn 0.8697 0.4111 -0.2730
vn 0.4161 -0.0463 0.9081
vn 0.4712 0.7336 0.4898
vn 0.1473 0.4996 0.8536
vn 0.5561 0.4628 -0.6904
vn 0.0541 -0.5416 -0.8389
vn -0.8535 0.2226 -0.4711
vn 0.7986 0.5375 0.2707
vn 0.2380 0.9679 0.0805
vn 0.5257 0.3510 0.7749
vn 0.4633 -0.2629 0.8463
vn 0.0168 0.1109 -0.9937
vn -0.0650 -0.2273 -0.9717
vn 0.2393 0.0179 -0.9708
vn 0.8036 0.5847 0.1112
vn 0.0272 -0.9635 0.2663
vn 0.0001 0.9028 -0.4300
vn -0.9679 0.2472 -0.0457
vn -0.1041 0.9320 0.3473
vn -0.2512 0.9153 -0.3148
vn -0.1688 0.7628 0.6242
vn -0.3421 0.4248 0.8381
vn 0.9102 -0.3688 -0.1884
vn 0.8965 -0.4430 -0.0080
vn -0.0098 0.3285 0.9444
vn 0.4901 0.8715 -0.0184
vn -0.3574 0.9042 -0.2339
vn 0.3499 0.7927 0.4991
vn 0.8592 -0.3210 0.3985
vn 0.3313 0.8635 -0.3802
vn 0.3167 0.4840 -0.8158
vn 0.6670 0.7435 -0.0477
vn 0.2537 0.9161 0.3104
vn -0.4379 0.8420 -0.3151
vn -0.1993 0.9466 -0.2535
vn -0.1573 0.2073 -0.9656
vn 0.7135 -0.6112 -0.3427
vn -0.5561 0.7426 -0.3732
vn 0.2588 0.8952 0.3627
vn -0.4682 0.6943 -0.5465
vn 0.5675 0.5384 -0.6230
vn -0.5010 0.5276 0.6860
vn 0.2295 0.6838 -0.6927
vn 0.1823 0.6761 -0.7139
vn 0.0734 0.9672 -0.2433
vn 0.8579 0.4803 -0.1826
vn 0.7908 0.3396 0.5091
vn 0.5072 0.7867 0.3519
vn 0.0930 0.2027 -0.9748
vn 0.7981 0.2032 0.5672
vn 0.7583 0.3236 0.5659
vn 0.7668 0.2908 0.5722
vn -0.1124 0.4810 -0.8695
vn 0.3822 0.9230 0.0448
vn 0.6032 -0.7666 0.2200
vn -0.2785 0.9135 -0.2967
vn 0.3810 0.8401 0.3861
vn 0.2996 0.6490 0.6993
vn 0.2315 0.9652 -0.1219
vn 0.6335 0.7669 -0.1025
vn 0.3192 0.9471 -0.0341
vn -0.0414 0.9055 -0.4224
vn 0.6962 0.6204 0.3612
s 1
usemtl Liquid_Domain_Material
f 3//3 25//25 2//2
f 1//1 25//25 3//3
f 2//2 25//25 5//5
f 1//1 3//3 6//6
f 1//1 7//7 25//25
f 7//7 1//1 17//17
f 1//1 10//10 4//4
f 17//17 1//1 4//4
f 7//7 9//9 8//8
f 8//8 9//9 12//12
f 10//10 1//1 6//6
f 6//6 3//3 11//11
f 7//7 8//8 12//12
f 7//7 13//13 25//25
f 3//3 2//2 24//24
f 7//7 16//16 13//13
f 14//14 18//18 15//15
f 19//19 15//15 18//18
f 19//19 20//20 15//15
f 16//16 7//7 12//12
f 17//17 21//21 7//7
f 7//7 21//21 9//9
f 16//16 12//12 14//14
f 15//15 22//22 14//14
f 18//18 23//23 19//19
f 21//21 10//10 9//9
f 14//14 27//27 18//18
f 30//30 10//10 6//6
f 19//19 31//31 20//20
f 27//27 23//23 18//18
f 28//28 23//23 27//27
f 11//11 3//3 43//43
f 25//25 13//13 26//26
f 21//21 17//17 16//16
f 14//14 22//22 29//29
f 12//12 27//27 14//14
f 12//12 9//9 27//27
f 27//27 9//9 30//30
f 10//10 30//30 9//9
f 16//16 17//17 13//13
f 14//14 29//29 16//16
f 32//32 22//22 15//15
f 32//32 15//15 33//33
f 15//15 20//20 33//33
f 34//34 28//28 27//27
f 28//28 6//6 23//23
f 6//6 11//11 23//23
f 17//17 4//4 13//13
f 22//22 35//35 29//29
f 33//33 20//20 31//31
f 27//27 30//30 34//34
f 36//36 31//31 19//19
f 23//23 11//11 37//37
f 13//13 4//4 29//29
f 16//16 29//29 4//4
f 16//16 4//4 21//21
f 22//22 32//32 35//35
f 10//10 21//21 38//38
f 35//35 32//32 33//33
f 39//39 30//30 6//6
f 19//19 37//37 36//36
f 19//19 23//23 37//37
f 53//53 37//37 11//11
f 35//35 33//33 40//40
f 30//30 39//39 34//34
f 41//41 5//5 25//25
f 53//53 11//11 43//43
f 24//24 43//43 3//3
f 4//4 56//56 21//21
f 56//56 38//38 21//21
f 4//4 10//10 38//38
f 34//34 39//39 28//28
f 52//52 51//51 37//37
f 52//52 37//37 53//53
f 13//13 29//29 47//47
f 4//4 38//38 57//57
f 36//36 63//63 31//31
f 39//39 6//6 28//28
f 48//48 49//49 42//42
f 51//51 54//54 50//50
f 24//24 2//2 72//72
f 24//24 46//46 43//43
f 13//13 64//64 26//26
f 13//13 47//47 64//64
f 63//63 33//33 31//31
f 42//42 58//58 48//48
f 58//58 42//42 59//59
f 69//69 63//63 36//36
f 42//42 49//49 59//59
f 36//36 37//37 69//69
f 37//37 51//51 69//69
f 44//44 60//60 45//45
f 85//85 44//44 45//45
f 51//51 50//50 61//61
f 62//62 61//61 50//50
f 62//62 50//50 54//54
f 56//56 57//57 38//38
f 40//40 33//33 75//75
f 75//75 33//33 63//63
f 44//44 85//85 60//60
f 51//51 52//52 54//54
f 24//24 72//72 55//55
f 29//29 35//35 73//73
f 40//40 75//75 65//65
f 63//63 68//68 75//75
f 63//63 69//69 68//68
f 59//59 49//49 67//67
f 48//48 67//67 49//49
f 61//61 69//69 51//51
f 53//53 70//70 52//52
f 43//43 70//70 53//53
f 54//54 71//71 62//62
f 26//26 102//102 25//25
f 35//35 40//40 73//73
f 29//29 73//73 74//74
f 29//29 74//74 47//47
f 48//48 58//58 91//91
f 91//91 67//67 48//48
f 58//58 79//79 91//91
f 79//79 58//58 59//59
f 79//79 59//59 67//67
f 61//61 68//68 69//69
f 85//85 77//77 60//60
f 40//40 65//65 109//109
f 76//76 78//78 66//66
f 45//45 60//60 77//77
f 71//71 89//89 62//62
f 52//52 70//70 81//81
f 4//4 82//82 56//56
f 82//82 4//4 57//57
f 57//57 56//56 76//76
f 56//56 82//82 76//76
f 75//75 83//83 65//65
f 84//84 75//75 68//68
f 92//92 91//91 79//79
f 87//87 92//92 79//79
f 87//87 86//86 92//92
f 80//80 86//86 87//87
f 45//45 77//77 85//85
f 86//86 80//80 88//88
f 94//94 90//90 80//80
f 61//61 62//62 89//89
f 80//80 90//90 88//88
f 52//52 81//81 54//54
f 54//54 81//81 99//99
f 2//2 5//5 100//100
f 72//72 2//2 100//100
f 72//72 90//90 55//55
f 40//40 109//109 73//73
f 65//65 83//83 109//109
f 61//61 89//89 68//68
f 92//92 86//86 93//93
f 93//93 86//86 88//88
f 90//90 94//94 95//95
f 101//101 90//90 72//72
f 24//24 55//55 113//113
f 46//46 24//24 113//113
f 47//47 114//114 64//64
f 114//114 47//47 74//74
f 25//25 102//102 41//41
f 96//96 74//74 73//73
f 74//74 96//96 103//103
f 66//66 78//78 104//104
f 84//84 83//83 75//75
f 92//92 121//121 91//91
f 67//67 98//98 79//79
f 87//87 79//79 98//98
f 80//80 87//87 98//98
f 80//80 98//98 94//94
f 101//101 88//88 90//90
f 99//99 71//71 54//54
f 90//90 95//95 55//55
f 100//100 101//101 72//72
f 73//73 109//109 96//96
f 103//103 114//114 74//74
f 76//76 66//66 108//108
f 105//105 91//91 121//121
f 121//121 92//92 106//106
f 92//92 93//93 106//106
f 101//101 117//117 88//88
f 55//55 95//95 94//94
f 70//70 118//118 81//81
f 43//43 118//118 70//70
f 46//46 118//118 43//43
f 82//82 57//57 108//108
f 57//57 76//76 108//108
f 76//76 82//82 78//78
f 110//110 83//83 84//84
f 91//91 105//105 116//116
f 91//91 116//116 67//67
f 120//120 97//97 84//84
f 84//84 68//68 120//120
f 111//111 112//112 107//107
f 117//117 93//93 88//88
f 55//55 94//94 113//113
f 71//71 99//99 123//123
f 64//64 119//119 26//26
f 83//83 119//119 109//109
f 96//96 109//109 119//119
f 114//114 96//96 119//119
f 83//83 115//115 119//119
f 114//114 103//103 96//96
f 108//108 66//66 104//104
f 110//110 115//115 83//83
f 110//110 84//84 97//97
f 120//120 68//68 89//89
f 122//122 98//98 116//116
f 71//71 123//123 89//89
f 122//122 94//94 98//98
f 94//94 122//122 113//113
f 112//112 111//111 107//107
f 99//99 81//81 113//113
f 46//46 113//113 81//81
f 114//114 119//119 64//64
f 115//115 26//26 119//119
f 108//108 78//78 82//82
f 110//110 97//97 120//120
f 116//116 98//98 67//67
f 120//120 89//89 123//123
f 93//93 100//100 5//5
f 117//117 100//100 93//93
f 99//99 122//122 123//123
f 122//122 99//99 113//113
f 117//117 101//101 100//100
f 26//26 116//116 102//102
f 105//105 41//41 102//102
f 116//116 105//105 102//102
f 26//26 115//115 110//110
f 104//104 78//78 108//108
f 110//110 120//120 26//26
f 120//120 116//116 26//26
f 105//105 121//121 41//41
f 123//123 116//116 120//120
f 41//41 121//121 5//5
f 123//123 122//122 116//116
f 106//106 93//93 121//121
f 93//93 5//5 121//121
f 81//81 118//118 46//46
