# Blender 4.1.1
# www.blender.org
mtllib aa0347.mtl
o Liquid_Domain
v -8.134167 -8.755833 6.217273
v -8.482376 -9.103558 5.865852
v -8.487272 -8.755834 -5.864167
v 8.466934 -9.095992 6.211376
v -8.135213 -9.100952 -6.214826
v 8.477292 -9.099805 -5.870322
v 8.134167 -8.755833 -6.217273
v -8.433454 6.526268 -1.621626
v -1.616256 0.066669 -6.185935
v -6.018484 -2.257147 0.286551
v -4.382912 -0.660143 0.917272
v -6.974850 -1.253148 -1.303635
v -6.021263 -1.674592 -1.992687
v -5.276687 -1.893497 -3.220583
v -2.231598 -0.812020 -0.617140
v -2.730419 -0.879449 -3.385712
v -5.882853 -0.538212 -3.733019
v -6.299486 -1.764235 0.957055
v -2.401400 -0.670660 1.189574
v -2.980973 0.476709 -5.449641
v -2.505504 1.401759 -6.094671
v 8.383813 7.149513 6.015184
v -6.357758 0.919456 1.179227
v 8.471973 2.541741 -5.778430
v -1.913094 0.505451 -4.744245
v 7.867908 2.428857 -6.184843
v -1.841745 1.462873 1.486505
v -1.564579 1.933228 0.539548
v -7.011174 4.431895 0.298412
v -0.753492 2.565547 -1.060102
v -6.617246 1.693151 -2.446015
v -3.842977 1.433838 0.510310
v -6.892426 2.062733 -4.475671
v 0.256994 1.859276 -6.082770
v 8.457727 4.571438 -0.445704
v 4.621030 3.694717 -6.173635
v -0.019545 2.731311 -5.049204
v -1.998399 2.755924 -5.790583
v -6.396411 4.623533 0.992659
v -2.429774 3.652436 -0.349605
v 0.626733 3.438365 -2.668110
v -6.491272 2.887478 -5.136499
v -8.356764 5.346798 -6.116807
v -8.440151 6.999693 6.173739
v 8.075561 2.625789 -2.775243
v 5.146592 6.993998 6.146666
v -4.870540 4.098725 -0.421225
v 6.122173 2.588643 -1.450232
v 7.755258 3.609052 -1.768788
v 7.250722 2.636693 -4.738907
v -8.328312 6.277055 -4.160692
v 5.462400 2.988209 -5.887142
v 6.483776 3.272346 -5.639583
v 7.176368 5.801165 6.186027
v 5.680371 2.788834 2.731900
v 6.702914 3.422287 1.636619
v -1.089159 4.186829 -1.028282
v -7.572163 6.491340 -1.996874
v 7.859058 4.240260 -5.757921
v -4.420657 3.498544 -5.627914
v 0.988046 4.463270 -6.017967
v 5.019827 3.579734 -2.957105
v 4.599947 4.702596 -5.648141
v 0.135663 4.745430 -4.723095
v 5.896742 3.885964 -5.999177
v 7.051757 4.471976 3.371734
v 5.898642 3.952468 0.512204
v 6.058098 4.666241 -0.919449
v 0.621712 4.768069 -3.146938
v -6.350754 4.733047 -5.746073
v -5.934739 3.518261 -6.179284
v 3.411490 4.956306 -0.477699
v 7.346197 4.544263 -3.874088
v 7.572761 5.242922 4.490306
v 4.507305 4.248436 2.243998
v 2.040719 4.896063 -0.394768
v 8.395035 5.150549 -3.566763
v 3.778552 4.720797 -4.115660
v 5.976322 4.995937 -5.297964
v 6.767097 6.492307 -6.072861
v 3.150135 5.099603 2.423450
v 8.131449 6.003493 -0.357314
v 0.479494 5.818327 -1.617836
v 2.578265 5.197642 -3.338912
v 6.727536 5.449214 -3.118525
v -7.331626 5.807119 -5.440980
v 7.041225 5.823896 -4.836596
v 4.146315 5.583146 4.014313
v 0.936201 5.489925 0.112891
v -1.768886 6.858282 -0.743014
v -0.131099 6.112388 -4.129624
v 6.020218 5.448257 -4.471943
v 5.460918 5.707949 -5.826326
v -0.153483 6.283626 -6.134325
v 2.257122 5.582564 4.218144
v 1.521830 5.505527 2.373502
v 8.093976 6.919618 1.780607
v 7.942168 6.416563 -3.371666
v 6.125657 6.468143 -4.201933
v 0.242534 6.974675 6.157675
v 7.562610 6.474865 5.316609
v 0.624796 6.948002 4.847622
v 1.995791 6.553815 -0.817335
v 1.149127 5.954556 -4.955617
v -1.235253 6.385242 0.352631
v -7.590078 7.098135 2.049366
v 5.251125 6.962005 4.569283
v -6.143581 7.030572 3.146300
v -4.201474 6.983407 0.414939
v -0.849840 7.017721 1.810848
v 0.337865 7.013161 -1.941172
v 1.925658 7.070652 -3.515283
vn -0.2806 -0.2828 0.9172
vn -0.6247 -0.6517 0.4301
vn -0.9003 -0.3016 -0.3138
vn 0.5026 -0.5219 0.6892
vn -0.3503 -0.5591 -0.7515
vn 0.6253 -0.6488 -0.4337
vn 0.2878 -0.2776 -0.9166
vn -0.7012 0.7065 -0.0958
vn -0.0450 0.3190 -0.9467
vn 0.0135 0.9860 -0.1661
vn -0.1352 0.4516 -0.8819
vn 0.8846 0.4365 0.1644
vn 0.2980 0.9385 0.1745
vn 0.1735 0.8206 0.5445
vn -0.6195 0.7742 -0.1295
vn -0.4558 0.8134 0.3614
vn 0.5471 0.4850 0.6822
vn 0.3415 0.4885 -0.8029
vn -0.3530 0.5905 -0.7257
vn 0.2871 0.6082 0.7400
vn 0.6570 0.0825 -0.7493
vn 0.2914 0.7164 0.6339
vn 0.3374 -0.0005 -0.9414
vn 0.8582 0.1722 -0.4836
vn -0.5901 0.8071 0.0197
vn 0.2631 0.0804 -0.9614
vn -0.3487 -0.1961 -0.9165
vn -0.8751 -0.1548 -0.4585
vn 0.9312 0.1914 -0.3104
vn -0.8985 0.1874 -0.3970
vn 0.9865 0.1350 0.0924
vn 0.0373 -0.3146 -0.9485
vn 0.7635 0.3595 0.5365
vn -0.3644 0.2749 -0.8897
vn 0.9944 0.0910 -0.0544
vn 0.0063 0.1564 -0.9877
vn -0.8775 0.3897 -0.2795
vn 0.8435 0.5343 0.0546
vn 0.0310 0.3374 -0.9408
vn -0.1200 -0.3411 -0.9323
vn -0.9205 0.2267 -0.3183
vn 0.3107 0.4313 0.8470
vn -0.4315 0.4170 -0.7999
vn -0.5017 0.5239 0.6884
vn -0.5453 0.8150 -0.1958
vn 0.0877 0.6327 0.7694
vn -0.4066 -0.1086 -0.9071
vn 0.1368 0.7915 -0.5956
vn 0.0321 0.1457 -0.9888
vn -0.2969 0.8966 0.3287
vn -0.5357 0.8213 -0.1963
vn 0.5463 0.7698 0.3301
vn -0.7090 0.4024 0.5791
vn 0.0450 0.2293 0.9723
vn 0.1137 0.9482 -0.2967
vn -0.7544 0.4722 0.4559
vn -0.5713 -0.1162 -0.8125
vn 0.6174 0.7801 -0.1014
vn 0.8953 0.4318 0.1092
vn 0.3755 0.8106 0.4493
vn -0.2170 0.2815 -0.9347
vn 0.6008 0.7990 0.0231
vn -0.0211 0.9705 -0.2401
vn -0.9882 -0.1426 -0.0553
vn 0.1093 -0.4614 -0.8804
vn -0.8675 0.4975 -0.0074
vn -0.2551 0.9563 0.1426
vn -0.8950 0.4139 -0.1663
vn -0.9942 -0.1077 -0.0064
vn 0.6198 0.7612 -0.1911
vn 0.1260 0.2150 -0.9685
vn 0.2055 0.9765 0.0644
vn -0.0375 -0.8340 -0.5505
vn -0.7550 0.3063 -0.5798
vn 0.5977 0.7978 -0.0790
vn 0.4781 0.8288 0.2906
vn 0.8594 -0.1799 -0.4786
vn 0.5120 0.8374 0.1913
vn -0.2552 -0.3671 0.8945
vn 0.2099 0.6925 -0.6902
vn 0.3310 0.9042 -0.2701
vn 0.3427 0.9384 -0.0448
vn -0.6842 -0.0511 -0.7275
vn 0.6409 0.7492 -0.1674
vn -0.9457 0.2252 0.2344
vn 0.5187 0.7707 -0.3702
vn 0.9823 0.1414 -0.1232
vn 0.0466 0.6083 -0.7924
vn 0.4406 0.7895 0.4272
vn -0.1946 0.7126 -0.6741
vn -0.8816 0.4655 -0.0781
vn -0.7236 -0.6492 0.2345
vn -0.7268 0.3612 -0.5842
vn -0.3350 0.4449 -0.8305
vn 0.1615 0.7473 -0.6445
vn 0.3961 0.8994 -0.1850
vn 0.1347 0.9824 -0.1295
vn 0.4078 0.9127 -0.0257
vn -0.5287 0.7948 0.2978
vn 0.0051 0.6088 0.7933
vn -0.3663 0.9300 -0.0299
vn 0.1470 0.9660 -0.2128
vn 0.6142 0.6185 0.4901
vn 0.5294 0.6801 -0.5073
vn 0.6748 0.7358 -0.0581
vn 0.1471 0.9441 -0.2950
vn 0.1214 0.7722 -0.6236
vn -0.0005 0.9849 -0.1729
vn -0.3610 0.7674 -0.5299
vn 0.3208 0.9229 -0.2130
vn -0.4657 0.8713 -0.1548
vn 0.4429 0.8185 -0.3659
s 1
usemtl Liquid_Domain_Material
f 2//2 4//4 1//1
f 5//5 2//2 3//3
f 4//4 2//2 5//5
f 6//6 4//4 5//5
f 6//6 5//5 7//7
f 2//2 1//1 44//44
f 2//2 8//8 3//3
f 24//24 6//6 7//7
f 5//5 71//71 9//9
f 18//18 11//11 10//10
f 12//12 18//18 10//10
f 4//4 6//6 35//35
f 10//10 11//11 13//13
f 13//13 12//12 10//10
f 7//7 5//5 26//26
f 26//26 24//24 7//7
f 15//15 14//14 13//13
f 16//16 14//14 15//15
f 17//17 12//12 13//13
f 17//17 13//13 14//14
f 19//19 15//15 11//11
f 15//15 13//13 11//11
f 16//16 17//17 14//14
f 12//12 17//17 31//31
f 20//20 17//17 16//16
f 9//9 71//71 21//21
f 11//11 18//18 23//23
f 35//35 6//6 24//24
f 15//15 25//25 16//16
f 20//20 16//16 25//25
f 11//11 23//23 32//32
f 19//19 11//11 27//27
f 11//11 32//32 27//27
f 28//28 19//19 27//27
f 19//19 28//28 15//15
f 18//18 12//12 29//29
f 25//25 15//15 30//30
f 30//30 15//15 28//28
f 17//17 20//20 33//33
f 9//9 20//20 25//25
f 9//9 25//25 34//34
f 21//21 20//20 9//9
f 18//18 29//29 23//23
f 31//31 17//17 33//33
f 9//9 34//34 36//36
f 5//5 9//9 36//36
f 20//20 60//60 33//33
f 33//33 60//60 42//42
f 25//25 37//37 34//34
f 5//5 36//36 26//26
f 23//23 39//39 32//32
f 32//32 40//40 27//27
f 40//40 28//28 27//27
f 12//12 31//31 29//29
f 41//41 37//37 25//25
f 20//20 38//38 60//60
f 8//8 43//43 3//3
f 21//21 38//38 20//20
f 5//5 3//3 43//43
f 71//71 5//5 43//43
f 30//30 41//41 25//25
f 35//35 24//24 45//45
f 45//45 50//50 48//48
f 36//36 34//34 61//61
f 26//26 52//52 53//53
f 32//32 47//47 40//40
f 45//45 49//49 35//35
f 45//45 48//48 49//49
f 50//50 53//53 52//52
f 24//24 26//26 59//59
f 21//21 71//71 38//38
f 4//4 54//54 46//46
f 22//22 4//4 35//35
f 39//39 47//47 32//32
f 28//28 57//57 30//30
f 31//31 33//33 58//58
f 48//48 50//50 62//62
f 50//50 52//52 62//62
f 51//51 43//43 8//8
f 50//50 45//45 59//59
f 59//59 45//45 24//24
f 59//59 53//53 50//50
f 37//37 61//61 34//34
f 38//38 71//71 60//60
f 26//26 36//36 52//52
f 26//26 53//53 65//65
f 26//26 65//65 80//80
f 55//55 66//66 56//56
f 2//2 44//44 8//8
f 55//55 67//67 75//75
f 56//56 67//67 55//55
f 23//23 29//29 39//39
f 28//28 40//40 57//57
f 48//48 68//68 49//49
f 31//31 58//58 29//29
f 41//41 69//69 37//37
f 62//62 52//52 63//63
f 42//42 60//60 70//70
f 64//64 61//61 37//37
f 65//65 52//52 36//36
f 26//26 80//80 59//59
f 55//55 74//74 66//66
f 75//75 88//88 55//55
f 48//48 67//67 68//68
f 48//48 62//62 67//67
f 57//57 41//41 30//30
f 41//41 57//57 69//69
f 78//78 72//72 62//62
f 78//78 62//62 63//63
f 79//79 63//63 52//52
f 52//52 65//65 79//79
f 53//53 79//79 65//65
f 36//36 61//61 63//63
f 4//4 100//100 1//1
f 46//46 100//100 4//4
f 55//55 88//88 107//107
f 55//55 107//107 74//74
f 75//75 67//67 72//72
f 67//67 62//62 72//72
f 73//73 49//49 68//68
f 58//58 33//33 86//86
f 37//37 69//69 64//64
f 33//33 42//42 86//86
f 53//53 59//59 79//79
f 60//60 71//71 70//70
f 4//4 22//22 54//54
f 75//75 81//81 88//88
f 66//66 67//67 56//56
f 72//72 76//76 75//75
f 40//40 47//47 90//90
f 57//57 40//40 111//111
f 35//35 49//49 77//77
f 49//49 73//73 77//77
f 64//64 69//69 91//91
f 78//78 63//63 84//84
f 70//70 86//86 42//42
f 63//63 61//61 84//84
f 36//36 63//63 80//80
f 65//65 36//36 80//80
f 100//100 44//44 1//1
f 81//81 75//75 76//76
f 81//81 76//76 89//89
f 68//68 67//67 82//82
f 83//83 69//69 57//57
f 72//72 84//84 76//76
f 68//68 85//85 73//73
f 72//72 78//78 84//84
f 92//92 73//73 85//85
f 92//92 87//87 73//73
f 77//77 73//73 87//87
f 61//61 64//64 94//94
f 61//61 104//104 84//84
f 63//63 79//79 93//93
f 93//93 80//80 63//63
f 88//88 81//81 95//95
f 81//81 96//96 95//95
f 81//81 89//89 96//96
f 47//47 109//109 90//90
f 111//111 40//40 90//90
f 85//85 68//68 82//82
f 98//98 77//77 87//87
f 93//93 79//79 92//92
f 87//87 92//92 79//79
f 94//94 64//64 91//91
f 61//61 94//94 104//104
f 87//87 79//79 59//59
f 87//87 59//59 80//80
f 71//71 43//43 86//86
f 86//86 70//70 71//71
f 107//107 101//101 74//74
f 74//74 101//101 66//66
f 108//108 109//109 39//39
f 67//67 66//66 97//97
f 39//39 29//29 106//106
f 96//96 89//89 105//105
f 67//67 97//97 82//82
f 47//47 39//39 109//109
f 106//106 29//29 58//58
f 89//89 76//76 103//103
f 35//35 77//77 82//82
f 83//83 57//57 111//111
f 76//76 84//84 103//103
f 82//82 98//98 85//85
f 82//82 77//77 98//98
f 58//58 86//86 51//51
f 99//99 92//92 85//85
f 84//84 104//104 112//112
f 92//92 99//99 93//93
f 86//86 43//43 51//51
f 95//95 102//102 107//107
f 88//88 95//95 107//107
f 101//101 97//97 66//66
f 110//110 96//96 105//105
f 103//103 84//84 112//112
f 83//83 91//91 69//69
f 98//98 99//99 85//85
f 87//87 99//99 98//98
f 112//112 104//104 91//91
f 104//104 94//94 91//91
f 99//99 80//80 93//93
f 87//87 80//80 99//99
f 54//54 101//101 46//46
f 46//46 101//101 107//107
f 54//54 22//22 101//101
f 95//95 96//96 102//102
f 96//96 110//110 102//102
f 108//108 39//39 106//106
f 35//35 97//97 22//22
f 97//97 35//35 82//82
f 89//89 103//103 105//105
f 83//83 111//111 91//91
f 8//8 58//58 51//51
f 46//46 107//107 100//100
f 107//107 102//102 100//100
f 108//108 106//106 44//44
f 100//100 110//110 44//44
f 102//102 110//110 100//100
f 97//97 101//101 22//22
f 44//44 110//110 108//108
f 110//110 109//109 108//108
f 44//44 106//106 8//8
f 110//110 90//90 109//109
f 105//105 90//90 110//110
f 111//111 90//90 105//105
f 111//111 105//105 103//103
f 58//58 8//8 106//106
f 112//112 111//111 103//103
f 111//111 112//112 91//91
