# Blender 4.1.1
# www.blender.org
mtllib aa0351.mtl
o Liquid_Domain
v -8.134167 -8.755833 6.217273
v -8.483118 -9.104162 5.863900
v 8.464675 -9.092814 6.188865
v -8.492790 -8.730461 -5.848429
v -8.135113 -9.100973 -6.214966
v 8.479973 -9.100994 -5.868256
v 8.134167 -8.755833 -6.217273
v 8.411259 2.598597 -5.761370
v 6.164154 2.516850 -6.181111
v 8.422829 1.049027 -2.330835
v -0.178209 2.500540 -6.157914
v -5.583453 -1.373281 0.503125
v -5.378812 -1.385691 -3.104507
v -7.036119 -1.539165 -2.295152
v 8.209412 3.233980 -6.103604
v -6.462615 -1.311445 0.716305
v -5.085540 -0.402612 -1.233780
v -2.770592 -1.050385 -1.931769
v -4.078503 0.099928 1.746827
v -2.460168 -0.685927 0.173937
v -3.938648 -0.303830 1.335969
v -1.777127 -0.221433 1.242621
v -1.447270 -0.149810 -1.838894
v -6.670918 0.994059 -3.464341
v -8.454667 4.329061 -6.185528
v -4.654409 -0.060976 -4.446102
v -2.246472 -0.227943 -5.017586
v -3.139056 1.621220 -6.118968
v 8.451579 6.967504 6.112442
v -2.069050 0.861536 2.184619
v -6.856381 2.863697 0.702137
v -1.260775 2.860868 -0.096551
v -1.003874 2.218610 -1.411125
v 8.296345 2.581884 -1.228698
v -7.078372 4.199197 -0.007090
v -3.583883 1.478196 -5.451536
v -1.068910 1.960977 -5.693705
v 0.405791 6.933878 6.178129
v -8.460149 6.929539 2.617971
v 6.833800 1.155617 -2.538453
v -6.648571 2.038493 -5.009616
v 5.932260 2.597318 -2.059797
v -5.047976 3.205643 -0.164500
v 6.559367 2.183224 -5.759211
v -3.508114 3.290273 -5.747038
v 7.090988 3.278326 -2.765269
v 8.459275 3.954312 -2.287518
v 5.909219 2.672818 2.705014
v 6.243342 2.993819 1.730760
v -2.464256 3.548209 0.229470
v -0.056292 3.382090 -3.694628
v 6.088579 3.764122 -5.256658
v 5.276250 3.455812 -6.147229
v 5.565075 4.608244 3.815200
v -7.568375 5.128764 -4.259950
v -5.238436 3.640016 -5.776669
v -0.464515 4.102948 -5.901262
v 6.060196 3.354862 0.853172
v 1.096195 4.471371 -2.114328
v 7.572237 3.582785 -5.113175
v 3.223323 4.534088 -6.010801
v 7.554896 4.948490 2.954744
v 5.677814 4.896308 1.876953
v 7.031594 4.887549 1.434605
v -6.494752 5.329632 1.208370
v 5.625587 3.887760 -0.024732
v -7.329843 6.242805 -1.602982
v 4.930409 4.087885 -2.773401
v -0.667694 5.187686 -4.361794
v 6.317289 4.815131 -4.249496
v 8.357852 4.259527 -5.628607
v -7.392012 5.644497 -5.610456
v -3.376997 6.525405 0.134813
v 5.518748 4.522003 -2.713680
v -8.317804 6.116045 -5.534930
v -6.069163 5.382361 -5.918593
v 7.073120 5.861282 -6.045101
v 5.072527 4.759965 3.090139
v -4.888074 6.807495 0.526707
v 8.153980 6.431538 0.275036
v 8.063739 5.250273 -1.734791
v 0.547036 6.172274 -2.198519
v -0.188933 6.191675 -3.248057
v 4.904027 4.295643 -5.687466
v -0.581934 5.700386 -5.474828
v 1.166513 5.248346 -4.505880
v 5.457753 5.591197 -4.580632
v 7.565548 6.596515 3.750188
v 0.179053 6.580285 -1.231514
v 4.142294 4.742943 -3.982250
v -8.394850 7.022727 6.167046
v 3.477877 6.970586 6.084380
v 2.602243 5.540120 4.155696
v 8.333625 6.877202 3.283779
v -8.398804 5.749749 -3.716582
v 2.605558 5.686663 -1.026040
v 7.943258 5.843174 -4.680236
v 5.720024 6.192683 -5.228411
v 3.484019 6.467216 4.963849
v 2.811675 6.318905 2.439070
v -0.991099 5.733547 1.414479
v 1.665793 6.239482 1.227620
v 5.872907 6.768618 4.082664
v -2.666082 7.047015 1.539474
v 2.278272 6.835106 0.016399
v 2.671350 6.049498 -3.263053
v 1.781138 7.035184 -3.344250
v -8.042973 6.902312 -1.824802
v -0.192673 6.969921 4.676710
v -5.709336 7.011158 2.997490
v -7.131255 6.982284 2.578612
v -1.287197 7.011290 -0.212842
vn -0.2813 -0.2831 0.9169
vn -0.6244 -0.6518 0.4305
vn 0.5025 -0.5222 0.6890
vn -0.9066 -0.2941 -0.3028
vn -0.3537 -0.5596 -0.7495
vn 0.6264 -0.6473 -0.4343
vn 0.2892 -0.2767 -0.9164
vn 0.9335 0.2771 0.2275
vn 0.2630 0.4086 -0.8740
vn 0.8468 0.4891 -0.2092
vn -0.3132 0.2371 -0.9196
vn -0.2884 0.9296 -0.2294
vn 0.0765 0.8309 0.5512
vn 0.6421 0.7101 0.2890
vn 0.6267 0.1154 -0.7707
vn 0.5033 0.6038 -0.6182
vn -0.0970 0.9324 -0.3482
vn -0.2912 0.9564 0.0234
vn 0.1138 0.1678 -0.9792
vn -0.4412 0.8833 -0.1587
vn -0.1120 0.8282 -0.5492
vn -0.6609 0.6529 -0.3701
vn -0.8363 0.5425 -0.0788
vn 0.8591 0.3227 0.3973
vn -0.5263 0.1601 -0.8351
vn 0.2613 0.6583 0.7060
vn -0.2570 0.6933 0.6732
vn 0.1588 0.4227 -0.8923
vn 0.5070 0.5354 0.6755
vn -0.2596 -0.0461 -0.9646
vn 0.4813 -0.0688 -0.8738
vn -0.7759 -0.0206 -0.6305
vn -0.9388 0.2567 -0.2297
vn 0.8880 0.0290 -0.4589
vn 0.9783 0.0808 -0.1908
vn 0.2524 0.3922 0.8846
vn -0.5112 0.7847 0.3507
vn 0.0025 0.5946 0.8040
vn -0.7065 0.7077 -0.0063
vn 0.4316 0.8520 -0.2964
vn 0.5887 0.3877 0.7093
vn 0.5742 0.0976 -0.8129
vn -0.1459 -0.1793 -0.9729
vn -0.0133 0.7109 0.7032
vn 0.6597 0.7491 0.0596
vn 0.0346 -0.9208 -0.3886
vn 0.9295 -0.2961 -0.2201
vn 0.1729 0.9525 -0.2506
vn 0.0117 0.6766 0.7363
vn -0.1261 -0.2904 -0.9486
vn -0.9319 0.3198 0.1709
vn -0.1022 -0.4329 0.8956
vn -0.0656 0.1039 -0.9924
vn -0.0593 0.5381 -0.8408
vn 0.8837 0.4591 0.0906
vn 0.2627 0.7294 0.6316
vn -0.6130 0.0758 -0.7864
vn -0.0508 0.9975 -0.0495
vn -0.9679 0.1415 -0.2075
vn 0.2658 -0.7463 0.6102
vn 0.1070 0.5435 -0.8326
vn -0.8899 0.2723 -0.3660
vn 0.6533 0.7396 0.1621
vn -0.7994 0.5731 0.1802
vn -0.1621 0.5831 -0.7961
vn 0.0243 0.9962 -0.0833
vn 0.8952 0.4077 -0.1799
vn 0.6265 0.6601 -0.4145
vn -0.9050 0.4051 0.1297
vn -0.7889 0.0729 0.6102
vn 0.9506 0.0193 -0.3097
vn 0.4928 0.7930 -0.3582
vn -0.2051 0.1385 -0.9689
vn -0.6305 0.5439 -0.5537
vn -0.3612 0.8226 -0.4392
vn 0.6464 0.7186 -0.2566
vn 0.1513 0.5650 -0.8111
vn 0.6378 0.7628 0.1065
vn -0.3676 0.6560 -0.6592
vn 0.2116 0.9416 -0.2619
vn 0.3708 0.9166 -0.1492
vn -0.9327 0.3013 -0.1982
vn -0.8330 0.5278 0.1662
vn -0.1136 0.7849 -0.6091
vn -0.5046 0.7346 -0.4536
vn 0.0854 0.8779 -0.4712
vn -0.4514 0.3546 0.8189
vn -0.4631 -0.0023 -0.8863
vn -0.6968 -0.1759 -0.6954
vn 0.6325 0.7692 -0.0906
vn -0.4977 0.5293 0.6871
vn -0.0086 0.9994 0.0345
vn 0.2094 0.8744 -0.4376
vn 0.4989 0.8431 -0.2009
vn -0.5745 0.7705 -0.2763
vn 0.7431 0.6680 -0.0403
vn 0.5245 0.8392 0.1434
vn -0.4481 0.8917 -0.0644
vn -0.0431 0.7440 -0.6668
vn 0.0975 0.9831 0.1547
vn 0.2899 0.9379 0.1903
vn 0.1174 0.9616 0.2479
vn -0.2816 0.6216 -0.7310
vn 0.1933 0.9803 -0.0414
vn 0.6639 0.6559 0.3593
vn 0.6007 0.7562 -0.2594
vn 0.2133 0.8617 -0.4604
vn -0.1389 0.9443 -0.2984
vn 0.1495 0.9656 -0.2130
vn -0.0722 0.9792 -0.1899
vn 0.1502 0.9599 -0.2368
vn -0.1037 0.9759 -0.1922
s 1
usemtl Liquid_Domain_Material
f 2//2 3//3 1//1
f 5//5 2//2 4//4
f 3//3 2//2 5//5
f 3//3 5//5 6//6
f 6//6 5//5 7//7
f 2//2 1//1 91//91
f 7//7 5//5 9//9
f 8//8 6//6 7//7
f 6//6 8//8 10//10
f 13//13 16//16 12//12
f 13//13 14//14 16//16
f 7//7 9//9 15//15
f 15//15 8//8 7//7
f 12//12 17//17 13//13
f 3//3 6//6 29//29
f 16//16 19//19 12//12
f 21//21 13//13 17//17
f 20//20 18//18 21//21
f 18//18 13//13 21//21
f 13//13 18//18 26//26
f 13//13 24//24 14//14
f 11//11 5//5 28//28
f 21//21 12//12 19//19
f 21//21 17//17 12//12
f 18//18 20//20 23//23
f 27//27 26//26 18//18
f 30//30 22//22 21//21
f 20//20 21//21 22//22
f 6//6 10//10 29//29
f 13//13 26//26 24//24
f 27//27 18//18 23//23
f 19//19 30//30 21//21
f 16//16 31//31 19//19
f 22//22 32//32 20//20
f 20//20 32//32 33//33
f 33//33 23//23 20//20
f 27//27 36//36 26//26
f 5//5 25//25 28//28
f 14//14 35//35 31//31
f 14//14 31//31 16//16
f 14//14 24//24 35//35
f 41//41 24//24 26//26
f 27//27 37//37 36//36
f 3//3 29//29 1//1
f 2//2 39//39 4//4
f 50//50 30//30 19//19
f 22//22 30//30 32//32
f 10//10 44//44 40//40
f 23//23 37//37 27//27
f 5//5 11//11 9//9
f 29//29 10//10 34//34
f 39//39 25//25 4//4
f 40//40 34//34 10//10
f 42//42 34//34 40//40
f 10//10 8//8 44//44
f 40//40 44//44 9//9
f 26//26 36//36 41//41
f 37//37 28//28 36//36
f 11//11 28//28 37//37
f 19//19 31//31 43//43
f 47//47 29//29 34//34
f 23//23 33//33 37//37
f 41//41 36//36 45//45
f 5//5 4//4 25//25
f 9//9 44//44 15//15
f 50//50 32//32 30//30
f 43//43 50//50 19//19
f 46//46 47//47 42//42
f 47//47 34//34 42//42
f 42//42 40//40 9//9
f 51//51 37//37 33//33
f 37//37 51//51 11//11
f 8//8 60//60 44//44
f 15//15 60//60 8//8
f 45//45 36//36 28//28
f 28//28 25//25 45//45
f 9//9 11//11 61//61
f 35//35 24//24 55//55
f 24//24 41//41 55//55
f 45//45 56//56 41//41
f 52//52 44//44 60//60
f 52//52 9//9 53//53
f 52//52 53//53 44//44
f 25//25 56//56 45//45
f 1//1 29//29 38//38
f 33//33 32//32 51//51
f 9//9 90//90 42//42
f 90//90 9//9 52//52
f 9//9 61//61 53//53
f 44//44 53//53 15//15
f 48//48 62//62 49//49
f 39//39 95//95 25//25
f 59//59 51//51 32//32
f 90//90 68//68 42//42
f 11//11 51//51 69//69
f 25//25 76//76 56//56
f 11//11 57//57 61//61
f 62//62 48//48 54//54
f 48//48 49//49 63//63
f 49//49 64//64 63//63
f 64//64 49//49 62//62
f 31//31 35//35 65//65
f 35//35 55//55 67//67
f 68//68 74//74 42//42
f 74//74 46//46 42//42
f 59//59 69//69 51//51
f 70//70 46//46 74//74
f 47//47 60//60 71//71
f 46//46 60//60 47//47
f 72//72 55//55 41//41
f 60//60 46//46 70//70
f 60//60 70//70 52//52
f 11//11 69//69 57//57
f 60//60 15//15 71//71
f 57//57 85//85 61//61
f 53//53 61//61 84//84
f 78//78 54//54 48//48
f 48//48 63//63 78//78
f 58//58 66//66 63//63
f 63//63 64//64 58//58
f 58//58 64//64 66//66
f 43//43 79//79 73//73
f 50//50 43//43 73//73
f 74//74 68//68 66//66
f 90//90 52//52 84//84
f 56//56 76//76 41//41
f 15//15 53//53 77//77
f 79//79 31//31 65//65
f 96//96 63//63 66//66
f 43//43 31//31 79//79
f 66//66 68//68 96//96
f 80//80 81//81 66//66
f 82//82 59//59 32//32
f 74//74 66//66 81//81
f 83//83 69//69 59//59
f 81//81 47//47 71//71
f 95//95 75//75 25//25
f 87//87 52//52 70//70
f 41//41 76//76 72//72
f 69//69 85//85 57//57
f 61//61 85//85 86//86
f 52//52 87//87 84//84
f 15//15 77//77 71//71
f 38//38 91//91 1//1
f 78//78 93//93 54//54
f 54//54 103//103 62//62
f 62//62 103//103 88//88
f 78//78 63//63 93//93
f 64//64 80//80 66//66
f 89//89 32//32 50//50
f 70//70 74//74 81//81
f 81//81 71//71 97//97
f 86//86 106//106 61//61
f 90//90 61//61 106//106
f 90//90 84//84 61//61
f 84//84 98//98 53//53
f 53//53 98//98 77//77
f 2//2 91//91 39//39
f 93//93 99//99 54//54
f 93//93 63//63 100//100
f 29//29 47//47 94//94
f 63//63 102//102 100//100
f 63//63 96//96 102//102
f 50//50 73//73 89//89
f 59//59 82//82 83//83
f 97//97 70//70 81//81
f 72//72 95//95 55//55
f 87//87 98//98 84//84
f 71//71 77//77 97//97
f 25//25 75//75 72//72
f 25//25 72//72 76//76
f 38//38 29//29 92//92
f 62//62 88//88 64//64
f 102//102 101//101 93//93
f 102//102 96//96 105//105
f 81//81 80//80 47//47
f 89//89 82//82 32//32
f 96//96 68//68 106//106
f 106//106 68//68 90//90
f 108//108 55//55 95//95
f 108//108 67//67 55//55
f 107//107 106//106 86//86
f 98//98 70//70 97//97
f 72//72 75//75 95//95
f 86//86 85//85 69//69
f 98//98 87//87 70//70
f 99//99 93//93 109//109
f 54//54 99//99 103//103
f 93//93 101//101 109//109
f 109//109 101//101 104//104
f 102//102 93//93 100//100
f 65//65 110//110 79//79
f 94//94 47//47 80//80
f 107//107 105//105 96//96
f 106//106 107//107 96//96
f 86//86 69//69 107//107
f 97//97 77//77 98//98
f 110//110 65//65 111//111
f 65//65 35//35 111//111
f 88//88 80//80 64//64
f 102//102 112//112 101//101
f 67//67 111//111 35//35
f 89//89 73//73 112//112
f 83//83 107//107 69//69
f 38//38 109//109 91//91
f 92//92 109//109 38//38
f 99//99 109//109 92//92
f 99//99 92//92 103//103
f 94//94 103//103 92//92
f 29//29 94//94 92//92
f 94//94 88//88 103//103
f 110//110 39//39 91//91
f 110//110 111//111 39//39
f 91//91 104//104 110//110
f 109//109 104//104 91//91
f 94//94 80//80 88//88
f 104//104 79//79 110//110
f 111//111 108//108 39//39
f 104//104 112//112 79//79
f 39//39 108//108 95//95
f 112//112 73//73 79//79
f 101//101 112//112 104//104
f 105//105 112//112 102//102
f 111//111 67//67 108//108
f 105//105 107//107 112//112
f 107//107 89//89 112//112
f 89//89 107//107 82//82
f 107//107 83//83 82//82
