# Blender 4.1.1
# www.blender.org
mtllib aa0370.mtl
o Liquid_Domain
v -8.454508 -9.087213 6.211848
v 8.134167 -8.755833 6.217273
v 8.457415 -9.099803 5.880317
v 8.484523 -9.104053 -5.864792
v -8.475062 -9.102124 -5.869807
v -8.134167 -8.755833 -6.217273
v 8.134167 -8.755833 -6.217273
v -8.472713 -0.362654 -0.417850
v 8.468108 2.379857 -5.807980
v -8.397764 6.941201 6.145382
v -2.926745 -0.102325 -6.192642
v -5.896491 -1.401806 1.815668
v -6.358707 -1.880647 1.259738
v 8.426035 4.906414 -3.642179
v -8.368820 4.241706 -6.065989
v -6.668548 2.612145 -6.155479
v -7.171520 -0.711661 -0.902527
v -6.804046 -0.861270 -1.963666
v -5.103208 1.309625 -0.669286
v -5.476325 -0.527765 -2.539106
v 2.416054 2.884576 -6.201129
v -2.331012 -0.007320 -2.378124
v -4.476303 -0.544226 -3.646515
v -5.004779 1.259692 1.564755
v -1.694383 0.390087 -4.456334
v -6.528140 2.381065 -4.052365
v -6.897309 1.637289 1.131129
v -7.240970 2.380309 -2.794468
v -3.836194 0.801279 -5.460059
v 8.420288 6.927938 -0.157810
v -5.665266 2.651043 1.845791
v -2.422110 2.946115 -2.015984
v -1.864205 2.416021 -2.825063
v -3.956762 2.225222 -2.781544
v -5.948280 1.563359 -5.750873
v -3.297102 1.481179 -5.720636
v -1.944096 1.984401 -5.605152
v 7.984770 3.847198 -6.165506
v -2.440168 6.810242 6.165267
v 7.019421 2.378168 0.873525
v 5.837155 1.999959 0.168944
v -7.194963 4.312294 -0.921691
v 4.062491 2.430757 -2.035081
v 5.648578 2.130780 4.159554
v 6.578302 2.858005 4.226521
v 4.512741 2.429381 3.283621
v -5.234037 3.378445 -0.623577
v 5.965051 2.636255 -2.873421
v 3.994078 4.724354 -6.106468
v -3.459868 2.796928 3.090187
v -2.475986 3.745304 1.046661
v 4.068971 2.863060 0.676242
v -6.715464 4.887444 2.770110
v -2.134517 4.083226 -1.322736
v 3.675045 3.180690 -4.828805
v 0.551984 4.253122 -5.994188
v -2.322584 4.193738 2.491107
v 4.095576 4.107540 1.658425
v -4.150426 4.180060 0.775574
v 6.223866 3.495037 -4.585919
v 7.746460 3.720198 -4.679047
v -3.968867 4.120986 -6.052192
v -1.522623 4.069673 -6.119685
v 7.694527 5.759679 -6.072445
v 4.134336 4.385147 4.350297
v -5.271213 5.184299 2.617369
v 6.945001 4.960986 0.528360
v 2.989075 4.120341 -0.456197
v -8.423772 6.894859 -2.303822
v -4.357142 3.516524 -5.189767
v -6.411026 5.998831 -4.203738
v -4.936117 4.428655 -4.028576
v 8.311299 6.998088 6.192686
v -4.165602 4.424001 4.437066
v 5.950511 4.356639 4.663490
v -3.905930 4.588069 3.067094
v 3.331280 5.429862 2.629966
v -7.286878 6.005558 -1.644909
v -3.119856 4.939842 -1.717489
v -4.895821 4.477609 -2.150860
v 4.365069 5.306464 -4.986805
v 6.631430 5.541591 -5.035242
v 2.879738 6.685580 6.184324
v -6.464845 4.745234 4.688973
v 7.424322 6.621779 2.871067
v -2.072006 5.640518 -0.499380
v 6.557355 6.570400 -1.653776
v -4.357743 5.288289 -1.623905
v 1.579818 5.141848 -2.065082
v 2.850003 4.435199 -4.792138
v 7.561276 5.503338 -3.906991
v -7.178162 6.837567 5.038990
v -2.969590 5.683500 4.239284
v -2.942487 5.756116 3.069190
v -8.378351 6.890709 1.466029
v -0.802433 5.859799 2.009015
v 3.788031 5.788542 -0.509006
v 0.149545 5.547128 -3.707850
v -5.582280 5.461378 -3.599142
v 6.477394 6.607774 4.408131
v 1.739902 6.735893 3.884691
v 3.930724 6.672020 1.145601
v 0.116268 5.981880 0.885518
v -3.733707 5.721556 -3.248107
v 8.030477 6.526058 -2.159010
v 3.103677 5.925706 4.309301
v -1.770705 6.934075 -1.983649
v -0.717031 6.727813 -3.502906
v -3.719199 6.686200 -4.482646
v -3.027835 5.939298 -4.554689
v -0.115170 6.967846 4.483521
v -1.471615 6.889363 2.778205
v -7.861673 6.972949 -5.021720
v 0.009980 7.102695 -1.192583
v 2.461839 7.129918 5.319570
v -3.770844 6.870693 4.665212
v 1.746275 7.096456 2.093212
v -6.981654 6.636407 0.258773
v 7.955714 7.069877 0.875361
v 2.129159 6.989963 -1.134114
vn -0.5024 -0.5222 0.6891
vn 0.2883 -0.2767 0.9167
vn 0.6231 -0.6519 0.4322
vn 0.6233 -0.6493 -0.4358
vn -0.6219 -0.6515 -0.4344
vn -0.2813 -0.2850 -0.9163
vn 0.2826 -0.2848 -0.9160
vn -1.0000 0.0045 0.0006
vn 0.8930 0.1124 -0.4359
vn -0.4982 0.5427 0.6762
vn -0.0478 0.1255 -0.9909
vn -0.1674 0.5354 -0.8278
vn 0.1483 0.9303 -0.3355
vn 0.9222 0.3355 -0.1923
vn -0.4640 0.2329 -0.8547
vn 0.4274 0.2339 -0.8733
vn 0.9241 0.3809 0.0324
vn 0.2927 0.8241 0.4849
vn -0.9845 0.1547 0.0832
vn -0.2176 0.9689 0.1175
vn -0.0156 0.1964 -0.9804
vn -0.2519 0.5261 -0.8123
vn 0.1754 0.9842 -0.0240
vn -0.8437 -0.0296 -0.5359
vn -0.7377 0.5743 0.3549
vn 0.9428 0.2660 0.2007
vn 0.8295 0.0797 -0.5528
vn 0.9114 -0.0191 0.4111
vn -0.0674 0.9914 0.1122
vn 0.6667 0.7354 -0.1210
vn -0.2020 0.4967 -0.8441
vn -0.3495 0.5978 -0.7214
vn -0.9545 -0.2826 -0.0954
vn -0.1558 0.4688 -0.8695
vn 0.6125 0.6855 0.3936
vn -0.5280 0.7811 -0.3334
vn -0.9976 0.0239 0.0652
vn 0.5545 0.0927 -0.8270
vn -0.0101 0.5874 0.8092
vn -0.7962 0.6004 0.0746
vn -0.0081 0.9991 0.0410
vn 1.0000 -0.0051 0.0014
vn 0.4057 0.9058 0.1222
vn 0.0270 0.7379 -0.6744
vn -0.6066 0.3824 -0.6970
vn 0.6679 0.7279 -0.1551
vn -0.6950 0.6262 -0.3534
vn -0.5441 0.7729 0.3266
vn -0.2695 0.5151 -0.8136
vn -0.1742 0.6442 -0.7448
vn -0.4852 0.8738 0.0337
vn 0.7166 0.6662 -0.2063
vn 0.7570 0.5691 -0.3210
vn -0.9601 -0.1046 0.2592
vn 0.3035 0.6092 0.7326
vn 0.0995 0.5785 -0.8096
vn -0.7002 0.3819 -0.6032
vn 0.9828 0.1623 -0.0881
vn -0.1823 0.9783 0.0983
vn -0.5104 0.6079 0.6082
vn 0.7873 0.2758 -0.5515
vn -0.4396 0.1154 -0.8907
vn -0.0237 0.3283 -0.9443
vn 0.3513 0.6445 -0.6791
vn 0.5003 0.2741 -0.8213
vn 0.1688 0.9263 -0.3369
vn -0.9763 0.0194 0.2155
vn 0.7909 -0.0737 -0.6075
vn -0.4743 0.8804 0.0022
vn -0.7867 -0.5531 -0.2742
vn 0.8720 0.4718 -0.1306
vn -0.8801 -0.3617 -0.3074
vn 0.4924 0.5593 0.6669
vn -0.2684 0.7194 -0.6406
vn -0.1254 0.0344 -0.9915
vn -0.1934 0.5700 -0.7985
vn 0.7699 0.5790 0.2683
vn 0.8889 0.4581 0.0010
vn -0.6134 -0.0542 0.7879
vn -0.5064 -0.6592 0.5559
vn -0.1885 0.7708 0.6085
vn -0.3344 0.8430 0.4213
vn -0.0132 0.4498 0.8930
vn 0.3797 0.6101 -0.6954
vn -0.8003 0.5947 -0.0770
vn -0.7831 0.4992 0.3707
vn -0.6820 0.7184 -0.1369
vn -0.2068 0.3164 0.9258
vn 0.7169 0.4908 -0.4952
vn 0.2587 0.9659 0.0123
vn -0.0614 0.9724 -0.2250
vn 0.2037 0.9208 -0.3327
vn -0.4893 0.5867 -0.6453
vn -0.6311 0.5632 -0.5334
vn -0.6283 0.7777 -0.0184
vn -0.7308 0.4394 -0.5224
vn 0.8032 0.1273 -0.5820
vn 0.4683 0.7458 -0.4738
vn -0.9003 0.3701 -0.2293
vn -0.2742 0.7114 -0.6471
vn 0.4008 0.9107 -0.0999
vn 0.7437 0.6488 0.1612
vn -0.4712 0.8805 0.0521
vn -0.2166 0.9254 0.3109
vn 0.4037 0.8285 -0.3881
vn 0.2559 0.3960 -0.8819
vn -0.4171 0.8981 0.1392
vn 0.2061 0.8279 -0.5217
vn 0.0063 0.7718 -0.6358
vn -0.1191 0.7727 -0.6235
vn -0.0807 0.9955 -0.0494
vn -0.4356 0.8177 -0.3762
vn -0.1441 0.7853 -0.6021
vn -0.1379 0.9832 0.1197
vn 0.0651 0.9962 -0.0577
vn -0.0977 0.6948 -0.7126
vn 0.1574 0.9815 0.1092
vn 0.7619 0.6403 -0.0977
vn -0.0951 0.9954 0.0130
vn 0.4121 0.7596 -0.5032
s 1
usemtl Liquid_Domain_Material
f 1//1 3//3 2//2
f 4//4 1//1 5//5
f 3//3 1//1 4//4
f 4//4 5//5 6//6
f 7//7 4//4 6//6
f 1//1 8//8 5//5
f 9//9 4//4 7//7
f 7//7 6//6 11//11
f 1//1 10//10 8//8
f 73//73 2//2 3//3
f 5//5 15//15 6//6
f 38//38 9//9 7//7
f 5//5 69//69 15//15
f 17//17 13//13 18//18
f 8//8 69//69 5//5
f 6//6 16//16 11//11
f 13//13 19//19 18//18
f 20//20 18//18 19//19
f 2//2 73//73 1//1
f 22//22 25//25 23//23
f 11//11 21//21 7//7
f 27//27 12//12 13//13
f 12//12 19//19 13//13
f 23//23 20//20 34//34
f 20//20 23//23 26//26
f 23//23 35//35 26//26
f 23//23 25//25 29//29
f 13//13 17//17 27//27
f 17//17 18//18 28//28
f 20//20 28//28 18//18
f 28//28 20//20 26//26
f 29//29 35//35 23//23
f 11//11 16//16 35//35
f 29//29 11//11 35//35
f 3//3 4//4 30//30
f 12//12 31//31 24//24
f 31//31 12//12 27//27
f 12//12 24//24 19//19
f 23//23 34//34 32//32
f 32//32 22//22 23//23
f 33//33 25//25 22//22
f 25//25 36//36 29//29
f 6//6 15//15 16//16
f 11//11 29//29 36//36
f 11//11 36//36 37//37
f 4//4 14//14 30//30
f 19//19 47//47 20//20
f 20//20 47//47 34//34
f 14//14 4//4 9//9
f 25//25 33//33 37//37
f 25//25 37//37 36//36
f 7//7 21//21 38//38
f 22//22 32//32 33//33
f 11//11 37//37 63//63
f 45//45 40//40 44//44
f 44//44 41//41 52//52
f 40//40 41//41 44//44
f 19//19 24//24 31//31
f 17//17 42//42 27//27
f 17//17 28//28 42//42
f 41//41 48//48 43//43
f 21//21 11//11 63//63
f 73//73 83//83 1//1
f 44//44 52//52 46//46
f 53//53 31//31 27//27
f 31//31 47//47 19//19
f 41//41 43//43 52//52
f 48//48 41//41 40//40
f 32//32 54//54 33//33
f 60//60 43//43 48//48
f 14//14 9//9 61//61
f 33//33 70//70 37//37
f 26//26 35//35 16//16
f 21//21 63//63 56//56
f 21//21 49//49 38//38
f 1//1 39//39 10//10
f 73//73 3//3 30//30
f 44//44 75//75 45//45
f 44//44 46//46 65//65
f 65//65 46//46 58//58
f 57//57 51//51 50//50
f 46//46 52//52 58//58
f 59//59 31//31 50//50
f 59//59 50//50 51//51
f 27//27 42//42 53//53
f 34//34 47//47 32//32
f 60//60 55//55 43//43
f 70//70 62//62 37//37
f 38//38 49//49 64//64
f 47//47 31//31 59//59
f 58//58 52//52 68//68
f 54//54 32//32 51//51
f 52//52 43//43 89//89
f 54//54 79//79 33//33
f 79//79 72//72 33//33
f 33//33 72//72 70//70
f 55//55 90//90 43//43
f 38//38 61//61 9//9
f 37//37 62//62 63//63
f 44//44 65//65 75//75
f 50//50 66//66 76//76
f 50//50 31//31 66//66
f 57//57 54//54 51//51
f 51//51 32//32 59//59
f 32//32 47//47 59//59
f 40//40 67//67 48//48
f 68//68 52//52 89//89
f 48//48 87//87 60//60
f 90//90 89//89 43//43
f 28//28 26//26 42//42
f 42//42 26//26 71//71
f 26//26 16//16 71//71
f 55//55 81//81 90//90
f 62//62 70//70 72//72
f 90//90 21//21 56//56
f 90//90 49//49 21//21
f 76//76 53//53 74//74
f 77//77 101//101 65//65
f 50//50 76//76 57//57
f 65//65 58//58 77//77
f 53//53 66//66 31//31
f 45//45 85//85 40//40
f 40//40 85//85 67//67
f 57//57 86//86 54//54
f 79//79 80//80 72//72
f 60//60 82//82 55//55
f 61//61 38//38 14//14
f 1//1 83//83 39//39
f 74//74 53//53 84//84
f 76//76 66//66 53//53
f 58//58 68//68 97//97
f 95//95 69//69 8//8
f 118//118 42//42 78//78
f 67//67 87//87 48//48
f 80//80 79//79 88//88
f 80//80 99//99 72//72
f 72//72 110//110 62//62
f 82//82 81//81 55//55
f 90//90 81//81 49//49
f 74//74 93//93 76//76
f 65//65 101//101 106//106
f 92//92 84//84 53//53
f 45//45 100//100 85//85
f 10//10 95//95 8//8
f 86//86 57//57 96//96
f 58//58 102//102 77//77
f 42//42 118//118 53//53
f 97//97 68//68 89//89
f 86//86 79//79 54//54
f 71//71 78//78 42//42
f 88//88 99//99 80//80
f 90//90 98//98 89//89
f 91//91 82//82 60//60
f 90//90 56//56 98//98
f 63//63 62//62 110//110
f 56//56 63//63 98//98
f 14//14 38//38 64//64
f 65//65 106//106 100//100
f 75//75 65//65 100//100
f 75//75 100//100 45//45
f 93//93 94//94 76//76
f 57//57 76//76 94//94
f 57//57 94//94 96//96
f 86//86 96//96 103//103
f 58//58 97//97 102//102
f 104//104 88//88 79//79
f 91//91 105//105 14//14
f 72//72 99//99 110//110
f 110//110 108//108 63//63
f 98//98 63//63 108//108
f 91//91 14//14 64//64
f 15//15 113//113 16//16
f 16//16 113//113 71//71
f 82//82 49//49 81//81
f 64//64 49//49 82//82
f 84//84 92//92 116//116
f 84//84 116//116 74//74
f 93//93 74//74 116//116
f 92//92 53//53 118//118
f 103//103 107//107 86//86
f 79//79 86//86 107//107
f 30//30 14//14 105//105
f 79//79 107//107 104//104
f 60//60 87//87 91//91
f 88//88 104//104 99//99
f 98//98 108//108 89//89
f 109//109 99//99 104//104
f 110//110 99//99 109//109
f 82//82 91//91 64//64
f 94//94 93//93 112//112
f 96//96 94//94 112//112
f 87//87 67//67 85//85
f 120//120 97//97 89//89
f 105//105 91//91 87//87
f 108//108 104//104 107//107
f 120//120 89//89 108//108
f 108//108 110//110 104//104
f 109//109 104//104 110//110
f 69//69 113//113 15//15
f 93//93 116//116 111//111
f 106//106 115//115 100//100
f 106//106 101//101 115//115
f 112//112 93//93 111//111
f 101//101 77//77 117//117
f 96//96 112//112 103//103
f 77//77 102//102 117//117
f 103//103 117//117 114//114
f 120//120 102//102 97//97
f 107//107 103//103 114//114
f 69//69 118//118 78//78
f 71//71 69//69 78//78
f 39//39 83//83 115//115
f 83//83 73//73 115//115
f 39//39 116//116 10//10
f 73//73 100//100 115//115
f 116//116 92//92 10//10
f 39//39 111//111 116//116
f 115//115 111//111 39//39
f 115//115 101//101 111//111
f 73//73 85//85 100//100
f 101//101 117//117 111//111
f 92//92 95//95 10//10
f 117//117 112//112 111//111
f 118//118 95//95 92//92
f 73//73 119//119 85//85
f 73//73 30//30 119//119
f 103//103 112//112 117//117
f 102//102 120//120 117//117
f 85//85 119//119 87//87
f 118//118 69//69 95//95
f 117//117 120//120 114//114
f 30//30 87//87 119//119
f 30//30 105//105 87//87
f 120//120 108//108 114//114
f 114//114 108//108 107//107
f 71//71 113//113 69//69
