# Blender 4.1.1
# www.blender.org
mtllib aa0339.mtl
o Liquid_Domain
v -8.134167 -8.755833 6.217273
v -8.446877 -9.100359 5.878554
v 8.487272 -8.755833 5.864167
v 8.134669 -9.102646 6.215187
v -8.477920 -9.102196 -5.869104
v 8.425430 -9.091249 -6.200695
v -8.134167 -8.755833 -6.217273
v -8.470679 1.422753 -1.992475
v -6.030508 -2.535768 0.201893
v -4.280767 -0.714183 0.697469
v -5.386878 -1.734203 -1.123153
v -8.450989 6.921974 6.149303
v 4.601021 2.504248 6.208382
v 8.459317 4.163241 -1.514723
v -6.504785 -0.589246 0.899953
v -6.427673 -1.078567 -2.619985
v -3.769941 -1.399582 -2.070714
v -5.541919 -0.320491 -3.790259
v -1.896544 3.248839 -6.038576
v -1.861069 -0.190414 -0.656790
v -6.543435 0.865442 -4.993184
v -3.753640 2.333189 -6.123802
v -0.791956 1.767553 -3.325461
v -1.473403 1.110603 -5.183225
v -3.381972 0.211227 -5.085633
v 6.331005 3.118056 -6.130140
v -5.395480 0.535676 0.511546
v -3.217189 2.935940 -1.577438
v 6.583667 0.472372 -1.446248
v -7.291042 2.605655 -2.083295
v 6.977511 0.351150 -0.281560
v -1.393276 1.579466 -0.966893
v 1.967333 0.852773 -6.206846
v 4.487325 2.743267 -6.154759
v 3.338933 0.651227 4.232916
v 4.061743 1.066531 2.329404
v 5.578249 0.842756 2.162046
v 4.820469 0.832733 1.135408
v -5.967566 3.935803 0.564413
v 6.122252 1.554720 0.008354
v -8.426455 5.445927 -6.143873
v 3.703700 6.498580 6.201698
v 3.114993 1.319474 1.626310
v 5.379350 2.056181 0.356719
v -6.957412 4.707579 0.041664
v -6.978795 2.571027 -4.207020
v 1.489576 3.191615 -6.097132
v 2.233731 2.181544 -5.570956
v 3.098172 1.822348 4.874306
v 2.493586 3.792603 3.902569
v -2.999644 2.449722 -5.576546
v 5.356617 2.944172 3.560445
v -0.664014 3.595618 -5.432316
v -5.074186 3.803050 -6.063170
v 6.080917 3.673715 -0.214220
v -0.770934 3.574937 -3.064015
v 8.434333 5.262352 -6.071413
v -6.071056 4.198237 -5.437619
v 4.661227 3.759831 3.900804
v 6.664674 2.477052 2.646055
v 7.041417 3.558746 0.532853
v 1.889178 4.358566 2.944233
v 2.627702 3.023403 -0.205861
v 5.179844 3.004511 -1.148690
v 1.660410 3.429852 -3.942889
v 5.159906 3.555275 -4.561430
v 4.056564 3.571657 -5.495440
v 0.307032 4.434602 -5.689180
v 6.322589 3.794628 -2.305128
v 1.007233 3.651108 -2.313681
v 6.077615 4.209362 4.559499
v 7.228318 5.454546 5.032752
v 7.559733 6.236617 2.072327
v 7.668468 4.433033 -1.769976
v 6.124547 4.757346 -3.824344
v 5.992716 4.752602 -5.089045
v 1.737909 3.962451 -5.678506
v 5.481461 4.791700 -6.150877
v 2.905754 4.976848 2.710041
v 1.804452 3.677544 1.335927
v -7.138737 5.599016 -4.042418
v -0.896327 5.539967 -2.915948
v -5.831236 5.074959 -5.879487
v 3.385041 5.429743 -6.097864
v 7.248331 6.414507 6.039289
v 0.207654 4.868005 2.849250
v 0.170790 4.869599 2.817420
v 0.189167 4.506198 2.837500
v -0.247284 4.857580 2.491898
v -0.189167 4.695568 2.459167
v -0.150961 4.873852 2.410134
v -0.089119 5.413872 0.040781
v 7.139252 6.471119 -0.867627
v 7.795533 5.448307 -2.341335
v 1.331684 5.296435 -2.442550
v 2.840808 4.884632 -5.469276
v 8.374946 6.961245 6.094470
v -2.222337 6.356244 -2.069876
v 8.364549 6.767417 -0.504990
v 1.284889 6.232602 -4.628482
v 1.528031 6.193519 -0.762688
v 6.656824 6.162572 -1.673660
v 0.139207 6.371529 -4.776779
v -3.942693 7.005010 6.178520
v 2.723362 5.756318 4.255395
v 2.762624 5.748271 3.155029
v 2.229307 6.508885 0.912291
v -8.399336 6.936388 0.427621
v 8.240890 6.342832 -5.442420
v -8.027569 6.424217 -5.609295
v 5.014184 7.146334 -5.827461
v 6.929732 5.878861 -5.715721
v 0.294462 6.822588 -6.048926
v -6.713864 6.128386 4.656030
v -6.641984 5.353940 1.126062
v 3.986120 6.555189 1.205921
v 4.417280 7.035850 5.552043
v -4.287913 6.742777 4.366463
v -3.329700 6.909685 0.600158
v 0.416228 7.023323 2.758223
v -8.007204 6.731331 -3.520368
v 0.649374 7.022631 4.585885
v -7.571943 6.872399 1.957233
v 1.450618 7.016508 -3.048262
v -0.326323 6.939389 -2.560813
v 1.609245 6.995167 -5.972766
vn -0.2933 -0.2780 0.9147
vn -0.6224 -0.6557 0.4274
vn 0.9005 -0.3025 0.3125
vn 0.3514 -0.5599 0.7504
vn -0.6241 -0.6520 -0.4306
vn 0.5018 -0.5229 -0.6890
vn -0.2812 -0.2808 -0.9177
vn -1.0000 0.0052 -0.0015
vn 0.2010 0.9020 -0.3822
vn -0.3849 0.2168 -0.8971
vn -0.2708 0.9406 0.2047
vn -0.4776 0.5956 0.6459
vn 0.0113 0.0065 0.9999
vn 0.9930 0.1035 -0.0563
vn 0.4609 0.1480 -0.8750
vn 0.5915 0.7165 0.3697
vn -0.3147 0.9296 0.1921
vn 0.1139 0.8132 0.5707
vn -0.4111 0.7998 -0.4374
vn -0.7068 0.4948 -0.5056
vn 0.5382 0.3694 0.7575
vn 0.1224 0.2226 -0.9672
vn -0.9347 0.3552 -0.0157
vn -0.5478 0.5394 0.6395
vn -0.0637 0.6162 0.7850
vn -0.1725 0.1362 -0.9755
vn -0.3238 -0.2001 -0.9247
vn -0.4473 -0.2601 -0.8557
vn -0.0000 -0.0000 -0.0000
vn 0.9976 0.0677 0.0144
vn -0.6218 -0.2697 -0.7353
vn 0.0135 0.0861 -0.9962
vn -0.0733 0.3988 -0.9141
vn 0.1268 0.8001 -0.5863
vn -0.0905 0.9755 -0.2003
vn -0.4341 0.8029 -0.4085
vn -0.1127 0.8617 0.4947
vn -0.0863 0.1476 -0.9853
vn -0.5043 0.2813 -0.8164
vn 0.0343 0.3680 0.9292
vn 0.6254 0.7557 0.1942
vn -0.4419 0.6443 0.6242
vn 0.9096 0.2348 -0.3427
vn 0.9557 -0.1038 0.2754
vn 0.3697 0.0956 -0.9242
vn 0.1834 0.5713 -0.8000
vn 0.1886 0.1884 -0.9638
vn 0.5719 -0.3217 -0.7546
vn 0.1376 0.4911 0.8602
vn -0.2989 0.5368 -0.7890
vn -0.6567 0.7351 -0.1682
vn 0.4426 0.5720 -0.6905
vn -0.4260 0.8712 0.2438
vn -0.8492 -0.0182 -0.5277
vn 0.5455 0.2466 -0.8010
vn 0.6843 0.1817 0.7062
vn 0.1051 -0.0846 -0.9909
vn -0.7307 0.5954 -0.3339
vn -0.7352 0.6509 0.1890
vn 0.7700 -0.2348 -0.5933
vn 0.4000 0.8864 0.2331
vn -0.2905 0.9286 0.2309
vn 0.6806 0.7325 -0.0101
vn -0.4566 0.8848 -0.0936
vn -0.0181 0.8331 -0.5529
vn -0.6525 0.0755 -0.7540
vn -0.5263 0.8055 0.2723
vn 0.8176 0.5298 0.2256
vn 0.0091 0.4862 -0.8738
vn -0.5652 0.4927 -0.6617
vn -0.8325 0.5540 -0.0033
vn -0.9158 0.3825 0.1221
vn -0.6967 0.6550 0.2924
vn -0.8436 0.3230 0.4290
vn 0.7979 -0.4234 0.4291
vn -0.1746 -0.3273 -0.9287
vn 0.6366 -0.4934 -0.5927
vn 0.7915 0.5934 -0.1461
vn 0.8695 0.4739 0.1392
vn -0.6864 0.1756 -0.7057
vn 0.7200 0.5482 -0.4255
vn -0.1635 0.3546 -0.9206
vn -0.2129 0.6570 0.7232
vn -0.4381 0.0036 -0.8989
vn -0.5901 0.0032 -0.8073
vn -0.4968 -0.2316 0.8364
vn -0.5093 -0.2365 0.8274
vn -0.4807 -0.2327 0.8455
vn 0.9256 -0.2985 -0.2327
vn -0.6943 0.6835 -0.2254
vn 0.0842 0.9888 -0.1230
vn 0.9534 -0.1520 0.2606
vn 0.2110 -0.0955 0.9728
vn 0.3699 0.6678 0.6459
vn -0.5270 0.4846 -0.6982
vn 0.5442 0.8173 -0.1895
vn 0.6967 0.6900 0.1961
vn 0.7277 -0.6778 -0.1053
vn -0.8139 0.4755 -0.3339
vn -0.6850 0.7045 -0.1854
vn -0.0682 0.6449 0.7612
vn 0.3714 0.7948 -0.4800
vn 0.6382 0.7661 0.0756
vn 0.6820 0.5813 -0.4438
vn -0.6288 0.7769 -0.0323
vn 0.3984 0.8830 -0.2482
vn -0.2015 0.8778 -0.4346
vn -0.0169 0.9948 -0.1004
vn -0.1091 0.8803 -0.4617
vn -0.5044 0.5489 -0.6665
vn 0.1285 0.9756 -0.1782
vn 0.2474 0.7394 -0.6262
vn 0.7541 0.2173 -0.6198
vn 0.1700 0.9777 -0.1237
vn -0.3386 0.9359 -0.0978
vn -0.3478 0.9035 -0.2506
vn 0.1700 0.9843 0.0482
vn -0.0669 0.9845 -0.1622
vn 0.1487 0.9799 -0.1332
vn 0.4990 0.8642 -0.0650
vn 0.6324 0.7565 -0.1665
vn -0.3234 0.8815 -0.3440
vn 0.3324 0.7917 -0.5126
s 1
usemtl Liquid_Domain_Material
f 2//2 4//4 1//1
f 6//6 2//2 5//5
f 4//4 2//2 6//6
f 6//6 3//3 4//4
f 6//6 5//5 7//7
f 2//2 8//8 5//5
f 3//3 6//6 14//14
f 6//6 57//55 14//14
f 7//7 33//32 6//6
f 2//2 1//1 12//12
f 2//2 12//12 8//8
f 4//4 13//13 1//1
f 9//9 15//15 10//10
f 11//11 9//9 10//10
f 16//16 15//15 9//9
f 11//11 16//16 9//9
f 17//17 16//16 11//11
f 17//17 18//18 16//16
f 10//10 20//20 11//11
f 17//17 11//11 20//20
f 7//7 22//22 19//19
f 18//18 17//17 25//25
f 20//20 23//23 17//17
f 24//24 17//17 23//23
f 25//25 17//17 24//24
f 6//6 33//32 26//26
f 10//10 15//15 27//27
f 20//20 10//10 32//31
f 16//16 30//30 15//15
f 16//16 18//18 21//21
f 21//21 18//18 25//25
f 10//10 28//28 32//31
f 16//16 21//21 30//30
f 7//7 5//5 41//39
f 22//22 7//7 41//39
f 7//7 19//19 33//32
f 33//32 34//33 26//26
f 43//41 36//35 38//37
f 37//36 38//37 36//35
f 15//15 39//38 27//27
f 10//10 27//27 28//28
f 40//29 31//29 29//29
f 40//29 29//29 31//29
f 15//15 30//30 45//43
f 20//20 32//31 23//23
f 8//8 41//39 5//5
f 13//13 42//40 1//1
f 35//34 36//35 43//41
f 38//37 37//36 44//42
f 45//43 39//38 15//15
f 33//32 19//19 47//45
f 49//47 35//34 50//48
f 35//34 43//41 50//48
f 37//36 36//35 60//58
f 44//42 37//36 60//58
f 38//37 63//61 43//41
f 38//37 44//42 63//61
f 46//44 30//30 21//21
f 21//21 51//49 58//56
f 21//21 25//25 51//49
f 33//32 48//46 34//33
f 52//50 36//35 35//34
f 27//27 39//38 28//28
f 23//23 53//51 24//24
f 19//19 24//24 53//51
f 24//24 19//19 25//25
f 25//25 19//19 51//49
f 22//22 41//39 54//52
f 35//34 49//47 59//57
f 35//34 59//57 52//50
f 36//35 52//50 60//58
f 43//41 63//61 80//78
f 60//58 55//53 44//42
f 32//31 56//54 23//23
f 58//56 46//44 21//21
f 22//22 51//49 19//19
f 47//45 48//46 33//32
f 48//46 67//65 34//33
f 26//26 57//55 6//6
f 50//48 43//41 80//78
f 44//42 55//53 64//62
f 32//31 28//28 56//54
f 47//45 65//63 48//46
f 51//49 22//22 54//52
f 47//45 19//19 53//51
f 60//58 52//50 71//69
f 61//59 55//53 60//58
f 44//42 64//62 63//61
f 63//61 65//63 70//68
f 67//65 48//46 65//63
f 54//52 58//56 51//49
f 67//65 66//64 34//33
f 66//64 26//26 34//33
f 53//51 68//66 47//45
f 49//47 50//48 59//57
f 50//48 80//78 62//60
f 55//53 69//67 64//62
f 61//59 69//67 55//53
f 64//62 67//65 63//61
f 66//64 67//65 64//62
f 64//62 69//67 66//64
f 65//63 63//61 67//65
f 23//23 56//54 53//51
f 72//70 60//58 71//69
f 71//69 52//50 59//57
f 72//70 73//71 60//58
f 115//112 39//38 45//43
f 61//59 74//72 69//67
f 30//30 46//44 58//56
f 69//67 75//73 66//64
f 68//66 53//51 56//54
f 77//75 65//63 47//45
f 66//64 76//74 26//26
f 76//74 78//76 26//26
f 26//26 78//76 57//55
f 13//13 85//83 42//40
f 59//57 50//48 79//77
f 71//69 59//57 79//77
f 73//71 61//59 60//58
f 14//14 99//96 97//94
f 63//61 70//68 80//78
f 98//95 28//28 39//38
f 56//54 28//28 82//80
f 74//72 75//73 69//67
f 75//73 76//74 66//64
f 54//52 83//81 58//56
f 77//75 47//45 84//82
f 13//13 97//94 85//83
f 106//103 71//69 79//77
f 88//85 87//84 86//84
f 89//86 91//88 90//87
f 86//84 87//84 88//85
f 79//77 50//48 62//60
f 90//87 91//88 89//86
f 79//77 62//60 92//89
f 92//89 62//60 80//78
f 73//71 93//90 61//59
f 61//59 93//90 74//72
f 80//78 70//68 92//89
f 108//105 41//39 8//8
f 30//30 81//79 45//43
f 65//63 95//92 70//68
f 74//72 94//91 75//73
f 81//79 30//30 58//56
f 14//14 57//55 109//106
f 77//75 78//76 96//93
f 84//82 47//45 126//123
f 78//76 77//75 84//82
f 1//1 42//40 104//101
f 4//4 97//94 13//13
f 97//94 4//4 3//3
f 3//3 14//14 97//94
f 105//102 72//70 71//69
f 98//95 39//38 119//116
f 93//90 102//99 74//72
f 92//89 70//68 95//92
f 94//91 74//72 102//99
f 28//28 98//95 82//80
f 77//75 100//97 65//63
f 58//56 83//81 81//79
f 76//74 96//93 78//76
f 54//52 41//39 83//81
f 1//1 104//101 12//12
f 71//69 106//103 105//102
f 12//12 108//105 8//8
f 79//77 92//89 101//98
f 119//116 39//38 115//112
f 123//120 45//43 81//79
f 14//14 94//91 99//96
f 94//91 14//14 109//106
f 82//80 103//100 56//54
f 65//63 100//97 124//121
f 103//100 68//66 56//54
f 76//74 75//73 112//109
f 77//75 96//93 100//97
f 41//39 110//107 83//81
f 47//45 68//66 113//110
f 47//45 113//110 126//123
f 57//55 78//76 112//109
f 57//55 112//109 109//106
f 116//113 79//77 107//104
f 101//98 107//104 79//77
f 101//98 92//89 95//92
f 98//95 125//122 82//80
f 95//92 65//63 124//121
f 94//91 109//106 75//73
f 81//79 83//81 110//107
f 75//73 109//106 112//109
f 96//93 76//74 111//108
f 103//100 113//110 68//66
f 126//123 96//93 84//82
f 85//83 117//114 42//40
f 85//83 72//70 117//114
f 105//102 117//114 72//70
f 118//115 115//112 114//111
f 106//103 120//117 105//102
f 119//116 115//112 118//115
f 79//77 116//113 106//103
f 115//112 45//43 123//120
f 121//118 110//107 41//39
f 81//79 110//107 121//118
f 126//123 100//97 96//93
f 111//108 76//74 112//109
f 111//108 84//82 96//93
f 78//76 84//82 111//108
f 111//108 112//109 78//76
f 122//119 117//114 105//102
f 122//119 105//102 120//117
f 123//120 114//111 115//112
f 85//83 73//71 72//70
f 120//117 106//103 116//113
f 107//104 101//98 124//121
f 94//91 102//99 93//90
f 93//90 99//96 94//91
f 121//118 123//120 81//79
f 101//98 95//92 124//121
f 108//105 121//118 41//39
f 125//122 103//100 82//80
f 126//123 103//100 100//97
f 104//101 42//40 117//114
f 104//101 114//111 12//12
f 118//115 114//111 104//101
f 117//114 122//119 104//101
f 114//111 123//120 12//12
f 123//120 108//105 12//12
f 104//101 119//116 118//115
f 85//83 97//94 73//71
f 104//101 120//117 119//116
f 122//119 120//117 104//101
f 97//94 99//96 73//71
f 120//117 116//113 107//104
f 107//104 124//121 120//117
f 99//96 93//90 73//71
f 125//122 119//116 120//117
f 123//120 121//118 108//105
f 124//121 125//122 120//117
f 125//122 98//95 119//116
f 124//121 103//100 125//122
f 100//97 103//100 124//121
f 103//100 126//123 113//110
