# Blender 4.1.1
# www.blender.org
mtllib aa0326.mtl
o Liquid_Domain
v -8.463772 -9.085069 6.203844
v 8.459030 -9.090345 6.207278
v -8.463909 -9.091620 -6.202474
v 8.467272 -9.087098 -6.210221
v 4.835505 2.906738 6.180439
v 8.287718 -0.384307 -6.175514
v 8.429823 1.799197 6.116785
v 8.349401 -0.384924 -1.187507
v 8.361695 1.577594 2.670097
v 4.547852 -1.323923 -1.145857
v -8.450738 6.931612 6.103403
v 8.272434 -0.025768 -2.590804
v 4.544152 1.486921 -6.108191
v 7.216852 -1.061065 4.962183
v 7.205475 -0.880228 -0.423312
v 4.961389 -0.626357 4.824935
v 7.991562 0.234997 1.075370
v 4.589086 -1.523324 0.574895
v 2.603872 -0.931203 0.646967
v 6.852506 0.208332 -2.439223
v 8.405907 0.324836 -4.234786
v -2.662166 2.538629 -6.176863
v 4.089450 0.648975 3.225197
v 8.106302 1.447631 0.094078
v -6.199510 0.598325 -1.871521
v -7.220716 -0.432258 -3.465608
v 2.098936 0.264068 3.421102
v 3.430542 -0.805693 1.781087
v 7.962459 2.530713 1.951518
v 2.421086 2.054456 0.363587
v 4.937286 0.950352 -0.674381
v 3.889215 1.210679 5.035727
v 7.974380 2.393317 -2.276781
v -4.061914 2.175105 -4.512258
v -5.799222 1.796983 -5.183451
v 0.872280 3.171109 -6.121317
v 7.402530 1.891316 5.480352
v 3.014142 6.967789 6.163842
v 5.811621 3.153945 0.211566
v 1.722128 0.937710 5.074587
v -6.315661 1.477856 2.706495
v 1.623566 3.906631 0.495747
v 3.941318 2.047336 -0.890417
v 7.102190 2.804980 -4.232558
v -7.559114 2.171705 -4.244439
v -0.116378 4.300626 -6.152492
v 8.375547 7.058563 6.176485
v 6.187969 4.194633 5.517897
v 6.269167 3.006608 4.805754
v -6.232346 2.647462 0.832877
v -7.298672 3.901696 -1.460544
v 3.334649 2.104247 -2.876183
v 1.232558 3.149115 4.293552
v -5.437785 2.412697 3.740062
v -7.041518 2.873757 0.885689
v -4.911307 4.035623 -1.375626
v 2.891143 3.806624 -1.638690
v 1.428535 3.645669 -2.998631
v 5.587932 1.981655 -5.614877
v 3.760974 3.082099 -5.424040
v -3.825758 6.595472 6.183424
v 1.161524 4.243380 4.770714
v 7.209750 3.404507 3.481707
v -6.511853 4.688178 2.989563
v 8.280925 4.138134 2.487208
v 3.616349 3.663801 -0.013069
v -1.743239 4.534362 -4.491488
v -2.927070 4.415156 -5.354673
v 3.245259 3.932781 -5.930726
v 4.654707 6.745919 5.381458
v 4.908281 2.809885 0.714632
v 6.764253 4.287333 2.742614
v 5.343083 4.905972 0.075900
v 4.356181 4.307879 -2.090620
v -3.810381 5.578373 4.546898
v -6.821387 6.458162 -5.578321
v 1.195445 5.956320 -5.246843
v -1.734231 3.537938 -5.656563
v 1.173742 4.328706 -5.707878
v -3.963778 6.408347 -6.020720
v 4.336570 5.446050 -6.109605
v 7.249973 5.202248 2.497247
v 2.263341 5.095087 -2.063400
v -8.418819 6.788859 -0.337015
v -7.361841 6.656588 -2.127834
v 6.496364 6.430815 4.711090
v -2.512089 6.775217 4.688899
v -0.245183 5.276142 1.661608
v -6.766969 6.696469 0.401255
v -1.937815 6.052805 -1.683161
v -8.369867 6.840134 -6.150353
v 7.210184 5.267314 2.926438
v -3.761146 5.673269 1.071328
v 5.122516 5.972739 3.290422
v 3.825553 5.278839 -3.060714
v 2.505623 5.663174 4.190064
v 8.049939 5.934336 4.175281
v 6.644967 6.007399 -1.996756
v 8.369180 5.646823 -2.474357
v 8.180315 6.767076 -4.351594
v 7.317939 5.365435 -5.927430
v 4.434570 5.756827 1.908533
v 4.211628 6.380428 1.311834
v 2.132811 6.442427 0.411822
v -2.526652 7.055695 0.066127
v 8.207744 6.810715 -0.803012
v 0.590468 6.909081 -2.200652
v 4.859533 6.974864 -2.643802
v 4.519209 5.352435 -4.955664
v 0.198995 7.053128 -5.789417
v 3.993125 6.472243 2.442711
v 8.152001 6.581409 2.255266
v 5.562337 6.259816 1.406534
v 3.075991 6.314528 -3.145540
v 8.092763 6.909535 -5.951577
v -1.483349 7.079142 5.606208
v 5.424346 7.086675 3.253011
v 6.271409 6.900644 -2.496955
v 3.440373 6.635988 -3.462802
v -6.441282 6.882725 4.584066
v 2.332736 7.006204 0.318157
v 2.863756 6.920222 -3.441419
v 2.705554 6.952416 -3.890921
vn -0.5032 -0.5225 0.6884
vn 0.5049 -0.5214 0.6879
vn -0.5033 -0.5224 -0.6883
vn 0.5056 -0.5191 -0.6892
vn 0.0050 0.0011 1.0000
vn 0.5557 0.1957 -0.8080
vn 0.6142 0.0164 0.7889
vn 0.9657 0.2563 -0.0420
vn 0.9860 0.0613 -0.1553
vn 0.3693 0.5458 0.7521
vn -0.5121 0.5344 0.6725
vn 0.4636 0.8795 -0.1070
vn 0.1354 0.1777 -0.9747
vn -0.3939 0.6504 -0.6495
vn -0.6255 0.7413 0.2435
vn 0.3913 0.6365 -0.6646
vn -0.8345 0.5421 -0.0989
vn 0.0282 0.9927 -0.1172
vn 0.7130 0.5840 0.3881
vn 0.2668 0.7816 0.5639
vn 0.9343 0.3393 0.1094
vn 0.0316 0.0801 -0.9963
vn 0.2587 0.9113 -0.3203
vn 0.1606 0.9092 0.3841
vn 0.0041 0.8105 -0.5857
vn 0.4261 0.9047 0.0043
vn 0.7529 0.6505 -0.0997
vn 0.0384 0.8770 -0.4790
vn -0.0632 0.1450 -0.9874
vn 0.2252 0.2139 0.9505
vn 0.8936 0.0259 0.4481
vn 0.0861 0.3915 -0.9161
vn 0.0735 0.9924 -0.0987
vn -0.6633 0.6962 0.2744
vn 0.0376 0.4217 0.9060
vn 0.2600 0.2424 -0.9347
vn -0.4507 -0.2256 -0.8637
vn 0.0629 0.6585 0.7499
vn 0.8487 -0.3245 -0.4177
vn 0.4773 0.4862 -0.7320
vn 0.1710 0.9469 -0.2722
vn 0.7983 0.4666 0.3807
vn 0.7232 0.2317 -0.6506
vn 0.4441 0.8959 -0.0087
vn 0.8900 0.1690 0.4236
vn -0.0986 0.0984 -0.9902
vn 0.5175 0.5966 0.6134
vn -0.3511 0.1046 -0.9305
vn -0.5611 -0.0675 -0.8250
vn -0.4233 0.9055 -0.0292
vn 0.9923 0.0884 -0.0866
vn 0.4160 0.9061 -0.0766
vn 0.9625 0.2568 -0.0880
vn -0.0781 0.6231 -0.7783
vn 0.8883 0.4389 -0.1356
vn -0.7322 0.5959 -0.3298
vn 0.6158 0.6865 -0.3867
vn 0.8372 0.2899 -0.4637
vn 0.1821 0.7361 -0.6519
vn 0.1440 -0.2424 0.9594
vn 0.0104 0.3398 0.9404
vn 0.6368 -0.2092 -0.7421
vn -0.8620 0.1789 -0.4744
vn 0.8461 0.1008 -0.5234
vn 0.3909 0.2002 -0.8984
vn -0.7770 0.3098 0.5480
vn -0.6225 0.7401 -0.2545
vn 0.1277 0.6171 0.7765
vn -0.6712 -0.1788 0.7194
vn -0.0252 0.5763 -0.8169
vn -0.0638 -0.8357 0.5454
vn 0.1676 -0.8309 0.5306
vn 0.9409 -0.2421 -0.2369
vn 0.0225 -0.8755 -0.4827
vn 0.0136 0.2648 -0.9642
vn 0.3639 0.7551 0.5454
vn 0.5391 -0.6030 0.5880
vn -0.1585 0.6137 -0.7734
vn -0.1189 -0.5505 0.8263
vn 0.4444 0.8476 -0.2900
vn 0.2081 -0.1796 -0.9615
vn 0.7920 0.3333 -0.5115
vn 0.9781 -0.1801 -0.1046
vn -0.6735 0.7391 -0.0090
vn 0.9770 0.1784 -0.1169
vn -0.4020 0.3676 -0.8386
vn -0.3056 0.9004 -0.3097
vn 0.9724 -0.2216 0.0725
vn 0.7437 0.6540 -0.1385
vn -0.4824 0.7450 -0.4608
vn -0.4497 0.5870 -0.6733
vn 0.2942 0.7624 0.5764
vn -0.7654 0.6430 -0.0280
vn -0.3075 -0.1870 0.9330
vn -0.9406 -0.3392 0.0133
vn 0.6088 -0.7571 -0.2371
vn 0.6701 -0.3756 -0.6403
vn 0.3034 -0.2905 0.9075
vn 0.7521 -0.6411 0.1527
vn 0.9416 0.3220 -0.0988
vn 0.4014 -0.7316 -0.5511
vn -0.6324 -0.6895 0.3530
vn -0.1598 0.9255 -0.3433
vn 0.6403 -0.7532 -0.1509
vn -0.4996 0.8255 -0.2627
vn 0.2474 0.1777 0.9525
vn -0.2719 0.9281 -0.2545
vn -0.3328 0.9211 0.2020
vn 0.1053 -0.9447 0.3106
vn -0.3469 0.6827 -0.6431
vn 0.3585 0.8015 0.4786
vn 0.1118 0.0523 -0.9924
vn 0.5423 0.7993 -0.2591
vn 0.0995 -0.9805 -0.1693
vn 0.6128 0.4144 -0.6729
vn -0.0410 0.9694 0.2421
vn 0.0563 0.7418 0.6682
vn 0.0686 0.9808 0.1827
vn -0.1311 0.3748 0.9178
vn 0.1896 0.9196 -0.3442
vn 0.6062 0.7491 -0.2670
vn 0.3965 0.7259 -0.5620
vn 0.2490 0.8116 0.5285
s 1
usemtl Liquid_Domain_Material
f 2//2 1//1 3//3
f 4//4 2//2 3//3
f 1//1 2//2 5//5
f 2//2 4//4 8//8
f 8//8 4//4 21//21
f 4//4 6//6 21//21
f 7//7 2//2 9//9
f 2//2 8//8 9//9
f 2//2 7//7 5//5
f 18//18 19//19 28//28
f 18//18 10//10 19//19
f 15//15 10//10 18//18
f 8//8 21//21 12//12
f 15//15 20//20 10//10
f 6//6 4//4 13//13
f 14//14 15//15 16//16
f 17//17 15//15 14//14
f 15//15 18//18 16//16
f 27//27 28//28 19//19
f 15//15 17//17 20//20
f 32//32 16//16 18//18
f 28//28 23//23 18//18
f 1//1 84//84 3//3
f 17//17 24//24 20//20
f 31//31 19//19 10//10
f 84//84 91//91 3//3
f 4//4 3//3 22//22
f 23//23 32//32 18//18
f 28//28 27//27 40//40
f 14//14 29//29 17//17
f 8//8 20//20 24//24
f 4//4 36//36 13//13
f 16//16 37//37 14//14
f 40//40 32//32 28//28
f 14//14 37//37 29//29
f 28//28 32//32 23//23
f 9//9 8//8 17//17
f 17//17 8//8 24//24
f 8//8 33//33 20//20
f 20//20 12//12 21//21
f 26//26 25//25 34//34
f 26//26 35//35 45//45
f 34//34 35//35 26//26
f 44//44 21//21 6//6
f 3//3 91//91 22//22
f 4//4 22//22 36//36
f 16//16 32//32 37//37
f 9//9 17//17 29//29
f 1//1 11//11 84//84
f 10//10 20//20 31//31
f 6//6 13//13 59//59
f 1//1 5//5 38//38
f 42//42 19//19 30//30
f 31//31 39//39 19//19
f 19//19 39//39 30//30
f 8//8 12//12 33//33
f 20//20 33//33 12//12
f 59//59 44//44 6//6
f 27//27 19//19 42//42
f 39//39 31//31 43//43
f 43//43 31//31 52//52
f 31//31 44//44 52//52
f 44//44 20//20 21//21
f 36//36 22//22 46//46
f 40//40 48//48 32//32
f 37//37 32//32 49//49
f 40//40 27//27 53//53
f 27//27 42//42 53//53
f 39//39 71//71 30//30
f 50//50 25//25 55//55
f 25//25 26//26 45//45
f 31//31 20//20 44//44
f 60//60 59//59 13//13
f 7//7 47//47 5//5
f 48//48 49//49 32//32
f 40//40 53//53 62//62
f 64//64 41//41 55//55
f 50//50 55//55 41//41
f 25//25 50//50 56//56
f 55//55 25//25 51//51
f 58//58 57//57 52//52
f 52//52 57//57 43//43
f 25//25 45//45 51//51
f 44//44 59//59 52//52
f 36//36 52//52 59//59
f 29//29 37//37 49//49
f 63//63 29//29 49//49
f 54//54 41//41 64//64
f 9//9 29//29 65//65
f 71//71 66//66 30//30
f 25//25 56//56 34//34
f 58//58 52//52 36//36
f 60//60 36//36 59//59
f 13//13 36//36 81//81
f 38//38 61//61 1//1
f 54//54 50//50 41//41
f 74//74 43//43 57//57
f 34//34 68//68 35//35
f 60//60 69//69 36//36
f 46//46 79//79 36//36
f 40//40 70//70 48//48
f 7//7 9//9 65//65
f 65//65 29//29 63//63
f 39//39 72//72 71//71
f 30//30 57//57 42//42
f 30//30 66//66 57//57
f 39//39 43//43 73//73
f 35//35 76//76 45//45
f 67//67 68//68 34//34
f 22//22 78//78 46//46
f 36//36 69//69 81//81
f 62//62 70//70 40//40
f 49//49 48//48 63//63
f 65//65 63//63 82//82
f 42//42 88//88 53//53
f 82//82 72//72 39//39
f 50//50 93//93 56//56
f 57//57 83//83 42//42
f 83//83 57//57 58//58
f 51//51 45//45 76//76
f 56//56 67//67 34//34
f 68//68 67//67 78//78
f 36//36 79//79 77//77
f 81//81 60//60 13//13
f 1//1 61//61 11//11
f 54//54 64//64 75//75
f 53//53 88//88 62//62
f 50//50 54//54 93//93
f 63//63 72//72 82//82
f 71//71 102//102 66//66
f 57//57 66//66 74//74
f 43//43 74//74 73//73
f 85//85 51//51 76//76
f 58//58 36//36 77//77
f 77//77 69//69 60//60
f 48//48 70//70 86//86
f 48//48 97//97 63//63
f 7//7 65//65 97//97
f 75//75 87//87 54//54
f 72//72 94//94 71//71
f 94//94 102//102 71//71
f 64//64 55//55 89//89
f 55//55 51//51 89//89
f 42//42 83//83 88//88
f 51//51 85//85 89//89
f 90//90 67//67 56//56
f 58//58 77//77 83//83
f 79//79 69//69 77//77
f 22//22 91//91 80//80
f 80//80 78//78 22//22
f 79//79 46//46 69//69
f 97//97 92//92 63//63
f 93//93 54//54 87//87
f 96//96 62//62 88//88
f 72//72 63//63 92//92
f 72//72 92//92 94//94
f 82//82 92//92 65//65
f 113//113 39//39 73//73
f 102//102 103//103 66//66
f 56//56 93//93 90//90
f 66//66 95//95 74//74
f 109//109 74//74 95//95
f 109//109 99//99 74//74
f 60//60 109//109 77//77
f 80//80 68//68 78//78
f 109//109 60//60 81//81
f 96//96 70//70 62//62
f 7//7 97//97 47//47
f 82//82 39//39 113//113
f 66//66 103//103 95//95
f 73//73 74//74 98//98
f 98//98 99//99 106//106
f 99//99 98//98 74//74
f 99//99 109//109 100//100
f 35//35 68//68 76//76
f 67//67 110//110 78//78
f 101//101 109//109 81//81
f 5//5 47//47 38//38
f 97//97 48//48 86//86
f 64//64 120//120 75//75
f 97//97 65//65 92//92
f 96//96 104//104 102//102
f 88//88 83//83 104//104
f 105//105 90//90 93//93
f 103//103 108//108 95//95
f 107//107 67//67 90//90
f 83//83 77//77 122//122
f 95//95 114//114 109//109
f 110//110 67//67 107//107
f 101//101 100//100 109//109
f 78//78 110//110 46//46
f 69//69 46//46 81//81
f 92//92 117//117 94//94
f 111//111 96//96 102//102
f 111//111 102//102 94//94
f 120//120 64//64 89//89
f 88//88 104//104 96//96
f 104//104 103//103 102//102
f 113//113 73//73 98//98
f 114//114 104//104 83//83
f 114//114 83//83 122//122
f 95//95 119//119 114//114
f 119//119 95//95 108//108
f 123//123 122//122 77//77
f 109//109 123//123 77//77
f 101//101 115//115 100//100
f 68//68 80//80 76//76
f 80//80 91//91 76//76
f 101//101 81//81 115//115
f 120//120 87//87 75//75
f 38//38 70//70 96//96
f 96//96 111//111 38//38
f 97//97 86//86 112//112
f 97//97 112//112 47//47
f 82//82 117//117 92//92
f 111//111 94//94 117//117
f 113//113 111//111 117//117
f 82//82 113//113 117//117
f 87//87 105//105 93//93
f 113//113 103//103 111//111
f 103//103 104//104 121//121
f 118//118 103//103 113//113
f 113//113 98//98 118//118
f 104//104 114//114 121//121
f 114//114 119//119 121//121
f 98//98 106//106 118//118
f 99//99 100//100 106//106
f 119//119 109//109 122//122
f 122//122 109//109 114//114
f 119//119 123//123 109//109
f 81//81 46//46 110//110
f 81//81 110//110 115//115
f 11//11 61//61 116//116
f 116//116 61//61 38//38
f 38//38 47//47 70//70
f 116//116 120//120 11//11
f 116//116 87//87 120//120
f 47//47 86//86 70//70
f 120//120 84//84 11//11
f 86//86 47//47 112//112
f 38//38 121//121 116//116
f 111//111 121//121 38//38
f 89//89 84//84 120//120
f 111//111 103//103 121//121
f 116//116 105//105 87//87
f 121//121 105//105 116//116
f 89//89 91//91 84//84
f 85//85 91//91 89//89
f 122//122 105//105 121//121
f 107//107 90//90 105//105
f 108//108 103//103 118//118
f 122//122 107//107 105//105
f 119//119 122//122 121//121
f 106//106 100//100 118//118
f 118//118 100//100 108//108
f 122//122 110//110 107//107
f 123//123 110//110 122//122
f 108//108 123//123 119//119
f 100//100 115//115 108//108
f 85//85 76//76 91//91
f 108//108 115//115 123//123
f 115//115 110//110 123//123
