# Blender 4.1.1
# www.blender.org
mtllib aa0406.mtl
o Liquid_Domain
v -8.134167 -8.755833 6.217273
v -8.483020 -9.101377 5.867334
v 8.134167 -8.755833 6.217273
v 8.480310 -9.104034 5.864969
v 8.480061 -8.757540 -6.212862
v 8.134167 -9.108939 -5.864167
v -8.475665 -9.101966 -5.870930
v -8.126213 -8.739355 -6.221632
v 8.302823 2.313422 -6.188861
v 8.382477 6.949601 6.166762
v -5.779795 -0.265091 -6.169404
v -1.061561 -0.809415 -6.213287
v -8.120220 6.785394 6.224939
v -8.478952 7.116215 5.855684
v 8.462923 1.345121 -2.056803
v 8.450744 5.692492 2.703180
v -2.991368 -0.122296 -2.794757
v -2.364673 -0.209131 -5.499564
v -2.432034 0.299131 -2.907645
v -4.531061 0.358862 -3.869455
v -5.318464 0.279101 -5.747122
v -5.937788 0.841114 -4.042553
v -1.537399 1.370524 -5.761361
v -5.818998 1.152375 -5.733218
v 5.589346 1.828217 4.024860
v 5.301137 1.057754 2.909539
v 7.140317 2.363118 2.547946
v -8.459659 7.015744 -1.201133
v 1.091061 1.506811 -2.123520
v 3.185261 1.210268 -4.410616
v -3.117376 3.480963 -3.445970
v -4.971649 2.280194 -3.870380
v -5.024848 4.166725 -6.102197
v 3.461856 6.661462 6.189278
v 6.897176 2.206951 1.934232
v 7.718246 2.715474 -2.307145
v -3.367945 2.641636 -2.965958
v 1.028147 1.310027 -4.474786
v 3.817943 1.938992 -4.046657
v -4.089100 3.702825 -5.276404
v 1.882017 2.845153 -5.276842
v -0.172377 3.492090 -6.166323
v 3.844741 3.863894 4.034790
v 4.398767 2.164287 1.682842
v 3.932436 2.173028 0.488909
v 2.137719 2.016062 -1.870474
v 5.395752 1.878338 -3.397335
v -8.334931 6.331240 -6.179059
v 6.301217 3.613746 3.666554
v 6.187753 3.051660 0.507483
v 5.449721 2.547503 -0.403962
v 4.344523 2.886476 -1.963975
v 6.075465 2.163327 -2.144539
v 3.156370 2.431715 -3.039333
v 0.631525 2.813933 -2.169360
v 1.032201 3.978890 -2.581491
v 7.685750 2.514833 -3.199452
v -1.024971 4.688241 -2.695483
v -4.247081 3.720424 -3.225645
v 7.998811 3.214158 -4.944077
v 5.713906 3.101283 -5.047402
v 3.488435 2.864584 -5.061772
v 5.507600 4.281199 -6.089325
v 2.629653 4.026797 0.995752
v 2.091480 3.266649 -1.914103
v 7.101320 3.975098 -5.773243
v -2.318031 3.562624 -5.258224
v 0.022918 3.668778 -4.641912
v 7.488546 6.852826 4.384809
v 7.446549 4.476728 -1.258218
v 8.321145 5.284713 -1.082512
v 1.003366 4.713788 -5.177519
v 1.689502 3.129735 -0.588013
v 0.224414 4.235295 -1.919415
v 4.792293 4.631066 -5.457222
v -1.020455 3.953217 -5.542137
v 7.600649 5.499458 0.085649
v -1.184765 4.491328 -4.750512
v -2.581015 4.573141 -5.912566
v 5.050530 6.480416 4.315660
v 0.103775 5.247001 1.671822
v -4.750717 4.832736 -5.236307
v 2.834627 4.580777 4.186273
v 4.373719 4.141082 4.317491
v 2.340487 4.923380 3.145694
v -6.629778 5.071452 -2.998883
v 2.737693 5.665548 -5.484980
v -6.300900 5.619436 -6.025139
v -6.229720 4.091870 -3.880483
v -5.361311 6.233546 -1.800849
v -4.327730 5.132099 -4.202924
v -6.903324 5.751481 -5.178551
v 1.604656 6.107665 -5.854524
v 2.787910 6.589429 4.918765
v -0.632480 5.421934 -0.679935
v 8.093287 6.532678 3.057990
v 4.822200 6.183531 -5.393045
v 5.076601 6.499542 -6.054702
v -1.909490 6.404067 0.856331
v -2.966222 6.073073 -2.023130
v -4.480352 6.686950 -0.841241
v -7.005108 6.730193 -2.772877
v -8.152451 6.959254 -4.339261
v 3.244483 7.045042 5.819868
v 1.618896 7.008673 3.324669
v -5.299141 7.061946 -0.626128
v -1.254808 7.000180 2.028786
vn -0.2808 -0.2864 0.9160
vn -0.6223 -0.6499 0.4364
vn 0.2797 -0.2883 0.9158
vn 0.6221 -0.6522 0.4331
vn 0.5417 -0.3592 -0.7600
vn 0.2945 -0.9010 -0.3184
vn -0.6193 -0.6502 -0.4401
vn -0.2779 -0.2796 -0.9190
vn 0.5909 0.2065 -0.7799
vn 0.5078 0.5426 0.6691
vn 0.1194 0.1274 -0.9846
vn -0.0816 0.0972 -0.9919
vn -0.2816 0.3057 0.9095
vn -0.6257 0.6573 0.4200
vn 0.9859 0.1372 -0.0960
vn 0.9765 0.2106 -0.0446
vn 0.0311 0.5516 -0.8335
vn -0.2919 0.7732 -0.5630
vn -0.6041 0.1691 -0.7787
vn 0.4224 0.6598 -0.6215
vn 0.4389 0.6475 -0.6230
vn 0.7426 0.2304 -0.6289
vn -0.6354 0.0785 -0.7682
vn 0.9902 -0.0831 0.1126
vn -0.1036 0.4966 -0.8618
vn 0.1487 0.9860 -0.0749
vn -0.8420 0.4873 -0.2315
vn -0.6965 0.7172 -0.0212
vn 0.3110 0.6524 -0.6911
vn -0.4115 0.8245 0.3884
vn -0.5369 -0.6533 -0.5339
vn 0.7555 -0.2443 -0.6079
vn 0.4327 0.1418 -0.8903
vn -0.0072 0.3370 0.9415
vn -0.5679 0.7003 0.4324
vn 0.2992 0.6333 -0.7138
vn -0.1369 -0.0941 -0.9861
vn 0.4285 0.7374 0.5222
vn -0.3806 0.9221 0.0700
vn 0.3769 -0.5385 -0.7537
vn 0.1264 0.2492 0.9602
vn -0.2171 0.2625 -0.9402
vn 0.5079 0.5709 -0.6450
vn 0.4227 0.8983 0.1202
vn 0.1835 0.9651 -0.1869
vn 0.0906 0.7804 -0.6187
vn -0.0532 0.9938 0.0980
vn -0.4038 0.5216 -0.7516
vn -0.4344 0.1774 -0.8831
vn -0.5634 0.7754 0.2850
vn -0.3552 0.9335 -0.0491
vn 0.0711 0.9938 -0.0849
vn -0.2723 0.8960 -0.3506
vn -0.4019 0.8254 -0.3965
vn 0.1874 -0.0247 -0.9820
vn 0.0566 0.4576 -0.8874
vn 0.2284 0.9346 0.2727
vn 0.6285 0.7283 -0.2730
vn 0.3613 -0.6146 -0.7012
vn 0.7253 0.6712 0.1533
vn -0.0726 0.6903 0.7199
vn -0.1601 0.4208 0.8929
vn 0.4535 0.4666 -0.7594
vn 0.5003 0.7342 -0.4589
vn 0.8534 0.4298 -0.2949
vn 0.3222 0.9184 -0.2295
vn -0.3912 -0.4746 -0.7885
vn 0.5257 0.6424 0.5576
vn -0.1072 0.8938 -0.4354
vn -0.5324 0.5811 -0.6156
vn 0.3680 0.6891 -0.6243
vn -0.1931 0.4624 0.8654
vn 0.6127 0.7370 -0.2853
vn 0.5093 0.7022 -0.4975
vn 0.2909 0.1538 0.9443
vn -0.0258 0.6896 -0.7237
vn -0.6345 0.7454 -0.2043
vn 0.4646 0.8349 -0.2953
vn 0.0594 0.2515 -0.9660
vn -0.1604 0.4791 -0.8630
vn 0.4897 0.7072 -0.5099
vn 0.2406 0.8872 -0.3936
vn 0.5956 0.5241 -0.6087
vn -0.0311 0.2049 -0.9783
vn 0.6637 0.5953 -0.4529
vn 0.6076 0.5413 -0.5812
vn -0.0493 0.2445 0.9684
vn 0.3875 0.6219 -0.6805
vn 0.2645 0.9577 -0.1138
vn 0.2849 0.6726 -0.6830
vn -0.2254 0.9126 -0.3410
vn 0.6960 0.6437 0.3183
vn -0.4293 0.8738 -0.2286
vn 0.4999 0.4578 -0.7352
vn 0.5616 0.8144 -0.1459
vn 0.4326 0.8649 -0.2544
vn 0.3167 0.4203 0.8503
vn 0.4949 0.6976 -0.5182
vn 0.4636 0.7659 -0.4455
vn 0.2429 0.9242 -0.2945
vn 0.2736 0.8912 -0.3619
vn 0.7946 0.1558 -0.5868
vn -0.2062 0.9517 -0.2276
vn 0.0265 0.9614 0.2739
vn 0.4325 0.7089 -0.5572
vn 0.1586 0.9680 -0.1945
vn 0.2937 0.8703 -0.3955
s 1
usemtl Liquid_Domain_Material
f 2//2 4//4 1//1
f 1//1 4//4 3//3
f 5//5 4//4 6//6
f 4//4 2//2 6//6
f 6//6 2//2 7//7
f 6//6 7//7 8//8
f 5//5 6//6 8//8
f 10//10 3//3 4//4
f 8//8 12//12 5//5
f 5//5 12//12 9//9
f 1//1 13//13 14//14
f 2//2 1//1 14//14
f 8//8 11//11 12//12
f 5//5 9//9 15//15
f 12//12 11//11 18//18
f 10//10 4//4 16//16
f 4//4 5//5 16//16
f 8//8 7//7 48//48
f 11//11 8//8 48//48
f 21//21 18//18 11//11
f 17//17 18//18 20//20
f 20//20 21//21 22//22
f 17//17 19//19 18//18
f 18//18 21//21 20//20
f 19//19 23//23 18//18
f 24//24 21//21 11//11
f 12//12 18//18 23//23
f 22//22 21//21 24//24
f 3//3 34//34 1//1
f 25//25 27//27 26//26
f 16//16 5//5 15//15
f 46//46 30//30 29//29
f 2//2 28//28 7//7
f 30//30 38//38 29//29
f 20//20 22//22 32//32
f 11//11 48//48 33//33
f 24//24 11//11 33//33
f 25//25 26//26 43//43
f 35//35 44//44 26//26
f 27//27 35//35 26//26
f 19//19 17//17 31//31
f 17//17 37//37 31//31
f 46//46 54//54 30//30
f 36//36 15//15 57//57
f 37//37 17//17 20//20
f 31//31 23//23 19//19
f 38//38 30//30 41//41
f 12//12 23//23 42//42
f 3//3 10//10 34//34
f 30//30 54//54 39//39
f 22//22 24//24 32//32
f 39//39 62//62 30//30
f 24//24 40//40 32//32
f 24//24 33//33 40//40
f 49//49 27//27 25//25
f 43//43 26//26 44//44
f 44//44 35//35 50//50
f 45//45 44//44 50//50
f 50//50 51//51 45//45
f 51//51 52//52 45//45
f 45//45 46//46 73//73
f 45//45 52//52 46//46
f 56//56 46//46 55//55
f 46//46 29//29 55//55
f 52//52 54//54 46//46
f 47//47 52//52 51//51
f 53//53 47//47 51//51
f 52//52 39//39 54//54
f 47//47 39//39 52//52
f 57//57 47//47 53//53
f 20//20 32//32 37//37
f 32//32 59//59 37//37
f 29//29 38//38 58//58
f 39//39 47//47 61//61
f 57//57 61//61 47//47
f 60//60 57//57 15//15
f 61//61 62//62 39//39
f 38//38 41//41 68//68
f 41//41 30//30 62//62
f 60//60 15//15 9//9
f 9//9 12//12 63//63
f 25//25 43//43 84//84
f 64//64 44//44 45//45
f 73//73 64//64 45//45
f 65//65 73//73 46//46
f 46//46 56//56 65//65
f 57//57 53//53 36//36
f 58//58 55//55 29//29
f 31//31 67//67 23//23
f 68//68 58//58 38//38
f 23//23 67//67 42//42
f 44//44 64//64 43//43
f 70//70 53//53 51//51
f 71//71 15//15 36//36
f 53//53 70//70 36//36
f 55//55 74//74 56//56
f 37//37 59//59 31//31
f 59//59 32//32 40//40
f 61//61 57//57 66//66
f 60//60 66//66 57//57
f 41//41 72//72 68//68
f 7//7 28//28 48//48
f 42//42 67//67 76//76
f 9//9 66//66 60//60
f 25//25 84//84 49//49
f 35//35 77//77 50//50
f 36//36 70//70 71//71
f 55//55 58//58 74//74
f 78//78 58//58 68//68
f 67//67 31//31 40//40
f 61//61 75//75 62//62
f 9//9 63//63 66//66
f 27//27 77//77 35//35
f 16//16 15//15 71//71
f 50//50 70//70 51//51
f 73//73 65//65 74//74
f 74//74 65//65 56//56
f 31//31 59//59 40//40
f 67//67 40//40 79//79
f 62//62 75//75 41//41
f 76//76 67//67 79//79
f 61//61 66//66 63//63
f 83//83 84//84 43//43
f 84//84 80//80 49//49
f 85//85 83//83 43//43
f 43//43 64//64 85//85
f 64//64 73//73 81//81
f 77//77 70//70 50//50
f 74//74 95//95 73//73
f 76//76 79//79 78//78
f 68//68 76//76 78//78
f 72//72 76//76 68//68
f 75//75 87//87 41//41
f 40//40 33//33 82//82
f 40//40 82//82 79//79
f 76//76 72//72 42//42
f 61//61 63//63 75//75
f 33//33 48//48 88//88
f 1//1 34//34 13//13
f 69//69 27//27 49//49
f 92//92 89//89 82//82
f 91//91 82//82 89//89
f 41//41 87//87 72//72
f 75//75 63//63 97//97
f 98//98 12//12 42//42
f 12//12 98//98 63//63
f 83//83 94//94 84//84
f 85//85 64//64 81//81
f 27//27 69//69 77//77
f 99//99 81//81 73//73
f 14//14 28//28 2//2
f 95//95 99//99 73//73
f 74//74 58//58 95//95
f 86//86 89//89 92//92
f 78//78 79//79 100//100
f 91//91 79//79 82//82
f 79//79 91//91 100//100
f 75//75 97//97 87//87
f 33//33 88//88 82//82
f 72//72 93//93 42//42
f 49//49 80//80 69//69
f 83//83 85//85 94//94
f 77//77 71//71 70//70
f 90//90 89//89 86//86
f 89//89 90//90 91//91
f 58//58 78//78 100//100
f 86//86 92//92 102//102
f 92//92 82//82 88//88
f 63//63 98//98 97//97
f 84//84 94//94 80//80
f 81//81 107//107 85//85
f 96//96 77//77 69//69
f 81//81 99//99 107//107
f 96//96 71//71 77//77
f 96//96 16//16 71//71
f 95//95 58//58 100//100
f 100//100 91//91 90//90
f 87//87 93//93 72//72
f 97//97 93//93 87//87
f 98//98 42//42 93//93
f 94//94 85//85 105//105
f 107//107 105//105 85//85
f 99//99 95//95 101//101
f 95//95 100//100 101//101
f 101//101 100//100 90//90
f 90//90 102//102 101//101
f 86//86 102//102 90//90
f 28//28 103//103 48//48
f 103//103 102//102 92//92
f 103//103 92//92 88//88
f 93//93 97//97 98//98
f 10//10 16//16 96//96
f 99//99 101//101 106//106
f 88//88 48//48 103//103
f 14//14 13//13 104//104
f 13//13 34//34 104//104
f 104//104 34//34 10//10
f 10//10 69//69 104//104
f 104//104 94//94 105//105
f 104//104 107//107 14//14
f 105//105 107//107 104//104
f 80//80 94//94 104//104
f 69//69 80//80 104//104
f 10//10 96//96 69//69
f 106//106 28//28 14//14
f 107//107 106//106 14//14
f 99//99 106//106 107//107
f 106//106 103//103 28//28
f 101//101 102//102 106//106
f 106//106 102//102 103//103
