# Blender 4.1.1
# www.blender.org
mtllib aa0420.mtl
o Liquid_Domain
v -8.134167 -8.755833 6.217273
v -8.482772 -9.102970 5.866847
v 8.484314 -8.754910 6.214958
v 8.134167 -9.108939 5.864167
v -8.477800 -9.100026 -5.867832
v 8.527526 -8.705028 -5.829060
v 8.134167 -9.108939 -5.864167
v -8.134167 -8.755833 -6.217273
v 8.134167 -8.755833 -6.217273
v 8.477301 6.686412 5.866595
v -8.122370 6.804948 6.220621
v 8.465615 1.688057 -2.549574
v 7.845828 1.759007 -6.180747
v -3.563968 -0.186814 -6.189912
v 2.751911 3.077150 -6.197881
v -8.437620 5.573253 -2.590378
v -8.475048 7.099078 5.863050
v -3.472637 1.123345 -5.793764
v 5.135397 6.699715 6.205422
v 2.586815 1.488127 1.545452
v 2.770859 1.164603 0.759640
v -6.433234 1.146062 -4.458728
v -6.137164 2.269494 -6.067970
v -1.001832 2.469028 -6.154795
v 4.063028 2.819713 1.401319
v 7.719594 2.587490 -3.592775
v -7.117190 1.668481 -4.047359
v -4.799392 1.963978 -4.981489
v -6.464502 2.502868 -5.606289
v 2.846550 2.424325 1.765070
v 2.513033 2.558409 0.417680
v 3.819328 3.075292 0.372696
v 5.404177 2.025342 1.170693
v 2.356261 1.843757 0.219199
v 5.255071 1.955494 -0.673909
v 3.476325 2.567088 -1.429420
v 2.095870 1.927113 -1.024038
v 6.213915 1.641459 -3.294668
v 4.319952 2.137397 -4.808506
v 6.935798 2.621294 -5.063587
v -7.217374 3.774295 -4.840533
v -2.720350 2.608217 -4.974813
v 8.210690 2.411018 -5.718576
v 0.788131 3.025563 0.630880
v 6.549954 3.165524 0.300551
v 1.761749 2.808507 -4.783646
v -4.813683 4.173457 -3.670286
v -8.390158 3.769528 -6.148695
v 0.605073 2.479938 -1.562658
v -0.116224 2.616960 -3.644376
v 3.542302 2.888917 -4.371520
v -6.543470 3.672523 -2.643684
v -6.078670 3.052459 -3.208229
v -3.481617 3.518519 -3.613577
v 0.726322 3.398719 -4.988959
v 3.308683 3.491979 -5.349090
v -2.492101 3.744948 -5.926790
v 5.969267 2.994775 1.881382
v 8.389930 3.057906 -1.379948
v -1.168459 4.458226 -1.555929
v 7.453865 3.766744 -1.393346
v 5.032845 3.870997 -5.354811
v 6.949865 3.987491 -5.358642
v 3.489067 3.851243 -5.875341
v 7.519125 4.360149 -5.972047
v 2.080171 4.230968 2.429446
v 1.805063 3.861725 0.883368
v -1.948938 4.445952 -4.821354
v 1.999085 4.336166 -5.625671
v 6.408612 4.077463 3.463469
v -0.241906 3.596820 -5.792744
v 8.137098 6.987708 6.203269
v 7.503845 6.794527 1.784831
v 5.828277 4.936347 4.108861
v 8.400354 6.981598 2.304654
v 2.941503 5.267527 2.711755
v 8.006610 5.840702 -0.149433
v -5.655307 5.596374 -2.203212
v -3.292659 5.131267 -2.400704
v -2.395831 5.254521 -4.134407
v -7.883185 4.780521 -5.799286
v 6.994843 6.644939 4.039063
v -8.369633 6.851391 0.130974
v -7.464012 5.473167 -2.374262
v -0.230472 5.444697 1.383810
v 3.352029 6.550505 4.054660
v -1.646644 6.753041 -2.985583
v -3.295747 6.730083 -2.014086
v -2.113732 6.683879 -4.523834
v 1.060171 5.846478 3.193270
v 5.221673 6.927317 4.298706
v -1.985794 5.720080 -0.519957
v 0.037139 6.789108 4.593949
v -7.099325 6.110755 -2.110530
v -6.400806 6.827110 -2.732762
v -1.053566 7.108289 5.789204
v 5.564206 7.100827 5.823858
v -3.582022 7.052627 1.507842
v -0.331516 6.856448 2.633084
v -6.920464 7.001908 -0.365641
v -2.960690 6.949360 -1.101729
v -5.270603 7.046111 -1.407120
vn -0.2812 -0.2861 0.9160
vn -0.6224 -0.6499 0.4362
vn 0.5420 -0.3629 0.7580
vn 0.3018 -0.9008 0.3123
vn -0.6225 -0.6521 -0.4327
vn 0.8761 -0.3179 -0.3625
vn 0.3456 -0.8625 -0.3697
vn -0.2787 -0.2888 -0.9159
vn 0.3166 -0.3142 -0.8950
vn 0.8944 0.3182 0.3143
vn -0.2796 0.3205 0.9051
vn 0.9781 0.1758 -0.1112
vn 0.3744 0.0488 -0.9260
vn -0.0052 0.0795 -0.9968
vn -0.0216 0.1992 -0.9797
vn -0.6765 0.6579 -0.3308
vn -0.6329 0.6559 0.4113
vn -0.0816 0.4611 -0.8836
vn -0.0106 0.3413 0.9399
vn 0.3245 0.5475 -0.7714
vn -0.0210 0.9635 0.2670
vn 0.0680 0.9968 -0.0428
vn 0.3583 0.6092 -0.7075
vn -0.1241 0.1463 -0.9814
vn -0.0936 0.7739 -0.6263
vn 0.1879 0.9782 -0.0881
vn 0.6738 0.5994 -0.4321
vn -0.0705 0.8579 -0.5089
vn 0.6173 0.7742 0.1395
vn 0.2176 0.3368 -0.9161
vn 0.5480 0.2758 -0.7897
vn -0.0721 0.9844 0.1605
vn -0.1323 0.8995 -0.4165
vn 0.1632 0.9866 0.0029
vn -0.0395 0.9829 -0.1800
vn -0.0079 0.9997 -0.0226
vn -0.0631 0.9950 0.0774
vn -0.2123 0.9771 -0.0143
vn 0.2792 0.7505 0.5989
vn 0.1043 0.6951 0.7113
vn 0.9346 0.3517 -0.0534
vn -0.5875 0.3047 -0.7497
vn 0.9147 0.3427 -0.2143
vn 0.3719 0.5606 -0.7399
vn -0.7958 0.5693 -0.2067
vn 0.0568 0.8000 0.5973
vn -0.1358 0.5695 -0.8107
vn -0.4365 0.2529 -0.8634
vn 0.5182 0.8527 -0.0656
vn 0.3951 0.9135 0.0969
vn 0.3778 0.8947 0.2383
vn 0.1994 0.4663 -0.8619
vn -0.4177 0.5240 -0.7423
vn -0.2918 0.5830 -0.7582
vn -0.0308 0.7711 0.6360
vn 0.0885 0.6821 0.7259
vn -0.4346 0.2649 -0.8608
vn -0.3347 0.7382 -0.5857
vn 0.8672 0.3749 -0.3277
vn 0.8417 0.5286 -0.1103
vn -0.2533 0.7443 -0.6180
vn -0.0652 0.6480 0.7589
vn 0.2073 0.5105 0.8345
vn -0.0202 0.9015 -0.4323
vn 0.5037 0.7698 -0.3921
vn 0.2763 0.5453 -0.7914
vn 0.4187 0.5412 -0.7292
vn 0.4883 0.7605 -0.4280
vn 0.0186 0.9981 -0.0595
vn -0.3787 0.6785 -0.6295
vn 0.0442 0.7848 -0.6182
vn 0.3476 0.5509 0.7587
vn -0.5140 0.7945 -0.3234
vn -0.0209 0.4239 -0.9055
vn 0.5926 0.7926 -0.1436
vn 0.0916 0.5298 -0.8432
vn 0.0911 0.7006 -0.7077
vn 0.1163 0.3060 -0.9449
vn -0.4271 0.4629 -0.7767
vn -0.4662 0.4880 -0.7379
vn 0.0564 0.7262 -0.6852
vn -0.6649 0.3042 -0.6822
vn -0.6829 0.7162 -0.1439
vn 0.2384 0.4124 -0.8793
vn 0.4914 0.6412 -0.5894
vn 0.0826 0.6534 -0.7525
vn 0.7014 0.7023 -0.1216
vn -0.3722 0.7332 -0.5691
vn 0.0897 0.3063 -0.9477
vn 0.3310 0.7555 -0.5653
vn 0.0297 0.6786 -0.7339
vn 0.7336 0.6791 -0.0259
vn 0.1654 0.9635 -0.2106
vn -0.5515 0.7211 -0.4193
vn -0.0281 0.4335 -0.9007
vn 0.0302 0.9482 0.3161
vn -0.0268 0.9465 0.3216
vn 0.1633 0.9791 -0.1208
vn 0.3855 0.8449 -0.3709
vn -0.1558 0.9741 -0.1640
vn 0.3534 0.9331 0.0667
vn 0.0701 0.9015 -0.4271
s 1
usemtl Liquid_Domain_Material
f 1//1 2//2 3//3
f 2//2 4//4 3//3
f 6//6 3//3 4//4
f 7//7 2//2 5//5
f 4//4 2//2 7//7
f 7//7 6//6 4//4
f 7//7 5//5 8//8
f 9//9 7//7 8//8
f 6//6 7//7 9//9
f 10//10 72//72 3//3
f 5//5 48//48 8//8
f 1//1 11//11 2//2
f 9//9 8//8 13//13
f 13//13 6//6 9//9
f 8//8 14//14 15//15
f 2//2 16//16 5//5
f 3//3 6//6 12//12
f 8//8 48//48 14//14
f 8//8 15//15 13//13
f 5//5 16//16 48//48
f 14//14 48//48 23//23
f 43//43 6//6 13//13
f 12//12 6//6 43//43
f 14//14 23//23 18//18
f 2//2 11//11 17//17
f 14//14 18//18 24//24
f 15//15 14//14 24//24
f 20//20 21//21 34//34
f 20//20 25//25 21//21
f 27//27 22//22 29//29
f 22//22 28//28 29//29
f 18//18 23//23 28//28
f 18//18 42//42 24//24
f 3//3 19//19 1//1
f 25//25 20//20 30//30
f 30//30 20//20 31//31
f 20//20 34//34 31//31
f 25//25 32//32 21//21
f 21//21 32//32 34//34
f 49//49 34//34 37//37
f 35//35 38//38 36//36
f 39//39 51//51 36//36
f 38//38 39//39 36//36
f 38//38 26//26 40//40
f 40//40 39//39 38//38
f 27//27 29//29 41//41
f 28//28 42//42 18//18
f 12//12 43//43 26//26
f 29//29 28//28 23//23
f 3//3 72//72 19//19
f 10//10 3//3 12//12
f 35//35 25//25 33//33
f 32//32 25//25 35//35
f 34//34 32//32 37//37
f 33//33 45//45 35//35
f 44//44 34//34 49//49
f 36//36 37//37 32//32
f 38//38 35//35 45//45
f 36//36 46//46 37//37
f 37//37 46//46 49//49
f 38//38 61//61 26//26
f 12//12 26//26 59//59
f 46//46 50//50 49//49
f 22//22 27//27 53//53
f 27//27 52//52 53//53
f 53//53 47//47 22//22
f 22//22 47//47 28//28
f 28//28 54//54 42//42
f 40//40 26//26 43//43
f 40//40 62//62 39//39
f 58//58 45//45 33//33
f 44//44 67//67 34//34
f 34//34 67//67 31//31
f 35//35 36//36 32//32
f 38//38 45//45 61//61
f 46//46 36//36 51//51
f 55//55 50//50 46//46
f 51//51 56//56 46//46
f 51//51 39//39 56//56
f 24//24 42//42 57//57
f 25//25 58//58 33//33
f 30//30 31//31 67//67
f 44//44 49//49 60//60
f 50//50 60//60 49//49
f 61//61 59//59 26//26
f 39//39 62//62 56//56
f 40//40 63//63 62//62
f 43//43 63//63 40//40
f 63//63 43//43 65//65
f 29//29 23//23 48//48
f 15//15 24//24 71//71
f 13//13 15//15 65//65
f 65//65 43//43 13//13
f 30//30 66//66 25//25
f 25//25 66//66 58//58
f 70//70 45//45 58//58
f 52//52 27//27 41//41
f 54//54 28//28 47//47
f 50//50 71//71 68//68
f 71//71 50//50 55//55
f 46//46 69//69 55//55
f 46//46 56//56 69//69
f 48//48 81//81 29//29
f 24//24 57//57 71//71
f 30//30 67//67 66//66
f 12//12 59//59 10//10
f 60//60 92//92 44//44
f 68//68 60//60 50//50
f 54//54 57//57 42//42
f 41//41 29//29 81//81
f 71//71 55//55 69//69
f 68//68 71//71 57//57
f 56//56 64//64 69//69
f 64//64 56//56 62//62
f 71//71 69//69 15//15
f 69//69 64//64 15//15
f 15//15 64//64 65//65
f 1//1 19//19 11//11
f 76//76 58//58 66//66
f 75//75 10//10 59//59
f 85//85 67//67 44//44
f 17//17 16//16 2//2
f 45//45 77//77 61//61
f 53//53 52//52 78//78
f 78//78 47//47 53//53
f 54//54 47//47 79//79
f 68//68 57//57 80//80
f 64//64 62//62 65//65
f 65//65 62//62 63//63
f 70//70 58//58 74//74
f 66//66 67//67 85//85
f 85//85 44//44 92//92
f 59//59 61//61 77//77
f 78//78 79//79 47//47
f 52//52 41//41 84//84
f 80//80 57//57 54//54
f 84//84 41//41 81//81
f 74//74 58//58 76//76
f 70//70 82//82 45//45
f 76//76 66//66 90//90
f 17//17 83//83 16//16
f 73//73 77//77 45//45
f 52//52 84//84 78//78
f 92//92 60//60 87//87
f 60//60 68//68 87//87
f 79//79 80//80 54//54
f 16//16 81//81 48//48
f 82//82 70//70 74//74
f 66//66 99//99 90//90
f 66//66 85//85 99//99
f 45//45 82//82 73//73
f 102//102 79//79 78//78
f 84//84 81//81 16//16
f 76//76 86//86 74//74
f 75//75 59//59 77//77
f 101//101 92//92 87//87
f 102//102 88//88 79//79
f 94//94 84//84 16//16
f 78//78 84//84 95//95
f 84//84 94//94 95//95
f 80//80 87//87 68//68
f 80//80 89//89 87//87
f 90//90 86//86 76//76
f 91//91 74//74 86//86
f 99//99 93//93 90//90
f 98//98 85//85 92//92
f 88//88 80//80 79//79
f 88//88 89//89 80//80
f 74//74 91//91 82//82
f 90//90 93//93 86//86
f 98//98 99//99 85//85
f 77//77 73//73 75//75
f 92//92 101//101 98//98
f 100//100 94//94 83//83
f 94//94 16//16 83//83
f 95//95 94//94 100//100
f 95//95 102//102 78//78
f 17//17 11//11 96//96
f 11//11 19//19 96//96
f 96//96 19//19 97//97
f 97//97 19//19 72//72
f 97//97 93//93 96//96
f 72//72 10//10 75//75
f 96//96 98//98 17//17
f 91//91 93//93 97//97
f 97//97 82//82 91//91
f 72//72 75//75 97//97
f 91//91 86//86 93//93
f 75//75 82//82 97//97
f 93//93 99//99 96//96
f 99//99 98//98 96//96
f 75//75 73//73 82//82
f 17//17 100//100 83//83
f 98//98 100//100 17//17
f 101//101 102//102 98//98
f 102//102 100//100 98//98
f 95//95 100//100 102//102
f 88//88 102//102 101//101
f 87//87 89//89 101//101
f 89//89 88//88 101//101
