# Blender 4.1.1
# www.blender.org
mtllib aa0413.mtl
o Liquid_Domain
v -8.134167 -8.755833 6.217273
v -8.481639 -9.099154 5.868744
v 8.134167 -8.755833 6.217273
v 8.482118 -9.102374 5.866612
v 8.478008 -8.757271 -6.215130
v 8.134167 -9.108939 -5.864167
v -8.477362 -9.104035 -5.869079
v -8.134167 -8.755833 -6.217273
v -3.103532 -2.174369 -6.189517
v -6.310071 -0.598975 -6.177795
v -8.122842 6.775243 6.225439
v 8.020143 0.572033 -6.202243
v -8.090305 4.888960 -6.191777
v -4.767749 -0.623952 -5.207825
v 4.267087 3.563035 -6.168513
v -1.559880 0.249947 -5.738356
v 0.429871 2.056021 -6.166453
v -4.463006 2.505666 -6.090639
v -8.478733 7.096187 5.864860
v 8.470180 3.052234 -0.327591
v 8.374044 1.627941 -4.384254
v -3.922228 0.994788 -5.242415
v -2.583050 0.249800 -4.808870
v -2.204626 1.571634 -2.821591
v -1.439965 2.225829 -5.263179
v -8.467269 4.665081 -5.759342
v 2.704647 1.249153 -0.075988
v 1.219535 1.335464 -4.004643
v 2.044595 1.383029 -0.364874
v 1.408592 2.084222 -1.469240
v 0.448349 1.883286 -4.424080
v 2.112153 1.841948 -4.614669
v 8.454718 0.911625 -5.771795
v 7.449081 3.568265 -6.084294
v 6.524745 1.954015 0.186208
v 1.974123 2.818799 0.691622
v 4.222602 2.630023 -0.878407
v 0.317139 2.113275 -2.145046
v 3.323029 2.824267 -3.562799
v 5.169992 1.811951 -4.410519
v 7.155536 2.674627 -4.685263
v 4.271156 3.333633 -5.484301
v 5.577733 2.156309 2.384103
v 1.518848 3.651779 -1.803737
v 5.311199 2.422454 -2.512863
v 0.504445 3.240587 -1.612292
v -0.089762 3.249689 -2.629045
v 7.099095 3.341546 -3.342091
v -7.029412 2.263804 -4.218574
v 8.330497 3.352684 -3.571175
v -5.457582 3.681133 -6.064126
v 7.153042 4.244534 2.174318
v 7.273861 3.744015 -0.628410
v -3.620566 3.341142 -3.289826
v 0.507074 3.434262 -5.210756
v 4.194958 3.046115 1.283262
v 1.136334 4.302479 1.374955
v -6.404232 4.835005 -3.249133
v -5.350542 3.221836 -4.975823
v -0.895759 4.781463 -6.053977
v 1.798712 5.148309 -6.011854
v 5.866807 6.479350 6.209990
v 5.628986 3.425009 3.707974
v -2.830545 4.036655 -3.057156
v -4.726316 3.426914 -3.950714
v -7.068513 4.823253 -3.647076
v 4.476020 4.531095 -5.697305
v 6.317370 3.873138 -5.675961
v 3.480443 5.479386 -6.067966
v -3.947071 4.810508 -2.931221
v -6.843472 4.363432 -5.350340
v 2.271298 5.038079 -5.525558
v 5.658491 4.469495 -5.597996
v 0.073214 6.973880 6.177553
v 8.387469 6.933180 6.149004
v 4.363692 4.607314 4.187175
v 1.014240 4.017487 -0.393080
v 7.937263 4.285065 -1.127615
v -4.725114 4.911357 -4.950402
v 8.001780 5.272189 0.941760
v -2.533004 4.909914 -4.349574
v -1.354972 4.794303 -4.846431
v -7.610796 5.702561 -5.366863
v -0.373384 4.839107 -5.304488
v 2.540065 5.358660 3.193601
v -8.325635 6.975365 -0.878391
v -0.844094 4.484008 -1.982134
v -2.192497 6.038765 -3.561909
v -4.712497 5.369344 -3.909507
v 4.354617 6.743602 4.688598
v -4.864005 6.666981 -3.451978
v -3.582578 5.877765 -4.845428
v 6.254060 6.694641 4.690740
v 8.213819 6.871602 2.277127
v 0.278820 5.214331 2.187080
v -0.886394 5.085758 -0.578564
v -8.073366 6.378453 -3.771280
v -3.447509 6.847829 -1.539266
v -5.070094 6.822757 -1.456603
v 5.775823 7.030445 5.776904
v -1.878243 7.027440 3.760238
v -0.186273 6.993414 4.655796
v 2.724093 6.863790 3.782610
v -6.779002 7.036077 0.296693
v -3.744343 7.051941 1.027988
v -1.149757 6.687617 1.333518
vn -0.2807 -0.2870 0.9159
vn -0.6222 -0.6500 0.4363
vn 0.2784 -0.2886 0.9161
vn 0.6221 -0.6514 0.4344
vn 0.5403 -0.3593 -0.7609
vn 0.2963 -0.9011 -0.3166
vn -0.6216 -0.6499 -0.4374
vn -0.2834 -0.2824 -0.9165
vn -0.0384 0.1804 -0.9828
vn 0.1379 0.0378 -0.9897
vn -0.2835 0.2981 0.9114
vn 0.3391 0.0462 -0.9396
vn -0.2128 0.4362 -0.8743
vn 0.3400 0.2533 -0.9057
vn 0.0752 0.1493 -0.9859
vn -0.6188 0.4513 -0.6430
vn -0.1508 0.0363 -0.9879
vn 0.5882 0.2371 -0.7732
vn -0.6295 0.6554 0.4174
vn 0.9881 0.1420 -0.0591
vn 0.8188 0.4702 -0.3293
vn 0.5788 0.0746 -0.8121
vn -0.0539 0.5990 -0.7989
vn -0.1853 0.3419 -0.9213
vn -0.7353 -0.0106 -0.6777
vn -0.9018 0.2284 -0.3669
vn -0.0957 0.9760 -0.1959
vn 0.0787 0.9936 0.0810
vn 0.4461 0.8916 -0.0779
vn 0.5726 0.7501 -0.3308
vn 0.5580 0.6149 0.5573
vn -0.0922 0.7964 0.5977
vn 0.8972 0.1984 -0.3945
vn 0.5346 0.6296 -0.5638
vn -0.4074 0.9088 -0.0901
vn 0.5332 0.5338 -0.6563
vn -0.1178 0.9913 0.0580
vn 0.6289 0.6694 -0.3956
vn -0.0929 0.9506 -0.2962
vn -0.1284 0.9631 0.2364
vn 0.3171 0.9481 0.0222
vn 0.0580 0.3220 0.9450
vn -0.0327 0.8587 -0.5115
vn 0.3365 0.4323 -0.8366
vn -0.0608 0.9981 0.0050
vn 0.3691 0.5028 -0.7817
vn 0.8731 0.4678 -0.1372
vn -0.3361 0.9047 -0.2618
vn 0.3465 0.9079 -0.2358
vn 0.6061 0.6707 -0.4275
vn 0.4879 0.5958 -0.6379
vn -0.8070 0.4373 -0.3969
vn -0.8429 0.5256 -0.1155
vn 0.4231 0.2973 -0.8559
vn 0.1229 0.3634 0.9235
vn 0.3129 0.8268 -0.4675
vn 0.4948 0.7337 -0.4656
vn -0.0401 0.6084 -0.7926
vn 0.3154 0.9192 -0.2358
vn -0.3537 0.4755 -0.8054
vn -0.0854 0.7079 -0.7012
vn -0.0051 0.2816 0.9595
vn -0.1533 0.6453 -0.7484
vn -0.4042 -0.2146 -0.8891
vn 0.7634 0.2875 -0.5783
vn 0.7556 0.3022 -0.5811
vn 0.5040 0.7931 0.3418
vn 0.1564 0.9546 0.2535
vn 0.2704 0.8616 -0.4297
vn 0.1527 -0.3199 -0.9351
vn 0.7354 0.6706 0.0976
vn 0.0152 0.6062 0.7952
vn 0.4359 0.8512 0.2923
vn 0.0091 0.6093 0.7929
vn 0.5095 0.5285 0.6791
vn 0.3021 0.4501 -0.8403
vn 0.5994 0.7515 -0.2754
vn 0.2080 0.9542 -0.2150
vn 0.2619 0.4030 -0.8769
vn -0.1577 0.7432 -0.6502
vn -0.6190 -0.4952 -0.6096
vn 0.2919 0.9564 -0.0113
vn 0.2817 0.8093 -0.5154
vn 0.1632 0.8884 0.4290
vn 0.3035 0.6218 -0.7219
vn -0.6029 0.7875 -0.1282
vn 0.7501 0.6410 -0.1628
vn 0.5286 0.8240 -0.2041
vn -0.1146 0.1116 -0.9871
vn 0.3223 0.4730 -0.8200
vn -0.3579 0.7885 -0.5002
vn -0.1770 0.1698 -0.9694
vn -0.4469 0.6010 -0.6626
vn 0.2141 0.7499 -0.6259
vn 0.4819 0.8039 -0.3487
vn 0.5156 0.7503 -0.4137
vn -0.1458 0.9106 -0.3866
vn 0.3154 0.9448 -0.0891
vn -0.2544 0.9315 -0.2601
vn -0.0132 0.9363 0.3509
vn 0.1724 0.9773 -0.1230
vn 0.0765 0.9653 -0.2497
vn 0.1174 0.6635 -0.7389
vn 0.0037 0.9926 -0.1218
vn 0.1365 0.9826 -0.1256
vn 0.4363 0.8602 -0.2640
s 1
usemtl Liquid_Domain_Material
f 1//1 2//2 3//3
f 2//2 4//4 3//3
f 6//6 5//5 4//4
f 4//4 2//2 6//6
f 6//6 2//2 7//7
f 5//5 7//7 8//8
f 6//6 7//7 5//5
f 5//5 8//8 9//9
f 1//1 11//11 2//2
f 8//8 10//10 9//9
f 3//3 62//62 1//1
f 12//12 33//33 5//5
f 2//2 26//26 7//7
f 10//10 8//8 13//13
f 3//3 75//75 62//62
f 75//75 3//3 4//4
f 9//9 10//10 14//14
f 4//4 5//5 20//20
f 9//9 15//15 5//5
f 14//14 23//23 9//9
f 9//9 16//16 17//17
f 15//15 9//9 17//17
f 14//14 22//22 23//23
f 9//9 23//23 16//16
f 10//10 13//13 18//18
f 2//2 11//11 19//19
f 8//8 7//7 13//13
f 5//5 33//33 20//20
f 20//20 33//33 21//21
f 10//10 18//18 14//14
f 22//22 14//14 18//18
f 24//24 16//16 23//23
f 16//16 25//25 17//17
f 5//5 15//15 12//12
f 75//75 4//4 20//20
f 28//28 31//31 30//30
f 30//30 31//31 38//38
f 23//23 22//22 54//54
f 16//16 24//24 25//25
f 32//32 31//31 28//28
f 12//12 15//15 34//34
f 27//27 29//29 36//36
f 29//29 27//27 37//37
f 39//39 30//30 29//29
f 28//28 30//30 39//39
f 20//20 21//21 50//50
f 23//23 54//54 24//24
f 32//32 28//28 39//39
f 40//40 42//42 32//32
f 7//7 26//26 13//13
f 18//18 13//13 51//51
f 56//56 43//43 35//35
f 27//27 36//36 56//56
f 29//29 30//30 36//36
f 27//27 56//56 37//37
f 44//44 36//36 30//30
f 46//46 30//30 38//38
f 35//35 45//45 37//37
f 48//48 45//45 35//35
f 38//38 47//47 46//46
f 37//37 39//39 29//29
f 40//40 45//45 48//48
f 31//31 47//47 38//38
f 39//39 40//40 32//32
f 45//45 40//40 39//39
f 40//40 48//48 41//41
f 41//41 50//50 21//21
f 54//54 22//22 65//65
f 32//32 42//42 31//31
f 21//21 33//33 41//41
f 65//65 22//22 18//18
f 41//41 33//33 34//34
f 12//12 34//34 33//33
f 43//43 63//63 35//35
f 63//63 52//52 35//35
f 52//52 53//53 35//35
f 56//56 35//35 37//37
f 46//46 44//44 30//30
f 37//37 45//45 39//39
f 41//41 48//48 50//50
f 56//56 63//63 43//43
f 36//36 57//57 56//56
f 53//53 48//48 35//35
f 24//24 54//54 64//64
f 59//59 49//49 58//58
f 51//51 59//59 18//18
f 59//59 65//65 18//18
f 40//40 68//68 42//42
f 41//41 68//68 40//40
f 25//25 60//60 17//17
f 36//36 44//44 77//77
f 57//57 36//36 77//77
f 46//46 47//47 96//96
f 48//48 53//53 78//78
f 64//64 25//25 24//24
f 50//50 48//48 78//78
f 49//49 66//66 58//58
f 47//47 31//31 84//84
f 84//84 31//31 55//55
f 42//42 67//67 31//31
f 68//68 41//41 34//34
f 15//15 17//17 61//61
f 34//34 15//15 68//68
f 77//77 46//46 96//96
f 77//77 44//44 46//46
f 20//20 50//50 78//78
f 47//47 87//87 96//96
f 54//54 70//70 64//64
f 70//70 54//54 65//65
f 66//66 49//49 71//71
f 65//65 59//59 79//79
f 25//25 81//81 60//60
f 71//71 49//49 59//59
f 31//31 72//72 55//55
f 31//31 67//67 72//72
f 42//42 68//68 73//73
f 51//51 71//71 59//59
f 61//61 17//17 60//60
f 15//15 61//61 69//69
f 76//76 63//63 85//85
f 63//63 56//56 85//85
f 85//85 56//56 57//57
f 2//2 19//19 26//26
f 80//80 20//20 78//78
f 65//65 89//89 70//70
f 79//79 59//59 58//58
f 65//65 79//79 89//89
f 25//25 64//64 81//81
f 47//47 84//84 82//82
f 60//60 81//81 82//82
f 55//55 72//72 84//84
f 71//71 51//51 13//13
f 73//73 67//67 42//42
f 15//15 69//69 67//67
f 15//15 67//67 73//73
f 73//73 68//68 15//15
f 1//1 74//74 11//11
f 53//53 52//52 80//80
f 95//95 57//57 77//77
f 53//53 80//80 78//78
f 64//64 70//70 81//81
f 88//88 87//87 47//47
f 82//82 88//88 47//47
f 66//66 71//71 83//83
f 13//13 83//83 71//71
f 85//85 57//57 95//95
f 95//95 77//77 106//106
f 19//19 86//86 26//26
f 77//77 96//96 106//106
f 89//89 79//79 58//58
f 82//82 84//84 60//60
f 84//84 61//61 60//60
f 72//72 61//61 84//84
f 67//67 69//69 72//72
f 1//1 62//62 74//74
f 76//76 85//85 90//90
f 76//76 93//93 63//63
f 63//63 94//94 52//52
f 94//94 20//20 80//80
f 96//96 87//87 98//98
f 88//88 98//98 87//87
f 89//89 92//92 70//70
f 70//70 92//92 81//81
f 81//81 92//92 82//82
f 69//69 61//61 72//72
f 103//103 90//90 85//85
f 75//75 20//20 94//94
f 94//94 63//63 93//93
f 102//102 95//95 101//101
f 85//85 95//95 102//102
f 52//52 94//94 80//80
f 86//86 97//97 26//26
f 58//58 66//66 97//97
f 97//97 66//66 83//83
f 58//58 91//91 89//89
f 88//88 82//82 92//92
f 97//97 13//13 26//26
f 83//83 13//13 97//97
f 76//76 90//90 93//93
f 85//85 102//102 103//103
f 105//105 106//106 96//96
f 89//89 91//91 92//92
f 91//91 88//88 92//92
f 106//106 101//101 95//95
f 96//96 98//98 105//105
f 99//99 58//58 104//104
f 104//104 97//97 86//86
f 58//58 97//97 104//104
f 58//58 99//99 91//91
f 88//88 91//91 98//98
f 19//19 11//11 74//74
f 74//74 62//62 100//100
f 100//100 62//62 75//75
f 100//100 103//103 74//74
f 102//102 101//101 74//74
f 103//103 102//102 74//74
f 100//100 90//90 103//103
f 93//93 90//90 100//100
f 75//75 94//94 100//100
f 74//74 101//101 19//19
f 94//94 93//93 100//100
f 104//104 86//86 19//19
f 101//101 105//105 19//19
f 101//101 106//106 105//105
f 105//105 104//104 19//19
f 98//98 104//104 105//105
f 98//98 99//99 104//104
f 98//98 91//91 99//99
