# Blender 4.1.1
# www.blender.org
mtllib aa0490.mtl
o Liquid_Domain
v -8.134167 -8.755833 6.217273
v -8.478938 -9.100706 5.868400
v 8.134167 -9.108939 5.864167
v 8.134167 -9.108939 -5.864167
v 8.483191 -8.765723 -6.196474
v -8.134167 -8.755833 -6.217273
v 8.475323 -8.759001 6.215952
v -8.478858 -9.102180 -5.868406
v 8.464250 1.540716 -5.782089
v -8.399484 6.539756 5.866051
v 8.473978 3.956008 -1.154752
v -0.826611 1.568117 -6.188281
v 8.478384 6.994849 5.872287
v -8.479720 5.168243 -5.840518
v 8.121210 0.842681 -6.202835
v 5.978776 4.552659 -6.175626
v -8.474662 4.544464 0.955465
v -4.902656 2.738548 -6.181373
v 3.140526 3.850666 -6.172313
v -3.413831 5.234821 6.190579
v -8.070031 4.466224 6.176843
v -6.063190 1.964336 3.821901
v 4.623808 2.012868 -4.451043
v -7.064957 4.031808 -6.172062
v -7.166498 3.111224 2.790205
v -5.984468 2.646311 2.388804
v 3.665543 2.589710 -4.780799
v 6.808070 3.300109 -4.996980
v 5.388854 3.023033 -5.126378
v 0.855587 3.390224 -5.901970
v -7.450452 3.306524 4.161538
v -6.519840 3.121408 4.784595
v 0.305454 3.871671 -5.147619
v -0.767655 3.030527 -5.301236
v -5.401132 3.809721 -6.100791
v 8.147060 6.667368 6.196390
v -6.435249 3.925156 2.658213
v 5.527164 3.437715 -2.138788
v 4.762629 3.210621 -3.226396
v 7.951440 3.698705 -2.945157
v -7.258670 5.502482 5.640489
v -5.344551 4.240733 4.764314
v 4.565173 4.142500 -4.543240
v -2.418149 4.155815 -4.761531
v 7.415667 3.309533 -5.742981
v 5.952147 4.182783 -1.317840
v 7.188459 5.397772 -5.420675
v -5.858330 5.986852 5.846810
v -5.261542 5.117341 2.643595
v 8.427715 6.639586 1.315404
v 5.618296 3.984578 1.745130
v 6.422151 4.795552 1.291751
v 7.543317 3.863439 -3.204255
v 1.531565 4.221495 -4.168757
v 4.632518 4.943669 -4.959146
v 2.944199 4.493379 -5.257390
v -4.708303 5.180203 -6.063149
v -3.812604 5.678581 4.965857
v -7.394914 5.214093 2.874453
v -6.687036 5.548357 1.691122
v 6.982230 6.537953 3.329023
v 5.235424 3.995808 1.629694
v 6.773524 5.990859 0.451529
v 4.507062 4.337162 -2.708363
v 5.368859 5.766683 -5.588197
v -3.821210 5.612627 3.612271
v 3.176755 5.517491 1.844579
v -0.781835 4.895844 1.677303
v -7.797966 5.835513 0.381928
v -0.497830 5.536417 -0.609987
v 0.953776 6.982599 6.179464
v -8.024183 7.189405 4.822445
v -2.188914 5.465651 5.337168
v -1.777953 5.086210 2.259678
v -5.050786 5.525579 -0.039655
v -2.378636 6.992707 0.417631
v 7.528532 5.582115 -0.465309
v -8.400491 6.724977 -1.477065
v 2.763105 4.978438 -2.637967
v 0.476395 5.054275 -3.499866
v 1.459196 6.140264 -0.777991
v -7.127635 6.600929 -4.734322
v -8.125351 5.777017 -6.091586
v -1.939318 6.953579 5.824143
v -4.805083 6.641816 5.818845
v -3.434588 6.006015 5.681298
v 1.328637 6.641086 4.695809
v 6.652633 7.005950 4.745876
v -7.998833 5.703718 2.269086
v 3.110560 6.025902 3.300144
v -4.089560 6.727555 1.629358
v 7.128874 7.058069 1.078276
v -1.375677 5.001803 -3.199663
v 0.707123 5.876122 2.612800
v -6.663867 7.008371 -0.416984
v -3.705055 5.723242 -5.127575
v 4.675922 6.926895 4.661974
v -3.542906 6.722478 -1.529627
v -4.832177 6.977209 -2.097825
v -8.030554 7.010047 -3.950875
v 8.149532 7.056714 3.108905
v -4.684264 7.020214 -3.962745
vn -0.2832 -0.2846 0.9159
vn -0.6225 -0.6495 0.4366
vn 0.3054 -0.9010 0.3083
vn 0.2952 -0.9008 -0.3184
vn 0.5442 -0.3630 -0.7563
vn -0.2824 -0.2844 -0.9162
vn 0.5408 -0.3630 0.7588
vn -0.6218 -0.6503 -0.4364
vn 0.8234 0.2412 -0.5137
vn -0.3225 0.5452 0.7738
vn 0.9369 0.2941 -0.1892
vn -0.0261 0.1916 -0.9811
vn 0.6254 0.6478 0.4351
vn -0.8777 0.1295 -0.4613
vn 0.3714 0.0662 -0.9261
vn 0.1340 0.2516 -0.9585
vn -0.9801 0.1975 0.0211
vn 0.1098 0.1453 -0.9833
vn -0.1484 0.3508 -0.9246
vn -0.0297 0.1831 0.9826
vn -0.2903 0.1003 0.9517
vn -0.2252 0.9560 -0.1877
vn 0.0874 0.9936 0.0710
vn 0.0101 0.1377 -0.9904
vn 0.6597 0.4042 0.6336
vn -0.2916 0.3483 0.8909
vn 0.8241 0.2619 0.5023
vn -0.0562 0.8157 0.5757
vn 0.0229 0.2262 0.9738
vn -0.2731 0.5297 -0.8030
vn 0.8427 0.4678 -0.2665
vn 0.0701 0.5469 -0.8342
vn -0.1716 0.7346 -0.6564
vn -0.1035 0.4570 -0.8834
vn 0.1786 0.0562 -0.9823
vn 0.2781 0.2755 0.9202
vn -0.4893 0.2474 0.8363
vn -0.0101 0.9172 -0.3983
vn 0.8914 0.0690 -0.4480
vn 0.6779 0.6557 -0.3323
vn 0.5172 0.8281 0.2163
vn -0.6396 0.5717 -0.5139
vn 0.9398 -0.0812 0.3320
vn 0.3220 0.4972 -0.8057
vn 0.7346 0.4324 -0.5229
vn -0.6849 0.6797 -0.2626
vn 0.7041 0.6921 0.1590
vn -0.3819 0.8964 0.2251
vn -0.5222 0.7411 0.4221
vn 0.7590 0.5892 -0.2771
vn -0.2681 0.8809 -0.3901
vn -0.8555 0.5128 -0.0715
vn 0.1819 0.9294 -0.3213
vn 0.0475 0.9407 -0.3358
vn 0.0849 0.6581 0.7481
vn -0.3117 0.8989 -0.3079
vn 0.2194 0.3069 -0.9261
vn -0.1047 0.8737 -0.4750
vn 0.9028 0.3954 0.1692
vn 0.0867 0.8674 0.4899
vn -0.6378 0.7348 -0.2308
vn 0.2904 0.9139 -0.2837
vn -0.7869 0.5248 -0.3246
vn 0.5913 0.7771 -0.2156
vn -0.0696 0.9831 -0.1694
vn -0.1495 0.9670 0.2063
vn 0.3319 0.9039 -0.2700
vn -0.1424 0.9898 -0.0105
vn -0.5547 0.7167 0.4225
vn 0.0917 0.9912 -0.0958
vn -0.0248 0.6627 0.7485
vn 0.0455 0.9967 -0.0675
vn -0.1198 0.7616 -0.6369
vn 0.1846 0.9787 0.0895
vn -0.0869 0.9435 0.3199
vn 0.3290 0.9305 0.1610
vn 0.1958 0.7679 -0.6099
vn -0.7438 0.6507 0.1529
vn 0.2605 0.8464 -0.4645
vn 0.0433 0.8773 -0.4779
vn 0.0828 0.9863 -0.1430
vn 0.0479 0.7830 -0.6202
vn -0.1820 0.4856 -0.8550
vn -0.3913 0.9154 0.0947
vn -0.1759 0.9533 0.2456
vn 0.0990 0.9912 0.0876
vn -0.1244 0.9289 -0.3487
vn -0.1028 0.9679 -0.2292
vn -0.0347 0.9642 -0.2628
vn -0.0956 0.9228 -0.3731
vn -0.2683 0.9081 0.3216
vn -0.3653 0.8634 -0.3480
vn 0.2292 0.8891 -0.3962
vn -0.1472 0.9683 -0.2017
vn 0.0385 0.8960 0.4423
vn 0.4588 0.6124 -0.6438
vn -0.0015 0.9147 -0.4041
vn 0.1513 0.9882 -0.0219
vn 0.1100 0.9756 0.1901
vn -0.5111 0.8319 -0.2163
vn 0.2168 0.9748 -0.0522
vn 0.2871 0.8967 -0.3368
s 1
usemtl Liquid_Domain_Material
f 2//2 3//3 1//1
f 1//1 3//3 7//7
f 3//3 2//2 8//8
f 3//3 8//8 4//4
f 4//4 7//7 3//3
f 5//5 7//7 4//4
f 4//4 8//8 6//6
f 5//5 4//4 6//6
f 5//5 6//6 15//15
f 9//9 5//5 15//15
f 2//2 1//1 10//10
f 2//2 17//17 8//8
f 5//5 9//9 11//11
f 13//13 36//36 7//7
f 8//8 14//14 6//6
f 7//7 5//5 13//13
f 17//17 14//14 8//8
f 15//15 6//6 16//16
f 12//12 6//6 18//18
f 6//6 12//12 19//19
f 6//6 19//19 16//16
f 7//7 20//20 21//21
f 45//45 9//9 15//15
f 7//7 21//21 1//1
f 13//13 5//5 11//11
f 15//15 16//16 45//45
f 2//2 10//10 17//17
f 22//22 31//31 32//32
f 31//31 22//22 25//25
f 22//22 26//26 25//25
f 38//38 23//23 27//27
f 28//28 23//23 38//38
f 29//29 27//27 23//23
f 28//28 29//29 23//23
f 18//18 6//6 24//24
f 19//19 12//12 30//30
f 11//11 9//9 40//40
f 39//39 38//38 27//27
f 38//38 46//46 28//28
f 9//9 45//45 40//40
f 33//33 12//12 34//34
f 12//12 33//33 30//30
f 18//18 24//24 35//35
f 1//1 21//21 10//10
f 26//26 37//37 25//25
f 39//39 27//27 43//43
f 53//53 40//40 45//45
f 12//12 18//18 44//44
f 34//34 12//12 44//44
f 6//6 14//14 83//83
f 6//6 83//83 24//24
f 31//31 41//41 32//32
f 22//22 42//42 26//26
f 42//42 37//37 26//26
f 53//53 28//28 46//46
f 27//27 29//29 43//43
f 28//28 53//53 45//45
f 44//44 33//33 34//34
f 42//42 22//22 32//32
f 38//38 51//51 46//46
f 39//39 64//64 38//38
f 39//39 43//43 64//64
f 18//18 35//35 44//44
f 56//56 33//33 54//54
f 28//28 45//45 47//47
f 30//30 33//33 56//56
f 56//56 19//19 30//30
f 45//45 16//16 47//47
f 42//42 49//49 37//37
f 62//62 51//51 64//64
f 46//46 51//51 52//52
f 51//51 38//38 64//64
f 40//40 53//53 77//77
f 64//64 54//54 79//79
f 64//64 55//55 54//54
f 43//43 55//55 64//64
f 33//33 44//44 93//93
f 80//80 33//33 93//93
f 54//54 33//33 80//80
f 55//55 56//56 54//54
f 57//57 44//44 35//35
f 28//28 55//55 29//29
f 28//28 47//47 55//55
f 35//35 24//24 57//57
f 32//32 41//41 48//48
f 32//32 48//48 42//42
f 13//13 11//11 50//50
f 59//59 31//31 25//25
f 60//60 59//59 25//25
f 60//60 25//25 37//37
f 97//97 51//51 62//62
f 49//49 60//60 37//37
f 97//97 62//62 67//67
f 61//61 52//52 51//51
f 52//52 63//63 46//46
f 77//77 11//11 40//40
f 79//79 54//54 80//80
f 29//29 55//55 43//43
f 55//55 65//65 56//56
f 19//19 56//56 65//65
f 48//48 41//41 21//21
f 21//21 20//20 48//48
f 7//7 36//36 71//71
f 58//58 66//66 42//42
f 42//42 66//66 49//49
f 74//74 68//68 70//70
f 62//62 64//64 81//81
f 64//64 79//79 81//81
f 80//80 93//93 70//70
f 44//44 96//96 93//93
f 96//96 44//44 57//57
f 19//19 65//65 16//16
f 16//16 65//65 47//47
f 7//7 71//71 20//20
f 42//42 48//48 58//58
f 41//41 31//31 72//72
f 72//72 31//31 59//59
f 58//58 74//74 66//66
f 73//73 74//74 58//58
f 97//97 88//88 51//51
f 66//66 91//91 49//49
f 87//87 94//94 74//74
f 97//97 67//67 90//90
f 68//68 74//74 94//94
f 89//89 69//69 17//17
f 89//89 59//59 69//69
f 59//59 60//60 69//69
f 75//75 60//60 49//49
f 74//74 70//70 76//76
f 70//70 68//68 94//94
f 62//62 81//81 67//67
f 11//11 77//77 50//50
f 46//46 63//63 53//53
f 77//77 53//53 63//63
f 81//81 80//80 70//70
f 79//79 80//80 81//81
f 17//17 78//78 14//14
f 47//47 65//65 55//55
f 24//24 83//83 82//82
f 57//57 24//24 82//82
f 41//41 10//10 21//21
f 20//20 84//84 86//86
f 85//85 58//58 48//48
f 85//85 86//86 58//58
f 73//73 58//58 86//86
f 87//87 74//74 73//73
f 10//10 72//72 17//17
f 72//72 89//89 17//17
f 66//66 74//74 91//91
f 90//90 67//67 94//94
f 74//74 76//76 91//91
f 49//49 91//91 75//75
f 67//67 81//81 94//94
f 60//60 95//95 69//69
f 60//60 75//75 95//95
f 81//81 70//70 94//94
f 69//69 78//78 17//17
f 76//76 93//93 98//98
f 70//70 93//93 76//76
f 82//82 96//96 57//57
f 20//20 85//85 48//48
f 86//86 85//85 20//20
f 41//41 72//72 10//10
f 86//86 84//84 73//73
f 90//90 94//94 87//87
f 72//72 59//59 89//89
f 51//51 88//88 61//61
f 52//52 61//61 63//63
f 61//61 92//92 63//63
f 98//98 93//93 96//96
f 14//14 100//100 83//83
f 82//82 83//83 100//100
f 20//20 71//71 84//84
f 73//73 84//84 87//87
f 97//97 90//90 87//87
f 63//63 92//92 77//77
f 50//50 77//77 92//92
f 91//91 98//98 75//75
f 69//69 95//95 78//78
f 75//75 99//99 95//95
f 98//98 99//99 75//75
f 78//78 100//100 14//14
f 98//98 96//96 102//102
f 82//82 102//102 96//96
f 71//71 36//36 13//13
f 71//71 87//87 84//84
f 13//13 88//88 71//71
f 101//101 88//88 13//13
f 88//88 97//97 71//71
f 13//13 50//50 101//101
f 71//71 97//97 87//87
f 61//61 88//88 101//101
f 101//101 92//92 61//61
f 101//101 50//50 92//92
f 76//76 98//98 91//91
f 95//95 100//100 78//78
f 99//99 100//100 95//95
f 99//99 102//102 100//100
f 98//98 102//102 99//99
f 102//102 82//82 100//100
