# Blender 4.1.1
# www.blender.org
mtllib aa0480.mtl
o Liquid_Domain
v -8.469542 -9.104251 5.871241
v 8.481234 -9.102387 5.866364
v 8.475348 -8.759367 -6.214176
v -8.483135 -8.753097 -6.214752
v -8.134167 -9.108939 -5.864167
v 8.134167 -9.108939 -5.864167
v -8.185594 4.704852 -6.184564
v 8.134167 -8.755833 6.217273
v 8.480133 1.735677 -5.802046
v 8.477073 2.915802 -3.214588
v -8.134167 -8.755833 6.217273
v 0.824062 2.054558 -6.198410
v -8.469495 5.449654 1.703232
v 3.329349 1.199811 -4.871252
v -2.017122 2.661892 -6.193813
v 4.402492 2.010395 -3.463156
v 3.361982 4.012065 -6.089215
v 8.114023 1.642384 -6.198517
v 2.649034 2.532167 -3.887864
v 5.850915 2.752449 -4.872536
v 2.362810 3.399425 -4.631670
v 2.982776 3.043425 -4.744344
v 6.409484 4.027157 -6.180503
v -5.228710 3.034015 4.450735
v -4.419833 3.255835 3.143195
v -4.960690 3.016379 2.362556
v 5.244917 2.464015 -2.189554
v -0.016309 3.127748 -5.717129
v -7.934149 4.358311 6.182810
v 4.520005 2.675754 -1.810406
v 3.011477 3.843443 -3.643503
v -4.225923 4.723490 -6.177716
v -5.559904 2.063080 3.452164
v -6.940382 3.953745 2.028202
v 4.255538 3.549662 -3.129228
v 7.126225 4.052740 -1.902427
v 7.761267 3.834127 -2.974755
v 0.820251 3.176904 -4.489581
v 7.636102 3.979381 -5.437848
v 5.124327 3.788150 -4.997434
v -7.469074 4.499689 4.301206
v 5.454862 3.568300 -0.094896
v -1.748139 3.918079 -4.392985
v 2.607573 3.918389 -5.645035
v -2.921088 4.362431 -5.735281
v -6.357259 4.374232 4.980960
v -4.416886 4.442554 2.735628
v 5.914746 4.037536 1.144298
v 6.059800 4.718717 -5.630492
v 2.808516 6.662316 6.187659
v 8.150357 6.706479 6.195220
v -5.597861 5.003592 2.656612
v -6.987358 5.014207 2.001092
v 4.753263 3.714165 1.102386
v -1.587934 5.471388 -3.153799
v -8.395792 6.931969 5.872016
v -7.531770 6.652485 5.411779
v 8.417353 5.134080 0.678119
v 2.555938 5.390393 0.649102
v 7.940611 5.367446 -0.009179
v -0.331390 4.321182 -3.967775
v 2.125552 5.300836 -2.795051
v 7.432675 5.370897 -5.866015
v -6.892793 5.049511 -5.826754
v -6.991201 5.712570 5.597466
v -5.355100 6.743205 6.003089
v -1.749538 6.628443 6.131263
v 8.462393 6.986519 5.889205
v -4.399693 6.532466 5.364759
v -3.920321 5.949141 4.937637
v -4.781131 4.961767 0.211360
v 4.270485 4.586723 -0.968381
v -3.379352 5.742218 -5.577225
v -2.604674 6.803738 2.893794
v -0.354107 5.353767 -0.996984
v 3.851128 5.463805 3.074340
v -6.242455 5.542248 1.441506
v -4.288191 5.839949 1.733171
v 1.197669 5.804929 -0.992063
v -1.525371 5.721250 5.123934
v -1.306254 5.803349 3.234568
v 0.997916 5.699067 2.750792
v -5.252479 6.585146 -1.275264
v -4.380210 6.899917 -1.447934
v -5.782088 6.642571 -5.263481
v -8.394159 6.885237 -5.928097
v -2.821143 6.224130 4.921257
v 1.025008 5.977051 4.907005
v 4.405675 6.098351 4.440607
v 6.609904 6.073036 3.498510
v -8.085424 6.388626 2.507752
v -2.667784 6.604662 2.089462
v -8.173598 6.923934 -0.824590
v -3.821556 6.869219 0.727065
v -6.498707 6.949713 -0.429502
v -1.767897 6.946674 5.608740
v 3.685047 6.914384 5.373150
v -8.147470 7.021225 -4.377597
v -6.968526 6.661616 -5.075546
v 5.240533 7.050117 5.836230
v 7.879470 6.988111 2.627848
v -2.083034 7.035487 -0.955771
v -4.004030 7.081947 -3.675202
vn -0.6211 -0.6507 0.4368
vn 0.6222 -0.6504 0.4356
vn 0.5400 -0.3608 -0.7604
vn -0.5415 -0.3589 -0.7602
vn -0.2956 -0.9002 -0.3197
vn 0.2969 -0.9012 -0.3158
vn -0.2791 0.0962 -0.9554
vn 0.2818 -0.2861 0.9158
vn 0.8864 0.1859 -0.4239
vn 0.9502 0.3009 -0.0810
vn -0.2866 -0.2815 0.9158
vn -0.0227 0.1601 -0.9868
vn -0.9875 0.1570 0.0152
vn 0.2380 0.7821 0.5759
vn 0.0711 0.1567 -0.9851
vn 0.0693 0.8525 -0.5182
vn -0.1817 0.5801 -0.7940
vn 0.3781 0.1137 -0.9187
vn 0.6936 0.3154 -0.6476
vn -0.2461 0.6816 0.6890
vn 0.4797 0.8765 -0.0399
vn 0.1307 0.2629 0.9559
vn 0.0979 0.2417 -0.9654
vn -0.2110 0.6033 -0.7691
vn -0.8553 0.5094 0.0952
vn -0.3448 0.4088 0.8450
vn -0.2742 0.9098 -0.3117
vn 0.0968 0.7057 -0.7019
vn -0.2329 0.0749 0.9696
vn 0.6091 0.6776 -0.4122
vn 0.5064 0.4271 -0.7491
vn 0.0896 0.2781 -0.9564
vn 0.0284 0.9950 -0.0957
vn 0.4051 0.2499 0.8795
vn 0.7261 0.4056 -0.5553
vn -0.4979 0.7807 -0.3777
vn 0.1601 0.9508 -0.2651
vn 0.0598 0.7775 -0.6260
vn 0.6526 0.7537 -0.0774
vn 0.0498 0.4223 0.9051
vn 0.8750 0.3973 -0.2766
vn 0.0242 0.9758 -0.2175
vn 0.4072 0.7287 -0.5506
vn -0.3023 0.9526 -0.0347
vn 0.4920 0.4519 -0.7441
vn 0.1742 0.4803 -0.8596
vn -0.3815 0.2454 0.8912
vn -0.4198 0.8067 -0.4159
vn -0.1302 0.9548 0.2672
vn -0.0076 0.3599 0.9330
vn 0.2742 0.3035 0.9125
vn -0.1699 0.3046 0.9372
vn 0.4493 0.3862 0.8056
vn 0.2205 0.9282 -0.2998
vn 0.5621 0.7048 -0.4327
vn -0.3350 0.6519 0.6803
vn 0.6744 0.7175 0.1742
vn 0.9115 0.3611 -0.1969
vn 0.3807 0.9239 -0.0380
vn 0.1040 0.8825 -0.4587
vn 0.1019 0.7705 -0.6292
vn 0.1953 0.8741 -0.4448
vn 0.4882 0.8514 -0.1920
vn 0.1009 0.4917 -0.8649
vn 0.2271 0.9734 0.0314
vn -0.2789 0.8190 0.5015
vn -0.0148 0.4614 0.8871
vn 0.6310 0.6486 0.4256
vn -0.1657 0.6438 -0.7470
vn -0.4365 0.6104 -0.6610
vn -0.1818 0.9341 0.3073
vn 0.6576 0.7327 -0.1753
vn 0.4048 0.5359 -0.7409
vn -0.0025 0.9946 0.1041
vn 0.2172 0.9617 -0.1672
vn 0.0958 0.8873 -0.4512
vn 0.2134 0.8978 0.3852
vn -0.5335 0.7699 0.3501
vn 0.0050 0.9896 -0.1434
vn 0.1198 0.7795 -0.6148
vn 0.2988 0.9531 0.0483
vn 0.0241 0.9945 -0.1018
vn 0.3395 0.1676 0.9256
vn -0.1038 0.9492 0.2970
vn 0.0252 0.6779 -0.7347
vn -0.3417 0.5833 -0.7369
vn 0.0243 0.9585 -0.2839
vn -0.0779 0.8065 -0.5861
vn -0.1790 0.7872 -0.5902
vn -0.4866 0.6760 -0.5535
vn -0.1671 0.9855 -0.0297
vn 0.4907 0.8664 -0.0929
vn -0.5682 0.8070 0.1608
vn -0.4810 0.8583 0.1786
vn 0.1464 0.8886 0.4347
vn 0.0088 0.9457 -0.3248
vn -0.0585 0.8602 -0.5066
vn -0.2512 0.9657 -0.0662
vn 0.0994 0.7380 -0.6675
vn -0.0281 0.9521 0.3045
vn 0.1550 0.8967 -0.4147
vn 0.3982 0.9169 -0.0274
vn 0.2651 0.9329 -0.2438
s 1
usemtl Liquid_Domain_Material
f 11//11 1//1 8//8
f 1//1 2//2 8//8
f 4//4 5//5 1//1
f 6//6 1//1 5//5
f 2//2 1//1 6//6
f 6//6 3//3 2//2
f 3//3 5//5 4//4
f 6//6 5//5 3//3
f 68//68 8//8 2//2
f 51//51 8//8 68//68
f 9//9 3//3 18//18
f 68//68 2//2 10//10
f 13//13 86//86 4//4
f 4//4 86//86 7//7
f 2//2 3//3 9//9
f 3//3 4//4 12//12
f 1//1 11//11 56//56
f 18//18 3//3 23//23
f 1//1 13//13 4//4
f 2//2 9//9 10//10
f 4//4 15//15 12//12
f 3//3 12//12 23//23
f 8//8 29//29 11//11
f 21//21 19//19 14//14
f 16//16 14//14 19//19
f 14//14 22//22 21//21
f 16//16 20//20 14//14
f 4//4 32//32 15//15
f 33//33 24//24 25//25
f 26//26 33//33 25//25
f 27//27 16//16 30//30
f 27//27 20//20 16//16
f 12//12 17//17 23//23
f 33//33 26//26 34//34
f 31//31 35//35 16//16
f 31//31 16//16 19//19
f 20//20 27//27 37//37
f 14//14 20//20 22//22
f 4//4 7//7 32//32
f 12//12 15//15 28//28
f 18//18 23//23 39//39
f 39//39 9//9 18//18
f 11//11 29//29 56//56
f 8//8 50//50 29//29
f 27//27 30//30 42//42
f 27//27 42//42 36//36
f 37//37 27//27 36//36
f 30//30 16//16 35//35
f 21//21 31//31 19//19
f 20//20 37//37 39//39
f 28//28 38//38 21//21
f 20//20 40//40 22//22
f 9//9 39//39 10//10
f 45//45 28//28 15//15
f 28//28 44//44 12//12
f 12//12 44//44 17//17
f 1//1 56//56 13//13
f 41//41 24//24 33//33
f 41//41 33//33 34//34
f 48//48 36//36 42//42
f 42//42 30//30 72//72
f 30//30 35//35 72//72
f 39//39 37//37 10//10
f 61//61 28//28 43//43
f 38//38 28//28 61//61
f 43//43 28//28 45//45
f 28//28 21//21 44//44
f 22//22 44//44 21//21
f 15//15 32//32 45//45
f 24//24 41//41 46//46
f 47//47 26//26 25//25
f 26//26 47//47 34//34
f 48//48 42//42 54//54
f 42//42 72//72 54//54
f 58//58 10//10 37//37
f 38//38 61//61 21//21
f 40//40 44//44 22//22
f 49//49 44//44 40//40
f 20//20 49//49 40//40
f 39//39 49//49 20//20
f 39//39 23//23 63//63
f 53//53 34//34 52//52
f 47//47 52//52 34//34
f 54//54 72//72 59//59
f 55//55 61//61 43//43
f 61//61 62//62 21//21
f 31//31 21//21 62//62
f 49//49 17//17 44//44
f 23//23 17//17 49//49
f 23//23 49//49 63//63
f 41//41 57//57 65//65
f 41//41 65//65 46//46
f 24//24 46//46 69//69
f 76//76 90//90 54//54
f 90//90 48//48 54//54
f 48//48 60//60 36//36
f 37//37 60//60 58//58
f 37//37 36//36 60//60
f 35//35 31//31 62//62
f 43//43 73//73 55//55
f 43//43 45//45 73//73
f 63//63 49//49 39//39
f 32//32 7//7 64//64
f 29//29 66//66 65//65
f 50//50 67//67 29//29
f 8//8 51//51 50//50
f 70//70 24//24 69//69
f 70//70 25//25 24//24
f 53//53 41//41 34//34
f 54//54 59//59 76//76
f 55//55 75//75 61//61
f 72//72 35//35 62//62
f 62//62 61//61 75//75
f 45//45 32//32 73//73
f 29//29 65//65 56//56
f 57//57 41//41 53//53
f 70//70 74//74 25//25
f 25//25 74//74 47//47
f 78//78 47//47 74//74
f 52//52 77//77 53//53
f 52//52 78//78 77//77
f 78//78 52//52 47//47
f 90//90 101//101 48//48
f 78//78 71//71 77//77
f 48//48 101//101 60//60
f 101//101 58//58 60//60
f 79//79 75//75 82//82
f 72//72 79//79 59//59
f 62//62 75//75 79//79
f 72//72 62//62 79//79
f 64//64 73//73 32//32
f 46//46 65//65 69//69
f 87//87 80//80 81//81
f 80//80 82//82 81//81
f 88//88 82//82 80//80
f 90//90 76//76 89//89
f 68//68 10//10 58//58
f 82//82 75//75 81//81
f 89//89 76//76 82//82
f 76//76 59//59 82//82
f 53//53 77//77 91//91
f 81//81 75//75 92//92
f 75//75 102//102 92//92
f 83//83 77//77 71//71
f 59//59 79//79 82//82
f 102//102 75//75 55//55
f 64//64 85//85 73//73
f 65//65 57//57 56//56
f 29//29 67//67 66//66
f 66//66 69//69 65//65
f 87//87 96//96 80//80
f 89//89 82//82 88//88
f 56//56 91//91 13//13
f 87//87 81//81 74//74
f 53//53 91//91 57//57
f 81//81 92//92 74//74
f 91//91 77//77 93//93
f 91//91 93//93 13//13
f 78//78 94//94 71//71
f 95//95 77//77 83//83
f 13//13 93//93 86//86
f 85//85 103//103 73//73
f 64//64 99//99 85//85
f 64//64 86//86 99//99
f 64//64 7//7 86//86
f 69//69 96//96 70//70
f 87//87 70//70 96//96
f 88//88 80//80 96//96
f 88//88 96//96 97//97
f 88//88 97//97 89//89
f 97//97 90//90 89//89
f 87//87 74//74 70//70
f 68//68 58//58 101//101
f 74//74 94//94 78//78
f 94//94 74//74 92//92
f 93//93 77//77 95//95
f 94//94 84//84 71//71
f 71//71 84//84 83//83
f 102//102 55//55 103//103
f 103//103 55//55 73//73
f 66//66 67//67 96//96
f 67//67 50//50 100//100
f 96//96 67//67 100//100
f 50//50 51//51 68//68
f 100//100 50//50 68//68
f 96//96 69//69 66//66
f 97//97 96//96 100//100
f 68//68 101//101 100//100
f 100//100 90//90 97//97
f 56//56 57//57 91//91
f 101//101 90//90 100//100
f 94//94 92//92 102//102
f 102//102 84//84 94//94
f 83//83 84//84 95//95
f 95//95 103//103 93//93
f 84//84 103//103 95//95
f 102//102 103//103 84//84
f 103//103 98//98 93//93
f 86//86 93//93 98//98
f 103//103 85//85 98//98
f 85//85 99//99 98//98
f 99//99 86//86 98//98
