# Blender 4.1.1
# www.blender.org
mtllib aa0429.mtl
o Liquid_Domain
v -8.134167 -8.755833 6.217273
v -8.479897 -9.101690 5.868991
v 8.134167 -8.755833 6.217273
v 8.483235 -9.102402 5.864524
v -8.479896 -9.101274 -5.866958
v 8.470658 -9.100191 -5.873467
v -8.136033 -8.737451 -6.224880
v 8.134167 -8.755833 -6.217273
v 8.451302 6.982512 5.894215
v -8.416605 2.730165 -6.034343
v 8.467364 5.949993 0.182835
v 8.456619 1.619167 -4.511800
v -0.759238 1.851748 -6.199726
v 8.187880 1.153285 -6.177906
v -2.729303 2.835449 -6.147407
v -8.476531 3.975985 0.664594
v -5.757335 1.470000 -6.064817
v 2.182040 3.698616 -6.180638
v 3.353043 1.063248 2.349397
v 3.649142 1.550133 0.969202
v 8.339664 4.555061 -2.235280
v 4.701379 1.764801 0.907947
v 3.995611 1.185467 -0.356019
v 4.539407 1.994408 -2.263390
v 5.085714 1.692178 -4.332002
v -8.450650 7.022227 5.776139
v 8.144723 6.704735 6.199954
v 2.862025 3.159458 3.969819
v 3.966008 3.364125 2.562734
v 2.030288 2.031623 1.665278
v 6.765344 2.729696 0.564232
v 5.752936 2.654794 -2.461343
v -8.313028 4.502913 -1.161891
v 4.220917 2.068686 -4.987366
v 1.150425 2.476108 0.734895
v 2.683528 2.561100 0.140743
v 2.751489 2.320677 -2.165241
v 7.359398 2.512059 -4.978345
v 6.873045 3.129534 -6.082772
v 0.557848 6.830494 6.208651
v 1.465907 3.097083 3.858420
v 0.943847 2.654610 -1.547777
v 3.067995 3.255705 -4.933246
v -5.990235 2.668615 -4.979938
v -6.881864 2.753684 -5.885411
v -4.609673 3.276833 -5.581589
v 5.457735 5.039989 2.525664
v 5.778755 1.523396 0.339733
v 7.001574 5.349014 2.507289
v 6.940145 4.603075 -1.393050
v 1.719639 3.018798 -3.912030
v -8.055897 3.711465 -5.067112
v 2.340008 4.352664 -5.601530
v 6.868823 3.362171 -5.464630
v 1.175026 4.150557 -5.744850
v 2.082806 4.335552 4.143899
v 0.878754 4.147678 1.313648
v -6.934554 3.531909 -2.015994
v -8.097157 3.576139 -3.066041
v 6.907310 2.875431 -4.425568
v -4.499208 5.908794 -3.672935
v 0.180312 3.091410 -4.444582
v -0.811238 3.178460 -5.339804
v -5.403992 4.123238 -5.192978
v -3.970074 4.295926 -4.963711
v 5.291473 4.138449 -5.186814
v 6.915945 4.782605 -6.150578
v 0.279384 3.638156 -2.758880
v 8.009312 4.818021 -5.743267
v -8.047313 6.771115 6.210892
v 7.694370 4.703329 -2.649792
v 4.435424 5.132025 -5.745338
v 3.666599 5.584426 2.992912
v -7.560386 6.097497 2.023918
v -6.697021 5.874707 -1.264324
v -3.918380 5.553998 -3.982622
v 6.725202 5.266310 -5.653910
v 0.978790 4.943246 3.794256
v -7.782401 4.995673 0.689719
v -7.867336 5.740353 0.040928
v -8.130082 5.846663 -1.123832
v -1.868720 4.688099 -2.530107
v 3.623160 6.772816 3.727271
v 0.101415 5.024089 1.432338
v 7.462654 6.866988 0.290843
v 8.156695 6.848952 -0.206177
v -1.333660 5.811736 -0.469542
v -0.062780 6.966714 4.217999
v 6.455980 5.490756 3.446733
v 5.903543 6.988594 4.743844
v -0.962225 6.000348 2.923674
v -2.347396 5.875892 0.816732
v -2.753672 6.157357 -1.510675
v -6.790060 7.030106 3.234151
v -6.621711 7.002629 0.265756
v -5.419991 6.659406 -1.335377
v -2.781635 7.062492 5.870256
v 1.199456 7.058637 4.820020
v 7.204988 7.002237 3.920287
v -2.799975 7.020829 2.587959
v -4.129393 7.063281 0.735461
v -4.082505 7.007807 -2.014439
vn -0.2835 -0.2843 0.9159
vn -0.6220 -0.6493 0.4377
vn 0.2821 -0.2874 0.9153
vn 0.6227 -0.6505 0.4348
vn -0.6206 -0.6526 -0.4348
vn 0.6215 -0.6505 -0.4366
vn -0.2844 -0.2801 -0.9169
vn 0.2833 -0.2839 -0.9161
vn 0.6277 0.6519 0.4255
vn -0.5061 0.3450 -0.7905
vn 0.9850 0.1594 -0.0665
vn 0.9249 0.2839 -0.2531
vn -0.0231 0.1757 -0.9842
vn 0.5661 0.1952 -0.8009
vn 0.0287 0.3669 -0.9298
vn -0.9674 0.2487 -0.0466
vn -0.0179 0.1922 -0.9812
vn -0.0880 0.3019 -0.9493
vn -0.0908 0.8736 -0.4781
vn 0.2030 0.9610 0.1880
vn 0.8038 0.4043 -0.4364
vn -0.3532 0.7559 -0.5512
vn 0.1947 0.9782 0.0717
vn -0.1570 0.9823 0.1020
vn -0.1251 0.9856 0.1138
vn -0.6652 0.6683 0.3328
vn 0.2833 0.2968 0.9119
vn -0.3194 0.3479 -0.8815
vn -0.6511 0.2642 -0.7116
vn 0.5049 0.8631 -0.0122
vn -0.8610 0.4716 -0.1904
vn -0.6509 0.7557 -0.0725
vn -0.8035 0.3883 -0.4513
vn 0.2765 0.6030 0.7483
vn 0.6776 0.7353 0.0161
vn 0.3374 0.9373 0.0873
vn 0.3071 0.9307 0.1986
vn 0.4752 0.8607 -0.1825
vn 0.4527 0.0587 -0.8897
vn 0.0176 0.5488 0.8358
vn 0.4724 0.5225 -0.7098
vn 0.6188 0.7847 0.0375
vn 0.1903 0.6012 0.7761
vn -0.1608 0.7739 -0.6126
vn 0.2862 0.5571 -0.7795
vn -0.2183 0.4094 -0.8858
vn 0.0997 0.5186 -0.8492
vn -0.4589 0.8483 -0.2641
vn -0.8967 0.3336 -0.2911
vn -0.8559 0.4906 -0.1636
vn 0.0520 0.9954 0.0807
vn -0.3227 0.9033 -0.2829
vn -0.1721 0.9699 0.1721
vn 0.5463 0.1325 0.8270
vn -0.3047 0.8743 -0.3778
vn -0.0401 -0.0440 -0.9982
vn 0.8631 0.4615 -0.2051
vn -0.2585 0.7507 -0.6080
vn 0.3310 0.9290 -0.1654
vn -0.4125 0.7067 -0.5748
vn -0.2840 0.7373 -0.6129
vn 0.1186 0.9917 0.0488
vn -0.0055 0.8367 -0.5476
vn -0.5146 0.4834 -0.7082
vn 0.1582 0.6555 -0.7384
vn 0.0533 0.1953 0.9793
vn 0.1557 0.3254 -0.9327
vn 0.5023 0.8588 -0.1010
vn 0.9269 0.3611 0.1019
vn -0.2942 0.3679 0.8821
vn -0.0544 0.7548 -0.6537
vn -0.2037 0.9790 -0.0056
vn -0.4077 0.3086 -0.8594
vn -0.7692 0.6135 -0.1790
vn -0.4719 0.6046 -0.6417
vn 0.3407 0.6484 -0.6809
vn 0.1578 0.9166 0.3673
vn 0.4617 0.2594 -0.8482
vn -0.9383 0.3456 -0.0117
vn -0.8668 0.4979 0.0268
vn -0.5599 0.5999 -0.5715
vn 0.5089 0.7638 -0.3971
vn -0.0720 0.6992 -0.7113
vn 0.5851 0.7836 -0.2090
vn -0.5873 0.7795 -0.2180
vn 0.3269 0.8012 -0.5013
vn 0.5181 0.8298 -0.2073
vn 0.1418 0.8488 -0.5094
vn -0.2396 0.6584 -0.7135
vn -0.0227 0.9599 -0.2795
vn 0.5000 0.7035 -0.5051
vn 0.4339 0.8935 -0.1157
vn 0.5432 0.7945 -0.2717
vn -0.2604 0.9578 -0.1215
vn -0.4095 0.8941 -0.1816
vn -0.4599 0.7520 -0.4723
vn 0.0026 0.9476 0.3195
vn 0.0178 0.9996 -0.0206
vn -0.3063 0.9075 -0.2873
vn 0.2475 0.9427 -0.2239
vn 0.2380 0.9685 -0.0733
vn 0.1344 0.9216 -0.3641
s 1
usemtl Liquid_Domain_Material
f 1//1 2//2 3//3
f 2//2 4//4 3//3
f 6//6 2//2 5//5
f 4//4 2//2 6//6
f 6//6 5//5 7//7
f 8//8 6//6 7//7
f 27//27 3//3 4//4
f 14//14 6//6 8//8
f 3//3 40//40 1//1
f 3//3 27//27 40//40
f 9//9 27//27 4//4
f 5//5 10//10 7//7
f 4//4 6//6 11//11
f 7//7 13//13 8//8
f 2//2 16//16 5//5
f 6//6 12//12 11//11
f 12//12 6//6 14//14
f 13//13 7//7 17//17
f 13//13 17//17 15//15
f 8//8 18//18 14//14
f 8//8 13//13 18//18
f 22//22 23//23 20//20
f 48//48 23//23 22//22
f 11//11 12//12 21//21
f 5//5 16//16 10//10
f 14//14 18//18 39//39
f 19//19 20//20 30//30
f 20//20 19//19 22//22
f 23//23 48//48 32//32
f 24//24 23//23 32//32
f 7//7 10//10 17//17
f 2//2 1//1 26//26
f 2//2 26//26 16//16
f 28//28 19//19 30//30
f 30//30 20//20 36//36
f 23//23 36//36 20//20
f 37//37 36//36 23//23
f 23//23 24//24 37//37
f 24//24 25//25 37//37
f 25//25 34//34 37//37
f 32//32 25//25 24//24
f 16//16 33//33 10//10
f 12//12 14//14 38//38
f 17//17 44//44 46//46
f 39//39 38//38 14//14
f 17//17 46//46 15//15
f 28//28 30//30 41//41
f 35//35 41//41 30//30
f 36//36 35//35 30//30
f 36//36 37//37 35//35
f 31//31 32//32 48//48
f 37//37 42//42 35//35
f 43//43 37//37 34//34
f 25//25 32//32 60//60
f 34//34 25//25 38//38
f 60//60 38//38 25//25
f 45//45 44//44 17//17
f 17//17 10//10 45//45
f 19//19 28//28 29//29
f 22//22 19//19 29//29
f 51//51 68//68 42//42
f 37//37 43//43 42//42
f 43//43 51//51 42//42
f 38//38 54//54 34//34
f 54//54 38//38 39//39
f 15//15 63//63 13//13
f 29//29 47//47 22//22
f 48//48 22//22 47//47
f 35//35 42//42 57//57
f 31//31 50//50 32//32
f 60//60 32//32 50//50
f 33//33 59//59 10//10
f 58//58 52//52 59//59
f 68//68 51//51 62//62
f 21//21 12//12 71//71
f 59//59 52//52 10//10
f 58//58 44//44 52//52
f 71//71 38//38 60//60
f 12//12 38//38 71//71
f 43//43 62//62 51//51
f 44//44 45//45 52//52
f 53//53 62//62 43//43
f 34//34 54//54 43//43
f 52//52 45//45 10//10
f 15//15 46//46 65//65
f 63//63 55//55 13//13
f 13//13 55//55 18//18
f 56//56 28//28 41//41
f 4//4 11//11 9//9
f 41//41 35//35 57//57
f 68//68 62//62 82//82
f 58//58 61//61 44//44
f 62//62 63//63 82//82
f 44//44 64//64 46//46
f 54//54 66//66 43//43
f 39//39 18//18 67//67
f 41//41 78//78 56//56
f 41//41 57//57 78//78
f 57//57 42//42 68//68
f 58//58 59//59 33//33
f 61//61 64//64 44//44
f 63//63 65//65 82//82
f 64//64 65//65 46//46
f 63//63 15//15 65//65
f 62//62 55//55 63//63
f 55//55 62//62 53//53
f 54//54 69//69 66//66
f 69//69 54//54 39//39
f 18//18 55//55 53//53
f 1//1 70//70 26//26
f 47//47 89//89 48//48
f 89//89 31//31 48//48
f 16//16 79//79 33//33
f 31//31 49//49 50//50
f 82//82 57//57 68//68
f 60//60 50//50 71//71
f 75//75 61//61 58//58
f 76//76 65//65 64//64
f 66//66 53//53 43//43
f 66//66 72//72 53//53
f 69//69 39//39 67//67
f 28//28 56//56 73//73
f 29//29 28//28 73//73
f 29//29 73//73 47//47
f 78//78 57//57 84//84
f 89//89 49//49 31//31
f 26//26 74//74 16//16
f 87//87 84//84 57//57
f 57//57 82//82 87//87
f 33//33 75//75 58//58
f 64//64 61//61 76//76
f 66//66 77//77 72//72
f 69//69 77//77 66//66
f 72//72 18//18 53//53
f 67//67 18//18 72//72
f 16//16 74//74 79//79
f 79//79 80//80 33//33
f 33//33 81//81 75//75
f 65//65 76//76 82//82
f 67//67 72//72 77//77
f 77//77 69//69 67//67
f 40//40 70//70 1//1
f 56//56 78//78 83//83
f 78//78 84//84 91//91
f 74//74 80//80 79//79
f 85//85 50//50 49//49
f 33//33 80//80 81//81
f 11//11 21//21 86//86
f 71//71 50//50 86//86
f 21//21 71//71 86//86
f 87//87 82//82 93//93
f 82//82 76//76 93//93
f 56//56 83//83 73//73
f 47//47 73//73 83//83
f 84//84 92//92 91//91
f 99//99 85//85 49//49
f 84//84 87//87 92//92
f 87//87 93//93 92//92
f 50//50 85//85 86//86
f 88//88 83//83 78//78
f 78//78 91//91 88//88
f 89//89 47//47 83//83
f 91//91 92//92 100//100
f 81//81 80//80 75//75
f 95//95 96//96 75//75
f 75//75 96//96 61//61
f 102//102 76//76 61//61
f 102//102 93//93 76//76
f 83//83 90//90 89//89
f 90//90 99//99 89//89
f 94//94 74//74 26//26
f 89//89 99//99 49//49
f 100//100 88//88 91//91
f 9//9 11//11 86//86
f 74//74 94//94 95//95
f 80//80 74//74 95//95
f 92//92 101//101 100//100
f 95//95 75//75 80//80
f 102//102 101//101 92//92
f 93//93 102//102 92//92
f 96//96 102//102 61//61
f 26//26 70//70 97//97
f 97//97 70//70 40//40
f 40//40 27//27 9//9
f 40//40 98//98 97//97
f 9//9 90//90 40//40
f 90//90 98//98 40//40
f 97//97 94//94 26//26
f 99//99 90//90 9//9
f 98//98 88//88 97//97
f 83//83 88//88 98//98
f 90//90 83//83 98//98
f 97//97 100//100 94//94
f 88//88 100//100 97//97
f 9//9 86//86 99//99
f 100//100 101//101 94//94
f 86//86 85//85 99//99
f 101//101 95//95 94//94
f 101//101 102//102 95//95
f 102//102 96//96 95//95
