# Blender 4.1.1
# www.blender.org
mtllib aa0482.mtl
o Liquid_Domain
v -8.134167 -8.755833 6.217273
v -8.478615 -9.099015 5.870197
v 8.134167 -8.755833 6.217273
v 8.480508 -9.099154 5.867826
v 8.470778 -9.102565 -5.871226
v -8.483014 -9.104035 -5.865553
v -8.134167 -8.755833 -6.217273
v 8.134167 -8.755833 -6.217273
v 8.479038 2.079229 -3.644398
v 8.395373 6.906115 6.150889
v -8.466887 6.215181 -5.810670
v 8.338964 2.656697 -6.203172
v -8.051384 4.141330 -6.189321
v -2.150080 2.922522 -6.158110
v -8.450177 5.318939 2.200599
v 0.992790 2.095279 -6.181441
v -4.242613 6.115926 6.197291
v -8.419113 6.687249 5.899736
v -5.612622 2.096365 3.291224
v 4.178963 2.064077 -4.741786
v -3.613560 4.196820 -6.182315
v 5.888585 4.389608 -6.098180
v -5.844525 2.825099 4.484166
v -4.726919 3.208606 3.843588
v -4.494177 3.050716 2.472999
v 4.834855 2.117698 -2.971119
v 4.219584 3.839026 -3.171876
v 3.212446 2.459840 -4.155969
v 6.217736 3.067476 -4.968690
v 3.021484 3.263862 -4.631128
v 0.199540 2.909043 -5.802043
v -8.017762 5.312330 6.183910
v -6.493183 3.428796 2.068429
v 4.759043 2.710930 -1.813637
v 7.489005 3.530866 -3.654166
v 1.883873 3.458307 -5.560987
v 7.237855 3.572490 -6.048915
v 2.922463 6.893754 6.153475
v 8.284513 4.850403 -0.503985
v 7.457283 3.894560 -5.105117
v 0.929520 3.240458 -4.482965
v 2.253463 3.552834 -4.271774
v 3.334897 3.861485 -6.124003
v -5.248891 4.783650 5.011774
v -7.321050 3.826342 3.144240
v 7.548992 4.240396 -1.793981
v -2.064759 3.815333 -4.439835
v -0.620418 3.851050 -4.525208
v 5.852344 4.584594 -5.262616
v -7.277080 4.365169 4.670706
v -4.612026 4.679754 3.119194
v 6.447096 5.033906 2.011508
v 5.807560 3.624750 -0.062281
v 4.834880 4.170122 -0.451568
v 7.207853 4.925242 -5.163251
v 4.839768 3.786838 1.233577
v 7.553754 6.769052 2.448450
v 0.783665 4.679244 -3.614812
v 7.457985 5.274055 -5.994637
v -4.095968 5.718756 4.794385
v -6.351251 4.950449 2.362453
v 4.359381 5.403568 3.169950
v 2.223500 5.262704 -2.846516
v -3.624154 5.793118 -5.672307
v -1.495740 6.697412 6.118014
v -7.290560 5.266733 2.464389
v 8.369081 6.807036 2.612225
v 2.769822 5.357605 0.796090
v -4.837678 4.924599 0.311883
v -6.858000 6.463557 -5.111199
v -4.273367 5.824325 1.840541
v -0.687656 5.225612 1.208446
v -5.949463 5.471212 1.381694
v 0.887764 5.895661 -0.766619
v 2.776880 5.494587 -1.273344
v -7.131275 5.840888 5.445959
v -2.544122 5.861804 4.959205
v 0.076121 5.855022 4.823404
v -1.506943 5.720803 3.538077
v 1.280949 5.846530 2.907482
v -8.056643 6.192812 2.256722
v -8.018585 6.276862 0.179461
v -4.236378 6.659287 -0.673480
v -0.458137 5.409515 -1.209907
v -8.368059 7.019303 -1.249410
v -1.225121 5.022636 -3.142649
v -7.843667 7.126932 4.845754
v 3.253942 6.533135 5.019430
v -2.808117 6.422868 2.363107
v 5.735926 6.516650 4.552280
v -3.500082 7.091760 1.232383
v -6.364089 6.991667 -0.545437
v -4.912184 7.061481 -1.936616
v -2.218765 6.868958 5.800456
v -4.441408 6.936012 5.850742
v -0.286389 6.828168 5.309119
v -1.696633 6.730667 -0.941076
v -8.094154 6.850305 -5.925014
v 7.026219 7.048735 4.317020
v -3.248205 7.063354 -2.151036
v -6.320699 6.994847 -5.073578
v -4.241664 6.981853 -4.107281
vn -0.2815 -0.2854 0.9162
vn -0.6228 -0.6496 0.4361
vn 0.2778 -0.2887 0.9162
vn 0.6225 -0.6516 0.4336
vn 0.6206 -0.6532 -0.4338
vn -0.6226 -0.6497 -0.4362
vn -0.2825 -0.2846 -0.9161
vn 0.2804 -0.2870 -0.9160
vn 0.9698 0.2333 -0.0707
vn 0.5051 0.5148 0.6927
vn -0.8194 0.1930 -0.5397
vn 0.5961 0.2675 -0.7570
vn -0.2720 0.0988 -0.9572
vn 0.1411 0.3500 -0.9261
vn -0.9801 0.1983 -0.0057
vn -0.0239 0.1830 -0.9828
vn -0.0175 0.2069 0.9782
vn -0.3412 0.5848 0.7360
vn 0.0121 0.9999 0.0101
vn 0.1031 0.6911 0.7154
vn 0.2593 0.2407 -0.9353
vn -0.1423 0.4992 -0.8548
vn 0.0380 0.6729 -0.7387
vn -0.7953 0.4449 -0.4118
vn -0.6543 0.3087 0.6904
vn 0.1392 0.8990 -0.4152
vn 0.6620 0.4775 -0.5777
vn 0.6866 0.7030 -0.1851
vn -0.2241 0.5880 0.7772
vn 0.2376 0.7091 0.6639
vn 0.0669 0.7081 -0.7029
vn -0.2096 0.1723 0.9625
vn 0.2615 0.2908 0.9204
vn 0.4011 0.8113 -0.4254
vn 0.2176 0.9626 -0.1613
vn -0.2871 0.8961 -0.3384
vn 0.5223 0.4608 -0.7176
vn -0.0065 0.6802 0.7330
vn 0.6090 0.6732 -0.4194
vn 0.6309 0.5596 0.5374
vn 0.0392 0.8343 -0.5499
vn 0.2564 0.8068 -0.5323
vn -0.1911 0.5926 -0.7825
vn -0.2705 0.3767 -0.8860
vn 0.9073 0.4070 0.1054
vn -0.3221 0.8836 -0.3398
vn 0.4095 0.6348 -0.6553
vn 0.0821 0.7914 -0.6057
vn -0.2108 0.7333 0.6463
vn 0.7445 0.4230 -0.5165
vn -0.8232 0.3568 0.4417
vn -0.5654 0.7179 -0.4061
vn -0.1891 0.9314 -0.3110
vn 0.6270 0.7602 -0.1703
vn 0.2786 0.5593 0.7807
vn 0.1554 0.9292 -0.3353
vn -0.3529 0.8582 -0.3727
vn 0.0465 0.7535 -0.6558
vn 0.4464 0.7071 -0.5484
vn -0.4531 0.7223 -0.5225
vn -0.0180 0.2839 0.9587
vn 0.0465 0.8741 -0.4836
vn 0.1945 0.8458 -0.4967
vn 0.3774 0.4967 -0.7815
vn -0.0416 0.5370 0.8426
vn 0.6634 0.3457 0.6636
vn 0.6443 0.7289 -0.2314
vn 0.3996 0.9152 -0.0526
vn -0.1759 0.9439 0.2795
vn 0.2274 0.0708 -0.9712
vn -0.5963 0.7590 0.2614
vn 0.1505 0.9851 0.0835
vn 0.1759 0.9565 0.2329
vn -0.0731 0.9922 -0.1014
vn 0.3875 0.9136 -0.1232
vn 0.4149 0.8527 -0.3173
vn 0.0023 0.8990 -0.4379
vn -0.1017 0.8072 -0.5815
vn 0.2133 0.9763 -0.0366
vn -0.0511 0.9873 -0.1504
vn -0.2761 0.9599 0.0484
vn 0.0002 0.8979 0.4402
vn -0.5852 0.7706 0.2524
vn 0.2359 0.9464 -0.2206
vn -0.6418 0.7545 0.1370
vn 0.3641 0.7902 -0.4929
vn 0.1546 0.9844 -0.0844
vn -0.0254 0.9183 -0.3952
vn 0.0520 0.9507 0.3058
vn -0.2824 0.7155 -0.6390
vn -0.2191 0.9279 0.3017
vn 0.1848 0.8839 0.4296
vn 0.0123 0.9825 0.1858
vn -0.0971 0.9938 -0.0535
vn -0.1633 0.9745 0.1538
vn -0.0982 0.7506 -0.6535
vn 0.5199 0.8505 -0.0799
vn -0.1422 0.5693 -0.8098
vn -0.1620 0.9585 -0.2348
vn 0.2626 0.9530 -0.1509
vn 0.0449 0.7337 -0.6780
vn 0.3024 0.9139 -0.2707
s 1
usemtl Liquid_Domain_Material
f 1//1 2//2 3//3
f 2//2 4//4 3//3
f 4//4 2//2 6//6
f 5//5 4//4 6//6
f 8//8 6//6 7//7
f 5//5 6//6 8//8
f 10//10 3//3 4//4
f 2//2 1//1 18//18
f 4//4 5//5 9//9
f 8//8 7//7 12//12
f 12//12 5//5 8//8
f 3//3 10//10 1//1
f 6//6 11//11 7//7
f 7//7 16//16 12//12
f 7//7 11//11 13//13
f 9//9 5//5 12//12
f 7//7 14//14 16//16
f 12//12 16//16 43//43
f 2//2 18//18 6//6
f 26//26 20//20 28//28
f 14//14 7//7 21//21
f 12//12 43//43 22//22
f 24//24 19//19 23//23
f 25//25 33//33 19//19
f 6//6 18//18 15//15
f 27//27 34//34 26//26
f 28//28 27//27 26//26
f 20//20 26//26 29//29
f 20//20 30//30 28//28
f 1//1 17//17 32//32
f 24//24 25//25 19//19
f 34//34 35//35 26//26
f 35//35 29//29 26//26
f 35//35 9//9 12//12
f 7//7 13//13 21//21
f 16//16 14//14 31//31
f 16//16 31//31 36//36
f 16//16 36//36 43//43
f 23//23 44//44 24//24
f 45//45 23//23 19//19
f 33//33 45//45 19//19
f 42//42 27//27 28//28
f 30//30 42//42 28//28
f 40//40 29//29 35//35
f 40//40 35//35 12//12
f 36//36 41//41 42//42
f 29//29 30//30 20//20
f 36//36 31//31 41//41
f 48//48 31//31 14//14
f 37//37 40//40 12//12
f 50//50 23//23 45//45
f 53//53 34//34 54//54
f 34//34 27//27 54//54
f 46//46 34//34 53//53
f 35//35 34//34 46//46
f 39//39 9//9 35//35
f 58//58 42//42 41//41
f 48//48 14//14 47//47
f 41//41 31//31 48//48
f 30//30 36//36 42//42
f 29//29 49//49 30//30
f 21//21 47//47 14//14
f 12//12 22//22 37//37
f 1//1 32//32 18//18
f 24//24 51//51 25//25
f 52//52 53//53 56//56
f 67//67 9//9 39//39
f 53//53 54//54 56//56
f 39//39 35//35 46//46
f 27//27 42//42 63//63
f 48//48 58//58 41//41
f 36//36 30//30 49//49
f 40//40 55//55 29//29
f 29//29 55//55 49//49
f 49//49 43//43 36//36
f 40//40 37//37 59//59
f 1//1 38//38 17//17
f 4//4 9//9 10//10
f 45//45 33//33 66//66
f 61//61 25//25 51//51
f 61//61 33//33 25//25
f 54//54 68//68 56//56
f 53//53 57//57 46//46
f 6//6 15//15 11//11
f 86//86 58//58 47//47
f 63//63 42//42 58//58
f 58//58 48//48 47//47
f 22//22 43//43 49//49
f 13//13 11//11 98//98
f 22//22 59//59 37//37
f 23//23 50//50 76//76
f 23//23 76//76 44//44
f 44//44 60//60 24//24
f 33//33 61//61 66//66
f 56//56 62//62 52//52
f 68//68 62//62 56//56
f 57//57 53//53 52//52
f 54//54 27//27 75//75
f 27//27 63//63 75//75
f 47//47 64//64 86//86
f 64//64 47//47 21//21
f 40//40 59//59 55//55
f 17//17 38//38 65//65
f 1//1 10//10 38//38
f 87//87 50//50 66//66
f 50//50 45//45 66//66
f 24//24 60//60 51//51
f 54//54 75//75 68//68
f 46//46 57//57 39//39
f 58//58 86//86 84//84
f 49//49 55//55 59//59
f 59//59 22//22 49//49
f 13//13 98//98 70//70
f 21//21 13//13 64//64
f 50//50 87//87 76//76
f 10//10 9//9 67//67
f 61//61 51//51 71//71
f 71//71 73//73 61//61
f 71//71 69//69 73//73
f 74//74 84//84 72//72
f 58//58 84//84 74//74
f 63//63 58//58 74//74
f 15//15 85//85 11//11
f 13//13 70//70 64//64
f 17//17 95//95 32//32
f 32//32 95//95 76//76
f 78//78 79//79 77//77
f 72//72 79//79 78//78
f 62//62 80//80 88//88
f 62//62 90//90 52//52
f 72//72 89//89 79//79
f 80//80 72//72 78//78
f 66//66 61//61 81//81
f 80//80 74//74 72//72
f 62//62 68//68 80//80
f 73//73 81//81 61//61
f 80//80 68//68 74//74
f 81//81 82//82 15//15
f 69//69 71//71 83//83
f 82//82 85//85 15//15
f 68//68 75//75 74//74
f 75//75 63//63 74//74
f 84//84 86//86 97//97
f 70//70 101//101 64//64
f 32//32 76//76 18//18
f 76//76 87//87 18//18
f 44//44 76//76 95//95
f 60//60 44//44 95//95
f 77//77 94//94 78//78
f 77//77 89//89 60//60
f 88//88 80//80 78//78
f 90//90 62//62 88//88
f 87//87 66//66 81//81
f 60//60 89//89 51//51
f 77//77 79//79 89//89
f 51//51 91//91 71//71
f 91//91 51//51 89//89
f 57//57 67//67 39//39
f 73//73 82//82 81//81
f 97//97 89//89 72//72
f 92//92 82//82 73//73
f 71//71 91//91 83//83
f 69//69 92//92 73//73
f 84//84 97//97 72//72
f 69//69 93//93 92//92
f 69//69 83//83 93//93
f 86//86 100//100 97//97
f 102//102 64//64 101//101
f 17//17 94//94 95//95
f 65//65 94//94 17//17
f 77//77 60//60 95//95
f 94//94 77//77 95//95
f 78//78 94//94 96//96
f 96//96 88//88 78//78
f 18//18 87//87 15//15
f 90//90 99//99 52//52
f 15//15 87//87 81//81
f 99//99 57//57 52//52
f 97//97 91//91 89//89
f 85//85 82//82 92//92
f 100//100 64//64 102//102
f 100//100 86//86 64//64
f 85//85 98//98 11//11
f 94//94 65//65 38//38
f 38//38 96//96 94//94
f 88//88 96//96 38//38
f 10//10 99//99 38//38
f 90//90 88//88 38//38
f 99//99 90//90 38//38
f 10//10 67//67 99//99
f 67//67 57//57 99//99
f 91//91 100//100 83//83
f 91//91 97//97 100//100
f 93//93 83//83 100//100
f 92//92 101//101 85//85
f 93//93 101//101 92//92
f 101//101 98//98 85//85
f 102//102 101//101 93//93
f 100//100 102//102 93//93
f 101//101 70//70 98//98
