# Blender 4.1.1
# www.blender.org
mtllib aa0520.mtl
o Liquid_Domain
v -8.459802 -8.767170 6.212705
v -8.134167 -9.108939 5.864167
v 8.134167 -8.755833 6.217273
v 8.482785 -9.102403 5.864416
v 8.480360 -9.100546 -5.869027
v -8.485184 -9.104156 -5.863006
v -8.134167 -8.755833 -6.217273
v 8.134167 -8.755833 -6.217273
v -8.136492 3.186885 6.211253
v -8.431431 5.565562 -5.848865
v -8.048604 4.583415 -6.196994
v 0.378493 5.358502 -6.208442
v -8.458735 4.872453 3.563222
v 8.465423 5.850173 -2.583121
v -3.394464 3.710974 6.208598
v 8.447286 6.705142 1.120035
v 0.748138 4.947282 6.208667
v -6.361429 3.810040 6.117701
v -1.702204 5.037599 6.064657
v 8.338719 5.659221 -6.131870
v -8.366022 4.617182 5.842764
v -8.018267 4.532411 4.727789
v -4.066122 5.022400 5.765330
v -2.872320 5.385228 5.793320
v 8.158075 6.965878 6.172552
v -7.163469 4.241955 4.719286
v -5.863330 4.031966 4.426683
v -4.836929 4.403438 2.089035
v 6.928822 4.671851 0.247117
v 4.390774 4.436178 -1.568406
v 6.246028 4.774280 -0.404405
v -8.436352 7.077493 -2.118803
v -0.248307 4.492709 -2.496628
v -1.089299 4.506391 -3.762031
v 2.572891 4.175363 -3.559795
v 3.810274 4.666126 -3.600246
v 2.853964 4.605524 -5.089042
v 3.859215 4.542924 -4.765507
v -5.539535 5.548851 6.010591
v -5.890158 4.748309 5.254987
v -4.011951 5.154370 5.020916
v -5.892222 4.219548 3.816471
v -3.108794 4.641998 2.169516
v -6.195679 5.525709 2.109245
v 5.054605 4.123208 0.918458
v -3.357794 4.807527 -1.026197
v 5.212675 5.527364 -2.254440
v 0.349482 4.759051 -3.232936
v -3.314626 5.356085 -3.886112
v 2.163431 5.467614 -5.092125
v -2.740508 5.472601 -6.115555
v 2.451595 6.967139 -6.099680
v 0.900499 5.850503 5.880807
v 8.459079 6.706240 5.884788
v -2.497007 5.338264 5.117255
v 0.410982 4.997506 2.273664
v -0.590374 5.123548 2.271444
v -0.196710 5.509174 -0.081685
v -3.511654 4.926556 0.844386
v 0.972848 5.014715 -1.161590
v 3.105122 5.123463 -1.351764
v -1.939759 4.881937 -2.380874
v 4.790372 6.503898 -3.879921
v 0.876312 5.384106 -4.760210
v 4.624153 5.917505 -5.070127
v 2.964283 6.864607 6.109734
v 1.989197 5.740887 3.771611
v -2.810049 5.731880 3.442158
v 4.368579 5.439532 2.742340
v 6.784598 5.491914 1.838630
v 2.469226 5.669271 1.244222
v -8.294661 6.871159 2.170933
v -4.791492 5.698851 1.260743
v 6.959673 5.600000 -1.294729
v 0.172821 5.661850 -3.541713
v -3.043613 5.811180 -4.608347
v 6.974563 5.363535 -4.029082
v 6.366016 5.838168 -5.630445
v 4.893949 6.340743 -6.167015
v 0.475104 5.948987 4.804624
v 5.834271 5.806320 3.789041
v -7.568470 6.854648 2.302251
v 7.175180 6.793184 2.894192
v 6.313663 5.536861 -3.520762
v 8.056643 6.666735 -2.986307
v -4.683386 5.899542 -5.263682
v -8.061816 6.901037 -3.899660
v 0.289186 6.546793 -5.677506
v 3.236157 7.003803 4.464550
v 7.344981 6.850280 -0.673550
v -6.242135 6.178120 -5.425864
v 7.719794 6.541990 -5.131250
v -0.552267 6.770492 -5.069856
v 3.189007 6.885819 -5.423115
v -0.998717 6.523465 -5.851061
v -5.179889 6.914835 -3.906022
v 5.359361 6.751909 -5.882726
v 6.350184 7.016026 4.403625
v -5.811383 6.551621 -0.242332
v -6.201677 6.927296 -1.616905
v -4.851004 6.999993 -2.712604
vn -0.5404 -0.3601 0.7605
vn -0.3023 -0.9011 0.3110
vn 0.2823 -0.2872 0.9153
vn 0.6229 -0.6504 0.4346
vn 0.6221 -0.6507 -0.4353
vn -0.6236 -0.6497 -0.4347
vn -0.2830 -0.2864 -0.9154
vn 0.2790 -0.2873 -0.9163
vn -0.3742 0.0864 0.9233
vn -0.5576 0.4309 -0.7095
vn -0.2792 0.1379 -0.9503
vn -0.0270 0.1507 -0.9882
vn -0.9612 0.1932 0.1967
vn 0.9775 0.2062 -0.0440
vn -0.0113 0.1119 0.9937
vn 0.7419 0.6704 -0.0117
vn -0.0463 0.1482 0.9879
vn -0.1255 0.4077 0.9044
vn -0.0958 0.5116 0.8539
vn 0.5193 0.3720 -0.7694
vn -0.4509 0.6942 0.5611
vn 0.3340 0.9038 0.2677
vn 0.1421 0.7279 0.6708
vn -0.1075 0.8271 0.5516
vn 0.3457 0.5628 0.7508
vn 0.1740 0.9715 0.1611
vn -0.0751 0.9725 -0.2203
vn 0.2356 0.8769 0.4190
vn -0.7515 0.6591 0.0286
vn -0.1089 0.9797 0.1684
vn -0.3072 0.8838 0.3530
vn -0.6594 0.7517 0.0114
vn -0.0770 0.9882 -0.1325
vn -0.0846 0.7508 0.6551
vn 0.0953 0.9925 0.0766
vn -0.6467 0.7576 0.0888
vn 0.1951 0.5512 0.8112
vn -0.5008 0.7379 0.4524
vn -0.3018 0.7981 0.5215
vn -0.4767 0.8111 -0.3389
vn -0.2699 0.9512 -0.1494
vn 0.2567 0.8764 0.4074
vn -0.2302 0.9696 -0.0835
vn 0.5714 0.6719 0.4712
vn 0.0293 0.9653 -0.2594
vn 0.2522 0.9567 0.1452
vn -0.1241 0.8766 0.4649
vn -0.0092 0.9186 0.3952
vn 0.4129 0.9096 0.0463
vn 0.1244 0.4843 0.8660
vn -0.0835 0.3940 -0.9153
vn -0.0820 0.7196 -0.6895
vn -0.2940 0.6784 0.6733
vn 0.8861 0.3377 0.3174
vn -0.1057 0.9739 0.2011
vn -0.0660 0.9919 -0.1082
vn 0.0106 0.9926 -0.1211
vn 0.1205 0.9922 -0.0332
vn 0.1750 0.9562 0.2347
vn -0.0325 0.9808 -0.1922
vn 0.2436 0.9428 -0.2278
vn 0.2834 0.9568 -0.0646
vn -0.1896 0.9814 -0.0297
vn 0.3340 0.7975 0.5025
vn -0.0618 0.7821 0.6201
vn -0.1554 0.6457 0.7476
vn -0.1550 0.8728 -0.4628
vn -0.3400 0.8993 -0.2749
vn 0.0406 0.9494 -0.3115
vn -0.6898 0.6436 -0.3315
vn 0.0451 0.9890 -0.1407
vn -0.5836 0.7691 0.2606
vn 0.4335 0.6960 0.5724
vn -0.8358 0.5435 0.0775
vn 0.2416 0.5300 0.8129
vn -0.1151 0.7742 0.6224
vn -0.3336 0.9393 0.0794
vn 0.0622 0.9718 0.2275
vn 0.1082 0.2520 -0.9617
vn -0.2126 0.9732 -0.0879
vn -0.2913 0.7278 -0.6208
vn 0.2505 0.8743 0.4157
vn -0.8979 -0.3026 -0.3196
vn 0.2763 0.9605 0.0327
vn 0.2067 0.9605 -0.1865
vn 0.0716 0.9950 0.0702
vn -0.4059 0.8646 -0.2962
vn 0.1126 0.9445 -0.3087
vn -0.1411 0.8573 -0.4952
vn -0.4991 0.8645 -0.0591
vn 0.0369 0.7520 -0.6581
vn 0.0368 0.9839 -0.1751
vn 0.1149 0.9574 0.2649
vn -0.0005 0.7227 0.6912
vn -0.0641 0.6876 -0.7233
vn 0.3083 0.8727 -0.3787
vn 0.5082 0.8452 -0.1656
vn -0.1205 0.9390 -0.3222
vn 0.3871 0.9130 0.1287
vn 0.2050 0.9446 0.2563
vn 0.3612 0.9237 0.1277
s 1
usemtl Liquid_Domain_Material
f 1//1 2//2 3//3
f 2//2 4//4 3//3
f 4//4 2//2 6//6
f 5//5 4//4 6//6
f 6//6 2//2 1//1
f 5//5 6//6 7//7
f 8//8 5//5 7//7
f 54//54 3//3 4//4
f 6//6 10//10 7//7
f 20//20 5//5 8//8
f 1//1 9//9 21//21
f 25//25 3//3 54//54
f 1//1 21//21 6//6
f 1//1 3//3 15//15
f 8//8 7//7 12//12
f 7//7 10//10 11//11
f 1//1 15//15 9//9
f 21//21 13//13 6//6
f 15//15 18//18 9//9
f 4//4 5//5 16//16
f 15//15 3//3 17//17
f 7//7 11//11 12//12
f 8//8 12//12 79//79
f 15//15 39//39 18//18
f 15//15 17//17 19//19
f 8//8 79//79 20//20
f 9//9 18//18 21//21
f 21//21 22//22 13//13
f 16//16 5//5 14//14
f 14//14 5//5 20//20
f 15//15 24//24 23//23
f 3//3 25//25 17//17
f 18//18 26//26 21//21
f 21//21 26//26 22//22
f 4//4 16//16 54//54
f 40//40 27//27 26//26
f 26//26 27//27 42//42
f 31//31 45//45 29//29
f 30//30 45//45 31//31
f 36//36 35//35 30//30
f 6//6 32//32 10//10
f 38//38 35//35 36//36
f 38//38 37//37 35//35
f 15//15 23//23 39//39
f 15//15 19//19 24//24
f 26//26 18//18 40//40
f 18//18 39//39 40//40
f 27//27 40//40 41//41
f 41//41 43//43 27//27
f 43//43 42//42 27//27
f 42//42 28//28 44//44
f 28//28 42//42 43//43
f 43//43 59//59 28//28
f 69//69 70//70 45//45
f 29//29 45//45 70//70
f 30//30 61//61 45//45
f 47//47 30//30 31//31
f 30//30 35//35 61//61
f 33//33 60//60 48//48
f 33//33 34//34 62//62
f 33//33 48//48 34//34
f 61//61 35//35 48//48
f 62//62 34//34 49//49
f 48//48 35//35 50//50
f 35//35 37//37 50//50
f 12//12 11//11 51//51
f 17//17 53//53 19//19
f 23//23 24//24 55//55
f 22//22 26//26 42//42
f 41//41 68//68 43//43
f 68//68 57//57 43//43
f 71//71 69//69 45//45
f 28//28 59//59 44//44
f 58//58 43//43 57//57
f 43//43 58//58 59//59
f 71//71 45//45 61//61
f 60//60 58//58 56//56
f 58//58 46//46 59//59
f 71//71 60//60 56//56
f 13//13 32//32 6//6
f 58//58 62//62 46//46
f 33//33 62//62 58//58
f 60//60 33//33 58//58
f 61//61 48//48 60//60
f 30//30 63//63 36//36
f 64//64 48//48 50//50
f 34//34 76//76 49//49
f 36//36 65//65 38//38
f 39//39 41//41 40//40
f 23//23 41//41 39//39
f 24//24 19//19 55//55
f 55//55 19//19 53//53
f 55//55 68//68 23//23
f 23//23 68//68 41//41
f 56//56 68//68 80//80
f 67//67 56//56 80//80
f 56//56 57//57 68//68
f 69//69 81//81 70//70
f 71//71 56//56 67//67
f 59//59 73//73 44//44
f 56//56 58//58 57//57
f 61//61 60//60 71//71
f 29//29 74//74 31//31
f 84//84 47//47 31//31
f 84//84 31//31 74//74
f 48//48 75//75 34//34
f 75//75 48//48 64//64
f 34//34 75//75 76//76
f 84//84 77//77 65//65
f 38//38 65//65 37//37
f 65//65 77//77 78//78
f 91//91 11//11 10//10
f 11//11 91//91 51//51
f 12//12 52//52 79//79
f 20//20 79//79 78//78
f 17//17 25//25 66//66
f 55//55 53//53 80//80
f 80//80 68//68 55//55
f 22//22 42//42 82//82
f 81//81 69//69 67//67
f 44//44 82//82 42//42
f 70//70 81//81 83//83
f 69//69 71//71 67//67
f 73//73 99//99 44//44
f 72//72 32//32 13//13
f 73//73 59//59 99//99
f 70//70 74//74 29//29
f 99//99 59//59 46//46
f 46//46 62//62 101//101
f 63//63 30//30 47//47
f 63//63 47//47 84//84
f 74//74 77//77 84//84
f 86//86 91//91 49//49
f 49//49 76//76 86//86
f 63//63 65//65 36//36
f 84//84 65//65 63//63
f 14//14 20//20 85//85
f 64//64 50//50 88//88
f 65//65 50//50 37//37
f 77//77 92//92 78//78
f 51//51 91//91 86//86
f 86//86 95//95 51//51
f 92//92 20//20 78//78
f 53//53 17//17 66//66
f 89//89 67//67 80//80
f 98//98 83//83 81//81
f 22//22 72//72 13//13
f 82//82 72//72 22//22
f 70//70 90//90 74//74
f 74//74 90//90 77//77
f 101//101 100//100 46//46
f 96//96 62//62 49//49
f 32//32 87//87 10//10
f 49//49 91//91 96//96
f 77//77 85//85 92//92
f 75//75 93//93 76//76
f 75//75 64//64 93//93
f 85//85 20//20 92//92
f 86//86 76//76 93//93
f 91//91 10//10 87//87
f 64//64 88//88 93//93
f 50//50 94//94 88//88
f 50//50 65//65 94//94
f 93//93 95//95 86//86
f 12//12 51//51 95//95
f 12//12 95//95 88//88
f 12//12 88//88 52//52
f 97//97 78//78 79//79
f 53//53 66//66 80//80
f 66//66 89//89 80//80
f 81//81 67//67 89//89
f 81//81 89//89 98//98
f 83//83 90//90 70//70
f 99//99 82//82 44//44
f 16//16 14//14 85//85
f 100//100 99//99 46//46
f 77//77 90//90 85//85
f 101//101 62//62 96//96
f 96//96 91//91 87//87
f 94//94 65//65 78//78
f 93//93 88//88 95//95
f 78//78 97//97 94//94
f 25//25 89//89 66//66
f 25//25 98//98 89//89
f 54//54 16//16 25//25
f 98//98 90//90 83//83
f 25//25 16//16 98//98
f 16//16 90//90 98//98
f 82//82 99//99 72//72
f 99//99 32//32 72//72
f 99//99 100//100 32//32
f 16//16 85//85 90//90
f 100//100 101//101 32//32
f 32//32 101//101 87//87
f 101//101 96//96 87//87
f 88//88 94//94 52//52
f 97//97 52//52 94//94
f 97//97 79//79 52//52
