# Blender 4.1.1
# www.blender.org
mtllib aa0588.mtl
o Liquid_Domain
v -8.134167 -8.755833 6.217273
v -8.487272 -8.755834 5.864167
v -8.134167 -9.108939 5.864167
v 8.134167 -8.755833 6.217273
v 8.484912 -9.101875 5.865606
v -8.487272 -8.755834 -5.864167
v -8.134167 -9.108939 -5.864167
v 8.421537 -9.100977 -5.896879
v -8.134167 -8.755833 -6.217273
v 8.134167 -8.755833 -6.217273
v -8.472074 6.049605 5.873319
v 8.457038 7.037135 5.886715
v -8.452880 3.188438 -6.208566
v -0.552425 4.266237 -6.192564
v -8.094734 6.655931 6.191682
v -4.709829 4.912480 6.191108
v -8.468750 6.713119 1.757299
v -5.880258 3.879786 -6.139547
v -0.266732 5.041448 6.200449
v 4.096552 5.401353 -6.198799
v 8.488727 4.967976 -5.860855
v -0.597422 3.554998 -3.198362
v -4.584069 3.844227 -3.403815
v -2.815419 4.326476 -2.840065
v -2.187967 4.140151 -3.631357
v 8.432814 6.732756 1.313190
v -0.748642 4.051061 -2.212578
v -5.396305 4.254362 -2.380238
v 0.874625 4.680171 -3.396586
v -1.678266 4.935417 -5.290745
v 0.553458 5.568040 -5.191282
v -8.036622 4.102936 -6.127254
v -3.603448 5.173428 -5.607093
v 3.124971 6.426281 -6.075556
v -1.183141 5.278025 5.957195
v 8.132939 6.716946 6.201448
v -5.704247 4.671939 4.677647
v -7.137099 5.048316 -1.839632
v -4.403752 5.026608 -2.341205
v -7.493998 5.329413 -4.332324
v 2.373105 4.773535 -4.340084
v -6.042727 4.826515 -5.200179
v 8.364662 6.531135 -4.478318
v -8.019023 5.399019 -4.969911
v -0.967651 4.913046 -5.900616
v 5.595111 6.645644 -6.080997
v -3.986340 5.380943 5.920331
v -3.225346 5.310753 5.170771
v -5.738495 4.944687 3.325342
v -3.058793 5.689208 3.195095
v -6.798585 6.066259 2.924883
v -5.114223 5.760510 2.295326
v 1.450083 5.854585 -1.761424
v 8.370902 6.817174 -2.647774
v -5.973848 5.509860 -2.062467
v -7.344396 4.591819 -2.534366
v 5.579875 4.894904 -4.650784
v 4.016798 5.633961 -4.746601
v 8.158373 6.981664 -6.172187
v -5.262504 6.768957 6.010934
v 4.467584 5.655036 -3.326803
v 4.480221 5.931625 -5.247534
v -6.554842 5.863276 4.974141
v -1.684462 6.658492 3.880368
v -2.524012 6.726992 1.634468
v 3.531024 5.671040 -1.705057
v 5.923540 6.093396 -0.190327
v -8.342732 6.985234 -3.083973
v -6.908254 6.069363 -1.600552
v -2.865880 5.857279 -1.640805
v 5.323962 6.295786 -2.193136
v -8.063605 6.924782 -4.261641
v 1.879295 6.970686 6.121755
v -5.420411 6.228016 5.410123
v -7.731302 6.781637 5.167683
v 6.356530 5.969117 3.723538
v 4.646880 5.928066 2.860830
v 6.421204 6.965538 1.910433
v 3.477847 6.025217 2.176853
v 5.147173 6.591599 1.465703
v -4.723362 6.604429 -0.004415
v -3.671200 6.262049 0.487510
v -1.762622 6.058635 -0.560251
v 0.029100 6.669331 -0.251904
v 6.862153 6.402047 -2.518894
v 3.233853 6.710684 -5.427913
v 6.466167 6.780228 -5.396134
v -8.051432 6.940254 5.814927
v -0.599192 7.079501 3.940311
v -7.660193 6.917122 2.539899
v -2.178125 6.965524 0.923646
v -6.882988 6.552337 0.066130
v 7.471150 7.013756 -0.607703
v 7.444584 6.794013 -4.575791
v 3.127460 7.022533 3.360798
v 6.341758 7.028615 4.597510
v 7.719583 7.146027 3.657001
v 2.170860 6.943114 2.123510
v 1.767576 6.983835 0.237535
v -7.656775 6.860328 -1.911090
vn -0.3100 -0.3156 0.8968
vn -0.8645 -0.3427 0.3676
vn -0.3349 -0.8684 0.3657
vn 0.2808 -0.2869 0.9159
vn 0.6229 -0.6498 0.4356
vn -0.8647 -0.3477 -0.3625
vn -0.3349 -0.8684 -0.3656
vn 0.6147 -0.6556 -0.4386
vn -0.3066 -0.3200 -0.8964
vn 0.2983 -0.2714 -0.9151
vn -0.9029 0.1492 0.4030
vn 0.6228 0.6457 0.4418
vn -0.5822 0.0984 -0.8071
vn -0.0500 0.1575 -0.9863
vn -0.3743 0.4048 0.8343
vn 0.0556 0.1012 0.9933
vn -0.9076 0.4196 0.0136
vn -0.0318 0.3966 -0.9174
vn -0.0644 0.1291 0.9895
vn 0.0135 0.2650 -0.9642
vn 0.9134 0.0343 -0.4055
vn -0.1802 0.9832 0.0276
vn 0.0420 0.9984 0.0388
vn 0.0801 0.8170 -0.5711
vn 0.1056 0.9661 0.2356
vn 0.8196 0.5724 -0.0263
vn -0.0750 0.7852 -0.6147
vn -0.0269 0.6756 -0.7368
vn -0.4335 0.9001 -0.0446
vn -0.0450 0.9543 0.2955
vn -0.2665 0.9128 0.3094
vn -0.3008 0.4192 -0.8566
vn -0.0510 0.9365 -0.3469
vn 0.0863 0.6331 -0.7692
vn -0.1623 0.7016 0.6938
vn 0.2800 0.2745 0.9199
vn 0.2640 0.8864 -0.3803
vn 0.3156 0.4072 -0.8570
vn -0.0798 0.4489 -0.8900
vn 0.7160 0.6911 -0.0989
vn -0.1428 0.9200 0.3649
vn 0.1037 0.9583 -0.2661
vn 0.7901 0.6128 -0.0149
vn -0.2226 0.7212 -0.6560
vn -0.1534 0.6750 -0.7217
vn -0.2877 0.7212 -0.6301
vn 0.2354 0.6978 0.6764
vn -0.1113 0.9908 0.0764
vn 0.0358 0.9298 0.3662
vn -0.3999 0.8644 0.3047
vn 0.5929 0.7773 0.2104
vn 0.0463 0.9043 0.4244
vn -0.1658 0.8363 -0.5227
vn 0.6952 0.7172 -0.0479
vn 0.6627 0.6613 -0.3514
vn 0.6737 0.7067 -0.2162
vn -0.1592 0.9276 0.3379
vn 0.0956 0.8289 0.5512
vn 0.4207 0.6026 -0.6781
vn 0.3955 0.8215 0.4106
vn -0.1402 0.9523 -0.2709
vn 0.0764 0.8928 0.4439
vn 0.4955 0.6214 -0.6069
vn -0.4312 0.8371 0.3366
vn -0.3788 0.9093 0.1721
vn -0.0619 0.9761 -0.2085
vn -0.3350 0.9339 -0.1252
vn -0.6027 0.7945 -0.0742
vn 0.3266 0.5755 -0.7497
vn 0.1903 0.7740 -0.6039
vn -0.1986 0.9706 -0.1361
vn -0.0703 0.7311 -0.6787
vn -0.0989 0.6264 0.7732
vn 0.2646 0.6179 -0.7404
vn 0.4687 0.8789 -0.0884
vn -0.2062 0.9127 -0.3529
vn 0.0656 0.9815 -0.1796
vn -0.2800 0.9571 0.0751
vn 0.2686 0.9426 -0.1982
vn -0.3354 0.9288 -0.1575
vn 0.0884 0.9960 -0.0144
vn -0.0489 0.9969 0.0614
vn 0.0235 0.8226 -0.5682
vn -0.1214 0.8263 -0.5500
vn -0.4680 0.8725 -0.1406
vn 0.0975 0.9737 0.2059
vn -0.2842 0.8801 0.3804
vn -0.3969 0.8937 0.2091
vn -0.2126 0.9447 0.2498
vn 0.3919 0.9194 0.0340
vn -0.2385 0.9511 -0.1963
vn 0.2401 0.9699 -0.0392
vn -0.1426 0.9876 -0.0663
vn -0.2010 0.9677 0.1523
vn 0.1786 0.9452 -0.2735
vn -0.0378 0.9600 -0.2775
vn -0.0588 0.9965 -0.0598
vn 0.2833 0.9513 -0.1211
vn 0.2079 0.9505 -0.2310
vn 0.5990 0.7767 -0.1950
s 1
usemtl Liquid_Domain_Material
f 3//3 1//1 2//2
f 3//3 5//5 1//1
f 1//1 5//5 4//4
f 6//6 3//3 2//2
f 5//5 3//3 7//7
f 5//5 7//7 8//8
f 7//7 3//3 6//6
f 7//7 6//6 9//9
f 10//10 7//7 9//9
f 8//8 7//7 10//10
f 36//36 4//4 5//5
f 2//2 1//1 11//11
f 10//10 9//9 13//13
f 5//5 8//8 21//21
f 21//21 8//8 10//10
f 12//12 36//36 5//5
f 6//6 13//13 9//9
f 13//13 14//14 10//10
f 4//4 19//19 1//1
f 10//10 20//20 59//59
f 59//59 21//21 10//10
f 1//1 15//15 11//11
f 1//1 16//16 15//15
f 2//2 11//11 6//6
f 11//11 17//17 6//6
f 13//13 18//18 14//14
f 1//1 19//19 16//16
f 10//10 14//14 20//20
f 6//6 17//17 13//13
f 13//13 32//32 18//18
f 24//24 27//27 22//22
f 24//24 23//23 28//28
f 22//22 25//25 24//24
f 25//25 23//23 24//24
f 22//22 27//27 53//53
f 22//22 53//53 29//29
f 28//28 23//23 56//56
f 23//23 25//25 30//30
f 22//22 30//30 25//25
f 29//29 31//31 22//22
f 14//14 18//18 33//33
f 14//14 33//33 45//45
f 14//14 34//34 20//20
f 19//19 35//35 16//16
f 4//4 36//36 19//19
f 5//5 21//21 26//26
f 28//28 56//56 38//38
f 24//24 28//28 39//39
f 42//42 40//40 56//56
f 23//23 42//42 56//56
f 41//41 31//31 29//29
f 33//33 42//42 23//23
f 23//23 30//30 33//33
f 30//30 22//22 31//31
f 68//68 32//32 13//13
f 32//32 44//44 18//18
f 42//42 18//18 44//44
f 42//42 33//33 18//18
f 30//30 45//45 33//33
f 20//20 46//46 59//59
f 16//16 35//35 47//47
f 48//48 50//50 37//37
f 49//49 51//51 37//37
f 50//50 52//52 37//37
f 52//52 49//49 37//37
f 12//12 5//5 26//26
f 27//27 70//70 83//83
f 26//26 21//21 54//54
f 28//28 38//38 55//55
f 70//70 27//27 24//24
f 17//17 68//68 13//13
f 53//53 41//41 29//29
f 58//58 61//61 57//57
f 44//44 32//32 68//68
f 42//42 44//44 40//40
f 16//16 60//60 15//15
f 36//36 73//73 19//19
f 47//47 48//48 74//74
f 35//35 48//48 47//47
f 48//48 37//37 74//74
f 51//51 49//49 52//52
f 83//83 84//84 27//27
f 84//84 53//53 27//27
f 38//38 100//100 69//69
f 38//38 69//69 55//55
f 55//55 69//69 28//28
f 39//39 28//28 69//69
f 69//69 70//70 39//39
f 39//39 70//70 24//24
f 66//66 41//41 53//53
f 61//61 41//41 66//66
f 54//54 21//21 43//43
f 61//61 71//71 57//57
f 57//57 71//71 85//85
f 61//61 58//58 41//41
f 57//57 85//85 94//94
f 58//58 57//57 62//62
f 41//41 86//86 31//31
f 58//58 86//86 41//41
f 31//31 45//45 30//30
f 45//45 34//34 14//14
f 16//16 47//47 60//60
f 74//74 37//37 63//63
f 35//35 64//64 48//48
f 63//63 37//37 51//51
f 50//50 48//48 64//64
f 52//52 50//50 65//65
f 67//67 66//66 79//79
f 71//71 61//61 66//66
f 56//56 40//40 100//100
f 72//72 44//44 68//68
f 40//40 44//44 72//72
f 94//94 87//87 57//57
f 45//45 31//31 34//34
f 21//21 59//59 43//43
f 73//73 35//35 19//19
f 78//78 77//77 76//76
f 77//77 79//79 95//95
f 81//81 92//92 51//51
f 52//52 81//81 51//51
f 81//81 52//52 82//82
f 65//65 82//82 52//52
f 80//80 79//79 77//77
f 79//79 66//66 98//98
f 67//67 79//79 80//80
f 81//81 82//82 83//83
f 85//85 71//71 67//67
f 81//81 69//69 92//92
f 70//70 69//69 81//81
f 83//83 70//70 81//81
f 67//67 71//71 66//66
f 38//38 56//56 100//100
f 100//100 40//40 72//72
f 62//62 86//86 58//58
f 57//57 87//87 62//62
f 34//34 31//31 86//86
f 62//62 20//20 86//86
f 20//20 34//34 86//86
f 20//20 62//62 46//46
f 11//11 15//15 88//88
f 47//47 74//74 60//60
f 74//74 63//63 75//75
f 64//64 35//35 89//89
f 89//89 35//35 73//73
f 75//75 63//63 90//90
f 97//97 76//76 96//96
f 11//11 88//88 17//17
f 63//63 51//51 90//90
f 96//96 76//76 77//77
f 95//95 96//96 77//77
f 76//76 97//97 78//78
f 95//95 79//79 98//98
f 65//65 50//50 64//64
f 80//80 77//77 78//78
f 90//90 51//51 92//92
f 65//65 91//91 82//82
f 98//98 66//66 99//99
f 78//78 67//67 80//80
f 91//91 83//83 82//82
f 93//93 67//67 78//78
f 84//84 83//83 91//91
f 100//100 92//92 69//69
f 84//84 99//99 53//53
f 66//66 53//53 99//99
f 93//93 85//85 67//67
f 94//94 85//85 93//93
f 46//46 62//62 87//87
f 88//88 15//15 60//60
f 73//73 36//36 12//12
f 74//74 75//75 88//88
f 60//60 74//74 88//88
f 95//95 73//73 12//12
f 96//96 95//95 12//12
f 97//97 96//96 12//12
f 75//75 90//90 88//88
f 95//95 89//89 73//73
f 12//12 26//26 97//97
f 95//95 98//98 89//89
f 88//88 68//68 17//17
f 90//90 68//68 88//88
f 89//89 65//65 64//64
f 98//98 99//99 89//89
f 89//89 91//91 65//65
f 99//99 91//91 89//89
f 97//97 93//93 78//78
f 26//26 93//93 97//97
f 99//99 84//84 91//91
f 90//90 100//100 68//68
f 92//92 100//100 90//90
f 26//26 54//54 93//93
f 68//68 100//100 72//72
f 54//54 94//94 93//93
f 54//54 43//43 94//94
f 59//59 87//87 94//94
f 43//43 59//59 94//94
f 59//59 46//46 87//87
