# Blender 4.1.1
# www.blender.org
mtllib aa0535.mtl
o Liquid_Domain
v -8.134167 -8.755833 6.217273
v -8.458159 -9.102937 5.876188
v 8.134167 -8.755833 6.217273
v 8.487272 -8.755833 -5.864167
v 8.483076 -9.103865 5.864652
v -8.482114 -9.100038 -5.868268
v 8.134167 -9.108939 -5.864167
v -8.134167 -8.755833 -6.217273
v 8.134167 -8.755833 -6.217273
v 8.463744 4.522573 -5.880742
v -8.136861 3.293665 6.217265
v 8.465627 6.981245 5.884863
v -8.465398 5.078347 -5.829337
v 8.028418 4.561850 -6.209346
v 1.614761 4.351312 6.191435
v -5.857323 4.079555 -6.193453
v -3.592398 4.192104 6.185265
v 8.443115 5.535969 -2.034479
v -8.083919 5.390650 -6.147930
v 1.889905 4.964519 -6.205022
v -2.943341 5.820610 -6.054450
v -8.482246 5.230501 5.987505
v -0.429324 5.070637 -6.157810
v -7.358672 5.692112 6.075890
v 0.531739 4.739381 5.786508
v 8.150982 6.688429 6.193841
v -8.426733 7.022140 -1.963134
v -0.820335 4.446515 -3.143737
v 2.196616 4.633568 -3.438340
v 0.739524 4.357602 -4.474441
v 4.589290 5.681209 -6.137222
v -2.366035 4.703115 5.827072
v -8.363990 6.754764 4.623145
v 0.805424 4.792331 2.627227
v 5.209539 4.291549 -0.770693
v -0.438979 4.369896 -2.190665
v -0.722337 4.956195 -4.681899
v 0.450076 5.076937 4.615474
v -6.034278 5.055346 4.493225
v 2.396836 5.580748 3.835086
v 1.971361 5.502711 2.078453
v -3.163572 5.116135 1.652369
v -0.638770 4.929938 1.404142
v -2.306444 5.248360 -0.516396
v 5.456404 5.632203 0.929698
v 1.576712 4.879253 -0.956185
v 8.413664 6.685246 1.219023
v 3.559521 4.875730 -1.620786
v 5.812254 5.317877 -1.816983
v -1.804838 5.234227 -2.572273
v 3.519916 5.321328 -2.522023
v 4.123780 5.589140 -2.261600
v -5.025569 5.378930 -2.604161
v -2.537117 4.347688 -3.727484
v -4.140151 5.477437 -5.748787
v -2.254277 5.584630 -5.437535
v 1.481674 6.269353 -5.549819
v -0.273839 5.911599 -5.843217
v 2.951892 5.852627 5.878609
v 4.364079 6.435141 4.261407
v -2.569647 6.015687 2.732063
v -4.675331 6.089944 4.466545
v -6.407333 5.875492 1.661564
v -4.931078 5.463494 2.924234
v 2.986132 5.695088 1.523359
v 4.255733 5.231820 1.835760
v -4.720644 5.510311 0.784197
v 7.427182 6.220277 -2.146313
v 6.081110 5.332636 -3.400739
v -4.234499 4.703970 -3.148598
v -7.016150 5.840362 -5.124729
v -5.718641 6.397068 6.128684
v 4.717103 6.963668 6.069084
v -2.467116 5.187767 5.094354
v 4.593752 5.573379 3.314794
v 6.320951 5.659769 3.662462
v 6.823894 5.985451 -0.089840
v -7.444059 6.729584 -2.357162
v 5.181809 6.750227 -4.313330
v 7.977070 5.976556 -4.209334
v 7.434950 6.059240 -5.539154
v -6.877521 6.319094 5.206107
v 6.937043 6.721596 3.891459
v 7.358022 6.771510 -0.166039
v 7.980869 7.011296 -0.630757
v -6.965890 6.049792 -3.234706
v 2.603918 6.541369 -3.862226
v -8.113972 6.988736 -5.574409
v -6.414570 7.125915 5.813553
v -7.299922 6.947490 4.107479
v -5.195270 6.929817 0.334609
v -3.008195 6.555698 -1.673237
v 2.741640 7.051190 -5.350369
v 6.731982 6.504944 -5.896097
v 4.287452 6.550532 -5.388453
v 6.443433 7.033394 4.770981
v 7.983940 7.079247 2.656092
v -7.612334 7.063141 1.016975
v -3.382859 6.979286 -0.556444
v -4.970607 6.927160 -1.881911
vn -0.2868 -0.2830 0.9152
vn -0.6193 -0.6539 0.4346
vn 0.2822 -0.2862 0.9157
vn 0.8639 -0.3393 -0.3723
vn 0.6225 -0.6503 0.4354
vn -0.6227 -0.6492 -0.4368
vn 0.3318 -0.8676 -0.3703
vn -0.2817 -0.2858 -0.9159
vn 0.3101 -0.3158 -0.8967
vn 0.8341 0.2483 -0.4926
vn -0.2666 0.0175 0.9636
vn 0.6316 0.6416 0.4353
vn -0.8901 0.0797 -0.4487
vn 0.3366 0.1893 -0.9224
vn -0.0737 0.1859 0.9798
vn -0.0107 0.1888 -0.9819
vn 0.0555 0.1351 0.9893
vn 0.9122 0.3908 -0.1231
vn -0.1774 0.2900 -0.9404
vn -0.0240 0.1991 -0.9797
vn -0.1190 0.7884 -0.6035
vn -0.6332 0.2547 0.7309
vn 0.0170 0.2295 -0.9732
vn -0.2208 0.3683 0.9031
vn -0.1243 0.7838 0.6084
vn 0.2824 0.2817 0.9170
vn -0.6449 0.7595 -0.0855
vn 0.1690 0.9834 -0.0659
vn -0.4741 0.7748 0.4182
vn -0.1745 0.8094 0.5607
vn -0.0216 0.3209 -0.9469
vn 0.1208 0.6505 0.7499
vn -0.6032 0.7263 0.3296
vn -0.1022 0.9911 -0.0855
vn -0.1850 0.9821 0.0340
vn 0.1841 0.9695 -0.1617
vn 0.0367 0.7721 0.6344
vn -0.0876 0.9902 0.1084
vn 0.1197 0.8673 -0.4831
vn -0.2573 0.9388 -0.2290
vn -0.3783 0.9247 -0.0420
vn 0.0534 0.9740 -0.2201
vn 0.1335 0.9855 -0.1048
vn 0.4164 0.8698 0.2647
vn -0.4579 0.8405 -0.2898
vn -0.0699 0.9834 -0.1674
vn 0.8893 0.4564 -0.0283
vn -0.0888 0.9750 0.2035
vn -0.2107 0.8848 0.4156
vn 0.3106 0.7278 -0.6114
vn -0.4151 0.7929 0.4460
vn -0.1949 0.9636 0.1829
vn 0.2118 0.6438 -0.7353
vn 0.0611 0.9892 0.1330
vn -0.1411 0.9429 -0.3018
vn -0.0843 0.8454 0.5275
vn -0.3525 0.8439 -0.4045
vn -0.0303 0.7349 -0.6775
vn -0.4340 0.7652 0.4756
vn -0.1916 0.8612 -0.4707
vn 0.0465 0.9663 -0.2531
vn -0.0294 0.9466 -0.3211
vn 0.4935 0.8423 0.2167
vn -0.0960 0.9921 -0.0806
vn 0.0740 0.9928 -0.0939
vn -0.0483 0.9873 -0.1511
vn 0.3518 0.7883 0.5049
vn -0.0660 0.9841 -0.1646
vn -0.0695 0.9597 0.2722
vn 0.2510 0.9170 -0.3101
vn 0.4225 0.7575 -0.4977
vn 0.1523 0.3792 0.9127
vn -0.2276 0.7068 0.6698
vn 0.2307 0.9001 0.3697
vn -0.0752 0.9276 -0.3659
vn -0.3851 0.8304 -0.4027
vn -0.6984 0.6914 -0.1848
vn 0.2704 0.8744 -0.4028
vn 0.2656 0.8893 0.3724
vn 0.6330 0.7678 -0.0992
vn 0.5580 0.8082 -0.1880
vn -0.0906 0.9852 -0.1453
vn -0.7554 0.4915 -0.4333
vn -0.6321 0.7671 -0.1095
vn 0.2713 0.9245 -0.2679
vn 0.5469 0.8229 -0.1543
vn -0.3798 0.7107 0.5921
vn -0.1556 0.7584 -0.6329
vn -0.2239 0.9240 0.3100
vn 0.3717 0.9163 0.1490
vn 0.2547 0.7673 0.5886
vn 0.4713 0.8202 -0.3243
vn -0.1701 0.8932 -0.4162
vn 0.2785 0.7597 -0.5876
vn 0.1223 0.8250 -0.5518
vn -0.1479 0.9505 -0.2732
vn 0.1244 0.9908 -0.0539
vn 0.1102 0.9805 0.1626
vn 0.4664 0.7901 0.3977
vn 0.0948 0.8148 -0.5719
s 1
usemtl Liquid_Domain_Material
f 1//1 2//2 3//3
f 2//2 5//5 3//3
f 7//7 4//4 5//5
f 5//5 2//2 7//7
f 7//7 2//2 6//6
f 9//9 6//6 8//8
f 7//7 6//6 9//9
f 4//4 7//7 9//9
f 2//2 22//22 6//6
f 26//26 3//3 5//5
f 10//10 4//4 9//9
f 3//3 11//11 1//1
f 2//2 1//1 22//22
f 12//12 26//26 5//5
f 6//6 13//13 8//8
f 9//9 8//8 14//14
f 14//14 10//10 9//9
f 5//5 4//4 10//10
f 20//20 8//8 16//16
f 11//11 3//3 15//15
f 1//1 11//11 22//22
f 15//15 17//17 11//11
f 5//5 18//18 12//12
f 5//5 10//10 18//18
f 8//8 13//13 19//19
f 16//16 8//8 19//19
f 14//14 8//8 20//20
f 20//20 16//16 23//23
f 16//16 21//21 23//23
f 11//11 24//24 22//22
f 17//17 25//25 32//32
f 15//15 25//25 17//17
f 22//22 27//27 6//6
f 27//27 13//13 6//6
f 28//28 54//54 70//70
f 46//46 30//30 36//36
f 29//29 30//30 46//46
f 28//28 36//36 30//30
f 11//11 72//72 24//24
f 11//11 17//17 72//72
f 77//77 35//35 45//45
f 35//35 48//48 65//65
f 48//48 29//29 46//46
f 50//50 36//36 28//28
f 51//51 29//29 48//48
f 54//54 28//28 37//37
f 37//37 28//28 30//30
f 21//21 16//16 55//55
f 20//20 31//31 14//14
f 25//25 15//15 59//59
f 3//3 26//26 15//15
f 25//25 74//74 32//32
f 38//38 74//74 25//25
f 40//40 34//34 38//38
f 34//34 40//40 41//41
f 44//44 67//67 42//42
f 65//65 66//66 35//35
f 35//35 66//66 45//45
f 34//34 46//46 43//43
f 43//43 44//44 42//42
f 46//46 44//44 43//43
f 41//41 46//46 34//34
f 41//41 65//65 46//46
f 48//48 46//46 65//65
f 46//46 36//36 44//44
f 48//48 35//35 49//49
f 52//52 51//51 48//48
f 49//49 52//52 48//48
f 53//53 50//50 70//70
f 28//28 70//70 50//50
f 30//30 29//29 87//87
f 70//70 54//54 55//55
f 56//56 55//55 54//54
f 56//56 54//54 37//37
f 57//57 56//56 37//37
f 37//37 30//30 57//57
f 19//19 71//71 16//16
f 16//16 71//71 55//55
f 81//81 10//10 14//14
f 72//72 17//17 32//32
f 15//15 26//26 73//73
f 74//74 72//72 32//32
f 25//25 59//59 38//38
f 59//59 60//60 38//38
f 40//40 38//38 60//60
f 38//38 61//61 74//74
f 63//63 39//39 64//64
f 62//62 64//64 39//39
f 65//65 41//41 40//40
f 64//64 61//61 42//42
f 38//38 34//34 61//61
f 75//75 66//66 40//40
f 12//12 18//18 47//47
f 34//34 43//43 61//61
f 66//66 65//65 40//40
f 22//22 33//33 27//27
f 63//63 64//64 67//67
f 42//42 67//67 64//64
f 43//43 42//42 61//61
f 45//45 66//66 75//75
f 35//35 77//77 68//68
f 44//44 36//36 92//92
f 49//49 35//35 68//68
f 50//50 92//92 36//36
f 68//68 69//69 49//49
f 53//53 100//100 50//50
f 86//86 53//53 70//70
f 51//51 87//87 29//29
f 18//18 10//10 80//80
f 70//70 55//55 86//86
f 55//55 71//71 86//86
f 10//10 81//81 80//80
f 55//55 56//56 21//21
f 23//23 21//21 58//58
f 73//73 59//59 15//15
f 24//24 33//33 22//22
f 61//61 62//62 74//74
f 75//75 40//40 60//60
f 61//61 64//64 62//62
f 76//76 77//77 75//75
f 77//77 45//45 75//75
f 99//99 44//44 92//92
f 100//100 92//92 50//50
f 86//86 78//78 53//53
f 49//49 69//69 52//52
f 69//69 51//51 52//52
f 80//80 68//68 18//18
f 79//79 51//51 69//69
f 68//68 81//81 69//69
f 58//58 21//21 56//56
f 57//57 58//58 56//56
f 20//20 23//23 57//57
f 23//23 58//58 57//57
f 57//57 93//93 20//20
f 31//31 20//20 93//93
f 14//14 31//31 94//94
f 94//94 81//81 14//14
f 33//33 24//24 82//82
f 74//74 89//89 72//72
f 62//62 89//89 74//74
f 82//82 62//62 39//39
f 82//82 39//39 90//90
f 75//75 60//60 76//76
f 60//60 96//96 76//76
f 39//39 63//63 90//90
f 76//76 84//84 77//77
f 67//67 98//98 63//63
f 67//67 44//44 91//91
f 44//44 99//99 91//91
f 77//77 84//84 68//68
f 18//18 68//68 85//85
f 78//78 100//100 53//53
f 80//80 81//81 68//68
f 30//30 87//87 57//57
f 81//81 94//94 69//69
f 71//71 19//19 88//88
f 93//93 95//95 31//31
f 31//31 95//95 94//94
f 89//89 24//24 72//72
f 24//24 89//89 82//82
f 82//82 89//89 62//62
f 82//82 90//90 33//33
f 60//60 59//59 73//73
f 76//76 96//96 83//83
f 63//63 98//98 90//90
f 76//76 83//83 84//84
f 67//67 91//91 98//98
f 68//68 84//84 85//85
f 47//47 18//18 85//85
f 87//87 51//51 79//79
f 13//13 27//27 88//88
f 88//88 78//78 71//71
f 78//78 86//86 71//71
f 69//69 94//94 79//79
f 87//87 93//93 57//57
f 19//19 13//13 88//88
f 73//73 26//26 12//12
f 12//12 96//96 73//73
f 96//96 60//60 73//73
f 12//12 97//97 96//96
f 12//12 47//47 97//97
f 97//97 83//83 96//96
f 90//90 98//98 33//33
f 97//97 85//85 83//83
f 47//47 85//85 97//97
f 33//33 98//98 27//27
f 85//85 84//84 83//83
f 91//91 27//27 98//98
f 91//91 100//100 27//27
f 99//99 100//100 91//91
f 92//92 100//100 99//99
f 100//100 78//78 27//27
f 78//78 88//88 27//27
f 79//79 93//93 87//87
f 79//79 95//95 93//93
f 94//94 95//95 79//79
