# Blender 4.1.1
# www.blender.org
mtllib aa0540.mtl
o Liquid_Domain
v -8.134167 -8.755833 6.217273
v -8.471538 -9.101188 5.873422
v 8.481301 -9.100776 5.866258
v 8.480732 -9.101707 -5.867581
v -8.407135 -9.102671 -5.905264
v -8.134167 -8.755833 -6.217273
v 8.134167 -8.755833 -6.217273
v 8.459800 7.086447 5.828849
v -8.108453 7.021455 6.169948
v 8.134167 -8.755833 6.217273
v 8.477716 4.645335 -5.845885
v -8.475335 6.620025 5.847589
v -5.160313 6.515490 6.189870
v -0.344485 2.441075 6.215360
v 8.461975 4.684636 -3.794510
v -8.003736 3.394208 -6.204996
v -0.448710 3.190284 -6.213266
v 8.185441 4.700421 -6.188692
v -5.728772 4.557241 -6.114687
v 0.182451 4.333578 5.962561
v 3.106657 5.197853 6.176353
v 8.134044 6.646901 6.208537
v -2.216923 4.301299 -6.150161
v 7.078325 5.224285 -6.173576
v -8.464922 6.726895 -0.814112
v 0.252934 4.188060 -2.552106
v -2.686284 4.010272 -3.128753
v 0.155175 4.131848 -3.979273
v -1.440866 4.589972 -3.198861
v -2.333380 4.545126 -4.562537
v -8.106360 5.193098 -5.560256
v -2.318065 5.023720 -5.670560
v -2.437654 4.799531 6.104816
v 0.211341 4.869164 4.772130
v 0.788098 4.815544 3.398410
v 2.850043 4.898721 -1.294368
v 1.557009 4.664089 -3.271424
v -8.275528 6.922588 -5.170505
v 0.869150 5.592164 -6.006840
v 1.846772 5.660178 5.728435
v 2.677684 5.400709 3.745522
v 4.493216 5.252959 2.910559
v 4.161360 5.260247 1.468604
v 0.839505 4.856937 1.879170
v -3.652446 5.012091 1.383326
v -0.903060 5.210605 1.516231
v -1.979904 5.346331 -0.309840
v 5.085510 4.684544 -0.950423
v 8.310534 6.510314 -1.092047
v -0.554057 4.742432 -1.944903
v 3.119170 5.691740 -2.900060
v -4.713152 4.783515 -3.179804
v -5.347320 5.119115 -5.807701
v -0.284492 5.375355 -4.926538
v 4.234390 6.991976 -6.176962
v -3.657954 6.106217 5.644618
v 3.603750 5.807760 5.774186
v -6.070135 5.497669 4.767930
v 4.506868 5.710463 3.711769
v -5.065344 5.530765 1.659176
v 6.223716 5.475194 3.530175
v 8.363832 6.896139 1.467177
v -6.339969 5.695160 2.182581
v -4.521335 5.423822 2.717413
v 3.042693 5.640595 1.375510
v 5.259542 5.849475 1.183100
v -8.485558 3.361881 -5.808649
v -2.246003 6.024858 -2.076895
v -7.060379 5.533043 -2.043993
v -4.544686 5.038962 -2.239815
v -3.239519 5.929106 -2.243526
v 6.362455 5.393885 -2.054048
v 5.790449 5.456585 -3.997940
v 7.500615 5.888804 -3.008785
v 1.930599 6.606354 -4.269578
v 5.201640 6.675623 4.612306
v -6.645827 6.684490 4.921937
v -4.742566 6.413430 4.196758
v 6.587708 5.910073 1.815749
v -4.588569 6.746472 0.978134
v 3.891577 5.788131 -3.348044
v -7.392699 5.848218 -4.757202
v 7.249878 6.230088 -5.745394
v -0.057243 5.733541 -5.749404
v 4.874605 6.995036 6.102219
v -2.007266 5.512603 4.340920
v 7.018952 6.882440 4.146615
v -2.141122 6.249073 2.434094
v 7.566576 6.899968 -1.164131
v -7.865936 7.108763 -1.678562
v -4.777658 6.814884 -1.518526
v -7.562046 6.816401 -3.395184
v 4.729361 6.930200 -4.339748
v 2.210552 7.067147 -6.040661
v -4.843138 7.035016 4.821617
v -6.967660 6.977743 -1.053328
v 6.023618 6.722010 -5.841522
v -7.714658 7.044131 2.557645
v -6.414539 7.048899 1.139474
v -2.896755 7.026476 -0.675314
vn -0.2848 -0.2826 0.9160
vn -0.6213 -0.6505 0.4368
vn 0.6227 -0.6500 0.4356
vn 0.6219 -0.6502 -0.4363
vn -0.6122 -0.6563 -0.4409
vn -0.3034 -0.2654 -0.9151
vn 0.2819 -0.2856 -0.9159
vn 0.6132 0.6794 0.4030
vn -0.3344 0.6008 0.7261
vn 0.2831 -0.2865 0.9153
vn 0.8639 0.3359 -0.3754
vn -0.8942 0.3056 0.3272
vn 0.1550 0.4877 0.8591
vn 0.0034 0.0394 0.9992
vn 0.9474 0.3163 -0.0480
vn -0.3049 0.1665 -0.9377
vn 0.0025 0.0271 -0.9996
vn 0.4136 0.3772 -0.8286
vn -0.0843 0.3431 -0.9355
vn -0.0953 0.4687 0.8782
vn -0.1017 0.2603 0.9602
vn 0.3148 0.2413 0.9180
vn -0.0250 0.2622 -0.9647
vn 0.1443 0.1910 -0.9709
vn -0.8611 0.5083 0.0116
vn 0.1108 0.9715 -0.2096
vn -0.0604 0.9407 -0.3337
vn -0.2242 0.8621 0.4544
vn 0.0316 0.9268 -0.3742
vn -0.0172 0.9426 0.3334
vn 0.1382 0.2664 -0.9539
vn -0.1344 0.9278 -0.3482
vn 0.2488 0.4532 0.8560
vn -0.0539 0.9826 0.1776
vn -0.0833 0.9964 -0.0139
vn -0.0799 0.9961 0.0372
vn -0.4810 0.7556 0.4446
vn -0.1940 0.6782 -0.7088
vn -0.2230 0.2317 -0.9469
vn -0.2752 0.8302 0.4848
vn -0.1833 0.9732 -0.1387
vn -0.0880 0.9898 -0.1116
vn -0.0598 0.9972 -0.0439
vn -0.0013 0.9987 -0.0507
vn 0.1319 0.9912 0.0112
vn 0.1563 0.9313 -0.3291
vn 0.4182 0.8753 0.2427
vn -0.2564 0.9665 -0.0069
vn 0.7830 0.5855 -0.2098
vn 0.2955 0.9024 -0.3137
vn -0.2091 0.8566 0.4716
vn 0.2857 0.9574 -0.0426
vn 0.0380 0.8080 -0.5880
vn -0.3682 0.7482 0.5518
vn 0.0627 0.6168 -0.7846
vn 0.4771 0.7901 0.3848
vn -0.4653 0.8766 0.1226
vn 0.1192 0.6860 -0.7177
vn -0.1370 0.8651 -0.4826
vn 0.4137 0.7240 0.5520
vn -0.4122 0.8296 -0.3766
vn 0.6521 0.7577 -0.0266
vn 0.4608 0.7950 0.3946
vn -0.1372 0.9452 -0.2962
vn -0.0187 0.9973 -0.0709
vn -0.2941 0.9498 -0.1066
vn -0.8672 0.0842 -0.4909
vn 0.3737 0.7580 -0.5346
vn 0.4669 0.7322 -0.4959
vn -0.0060 0.6436 -0.7654
vn -0.0539 0.4971 -0.8660
vn -0.3744 0.9272 0.0033
vn 0.1302 0.9180 0.3745
vn 0.1394 0.9668 -0.2140
vn -0.3323 0.7838 0.5247
vn -0.3437 0.8133 -0.4695
vn 0.2145 0.8168 -0.5356
vn -0.2055 0.8672 -0.4536
vn -0.5391 0.8422 0.0093
vn 0.3788 0.6182 0.6887
vn 0.1155 0.8671 0.4845
vn 0.5534 0.6748 -0.4883
vn 0.4571 0.7807 -0.4262
vn -0.3698 0.7983 -0.4754
vn -0.3008 0.7096 0.6372
vn 0.2809 0.9047 0.3202
vn -0.2761 0.9244 -0.2633
vn 0.0809 0.9476 -0.3090
vn -0.1557 0.9514 -0.2658
vn 0.0863 0.9766 -0.1968
vn -0.0247 0.7337 -0.6790
vn 0.7317 0.6749 -0.0951
vn 0.2604 0.8102 0.5251
vn -0.2246 0.7213 -0.6552
vn 0.1996 0.8756 -0.4398
vn 0.1582 0.8976 -0.4114
vn 0.3777 0.8311 -0.4082
vn 0.0928 0.9908 0.0981
vn 0.1819 0.9190 0.3498
vn 0.4938 0.8646 0.0928
s 1
usemtl Liquid_Domain_Material
f 1//1 2//2 10//10
f 2//2 3//3 10//10
f 4//4 2//2 5//5
f 3//3 2//2 4//4
f 4//4 5//5 6//6
f 7//7 4//4 6//6
f 2//2 67//67 5//5
f 8//8 10//10 3//3
f 11//11 4//4 7//7
f 1//1 9//9 2//2
f 22//22 10//10 8//8
f 5//5 67//67 6//6
f 7//7 6//6 18//18
f 18//18 11//11 7//7
f 10//10 14//14 1//1
f 3//3 4//4 11//11
f 2//2 12//12 67//67
f 1//1 13//13 9//9
f 3//3 11//11 15//15
f 2//2 9//9 12//12
f 6//6 67//67 16//16
f 6//6 16//16 17//17
f 14//14 10//10 21//21
f 1//1 14//14 13//13
f 14//14 33//33 13//13
f 14//14 20//20 33//33
f 14//14 21//21 20//20
f 10//10 22//22 21//21
f 17//17 16//16 23//23
f 16//16 19//19 23//23
f 18//18 6//6 24//24
f 6//6 55//55 24//24
f 12//12 25//25 67//67
f 26//26 28//28 50//50
f 28//28 29//29 50//50
f 37//37 28//28 26//26
f 29//29 30//30 27//27
f 28//28 30//30 29//29
f 31//31 16//16 67//67
f 6//6 17//17 55//55
f 33//33 20//20 34//34
f 36//36 26//26 50//50
f 37//37 26//26 36//36
f 70//70 27//27 52//52
f 27//27 68//68 29//29
f 27//27 30//30 52//52
f 28//28 54//54 30//30
f 16//16 31//31 82//82
f 16//16 82//82 19//19
f 23//23 53//53 32//32
f 23//23 32//32 84//84
f 17//17 23//23 39//39
f 40//40 20//20 21//21
f 22//22 85//85 21//21
f 20//20 40//40 34//34
f 34//34 86//86 33//33
f 40//40 41//41 34//34
f 41//41 35//35 34//34
f 88//88 34//34 44//44
f 34//34 35//35 44//44
f 41//41 42//42 43//43
f 3//3 15//15 8//8
f 46//46 47//47 45//45
f 44//44 47//47 46//46
f 48//48 65//65 43//43
f 44//44 36//36 47//47
f 36//36 50//50 47//47
f 65//65 36//36 44//44
f 65//65 48//48 36//36
f 36//36 48//48 72//72
f 36//36 51//51 37//37
f 70//70 52//52 69//69
f 70//70 71//71 27//27
f 27//27 71//71 68//68
f 50//50 29//29 68//68
f 28//28 37//37 54//54
f 30//30 53//53 52//52
f 32//32 53//53 30//30
f 32//32 30//30 54//54
f 19//19 82//82 53//53
f 11//11 18//18 24//24
f 53//53 23//23 19//19
f 23//23 84//84 39//39
f 17//17 39//39 94//94
f 33//33 56//56 13//13
f 21//21 57//57 40//40
f 56//56 33//33 86//86
f 59//59 41//41 40//40
f 60//60 63//63 58//58
f 58//58 64//64 60//60
f 59//59 42//42 41//41
f 61//61 42//42 59//59
f 65//65 35//35 41//41
f 43//43 65//65 41//41
f 45//45 60//60 64//64
f 64//64 88//88 45//45
f 88//88 46//46 45//45
f 44//44 46//46 88//88
f 8//8 15//15 62//62
f 65//65 44//44 35//35
f 66//66 43//43 42//42
f 45//45 47//47 60//60
f 43//43 66//66 48//48
f 15//15 49//49 62//62
f 72//72 48//48 66//66
f 68//68 47//47 50//50
f 72//72 51//51 36//36
f 73//73 81//81 72//72
f 74//74 73//73 72//72
f 67//67 25//25 38//38
f 75//75 37//37 51//51
f 74//74 49//49 15//15
f 54//54 37//37 75//75
f 74//74 15//15 83//83
f 52//52 53//53 82//82
f 11//11 83//83 15//15
f 67//67 38//38 31//31
f 84//84 32//32 54//54
f 83//83 11//11 24//24
f 55//55 17//17 94//94
f 59//59 40//40 57//57
f 76//76 59//59 57//57
f 64//64 58//58 78//78
f 86//86 34//34 88//88
f 42//42 61//61 66//66
f 61//61 79//79 66//66
f 80//80 63//63 60//60
f 79//79 72//72 66//66
f 47//47 80//80 60//60
f 70//70 69//69 91//91
f 72//72 81//81 51//51
f 69//69 52//52 82//82
f 75//75 51//51 81//81
f 74//74 83//83 73//73
f 54//54 75//75 84//84
f 57//57 21//21 85//85
f 56//56 86//86 78//78
f 61//61 59//59 76//76
f 61//61 76//76 87//87
f 86//86 88//88 78//78
f 64//64 78//78 88//88
f 58//58 63//63 98//98
f 61//61 87//87 79//79
f 79//79 89//89 72//72
f 68//68 100//100 47//47
f 72//72 89//89 74//74
f 70//70 91//91 71//71
f 49//49 74//74 89//89
f 92//92 90//90 69//69
f 82//82 92//92 69//69
f 73//73 93//93 81//81
f 82//82 38//38 92//92
f 31//31 38//38 82//82
f 84//84 94//94 39//39
f 24//24 55//55 97//97
f 24//24 97//97 83//83
f 95//95 13//13 56//56
f 58//58 77//77 95//95
f 56//56 78//78 95//95
f 85//85 76//76 57//57
f 78//78 58//58 95//95
f 77//77 58//58 98//98
f 63//63 99//99 98//98
f 63//63 80//80 99//99
f 87//87 89//89 79//79
f 47//47 100//100 80//80
f 96//96 69//69 90//90
f 69//69 96//96 91//91
f 68//68 71//71 91//91
f 75//75 81//81 93//93
f 73//73 97//97 93//93
f 75//75 94//94 84//84
f 97//97 73//73 83//83
f 85//85 22//22 8//8
f 13//13 95//95 9//9
f 95//95 77//77 9//9
f 8//8 87//87 85//85
f 87//87 76//76 85//85
f 77//77 98//98 9//9
f 9//9 98//98 12//12
f 12//12 98//98 25//25
f 8//8 62//62 87//87
f 62//62 89//89 87//87
f 98//98 90//90 25//25
f 98//98 99//99 90//90
f 80//80 100//100 99//99
f 62//62 49//49 89//89
f 99//99 96//96 90//90
f 100//100 96//96 99//99
f 100//100 91//91 96//96
f 68//68 91//91 100//100
f 90//90 38//38 25//25
f 92//92 38//38 90//90
f 93//93 94//94 75//75
f 55//55 94//94 93//93
f 97//97 55//55 93//93
