# Blender 4.1.1
# www.blender.org
mtllib aa0549.mtl
o Liquid_Domain
v -8.134167 -8.755833 6.217273
v -8.459149 -9.100116 5.875869
v 8.134167 -8.755833 6.217273
v 8.480829 -9.101592 5.867634
v 8.479267 -9.101085 -5.868550
v -8.484392 -9.102805 -5.864439
v -8.134167 -8.755833 -6.217273
v 8.134167 -8.755833 -6.217273
v 4.443787 6.622740 -6.216077
v 8.475171 3.446533 -5.850747
v 8.240962 3.981108 -6.211150
v 8.385142 6.874629 6.141616
v -8.365992 2.739863 -6.147921
v -0.131397 4.068386 6.197601
v 8.473093 6.566806 -1.003728
v -4.908231 2.692220 -6.200696
v -8.120510 6.668859 6.193798
v -8.475498 5.978419 2.994623
v 2.700686 4.925885 6.206485
v -8.423870 4.311210 -4.659496
v -6.767053 3.948263 -6.124676
v 7.130845 5.557763 -6.053675
v -3.227732 5.856270 6.187171
v -2.379585 3.850596 -3.020403
v -7.180608 4.897219 -5.575846
v -5.216462 4.420331 -5.144802
v -2.414542 4.627414 -6.092791
v 0.750370 6.407916 -6.140378
v -3.977258 4.772808 -2.127212
v -3.650862 4.373981 -4.450595
v -1.093220 4.709503 -3.100034
v -0.467596 4.939173 -3.827704
v -3.825971 4.533249 -5.300306
v 0.255501 4.731875 5.212843
v 0.450409 4.235518 -2.864057
v 2.163705 4.864996 -1.691547
v 2.095325 5.587348 -3.664609
v -8.014832 5.199342 -5.334151
v -1.920297 5.402935 5.697585
v 5.576808 7.009251 6.095476
v 4.183808 4.615878 2.979075
v 2.302202 5.025941 3.674758
v 6.539058 5.394207 3.755427
v 1.072425 5.000913 2.434340
v 3.637061 5.476476 0.850925
v 4.561018 4.966169 -1.671215
v -8.403444 5.950381 -1.474296
v -2.688441 5.483119 -2.158687
v 3.875626 5.547410 -2.613415
v -5.806535 5.597353 -3.590867
v 8.081613 5.587664 -3.406106
v -1.620113 5.457428 -4.813787
v -8.437262 6.889691 5.969246
v 1.826712 6.127254 5.776535
v 3.812082 5.893219 5.719433
v 0.655225 4.587790 4.280943
v 5.087091 6.324468 4.777130
v 7.179243 6.638804 3.988291
v -8.412467 7.068928 2.600309
v 6.401969 5.762264 1.780692
v 5.021644 5.727525 1.414164
v 8.375343 6.902929 0.865457
v 0.365153 5.401865 1.448248
v -0.375950 5.514126 -0.237861
v -6.952400 5.624210 -0.440215
v 5.560415 5.423274 -2.665710
v -4.781146 5.633180 -0.926017
v 6.846966 5.622004 -3.384545
v 3.584979 5.758616 -3.599732
v 5.204062 5.296438 -4.140171
v 7.425512 5.509549 -4.752393
v -7.298731 5.704762 -4.088519
v -6.107244 5.575196 4.355626
v -0.639946 6.206092 2.484947
v -1.445243 5.785342 -0.196878
v 7.431068 6.402661 -2.758822
v -8.264762 6.924069 -5.557127
v 0.407981 6.725154 -5.091920
v -5.754455 6.844676 5.805214
v -5.139060 6.599938 3.020821
v -6.417178 6.772844 2.599485
v -2.484217 5.747815 1.246755
v 7.416885 7.008550 -0.508907
v -7.204215 5.229585 -1.146580
v -8.052435 6.391774 -1.297248
v -2.989359 6.682638 -1.238983
v -7.714796 6.768118 -4.773948
v 3.532641 6.891784 -4.023641
v 5.590133 6.550370 -5.834729
v -3.548481 7.059938 5.817255
v -7.972973 6.890009 4.298657
v -2.661251 6.387802 3.733531
v -3.358922 6.549602 2.237832
v -2.371802 6.987829 -0.307495
v 0.887125 7.055796 -5.746790
v 5.682915 6.953072 -5.864973
v 8.039372 7.056009 3.843785
v -8.128739 6.967521 0.406770
v -3.956020 6.890687 1.729173
v -6.931773 7.053589 1.381437
v -5.217949 6.960907 0.024411
vn -0.2873 -0.2833 0.9150
vn -0.6207 -0.6529 0.4341
vn 0.2786 -0.2880 0.9162
vn 0.6219 -0.6515 0.4345
vn 0.6219 -0.6503 -0.4363
vn -0.6226 -0.6518 -0.4330
vn -0.2778 -0.2896 -0.9159
vn 0.2825 -0.2861 -0.9156
vn 0.0418 0.3650 -0.9301
vn 0.9557 0.1007 -0.2767
vn 0.5314 0.2264 -0.8163
vn 0.5112 0.4981 0.7004
vn -0.5768 0.1375 -0.8053
vn -0.0051 0.2718 0.9623
vn 0.7833 0.6008 -0.1596
vn -0.0103 0.1789 -0.9838
vn -0.2009 0.3172 0.9268
vn -0.9950 0.0834 0.0551
vn -0.0295 0.1801 0.9832
vn -0.9595 0.0704 -0.2727
vn 0.0316 0.3548 -0.9344
vn 0.4693 0.5500 -0.6909
vn 0.1597 0.2347 0.9589
vn -0.1420 0.9299 -0.3392
vn -0.0672 0.6179 -0.7834
vn 0.1769 0.7458 -0.6423
vn -0.2896 0.4711 -0.8332
vn -0.2178 0.3983 -0.8910
vn -0.0067 0.8753 -0.4835
vn 0.0114 0.9935 0.1131
vn -0.1214 0.9045 -0.4088
vn -0.2062 0.7679 0.6065
vn -0.3380 0.8676 -0.3647
vn -0.1863 0.9789 0.0840
vn -0.0481 0.9879 0.1477
vn -0.1182 0.9929 0.0103
vn -0.2596 0.7092 0.6555
vn -0.2028 0.0210 -0.9790
vn 0.4904 0.7707 0.4068
vn -0.2202 0.7290 0.6481
vn -0.0575 0.9983 0.0002
vn -0.1155 0.9706 -0.2113
vn -0.5334 0.7363 -0.4163
vn 0.2370 0.9626 0.1315
vn -0.1391 0.9902 -0.0121
vn -0.2119 0.9729 0.0927
vn -0.9494 0.3138 -0.0156
vn -0.2787 0.5122 -0.8124
vn -0.0251 0.9305 0.3655
vn 0.2439 0.9631 -0.1138
vn 0.5182 0.7467 -0.4170
vn -0.3550 0.7464 0.5629
vn -0.6075 0.6397 0.4709
vn -0.2207 0.8791 0.4224
vn -0.3560 0.9324 0.0626
vn -0.0007 0.9996 -0.0285
vn -0.3721 0.7862 -0.4934
vn -0.5551 0.7472 -0.3654
vn -0.6292 0.7705 0.1022
vn -0.5205 0.8455 0.1195
vn -0.1709 0.9647 0.2002
vn 0.6507 0.7586 -0.0323
vn 0.5268 0.8130 -0.2482
vn 0.2739 0.9608 -0.0439
vn 0.1074 0.7651 -0.6349
vn -0.0898 0.9952 0.0400
vn -0.2747 0.6011 -0.7505
vn -0.1859 0.9539 -0.2355
vn 0.1504 0.8062 0.5722
vn 0.1704 0.9434 0.2844
vn 0.4373 0.8964 -0.0727
vn 0.6390 0.7270 -0.2515
vn -0.0956 0.9802 -0.1734
vn 0.3468 0.9375 -0.0292
vn 0.4160 0.8651 0.2803
vn -0.1344 0.8912 -0.4333
vn -0.1440 0.4990 -0.8546
vn -0.3965 0.8631 0.3128
vn 0.0122 0.9098 0.4150
vn -0.0525 0.9871 0.1509
vn 0.1306 0.9497 0.2847
vn 0.4317 0.9020 -0.0004
vn -0.3468 0.9221 -0.1716
vn 0.4325 0.8820 -0.1870
vn 0.0498 0.9940 -0.0973
vn -0.0136 0.7805 -0.6250
vn 0.7041 0.6747 -0.2214
vn 0.1917 0.6779 0.7097
vn 0.7260 0.6241 -0.2887
vn 0.2365 0.7891 0.5669
vn -0.2148 0.9729 -0.0860
vn 0.2930 0.9521 0.0873
vn 0.2298 0.9730 -0.0213
vn 0.5040 0.8565 -0.1116
vn -0.3796 0.8331 -0.4024
vn 0.8085 0.4988 -0.3124
vn 0.0482 0.9980 -0.0420
vn -0.2668 0.8882 -0.3740
vn 0.2576 0.9352 0.2430
vn 0.0234 0.9936 -0.1109
vn -0.2095 0.8401 -0.5004
s 1
usemtl Liquid_Domain_Material
f 2//2 4//4 1//1
f 1//1 4//4 3//3
f 4//4 2//2 5//5
f 5//5 2//2 6//6
f 5//5 6//6 7//7
f 8//8 5//5 7//7
f 8//8 7//7 9//9
f 7//7 6//6 13//13
f 8//8 9//9 11//11
f 10//10 5//5 8//8
f 2//2 1//1 53//53
f 2//2 53//53 6//6
f 9//9 7//7 16//16
f 12//12 3//3 4//4
f 11//11 10//10 8//8
f 1//1 3//3 14//14
f 4//4 5//5 15//15
f 3//3 19//19 14//14
f 7//7 13//13 16//16
f 1//1 17//17 53//53
f 15//15 5//5 10//10
f 3//3 12//12 19//19
f 16//16 13//13 21//21
f 14//14 23//23 1//1
f 18//18 20//20 6//6
f 20//20 13//13 6//6
f 9//9 22//22 11//11
f 13//13 20//20 25//25
f 21//21 26//26 16//16
f 33//33 16//16 26//26
f 16//16 33//33 27//27
f 13//13 25//25 21//21
f 16//16 27//27 28//28
f 16//16 28//28 9//9
f 12//12 4//4 15//15
f 24//24 30//30 29//29
f 31//31 32//32 24//24
f 30//30 24//24 32//32
f 1//1 23//23 17//17
f 53//53 18//18 6//6
f 37//37 35//35 36//36
f 24//24 48//48 31//31
f 30//30 50//50 29//29
f 35//35 32//32 31//31
f 37//37 32//32 35//35
f 50//50 30//30 26//26
f 30//30 33//33 26//26
f 51//51 10//10 11//11
f 25//25 20//20 38//38
f 26//26 21//21 25//25
f 14//14 39//39 23//23
f 14//14 34//34 39//39
f 43//43 41//41 57//57
f 56//56 45//45 44//44
f 42//42 45//45 56//56
f 45//45 42//42 41//41
f 63//63 44//44 64//64
f 45//45 36//36 44//44
f 36//36 64//64 44//44
f 46//46 36//36 45//45
f 36//36 35//35 64//64
f 46//46 49//49 36//36
f 47//47 20//20 18//18
f 24//24 29//29 48//48
f 49//49 37//37 36//36
f 15//15 10//10 51//51
f 32//32 52//52 30//30
f 50//50 26//26 25//25
f 33//33 30//30 52//52
f 38//38 72//72 25//25
f 11//11 71//71 51//51
f 71//71 11//11 22//22
f 28//28 27//27 33//33
f 19//19 54//54 14//14
f 19//19 55//55 54//54
f 34//34 14//14 54//54
f 34//34 54//54 56//56
f 92//92 39//39 56//56
f 42//42 56//56 54//54
f 55//55 41//41 54//54
f 41//41 42//42 54//54
f 55//55 57//57 41//41
f 34//34 56//56 39//39
f 56//56 44//44 74//74
f 41//41 43//43 60//60
f 63//63 74//74 44//44
f 61//61 41//41 60//60
f 45//45 41//41 61//61
f 64//64 82//82 63//63
f 18//18 59//59 47//47
f 64//64 75//75 82//82
f 46//46 45//45 61//61
f 66//66 46//46 61//61
f 29//29 84//84 65//65
f 67//67 29//29 65//65
f 67//67 48//48 29//29
f 48//48 86//86 31//31
f 84//84 29//29 50//50
f 46//46 66//66 49//49
f 69//69 37//37 49//49
f 66//66 69//69 49//49
f 68//68 70//70 66//66
f 66//66 70//70 69//69
f 68//68 71//71 70//70
f 50//50 25//25 72//72
f 51//51 71//71 68//68
f 32//32 78//78 52//52
f 20//20 77//77 38//38
f 78//78 33//33 52//52
f 28//28 33//33 78//78
f 92//92 56//56 74//74
f 12//12 15//15 62//62
f 60//60 43//43 58//58
f 60//60 66//66 61//61
f 60//60 68//68 66//66
f 67//67 86//86 48//48
f 64//64 35//35 86//86
f 68//68 60//60 76//76
f 31//31 86//86 35//35
f 50//50 72//72 84//84
f 68//68 76//76 51//51
f 47//47 77//77 20//20
f 37//37 78//78 32//32
f 70//70 89//89 69//69
f 70//70 71//71 89//89
f 71//71 22//22 89//89
f 23//23 39//39 90//90
f 19//19 40//40 55//55
f 12//12 40//40 19//19
f 73//73 79//79 80//80
f 92//92 90//90 39//39
f 81//81 91//91 73//73
f 80//80 81//81 73//73
f 93//93 74//74 63//63
f 99//99 93//93 82//82
f 63//63 82//82 93//93
f 82//82 75//75 94//94
f 101//101 67//67 65//65
f 83//83 76//76 60//60
f 94//94 75//75 86//86
f 75//75 64//64 86//86
f 87//87 85//85 84//84
f 76//76 15//15 51//51
f 84//84 72//72 87//87
f 69//69 88//88 37//37
f 72//72 38//38 87//87
f 89//89 88//88 69//69
f 87//87 38//38 77//77
f 22//22 9//9 89//89
f 23//23 79//79 17//17
f 23//23 90//90 79//79
f 57//57 55//55 40//40
f 53//53 91//91 18//18
f 79//79 73//73 91//91
f 43//43 57//57 58//58
f 92//92 93//93 80//80
f 91//91 59//59 18//18
f 81//81 80//80 93//93
f 74//74 93//93 92//92
f 58//58 83//83 60//60
f 94//94 99//99 82//82
f 59//59 98//98 47//47
f 100//100 84//84 98//98
f 65//65 84//84 100//100
f 65//65 100//100 101//101
f 84//84 85//85 98//98
f 86//86 67//67 101//101
f 47//47 98//98 85//85
f 83//83 15//15 76//76
f 85//85 77//77 47//47
f 88//88 78//78 37//37
f 78//78 95//95 28//28
f 89//89 9//9 96//96
f 53//53 17//17 79//79
f 79//79 91//91 53//53
f 90//90 80//80 79//79
f 12//12 97//97 40//40
f 58//58 57//57 40//40
f 97//97 58//58 40//40
f 92//92 80//80 90//90
f 81//81 59//59 91//91
f 100//100 59//59 81//81
f 99//99 100//100 81//81
f 81//81 93//93 99//99
f 97//97 83//83 58//58
f 12//12 62//62 97//97
f 59//59 100//100 98//98
f 94//94 100//100 99//99
f 97//97 62//62 83//83
f 94//94 101//101 100//100
f 62//62 15//15 83//83
f 94//94 86//86 101//101
f 85//85 87//87 77//77
f 78//78 88//88 95//95
f 88//88 96//96 95//95
f 88//88 89//89 96//96
f 9//9 28//28 95//95
f 96//96 9//9 95//95
