# Blender 4.1.1
# www.blender.org
mtllib aa0567.mtl
o Liquid_Domain
v -8.134167 -8.755833 6.217273
v -8.487272 -8.755834 5.864167
v -8.134167 -9.108939 5.864167
v 8.134167 -8.755833 6.217273
v 8.484724 -9.104101 5.863021
v 8.437458 -8.783590 -6.214366
v 8.134167 -9.108939 -5.864167
v -8.480661 -9.103164 -5.867190
v -8.134167 -8.755833 -6.217273
v 8.484807 3.547733 -5.860400
v 8.442086 6.918045 5.889022
v -8.461354 3.402060 -6.172527
v -8.451079 6.681982 -1.100524
v -8.457261 6.722734 5.831065
v -2.987200 3.859360 -6.213777
v 1.071091 6.446991 -6.200172
v 8.108610 4.053185 -6.197239
v 8.131216 6.644186 6.211751
v -5.309749 3.807684 -6.100507
v -8.388473 5.908942 4.800343
v -8.050120 5.871397 6.208755
v -8.075725 4.310523 -6.168606
v -7.358637 4.390182 -5.806269
v 6.333147 4.777577 -6.202274
v -1.603678 3.735745 -3.632954
v 8.460902 6.827745 -3.616823
v -0.498963 4.899442 -2.400084
v -2.447245 3.962792 -2.289835
v -3.032648 4.146780 -3.914773
v -5.664327 4.494211 -5.029027
v -0.836363 7.027107 6.165094
v 3.751171 4.773277 2.875682
v 4.427983 4.861828 1.250751
v -4.425754 5.679302 -1.660422
v 0.562126 4.486047 -3.065998
v -7.078774 5.697811 -2.198621
v -6.837605 4.451973 -3.412688
v 1.772830 5.272142 -4.033925
v -7.268741 4.979969 -4.680289
v -0.544960 5.824758 -4.555992
v -2.908490 5.163222 -5.373389
v 7.349558 5.445838 -5.727085
v 3.668432 5.506369 6.193974
v 2.693550 4.924287 2.344274
v 5.705215 5.078094 -1.446552
v 3.388435 4.967121 -2.159333
v 5.015642 5.312087 -3.898178
v 3.066224 5.384151 -4.852913
v 4.440483 5.716410 -4.911262
v 6.706380 5.469987 -5.009959
v 6.274079 4.742330 -4.465716
v 6.459806 5.494821 -5.769936
v -1.020024 6.590693 -6.149887
v 5.716475 6.733652 -6.097906
v 2.064011 7.058489 6.077185
v 4.281811 5.573904 4.059645
v 6.575781 5.656712 3.844941
v 4.950737 5.721200 2.272787
v -6.242842 5.577242 1.988578
v -2.821950 5.519591 -0.998208
v 1.454263 6.699979 -4.695642
v -8.290457 7.027614 -5.450181
v -6.967384 5.902654 4.726206
v 1.672670 6.613832 4.249389
v -7.977973 6.211911 3.294063
v -7.216802 5.171007 2.252502
v 1.580347 5.801877 3.307161
v -8.252563 6.770703 2.629132
v 6.377086 5.905354 1.616214
v -7.581749 6.795558 0.255412
v -4.488550 5.916759 0.235049
v 8.343870 7.006201 -1.660266
v 3.097283 5.890607 -0.511055
v 0.768699 5.841464 -1.327380
v 7.365862 6.915233 -3.600972
v 2.777438 6.484910 -5.791226
v -7.113821 6.793040 -5.161601
v 3.595915 6.349776 5.733116
v 5.684340 6.740589 6.160466
v -5.164931 6.426200 5.027250
v 0.414282 6.027052 3.997361
v -4.271754 6.937285 1.136983
v 7.396909 6.765003 2.369851
v 0.129858 6.334310 1.230888
v 2.458777 5.934978 0.586453
v -6.566017 6.305206 -0.524297
v 7.926522 6.876161 -4.480073
v -1.714455 6.823251 -5.590308
v 5.607692 6.833390 -5.388885
v -6.769098 6.889001 5.822247
v -4.997337 6.977507 5.856871
v 0.372275 6.828525 5.730935
v 5.294416 7.148201 5.518197
v -1.254098 7.006392 3.469598
v 7.075819 6.955195 4.714883
v 1.642006 6.344406 2.079893
v -7.618668 6.825023 -2.342707
v 8.064314 6.953549 2.144156
v -1.026768 6.939000 0.814798
v -8.107855 7.006923 -0.537007
v -1.942700 7.061308 -0.337575
v 0.695120 7.122674 -5.850265
vn -0.3106 -0.3152 0.8967
vn -0.8641 -0.3381 0.3728
vn -0.3319 -0.8677 0.3702
vn 0.2822 -0.2870 0.9154
vn 0.6229 -0.6503 0.4348
vn 0.5351 -0.3664 -0.7612
vn 0.3087 -0.9034 -0.2975
vn -0.6212 -0.6532 -0.4330
vn -0.2759 -0.2898 -0.9164
vn 0.9001 0.0882 -0.4267
vn 0.6406 0.6408 0.4230
vn -0.5622 0.0790 -0.8232
vn -0.8520 0.5175 -0.0795
vn -0.6079 0.7338 0.3033
vn -0.0879 0.1976 -0.9763
vn 0.0509 0.2801 -0.9586
vn 0.4121 0.2026 -0.8884
vn 0.2876 0.3060 0.9075
vn -0.0554 0.6439 -0.7631
vn -0.7249 0.6215 -0.2971
vn -0.2912 0.1370 0.9468
vn 0.0587 0.0931 -0.9939
vn 0.3257 0.4169 -0.8486
vn 0.1107 0.1566 -0.9814
vn -0.1537 0.9024 0.4026
vn 0.7275 0.6740 -0.1283
vn -0.1655 0.7372 -0.6551
vn -0.0460 0.8425 -0.5367
vn -0.0346 0.8969 0.4408
vn 0.0532 0.9827 -0.1771
vn 0.0340 0.6403 0.7674
vn -0.0468 0.9661 -0.2538
vn -0.2344 0.9644 -0.1226
vn 0.2078 0.7918 -0.5743
vn -0.1431 0.9888 0.0416
vn 0.6703 0.6163 -0.4133
vn 0.5461 0.8065 -0.2267
vn 0.4578 0.3844 0.8016
vn 0.8716 0.4829 -0.0845
vn -0.2194 0.5778 0.7861
vn -0.5922 0.7685 -0.2424
vn 0.1418 0.6508 -0.7458
vn 0.0135 0.1645 0.9863
vn 0.4628 0.8864 0.0133
vn -0.4142 0.9102 -0.0018
vn 0.0262 0.9967 -0.0768
vn 0.2639 0.9543 0.1405
vn 0.0122 0.8127 0.5826
vn 0.0954 0.7052 0.7025
vn -0.6824 0.7240 -0.1006
vn -0.2770 0.9529 0.1235
vn 0.4957 0.8259 -0.2687
vn -0.2048 0.4201 -0.8841
vn 0.3555 0.6257 -0.6944
vn 0.1602 0.7631 0.6261
vn 0.0267 0.8207 -0.5707
vn -0.4945 0.8058 -0.3257
vn -0.4099 0.9114 -0.0359
vn -0.3999 0.9164 0.0167
vn -0.1330 0.7185 -0.6827
vn 0.2254 0.7326 0.6423
vn -0.3783 0.6525 -0.6566
vn -0.1225 0.8916 -0.4359
vn 0.0232 0.8794 -0.4754
vn 0.7920 0.5337 0.2963
vn 0.2740 0.9556 0.1087
vn 0.3534 0.9168 -0.1862
vn -0.2030 0.9411 0.2703
vn -0.4875 0.8685 -0.0894
vn 0.4870 0.8523 0.1907
vn -0.1737 0.9250 -0.3379
vn 0.3865 0.9223 0.0040
vn 0.6627 0.7476 -0.0441
vn 0.1158 0.8622 -0.4932
vn -0.4504 0.8806 -0.1469
vn 0.0825 0.9295 0.3594
vn 0.6936 0.5511 -0.4639
vn 0.1316 0.9001 0.4154
vn -0.1094 0.4780 0.8715
vn -0.5140 0.7880 -0.3390
vn 0.2078 0.9575 -0.2001
vn -0.3993 0.8627 -0.3103
vn -0.5264 0.8499 -0.0242
vn 0.4526 0.8250 -0.3386
vn 0.4306 0.8962 0.1072
vn 0.3465 0.9381 -0.0015
vn 0.1597 0.8095 -0.5650
vn -0.5426 0.8378 -0.0603
vn 0.3580 0.6918 0.6270
vn -0.0934 0.9486 0.3024
vn -0.1421 0.8836 0.4463
vn 0.0345 0.9498 -0.3110
vn -0.2639 0.9645 0.0125
vn 0.5077 0.8607 -0.0389
vn -0.1923 0.9380 -0.2884
vn 0.4932 0.8628 0.1109
vn 0.4479 0.8941 -0.0063
vn -0.1445 0.9894 -0.0130
vn 0.2469 0.9657 -0.0799
vn -0.1992 0.9799 -0.0071
vn -0.0972 0.8629 -0.4959
vn 0.0629 0.9152 -0.3980
s 1
usemtl Liquid_Domain_Material
f 3//3 1//1 2//2
f 1//1 3//3 4//4
f 3//3 5//5 4//4
f 5//5 3//3 8//8
f 6//6 5//5 7//7
f 8//8 3//3 2//2
f 5//5 8//8 7//7
f 7//7 8//8 9//9
f 6//6 7//7 9//9
f 5//5 6//6 10//10
f 11//11 4//4 5//5
f 6//6 9//9 15//15
f 17//17 10//10 6//6
f 18//18 4//4 11//11
f 2//2 12//12 8//8
f 8//8 12//12 9//9
f 2//2 13//13 12//12
f 5//5 10//10 26//26
f 9//9 12//12 15//15
f 6//6 15//15 24//24
f 2//2 1//1 14//14
f 4//4 21//21 1//1
f 6//6 24//24 17//17
f 15//15 12//12 19//19
f 4//4 43//43 21//21
f 4//4 18//18 43//43
f 14//14 20//20 2//2
f 20//20 13//13 2//2
f 1//1 21//21 14//14
f 12//12 22//22 23//23
f 12//12 23//23 19//19
f 16//16 15//15 53//53
f 25//25 29//29 28//28
f 21//21 43//43 31//31
f 11//11 5//5 26//26
f 27//27 25//25 28//28
f 35//35 25//25 27//27
f 28//28 29//29 37//37
f 29//29 30//30 37//37
f 23//23 30//30 19//19
f 15//15 19//19 41//41
f 15//15 16//16 24//24
f 36//36 34//34 28//28
f 28//28 37//37 36//36
f 39//39 37//37 30//30
f 25//25 40//40 29//29
f 30//30 29//29 41//41
f 30//30 23//23 39//39
f 17//17 26//26 10//10
f 19//19 30//30 41//41
f 17//17 24//24 42//42
f 67//67 56//56 32//32
f 32//32 44//44 67//67
f 44//44 32//32 33//33
f 46//46 73//73 44//44
f 33//33 46//46 44//44
f 33//33 45//45 46//46
f 34//34 60//60 28//28
f 28//28 60//60 27//27
f 74//74 46//46 35//35
f 45//45 47//47 46//46
f 35//35 27//27 74//74
f 38//38 35//35 48//48
f 35//35 46//46 48//48
f 51//51 47//47 45//45
f 36//36 37//37 39//39
f 40//40 25//25 35//35
f 47//47 49//49 46//46
f 49//49 48//48 46//46
f 52//52 51//51 50//50
f 41//41 53//53 15//15
f 24//24 16//16 54//54
f 24//24 52//52 42//42
f 43//43 55//55 31//31
f 18//18 79//79 43//43
f 57//57 32//32 56//56
f 59//59 66//66 63//63
f 56//56 67//67 64//64
f 57//57 58//58 32//32
f 32//32 58//58 33//33
f 69//69 33//33 58//58
f 85//85 44//44 73//73
f 45//45 33//33 69//69
f 74//74 73//73 46//46
f 36//36 39//39 77//77
f 61//61 40//40 35//35
f 38//38 61//61 35//35
f 47//47 51//51 49//49
f 51//51 52//52 49//49
f 42//42 52//52 50//50
f 12//12 62//62 22//22
f 53//53 41//41 88//88
f 64//64 78//78 56//56
f 65//65 20//20 66//66
f 63//63 66//66 20//20
f 65//65 68//68 20//20
f 58//58 57//57 69//69
f 96//96 67//67 44//44
f 68//68 13//13 20//20
f 96//96 44//44 85//85
f 59//59 86//86 66//66
f 71//71 86//86 59//59
f 11//11 26//26 72//72
f 60//60 34//34 71//71
f 60//60 101//101 27//27
f 86//86 34//34 36//36
f 45//45 75//75 51//51
f 51//51 75//75 50//50
f 13//13 62//62 12//12
f 29//29 88//88 41//41
f 76//76 38//38 48//48
f 17//17 42//42 87//87
f 23//23 77//77 39//39
f 62//62 77//77 23//23
f 23//23 22//22 62//62
f 24//24 54//54 52//52
f 78//78 93//93 56//56
f 80//80 59//59 63//63
f 80//80 82//82 59//59
f 67//67 94//94 81//81
f 94//94 67//67 96//96
f 57//57 83//83 69//69
f 65//65 66//66 70//70
f 59//59 82//82 71//71
f 96//96 85//85 84//84
f 45//45 69//69 83//83
f 70//70 66//66 86//86
f 99//99 84//84 85//85
f 45//45 83//83 75//75
f 85//85 74//74 99//99
f 73//73 74//74 85//85
f 71//71 34//34 86//86
f 74//74 101//101 99//99
f 101//101 74//74 27//27
f 97//97 86//86 36//36
f 36//36 77//77 97//97
f 50//50 75//75 87//87
f 87//87 26//26 17//17
f 40//40 88//88 29//29
f 76//76 61//61 38//38
f 50//50 87//87 42//42
f 89//89 76//76 48//48
f 49//49 89//89 48//48
f 52//52 89//89 49//49
f 54//54 16//16 76//76
f 90//90 14//14 21//21
f 21//21 91//91 90//90
f 21//21 31//31 91//91
f 55//55 92//92 31//31
f 78//78 55//55 43//43
f 78//78 43//43 93//93
f 93//93 43//43 79//79
f 90//90 63//63 14//14
f 63//63 20//20 14//14
f 80//80 63//63 90//90
f 91//91 80//80 90//90
f 92//92 81//81 94//94
f 64//64 81//81 92//92
f 78//78 64//64 55//55
f 64//64 67//67 81//81
f 57//57 56//56 93//93
f 95//95 57//57 93//93
f 95//95 83//83 57//57
f 70//70 68//68 65//65
f 96//96 84//84 99//99
f 11//11 72//72 98//98
f 71//71 82//82 60//60
f 82//82 101//101 60//60
f 86//86 97//97 70//70
f 40//40 61//61 88//88
f 76//76 102//102 61//61
f 54//54 89//89 52//52
f 102//102 76//76 16//16
f 93//93 79//79 11//11
f 79//79 18//18 11//11
f 11//11 95//95 93//93
f 92//92 94//94 31//31
f 64//64 92//92 55//55
f 91//91 82//82 80//80
f 101//101 82//82 91//91
f 31//31 101//101 91//91
f 94//94 101//101 31//31
f 11//11 98//98 95//95
f 98//98 83//83 95//95
f 96//96 99//99 94//94
f 68//68 100//100 13//13
f 68//68 70//70 100//100
f 99//99 101//101 94//94
f 70//70 97//97 100//100
f 98//98 72//72 83//83
f 72//72 75//75 83//83
f 97//97 13//13 100//100
f 26//26 75//75 72//72
f 97//97 62//62 13//13
f 77//77 62//62 97//97
f 26//26 87//87 75//75
f 61//61 102//102 88//88
f 76//76 89//89 54//54
f 102//102 53//53 88//88
f 16//16 53//53 102//102
