# Blender 4.1.1
# www.blender.org
mtllib aa0557.mtl
o Liquid_Domain
v -8.134167 -8.755833 6.217273
v -8.474741 -9.103271 5.868468
v 8.134167 -8.755833 6.217273
v 8.482076 -9.101687 5.866219
v -8.482745 -9.099922 -5.868117
v 8.478098 -9.100545 -5.868283
v -8.134167 -8.755833 -6.217273
v 8.134167 -8.755833 -6.217273
v -8.126900 6.775711 6.206633
v -8.424903 7.011037 5.886397
v 8.453572 6.687753 5.878047
v 8.480197 3.673438 -5.831200
v -8.457821 4.550035 -6.049693
v 3.799784 4.829255 6.210640
v -3.384448 3.872673 -6.190513
v -6.533983 3.345744 -6.165017
v 8.088490 3.917868 -6.210247
v -0.851696 4.508791 6.183194
v -8.407935 6.436061 0.891465
v -8.424145 6.363099 -2.133984
v 6.407909 5.507834 -6.198235
v 1.679646 6.254615 6.095145
v -4.491725 4.421118 -5.741207
v -2.671839 4.004336 -2.703257
v -3.110383 6.692849 6.185673
v 8.135748 6.942056 6.193678
v -0.779542 4.357648 -3.319415
v -8.424675 5.764912 -4.433461
v -4.153517 4.113918 -3.430831
v 8.385582 6.856007 -2.063400
v -2.107782 4.860970 -4.355964
v -6.430675 4.416352 -5.268178
v -2.302257 5.388896 -5.439682
v -8.033280 5.506945 -5.651327
v 2.077040 6.835793 -6.167492
v 0.052419 5.050995 5.751696
v 4.263698 4.030601 2.916786
v 5.953709 5.449912 4.055991
v 0.279220 4.548646 -3.526500
v 7.430802 5.265175 -5.819305
v -0.032354 6.438230 -6.112216
v 1.669763 4.955820 2.597832
v 2.278880 4.949888 3.163019
v 6.230877 5.531907 1.372231
v 4.130359 5.138932 1.400990
v 2.833695 5.100952 -0.092031
v 2.328894 4.953069 -1.968907
v 4.242803 4.939056 -2.029345
v 1.803676 5.330241 -3.303288
v 3.226340 5.662434 -4.005061
v 4.936222 5.372710 -3.734406
v -5.787132 4.327542 -3.915100
v 5.735168 5.162446 -4.699741
v -1.070958 5.621277 5.841271
v 4.115979 5.968487 5.821759
v 0.457695 5.178855 4.768023
v 6.837106 5.739908 3.664326
v 0.760661 5.821511 0.502945
v -7.395662 5.541879 1.077895
v 4.951816 5.427450 -0.205467
v -6.946925 5.459863 -0.555255
v -5.139881 5.454461 -2.191725
v -3.612305 5.349416 -1.209225
v 0.832150 5.062701 -1.768855
v 6.473059 5.462155 -2.805359
v -7.564546 5.662647 -4.866145
v 7.351780 5.741501 -5.034621
v 1.523780 6.473930 5.248442
v 3.322556 5.796764 4.776844
v 4.783876 5.814229 4.500406
v -1.141917 6.015476 1.183863
v -5.320732 5.695559 0.041955
v -7.326662 6.332535 -1.973358
v -2.758649 6.721139 -0.833310
v 7.133139 6.836154 -0.011880
v 7.435183 5.773956 -4.246027
v -7.970503 6.313517 -3.779354
v 0.175684 6.863279 -5.228225
v 3.853872 6.722168 -5.720510
v 6.777716 6.715300 -5.779946
v 7.095727 6.580034 4.258295
v -8.124043 6.769718 3.076350
v 0.493856 6.234466 2.217952
v -7.198840 6.162434 2.173237
v -0.930583 6.131567 -0.052949
v -1.671461 5.960156 -1.600942
v 2.112747 6.655407 -4.059569
v 2.901270 6.999941 -4.522015
v -8.158447 7.031854 -5.347149
v 5.062515 7.040736 6.014609
v -6.101441 6.563215 4.912162
v -6.573827 6.905008 3.856657
v -1.584557 6.404835 3.665813
v -4.607287 7.010440 0.641329
v -7.970439 7.067113 -1.453974
v 7.604468 6.973697 -2.329869
v -5.576813 6.950961 5.819057
v -1.989396 7.047852 5.854697
v 8.068135 7.051419 3.735785
v -2.633304 7.003462 2.209298
v -1.938465 6.995274 -0.419460
vn -0.2845 -0.2846 0.9154
vn -0.6222 -0.6508 0.4352
vn 0.2820 -0.2868 0.9155
vn 0.6224 -0.6502 0.4358
vn -0.6225 -0.6511 -0.4342
vn 0.6219 -0.6505 -0.4360
vn -0.2772 -0.2883 -0.9166
vn 0.2831 -0.2856 -0.9156
vn -0.2817 0.3486 0.8940
vn -0.6184 0.7051 0.3471
vn 0.8835 0.3487 0.3129
vn 0.8866 0.2124 -0.4110
vn -0.5192 0.2422 -0.8196
vn -0.0107 0.0953 0.9954
vn -0.0733 0.2297 -0.9705
vn 0.0159 0.2169 -0.9761
vn 0.4308 0.2140 -0.8767
vn 0.0419 0.1399 0.9893
vn -0.4815 0.8764 0.0056
vn -0.7360 0.6412 -0.2171
vn 0.1263 0.1885 -0.9739
vn -0.1036 0.6594 0.7446
vn -0.1650 0.8127 -0.5588
vn -0.0796 0.9360 -0.3429
vn 0.0358 0.3596 0.9324
vn 0.3450 0.5430 0.7656
vn -0.1005 0.9948 -0.0145
vn -0.9728 0.2309 -0.0176
vn 0.0942 0.9841 -0.1506
vn 0.7075 0.6773 -0.2018
vn -0.1844 0.8245 0.5350
vn 0.3310 0.8048 -0.4926
vn -0.4689 0.8685 -0.1606
vn -0.1017 0.5741 -0.8125
vn 0.0036 0.5931 -0.8051
vn -0.2361 0.9447 0.2277
vn -0.0291 0.9989 -0.0380
vn -0.3380 0.6927 -0.6371
vn -0.3150 0.8640 0.3928
vn 0.6886 0.4403 -0.5762
vn -0.2303 0.5397 -0.8097
vn 0.2792 0.9514 0.1303
vn 0.1164 0.9710 -0.2086
vn -0.5701 0.8145 0.1070
vn -0.0601 0.9590 0.2769
vn 0.0788 0.9965 -0.0296
vn 0.0563 0.9960 0.0687
vn -0.2328 0.9706 0.0617
vn -0.1830 0.8404 0.5101
vn 0.2661 0.7528 0.6020
vn 0.0593 0.9982 0.0001
vn 0.3740 0.8801 -0.2925
vn 0.0768 0.8557 0.5118
vn 0.5837 0.5622 0.5858
vn -0.4001 0.8111 0.4266
vn -0.0845 0.9896 -0.1164
vn -0.7569 0.6434 -0.1149
vn 0.2816 0.9568 -0.0729
vn 0.2144 0.9291 -0.3014
vn -0.1391 0.9901 -0.0208
vn 0.3860 0.9143 0.1225
vn 0.3255 0.8957 -0.3030
vn -0.1407 0.7581 -0.6367
vn 0.0717 0.9613 -0.2662
vn -0.3479 0.9296 -0.1216
vn 0.7685 0.5723 -0.2860
vn 0.5386 0.8244 0.1741
vn -0.2086 0.9657 -0.1545
vn 0.0968 0.9036 -0.4173
vn -0.2458 0.6636 -0.7066
vn 0.3351 0.9353 -0.1140
vn -0.2873 0.8143 -0.5043
vn 0.4019 0.9130 -0.0707
vn -0.2275 0.6995 -0.6775
vn -0.5897 0.8071 -0.0297
vn 0.1799 0.9432 -0.2794
vn -0.0296 0.9807 -0.1931
vn -0.3288 0.9204 0.2116
vn 0.2169 0.9513 -0.2189
vn 0.4145 0.8624 -0.2905
vn -0.5845 0.5728 -0.5747
vn -0.0364 0.9826 -0.1823
vn 0.4688 0.8736 0.1303
vn -0.0088 0.9418 -0.3360
vn 0.4369 0.8945 -0.0952
vn 0.0231 0.7494 -0.6617
vn -0.0289 0.6329 0.7737
vn 0.3474 0.8078 0.4762
vn -0.0948 0.7963 -0.5975
vn -0.3751 0.7625 0.5272
vn -0.0538 0.9985 -0.0026
vn -0.1819 0.9741 0.1340
vn 0.5184 0.8483 0.1081
vn -0.2812 0.8763 -0.3911
vn -0.0076 0.9910 -0.1336
vn -0.3281 0.8631 -0.3840
vn 0.0027 0.9972 0.0743
vn 0.3920 0.7414 0.5446
vn 0.1688 0.9850 -0.0352
vn 0.1782 0.9839 -0.0114
vn 0.3274 0.9017 -0.2823
s 1
usemtl Liquid_Domain_Material
f 2//2 4//4 1//1
f 1//1 4//4 3//3
f 4//4 2//2 6//6
f 6//6 2//2 5//5
f 8//8 5//5 7//7
f 6//6 5//5 8//8
f 1//1 9//9 2//2
f 12//12 6//6 8//8
f 2//2 9//9 10//10
f 11//11 3//3 4//4
f 4//4 6//6 12//12
f 26//26 3//3 11//11
f 10//10 5//5 2//2
f 5//5 13//13 7//7
f 17//17 12//12 8//8
f 3//3 14//14 1//1
f 8//8 7//7 15//15
f 7//7 16//16 15//15
f 5//5 20//20 13//13
f 14//14 18//18 1//1
f 7//7 13//13 16//16
f 17//17 8//8 21//21
f 19//19 20//20 5//5
f 15//15 16//16 23//23
f 8//8 35//35 21//21
f 18//18 14//14 22//22
f 32//32 23//23 16//16
f 1//1 25//25 9//9
f 1//1 18//18 25//25
f 3//3 26//26 14//14
f 20//20 28//28 13//13
f 29//29 24//24 31//31
f 27//27 31//31 24//24
f 31//31 33//33 29//29
f 52//52 23//23 32//32
f 29//29 23//23 52//52
f 23//23 29//29 33//33
f 32//32 16//16 34//34
f 16//16 13//13 34//34
f 8//8 15//15 35//35
f 18//18 22//22 36//36
f 10//10 19//19 5//5
f 43//43 37//37 45//45
f 86//86 27//27 24//24
f 24//24 29//29 62//62
f 64//64 27//27 86//86
f 64//64 39//39 27//27
f 29//29 52//52 62//62
f 31//31 27//27 39//39
f 35//35 15//15 41//41
f 40//40 17//17 21//21
f 36//36 54//54 18//18
f 26//26 90//90 14//14
f 56//56 42//42 93//93
f 43//43 42//42 56//56
f 69//69 37//37 43//43
f 37//37 69//69 38//38
f 44//44 37//37 38//38
f 44//44 45//45 37//37
f 11//11 4//4 12//12
f 43//43 46//46 42//42
f 45//45 46//46 43//43
f 45//45 60//60 46//46
f 60//60 48//48 46//46
f 48//48 47//47 46//46
f 63//63 24//24 62//62
f 47//47 49//49 64//64
f 49//49 39//39 64//64
f 48//48 50//50 47//47
f 50//50 49//49 47//47
f 50//50 48//48 51//51
f 32//32 66//66 52//52
f 32//32 34//34 66//66
f 67//67 12//12 17//17
f 17//17 40//40 67//67
f 33//33 15//15 23//23
f 14//14 55//55 22//22
f 36//36 93//93 54//54
f 56//56 93//93 36//36
f 56//56 68//68 43//43
f 68//68 69//69 43//43
f 38//38 69//69 70//70
f 42//42 83//83 93//93
f 57//57 44//44 38//38
f 42//42 46//46 58//58
f 44//44 60//60 45//45
f 11//11 12//12 30//30
f 59//59 62//62 61//61
f 72//72 62//62 59//59
f 46//46 47//47 58//58
f 44//44 65//65 60//60
f 73//73 61//61 62//62
f 63//63 62//62 72//72
f 47//47 64//64 58//58
f 24//24 63//63 86//86
f 60//60 65//65 51//51
f 48//48 60//60 51//51
f 62//62 52//52 77//77
f 77//77 52//52 66//66
f 65//65 53//53 51//51
f 67//67 53//53 65//65
f 53//53 50//50 51//51
f 12//12 67//67 76//76
f 28//28 34//34 13//13
f 15//15 33//33 41//41
f 18//18 98//98 25//25
f 54//54 98//98 18//18
f 22//22 68//68 36//36
f 68//68 56//56 36//36
f 55//55 70//70 69//69
f 83//83 42//42 58//58
f 59//59 61//61 73//73
f 64//64 86//86 85//85
f 58//58 64//64 85//85
f 65//65 44//44 75//75
f 63//63 74//74 86//86
f 77//77 73//73 62//62
f 20//20 77//77 28//28
f 75//75 76//76 65//65
f 39//39 49//49 87//87
f 65//65 76//76 67//67
f 39//39 78//78 31//31
f 78//78 33//33 31//31
f 50//50 53//53 80//80
f 79//79 50//50 80//80
f 69//69 68//68 22//22
f 55//55 69//69 22//22
f 93//93 98//98 54//54
f 38//38 70//70 81//81
f 38//38 81//81 57//57
f 10//10 82//82 19//19
f 83//83 71//71 100//100
f 58//58 71//71 83//83
f 59//59 84//84 94//94
f 59//59 94//94 72//72
f 71//71 58//58 85//85
f 72//72 94//94 63//63
f 63//63 94//94 74//74
f 86//86 74//74 101//101
f 96//96 30//30 12//12
f 12//12 76//76 96//96
f 50//50 87//87 49//49
f 50//50 88//88 87//87
f 87//87 78//78 39//39
f 50//50 79//79 88//88
f 28//28 89//89 34//34
f 67//67 80//80 53//53
f 89//89 66//66 34//34
f 41//41 33//33 78//78
f 67//67 40//40 80//80
f 35//35 79//79 21//21
f 80//80 40//40 21//21
f 25//25 97//97 9//9
f 90//90 55//55 14//14
f 55//55 90//90 70//70
f 90//90 81//81 70//70
f 92//92 84//84 82//82
f 94//94 84//84 92//92
f 83//83 100//100 93//93
f 57//57 81//81 44//44
f 84//84 19//19 82//82
f 84//84 59//59 19//19
f 75//75 44//44 81//81
f 71//71 101//101 100//100
f 71//71 85//85 101//101
f 95//95 19//19 59//59
f 59//59 73//73 95//95
f 85//85 86//86 101//101
f 20//20 95//95 73//73
f 73//73 77//77 20//20
f 75//75 96//96 76//76
f 77//77 89//89 28//28
f 89//89 77//77 66//66
f 80//80 21//21 79//79
f 10//10 9//9 97//97
f 97//97 25//25 98//98
f 97//97 91//91 10//10
f 98//98 91//91 97//97
f 99//99 81//81 90//90
f 99//99 90//90 26//26
f 91//91 82//82 10//10
f 26//26 11//11 99//99
f 92//92 82//82 91//91
f 98//98 92//92 91//91
f 100//100 92//92 98//98
f 93//93 100//100 98//98
f 100//100 94//94 92//92
f 99//99 75//75 81//81
f 101//101 94//94 100//100
f 11//11 30//30 99//99
f 99//99 96//96 75//75
f 99//99 30//30 96//96
f 74//74 94//94 101//101
f 19//19 95//95 20//20
f 88//88 78//78 87//87
f 35//35 41//41 78//78
f 88//88 35//35 78//78
f 79//79 35//35 88//88
