# Blender 4.1.1
# www.blender.org
mtllib aa0555.mtl
o Liquid_Domain
v -8.134167 -8.755833 6.217273
v -8.482273 -9.101479 5.867445
v 8.134167 -8.755833 6.217273
v 8.482388 -9.099969 5.866858
v -8.477587 -9.102005 -5.869050
v 8.480361 -9.101632 -5.867337
v -8.134167 -8.755833 -6.217273
v 8.134167 -8.755833 -6.217273
v -0.961943 4.113406 6.214576
v -8.100736 4.264847 -6.209455
v -4.765347 1.905819 -6.216693
v -8.432056 6.919110 5.917967
v -8.124082 6.608758 6.187407
v 8.468841 3.671985 -5.843963
v 8.458155 6.711168 5.876570
v 2.905605 6.453635 -6.207071
v -8.484666 3.992047 -5.821363
v 3.974218 5.102390 6.203371
v 8.121698 3.637688 -6.192773
v 8.465490 5.214566 -3.540817
v -6.129066 3.255855 -6.115179
v -2.768744 4.208975 -6.153734
v 1.523203 6.143018 6.069028
v 6.313362 5.656847 -6.193625
v -2.718219 4.004792 -2.816428
v 8.130383 7.040823 6.183885
v -8.461181 5.758502 0.329367
v 4.309109 4.265977 2.744486
v -1.134168 4.903813 -2.706740
v -5.393295 4.306179 -4.001262
v -2.135465 4.289956 -3.279012
v 0.566030 4.390872 -2.963287
v 7.610904 4.980086 -5.796475
v 0.071455 5.052626 5.528301
v 6.741336 5.724545 3.918078
v 6.104526 5.503958 1.607421
v -3.481574 4.772372 -2.011864
v 8.375502 6.839530 -1.772482
v 0.438094 4.966915 -3.755303
v -2.454782 5.088208 -4.726479
v -6.028074 4.196019 -5.108315
v -1.957534 5.269472 -5.830322
v -1.289091 5.528095 5.824714
v 0.654153 4.936351 3.803620
v 2.296983 4.930123 3.383688
v 1.834581 5.065998 1.848190
v 4.101374 5.258561 1.334092
v 2.032839 4.977111 -1.978378
v 4.812661 5.424171 -0.384393
v 4.368399 4.962223 -1.982495
v -5.494643 5.351487 -2.760745
v 3.043484 5.755966 -3.475495
v 5.034394 5.387726 -3.460132
v 5.851637 5.039997 -4.511904
v -2.286547 6.918114 6.036623
v 4.056485 5.954749 5.773038
v 1.672659 6.312509 5.264475
v 4.704445 5.512500 4.294801
v 0.889656 5.666596 0.597109
v -7.173117 5.330044 -0.488917
v -7.169468 5.982562 -2.015461
v 7.084376 5.625760 -4.826396
v 4.275639 6.326247 -5.352470
v -7.966483 5.526305 -5.481132
v 0.521425 6.940841 -6.051862
v 3.590944 5.266109 4.331765
v -1.971765 6.439260 3.660922
v -0.100308 6.313249 2.349158
v 6.701428 5.961922 -0.536919
v -5.171165 5.486091 -0.647578
v -7.584352 5.812865 0.637346
v -4.541503 5.982402 -0.268186
v -0.040516 5.363613 -1.547731
v -8.288159 6.857006 -2.535842
v 2.847403 6.912908 -4.118767
v -8.311374 6.888615 -4.876391
v -0.423165 6.421637 -5.166396
v -7.942777 6.610500 -5.420951
v 7.097071 6.214146 -5.461725
v -6.190142 6.346955 4.686956
v 7.436406 6.890135 3.939285
v 7.153926 6.940763 1.215749
v -7.187408 6.239188 1.711967
v -8.071239 6.921329 -0.744063
v -4.802718 6.994213 0.603043
v -2.742437 6.588208 -0.951811
v -7.530470 6.481901 -3.057450
v 7.524649 6.187742 -3.176751
v 7.303744 6.352819 -5.904781
v -6.038558 6.968444 5.852794
v 5.148464 6.895873 6.123790
v 6.159494 6.932725 4.829526
v -8.312881 6.919609 2.701665
v -1.321809 5.977187 1.109236
v 7.552507 6.947716 -1.987625
v -7.571818 6.884962 4.615239
v -3.610323 7.104381 4.191817
v -6.748478 6.994832 3.601151
v -2.786163 7.022626 2.154915
v -2.095959 7.019233 -0.311574
v 3.817868 6.896562 -5.828086
vn -0.2811 -0.2865 0.9159
vn -0.6221 -0.6500 0.4364
vn 0.2815 -0.2874 0.9155
vn 0.6227 -0.6500 0.4355
vn -0.6214 -0.6504 -0.4368
vn 0.6223 -0.6501 -0.4360
vn -0.2835 -0.2849 -0.9157
vn 0.2828 -0.2859 -0.9156
vn 0.0335 0.1295 0.9910
vn -0.2695 0.3018 -0.9145
vn -0.0027 0.0210 -0.9998
vn -0.6107 0.6419 0.4637
vn -0.2564 0.2645 0.9297
vn 0.8691 0.2163 -0.4448
vn 0.8956 0.2999 0.3285
vn 0.0275 0.2827 -0.9588
vn -0.9004 0.1116 -0.4204
vn -0.0311 0.1393 0.9898
vn 0.3840 0.1399 -0.9127
vn 0.8866 0.3951 -0.2405
vn 0.1095 0.3706 -0.9223
vn -0.0841 0.2017 -0.9758
vn -0.2003 0.6571 0.7267
vn 0.1101 0.1342 -0.9848
vn -0.1235 0.9420 -0.3120
vn 0.3353 0.5809 0.7417
vn -0.9913 0.1302 -0.0170
vn -0.0357 0.9970 0.0682
vn -0.0005 0.7361 -0.6769
vn 0.3136 0.9192 -0.2382
vn -0.2129 0.9483 0.2354
vn -0.2447 0.9654 0.0902
vn 0.6802 0.4579 -0.5724
vn -0.2042 0.9665 0.1556
vn -0.5743 0.6692 -0.4716
vn -0.3854 0.9134 0.1312
vn -0.0175 0.7758 -0.6307
vn 0.6870 0.7037 -0.1811
vn -0.2707 0.7131 0.6467
vn -0.2610 0.9100 0.3222
vn 0.2068 0.8431 -0.4964
vn -0.4467 0.7462 -0.4935
vn 0.6172 0.5681 0.5443
vn 0.2595 0.9506 0.1705
vn 0.0494 0.9830 -0.1771
vn 0.2251 0.9687 0.1047
vn -0.0508 0.9685 0.2436
vn -0.0557 0.9984 -0.0021
vn -0.1007 0.9942 -0.0374
vn -0.2413 0.9700 0.0312
vn 0.4304 0.8464 -0.3137
vn 0.0636 0.8190 0.5703
vn -0.0115 0.9994 -0.0336
vn -0.1292 0.9798 0.1525
vn 0.3449 0.6451 0.6818
vn -0.3143 0.9015 0.2975
vn -0.2342 0.9267 -0.2938
vn -0.2722 0.7749 -0.5704
vn 0.3283 0.9380 -0.1112
vn 0.4303 0.9012 0.0529
vn 0.4924 0.8625 0.1166
vn 0.2382 0.9633 0.1236
vn 0.3350 0.7301 0.5955
vn 0.1220 0.4927 -0.8616
vn -0.2081 0.7224 -0.6594
vn 0.0213 0.8622 -0.5061
vn 0.4235 0.8894 0.1722
vn 0.3884 0.9158 0.1025
vn -0.8269 0.5528 -0.1036
vn -0.0790 0.9165 -0.3922
vn 0.6715 0.6457 -0.3637
vn -0.2629 0.6262 -0.7340
vn 0.2117 0.8987 -0.3841
vn -0.4185 0.9074 0.0373
vn 0.1633 0.7563 0.6335
vn -0.4310 0.8548 -0.2891
vn -0.4208 0.8284 0.3698
vn 0.1423 0.3968 -0.9068
vn 0.4481 0.6951 0.5622
vn 0.0272 0.9991 -0.0311
vn -0.5314 0.8350 -0.1430
vn -0.5391 0.8423 -0.0013
vn 0.1027 0.9494 -0.2968
vn -0.0906 0.9904 0.1044
vn -0.2710 0.8762 -0.3984
vn -0.1530 0.7292 -0.6670
vn 0.5471 0.8356 -0.0500
vn -0.0574 0.9015 -0.4290
vn 0.6140 0.6490 -0.4491
vn -0.0275 0.9650 0.2608
vn -0.3374 0.6966 0.6332
vn -0.2912 0.8532 -0.4327
vn -0.5291 0.8326 -0.1641
vn 0.3897 0.9098 -0.1427
vn -0.3553 0.8723 -0.3360
vn 0.1137 0.9935 -0.0007
vn 0.0931 0.9956 0.0080
vn -0.0185 0.9965 0.0816
vn 0.1976 0.9803 0.0015
vn 0.2908 0.9278 -0.2339
vn 0.2022 0.9251 -0.3214
s 1
usemtl Liquid_Domain_Material
f 2//2 4//4 3//3
f 1//1 2//2 3//3
f 4//4 2//2 6//6
f 6//6 2//2 5//5
f 8//8 5//5 7//7
f 6//6 5//5 8//8
f 3//3 9//9 1//1
f 7//7 5//5 10//10
f 7//7 10//10 11//11
f 2//2 1//1 12//12
f 1//1 13//13 12//12
f 14//14 6//6 8//8
f 15//15 3//3 4//4
f 5//5 17//17 10//10
f 19//19 14//14 8//8
f 26//26 3//3 15//15
f 2//2 17//17 5//5
f 7//7 16//16 8//8
f 9//9 3//3 18//18
f 8//8 24//24 19//19
f 11//11 10//10 21//21
f 11//11 21//21 22//22
f 27//27 17//17 2//2
f 7//7 11//11 16//16
f 8//8 16//16 24//24
f 22//22 21//21 42//42
f 11//11 22//22 16//16
f 33//33 14//14 19//19
f 1//1 9//9 13//13
f 3//3 26//26 18//18
f 12//12 27//27 2//2
f 4//4 6//6 15//15
f 15//15 6//6 20//20
f 25//25 30//30 37//37
f 6//6 14//14 20//20
f 29//29 31//31 25//25
f 31//31 30//30 25//25
f 40//40 30//30 31//31
f 40//40 41//41 30//30
f 41//41 21//21 64//64
f 42//42 21//21 41//41
f 21//21 10//10 64//64
f 22//22 65//65 16//16
f 23//23 34//34 9//9
f 18//18 23//23 9//9
f 66//66 28//28 45//45
f 35//35 28//28 66//66
f 25//25 37//37 29//29
f 37//37 30//30 51//51
f 29//29 73//73 32//32
f 32//32 31//31 29//29
f 32//32 39//39 31//31
f 31//31 39//39 40//40
f 40//40 42//42 41//41
f 14//14 33//33 20//20
f 17//17 64//64 10//10
f 19//19 24//24 33//33
f 34//34 43//43 9//9
f 18//18 26//26 91//91
f 12//12 93//93 27//27
f 58//58 35//35 66//66
f 45//45 44//44 34//34
f 45//45 46//46 44//44
f 36//36 28//28 35//35
f 45//45 28//28 47//47
f 47//47 46//46 45//45
f 47//47 28//28 36//36
f 48//48 59//59 46//46
f 49//49 48//48 46//46
f 47//47 49//49 46//46
f 49//49 50//50 48//48
f 51//51 70//70 37//37
f 48//48 32//32 73//73
f 50//50 52//52 48//48
f 52//52 50//50 53//53
f 32//32 48//48 39//39
f 41//41 51//51 30//30
f 9//9 43//43 55//55
f 43//43 44//44 67//67
f 43//43 34//34 44//44
f 34//34 57//57 45//45
f 66//66 45//45 57//57
f 59//59 48//48 73//73
f 36//36 49//49 47//47
f 72//72 37//37 70//70
f 70//70 61//61 60//60
f 36//36 53//53 49//49
f 70//70 51//51 61//61
f 37//37 86//86 29//29
f 53//53 50//50 49//49
f 51//51 87//87 61//61
f 36//36 62//62 53//53
f 39//39 48//48 52//52
f 62//62 54//54 53//53
f 53//53 54//54 52//52
f 63//63 52//52 54//54
f 62//62 20//20 33//33
f 33//33 79//79 62//62
f 42//42 40//40 77//77
f 33//33 89//89 79//79
f 22//22 42//42 65//65
f 33//33 24//24 89//89
f 9//9 55//55 13//13
f 18//18 56//56 23//23
f 66//66 56//56 58//58
f 44//44 46//46 68//68
f 46//46 59//59 68//68
f 35//35 69//69 36//36
f 68//68 59//59 94//94
f 83//83 60//60 71//71
f 70//70 60//60 83//83
f 59//59 73//73 94//94
f 15//15 20//20 38//38
f 37//37 72//72 86//86
f 69//69 62//62 36//36
f 73//73 29//29 86//86
f 88//88 62//62 69//69
f 27//27 74//74 17//17
f 51//51 41//41 87//87
f 52//52 75//75 39//39
f 20//20 62//62 88//88
f 87//87 41//41 64//64
f 39//39 77//77 40//40
f 17//17 76//76 64//64
f 62//62 79//79 54//54
f 23//23 57//57 34//34
f 56//56 57//57 23//23
f 66//66 57//57 56//56
f 55//55 43//43 67//67
f 58//58 92//92 35//35
f 92//92 81//81 35//35
f 44//44 68//68 67//67
f 35//35 82//82 69//69
f 93//93 84//84 27//27
f 70//70 83//83 85//85
f 85//85 72//72 70//70
f 100//100 94//94 73//73
f 71//71 60//60 61//61
f 73//73 86//86 100//100
f 38//38 20//20 88//88
f 74//74 76//76 17//17
f 63//63 75//75 52//52
f 76//76 78//78 64//64
f 63//63 54//54 79//79
f 42//42 77//77 65//65
f 16//16 101//101 89//89
f 24//24 16//16 89//89
f 91//91 56//56 18//18
f 58//58 91//91 92//92
f 56//56 91//91 58//58
f 80//80 96//96 90//90
f 98//98 96//96 80//80
f 81//81 82//82 35//35
f 67//67 68//68 99//99
f 98//98 83//83 93//93
f 83//83 98//98 85//85
f 68//68 94//94 99//99
f 83//83 71//71 84//84
f 83//83 84//84 93//93
f 100//100 99//99 94//94
f 85//85 86//86 72//72
f 69//69 82//82 95//95
f 84//84 71//71 61//61
f 27//27 84//84 74//74
f 74//74 84//84 61//61
f 69//69 95//95 88//88
f 61//61 87//87 74//74
f 38//38 88//88 95//95
f 87//87 64//64 78//78
f 77//77 39//39 75//75
f 101//101 63//63 89//89
f 63//63 79//79 89//89
f 12//12 13//13 90//90
f 90//90 13//13 55//55
f 90//90 96//96 12//12
f 26//26 92//92 91//91
f 96//96 93//93 12//12
f 55//55 97//97 90//90
f 97//97 80//80 90//90
f 55//55 67//67 97//97
f 26//26 81//81 92//92
f 97//97 98//98 80//80
f 96//96 98//98 93//93
f 67//67 99//99 97//97
f 26//26 82//82 81//81
f 97//97 99//99 98//98
f 99//99 85//85 98//98
f 15//15 38//38 26//26
f 99//99 100//100 85//85
f 26//26 38//38 82//82
f 86//86 85//85 100//100
f 38//38 95//95 82//82
f 87//87 76//76 74//74
f 87//87 78//78 76//76
f 77//77 75//75 65//65
f 101//101 65//65 75//75
f 75//75 63//63 101//101
f 101//101 16//16 65//65
