# Blender 4.1.1
# www.blender.org
mtllib aa0574.mtl
o Liquid_Domain
v -8.482597 -8.755205 6.215194
v -8.134167 -9.108939 5.864167
v 8.482260 -8.756550 6.214363
v 8.134167 -9.108939 5.864167
v 8.480000 -9.102459 -5.867791
v -8.480053 -9.105177 -5.865670
v -8.134167 -8.755833 -6.217273
v 8.134167 -8.755833 -6.217273
v -8.142250 3.967813 -6.161294
v -8.474460 4.120954 -5.762994
v -8.166465 6.684718 6.170636
v -6.757098 2.982458 -6.212976
v 8.467987 6.696064 5.870104
v 8.483361 6.024373 -5.854915
v 5.107166 4.106339 -6.209908
v -8.458607 6.589853 -1.492789
v 1.159775 5.332618 -6.203322
v -8.447915 5.539435 5.867319
v -2.569503 5.761210 -6.156278
v -5.271565 5.487753 6.207597
v -5.711019 4.210699 -5.789364
v -1.635913 4.052608 -2.257432
v -3.588549 4.480854 -2.192320
v -4.838912 3.924864 -3.638302
v -1.868583 3.794010 -3.655238
v 0.073394 4.229445 -3.348340
v -4.708283 5.022245 -4.704940
v 8.131903 6.454662 -6.188262
v 6.108908 6.678984 6.182703
v 8.145671 7.013640 6.190777
v 0.190055 4.440993 -2.862009
v 8.449493 6.585501 0.529658
v -2.480362 5.275592 -4.845577
v -5.657889 4.520199 -4.875946
v -7.285235 4.749573 -4.866602
v 5.157801 4.789510 -1.675495
v -7.028073 4.646824 -2.606110
v 0.212024 5.592891 -4.406979
v 1.366788 4.940485 -4.586861
v 5.813556 4.681996 -4.673738
v -4.331959 5.365560 -5.765084
v -2.506003 7.050072 6.122114
v 2.146641 6.709344 6.198053
v -7.189768 5.024562 4.751417
v -7.293650 5.169766 3.048972
v -8.293324 6.693796 3.920352
v 5.038548 5.016047 -0.240892
v 4.000237 4.850257 -2.611965
v -6.949681 5.858144 -1.634352
v 3.111070 4.968038 -2.765947
v 3.211643 5.338331 -4.603743
v 4.475133 5.424215 -4.908379
v 5.823534 4.973986 -5.783025
v 7.210213 6.738036 -5.829552
v -7.755944 5.945965 4.701079
v -5.390662 5.630167 2.296194
v 3.371017 5.277755 2.814767
v 4.858922 5.331761 3.454853
v 3.881541 5.680359 1.728213
v 4.065022 5.900594 -0.957313
v 7.071925 6.475343 -2.470617
v -7.409701 5.642371 -2.851090
v -1.890661 6.808003 -5.725387
v 1.604672 6.209625 -5.754283
v -7.653767 6.724336 -5.604701
v -8.271032 6.897201 -5.828812
v -5.410526 6.365493 5.808991
v -8.100996 6.370495 5.083312
v -4.855914 5.703745 4.785740
v -3.420534 6.675313 2.808529
v 6.429730 5.823403 3.946079
v -7.729105 6.816759 1.988890
v 6.827923 6.256770 2.577894
v -6.677792 6.459733 0.755561
v -4.529531 6.010310 0.416296
v 6.699604 6.078600 0.362963
v -2.437905 5.762218 -0.678202
v -4.128974 6.008865 -1.367489
v 0.480536 6.123550 -1.446344
v 4.919872 6.854309 -5.428504
v 4.918970 7.012907 -6.043545
v -6.605495 6.923193 5.755946
v -3.923642 6.570924 5.803083
v -4.209426 6.740518 1.753501
v 2.765818 6.000012 1.010145
v 2.052595 6.094088 3.036031
v 7.482391 6.930944 1.398451
v 1.761147 6.153739 -0.474178
v 0.158448 6.838516 -5.795561
v 4.184609 6.992079 5.791139
v 3.504230 6.846339 5.115350
v 6.983016 6.919207 4.748677
v 2.098433 6.879104 4.214013
v 0.517698 7.049086 4.431967
v -3.131768 7.014303 0.796099
v -1.194068 7.070673 -0.264443
v -0.053196 7.013228 2.701022
v 8.109281 7.011971 1.580896
v -7.868500 7.162268 0.307427
v -8.006147 6.972118 -1.291759
v 8.062182 7.032784 -1.445146
v -7.314216 6.867241 -2.835324
v 8.029998 7.033339 -4.957671
vn -0.5411 -0.3606 0.7598
vn -0.2946 -0.9011 0.3183
vn 0.5410 -0.3609 0.7597
vn 0.2941 -0.9014 0.3179
vn 0.6216 -0.6504 -0.4365
vn -0.6218 -0.6503 -0.4363
vn -0.2840 -0.2848 -0.9155
vn 0.2822 -0.2857 -0.9158
vn -0.1738 0.2064 -0.9629
vn -0.9316 0.0282 -0.3624
vn -0.4663 0.5844 0.6641
vn -0.0195 0.1915 -0.9813
vn 0.8997 0.3210 0.2957
vn 0.9093 0.1943 -0.3679
vn 0.0168 0.0591 -0.9981
vn -0.9076 0.4199 0.0023
vn 0.0080 0.1696 -0.9855
vn -0.9444 0.1039 0.3118
vn -0.1276 0.2897 -0.9486
vn -0.0001 0.1681 0.9858
vn -0.3506 0.6702 -0.6541
vn -0.1117 0.8290 -0.5479
vn 0.1570 0.7670 -0.6221
vn 0.0689 0.9891 0.1300
vn -0.1036 0.9138 0.3928
vn -0.1930 0.9506 0.2432
vn -0.2624 0.8284 0.4948
vn 0.3281 0.4436 -0.8340
vn -0.0376 0.2596 0.9650
vn 0.3416 0.5748 0.7436
vn -0.2253 0.8043 -0.5499
vn 0.9395 0.3424 -0.0049
vn -0.1825 0.6322 0.7530
vn -0.1971 0.9700 0.1422
vn 0.6939 0.6141 -0.3760
vn -0.2836 0.9509 -0.1235
vn 0.5478 0.6984 -0.4607
vn 0.1298 0.6332 0.7630
vn 0.0762 0.7926 0.6049
vn -0.2662 0.9553 0.1287
vn -0.4181 0.7941 -0.4412
vn -0.1192 0.6711 0.7318
vn 0.0191 0.3567 0.9340
vn 0.3048 0.8574 -0.4147
vn 0.4748 0.8529 0.2169
vn -0.3078 0.9202 0.2420
vn -0.0209 0.9967 -0.0787
vn 0.1060 0.9919 -0.0706
vn 0.5195 0.7607 -0.3892
vn 0.0099 0.9784 -0.2063
vn -0.0948 0.8310 0.5481
vn 0.3643 0.6430 0.6737
vn -0.2686 0.9431 -0.1961
vn -0.3830 0.7576 -0.5285
vn 0.8299 0.5480 0.1048
vn -0.3731 0.9225 0.0988
vn 0.2818 0.9589 0.0342
vn -0.0962 0.9614 -0.2580
vn 0.1283 0.9915 0.0223
vn 0.4308 0.8734 -0.2272
vn -0.7525 0.6577 -0.0353
vn 0.9683 0.1264 -0.2156
vn -0.2539 0.9576 -0.1358
vn 0.0296 0.9790 -0.2019
vn 0.6796 0.5031 -0.5338
vn -0.3105 0.5895 -0.7457
vn 0.0470 0.9616 0.2704
vn -0.2772 0.9252 -0.2593
vn -0.3876 0.8862 -0.2539
vn -0.4952 0.8615 0.1121
vn -0.3954 0.7974 -0.4558
vn 0.5820 0.7679 0.2676
vn -0.6094 0.7924 -0.0276
vn 0.3981 0.9001 0.1770
vn -0.1152 0.9852 -0.1267
vn -0.6338 0.7735 -0.0048
vn -0.1217 0.7250 -0.6779
vn 0.1915 0.8182 -0.5421
vn -0.0109 0.7968 -0.6042
vn 0.3769 0.6813 0.6275
vn 0.3298 0.7258 -0.6037
vn 0.2810 0.9595 -0.0178
vn -0.3734 0.8874 0.2704
vn -0.4701 0.8809 0.0554
vn 0.3031 0.9523 -0.0357
vn 0.3870 0.9114 -0.1399
vn -0.4518 0.8920 -0.0112
vn 0.1980 0.9569 -0.2124
vn 0.1650 0.9232 -0.3471
vn 0.0063 0.9658 0.2594
vn 0.2145 0.8260 -0.5213
vn -0.1619 0.9601 -0.2280
vn 0.1701 0.8856 -0.4323
vn 0.0744 0.9908 -0.1134
vn -0.2746 0.9062 -0.3216
vn -0.0851 0.8670 -0.4909
vn 0.1899 0.9813 -0.0305
vn 0.3633 0.9317 -0.0015
vn -0.0622 0.9962 -0.0602
vn 0.0141 0.9999 -0.0052
vn 0.3557 0.9341 -0.0323
vn 0.7344 0.6737 -0.0818
vn 0.3707 0.9251 -0.0817
s 1
usemtl Liquid_Domain_Material
f 1//1 2//2 3//3
f 2//2 4//4 3//3
f 5//5 3//3 4//4
f 5//5 2//2 6//6
f 4//4 2//2 5//5
f 6//6 2//2 1//1
f 5//5 6//6 7//7
f 8//8 5//5 7//7
f 7//7 12//12 8//8
f 7//7 6//6 9//9
f 1//1 11//11 18//18
f 7//7 9//9 12//12
f 13//13 30//30 3//3
f 14//14 5//5 8//8
f 1//1 10//10 6//6
f 6//6 10//10 9//9
f 3//3 5//5 14//14
f 8//8 12//12 15//15
f 3//3 20//20 1//1
f 1//1 18//18 16//16
f 8//8 15//15 28//28
f 28//28 14//14 8//8
f 12//12 19//19 17//17
f 1//1 20//20 11//11
f 3//3 43//43 20//20
f 3//3 14//14 32//32
f 1//1 16//16 10//10
f 15//15 12//12 17//17
f 25//25 24//24 23//23
f 22//22 25//25 23//23
f 25//25 22//22 26//26
f 25//25 27//27 24//24
f 35//35 21//21 12//12
f 3//3 30//30 29//29
f 13//13 3//3 32//32
f 37//37 23//23 24//24
f 31//31 26//26 22//22
f 24//24 35//35 37//37
f 33//33 27//27 25//25
f 24//24 34//34 35//35
f 27//27 34//34 24//24
f 34//34 21//21 35//35
f 35//35 12//12 9//9
f 12//12 21//21 19//19
f 3//3 29//29 43//43
f 78//78 77//77 23//23
f 77//77 22//22 23//23
f 50//50 26//26 31//31
f 38//38 26//26 39//39
f 39//39 26//26 50//50
f 26//26 33//33 25//25
f 21//21 34//34 41//41
f 21//21 41//41 19//19
f 56//56 45//45 44//44
f 48//48 47//47 36//36
f 77//77 31//31 22//22
f 23//23 37//37 78//78
f 36//36 52//52 48//48
f 37//37 35//35 62//62
f 48//48 51//51 50//50
f 52//52 51//51 48//48
f 40//40 52//52 36//36
f 38//38 33//33 26//26
f 39//39 50//50 51//51
f 52//52 40//40 53//53
f 41//41 34//34 27//27
f 28//28 15//15 54//54
f 15//15 53//53 54//54
f 44//44 67//67 69//69
f 44//44 45//45 55//55
f 69//69 56//56 44//44
f 58//58 59//59 57//57
f 18//18 46//46 16//16
f 59//59 47//47 85//85
f 60//60 85//85 47//47
f 47//47 61//61 36//36
f 60//60 47//47 48//48
f 37//37 49//49 78//78
f 48//48 50//50 60//60
f 50//50 31//31 79//79
f 36//36 61//61 40//40
f 61//61 53//53 40//40
f 64//64 39//39 51//51
f 35//35 65//65 62//62
f 33//33 41//41 27//27
f 35//35 9//9 65//65
f 9//9 10//10 66//66
f 66//66 65//65 9//9
f 20//20 43//43 42//42
f 44//44 55//55 68//68
f 70//70 56//56 69//69
f 58//58 57//57 91//91
f 91//91 57//57 86//86
f 55//55 45//45 72//72
f 71//71 73//73 58//58
f 59//59 58//58 73//73
f 45//45 74//74 72//72
f 86//86 57//57 59//59
f 56//56 75//75 45//45
f 73//73 47//47 59//59
f 75//75 74//74 45//45
f 47//47 73//73 76//76
f 85//85 60//60 88//88
f 61//61 47//47 76//76
f 77//77 96//96 79//79
f 88//88 50//50 79//79
f 79//79 31//31 77//77
f 60//60 50//50 88//88
f 37//37 62//62 49//49
f 16//16 66//66 10//10
f 33//33 38//38 63//63
f 52//52 80//80 51//51
f 33//33 63//63 41//41
f 64//64 38//38 39//39
f 41//41 63//63 19//19
f 15//15 17//17 81//81
f 20//20 83//83 67//67
f 44//44 68//68 82//82
f 67//67 44//44 82//82
f 68//68 46//46 18//18
f 55//55 46//46 68//68
f 70//70 69//69 83//83
f 92//92 58//58 91//91
f 71//71 58//58 92//92
f 56//56 70//70 84//84
f 86//86 59//59 97//97
f 56//56 84//84 75//75
f 59//59 85//85 97//97
f 77//77 78//78 75//75
f 78//78 49//49 74//74
f 75//75 78//78 74//74
f 49//49 62//62 102//102
f 61//61 54//54 53//53
f 89//89 38//38 64//64
f 80//80 64//64 51//51
f 52//52 53//53 80//80
f 89//89 64//64 17//17
f 53//53 15//15 81//81
f 20//20 82//82 11//11
f 82//82 20//20 67//67
f 42//42 83//83 20//20
f 29//29 90//90 43//43
f 11//11 68//68 18//18
f 83//83 69//69 67//67
f 91//91 86//86 93//93
f 86//86 97//97 94//94
f 93//93 86//86 94//94
f 73//73 71//71 92//92
f 46//46 55//55 72//72
f 87//87 73//73 92//92
f 76//76 73//73 87//87
f 75//75 84//84 95//95
f 97//97 85//85 96//96
f 99//99 72//72 74//74
f 75//75 95//95 77//77
f 85//85 88//88 96//96
f 95//95 96//96 77//77
f 100//100 99//99 49//49
f 99//99 74//74 49//49
f 96//96 88//88 79//79
f 76//76 87//87 61//61
f 102//102 100//100 49//49
f 32//32 14//14 101//101
f 102//102 62//62 65//65
f 101//101 14//14 103//103
f 89//89 63//63 38//38
f 28//28 103//103 14//14
f 80//80 81//81 64//64
f 80//80 53//53 81//81
f 17//17 19//19 89//89
f 19//19 63//63 89//89
f 81//81 17//17 64//64
f 42//42 43//43 90//90
f 90//90 29//29 30//30
f 82//82 68//68 11//11
f 94//94 42//42 90//90
f 90//90 92//92 91//91
f 92//92 90//90 30//30
f 90//90 93//93 94//94
f 91//91 93//93 90//90
f 42//42 70//70 83//83
f 42//42 95//95 70//70
f 97//97 42//42 94//94
f 42//42 96//96 95//95
f 30//30 87//87 92//92
f 13//13 32//32 30//30
f 30//30 98//98 87//87
f 30//30 32//32 98//98
f 46//46 72//72 99//99
f 95//95 84//84 70//70
f 97//97 96//96 42//42
f 99//99 100//100 16//16
f 46//46 99//99 16//16
f 98//98 101//101 87//87
f 98//98 32//32 101//101
f 87//87 54//54 61//61
f 101//101 54//54 87//87
f 100//100 66//66 16//16
f 102//102 66//66 100//100
f 101//101 103//103 54//54
f 102//102 65//65 66//66
f 103//103 28//28 54//54
