# Blender 4.1.1
# www.blender.org
mtllib aa0683.mtl
o Liquid_Domain
v -8.134167 -8.755833 6.217273
v -8.487272 -8.755834 5.864167
v -8.134167 -9.108939 5.864167
v 8.134167 -8.755833 6.217273
v 8.487272 -8.755833 5.864167
v 8.134167 -9.108939 5.864167
v 8.487272 -8.755833 -5.864167
v 8.134167 -9.108939 -5.864167
v -8.481420 -9.103317 -5.865922
v -8.134167 -8.755833 -6.217273
v 8.461525 6.675390 5.880443
v 8.134167 -8.755833 -6.217273
v -8.481632 7.065077 5.872528
v -8.416398 5.050285 -5.968389
v -8.134554 3.057869 -6.215200
v 3.714758 4.584018 -6.194242
v -3.826816 5.490488 -6.194020
v -0.876823 4.855124 -6.192466
v 8.465528 6.829377 1.201881
v -8.463116 6.703456 -0.406861
v 0.311187 5.167274 6.159615
v 4.647031 4.503586 6.194137
v -7.139307 4.293209 -6.101084
v 8.138378 6.955140 6.212307
v -1.240198 5.190063 6.200474
v 3.439848 5.479174 6.153850
v 8.139123 6.943472 -6.195369
v 8.445296 6.588640 -5.890454
v -8.318236 6.905036 -5.416740
v 6.655747 6.665002 -6.103428
v 4.911783 5.439571 5.753522
v 6.695535 6.709251 6.152945
v -8.091645 6.760443 6.215281
v -3.594852 6.528894 6.137841
v 2.465762 5.786669 5.698678
v 6.267618 5.795331 -0.873947
v 4.279570 5.545650 -1.951596
v 8.406482 6.886878 -1.214518
v 2.318707 4.981192 -5.754774
v 5.026141 5.772829 -5.841643
v -7.569664 5.726503 -5.442376
v -0.580075 5.573074 -5.827293
v 3.566511 6.870607 5.390260
v 0.856200 6.159263 5.748965
v 4.768715 5.788967 4.827861
v 5.788640 5.804545 3.848360
v 5.213370 5.712430 2.461498
v 5.597225 5.761932 1.001467
v 4.304004 5.709212 0.047517
v -1.430191 5.426170 -1.947196
v -0.076130 5.759763 -1.427572
v 4.798358 6.179475 -3.076769
v -6.790399 5.700501 -2.174335
v 0.937248 5.783057 -2.231283
v -0.956505 6.101820 -3.129773
v 3.047296 6.058337 -2.564822
v -6.777739 5.817098 -4.366224
v 4.807338 6.131869 -3.840821
v 0.756027 5.628681 -4.321191
v 2.603121 5.740693 -3.991455
v -5.625138 5.275146 -5.759513
v 5.902190 6.887617 5.775732
v 3.051955 6.708420 4.618825
v 1.935719 6.284396 3.605316
v 3.450675 6.086589 2.822122
v 1.950139 6.418382 0.993798
v -1.447012 6.289116 0.900983
v 4.615448 6.153207 1.257344
v 7.233683 7.029590 1.213775
v 1.530343 5.956934 -0.466833
v 2.906745 6.759479 -1.080368
v -2.066988 6.718931 -2.624935
v -5.082748 6.241323 -3.453491
v -1.432823 6.402682 -4.352866
v -3.970724 6.130200 -5.853561
v 0.038568 6.548986 4.601553
v 6.564730 6.814743 3.055863
v -2.348764 6.374634 2.155021
v 3.223780 6.810733 0.784530
v -2.355163 6.275953 -0.922100
v 7.139546 7.027036 -1.341547
v -6.991510 6.713017 -1.134946
v -4.283196 7.044824 -2.288971
v -7.619258 6.831965 -4.696780
v 5.700763 6.942669 -3.376471
v -3.265030 6.925485 -4.145415
v -3.509157 7.013104 5.805992
v -8.070684 7.055167 -0.795338
v 7.210510 7.019270 4.372857
v -1.237064 6.701050 4.586051
v -3.801624 7.034856 1.932808
v -2.484045 7.061660 3.501800
v 0.858827 7.057728 3.199271
v 0.257123 7.016341 0.902281
v 1.204935 6.939785 1.534951
v -6.184929 7.044268 -0.195193
v -3.680412 6.975216 -0.747140
v 7.012299 7.051320 -4.793215
vn -0.3100 -0.3158 0.8968
vn -0.8638 -0.3396 0.3721
vn -0.3320 -0.8676 0.3703
vn 0.3099 -0.3156 0.8969
vn 0.8647 -0.3426 0.3673
vn 0.3350 -0.8684 0.3657
vn 0.8648 -0.3422 -0.3674
vn 0.3350 -0.8684 -0.3657
vn -0.6224 -0.6501 -0.4359
vn -0.2821 -0.2860 -0.9157
vn 0.8925 0.3285 0.3091
vn 0.3101 -0.3154 -0.8969
vn -0.6223 0.6468 0.4410
vn -0.5022 0.2677 -0.8222
vn -0.3176 0.0276 -0.9478
vn -0.0630 0.2114 -0.9754
vn -0.0446 0.2786 -0.9594
vn 0.0454 0.2121 -0.9762
vn 0.7516 0.6596 0.0061
vn -0.9180 0.3960 -0.0196
vn -0.0282 0.2841 0.9584
vn -0.0078 0.1143 0.9934
vn -0.0275 0.3230 -0.9460
vn 0.3267 0.5577 0.7631
vn 0.0881 0.3020 0.9492
vn 0.0351 0.3238 0.9455
vn 0.3203 0.5693 -0.7571
vn 0.9087 0.2585 -0.3277
vn -0.2731 0.6632 -0.6968
vn -0.2722 0.6345 -0.7234
vn -0.1700 0.5859 0.7924
vn -0.1683 0.3869 0.9066
vn -0.2500 0.3139 0.9160
vn 0.1016 0.3419 0.9342
vn -0.1448 0.7625 0.6306
vn -0.4931 0.8626 0.1133
vn 0.1170 0.9886 0.0945
vn 0.6064 0.7951 -0.0072
vn -0.0122 0.8479 -0.5300
vn -0.4131 0.8003 -0.4346
vn 0.5335 0.4047 -0.7427
vn 0.1717 0.6988 -0.6944
vn 0.0768 0.9256 0.3706
vn 0.0238 0.7043 0.7095
vn 0.0356 0.9909 -0.1301
vn -0.4310 0.8989 -0.0794
vn -0.1448 0.9865 0.0767
vn -0.1970 0.9698 -0.1439
vn 0.3343 0.9272 -0.1689
vn 0.2644 0.9375 0.2261
vn -0.0895 0.9880 -0.1256
vn -0.6599 0.7371 0.1455
vn 0.2762 0.8715 -0.4052
vn -0.0652 0.9949 -0.0764
vn 0.3239 0.9310 0.1680
vn 0.0423 0.9867 -0.1571
vn 0.3577 0.8715 -0.3354
vn -0.3731 0.9110 -0.1754
vn 0.1559 0.9699 -0.1868
vn -0.0986 0.9613 -0.2571
vn -0.3030 0.7438 -0.5958
vn -0.4623 0.7657 0.4471
vn -0.1096 0.9932 -0.0402
vn 0.1743 0.9800 0.0962
vn 0.1777 0.9829 0.0475
vn 0.0712 0.9957 -0.0589
vn -0.1545 0.9582 -0.2408
vn 0.3953 0.9153 -0.0776
vn -0.2416 0.9688 -0.0560
vn -0.1785 0.9572 -0.2279
vn 0.0894 0.9823 -0.1645
vn 0.4437 0.8769 0.1851
vn -0.3630 0.9064 -0.2160
vn 0.2983 0.9358 -0.1880
vn -0.1602 0.7295 -0.6650
vn 0.1679 0.9386 0.3013
vn -0.5240 0.8496 0.0602
vn 0.0328 0.9456 -0.3237
vn 0.1369 0.9899 0.0363
vn 0.5163 0.8559 0.0299
vn -0.3066 0.9419 0.1369
vn 0.1091 0.9384 -0.3279
vn -0.1363 0.9743 -0.1791
vn 0.5516 0.7864 -0.2781
vn -0.4196 0.9076 0.0155
vn -0.0515 0.9680 -0.2457
vn 0.1666 0.8281 0.5352
vn -0.2731 0.9590 -0.0757
vn -0.1902 0.9794 -0.0677
vn 0.1348 0.9010 0.4123
vn 0.1872 0.9804 -0.0622
vn 0.0289 0.9992 -0.0286
vn 0.2838 0.9384 0.1972
vn -0.0211 0.9434 -0.3310
vn 0.3665 0.9242 -0.1068
vn -0.0170 0.9967 -0.0794
vn 0.2902 0.9563 0.0347
vn -0.1734 0.9784 -0.1129
s 1
usemtl Liquid_Domain_Material
f 3//3 1//1 2//2
f 3//3 6//6 1//1
f 1//1 6//6 4//4
f 4//4 6//6 5//5
f 7//7 5//5 6//6
f 6//6 3//3 8//8
f 9//9 3//3 2//2
f 8//8 3//3 9//9
f 8//8 7//7 6//6
f 8//8 9//9 10//10
f 12//12 8//8 10//10
f 7//7 8//8 12//12
f 24//24 4//4 5//5
f 11//11 24//24 5//5
f 5//5 7//7 28//28
f 28//28 7//7 12//12
f 2//2 1//1 13//13
f 9//9 14//14 15//15
f 10//10 9//9 15//15
f 1//1 4//4 25//25
f 10//10 17//17 12//12
f 10//10 15//15 17//17
f 27//27 28//28 12//12
f 24//24 22//22 4//4
f 12//12 17//17 18//18
f 12//12 18//18 16//16
f 4//4 21//21 25//25
f 15//15 23//23 17//17
f 12//12 16//16 27//27
f 4//4 22//22 21//21
f 2//2 20//20 9//9
f 22//22 26//26 21//21
f 24//24 32//32 22//22
f 15//15 14//14 23//23
f 5//5 19//19 11//11
f 27//27 16//16 30//30
f 20//20 14//14 9//9
f 5//5 28//28 19//19
f 23//23 61//61 17//17
f 16//16 18//18 39//39
f 25//25 33//33 1//1
f 22//22 31//31 26//26
f 2//2 13//13 20//20
f 38//38 19//19 28//28
f 61//61 23//23 57//57
f 39//39 18//18 42//42
f 40//40 16//16 39//39
f 25//25 34//34 33//33
f 21//21 35//35 44//44
f 26//26 35//35 21//21
f 31//31 22//22 32//32
f 36//36 37//37 49//49
f 20//20 29//29 14//14
f 59//59 60//60 39//39
f 39//39 42//42 59//59
f 58//58 40//40 39//39
f 14//14 41//41 23//23
f 41//41 57//57 23//23
f 61//61 75//75 17//17
f 18//18 17//17 42//42
f 16//16 40//40 30//30
f 25//25 87//87 34//34
f 43//43 35//35 26//26
f 31//31 43//43 26//26
f 90//90 25//25 21//21
f 31//31 45//45 43//43
f 47//47 65//65 45//45
f 46//46 47//47 45//45
f 48//48 68//68 47//47
f 48//48 49//49 68//68
f 36//36 49//49 48//48
f 67//67 51//51 50//50
f 52//52 37//37 36//36
f 70//70 54//54 51//51
f 51//51 55//55 50//50
f 54//54 55//55 51//51
f 59//59 55//55 54//54
f 56//56 60//60 54//54
f 37//37 58//58 56//56
f 60//60 59//59 54//54
f 58//58 60//60 56//56
f 58//58 39//39 60//60
f 73//73 75//75 61//61
f 59//59 42//42 74//74
f 14//14 29//29 41//41
f 42//42 17//17 75//75
f 31//31 32//32 62//62
f 87//87 25//25 90//90
f 31//31 62//62 45//45
f 21//21 44//44 90//90
f 63//63 35//35 43//43
f 44//44 64//64 76//76
f 35//35 64//64 44//44
f 43//43 45//45 63//63
f 45//45 65//65 63//63
f 45//45 89//89 46//46
f 64//64 35//35 63//63
f 63//63 65//65 64//64
f 46//46 77//77 47//47
f 65//65 66//66 64//64
f 47//47 79//79 65//65
f 79//79 47//47 68//68
f 48//48 47//47 69//69
f 36//36 48//48 69//69
f 79//79 68//68 49//49
f 67//67 50//50 80//80
f 94//94 70//70 51//51
f 54//54 70//70 71//71
f 49//49 37//37 71//71
f 71//71 56//56 54//54
f 72//72 80//80 50//50
f 71//71 37//37 56//56
f 83//83 73//73 53//53
f 55//55 72//72 50//50
f 53//53 73//73 57//57
f 58//58 37//37 52//52
f 53//53 57//57 84//84
f 73//73 61//61 57//57
f 85//85 58//58 52//52
f 55//55 59//59 74//74
f 41//41 84//84 57//57
f 74//74 42//42 86//86
f 42//42 75//75 86//86
f 1//1 33//33 13//13
f 90//90 44//44 76//76
f 89//89 45//45 62//62
f 93//93 76//76 64//64
f 89//89 77//77 46//46
f 95//95 93//93 64//64
f 64//64 66//66 95//95
f 91//91 92//92 78//78
f 69//69 47//47 77//77
f 94//94 67//67 78//78
f 78//78 80//80 91//91
f 78//78 67//67 80//80
f 65//65 79//79 66//66
f 95//95 66//66 94//94
f 51//51 67//67 94//94
f 66//66 70//70 94//94
f 69//69 81//81 36//36
f 66//66 71//71 70//70
f 79//79 71//71 66//66
f 79//79 49//49 71//71
f 82//82 83//83 53//53
f 97//97 80//80 72//72
f 84//84 82//82 53//53
f 52//52 36//36 85//85
f 85//85 36//36 81//81
f 86//86 73//73 83//83
f 72//72 55//55 74//74
f 75//75 73//73 86//86
f 85//85 98//98 58//58
f 40//40 58//58 98//98
f 41//41 29//29 84//84
f 40//40 98//98 30//30
f 13//13 33//33 87//87
f 33//33 34//34 87//87
f 62//62 32//32 24//24
f 24//24 89//89 62//62
f 90//90 92//92 87//87
f 87//87 91//91 13//13
f 91//91 88//88 13//13
f 92//92 91//91 87//87
f 76//76 93//93 90//90
f 93//93 92//92 90//90
f 24//24 19//19 89//89
f 24//24 11//11 19//19
f 94//94 78//78 92//92
f 93//93 94//94 92//92
f 95//95 94//94 93//93
f 89//89 69//69 77//77
f 19//19 69//69 89//89
f 13//13 88//88 20//20
f 96//96 88//88 91//91
f 19//19 38//38 69//69
f 91//91 80//80 97//97
f 91//91 83//83 96//96
f 97//97 83//83 91//91
f 96//96 82//82 88//88
f 38//38 81//81 69//69
f 83//83 82//82 96//96
f 82//82 84//84 88//88
f 88//88 29//29 20//20
f 97//97 72//72 83//83
f 38//38 27//27 81//81
f 72//72 86//86 83//83
f 38//38 28//28 27//27
f 88//88 84//84 29//29
f 72//72 74//74 86//86
f 81//81 98//98 85//85
f 27//27 98//98 81//81
f 27//27 30//30 98//98
