# Blender 4.1.1
# www.blender.org
mtllib aa0660.mtl
o Liquid_Domain
v -8.134167 -8.755833 6.217273
v -8.487272 -8.755834 5.864167
v -8.134167 -9.108939 5.864167
v 8.487272 -8.755833 5.864167
v 8.134167 -9.108939 5.864167
v -8.487272 -8.755834 -5.864167
v -8.134167 -9.108939 -5.864167
v 8.134167 -9.108939 -5.864167
v -8.134167 -8.755833 -6.217273
v 8.134167 -8.755833 -6.217273
v 8.134167 -8.755833 6.217273
v -8.461199 7.059978 5.886017
v -8.486375 5.207800 -5.858424
v -3.878760 3.256695 -6.217197
v -3.240978 5.366189 6.206834
v 8.487272 -8.755833 -5.864167
v 8.474002 6.717567 5.844025
v -8.099678 5.339631 -6.190270
v 3.075374 4.623614 6.192415
v -8.468038 6.704899 1.170059
v -8.135425 6.740242 6.211489
v 3.675293 6.625203 -6.184964
v 8.474701 6.694496 -1.132422
v 8.469265 6.996066 -5.925425
v 1.484177 4.999012 6.152914
v 8.110034 7.054277 6.155737
v -3.933635 4.917425 -6.128353
v -0.811433 5.333737 6.086268
v 6.330199 4.760084 6.207002
v 8.133735 6.761056 -6.217576
v -4.790903 6.936133 6.104531
v 3.031489 5.869884 5.479929
v 5.057682 7.077822 6.117321
v 6.436989 5.517692 5.983093
v -5.973397 5.651284 -5.790076
v -0.688597 6.743641 -6.162787
v 1.432182 6.062298 5.705051
v 0.458796 5.760133 5.396766
v 4.556486 5.624103 2.678196
v 2.172018 5.153996 -1.290125
v -0.799980 5.377610 -2.012864
v 1.029287 5.746912 -1.843386
v 3.108799 5.555121 -2.378599
v 0.391694 5.873081 -2.748491
v 2.569571 5.769758 -3.586249
v -5.345916 5.429642 -3.761668
v -3.369544 5.780010 -4.253095
v -2.250128 5.875786 5.816774
v 7.592270 6.984045 5.977296
v -0.797368 6.128338 4.983024
v -2.981470 5.943038 4.635408
v 0.840638 5.987238 2.956974
v 5.073127 6.078342 4.612290
v 5.709447 6.109716 4.329547
v 4.046459 6.188000 4.058779
v 3.162947 5.577686 0.385108
v 1.621972 5.953678 0.839659
v 6.045207 6.453228 0.792219
v 5.444696 5.470243 -1.271206
v -2.736211 5.680605 -0.264607
v -2.893656 5.648431 -2.852737
v -1.780203 5.707659 -2.408143
v 5.213055 6.405131 -2.706265
v -5.420541 6.015833 -4.809761
v -3.657084 5.995821 -5.147914
v -8.269979 6.888334 -5.430926
v -7.639438 6.884102 -5.581091
v -3.726682 6.697843 5.857213
v 4.034427 6.788692 5.748214
v 3.221930 6.065132 3.922418
v 6.050472 6.407936 5.225155
v 1.678754 6.348716 4.487530
v 0.617730 6.004042 0.233062
v -1.193324 6.246604 0.616973
v -6.479869 5.754595 -3.970593
v -2.044362 7.008825 -3.269409
v 4.655728 6.807833 -3.768344
v 1.359421 6.814023 -4.980175
v 2.911684 6.924721 -5.230884
v 4.526938 6.822995 4.558718
v 6.357393 6.985989 3.755967
v -2.570865 6.553997 2.570635
v -0.380317 6.570210 2.123589
v -6.488973 6.636051 1.601027
v -4.613132 6.274955 1.184038
v -5.127085 6.286169 -1.211894
v 6.764978 7.020930 -1.714330
v -1.077464 6.853178 -2.690554
v -4.320383 7.079879 4.161659
v -8.019185 7.092239 2.420684
v -4.408077 7.021704 2.582298
v -8.076020 7.096128 -2.197212
v -6.337852 7.016570 -1.818479
v 8.117349 7.068715 -1.473133
v -7.353655 6.790225 -4.427288
v 1.303066 7.015956 -5.717825
v -1.611388 6.968254 -5.835976
v 4.961138 7.044624 -5.871638
vn -0.3101 -0.3158 0.8967
vn -0.8645 -0.3427 0.3677
vn -0.3350 -0.8684 0.3657
vn 0.8645 -0.3424 0.3680
vn 0.3350 -0.8684 0.3657
vn -0.8644 -0.3429 -0.3678
vn -0.3350 -0.8684 -0.3657
vn 0.3350 -0.8684 -0.3657
vn -0.3103 -0.3159 -0.8966
vn 0.3101 -0.3158 -0.8967
vn 0.3103 -0.3153 0.8968
vn -0.6230 0.6502 0.4349
vn -0.8817 0.0999 -0.4610
vn -0.0025 0.0178 -0.9998
vn 0.0707 0.1570 0.9851
vn 0.8645 -0.3428 -0.3676
vn 0.8824 0.3162 0.3485
vn -0.2852 0.1963 -0.9381
vn -0.0431 0.1647 0.9854
vn -0.9107 0.4131 0.0009
vn -0.2828 0.2804 0.9173
vn -0.0516 0.4618 -0.8855
vn 0.9275 0.3739 0.0051
vn 0.6332 0.6387 -0.4372
vn 0.0223 0.3726 0.9277
vn 0.2374 0.5872 0.7738
vn -0.0536 0.2929 -0.9546
vn 0.0809 0.6457 0.7593
vn 0.0084 0.0577 0.9983
vn 0.2536 0.3214 -0.9124
vn 0.1180 0.6350 0.7634
vn -0.2527 0.7506 0.6105
vn 0.0978 0.7130 0.6943
vn -0.0423 0.3824 0.9230
vn 0.1667 0.6499 -0.7415
vn -0.0364 0.4347 -0.8998
vn -0.1272 0.7184 0.6839
vn -0.0684 0.8827 0.4649
vn -0.1880 0.9789 -0.0806
vn 0.1940 0.9810 -0.0054
vn -0.0139 0.9885 0.1504
vn 0.1250 0.9915 0.0358
vn -0.1898 0.9314 0.3105
vn 0.1642 0.8609 0.4815
vn -0.0696 0.9061 0.4174
vn 0.1272 0.9906 0.0503
vn -0.3655 0.9143 0.1746
vn 0.1628 0.7865 0.5957
vn -0.3650 0.7081 0.6045
vn 0.0884 0.9452 0.3142
vn 0.3007 0.9467 0.1155
vn 0.1602 0.9871 0.0052
vn 0.2395 0.7286 -0.6417
vn -0.4882 0.8725 -0.0214
vn 0.0348 0.9001 -0.4343
vn -0.0288 0.9853 -0.1684
vn 0.1757 0.9834 -0.0449
vn -0.5663 0.8207 -0.0757
vn -0.4401 0.8902 0.1177
vn 0.0549 0.9835 -0.1726
vn -0.2489 0.9426 0.2226
vn -0.0559 0.8050 0.5906
vn -0.4586 0.7228 0.5170
vn 0.2108 0.9690 0.1286
vn -0.2377 0.9577 -0.1621
vn -0.5789 0.6902 -0.4342
vn 0.1053 0.7584 -0.6432
vn 0.4108 0.7398 0.5328
vn -0.5079 0.6705 0.5408
vn -0.0097 0.9821 -0.1881
vn -0.0518 0.9831 0.1759
vn -0.1385 0.9894 0.0434
vn 0.1238 0.9868 -0.1043
vn -0.0651 0.9650 -0.2539
vn 0.5456 0.8293 0.1209
vn -0.3823 0.8480 0.3672
vn -0.2756 0.9108 0.3075
vn 0.1636 0.9307 0.3270
vn -0.1289 0.9913 0.0261
vn -0.0009 0.7650 -0.6440
vn -0.4017 0.9122 0.0812
vn 0.1032 0.9926 -0.0647
vn 0.1898 0.9815 -0.0258
vn 0.1710 0.9632 -0.2076
vn 0.1474 0.9543 -0.2598
vn 0.3362 0.9370 -0.0951
vn -0.3255 0.9390 0.1115
vn 0.0497 0.6448 0.7628
vn 0.2720 0.9595 0.0740
vn -0.2368 0.9686 -0.0753
vn 0.1371 0.9549 -0.2633
vn -0.3430 0.9387 -0.0355
vn 0.3898 0.9081 -0.1529
vn 0.3563 0.9343 0.0126
vn 0.4422 0.8966 0.0227
vn 0.0940 0.9777 -0.1877
vn -0.2664 0.8059 -0.5287
vn -0.0504 0.9078 -0.4164
s 1
usemtl Liquid_Domain_Material
f 3//3 1//1 2//2
f 3//3 5//5 11//11
f 1//1 3//3 11//11
f 11//11 5//5 4//4
f 7//7 3//3 2//2
f 8//8 4//4 5//5
f 6//6 7//7 2//2
f 5//5 3//3 7//7
f 5//5 7//7 8//8
f 16//16 4//4 8//8
f 7//7 6//6 9//9
f 10//10 7//7 9//9
f 8//8 7//7 10//10
f 16//16 8//8 10//10
f 2//2 1//1 12//12
f 6//6 13//13 9//9
f 2//2 13//13 6//6
f 9//9 14//14 10//10
f 30//30 16//16 10//10
f 17//17 11//11 4//4
f 4//4 16//16 17//17
f 11//11 26//26 29//29
f 26//26 11//11 17//17
f 9//9 13//13 18//18
f 14//14 22//22 10//10
f 15//15 21//21 1//1
f 11//11 15//15 1//1
f 11//11 19//19 15//15
f 11//11 29//29 19//19
f 14//14 9//9 18//18
f 19//19 25//25 15//15
f 14//14 18//18 27//27
f 19//19 29//29 33//33
f 2//2 20//20 13//13
f 10//10 22//22 30//30
f 15//15 25//25 28//28
f 15//15 31//31 21//21
f 19//19 32//32 25//25
f 16//16 24//24 23//23
f 27//27 18//18 35//35
f 14//14 27//27 36//36
f 22//22 14//14 36//36
f 1//1 21//21 12//12
f 32//32 37//37 25//25
f 32//32 19//19 33//33
f 29//29 34//34 33//33
f 12//12 20//20 2//2
f 38//38 28//28 25//25
f 37//37 38//38 25//25
f 16//16 23//23 17//17
f 56//56 40//40 57//57
f 59//59 40//40 56//56
f 60//60 42//42 41//41
f 60//60 41//41 62//62
f 59//59 43//43 40//40
f 44//44 62//62 41//41
f 42//42 44//44 41//41
f 42//42 40//40 45//45
f 43//43 45//45 40//40
f 47//47 46//46 61//61
f 35//35 65//65 27//27
f 15//15 28//28 48//48
f 26//26 49//49 29//29
f 29//29 49//49 34//34
f 28//28 50//50 48//48
f 50//50 28//28 38//38
f 50//50 38//38 52//52
f 52//52 38//38 37//37
f 39//39 53//53 54//54
f 53//53 39//39 55//55
f 55//55 39//39 70//70
f 70//70 56//56 52//52
f 39//39 56//56 70//70
f 56//56 57//57 52//52
f 52//52 57//57 73//73
f 58//58 56//56 39//39
f 58//58 59//59 56//56
f 57//57 42//42 73//73
f 42//42 60//60 74//74
f 73//73 42//42 74//74
f 57//57 40//40 42//42
f 60//60 61//61 86//86
f 62//62 61//61 60//60
f 42//42 45//45 44//44
f 63//63 43//43 59//59
f 61//61 46//46 86//86
f 46//46 75//75 86//86
f 43//43 63//63 45//45
f 75//75 46//46 64//64
f 47//47 65//65 46//46
f 65//65 64//64 46//46
f 64//64 65//65 35//35
f 13//13 66//66 18//18
f 67//67 35//35 18//18
f 68//68 15//15 48//48
f 32//32 33//33 69//69
f 48//48 51//51 68//68
f 37//37 32//32 72//72
f 50//50 51//51 48//48
f 72//72 52//52 37//37
f 54//54 53//53 71//71
f 32//32 70//70 72//72
f 82//82 51//51 50//50
f 52//52 83//83 50//50
f 70//70 52//52 72//72
f 52//52 73//73 83//83
f 85//85 82//82 60//60
f 74//74 60//60 82//82
f 85//85 60//60 86//86
f 83//83 73//73 74//74
f 44//44 88//88 62//62
f 62//62 76//76 61//61
f 63//63 77//77 45//45
f 47//47 61//61 76//76
f 44//44 45//45 78//78
f 77//77 79//79 45//45
f 79//79 78//78 45//45
f 95//95 75//75 64//64
f 95//95 64//64 67//67
f 64//64 35//35 67//67
f 97//97 27//27 65//65
f 67//67 18//18 66//66
f 97//97 36//36 27//27
f 15//15 68//68 31//31
f 71//71 33//33 34//34
f 32//32 69//69 70//70
f 71//71 34//34 49//49
f 51//51 89//89 68//68
f 69//69 55//55 70//70
f 55//55 69//69 80//80
f 71//71 53//53 80//80
f 55//55 80//80 53//53
f 71//71 81//81 54//54
f 81//81 71//71 49//49
f 89//89 51//51 82//82
f 39//39 54//54 81//81
f 82//82 50//50 83//83
f 81//81 58//58 39//39
f 85//85 84//84 91//91
f 82//82 85//85 91//91
f 74//74 82//82 83//83
f 85//85 86//86 84//84
f 58//58 87//87 59//59
f 63//63 59//59 87//87
f 86//86 75//75 93//93
f 75//75 95//95 93//93
f 76//76 62//62 88//88
f 44//44 78//78 88//88
f 20//20 66//66 13//13
f 76//76 97//97 47//47
f 97//97 65//65 47//47
f 24//24 16//16 30//30
f 12//12 21//21 31//31
f 33//33 80//80 69//69
f 31//31 89//89 12//12
f 68//68 89//89 31//31
f 71//71 80//80 33//33
f 12//12 90//90 20//20
f 89//89 90//90 12//12
f 26//26 81//81 49//49
f 91//91 90//90 89//89
f 89//89 82//82 91//91
f 91//91 84//84 90//90
f 26//26 17//17 94//94
f 81//81 87//87 58//58
f 26//26 87//87 81//81
f 94//94 87//87 26//26
f 17//17 23//23 94//94
f 84//84 86//86 90//90
f 90//90 92//92 20//20
f 90//90 93//93 92//92
f 86//86 93//93 90//90
f 20//20 92//92 66//66
f 93//93 95//95 92//92
f 87//87 77//77 63//63
f 78//78 76//76 88//88
f 87//87 98//98 77//77
f 92//92 67//67 66//66
f 95//95 67//67 92//92
f 78//78 96//96 76//76
f 94//94 24//24 87//87
f 94//94 23//23 24//24
f 98//98 79//79 77//77
f 24//24 98//98 87//87
f 96//96 97//97 76//76
f 79//79 22//22 78//78
f 22//22 96//96 78//78
f 98//98 22//22 79//79
f 96//96 36//36 97//97
f 22//22 36//36 96//96
f 30//30 22//22 98//98
f 24//24 30//30 98//98
