# Blender 4.1.1
# www.blender.org
mtllib aa0651.mtl
o Liquid_Domain
v -8.134167 -8.755833 6.217273
v -8.487272 -8.755834 5.864167
v -8.134167 -9.108939 5.864167
v 8.134167 -8.755833 6.217273
v 8.487272 -8.755833 5.864167
v 8.134167 -9.108939 5.864167
v 8.487272 -8.755833 -5.864167
v 8.134167 -9.108939 -5.864167
v -8.134167 -8.755833 -6.217273
v -8.484385 -9.105324 -5.864216
v 8.134167 -8.755833 -6.217273
v 8.470169 6.667793 5.860970
v -8.480392 6.600839 -5.859499
v -8.139001 4.232539 -6.217499
v 1.800918 4.164582 6.188174
v -2.204890 4.698434 6.205626
v 6.051071 5.066519 6.188701
v 8.464685 6.690270 -0.451519
v -8.460878 6.636256 0.529633
v -2.395300 5.319848 -6.200309
v 5.204638 5.649556 6.146025
v 8.136618 6.478383 6.202290
v 8.484200 6.761229 -5.862030
v -8.417116 6.963315 6.115193
v 2.128586 5.440466 5.584116
v -7.065720 5.340900 -6.132029
v -5.251765 5.403784 -6.145258
v 3.634293 6.690501 -6.188897
v 8.146692 7.053169 -6.206461
v -1.859582 5.670658 5.863048
v 3.564777 6.759381 6.067400
v 2.054775 4.912126 -0.479946
v 1.034356 5.057615 -1.896171
v -0.465449 5.079069 -2.343343
v 1.345820 5.382965 -2.713122
v -1.355973 5.328461 -3.643285
v -0.514911 5.539562 -3.298708
v -0.413501 6.930159 -6.106450
v -3.942747 5.905158 6.162622
v 0.102947 5.459859 5.821219
v 4.280364 5.293167 -1.129003
v -1.742166 5.584665 -1.316332
v -0.189170 5.620833 -1.324167
v -0.189165 5.620833 -1.324167
v -0.189167 5.620833 -1.324167
v 3.774841 5.760339 -2.280991
v 3.125422 5.852744 -3.478775
v -7.956733 6.988133 -6.113389
v -2.958761 5.976624 5.033421
v -1.162297 6.118533 4.608799
v 1.755490 6.144132 4.378561
v 0.093709 5.952227 3.657120
v 4.435543 5.862016 4.005001
v 2.890273 5.369721 1.730403
v 3.409352 5.663575 2.412161
v 1.207256 5.707195 1.185341
v -3.418203 5.667643 -0.505274
v 5.692943 5.936656 -0.869042
v -0.189167 5.620833 -1.324167
v -3.871454 5.426875 -3.977829
v 0.285690 6.930997 -3.549765
v 2.497303 6.600632 -4.493386
v -0.900724 6.805742 -3.512051
v -2.118082 6.162387 -4.694881
v -4.110903 6.065805 -4.981307
v -3.715218 5.935690 -5.758921
v 7.841590 7.090105 6.052357
v 5.459535 5.970974 5.179925
v -3.643382 5.885101 4.164262
v 3.461056 6.615739 4.535327
v -2.852560 6.195744 1.750808
v 5.263731 6.587152 1.318728
v -1.145765 6.398623 1.554935
v -4.246346 6.327692 1.322155
v -6.318592 6.213433 0.448993
v 0.397829 5.899955 -0.654066
v -5.624510 6.079047 -1.962931
v 6.328463 7.019823 -1.955098
v 4.983901 7.000892 -3.788364
v -6.253709 5.946561 -4.305817
v -7.261802 6.954724 -4.947221
v -6.332946 6.146909 -5.332401
v -2.473968 6.518173 -4.974092
v -5.162575 6.415313 -5.629298
v -4.215631 6.799480 5.886194
v 4.534631 7.035492 5.985749
v 4.523213 6.858755 5.033473
v 6.335251 6.933290 4.522639
v -4.594380 7.111865 2.645469
v -6.576570 6.295870 1.929296
v -8.148392 7.055605 -0.440885
v -1.615085 6.803396 -5.682441
v -6.356200 7.025624 3.208464
v -5.240299 7.050791 4.446896
v -8.217623 6.893903 1.692459
v 6.845673 7.038754 -0.117636
v -6.626340 7.044321 -0.995534
v 8.110543 7.043572 0.237789
v 2.356605 7.017991 -5.848087
vn -0.3085 -0.3172 0.8968
vn -0.8640 -0.3415 0.3701
vn -0.3319 -0.8676 0.3704
vn 0.3101 -0.3153 0.8969
vn 0.8646 -0.3426 0.3676
vn 0.3350 -0.8684 0.3656
vn 0.8646 -0.3428 -0.3674
vn 0.3350 -0.8684 -0.3656
vn -0.2819 -0.2863 -0.9158
vn -0.6221 -0.6502 -0.4361
vn 0.3101 -0.3158 -0.8967
vn 0.8319 0.4117 0.3722
vn -0.8162 0.3624 -0.4501
vn -0.3474 0.0185 -0.9375
vn -0.0235 0.1422 0.9896
vn 0.0426 0.1293 0.9907
vn -0.0644 0.1914 0.9794
vn 0.9230 0.3847 0.0031
vn -0.9411 0.3380 0.0085
vn -0.0736 0.2515 -0.9651
vn 0.2890 0.3085 0.9062
vn 0.3044 0.1612 0.9388
vn 0.8908 0.3444 -0.2966
vn -0.4982 0.5287 0.6872
vn -0.3186 0.6997 0.6394
vn 0.0849 0.2495 -0.9647
vn -0.0013 0.3313 -0.9435
vn -0.0217 0.3063 -0.9517
vn 0.3448 0.5614 -0.7523
vn 0.1473 0.6545 0.7416
vn -0.3173 0.6081 0.7277
vn 0.0989 0.9866 -0.1299
vn 0.0240 0.9995 0.0197
vn 0.0989 0.9951 -0.0057
vn -0.0772 0.8525 0.5169
vn -0.2837 0.7555 0.5905
vn -0.2861 -0.0220 0.9580
vn -0.0987 0.6503 -0.7532
vn 0.0747 0.1921 0.9785
vn 0.0702 0.6546 0.7527
vn -0.3253 0.9383 0.1173
vn 0.0257 0.9749 -0.2210
vn -0.0000 -0.0000 -0.0000
vn 0.0429 0.8444 -0.5340
vn -0.0089 0.9110 -0.4124
vn -0.3237 0.8717 0.3679
vn -0.2217 0.8517 0.4748
vn -0.0138 0.6377 -0.7701
vn 0.1909 0.9748 -0.1156
vn 0.0902 0.9757 0.1999
vn -0.1490 0.9837 0.1002
vn 0.1165 0.9925 0.0378
vn -0.0135 0.9715 -0.2366
vn -0.1751 0.9781 -0.1128
vn -0.2455 0.9581 -0.1472
vn 0.2941 0.9512 -0.0933
vn 0.0372 0.9852 -0.1673
vn -0.5386 0.8400 0.0657
vn -0.0082 0.9827 -0.1851
vn 0.0702 0.9624 0.2625
vn 0.0341 0.7596 0.6494
vn 0.0123 0.8859 0.4637
vn -0.3385 0.5803 0.7407
vn -0.2876 0.7392 0.6090
vn 0.0163 0.9547 0.2971
vn 0.0385 0.7675 -0.6399
vn 0.0562 0.7303 0.6808
vn 0.0838 0.9281 0.3628
vn 0.2981 0.9544 0.0125
vn -0.1319 0.9520 -0.2763
vn 0.0755 0.9917 -0.1042
vn -0.3804 0.9212 -0.0823
vn 0.0553 0.9972 -0.0505
vn 0.0279 0.9148 -0.4030
vn 0.3726 0.9210 0.1136
vn 0.2447 0.9314 -0.2693
vn 0.4964 0.8674 -0.0348
vn -0.2665 0.9476 0.1760
vn -0.1973 0.9581 0.2075
vn 0.4345 0.8985 0.0625
vn 0.4220 0.8844 -0.1994
vn 0.0557 0.9296 -0.3644
vn -0.1305 0.9293 0.3454
vn 0.0171 0.9064 -0.4222
vn 0.2588 0.7878 0.5590
vn 0.2560 0.7603 0.5970
vn 0.3218 0.8610 -0.3938
vn -0.3511 0.9188 0.1803
vn 0.2014 0.9682 -0.1487
vn 0.1513 0.9271 -0.3429
vn -0.4498 0.8931 0.0091
vn -0.4000 0.8255 -0.3981
vn -0.0320 0.9862 -0.1625
vn 0.2355 0.9714 0.0311
vn -0.2135 0.9754 -0.0550
vn -0.2714 0.9608 -0.0563
vn 0.4301 0.8993 0.0790
vn 0.3729 0.9278 0.0062
vn 0.0059 0.9606 -0.2780
s 1
usemtl Liquid_Domain_Material
f 3//3 1//1 2//2
f 1//1 3//3 4//4
f 3//3 6//6 4//4
f 4//4 6//6 5//5
f 6//6 3//3 10//10
f 7//7 5//5 6//6
f 8//8 6//6 10//10
f 10//10 3//3 2//2
f 8//8 7//7 6//6
f 8//8 10//10 9//9
f 11//11 8//8 9//9
f 7//7 8//8 11//11
f 22//22 4//4 5//5
f 12//12 22//22 5//5
f 10//10 13//13 9//9
f 29//29 7//7 11//11
f 9//9 14//14 11//11
f 2//2 1//1 24//24
f 4//4 16//16 1//1
f 2//2 19//19 10//10
f 11//11 20//20 28//28
f 15//15 16//16 4//4
f 4//4 22//22 17//17
f 7//7 18//18 5//5
f 11//11 14//14 20//20
f 4//4 21//21 15//15
f 17//17 21//21 4//4
f 14//14 26//26 20//20
f 15//15 21//21 31//31
f 10//10 19//19 13//13
f 9//9 13//13 14//14
f 20//20 26//26 27//27
f 1//1 16//16 24//24
f 12//12 5//5 18//18
f 11//11 28//28 29//29
f 16//16 40//40 30//30
f 15//15 40//40 16//16
f 15//15 25//25 40//40
f 15//15 31//31 25//25
f 2//2 24//24 19//19
f 41//41 33//33 32//32
f 35//35 34//34 33//33
f 35//35 36//36 34//34
f 35//35 37//37 36//36
f 7//7 23//23 18//18
f 16//16 39//39 24//24
f 16//16 30//30 39//39
f 55//55 32//32 54//54
f 76//76 56//56 32//32
f 54//54 32//32 56//56
f 32//32 33//33 76//76
f 33//33 34//34 42//42
f 45//45 42//42 43//43
f 45//45 33//33 42//42
f 44//44 33//33 45//45
f 44//44 76//76 33//33
f 33//33 41//41 46//46
f 57//57 42//42 60//60
f 46//46 35//35 33//33
f 34//34 36//36 42//42
f 47//47 35//35 46//46
f 36//36 60//60 42//42
f 64//64 60//60 36//36
f 14//14 13//13 48//48
f 26//26 14//14 48//48
f 27//27 66//66 20//20
f 20//20 38//38 28//28
f 68//68 21//21 17//17
f 40//40 50//50 30//30
f 51//51 40//40 25//25
f 50//50 49//49 30//30
f 52//52 50//50 40//40
f 51//51 52//52 40//40
f 52//52 51//51 54//54
f 55//55 54//54 51//51
f 54//54 56//56 52//52
f 53//53 72//72 55//55
f 72//72 32//32 55//55
f 71//71 57//57 74//74
f 73//73 57//57 71//71
f 73//73 42//42 57//57
f 76//76 42//42 73//73
f 41//41 32//32 72//72
f 58//58 41//41 72//72
f 43//43 42//42 59//59
f 59//59 42//42 76//76
f 76//76 44//44 59//59
f 75//75 60//60 77//77
f 57//57 60//60 75//75
f 43//43 59//59 45//45
f 44//44 45//45 59//59
f 41//41 58//58 46//46
f 61//61 37//37 35//35
f 61//61 63//63 37//37
f 62//62 61//61 35//35
f 47//47 62//62 35//35
f 77//77 60//60 80//80
f 63//63 36//36 37//37
f 64//64 36//36 63//63
f 80//80 60//60 65//65
f 64//64 65//65 60//60
f 82//82 84//84 26//26
f 84//84 27//27 26//26
f 84//84 66//66 27//27
f 85//85 39//39 30//30
f 21//21 86//86 31//31
f 30//30 49//49 85//85
f 49//49 69//69 85//85
f 25//25 31//31 70//70
f 53//53 87//87 68//68
f 70//70 51//51 25//25
f 70//70 87//87 53//53
f 50//50 69//69 49//49
f 70//70 55//55 51//51
f 53//53 55//55 70//70
f 88//88 53//53 68//68
f 52//52 73//73 50//50
f 88//88 72//72 53//53
f 52//52 56//56 73//73
f 50//50 73//73 69//69
f 73//73 71//71 69//69
f 56//56 76//76 73//73
f 90//90 57//57 75//75
f 74//74 57//57 90//90
f 46//46 58//58 78//78
f 79//79 46//46 78//78
f 47//47 46//46 79//79
f 80//80 82//82 81//81
f 83//83 65//65 64//64
f 84//84 82//82 80//80
f 80//80 65//65 84//84
f 65//65 66//66 84//84
f 83//83 66//66 65//65
f 82//82 26//26 81//81
f 20//20 66//66 83//83
f 83//83 92//92 20//20
f 20//20 92//92 38//38
f 39//39 85//85 24//24
f 17//17 22//22 67//67
f 67//67 22//22 12//12
f 21//21 68//68 86//86
f 86//86 68//68 87//87
f 17//17 67//67 68//68
f 68//68 67//67 88//88
f 85//85 69//69 94//94
f 89//89 94//94 69//69
f 69//69 71//71 89//89
f 95//95 93//93 90//90
f 89//89 90//90 93//93
f 71//71 74//74 89//89
f 89//89 74//74 90//90
f 95//95 90//90 75//75
f 95//95 91//91 19//19
f 75//75 97//97 95//95
f 96//96 58//58 72//72
f 75//75 77//77 97//97
f 78//78 58//58 96//96
f 77//77 80//80 97//97
f 81//81 97//97 80//80
f 79//79 62//62 47//47
f 64//64 63//63 92//92
f 83//83 64//64 92//92
f 26//26 48//48 81//81
f 28//28 38//38 99//99
f 23//23 7//7 29//29
f 85//85 94//94 24//24
f 94//94 93//93 24//24
f 86//86 70//70 31//31
f 86//86 87//87 70//70
f 93//93 95//95 24//24
f 67//67 98//98 88//88
f 94//94 89//89 93//93
f 98//98 96//96 88//88
f 67//67 12//12 98//98
f 24//24 95//95 19//19
f 12//12 18//18 98//98
f 96//96 72//72 88//88
f 95//95 97//97 91//91
f 98//98 78//78 96//96
f 97//97 81//81 91//91
f 98//98 79//79 78//78
f 61//61 38//38 63//63
f 81//81 48//48 91//91
f 61//61 62//62 99//99
f 18//18 23//23 29//29
f 98//98 18//18 29//29
f 91//91 48//48 19//19
f 63//63 38//38 92//92
f 99//99 38//38 61//61
f 79//79 99//99 62//62
f 98//98 29//29 79//79
f 19//19 48//48 13//13
f 29//29 99//99 79//79
f 29//29 28//28 99//99
