# Blender 4.1.1
# www.blender.org
mtllib aa0677.mtl
o Liquid_Domain
v -8.134167 -8.755833 6.217273
v -8.482506 -9.103819 5.866426
v 8.134167 -8.755833 6.217273
v -8.134167 -9.108939 -5.864167
v 8.480673 -9.103596 5.866179
v -8.487272 -8.755834 -5.864167
v 8.487272 -8.755833 -5.864167
v 8.134167 -9.108939 -5.864167
v -8.134167 -8.755833 -6.217273
v 8.134167 -8.755833 -6.217273
v -8.486984 6.787192 5.844899
v -4.439226 4.921949 -6.205501
v -8.034284 3.714877 -6.191837
v 5.008005 4.822144 6.206092
v 1.008441 5.066238 6.189830
v 8.146139 6.979917 6.194804
v 2.780337 5.230625 6.171303
v 3.605719 5.169003 -6.186635
v -0.937332 4.375845 6.209820
v -1.818360 5.630898 6.106822
v 8.446804 6.695028 -5.893118
v -8.034369 5.334852 -6.051786
v -6.658834 4.670425 -5.879447
v -2.797362 5.959684 -6.156354
v -0.394303 5.279466 -6.152891
v -4.305188 6.669438 6.153067
v -8.428052 6.634724 -5.831236
v 6.205467 6.555494 -6.147555
v -0.494982 5.524507 5.862840
v 1.941934 5.792268 5.716957
v 4.484566 5.673376 5.678673
v 8.457658 6.665485 5.876008
v -8.152770 7.066577 6.195445
v 0.540361 6.025530 5.741177
v 4.077692 5.658175 0.309824
v 4.539811 5.288387 -1.680887
v -5.693376 5.485668 -2.622338
v -4.659371 5.588871 -5.806026
v 2.992574 6.809089 5.502444
v 3.890881 5.992262 5.197148
v 5.695544 6.031834 4.088576
v 5.152893 5.774689 2.841233
v 4.673041 5.681642 1.926837
v 6.274254 5.882798 -0.683996
v -1.183440 5.465509 -1.775760
v -2.282915 5.989429 -1.084836
v 3.386399 5.876869 -2.576069
v 0.520926 5.801539 -2.409302
v -7.370568 6.725617 -2.033973
v -0.716178 6.077876 -2.972371
v 5.038249 6.254951 -3.093657
v -6.813464 5.639580 -3.009005
v 2.393311 5.777892 -3.308586
v -4.405661 6.636619 -3.135257
v -6.914034 5.685791 -4.936926
v -6.048710 5.634259 -4.456749
v 4.877000 6.168617 -4.304237
v 2.910594 5.726499 -5.841013
v -0.441825 5.984006 -5.872472
v 6.002242 6.877067 6.134050
v 5.220266 6.682039 4.952140
v 1.757332 6.135654 3.493844
v 2.747649 6.563374 4.094792
v 3.025966 6.046268 2.838880
v 1.704064 6.276702 1.222201
v 3.293813 6.510496 1.269018
v -1.752599 5.988697 0.373250
v 2.625653 6.631526 0.182017
v -0.189018 5.965760 -0.813865
v 1.248943 5.860995 -0.429610
v -2.149621 6.793370 -1.789596
v -0.579678 6.319690 -4.383300
v 1.635840 5.768066 -5.181828
v -2.985398 6.543107 -5.815406
v 5.780351 6.935356 -5.749744
v -8.041204 6.996275 -5.845460
v -1.629110 6.786050 4.118098
v -0.339061 6.599733 4.305466
v 6.919059 7.027771 2.489039
v -2.162701 6.748856 2.900556
v -2.884931 6.285853 1.705703
v 0.075063 6.950926 1.182251
v -3.517385 6.444944 -1.120372
v 7.289323 6.998345 -0.761977
v -4.762368 6.425423 -1.749554
v -3.491810 6.988000 -1.858135
v 6.137974 7.022779 -2.926759
v -3.192458 6.938002 -3.930695
v 6.438894 7.032938 -4.500986
v -4.042324 7.006426 5.841455
v 6.841516 7.030482 4.584013
v -3.102441 7.078104 3.959089
v -3.828358 7.051330 2.275418
v -8.068705 7.059090 -1.402463
v 0.306364 7.156979 2.704791
v 8.155129 7.005363 -6.180470
v -4.350918 7.006797 -0.262186
v -1.919379 7.028565 -3.621091
vn -0.2817 -0.2856 0.9160
vn -0.6216 -0.6502 0.4369
vn 0.2826 -0.2858 0.9157
vn -0.3319 -0.8676 -0.3703
vn 0.6221 -0.6504 0.4359
vn -0.8638 -0.3381 -0.3735
vn 0.8640 -0.3391 -0.3722
vn 0.3319 -0.8676 -0.3702
vn -0.3108 -0.3148 -0.8968
vn 0.3101 -0.3154 -0.8968
vn -0.8898 0.3518 0.2906
vn -0.0963 0.2140 -0.9721
vn -0.2932 0.0544 -0.9545
vn -0.0615 0.1283 0.9898
vn -0.0097 0.2410 0.9705
vn 0.3456 0.5612 0.7521
vn 0.0009 0.2974 0.9547
vn -0.0411 0.1902 -0.9809
vn 0.0204 0.0891 0.9958
vn 0.1930 0.4440 0.8750
vn 0.9028 0.2913 -0.3164
vn 0.0867 0.1864 -0.9786
vn -0.0339 0.5217 -0.8525
vn -0.0372 0.3075 -0.9508
vn 0.0207 0.2603 -0.9653
vn 0.0886 0.3523 0.9317
vn -0.6911 0.3228 -0.6467
vn -0.1292 0.3654 -0.9219
vn -0.0285 0.5243 0.8511
vn -0.1435 0.7316 0.6664
vn -0.1429 0.6917 0.7079
vn 0.9026 0.3035 0.3054
vn -0.3460 0.5583 0.7540
vn 0.0162 0.7340 0.6790
vn 0.4396 0.8871 -0.1409
vn -0.0143 0.9805 0.1960
vn -0.1684 0.9182 -0.3585
vn -0.2820 0.6788 -0.6781
vn -0.0004 0.9059 0.4234
vn 0.4294 0.9003 -0.0709
vn -0.4270 0.8728 -0.2364
vn -0.2808 0.9571 -0.0710
vn 0.1084 0.9941 -0.0017
vn -0.5513 0.8296 0.0885
vn 0.2260 0.9527 0.2031
vn 0.4306 0.8678 0.2481
vn 0.0148 0.9962 0.0855
vn -0.0216 0.9994 0.0281
vn 0.3698 0.8791 -0.3008
vn 0.3462 0.8865 0.3069
vn -0.3903 0.8959 0.2123
vn 0.5207 0.8297 -0.2012
vn -0.0681 0.9972 -0.0294
vn -0.4512 0.8892 -0.0761
vn 0.4389 0.8089 -0.3911
vn -0.1204 0.9911 -0.0571
vn -0.3541 0.9343 0.0400
vn -0.0721 0.8314 -0.5510
vn 0.1256 0.7312 -0.6706
vn -0.2462 0.6150 0.7491
vn -0.6338 0.7017 -0.3254
vn 0.1155 0.9912 0.0652
vn 0.0415 0.9902 -0.1335
vn 0.1531 0.9882 0.0041
vn 0.1086 0.9936 -0.0319
vn 0.2524 0.9653 0.0666
vn 0.0112 0.9797 -0.2000
vn 0.0480 0.9958 -0.0786
vn -0.0821 0.9600 -0.2675
vn -0.1745 0.9778 -0.1157
vn 0.4148 0.7588 0.5021
vn 0.2888 0.9547 -0.0715
vn 0.0945 0.9955 0.0073
vn -0.1307 0.7857 -0.6047
vn -0.2811 0.8756 -0.3927
vn 0.1005 0.7070 -0.7000
vn 0.1131 0.9619 0.2487
vn 0.1757 0.9309 0.3202
vn -0.3147 0.9484 -0.0396
vn 0.0257 0.9831 -0.1814
vn 0.2646 0.9294 -0.2573
vn 0.0130 0.9512 -0.3082
vn 0.1869 0.9642 0.1882
vn -0.4466 0.8935 0.0477
vn -0.1436 0.9562 -0.2551
vn -0.1337 0.9400 0.3139
vn -0.3433 0.9298 0.1330
vn -0.2180 0.9585 -0.1839
vn -0.2022 0.9792 0.0162
vn 0.1814 0.8450 0.5030
vn -0.1949 0.9753 -0.1040
vn 0.1219 0.9925 0.0025
vn 0.2096 0.9670 -0.1449
vn -0.2921 0.9514 -0.0973
vn 0.2056 0.9750 0.0847
vn 0.3402 0.5666 -0.7505
vn 0.2346 0.9569 -0.1713
vn 0.2564 0.9660 -0.0347
s 1
usemtl Liquid_Domain_Material
f 2//2 5//5 1//1
f 1//1 5//5 3//3
f 6//6 4//4 2//2
f 7//7 5//5 8//8
f 5//5 2//2 8//8
f 8//8 2//2 4//4
f 4//4 6//6 9//9
f 8//8 4//4 9//9
f 10//10 8//8 9//9
f 7//7 8//8 10//10
f 6//6 27//27 9//9
f 21//21 7//7 10//10
f 16//16 3//3 5//5
f 32//32 16//16 5//5
f 32//32 5//5 7//7
f 6//6 2//2 11//11
f 3//3 16//16 14//14
f 96//96 21//21 10//10
f 2//2 1//1 11//11
f 9//9 12//12 10//10
f 9//9 13//13 12//12
f 3//3 19//19 1//1
f 3//3 14//14 15//15
f 3//3 15//15 19//19
f 9//9 27//27 13//13
f 14//14 17//17 15//15
f 10//10 12//12 18//18
f 13//13 27//27 22//22
f 13//13 22//22 23//23
f 13//13 23//23 12//12
f 12//12 25//25 18//18
f 10//10 18//18 96//96
f 14//14 16//16 60//60
f 11//11 27//27 6//6
f 19//19 33//33 1//1
f 19//19 26//26 33//33
f 19//19 20//20 26//26
f 19//19 29//29 20//20
f 19//19 15//15 29//29
f 15//15 17//17 30//30
f 14//14 31//31 17//17
f 32//32 7//7 21//21
f 22//22 55//55 23//23
f 12//12 24//24 25//25
f 96//96 18//18 28//28
f 34//34 29//29 15//15
f 15//15 30//30 34//34
f 43//43 36//36 35//35
f 37//37 56//56 52//52
f 55//55 56//56 38//38
f 38//38 23//23 55//55
f 38//38 12//12 23//23
f 24//24 12//12 38//38
f 18//18 25//25 59//59
f 18//18 59//59 58//58
f 39//39 30//30 17//17
f 31//31 39//39 17//17
f 20//20 29//29 77//77
f 31//31 40//40 39//39
f 62//62 34//34 30//30
f 31//31 41//41 40//40
f 41//41 42//42 40//40
f 42//42 43//43 40//40
f 43//43 64//64 40//40
f 44//44 43//43 42//42
f 44//44 36//36 43//43
f 69//69 45//45 67//67
f 45//45 46//46 67//67
f 48//48 45//45 69//69
f 70//70 48//48 69//69
f 36//36 47//47 35//35
f 36//36 44//44 51//51
f 45//45 50//50 46//46
f 49//49 37//37 52//52
f 48//48 50//50 45//45
f 47//47 53//53 48//48
f 51//51 47//47 36//36
f 53//53 73//73 48//48
f 56//56 55//55 52//52
f 37//37 54//54 56//56
f 57//57 58//58 53//53
f 38//38 56//56 54//54
f 58//58 73//73 53//53
f 58//58 59//59 73//73
f 25//25 24//24 59//59
f 75//75 18//18 58//58
f 20//20 90//90 26//26
f 60//60 31//31 14//14
f 60//60 61//61 31//31
f 29//29 34//34 77//77
f 34//34 62//62 78//78
f 41//41 31//31 61//61
f 78//78 62//62 95//95
f 63//63 62//62 30//30
f 63//63 30//30 39//39
f 40//40 64//64 63//63
f 63//63 64//64 62//62
f 64//64 65//65 62//62
f 64//64 43//43 66//66
f 64//64 66//66 65//65
f 67//67 81//81 80//80
f 83//83 81//81 67//67
f 80//80 69//69 67//67
f 68//68 66//66 35//35
f 66//66 43//43 35//35
f 68//68 70//70 65//65
f 67//67 46//46 83//83
f 68//68 48//48 70//70
f 68//68 35//35 47//47
f 47//47 48//48 68//68
f 50//50 71//71 46//46
f 85//85 54//54 37//37
f 48//48 72//72 50//50
f 53//53 47//47 51//51
f 52//52 55//55 49//49
f 57//57 53//53 51//51
f 48//48 73//73 72//72
f 38//38 54//54 88//88
f 88//88 74//74 38//38
f 75//75 58//58 57//57
f 22//22 76//76 55//55
f 27//27 76//76 22//22
f 72//72 59//59 74//74
f 73//73 59//59 72//72
f 74//74 24//24 38//38
f 59//59 24//24 74//74
f 28//28 18//18 75//75
f 1//1 33//33 11//11
f 90//90 20//20 77//77
f 77//77 34//34 78//78
f 39//39 40//40 63//63
f 91//91 41//41 61//61
f 91//91 79//79 41//41
f 41//41 79//79 42//42
f 81//81 93//93 80//80
f 65//65 95//95 62//62
f 95//95 65//65 82//82
f 83//83 93//93 81//81
f 42//42 79//79 44//44
f 69//69 80//80 82//82
f 66//66 68//68 65//65
f 65//65 70//70 82//82
f 79//79 84//84 44//44
f 70//70 69//69 82//82
f 86//86 85//85 83//83
f 71//71 86//86 83//83
f 46//46 71//71 83//83
f 37//37 49//49 85//85
f 44//44 87//87 51//51
f 87//87 44//44 84//84
f 54//54 85//85 86//86
f 50//50 72//72 71//71
f 72//72 98//98 71//71
f 87//87 57//57 51//51
f 57//57 87//87 89//89
f 76//76 49//49 55//55
f 98//98 72//72 74//74
f 89//89 75//75 57//57
f 33//33 26//26 90//90
f 16//16 91//91 60//60
f 90//90 92//92 33//33
f 60//60 91//91 61//61
f 90//90 77//77 92//92
f 78//78 95//95 77//77
f 33//33 94//94 11//11
f 92//92 94//94 33//33
f 77//77 80//80 92//92
f 95//95 80//80 77//77
f 16//16 79//79 91//91
f 92//92 80//80 93//93
f 93//93 94//94 92//92
f 96//96 79//79 16//16
f 32//32 21//21 96//96
f 16//16 32//32 96//96
f 95//95 82//82 80//80
f 83//83 97//97 93//93
f 96//96 84//84 79//79
f 93//93 97//97 94//94
f 83//83 85//85 97//97
f 97//97 85//85 94//94
f 11//11 94//94 27//27
f 85//85 49//49 94//94
f 96//96 87//87 84//84
f 71//71 98//98 86//86
f 94//94 76//76 27//27
f 49//49 76//76 94//94
f 86//86 88//88 54//54
f 98//98 88//88 86//86
f 96//96 89//89 87//87
f 98//98 74//74 88//88
f 96//96 75//75 89//89
f 96//96 28//28 75//75
