# Blender 4.1.1
# www.blender.org
mtllib aa0668.mtl
o Liquid_Domain
v -8.134167 -8.755833 6.217273
v -8.487272 -8.755834 5.864167
v -8.134167 -9.108939 5.864167
v 8.134167 -8.755833 6.217273
v 8.487272 -8.755833 5.864167
v 8.487272 -8.755833 -5.864167
v 8.134167 -9.108939 5.864167
v -8.487272 -8.755834 -5.864167
v -8.134167 -9.108939 -5.864167
v 8.134167 -9.108939 -5.864167
v -8.134167 -8.755833 -6.217273
v 8.134167 -8.755833 -6.217273
v 8.459918 6.992750 5.888285
v -8.463728 7.086929 5.877443
v -8.479874 6.471966 -5.805315
v -4.378048 4.440370 -6.209890
v -1.999743 4.784195 6.208719
v -8.129448 3.720268 -6.216923
v 3.632218 4.383482 6.198270
v 2.451158 5.558448 6.110371
v -8.128687 6.772561 6.208786
v 8.475738 6.686686 -0.647805
v -8.478827 6.695261 -0.222296
v -7.157429 5.080343 -6.096277
v 5.752169 6.965904 6.154968
v -5.027070 5.419806 -5.610926
v 0.963534 6.051226 -6.154433
v -1.419579 5.600210 5.857730
v 1.173566 5.712962 5.700441
v 3.689865 5.542656 5.790745
v 8.371827 6.982591 3.553088
v 8.441537 6.845306 -6.184679
v -6.734584 5.987892 -5.059927
v -8.047039 6.750770 -5.988702
v -2.142130 6.283152 -6.158742
v -3.425062 6.535686 6.063350
v 8.140757 6.718396 6.204677
v 3.948925 5.752875 2.228489
v 4.523595 5.469149 2.001597
v 4.492286 5.551828 -0.018335
v 5.001730 5.295791 -1.577084
v 2.958748 5.621131 -1.390797
v 3.468243 5.551712 -2.358807
v -5.993032 5.407113 -3.363009
v -4.695407 5.317798 -3.805706
v -2.277488 6.110391 4.682878
v 2.243832 6.595120 5.251583
v 3.618903 5.953305 5.009892
v -0.535323 6.098188 5.177413
v 1.234455 6.076895 3.389878
v 3.213227 5.890368 2.971535
v 1.656017 5.954341 2.372055
v 5.962306 5.926884 0.044717
v -0.553081 5.511598 -1.907039
v 2.486814 6.024659 -0.196988
v -2.688722 5.660342 -1.390687
v 1.415751 6.050051 -1.433698
v -4.150476 5.779551 -2.506293
v -1.730014 5.771338 -1.775882
v -3.810760 5.966206 -2.887368
v 5.478848 6.627188 -3.187281
v -5.211053 6.108559 -2.031437
v -0.187663 5.975739 -2.774952
v -7.070227 6.053257 -3.409797
v 2.105965 5.898620 -3.960169
v -4.597978 5.701298 -4.884411
v -2.408561 6.726508 -5.784026
v -4.605423 7.014752 5.991118
v 4.835070 6.845875 5.739257
v 4.429989 6.214772 4.279353
v 5.237232 5.748958 4.028661
v 6.167316 6.746543 3.400427
v 7.100774 6.996462 1.896383
v -2.447296 6.139815 1.142623
v 1.008972 5.963847 -0.115103
v 2.355140 6.377527 0.810481
v -0.472374 6.446016 0.609085
v -2.090306 6.776848 -1.945937
v -0.351286 6.645185 -3.706239
v -3.416460 6.843345 -3.333680
v 0.580160 6.673440 -5.809447
v -3.988118 6.606571 1.578641
v 6.969913 6.904632 -0.775618
v 3.965473 6.946740 -5.326420
v 2.014403 6.923798 -5.771769
v 6.502963 7.004418 4.719680
v -8.134428 7.041780 -1.765541
v -2.468228 6.832672 3.033453
v -0.015593 6.836463 2.374467
v -6.306014 7.020694 -1.943861
v -4.836112 7.070108 1.850923
v 8.118536 7.042623 -1.939231
v -4.859118 6.781342 -0.368634
v -7.747905 6.964696 -2.982795
v 6.433498 7.049723 -3.351226
v -1.888626 7.090380 -3.075099
v -7.630234 7.106620 -4.889452
v -0.818023 7.026242 -5.857058
v 5.329069 7.027898 -5.936509
vn -0.3102 -0.3158 0.8967
vn -0.8645 -0.3427 0.3677
vn -0.3350 -0.8684 0.3657
vn 0.3101 -0.3156 0.8968
vn 0.8646 -0.3426 0.3674
vn 0.8647 -0.3461 -0.3641
vn 0.3350 -0.8684 0.3657
vn -0.8644 -0.3421 -0.3684
vn -0.3350 -0.8684 -0.3657
vn 0.3350 -0.8684 -0.3657
vn -0.3108 -0.3154 -0.8966
vn 0.3078 -0.3185 -0.8966
vn 0.6374 0.6523 0.4101
vn -0.6223 0.6538 0.4305
vn -0.7913 0.3738 -0.4838
vn -0.0465 0.1740 -0.9836
vn 0.0471 0.1251 0.9910
vn -0.3645 0.0263 -0.9308
vn -0.0026 0.0881 0.9961
vn 0.0714 0.4339 0.8981
vn -0.2765 0.2916 0.9157
vn 0.9355 0.3530 -0.0130
vn -0.9444 0.3282 -0.0189
vn 0.1209 0.2785 -0.9528
vn -0.1230 0.6157 0.7784
vn -0.0735 0.7267 -0.6830
vn -0.0163 0.2576 -0.9661
vn 0.1181 0.6157 0.7791
vn -0.1458 0.8144 0.5617
vn -0.1934 0.5803 0.7911
vn 0.3959 0.9182 -0.0140
vn 0.5098 0.5003 -0.6999
vn 0.4873 0.8188 -0.3034
vn -0.0377 0.6148 -0.7878
vn -0.1252 0.3112 -0.9421
vn 0.2578 0.5625 0.7856
vn 0.2869 0.2810 0.9158
vn 0.3126 0.9454 -0.0919
vn -0.0528 0.9891 -0.1375
vn -0.0885 0.9951 -0.0438
vn -0.2850 0.9383 0.1956
vn 0.2305 0.9717 -0.0516
vn -0.0171 0.9729 0.2305
vn 0.2823 0.9326 -0.2247
vn -0.2599 0.9583 0.1184
vn 0.2620 0.9081 0.3266
vn -0.0232 0.9339 0.3568
vn -0.1052 0.9796 0.1715
vn 0.0334 0.9117 0.4095
vn 0.1623 0.9858 0.0420
vn 0.1088 0.9917 -0.0687
vn 0.1755 0.9833 0.0491
vn -0.5108 0.8588 -0.0396
vn -0.0258 0.9749 0.2211
vn 0.2239 0.9583 -0.1774
vn 0.1366 0.9894 -0.0484
vn 0.0016 0.9985 -0.0554
vn -0.0644 0.9850 -0.1603
vn 0.1537 0.5954 0.7886
vn -0.5740 0.7508 0.3269
vn -0.3725 0.8611 0.3461
vn 0.2931 0.8174 -0.4959
vn 0.2609 0.8922 0.3687
vn 0.6346 0.7339 -0.2422
vn -0.0283 0.9466 0.3213
vn -0.2807 0.9588 -0.0444
vn -0.3041 0.7773 -0.5507
vn 0.1171 0.7387 0.6638
vn -0.4469 0.8243 0.3476
vn -0.1196 0.9039 -0.4108
vn -0.2238 0.8659 -0.4474
vn -0.5448 0.8380 -0.0310
vn -0.2652 0.9622 -0.0628
vn 0.0039 0.9566 -0.2915
vn 0.0081 0.9871 -0.1597
vn 0.0913 0.9928 -0.0774
vn -0.0235 0.9529 -0.3023
vn -0.0666 0.5316 0.8444
vn 0.5190 0.8119 0.2673
vn -0.5265 0.8288 0.1894
vn 0.0768 0.8678 -0.4909
vn 0.3239 0.9050 -0.2759
vn -0.3992 0.9143 0.0683
vn -0.1163 0.9696 0.2153
vn -0.1319 0.9289 -0.3461
vn -0.1582 0.9811 -0.1114
vn -0.4061 0.9134 -0.0294
vn 0.0992 0.9951 0.0021
vn 0.2111 0.9775 -0.0002
vn 0.3067 0.8860 -0.3478
vn 0.1659 0.9800 -0.1096
vn 0.3329 0.9427 0.0217
vn 0.3579 0.9148 -0.1871
vn 0.4945 0.8601 -0.1251
vn -0.1516 0.9837 0.0972
vn 0.0869 0.9818 0.1687
vn 0.2023 0.9689 -0.1427
vn 0.0851 0.7676 -0.6353
vn -0.0337 0.8128 -0.5815
s 1
usemtl Liquid_Domain_Material
f 3//3 1//1 2//2
f 1//1 3//3 4//4
f 3//3 7//7 4//4
f 4//4 7//7 5//5
f 6//6 5//5 7//7
f 8//8 3//3 2//2
f 7//7 3//3 9//9
f 7//7 9//9 10//10
f 10//10 6//6 7//7
f 9//9 3//3 8//8
f 9//9 8//8 11//11
f 10//10 9//9 11//11
f 12//12 10//10 11//11
f 6//6 10//10 12//12
f 13//13 4//4 5//5
f 5//5 6//6 13//13
f 2//2 1//1 14//14
f 14//14 23//23 2//2
f 37//37 4//4 13//13
f 2//2 15//15 8//8
f 8//8 15//15 11//11
f 4//4 17//17 1//1
f 12//12 11//11 18//18
f 12//12 18//18 16//16
f 4//4 19//19 17//17
f 32//32 6//6 12//12
f 19//19 20//20 17//17
f 11//11 15//15 18//18
f 17//17 21//21 1//1
f 4//4 25//25 19//19
f 13//13 6//6 22//22
f 2//2 23//23 15//15
f 18//18 24//24 16//16
f 4//4 37//37 25//25
f 16//16 24//24 26//26
f 20//20 29//29 17//17
f 17//17 29//29 28//28
f 19//19 30//30 20//20
f 13//13 22//22 31//31
f 22//22 6//6 32//32
f 24//24 33//33 26//26
f 18//18 15//15 34//34
f 18//18 34//34 24//24
f 16//16 32//32 12//12
f 1//1 21//21 14//14
f 17//17 36//36 21//21
f 25//25 30//30 19//19
f 41//41 42//42 40//40
f 41//41 43//43 42//42
f 58//58 45//45 44//44
f 45//45 66//66 44//44
f 26//26 67//67 16//16
f 16//16 35//35 27//27
f 17//17 28//28 36//36
f 49//49 28//28 29//29
f 20//20 47//47 29//29
f 30//30 48//48 20//20
f 28//28 49//49 46//46
f 70//70 71//71 51//51
f 71//71 38//38 51//51
f 71//71 39//39 38//38
f 55//55 38//38 39//39
f 53//53 40//40 39//39
f 39//39 42//42 55//55
f 40//40 42//42 39//39
f 41//41 40//40 53//53
f 74//74 54//54 56//56
f 57//57 55//55 42//42
f 54//54 59//59 56//56
f 57//57 54//54 75//75
f 56//56 60//60 58//58
f 59//59 60//60 56//56
f 42//42 43//43 57//57
f 62//62 58//58 44//44
f 54//54 63//63 59//59
f 57//57 63//63 54//54
f 43//43 41//41 61//61
f 64//64 62//62 44//44
f 43//43 63//63 57//57
f 58//58 60//60 45//45
f 43//43 65//65 63//63
f 45//45 60//60 66//66
f 33//33 64//64 44//44
f 66//66 33//33 44//44
f 66//66 26//26 33//33
f 67//67 26//26 66//66
f 16//16 67//67 35//35
f 16//16 27//27 32//32
f 36//36 68//68 21//21
f 30//30 25//25 69//69
f 48//48 47//47 20//20
f 28//28 46//46 36//36
f 30//30 69//69 48//48
f 29//29 50//50 49//49
f 47//47 50//50 29//29
f 70//70 51//51 48//48
f 48//48 51//51 47//47
f 50//50 89//89 49//49
f 51//51 50//50 47//47
f 39//39 71//71 72//72
f 52//52 89//89 50//50
f 51//51 52//52 50//50
f 52//52 75//75 89//89
f 51//51 76//76 52//52
f 51//51 38//38 76//76
f 39//39 72//72 53//53
f 73//73 53//53 72//72
f 74//74 56//56 82//82
f 75//75 77//77 89//89
f 76//76 75//75 52//52
f 38//38 55//55 76//76
f 54//54 74//74 77//77
f 75//75 54//54 77//77
f 55//55 75//75 76//76
f 55//55 57//57 75//75
f 53//53 83//83 41//41
f 56//56 58//58 93//93
f 58//58 62//62 93//93
f 60//60 59//59 78//78
f 59//59 63//63 78//78
f 90//90 62//62 64//64
f 66//66 60//60 80//80
f 63//63 81//81 79//79
f 65//65 81//81 63//63
f 34//34 33//33 24//24
f 70//70 48//48 69//69
f 71//71 70//70 86//86
f 49//49 88//88 46//46
f 71//71 86//86 72//72
f 89//89 88//88 49//49
f 74//74 82//82 88//88
f 89//89 77//77 88//88
f 77//77 74//74 88//88
f 73//73 83//83 53//53
f 82//82 56//56 93//93
f 93//93 62//62 90//90
f 83//83 61//61 41//41
f 94//94 90//90 64//64
f 78//78 80//80 60//60
f 78//78 63//63 79//79
f 61//61 84//84 43//43
f 97//97 94//94 64//64
f 97//97 64//64 33//33
f 43//43 84//84 65//65
f 67//67 66//66 80//80
f 81//81 65//65 85//85
f 84//84 85//85 65//65
f 34//34 97//97 33//33
f 35//35 67//67 98//98
f 27//27 35//35 81//81
f 35//35 98//98 81//81
f 81//81 85//85 27//27
f 27//27 85//85 99//99
f 27//27 99//99 32//32
f 14//14 21//21 68//68
f 25//25 37//37 13//13
f 86//86 69//69 25//25
f 86//86 70//70 69//69
f 13//13 31//31 25//25
f 31//31 86//86 25//25
f 36//36 88//88 68//68
f 36//36 46//46 88//88
f 68//68 91//91 14//14
f 31//31 73//73 86//86
f 14//14 87//87 23//23
f 88//88 91//91 68//68
f 86//86 73//73 72//72
f 14//14 90//90 87//87
f 91//91 90//90 14//14
f 88//88 82//82 91//91
f 31//31 92//92 73//73
f 31//31 22//22 92//92
f 82//82 93//93 91//91
f 92//92 83//83 73//73
f 91//91 93//93 90//90
f 90//90 94//94 87//87
f 83//83 95//95 61//61
f 92//92 95//95 83//83
f 80//80 78//78 96//96
f 78//78 79//79 96//96
f 22//22 32//32 92//92
f 87//87 97//97 15//15
f 23//23 87//87 15//15
f 94//94 97//97 87//87
f 95//95 84//84 61//61
f 96//96 98//98 80//80
f 79//79 98//98 96//96
f 92//92 99//99 95//95
f 97//97 34//34 15//15
f 95//95 99//99 84//84
f 98//98 67//67 80//80
f 79//79 81//81 98//98
f 84//84 99//99 85//85
f 92//92 32//32 99//99
