# Blender 4.1.1
# www.blender.org
mtllib aa0669.mtl
o Liquid_Domain
v -8.134167 -8.755833 6.217273
v -8.487272 -8.755834 5.864167
v -8.134167 -9.108939 5.864167
v 8.134167 -8.755833 6.217273
v 8.487272 -8.755833 5.864167
v 8.134167 -9.108939 5.864167
v -8.487272 -8.755834 -5.864167
v 8.487272 -8.755833 -5.864167
v -8.134167 -9.108939 -5.864167
v 8.134167 -9.108939 -5.864167
v -8.134167 -8.755833 -6.217273
v 8.134167 -8.755833 -6.217273
v -8.489490 6.790372 5.852974
v -8.465096 6.650012 -5.823452
v -7.951233 4.663621 -6.204312
v -4.320773 4.495365 -6.214663
v -2.102458 4.931151 6.202043
v 3.597305 4.358947 6.202806
v 2.493994 5.663634 6.108400
v 8.449592 7.027765 -5.887736
v -1.743731 6.398231 -6.166189
v 8.162992 6.981811 6.174401
v 8.455657 6.672839 -1.384722
v 2.216382 6.193001 -6.154621
v -1.215376 5.706771 5.763041
v 3.806028 5.501700 5.785653
v 8.454490 6.712974 5.880692
v -5.078442 5.353722 -5.617950
v -8.092691 5.564282 -6.204673
v 8.125410 6.763103 -6.208449
v -8.151629 7.090954 6.182626
v 1.256485 5.679581 5.706275
v 4.039416 5.530006 1.197933
v 4.482133 5.511084 -0.466460
v 4.769581 5.243230 -1.571914
v 3.585420 5.636956 -2.342420
v -4.276034 5.636256 -2.820199
v -6.756025 5.648125 -3.409652
v -4.762144 5.699899 -4.768973
v -4.024951 6.940527 5.845981
v -2.237830 6.033988 4.851999
v -0.412543 6.144694 5.221894
v 3.399240 6.043119 4.961608
v 4.100879 6.183004 4.976669
v 1.298890 6.085506 3.401991
v 4.843384 5.731627 3.220362
v 5.266236 5.770111 3.891114
v 2.611192 5.973097 2.637477
v 5.890532 5.784680 -0.560000
v -1.042361 5.565197 -1.396227
v 2.534862 6.056157 -0.349340
v -3.059599 5.770963 -1.365589
v 1.468569 6.059694 -1.450860
v 0.013296 5.675127 -2.226548
v 2.115485 5.631201 -3.096208
v -2.971691 5.889614 -2.193460
v -1.783301 5.926429 -1.782054
v 5.402466 6.620119 -3.333596
v -0.168439 6.114656 -2.974677
v 4.078862 6.336957 -3.908472
v 3.413587 6.698460 -5.264500
v -6.719832 6.041790 -4.928755
v -8.029012 7.047683 -5.758670
v 5.422148 7.007916 6.116955
v 2.334318 6.625770 5.243611
v -0.569308 6.420923 4.081853
v 4.717083 6.748262 4.817110
v 6.153829 6.817962 4.659828
v 6.203398 6.770864 3.283184
v 1.382010 6.084332 1.446973
v -2.527225 6.158819 1.262945
v 2.513414 6.324271 1.021409
v 0.680016 5.948992 -0.418543
v -5.128519 6.144202 -1.939423
v -2.092704 6.791163 -1.908807
v -3.656180 6.759858 -3.303537
v 0.616411 6.532058 -5.788242
v -7.168771 5.769972 -5.649160
v -4.712511 6.671942 6.138559
v -2.436053 6.904928 3.252923
v -0.595378 6.699792 1.398175
v -3.777348 6.520449 1.540758
v 6.972664 6.916359 -1.052224
v -0.873012 6.766550 -3.115013
v -2.425024 6.744446 -5.808078
v 2.135684 6.838367 -5.769525
v 6.899222 7.025875 3.008012
v 0.160545 6.816497 2.559581
v 8.106911 7.055333 -0.322967
v -4.646133 7.078568 2.332026
v -8.121056 7.053243 -1.418883
v -5.107958 7.037388 -0.141941
v -6.117375 7.070406 -1.494090
v -7.653714 6.886108 -3.016102
v 6.403866 7.036837 -3.381273
v -2.117818 7.137783 -3.366554
v -0.495136 6.927084 -5.875301
v 4.960056 7.036912 -5.868858
vn -0.3101 -0.3156 0.8968
vn -0.8645 -0.3428 0.3676
vn -0.3350 -0.8684 0.3657
vn 0.3102 -0.3155 0.8968
vn 0.8647 -0.3424 0.3675
vn 0.3350 -0.8684 0.3657
vn -0.8646 -0.3419 -0.3682
vn 0.8647 -0.3424 -0.3675
vn -0.3350 -0.8684 -0.3657
vn 0.3350 -0.8684 -0.3657
vn -0.3107 -0.3153 -0.8967
vn 0.3103 -0.3158 -0.8967
vn -0.8901 0.3332 0.3110
vn -0.6863 0.3796 -0.6204
vn -0.2097 0.0986 -0.9728
vn -0.0626 0.1830 -0.9811
vn 0.0429 0.1577 0.9866
vn -0.0036 0.0837 0.9965
vn 0.0862 0.4607 0.8834
vn 0.6315 0.6508 -0.4214
vn -0.0691 0.3240 -0.9435
vn 0.3524 0.5564 0.7525
vn 0.9474 0.3194 0.0210
vn -0.0396 0.3097 -0.9500
vn 0.0327 0.7165 0.6968
vn -0.2165 0.6149 0.7583
vn 0.8949 0.3234 0.3075
vn -0.0854 0.7108 -0.6982
vn -0.1865 0.0476 -0.9813
vn 0.2743 0.3194 -0.9071
vn -0.3374 0.5665 0.7518
vn -0.1049 0.9574 0.2692
vn 0.1952 0.9731 -0.1223
vn 0.0363 0.9942 -0.1011
vn -0.1420 0.9774 0.1566
vn -0.0871 0.9569 0.2770
vn -0.2356 0.9678 0.0886
vn 0.4738 0.8616 -0.1820
vn -0.2401 0.9617 -0.1325
vn 0.2353 0.7925 0.5626
vn 0.2708 0.9260 0.2631
vn 0.0296 0.9101 0.4134
vn 0.1808 0.9605 0.2116
vn -0.4954 0.8672 0.0498
vn 0.1212 0.9916 0.0451
vn -0.1411 0.9859 -0.0898
vn -0.1181 0.9481 -0.2953
vn -0.2972 0.9517 0.0766
vn -0.5173 0.8555 0.0212
vn 0.0336 0.9980 0.0544
vn 0.1403 0.9864 -0.0858
vn 0.1366 0.9866 -0.0892
vn -0.0227 0.9914 -0.1287
vn 0.0592 0.9804 0.1880
vn 0.0052 0.9851 0.1720
vn -0.4107 0.7375 0.5361
vn 0.1414 0.6733 0.7257
vn -0.3593 0.8880 0.2869
vn 0.3861 0.8241 0.4144
vn -0.2808 0.8910 0.3566
vn -0.1268 0.9285 0.3490
vn 0.4594 0.8698 -0.1801
vn 0.0500 0.7932 -0.6069
vn -0.2312 0.6570 0.7176
vn 0.0041 0.9385 0.3452
vn 0.1158 0.9454 0.3046
vn -0.3972 0.8603 -0.3195
vn -0.7369 0.4593 -0.4960
vn -0.5264 0.8094 -0.2602
vn 0.1361 0.9896 -0.0456
vn 0.0093 0.9569 -0.2904
vn 0.0798 0.9918 -0.0997
vn -0.0284 0.9875 -0.1549
vn 0.3258 0.8331 -0.4470
vn -0.0308 0.5542 0.8318
vn -0.5362 0.8086 0.2421
vn 0.1104 0.9514 -0.2875
vn 0.3855 0.4503 -0.8053
vn 0.0853 0.3430 0.9354
vn 0.1094 0.9928 0.0484
vn -0.0103 0.9626 -0.2708
vn 0.3256 0.9168 -0.2311
vn -0.4088 0.9048 0.1193
vn 0.4392 0.8463 0.3015
vn -0.2690 0.7618 -0.5893
vn -0.1628 0.9572 -0.2393
vn -0.2535 0.9638 -0.0826
vn 0.2649 0.9628 0.0537
vn 0.3498 0.9368 -0.0014
vn 0.1341 0.9861 -0.0979
vn -0.3684 0.9292 -0.0289
vn 0.2591 0.9556 -0.1405
vn 0.2688 0.9261 -0.2647
vn 0.4495 0.8758 -0.1760
vn -0.1828 0.9797 0.0824
vn -0.0136 0.9966 0.0814
vn 0.1728 0.7402 -0.6498
vn -0.0878 0.8647 -0.4946
s 1
usemtl Liquid_Domain_Material
f 3//3 1//1 2//2
f 3//3 6//6 4//4
f 1//1 3//3 4//4
f 4//4 6//6 5//5
f 10//10 5//5 6//6
f 9//9 3//3 2//2
f 7//7 9//9 2//2
f 8//8 5//5 10//10
f 10//10 3//3 9//9
f 6//6 3//3 10//10
f 9//9 7//7 11//11
f 10//10 9//9 11//11
f 12//12 10//10 11//11
f 8//8 10//10 12//12
f 2//2 1//1 13//13
f 27//27 4//4 5//5
f 12//12 11//11 16//16
f 2//2 14//14 7//7
f 7//7 14//14 11//11
f 22//22 4//4 27//27
f 4//4 17//17 1//1
f 11//11 15//15 16//16
f 4//4 18//18 17//17
f 4//4 22//22 18//18
f 18//18 19//19 17//17
f 20//20 8//8 12//12
f 11//11 14//14 15//15
f 27//27 5//5 23//23
f 13//13 14//14 2//2
f 5//5 8//8 23//23
f 16//16 15//15 28//28
f 17//17 31//31 1//1
f 19//19 25//25 17//17
f 19//19 32//32 25//25
f 22//22 64//64 18//18
f 23//23 8//8 20//20
f 15//15 14//14 29//29
f 15//15 29//29 78//78
f 28//28 15//15 78//78
f 12//12 16//16 30//30
f 1//1 31//31 13//13
f 26//26 19//19 18//18
f 46//46 34//34 33//33
f 49//49 35//35 34//34
f 35//35 36//36 34//34
f 37//37 39//39 38//38
f 28//28 78//78 62//62
f 16//16 28//28 21//21
f 24//24 16//16 21//21
f 16//16 24//24 30//30
f 40//40 17//17 25//25
f 18//18 64//64 26//26
f 25//25 41//41 40//40
f 25//25 32//32 42//42
f 26//26 43//43 19//19
f 43//43 26//26 44//44
f 43//43 72//72 48//48
f 46//46 72//72 43//43
f 33//33 72//72 46//46
f 49//49 34//34 46//46
f 51//51 72//72 33//33
f 50//50 52//52 71//71
f 34//34 51//51 33//33
f 73//73 54//54 50//50
f 53//53 54//54 73//73
f 51//51 55//55 53//53
f 34//34 55//55 51//51
f 57//57 56//56 52//52
f 50//50 57//57 52//52
f 34//34 36//36 55//55
f 83//83 35//35 49//49
f 52//52 37//37 74//74
f 56//56 37//37 52//52
f 50//50 54//54 57//57
f 58//58 35//35 83//83
f 54//54 59//59 57//57
f 37//37 38//38 74//74
f 53//53 55//55 54//54
f 55//55 59//59 54//54
f 60//60 55//55 36//36
f 61//61 55//55 60//60
f 39//39 62//62 38//38
f 39//39 28//28 62//62
f 63//63 78//78 29//29
f 28//28 85//85 21//21
f 17//17 79//79 31//31
f 17//17 40//40 79//79
f 32//32 19//19 65//65
f 19//19 43//43 65//65
f 26//26 64//64 44//44
f 42//42 41//41 25//25
f 42//42 66//66 41//41
f 32//32 66//66 42//42
f 45//45 66//66 32//32
f 32//32 65//65 45//45
f 44//44 46//46 43//43
f 47//47 46//46 67//67
f 67//67 46//46 44//44
f 68//68 47//47 67//67
f 66//66 45//45 88//88
f 43//43 48//48 65//65
f 48//48 45//45 65//65
f 46//46 47//47 69//69
f 45//45 70//70 88//88
f 48//48 70//70 45//45
f 72//72 70//70 48//48
f 73//73 88//88 70//70
f 46//46 87//87 49//49
f 50//50 71//71 81//81
f 71//71 52//52 82//82
f 73//73 50//50 81//81
f 51//51 73//73 70//70
f 72//72 51//51 70//70
f 51//51 53//53 73//73
f 56//56 57//57 75//75
f 59//59 75//75 57//57
f 94//94 74//74 38//38
f 56//56 76//76 37//37
f 36//36 35//35 58//58
f 60//60 36//36 58//58
f 37//37 76//76 39//39
f 55//55 77//77 59//59
f 55//55 61//61 77//77
f 85//85 28//28 39//39
f 14//14 63//63 29//29
f 24//24 21//21 77//77
f 30//30 20//20 12//12
f 64//64 67//67 44//44
f 40//40 41//41 80//80
f 80//80 41//41 66//66
f 47//47 68//68 69//69
f 88//88 80//80 66//66
f 80//80 71//71 82//82
f 87//87 46//46 69//69
f 81//81 71//71 80//80
f 88//88 73//73 81//81
f 92//92 82//82 52//52
f 49//49 87//87 83//83
f 52//52 74//74 92//92
f 93//93 92//92 74//74
f 74//74 94//94 93//93
f 75//75 59//59 84//84
f 76//76 56//56 75//75
f 59//59 77//77 84//84
f 94//94 38//38 62//62
f 85//85 39//39 76//76
f 97//97 84//84 77//77
f 61//61 60//60 58//58
f 77//77 61//61 86//86
f 78//78 63//63 62//62
f 21//21 85//85 97//97
f 97//97 77//77 21//21
f 86//86 24//24 77//77
f 24//24 86//86 98//98
f 24//24 98//98 30//30
f 31//31 79//79 40//40
f 40//40 90//90 31//31
f 64//64 68//68 67//67
f 22//22 87//87 64//64
f 80//80 90//90 40//40
f 68//68 64//64 87//87
f 69//69 68//68 87//87
f 22//22 89//89 87//87
f 22//22 27//27 89//89
f 80//80 82//82 90//90
f 81//81 80//80 88//88
f 31//31 91//91 13//13
f 90//90 91//91 31//31
f 82//82 92//92 90//90
f 89//89 83//83 87//87
f 27//27 23//23 89//89
f 92//92 91//91 90//90
f 92//92 93//93 91//91
f 93//93 94//94 91//91
f 13//13 91//91 14//14
f 89//89 95//95 83//83
f 75//75 84//84 96//96
f 91//91 63//63 14//14
f 94//94 63//63 91//91
f 75//75 96//96 76//76
f 95//95 58//58 83//83
f 84//84 97//97 96//96
f 96//96 85//85 76//76
f 95//95 98//98 58//58
f 89//89 20//20 95//95
f 89//89 23//23 20//20
f 94//94 62//62 63//63
f 58//58 98//98 61//61
f 96//96 97//97 85//85
f 98//98 86//86 61//61
f 20//20 98//98 95//95
f 20//20 30//30 98//98
