# Blender 4.1.1
# www.blender.org
mtllib aa0703.mtl
o Liquid_Domain
v -8.134167 -8.755833 6.217273
v -8.487272 -8.755834 5.864167
v -8.134167 -9.108939 5.864167
v 8.487272 -8.755833 5.864167
v 8.134167 -9.108939 5.864167
v 8.487272 -8.755833 -5.864167
v -8.134167 -9.108939 -5.864167
v 8.134167 -9.108939 -5.864167
v -8.487272 -8.755834 -5.864167
v -8.134167 -8.755833 -6.217273
v 8.134167 -8.755833 -6.217273
v 8.438459 6.878220 5.885009
v -8.141942 7.101465 6.204681
v -8.428291 6.643157 -5.859432
v -8.142293 4.672521 -6.193871
v 8.134167 -8.755833 6.217273
v -8.486678 6.754534 5.861471
v -0.380736 3.952169 -6.196938
v 4.660182 3.890989 -6.200169
v 8.113143 7.001800 -6.196891
v 5.949174 4.739719 6.212886
v 8.132419 6.299571 6.204790
v 1.034763 4.413125 6.191668
v -3.097661 5.101922 -6.158321
v 7.220497 6.280317 -6.147902
v 4.019012 5.448846 6.159371
v 8.478815 6.548303 -1.646943
v 1.293167 5.365860 5.874091
v -0.156322 5.519696 -5.376838
v 1.693139 5.650040 -5.463378
v 4.309410 5.450730 -5.324886
v 0.324799 5.506494 5.795709
v 8.403991 6.834644 3.553053
v 8.457539 6.686493 -5.879867
v 6.795580 7.058486 -5.509615
v -7.381505 5.316180 -5.949736
v -2.506085 5.989054 -5.717606
v -1.698528 6.540425 6.133837
v 4.182795 5.850091 5.863030
v 6.104401 5.686493 5.865325
v -6.826315 5.488344 -2.744533
v -3.963325 5.868889 -2.212116
v -7.148948 5.671314 -5.320131
v 5.158900 6.762963 5.325443
v 1.783910 6.088921 5.093993
v 6.092312 5.982783 5.078846
v 2.909202 5.820640 4.828592
v 5.848742 5.668230 3.933055
v 6.655264 6.043810 3.542959
v -5.972270 5.430535 -1.122867
v -3.876606 5.914800 -1.590614
v 6.936849 6.350012 -1.169460
v -0.199001 5.880031 -1.030197
v 4.538587 5.643002 -2.052127
v 6.124530 5.773573 -1.917032
v -1.659731 5.548275 -1.829891
v 1.662787 5.842719 -1.383879
v -7.391550 5.872241 -3.032478
v 1.817969 6.096489 -3.073060
v 3.797704 5.842313 -3.224848
v -0.956418 6.088042 -3.100784
v -5.632327 6.138241 -3.580540
v 0.344001 5.758349 -4.800335
v -5.936057 5.922134 -5.429617
v 3.405069 5.592643 -4.759588
v 3.165502 6.578159 5.829111
v 3.806013 6.313118 4.891664
v 2.953915 6.208872 3.664711
v 4.414597 6.403475 2.368283
v 3.389133 6.207082 2.484377
v 5.871326 6.050694 2.440241
v 6.748695 6.809062 1.897439
v 5.713020 5.873457 0.686205
v -3.518604 7.028015 -0.585639
v -1.571632 6.795326 -0.717494
v -7.957615 7.025867 -5.776901
v -4.220358 6.481185 -4.250832
v 5.067239 6.600958 -3.450466
v 7.104198 6.808073 5.889901
v 4.294887 6.808268 4.692467
v -8.386675 6.973965 -0.966361
v 1.888186 6.982159 3.668982
v 7.495556 7.012199 3.442893
v 4.979795 6.768102 0.371790
v 2.900656 6.663753 -0.806535
v 3.514543 6.707308 -1.408534
v 6.815259 7.035317 -2.772699
v 3.196934 6.650492 -2.628564
v -1.971647 6.987963 5.847393
v -5.075805 7.050467 2.399412
v -0.919550 7.015134 3.925451
v 2.560079 7.072970 1.541463
v -6.007444 7.039442 0.603500
v 3.612812 7.065543 0.143388
v 7.974859 7.064379 -1.260734
v -7.576628 6.842043 -0.495824
v -0.111154 7.055401 0.583321
v 0.880666 6.339118 -0.775783
vn -0.3101 -0.3157 0.8968
vn -0.8644 -0.3430 0.3678
vn -0.3350 -0.8684 0.3657
vn 0.8646 -0.3423 0.3679
vn 0.3350 -0.8684 0.3657
vn 0.8645 -0.3427 -0.3678
vn -0.3350 -0.8684 -0.3657
vn 0.3350 -0.8684 -0.3657
vn -0.8646 -0.3423 -0.3678
vn -0.3101 -0.3154 -0.8969
vn 0.3101 -0.3155 -0.8968
vn 0.5686 0.6377 0.5196
vn -0.3470 0.5655 0.7482
vn -0.5955 0.3648 -0.7158
vn -0.3280 0.0834 -0.9410
vn 0.3104 -0.3157 0.8967
vn -0.9010 0.2981 0.3153
vn 0.0320 0.1860 -0.9820
vn -0.0490 0.1699 -0.9842
vn 0.2566 0.5715 -0.7795
vn -0.0140 0.1235 0.9922
vn 0.2487 0.1890 0.9500
vn 0.0057 0.1355 0.9908
vn 0.0272 0.2566 -0.9661
vn -0.4093 0.4546 -0.7911
vn -0.0287 0.3397 0.9401
vn 0.9265 0.3763 -0.0004
vn -0.0927 0.4973 0.8626
vn 0.0497 0.7629 -0.6446
vn 0.0154 0.7539 -0.6569
vn -0.2053 0.7220 -0.6607
vn 0.2403 0.6451 0.7254
vn 0.5188 0.8548 -0.0120
vn 0.8862 0.3313 -0.3238
vn -0.2887 0.8468 -0.4468
vn 0.1523 0.4177 -0.8957
vn 0.1287 0.7480 -0.6511
vn 0.1903 0.3856 0.9028
vn -0.0733 0.6558 0.7513
vn -0.1142 0.5641 0.8178
vn 0.2505 0.9674 -0.0364
vn -0.0507 0.9844 0.1682
vn 0.3944 0.8889 -0.2331
vn 0.1938 0.9324 0.3050
vn -0.0324 0.9118 0.4094
vn 0.5616 0.8261 0.0464
vn -0.0713 0.9965 -0.0427
vn 0.0420 0.9959 -0.0800
vn -0.5692 0.8133 0.1206
vn 0.0865 0.9138 -0.3967
vn -0.1085 0.8929 -0.4369
vn -0.5873 0.8074 0.0559
vn 0.0437 0.9027 -0.4281
vn 0.1896 0.9812 0.0358
vn -0.3543 0.8497 0.3905
vn -0.0196 0.9861 -0.1647
vn -0.2525 0.9261 -0.2804
vn 0.7819 0.6174 -0.0859
vn -0.2024 0.9707 -0.1295
vn -0.0423 0.9758 -0.2145
vn 0.0550 0.9971 0.0526
vn -0.2919 0.9434 0.1576
vn -0.0640 0.9721 -0.2255
vn -0.1601 0.9095 -0.3837
vn 0.0804 0.9836 -0.1613
vn 0.0136 0.7877 0.6159
vn -0.3934 0.8865 0.2434
vn 0.1630 0.9759 0.1453
vn 0.1710 0.9746 0.1444
vn 0.1395 0.9366 0.3215
vn -0.1692 0.9753 0.1417
vn -0.5033 0.8641 0.0068
vn 0.2214 0.9738 -0.0512
vn -0.0864 0.8744 -0.4774
vn 0.1674 0.7983 -0.5785
vn 0.1726 0.7854 -0.5945
vn -0.0424 0.9984 -0.0370
vn -0.4351 0.8947 0.1009
vn -0.3818 0.6971 0.6068
vn -0.1124 0.9828 0.1463
vn -0.5584 0.8291 -0.0287
vn 0.2664 0.9178 0.2945
vn -0.2837 0.9572 0.0579
vn 0.5492 0.8336 -0.0589
vn -0.2211 0.9315 -0.2888
vn 0.2271 0.9461 -0.2308
vn -0.2450 0.9452 0.2158
vn 0.1671 0.9032 -0.3954
vn 0.2044 0.8488 0.4877
vn 0.0005 1.0000 -0.0035
vn 0.0877 0.9786 0.1861
vn 0.1458 0.9787 0.1448
vn -0.0095 0.9713 -0.2377
vn 0.1064 0.9895 -0.0975
vn 0.1526 0.9872 0.0458
vn 0.5127 0.6064 -0.6078
vn 0.0155 0.9763 -0.2157
vn -0.1489 0.7615 -0.6309
s 1
usemtl Liquid_Domain_Material
f 3//3 1//1 2//2
f 1//1 3//3 16//16
f 3//3 5//5 16//16
f 16//16 5//5 4//4
f 7//7 3//3 2//2
f 6//6 4//4 5//5
f 5//5 3//3 8//8
f 8//8 3//3 7//7
f 8//8 6//6 5//5
f 9//9 7//7 2//2
f 7//7 9//9 10//10
f 8//8 7//7 10//10
f 11//11 8//8 10//10
f 6//6 8//8 11//11
f 12//12 16//16 4//4
f 34//34 6//6 11//11
f 1//1 13//13 2//2
f 16//16 21//21 1//1
f 22//22 16//16 12//12
f 9//9 14//14 15//15
f 10//10 9//9 15//15
f 2//2 13//13 17//17
f 2//2 17//17 9//9
f 10//10 18//18 11//11
f 4//4 6//6 27//27
f 21//21 23//23 1//1
f 11//11 19//19 20//20
f 20//20 34//34 11//11
f 10//10 15//15 18//18
f 11//11 18//18 19//19
f 16//16 22//22 21//21
f 18//18 15//15 24//24
f 21//21 26//26 23//23
f 12//12 4//4 27//27
f 27//27 6//6 34//34
f 17//17 14//14 9//9
f 19//19 25//25 20//20
f 19//19 18//18 30//30
f 31//31 19//19 30//30
f 23//23 13//13 1//1
f 23//23 32//32 38//38
f 28//28 32//32 23//23
f 17//17 81//81 14//14
f 18//18 29//29 30//30
f 31//31 35//35 19//19
f 24//24 15//15 36//36
f 18//18 24//24 37//37
f 29//29 18//18 37//37
f 19//19 35//35 25//25
f 26//26 28//28 23//23
f 21//21 40//40 26//26
f 12//12 27//27 33//33
f 42//42 41//41 50//50
f 42//42 50//50 51//51
f 63//63 30//30 29//29
f 31//31 30//30 65//65
f 24//24 36//36 37//37
f 23//23 38//38 13//13
f 26//26 39//39 28//28
f 44//44 39//39 26//26
f 40//40 44//44 26//26
f 71//71 48//48 49//49
f 93//93 51//51 50//50
f 71//71 55//55 73//73
f 55//55 71//71 52//52
f 73//73 55//55 54//54
f 98//98 57//57 53//53
f 56//56 42//42 51//51
f 53//53 61//61 56//56
f 61//61 42//42 56//56
f 53//53 57//57 61//61
f 42//42 62//62 41//41
f 57//57 63//63 61//61
f 59//59 63//63 57//57
f 62//62 64//64 41//41
f 60//60 65//65 59//59
f 63//63 29//29 61//61
f 59//59 30//30 63//63
f 65//65 30//30 59//59
f 65//65 60//60 31//31
f 41//41 43//43 58//58
f 64//64 43//43 41//41
f 36//36 43//43 64//64
f 37//37 36//36 64//64
f 15//15 14//14 76//76
f 15//15 76//76 36//36
f 39//39 66//66 28//28
f 21//21 22//22 40//40
f 28//28 66//66 45//45
f 39//39 67//67 66//66
f 40//40 46//46 44//44
f 47//47 45//45 66//66
f 47//47 66//66 67//67
f 44//44 67//67 39//39
f 40//40 49//49 46//46
f 32//32 28//28 45//45
f 91//91 32//32 45//45
f 46//46 49//49 48//48
f 47//47 67//67 68//68
f 48//48 80//80 46//46
f 47//47 68//68 82//82
f 47//47 82//82 45//45
f 80//80 48//48 69//69
f 69//69 70//70 68//68
f 48//48 71//71 69//69
f 71//71 49//49 72//72
f 73//73 69//69 71//71
f 73//73 54//54 84//84
f 74//74 51//51 93//93
f 98//98 85//85 57//57
f 58//58 96//96 50//50
f 56//56 75//75 53//53
f 54//54 86//86 84//84
f 41//41 58//58 50//50
f 59//59 57//57 85//85
f 86//86 54//54 60//60
f 60//60 88//88 86//86
f 60//60 54//54 87//87
f 54//54 55//55 87//87
f 59//59 88//88 60//60
f 78//78 60//60 87//87
f 96//96 58//58 76//76
f 42//42 77//77 62//62
f 61//61 77//77 42//42
f 77//77 64//64 62//62
f 29//29 77//77 61//61
f 78//78 31//31 60//60
f 29//29 37//37 77//77
f 58//58 43//43 76//76
f 37//37 64//64 77//77
f 36//36 76//76 43//43
f 38//38 32//32 89//89
f 79//79 40//40 22//22
f 22//22 12//12 79//79
f 89//89 32//32 91//91
f 80//80 67//67 44//44
f 40//40 79//79 49//49
f 91//91 45//45 82//82
f 46//46 80//80 44//44
f 79//79 83//83 49//49
f 80//80 68//68 67//67
f 80//80 69//69 68//68
f 72//72 49//49 83//83
f 92//92 82//82 68//68
f 68//68 70//70 92//92
f 69//69 92//92 70//70
f 84//84 69//69 73//73
f 71//71 72//72 52//52
f 96//96 93//93 50//50
f 75//75 97//97 53//53
f 53//53 97//97 98//98
f 56//56 51//51 74//74
f 75//75 56//56 74//74
f 52//52 87//87 55//55
f 88//88 59//59 85//85
f 86//86 88//88 85//85
f 31//31 78//78 35//35
f 13//13 38//38 89//89
f 12//12 83//83 79//79
f 17//17 13//13 81//81
f 12//12 33//33 83//83
f 90//90 13//13 89//89
f 91//91 90//90 89//89
f 13//13 90//90 81//81
f 82//82 92//92 91//91
f 90//90 93//93 81//81
f 33//33 95//95 83//83
f 90//90 74//74 93//93
f 97//97 90//90 91//91
f 92//92 97//97 91//91
f 94//94 97//97 92//92
f 69//69 94//94 92//92
f 83//83 95//95 72//72
f 93//93 96//96 81//81
f 90//90 97//97 74//74
f 84//84 94//94 69//69
f 95//95 52//52 72//72
f 94//94 85//85 97//97
f 85//85 98//98 97//97
f 75//75 74//74 97//97
f 86//86 85//85 94//94
f 84//84 86//86 94//94
f 33//33 27//27 95//95
f 52//52 95//95 87//87
f 96//96 76//76 81//81
f 20//20 87//87 95//95
f 27//27 34//34 20//20
f 95//95 27//27 20//20
f 81//81 76//76 14//14
f 35//35 78//78 87//87
f 20//20 35//35 87//87
f 20//20 25//25 35//35
