# Blender 4.1.1
# www.blender.org
mtllib aa0780.mtl
o Liquid_Domain
v -8.134167 -8.755833 6.217273
v -8.487272 -8.755834 5.864167
v -8.134167 -9.108939 5.864167
v 8.487272 -8.755833 5.864167
v 8.134167 -9.108939 5.864167
v -8.134167 -9.108939 -5.864167
v -8.487272 -8.755834 -5.864167
v 8.134167 -9.108939 -5.864167
v 8.487272 -8.755833 -5.864167
v -8.134167 -8.755833 -6.217273
v 8.134167 -8.755833 6.217273
v -8.487272 6.755834 5.864167
v -8.134167 6.755833 6.217273
v 8.487251 6.754686 5.863600
v -8.487272 6.755834 -5.864167
v 8.134167 -8.755833 -6.217273
v 8.487272 6.755833 -5.864167
v -8.134167 6.755833 -6.217273
v 2.646638 3.921218 6.217442
v 0.401415 6.689857 -6.196356
v 2.702570 4.639936 6.155392
v -3.473882 6.749598 6.210838
v 1.569777 5.627941 6.159784
v 5.401374 6.724807 6.170338
v 8.134868 6.745600 6.210310
v 8.129118 6.776391 -6.220385
v 0.461649 6.266201 6.165825
v 2.228420 5.869740 5.867613
v 3.956649 6.611471 6.137960
v -2.670896 6.751112 -6.211664
v 2.838161 6.068529 5.834304
v 1.158228 5.756189 1.794807
v 1.553966 5.951038 1.535697
v 1.001516 6.146780 0.520362
v -0.693931 6.723686 6.119382
v 0.980183 6.720397 5.870335
v 3.520758 6.698677 5.899380
v 2.538697 6.732145 4.792851
v 1.983895 6.095845 3.086391
v 2.465544 6.169882 2.946881
v 1.164668 6.124789 2.564005
v 0.678804 5.911768 1.818381
v -0.151561 6.707908 1.539937
v 0.517911 6.194168 0.494283
v 2.124216 6.758856 0.949180
v 1.159904 6.772455 3.441189
v 2.968448 6.804724 3.377480
v 0.081647 6.364837 2.686373
v 2.799857 6.830681 2.030082
v -0.639742 6.728508 2.343342
v 1.577695 6.829962 -0.740427
v 0.528073 6.781573 -1.124087
v 0.737143 6.790557 -1.483687
v -0.421144 6.412584 -2.819686
v 0.484959 6.438676 -2.708766
v -1.153858 6.810908 -3.256860
v 1.416568 7.039677 -3.613907
v 0.041487 6.959761 -3.931545
v -8.134167 7.108939 5.864166
v -3.282488 7.097758 5.864448
v -0.333130 6.999094 5.803377
v 4.291562 7.054494 5.784258
v 5.381135 7.053001 5.840591
v 8.134631 7.105167 5.852871
v -0.636742 7.041535 4.476134
v 1.216625 7.073769 4.626194
v 3.546255 7.098516 4.133880
v -1.153321 7.033849 3.213054
v 2.326763 6.827584 4.087892
v -0.230032 6.920414 3.541925
v 8.133522 7.106933 2.194435
v -5.352838 7.104758 2.952409
v 5.297337 7.047559 2.678074
v -2.589271 7.033566 2.702327
v 3.567881 7.045970 2.205076
v -8.134167 7.108939 -5.864166
v -1.512863 7.063788 1.499799
v -3.321294 7.088878 -1.061781
v -0.460715 6.975189 0.906224
v 8.134167 7.108939 -5.864166
v 2.856833 7.058528 0.846476
v 4.024614 7.012216 1.596340
v -0.983511 7.016747 -1.375257
v -0.274804 7.057975 -0.742816
v 3.270116 7.034963 -0.141402
v 1.925838 7.057299 -1.114054
v 5.883642 7.107209 -2.672544
v -1.222288 6.882079 -2.121007
v 3.307832 7.042070 -2.357316
v -4.920043 7.090460 -2.696978
v -2.313199 6.975530 -2.930257
v 2.209484 7.048222 -3.162260
v -0.078876 7.084942 -4.488549
v -1.072384 7.068332 -5.877172
v 1.737888 7.086924 -5.865699
vn -0.3102 -0.3161 0.8966
vn -0.8644 -0.3430 0.3677
vn -0.3350 -0.8684 0.3657
vn 0.8644 -0.3430 0.3677
vn 0.3350 -0.8684 0.3657
vn -0.3350 -0.8684 -0.3657
vn -0.8644 -0.3430 -0.3677
vn 0.3350 -0.8684 -0.3657
vn 0.8644 -0.3430 -0.3677
vn -0.3102 -0.3161 -0.8966
vn 0.3102 -0.3160 0.8966
vn -0.8644 0.3430 0.3677
vn -0.3096 0.3164 0.8967
vn 0.8596 0.3467 0.3754
vn -0.8644 0.3430 -0.3677
vn 0.3102 -0.3159 -0.8967
vn 0.8666 0.3408 -0.3646
vn -0.3094 0.3166 -0.8967
vn 0.0001 0.0234 0.9997
vn 0.0012 0.3217 -0.9468
vn -0.0096 0.1244 0.9922
vn 0.0086 0.3550 0.9348
vn 0.1554 0.2136 0.9645
vn -0.0330 0.3758 0.9261
vn 0.3018 0.3181 0.8988
vn 0.3087 0.3283 -0.8927
vn 0.0946 0.2310 0.9683
vn 0.1599 0.4702 0.8680
vn -0.1598 0.3626 0.9181
vn 0.0029 0.3617 -0.9323
vn -0.3358 0.4669 0.8181
vn 0.0014 0.9998 -0.0178
vn -0.4554 0.8440 0.2833
vn -0.2028 0.9357 0.2888
vn 0.0541 0.4628 0.8848
vn 0.2425 0.6745 0.6973
vn -0.4132 0.6590 0.6285
vn -0.0288 0.9454 0.3246
vn 0.0375 0.8964 -0.4416
vn -0.5204 0.8461 -0.1154
vn 0.2402 0.8500 -0.4689
vn 0.4084 0.9120 -0.0377
vn 0.5418 0.8200 0.1848
vn 0.3985 0.8896 0.2233
vn -0.4809 0.8376 0.2593
vn 0.1689 0.8724 -0.4587
vn -0.4754 0.8626 -0.1727
vn 0.2853 0.8948 -0.3434
vn -0.4809 0.8539 0.1989
vn 0.4403 0.8974 0.0288
vn -0.3640 0.8959 0.2546
vn 0.4637 0.8457 0.2641
vn -0.0501 0.9984 -0.0269
vn 0.1762 0.9818 0.0708
vn -0.1645 0.9854 0.0434
vn 0.2378 0.9311 0.2767
vn -0.0992 0.9729 0.2088
vn -0.0493 0.9491 0.3110
vn -0.3341 0.8687 0.3656
vn 0.0187 0.9117 0.4104
vn 0.0782 0.8966 0.4360
vn -0.1360 0.8922 0.4306
vn -0.0283 0.9077 0.4187
vn 0.3228 0.8726 0.3665
vn 0.0300 0.9988 -0.0375
vn 0.1130 0.9934 0.0204
vn -0.1349 0.9905 0.0267
vn 0.1570 0.9826 -0.0995
vn -0.0387 0.9795 -0.1979
vn 0.1447 0.9544 -0.2610
vn 0.3675 0.9300 0.0016
vn 0.0059 1.0000 -0.0049
vn -0.0100 0.9999 -0.0110
vn 0.0122 0.9998 -0.0151
vn -0.1151 0.9931 0.0222
vn -0.3329 0.8693 -0.3654
vn 0.0907 0.9945 0.0526
vn 0.0238 0.9995 -0.0205
vn 0.3697 0.9224 0.1120
vn 0.3369 0.8739 -0.3505
vn -0.1603 0.9840 0.0783
vn 0.0114 0.9999 -0.0079
vn 0.0519 0.9892 -0.1374
vn 0.1656 0.9861 -0.0103
vn 0.0083 1.0000 0.0021
vn -0.1623 0.9832 0.0835
vn -0.0099 0.9999 0.0059
vn 0.1476 0.9752 -0.1648
vn -0.0106 0.9999 0.0128
vn 0.0162 0.9999 -0.0008
vn 0.0764 0.9967 0.0278
vn -0.1033 0.9933 0.0513
vn -0.0116 0.9967 0.0804
vn 0.0059 0.9067 -0.4217
vn -0.0071 0.8995 -0.4368
s 1
usemtl Liquid_Domain_Material
f 3//3 1//1 2//2
f 3//3 5//5 1//1
f 1//1 5//5 11//11
f 11//11 5//5 4//4
f 6//6 3//3 2//2
f 8//8 4//4 5//5
f 7//7 6//6 2//2
f 5//5 3//3 8//8
f 8//8 3//3 6//6
f 9//9 4//4 8//8
f 6//6 7//7 10//10
f 8//8 6//6 10//10
f 16//16 8//8 10//10
f 9//9 8//8 16//16
f 12//12 7//7 2//2
f 1//1 13//13 2//2
f 14//14 11//11 4//4
f 4//4 9//9 14//14
f 2//2 13//13 12//12
f 12//12 15//15 7//7
f 7//7 15//15 10//10
f 26//26 9//9 16//16
f 11//11 13//13 1//1
f 10//10 15//15 18//18
f 10//10 18//18 16//16
f 17//17 9//9 26//26
f 14//14 9//9 17//17
f 11//11 22//22 13//13
f 19//19 21//21 23//23
f 11//11 19//19 22//22
f 19//19 24//24 21//21
f 21//21 24//24 29//29
f 19//19 27//27 22//22
f 19//19 25//25 24//24
f 19//19 11//11 25//25
f 16//16 20//20 26//26
f 23//23 27//27 19//19
f 21//21 28//28 23//23
f 20//20 16//16 30//30
f 28//28 21//21 31//31
f 31//31 21//21 29//29
f 32//32 42//42 41//41
f 32//32 34//34 42//42
f 33//33 34//34 32//32
f 16//16 18//18 30//30
f 27//27 35//35 22//22
f 23//23 36//36 27//27
f 23//23 28//28 36//36
f 31//31 29//29 37//37
f 25//25 11//11 14//14
f 28//28 38//38 36//36
f 38//38 28//28 31//31
f 39//39 41//41 46//46
f 50//50 48//48 42//42
f 41//41 42//42 48//48
f 39//39 32//32 41//41
f 32//32 39//39 33//33
f 33//33 39//39 40//40
f 43//43 50//50 42//42
f 42//42 34//34 44//44
f 34//34 33//33 45//45
f 27//27 36//36 35//35
f 31//31 37//37 38//38
f 46//46 69//69 39//39
f 39//39 69//69 40//40
f 69//69 47//47 40//40
f 46//46 48//48 70//70
f 41//41 48//48 46//46
f 47//47 49//49 40//40
f 40//40 49//49 33//33
f 33//33 49//49 45//45
f 44//44 43//43 42//42
f 79//79 43//43 44//44
f 34//34 45//45 51//51
f 79//79 44//44 52//52
f 34//34 53//53 44//44
f 53//53 52//52 44//44
f 51//51 53//53 34//34
f 53//53 54//54 88//88
f 55//55 54//54 53//53
f 56//56 88//88 54//54
f 58//58 56//56 54//54
f 55//55 58//58 54//54
f 57//57 58//58 55//55
f 13//13 59//59 12//12
f 13//13 22//22 60//60
f 59//59 13//13 60//60
f 22//22 35//35 60//60
f 60//60 35//35 61//61
f 35//35 36//36 61//61
f 37//37 29//29 62//62
f 29//29 24//24 63//63
f 62//62 29//29 63//63
f 63//63 24//24 64//64
f 24//24 25//25 64//64
f 25//25 14//14 64//64
f 61//61 65//65 60//60
f 36//36 66//66 61//61
f 66//66 65//65 61//61
f 38//38 66//66 36//36
f 38//38 37//37 67//67
f 62//62 67//67 37//37
f 60//60 72//72 59//59
f 68//68 72//72 60//60
f 65//65 68//68 60//60
f 38//38 69//69 66//66
f 67//67 69//69 38//38
f 70//70 68//68 65//65
f 66//66 46//46 65//65
f 69//69 46//46 66//66
f 64//64 71//71 63//63
f 64//64 14//14 71//71
f 46//46 70//70 65//65
f 67//67 47//47 69//69
f 63//63 73//73 62//62
f 73//73 67//67 62//62
f 71//71 73//73 63//63
f 68//68 74//74 72//72
f 75//75 47//47 67//67
f 59//59 76//76 12//12
f 70//70 48//48 68//68
f 75//75 49//49 47//47
f 68//68 77//77 74//74
f 50//50 77//77 68//68
f 48//48 50//50 68//68
f 82//82 75//75 67//67
f 73//73 82//82 67//67
f 72//72 78//78 59//59
f 74//74 78//78 72//72
f 50//50 79//79 77//77
f 50//50 43//43 79//79
f 75//75 81//81 49//49
f 71//71 14//14 80//80
f 77//77 78//78 74//74
f 45//45 49//49 81//81
f 75//75 82//82 81//81
f 82//82 85//85 81//81
f 73//73 71//71 82//82
f 81//81 51//51 45//45
f 83//83 78//78 77//77
f 84//84 83//83 77//77
f 79//79 84//84 77//77
f 79//79 52//52 84//84
f 80//80 87//87 71//71
f 14//14 17//17 80//80
f 81//81 86//86 51//51
f 85//85 86//86 81//81
f 71//71 87//87 82//82
f 87//87 85//85 82//82
f 83//83 88//88 78//78
f 86//86 53//53 51//51
f 87//87 89//89 85//85
f 78//78 90//90 59//59
f 84//84 53//53 83//83
f 53//53 88//88 83//83
f 52//52 53//53 84//84
f 85//85 89//89 86//86
f 59//59 90//90 76//76
f 89//89 92//92 86//86
f 78//78 91//91 90//90
f 88//88 91//91 78//78
f 86//86 92//92 53//53
f 92//92 55//55 53//53
f 56//56 91//91 88//88
f 12//12 76//76 15//15
f 92//92 57//57 55//55
f 87//87 92//92 89//89
f 91//91 94//94 90//90
f 93//93 91//91 56//56
f 58//58 93//93 56//56
f 57//57 93//93 58//58
f 93//93 94//94 91//91
f 87//87 95//95 92//92
f 80//80 95//95 87//87
f 94//94 76//76 90//90
f 57//57 95//95 93//93
f 92//92 95//95 57//57
f 95//95 94//94 93//93
f 15//15 76//76 18//18
f 94//94 18//18 76//76
f 30//30 18//18 94//94
f 20//20 30//30 94//94
f 95//95 20//20 94//94
f 26//26 20//20 95//95
f 80//80 26//26 95//95
f 17//17 26//26 80//80
