# Blender 4.1.1
# www.blender.org
mtllib aa0764.mtl
o Liquid_Domain
v -8.134167 -8.755833 6.217273
v -8.487272 -8.755834 5.864167
v -8.134167 -9.108939 5.864167
v 8.134167 -8.755833 6.217273
v 8.487272 -8.755833 5.864167
v 8.134167 -9.108939 5.864167
v -8.134167 -9.108939 -5.864167
v 8.487272 -8.755833 -5.864167
v 8.134167 -9.108939 -5.864167
v -8.487272 -8.755834 -5.864167
v -8.134167 -8.755833 -6.217273
v 8.134167 -8.755833 -6.217273
v -8.487272 6.755834 -5.864167
v 8.485615 6.747514 5.865191
v 8.487144 6.752727 -5.863463
v -8.487272 6.755834 5.864167
v -8.134167 6.755833 6.217273
v 8.134167 6.755833 -6.217273
v -8.124138 6.770510 -6.222524
v 0.633837 4.879242 -6.216442
v 1.709236 4.909558 6.199017
v -0.159924 5.361651 6.207123
v -0.602005 6.483301 6.124548
v 8.133710 6.760499 6.217643
v 0.241418 6.726394 -6.171129
v -1.629370 6.708110 6.188102
v 0.821936 5.659564 5.902491
v 1.758559 6.219669 5.700331
v 0.579239 5.501315 2.082067
v -1.761686 6.145533 -6.156178
v 2.160900 6.701285 -6.169310
v 2.163427 6.632239 5.871825
v 3.559116 6.708255 6.206306
v 1.261767 6.307788 5.305153
v 1.989052 5.788373 3.603001
v 0.835057 5.828592 3.228173
v 2.788864 6.103227 3.749467
v -0.446138 5.897690 2.183562
v 1.598447 5.719975 1.853627
v 0.145010 5.707263 1.134806
v 0.972252 6.263711 0.545833
v 2.675297 6.109155 4.433404
v 2.651211 6.790886 1.798476
v -0.981669 7.044410 0.499761
v -0.018081 6.781691 0.046004
v 1.730005 6.214005 -2.387550
v 0.471032 6.225857 -2.753917
v -1.688551 6.021235 -3.279734
v -1.694140 5.904705 -3.705279
v -0.004600 6.233060 -3.345518
v 1.729997 6.425436 -3.871982
v -1.575174 6.544836 -5.001764
v -2.635748 6.767693 -6.098452
v 2.207936 6.717446 5.432289
v 1.656534 6.417886 4.514750
v 3.788880 6.731166 4.325693
v -0.473743 6.883033 3.979747
v -1.592282 6.784732 2.425402
v 1.161571 6.708247 -0.206043
v 3.459706 6.836420 -1.260761
v 2.869060 6.482822 -1.708400
v 3.449058 6.707715 -2.496315
v -2.150930 6.744665 -2.565132
v 2.343646 6.817238 -4.255287
v 0.806209 7.012446 -4.586264
v -0.707870 6.823984 -4.998159
v -1.503418 6.515450 -5.893388
v -8.134167 7.108939 5.864166
v -1.426158 7.036305 5.874051
v 3.222728 7.076138 5.806957
v 8.135720 7.095899 5.870475
v 0.507094 6.846323 4.968170
v 5.136417 7.046997 4.001231
v -5.926634 7.101721 2.794786
v -1.499818 7.059443 4.105912
v -2.872707 7.041101 2.853228
v 3.890301 7.035790 2.669391
v -2.590148 7.061130 -0.329469
v 3.987788 7.067616 0.453617
v 2.905036 7.060436 1.207759
v 0.390109 6.990009 -0.975930
v 8.138865 7.100692 -2.043880
v 1.600721 6.821179 -0.882908
v 2.493663 7.070914 -0.217599
v -1.387390 7.073049 -1.572157
v -5.526607 7.060586 -3.644910
v 0.428100 6.851919 -1.851893
v 5.093462 7.025695 -1.929623
v -3.116377 7.018490 -2.390788
v 3.977961 7.003246 -3.099878
v -8.128805 7.113243 -5.870924
v -3.195841 7.077956 -4.364593
v -2.473226 7.036797 -5.795958
v -0.122632 7.045485 -5.819767
v 2.355742 7.041181 -5.806448
v 8.097306 7.131112 -5.872143
vn -0.3100 -0.3158 0.8968
vn -0.8644 -0.3430 0.3677
vn -0.3350 -0.8684 0.3657
vn 0.3100 -0.3158 0.8968
vn 0.8644 -0.3430 0.3677
vn 0.3350 -0.8684 0.3657
vn -0.3350 -0.8684 -0.3657
vn 0.8644 -0.3430 -0.3677
vn 0.3350 -0.8684 -0.3657
vn -0.8644 -0.3430 -0.3678
vn -0.3103 -0.3161 -0.8965
vn 0.3102 -0.3161 -0.8966
vn -0.8658 0.3405 -0.3667
vn 0.8666 0.3417 0.3637
vn 0.8640 0.3473 -0.3645
vn -0.8644 0.3430 0.3677
vn -0.3072 0.3166 0.8974
vn 0.3120 0.3096 -0.8982
vn -0.3036 0.3249 -0.8957
vn -0.0015 0.0137 -0.9999
vn -0.0384 0.1217 0.9918
vn 0.0782 0.0986 0.9921
vn 0.2505 0.4277 0.8685
vn 0.3082 0.3241 0.8944
vn -0.0403 0.3906 -0.9197
vn 0.0491 0.3569 0.9329
vn 0.1291 0.4950 0.8592
vn -0.4585 0.5665 0.6847
vn 0.0927 0.9954 -0.0249
vn 0.0404 0.2378 -0.9705
vn -0.0040 0.3785 -0.9256
vn -0.4859 0.6065 0.6293
vn -0.0716 0.3691 0.9266
vn -0.0707 0.8444 0.5311
vn -0.0588 0.9636 -0.2608
vn 0.2503 0.8549 -0.4545
vn -0.5123 0.8531 0.0988
vn 0.5147 0.8525 -0.0913
vn -0.4244 0.8500 0.3120
vn 0.2323 0.8759 0.4230
vn -0.2330 0.8104 0.5376
vn -0.2030 0.8851 -0.4188
vn -0.4931 0.8130 0.3098
vn 0.2780 0.9353 0.2189
vn 0.2908 0.8366 0.4643
vn -0.0370 0.9919 -0.1218
vn 0.0281 0.9770 -0.2112
vn 0.3141 0.8591 -0.4041
vn 0.2203 0.9693 0.1089
vn -0.2828 0.9117 0.2982
vn -0.1287 0.9181 0.3749
vn 0.0713 0.9701 0.2322
vn 0.0911 0.4498 -0.8885
vn -0.3711 0.9260 -0.0698
vn 0.2141 0.9279 -0.3052
vn -0.3644 0.9184 -0.1542
vn 0.2534 0.9251 -0.2829
vn 0.3772 0.9261 -0.0078
vn -0.0872 0.9620 0.2589
vn -0.1484 0.9677 -0.2037
vn -0.2281 0.9433 -0.2413
vn -0.2627 0.9569 0.1239
vn 0.2590 0.8904 -0.3743
vn -0.1597 0.9513 0.2635
vn -0.0466 0.9549 0.2931
vn -0.2674 0.9385 0.2182
vn 0.0161 0.8328 -0.5534
vn -0.3311 0.8697 0.3661
vn 0.1277 0.8780 0.4613
vn -0.1889 0.9259 0.3272
vn 0.3315 0.8722 0.3598
vn 0.3025 0.9231 0.2376
vn -0.0809 0.9967 0.0030
vn 0.0047 1.0000 -0.0026
vn 0.0853 0.9941 -0.0662
vn 0.0692 0.9973 -0.0252
vn -0.1581 0.9827 0.0964
vn 0.0048 1.0000 -0.0003
vn -0.0103 0.9996 -0.0254
vn -0.1954 0.9723 0.1282
vn 0.1222 0.9923 0.0199
vn 0.3713 0.9285 -0.0007
vn 0.0097 0.9876 -0.1570
vn -0.1047 0.9915 -0.0767
vn 0.0444 0.9860 -0.1605
vn 0.0119 0.9999 0.0022
vn 0.1630 0.9165 -0.3653
vn -0.0806 0.9967 -0.0120
vn 0.0947 0.9933 -0.0658
vn -0.1472 0.9814 0.1230
vn -0.3279 0.8720 -0.3634
vn 0.2097 0.9763 0.0531
vn 0.2317 0.9089 -0.3467
vn -0.1687 0.9085 -0.3822
vn -0.0103 0.9355 -0.3530
vn 0.3146 0.8704 -0.3788
s 1
usemtl Liquid_Domain_Material
f 3//3 1//1 2//2
f 1//1 3//3 4//4
f 3//3 6//6 4//4
f 4//4 6//6 5//5
f 7//7 3//3 2//2
f 9//9 5//5 6//6
f 8//8 5//5 9//9
f 6//6 3//3 9//9
f 9//9 3//3 7//7
f 10//10 7//7 2//2
f 7//7 10//10 11//11
f 9//9 7//7 11//11
f 12//12 9//9 11//11
f 8//8 9//9 12//12
f 2//2 13//13 10//10
f 18//18 8//8 12//12
f 24//24 4//4 5//5
f 14//14 24//24 5//5
f 2//2 16//16 13//13
f 15//15 8//8 18//18
f 2//2 1//1 16//16
f 1//1 17//17 16//16
f 4//4 21//21 1//1
f 4//4 33//33 21//21
f 10//10 13//13 19//19
f 11//11 10//10 19//19
f 11//11 19//19 12//12
f 21//21 22//22 1//1
f 20//20 12//12 19//19
f 12//12 20//20 18//18
f 1//1 22//22 26//26
f 4//4 24//24 33//33
f 20//20 19//19 30//30
f 20//20 30//30 25//25
f 18//18 20//20 31//31
f 21//21 27//27 22//22
f 21//21 28//28 27//27
f 14//14 5//5 8//8
f 39//39 40//40 29//29
f 22//22 23//23 26//26
f 22//22 27//27 23//23
f 32//32 28//28 21//21
f 21//21 33//33 32//32
f 28//28 34//34 27//27
f 42//42 37//37 35//35
f 36//36 29//29 38//38
f 35//35 29//29 36//36
f 39//39 35//35 37//37
f 39//39 29//29 35//35
f 29//29 40//40 38//38
f 39//39 41//41 40//40
f 42//42 35//35 55//55
f 35//35 57//57 55//55
f 35//35 36//36 57//57
f 36//36 38//38 57//57
f 58//58 57//57 38//38
f 37//37 43//43 39//39
f 38//38 40//40 44//44
f 39//39 43//43 41//41
f 45//45 40//40 41//41
f 47//47 49//49 48//48
f 50//50 49//49 47//47
f 47//47 46//46 51//51
f 52//52 49//49 50//50
f 30//30 19//19 53//53
f 20//20 25//25 31//31
f 1//1 26//26 17//17
f 27//27 72//72 23//23
f 72//72 27//27 34//34
f 32//32 54//54 28//28
f 28//28 54//54 34//34
f 55//55 72//72 34//34
f 42//42 55//55 54//54
f 54//54 55//55 34//34
f 54//54 56//56 42//42
f 57//57 72//72 55//55
f 42//42 56//56 37//37
f 43//43 37//37 56//56
f 14//14 8//8 15//15
f 44//44 58//58 38//38
f 43//43 59//59 41//41
f 44//44 40//40 45//45
f 59//59 45//45 41//41
f 83//83 60//60 61//61
f 83//83 46//46 87//87
f 61//61 46//46 83//83
f 62//62 61//61 60//60
f 63//63 87//87 47//47
f 46//46 47//47 87//87
f 62//62 46//46 61//61
f 47//47 48//48 63//63
f 90//90 46//46 62//62
f 92//92 63//63 48//48
f 46//46 64//64 51//51
f 64//64 46//46 90//90
f 49//49 92//92 48//48
f 47//47 65//65 50//50
f 51//51 65//65 47//47
f 66//66 50//50 65//65
f 92//92 49//49 52//52
f 50//50 66//66 52//52
f 66//66 67//67 52//52
f 30//30 53//53 67//67
f 25//25 30//30 67//67
f 17//17 68//68 16//16
f 17//17 26//26 69//69
f 68//68 17//17 69//69
f 26//26 23//23 69//69
f 32//32 33//33 70//70
f 70//70 33//33 71//71
f 33//33 24//24 71//71
f 24//24 14//14 71//71
f 23//23 72//72 69//69
f 70//70 54//54 32//32
f 69//69 74//74 68//68
f 72//72 75//75 69//69
f 71//71 73//73 70//70
f 69//69 75//75 74//74
f 70//70 56//56 54//54
f 76//76 74//74 75//75
f 57//57 75//75 72//72
f 73//73 56//56 70//70
f 73//73 77//77 56//56
f 57//57 58//58 75//75
f 75//75 58//58 76//76
f 77//77 43//43 56//56
f 71//71 79//79 73//73
f 76//76 78//78 74//74
f 77//77 80//80 43//43
f 58//58 44//44 76//76
f 73//73 79//79 77//77
f 14//14 15//15 82//82
f 71//71 14//14 82//82
f 82//82 79//79 71//71
f 76//76 44//44 78//78
f 59//59 43//43 80//80
f 77//77 79//79 80//80
f 44//44 45//45 81//81
f 84//84 83//83 59//59
f 80//80 84//84 59//59
f 79//79 84//84 80//80
f 44//44 85//85 78//78
f 59//59 81//81 45//45
f 60//60 84//84 79//79
f 78//78 86//86 74//74
f 81//81 85//85 44//44
f 83//83 81//81 59//59
f 84//84 60//60 83//83
f 88//88 60//60 79//79
f 82//82 88//88 79//79
f 83//83 87//87 81//81
f 85//85 89//89 78//78
f 81//81 87//87 85//85
f 74//74 86//86 68//68
f 89//89 86//86 78//78
f 87//87 63//63 85//85
f 88//88 62//62 60//60
f 85//85 63//63 89//89
f 88//88 90//90 62//62
f 68//68 91//91 13//13
f 16//16 68//68 13//13
f 86//86 91//91 68//68
f 89//89 92//92 86//86
f 63//63 92//92 89//89
f 96//96 88//88 82//82
f 82//82 15//15 96//96
f 96//96 90//90 88//88
f 51//51 64//64 65//65
f 92//92 93//93 86//86
f 92//92 52//52 93//93
f 64//64 95//95 65//65
f 90//90 95//95 64//64
f 65//65 94//94 66//66
f 95//95 94//94 65//65
f 93//93 91//91 86//86
f 52//52 67//67 93//93
f 67//67 53//53 93//93
f 66//66 94//94 67//67
f 90//90 96//96 95//95
f 13//13 91//91 19//19
f 93//93 19//19 91//91
f 53//53 19//19 93//93
f 25//25 67//67 94//94
f 95//95 25//25 94//94
f 31//31 25//25 95//95
f 96//96 31//31 95//95
f 18//18 31//31 96//96
f 15//15 18//18 96//96
