# Blender 4.1.1
# www.blender.org
mtllib aa0831.mtl
o Liquid_Domain
v -8.134167 -8.755833 6.217273
v -8.487272 -8.755834 5.864167
v -8.134167 -9.108939 5.864167
v 8.134167 -8.755833 6.217273
v 8.487272 -8.755833 5.864167
v -8.487272 -8.755834 -5.864167
v 8.134167 -9.108939 5.864167
v -8.134167 -9.108939 -5.864167
v 8.134167 -9.108939 -5.864167
v 8.487272 -8.755833 -5.864167
v -8.134167 -8.755833 -6.217273
v 8.134167 -8.755833 -6.217273
v 8.134167 6.755833 6.217273
v -8.134167 6.755833 6.217273
v 8.134167 6.755833 -6.217273
v 8.487272 6.755833 5.864167
v 8.487272 6.755833 -5.864167
v -8.487272 6.755834 5.864167
v -3.396447 5.226161 -6.216861
v -8.487144 6.756360 1.085136
v -8.487148 4.901467 -5.864690
v -8.136844 6.730666 -6.204735
v -8.440635 6.737476 -1.375511
v -8.450969 6.745261 -5.872862
v 1.054420 6.756673 -6.208144
v -5.594437 6.161382 -6.179554
v -2.056443 6.003198 -1.347359
v -2.434131 5.988758 -3.067256
v -2.187888 6.742841 -6.174749
v -2.831457 6.168626 -0.833926
v -3.794635 6.333571 -1.269853
v -2.532722 6.005774 -1.544322
v -4.679001 6.188557 -1.830905
v -3.744393 6.435812 -1.972538
v -3.161697 6.451910 -1.894267
v -0.774872 6.679616 -1.693728
v -5.448785 6.261791 -2.556788
v -4.502901 6.127523 -2.180310
v -0.857801 6.478863 -2.257179
v -5.041740 6.097984 -2.755260
v -2.880357 6.019625 -3.158932
v -1.463128 6.412539 -3.227331
v -4.078364 6.414429 -2.885388
v -3.590409 6.375203 -3.460421
v -5.497096 6.357530 -3.868822
v -5.020752 6.251855 -4.060898
v -3.609873 6.504003 -3.990247
v -2.532846 6.133280 -3.621609
v -3.300913 6.823340 -0.107442
v -2.660473 6.986297 0.193801
v -1.907904 6.802011 -0.507028
v -4.170456 6.838335 -0.684324
v -5.402574 6.807306 -1.435819
v -3.317304 6.526160 -2.537426
v -0.911237 6.527420 -3.152834
v -0.392878 6.839414 -3.100354
v -6.096711 6.870889 -3.654393
v -5.748247 6.785328 -4.267093
v -1.709220 6.782291 -4.065270
v -3.092813 6.766291 -4.378170
v -4.876128 6.832859 -4.736713
v -5.494835 6.742033 -6.106410
v -8.134167 7.108939 5.864166
v -2.730227 7.103929 5.059374
v 8.134167 7.108939 5.864166
v 8.134167 7.108939 -5.864166
v -3.739240 7.053167 1.881176
v -2.488121 7.040756 2.358709
v -5.802657 7.108642 3.037148
v 4.569816 7.107046 -2.416538
v 2.554374 7.062396 -1.949018
v -8.126711 7.096093 0.418419
v -5.478036 7.054089 0.808939
v -6.855750 7.048955 -0.633225
v -3.203049 7.073621 0.901036
v 0.656425 7.029123 -0.699107
v 0.268557 7.055440 -1.565515
v -3.957036 7.039016 -0.031454
v -5.033054 7.073895 -0.375645
v -0.812313 7.004243 -1.014633
v -5.944131 7.062000 -1.100560
v -6.930447 7.059730 -1.853434
v -5.888758 6.813996 -2.097163
v 1.678113 7.082949 -3.246867
v 0.292338 7.069285 -3.567108
v -8.137074 7.008890 -4.168611
v -0.530434 7.051873 -4.060133
v -6.811399 7.070026 -3.939182
v -8.125997 7.081833 -5.865299
v -5.613704 7.059765 -5.260200
v 2.148290 7.110233 -5.863708
v -2.839822 7.062675 -4.962682
v -0.956589 7.034139 -4.748142
v -5.476113 6.991515 -5.855031
v -1.883793 7.043825 -5.864604
vn -0.3102 -0.3161 0.8966
vn -0.8644 -0.3430 0.3677
vn -0.3350 -0.8684 0.3657
vn 0.3102 -0.3161 0.8966
vn 0.8644 -0.3430 0.3677
vn -0.8644 -0.3429 -0.3678
vn 0.3350 -0.8684 0.3657
vn -0.3350 -0.8684 -0.3657
vn 0.3350 -0.8684 -0.3657
vn 0.8644 -0.3430 -0.3677
vn -0.3103 -0.3159 -0.8966
vn 0.3102 -0.3160 -0.8966
vn 0.3102 0.3161 0.8966
vn -0.3102 0.3161 0.8966
vn 0.3098 0.3158 -0.8968
vn 0.8644 0.3430 0.3677
vn 0.8644 0.3430 -0.3677
vn -0.8644 0.3430 0.3677
vn -0.0017 0.0147 -0.9999
vn -0.9169 0.3991 -0.0035
vn -0.9109 0.0058 -0.4126
vn -0.3091 0.3173 -0.8965
vn -0.9236 0.3833 -0.0083
vn -0.8660 0.3519 -0.3553
vn -0.0054 0.3588 -0.9334
vn 0.0228 0.1186 -0.9927
vn -0.2645 0.9157 -0.3026
vn -0.1120 0.9911 0.0723
vn -0.0119 0.3814 -0.9243
vn 0.0778 0.8856 -0.4580
vn 0.2161 0.9473 -0.2365
vn 0.2049 0.9787 0.0124
vn 0.1452 0.9197 -0.3647
vn -0.1789 0.9805 0.0813
vn 0.2846 0.9436 0.1690
vn -0.3778 0.8564 -0.3519
vn 0.5255 0.8381 -0.1463
vn -0.1881 0.9804 -0.0587
vn -0.3798 0.9250 -0.0137
vn 0.1005 0.9942 0.0390
vn 0.2825 0.9592 0.0157
vn -0.2511 0.9674 -0.0326
vn -0.2210 0.9753 0.0064
vn 0.2936 0.9478 0.1245
vn 0.4730 0.8451 0.2490
vn 0.1013 0.9021 0.4194
vn -0.0395 0.9377 0.3451
vn -0.0808 0.8784 0.4711
vn 0.1836 0.8806 -0.4368
vn -0.1578 0.9155 -0.3701
vn -0.4107 0.6961 -0.5888
vn 0.2511 0.8757 -0.4125
vn 0.3190 0.8652 -0.3868
vn 0.2922 0.9539 -0.0688
vn -0.3661 0.9066 0.2098
vn -0.2769 0.9211 0.2736
vn 0.4527 0.8901 0.0527
vn 0.3660 0.8549 0.3677
vn -0.1970 0.8858 0.4201
vn -0.0644 0.8537 0.5168
vn 0.0238 0.8656 0.5001
vn 0.0066 0.4217 -0.9067
vn -0.3349 0.8685 0.3654
vn -0.0000 1.0000 -0.0080
vn 0.3349 0.8684 0.3656
vn 0.3350 0.8684 -0.3656
vn 0.0070 1.0000 -0.0027
vn -0.0024 0.9999 -0.0127
vn 0.0066 0.9999 -0.0104
vn -0.0061 1.0000 0.0012
vn -0.0188 0.9998 0.0003
vn -0.3679 0.9297 -0.0162
vn 0.0045 1.0000 -0.0058
vn 0.0148 0.9999 0.0007
vn 0.0051 0.9990 -0.0454
vn -0.0204 0.9996 -0.0206
vn -0.1263 0.9891 -0.0751
vn 0.1647 0.9594 -0.2288
vn 0.0691 0.9905 -0.1187
vn -0.2561 0.9005 -0.3515
vn 0.1055 0.9849 -0.1376
vn 0.0746 0.9962 -0.0458
vn 0.4111 0.8898 -0.1982
vn -0.0101 0.9999 0.0122
vn -0.0949 0.9929 0.0711
vn -0.3313 0.9435 -0.0048
vn -0.1454 0.9782 0.1480
vn 0.0929 0.9954 0.0232
vn -0.3298 0.8726 -0.3603
vn 0.0388 0.9968 0.0702
vn -0.0069 0.9140 -0.4057
vn -0.0199 0.9748 0.2222
vn -0.0580 0.9948 0.0832
vn 0.0074 0.8924 -0.4512
vn -0.0067 0.9179 -0.3967
s 1
usemtl Liquid_Domain_Material
f 3//3 1//1 2//2
f 3//3 7//7 4//4
f 1//1 3//3 4//4
f 4//4 7//7 5//5
f 6//6 3//3 2//2
f 9//9 5//5 7//7
f 8//8 3//3 6//6
f 7//7 3//3 9//9
f 9//9 3//3 8//8
f 10//10 5//5 9//9
f 8//8 6//6 11//11
f 9//9 8//8 11//11
f 12//12 9//9 11//11
f 10//10 9//9 12//12
f 1//1 4//4 13//13
f 1//1 14//14 2//2
f 5//5 10//10 16//16
f 15//15 10//10 12//12
f 16//16 4//4 5//5
f 17//17 10//10 15//15
f 16//16 10//10 17//17
f 2//2 14//14 18//18
f 1//1 13//13 14//14
f 2//2 18//18 6//6
f 13//13 4//4 16//16
f 12//12 11//11 19//19
f 18//18 20//20 6//6
f 19//19 11//11 22//22
f 6//6 21//21 22//22
f 11//11 6//6 22//22
f 6//6 20//20 21//21
f 23//23 24//24 21//21
f 12//12 19//19 25//25
f 19//19 22//22 26//26
f 19//19 29//29 25//25
f 20//20 23//23 21//21
f 21//21 24//24 22//22
f 19//19 26//26 29//29
f 32//32 31//31 30//30
f 27//27 32//32 30//30
f 34//34 33//33 31//31
f 35//35 34//34 31//31
f 35//35 31//31 32//32
f 34//34 38//38 33//33
f 36//36 39//39 27//27
f 33//33 40//40 37//37
f 38//38 40//40 33//33
f 43//43 38//38 34//34
f 54//54 35//35 41//41
f 32//32 28//28 35//35
f 28//28 41//41 35//35
f 27//27 28//28 32//32
f 42//42 28//28 27//27
f 39//39 42//42 27//27
f 43//43 40//40 38//38
f 41//41 44//44 54//54
f 40//40 46//46 37//37
f 46//46 45//45 37//37
f 43//43 47//47 40//40
f 41//41 48//48 44//44
f 28//28 48//48 41//41
f 48//48 28//28 42//42
f 47//47 46//46 40//40
f 48//48 47//47 44//44
f 50//50 30//30 49//49
f 30//30 50//50 27//27
f 50//50 51//51 27//27
f 52//52 49//49 31//31
f 49//49 30//30 31//31
f 52//52 31//31 53//53
f 51//51 36//36 27//27
f 31//31 33//33 53//53
f 83//83 53//53 37//37
f 33//33 37//37 53//53
f 35//35 54//54 34//34
f 54//54 43//43 34//34
f 39//39 55//55 42//42
f 39//39 56//56 55//55
f 83//83 37//37 57//57
f 54//54 44//44 43//43
f 37//37 45//45 57//57
f 44//44 47//47 43//43
f 48//48 42//42 55//55
f 57//57 45//45 58//58
f 59//59 48//48 55//55
f 45//45 46//46 58//58
f 46//46 47//47 60//60
f 60//60 47//47 48//48
f 59//59 60//60 48//48
f 61//61 58//58 46//46
f 60//60 61//61 46//46
f 26//26 22//22 62//62
f 26//26 62//62 29//29
f 12//12 25//25 15//15
f 14//14 63//63 18//18
f 63//63 14//14 65//65
f 14//14 13//13 65//65
f 13//13 16//16 65//65
f 64//64 69//69 63//63
f 65//65 64//64 63//63
f 65//65 16//16 66//66
f 64//64 67//67 69//69
f 18//18 63//63 20//20
f 64//64 68//68 67//67
f 71//71 68//68 64//64
f 70//70 71//71 64//64
f 16//16 17//17 66//66
f 69//69 72//72 63//63
f 69//69 73//73 72//72
f 67//67 73//73 69//69
f 68//68 75//75 67//67
f 63//63 72//72 20//20
f 65//65 70//70 64//64
f 73//73 74//74 72//72
f 75//75 79//79 73//73
f 67//67 75//75 73//73
f 71//71 76//76 68//68
f 68//68 77//77 75//75
f 77//77 50//50 75//75
f 76//76 77//77 68//68
f 20//20 72//72 23//23
f 75//75 78//78 79//79
f 49//49 78//78 75//75
f 50//50 49//49 75//75
f 73//73 79//79 74//74
f 77//77 80//80 50//50
f 80//80 51//51 50//50
f 78//78 52//52 79//79
f 49//49 52//52 78//78
f 79//79 81//81 74//74
f 52//52 81//81 79//79
f 81//81 82//82 74//74
f 52//52 53//53 81//81
f 36//36 51//51 80//80
f 74//74 82//82 72//72
f 53//53 83//83 81//81
f 77//77 36//36 80//80
f 81//81 83//83 82//82
f 39//39 36//36 77//77
f 76//76 84//84 77//77
f 76//76 71//71 84//84
f 66//66 70//70 65//65
f 82//82 86//86 72//72
f 83//83 57//57 82//82
f 57//57 88//88 82//82
f 77//77 85//85 39//39
f 85//85 56//56 39//39
f 72//72 86//86 24//24
f 23//23 72//72 24//24
f 84//84 85//85 77//77
f 70//70 84//84 71//71
f 56//56 87//87 55//55
f 85//85 87//87 56//56
f 82//82 88//88 86//86
f 59//59 55//55 87//87
f 86//86 89//89 24//24
f 57//57 58//58 88//88
f 85//85 93//93 87//87
f 84//84 91//91 85//85
f 88//88 90//90 86//86
f 61//61 60//60 92//92
f 59//59 93//93 60//60
f 93//93 92//92 60//60
f 87//87 93//93 59//59
f 70//70 91//91 84//84
f 90//90 89//89 86//86
f 58//58 90//90 88//88
f 61//61 90//90 58//58
f 92//92 90//90 61//61
f 91//91 93//93 85//85
f 66//66 91//91 70//70
f 90//90 94//94 89//89
f 92//92 95//95 90//90
f 95//95 94//94 90//90
f 93//93 95//95 92//92
f 91//91 95//95 93//93
f 24//24 89//89 22//22
f 62//62 22//22 89//89
f 94//94 62//62 89//89
f 95//95 62//62 94//94
f 29//29 62//62 95//95
f 25//25 29//29 95//95
f 91//91 25//25 95//95
f 15//15 25//25 91//91
f 66//66 15//15 91//91
f 17//17 15//15 66//66
