# Blender 4.1.1
# www.blender.org
mtllib aa0824.mtl
o Liquid_Domain
v -8.134167 -8.755833 6.217273
v -8.487272 -8.755834 5.864167
v -8.134167 -9.108939 5.864167
v 8.134167 -8.755833 6.217273
v 8.487272 -8.755833 5.864167
v 8.134167 -9.108939 5.864167
v 8.487272 -8.755833 -5.864167
v -8.487272 -8.755834 -5.864167
v -8.134167 -9.108939 -5.864167
v 8.134167 -9.108939 -5.864167
v -8.134167 -8.755833 -6.217273
v 8.134167 -8.755833 -6.217273
v 8.134167 6.755833 6.217273
v -8.480780 6.726914 -5.868865
v 8.487272 6.755833 -5.864167
v 8.487272 6.755833 5.864167
v -8.134167 6.755833 6.217273
v -8.487272 6.755833 5.864167
v 8.134167 6.755833 -6.217273
v -4.346828 5.013859 -6.215834
v -0.245690 6.713841 -6.191559
v -8.485738 6.757156 1.054756
v -8.137305 6.759058 -6.201762
v -8.484096 5.603573 -2.160549
v -8.432298 6.730429 -3.073921
v 2.565898 6.756170 -6.217060
v -5.027119 6.673172 -6.142651
v -2.648429 5.984842 -0.851725
v -2.736486 5.730856 -1.260487
v -1.892157 6.004175 -1.386389
v -4.176239 5.926364 -1.838802
v -2.223020 5.814025 -1.812473
v -5.170127 5.955201 -2.474530
v -3.699763 5.910364 -2.000329
v -3.305792 6.218119 -2.398367
v -2.167912 5.923523 -2.074063
v -4.348558 5.726668 -2.653176
v -4.929705 5.732916 -2.861555
v -2.271119 6.026274 -3.418330
v -1.457702 6.027471 -3.330421
v -5.489033 6.113207 -3.369419
v -4.648271 5.883629 -3.653174
v -5.079465 6.023984 -3.823689
v -1.902290 6.742210 -6.192709
v -3.350988 6.087900 -0.909108
v -1.860847 6.690639 -0.544486
v -1.155731 6.375142 -1.645208
v -0.437595 6.446805 -3.001573
v -3.178402 6.344163 -3.884703
v -2.152528 6.401486 -4.039303
v -4.245680 6.339998 -4.324598
v -0.256095 6.825225 -1.696078
v -6.081336 6.806098 -2.624435
v 0.108998 6.827995 -3.045524
v -6.029003 6.789177 -3.497334
v -0.190147 6.975060 -3.815813
v -5.349763 6.742477 -4.416302
v -1.689433 6.777120 -4.287442
v -3.964902 6.810965 -4.801946
v -5.083436 6.854726 -5.988792
v -8.134167 7.108939 5.864166
v 8.134167 7.108939 5.864166
v -3.087451 7.090286 4.181166
v -1.100766 7.109022 3.987415
v -5.927086 7.102332 2.691651
v -2.080822 7.014088 1.657491
v -4.814417 7.053275 1.370222
v -2.508973 7.075375 0.857475
v 2.326270 7.068725 -1.394258
v -8.097442 7.073835 -1.899885
v -6.548261 7.047871 -0.483145
v -4.482877 7.086413 -0.019934
v -1.794702 7.024737 -0.046518
v 0.570398 7.035696 -0.590039
v 4.960212 7.107489 -2.727135
v -3.109993 6.780406 -0.147186
v -4.028005 6.911983 -0.480729
v 0.943614 7.071955 -2.248640
v -6.316533 7.066822 -1.532578
v -4.978592 6.926078 -1.113412
v -5.721869 6.814277 -1.920128
v -8.139009 7.029327 -3.481773
v 0.746336 7.078126 -3.630931
v 8.134167 7.108939 -5.864166
v -6.482588 7.025784 -3.898009
v 1.907261 7.065036 -4.140079
v -6.010309 7.060022 -5.798074
v -0.609523 7.075933 -4.563000
v -8.122339 7.093695 -5.855369
v -5.261070 7.049558 -5.241091
v -1.842893 7.029170 -4.915958
v -3.875219 7.036063 -5.271472
v 2.053006 7.098752 -5.865880
v -0.801771 7.067968 -5.852240
v -3.261949 7.017174 -5.861323
vn -0.3102 -0.3161 0.8966
vn -0.8644 -0.3430 0.3677
vn -0.3350 -0.8684 0.3657
vn 0.3102 -0.3161 0.8966
vn 0.8644 -0.3430 0.3677
vn 0.3350 -0.8684 0.3657
vn 0.8644 -0.3430 -0.3677
vn -0.8644 -0.3430 -0.3677
vn -0.3350 -0.8684 -0.3657
vn 0.3350 -0.8684 -0.3657
vn -0.3102 -0.3159 -0.8967
vn 0.3102 -0.3161 -0.8966
vn 0.3102 0.3161 0.8966
vn -0.8663 0.3381 -0.3678
vn 0.8644 0.3430 -0.3677
vn 0.8644 0.3430 0.3677
vn -0.3102 0.3161 0.8966
vn -0.8644 0.3430 0.3676
vn 0.3102 0.3161 -0.8966
vn 0.0026 0.0131 -0.9999
vn -0.0059 0.3436 -0.9391
vn -0.9092 0.4163 -0.0045
vn -0.3024 0.3338 -0.8928
vn -0.9998 0.0172 -0.0034
vn -0.9124 0.4092 0.0058
vn -0.0044 0.3574 -0.9339
vn 0.0083 0.3472 -0.9378
vn -0.1195 0.7599 -0.6389
vn -0.0032 0.9647 -0.2633
vn -0.4557 0.8371 -0.3026
vn 0.1413 0.9428 -0.3018
vn -0.2934 0.9332 0.2074
vn 0.4805 0.8117 -0.3321
vn -0.0820 0.9933 0.0809
vn -0.1052 0.9517 0.2884
vn -0.1324 0.9813 0.1396
vn -0.1537 0.9881 0.0010
vn 0.2746 0.9602 -0.0512
vn 0.1000 0.9583 0.2678
vn -0.2474 0.9236 0.2930
vn 0.6299 0.7532 0.1893
vn -0.0535 0.9402 0.3363
vn 0.3484 0.7922 0.5010
vn -0.0057 0.3737 -0.9275
vn 0.2926 0.7786 -0.5552
vn -0.3288 0.7484 -0.5760
vn -0.4369 0.8508 -0.2919
vn -0.4817 0.8730 0.0764
vn -0.0888 0.9352 0.3428
vn -0.0241 0.6750 0.7375
vn -0.0029 0.7709 0.6369
vn -0.3993 0.8560 -0.3283
vn 0.6298 0.7676 -0.1191
vn -0.4669 0.8834 0.0406
vn 0.5658 0.8093 0.1580
vn -0.2543 0.9095 0.3289
vn 0.3166 0.8154 0.4847
vn -0.1706 0.8357 0.5220
vn -0.0033 0.8360 0.5487
vn 0.0219 0.8181 -0.5746
vn -0.3347 0.8689 0.3647
vn 0.3350 0.8684 0.3656
vn -0.0063 0.9994 -0.0345
vn -0.0056 0.9999 -0.0096
vn 0.0072 0.9999 -0.0107
vn -0.0103 0.9999 -0.0053
vn 0.0082 1.0000 -0.0025
vn 0.0019 0.9995 -0.0326
vn -0.0182 0.9998 -0.0090
vn -0.3640 0.9313 -0.0112
vn 0.0095 0.9999 -0.0039
vn 0.0712 0.9924 -0.1007
vn -0.1932 0.9307 -0.3108
vn -0.0041 1.0000 0.0025
vn -0.0063 1.0000 -0.0005
vn 0.0754 0.8527 -0.5170
vn 0.2904 0.8567 -0.4263
vn -0.0792 0.9968 -0.0099
vn 0.1045 0.9905 -0.0895
vn 0.3108 0.8583 -0.4083
vn 0.4153 0.8361 -0.3585
vn -0.3975 0.9176 -0.0031
vn -0.0739 0.9957 0.0556
vn 0.3347 0.8685 -0.3655
vn 0.1925 0.9776 0.0847
vn -0.0067 0.9999 0.0091
vn 0.0459 0.9278 -0.3702
vn -0.0884 0.9880 0.1267
vn -0.3244 0.8796 -0.3479
vn 0.0563 0.9968 0.0576
vn -0.0582 0.9763 0.2086
vn -0.0046 0.9824 0.1867
vn -0.0105 0.9149 -0.4036
vn -0.0071 0.9139 -0.4059
vn -0.0251 0.9052 -0.4243
s 1
usemtl Liquid_Domain_Material
f 3//3 1//1 2//2
f 3//3 6//6 1//1
f 1//1 6//6 4//4
f 4//4 6//6 5//5
f 7//7 5//5 6//6
f 10//10 7//7 6//6
f 9//9 3//3 2//2
f 8//8 9//9 2//2
f 6//6 3//3 10//10
f 10//10 3//3 9//9
f 9//9 8//8 11//11
f 10//10 9//9 11//11
f 12//12 10//10 11//11
f 7//7 10//10 12//12
f 1//1 4//4 13//13
f 19//19 7//7 12//12
f 8//8 14//14 11//11
f 12//12 11//11 19//19
f 15//15 7//7 19//19
f 16//16 4//4 5//5
f 1//1 17//17 2//2
f 1//1 13//13 17//17
f 2//2 18//18 8//8
f 5//5 7//7 15//15
f 13//13 4//4 16//16
f 22//22 24//24 8//8
f 8//8 24//24 14//14
f 2//2 17//17 18//18
f 18//18 22//22 8//8
f 11//11 14//14 23//23
f 11//11 23//23 20//20
f 19//19 11//11 26//26
f 24//24 25//25 14//14
f 11//11 20//20 44//44
f 11//11 44//44 21//21
f 11//11 21//21 26//26
f 20//20 23//23 27//27
f 22//22 25//25 24//24
f 45//45 28//28 29//29
f 30//30 29//29 28//28
f 31//31 45//45 34//34
f 45//45 29//29 34//34
f 32//32 34//34 29//29
f 30//30 32//32 29//29
f 32//32 35//35 34//34
f 36//36 35//35 32//32
f 31//31 37//37 33//33
f 37//37 38//38 33//33
f 34//34 37//37 31//31
f 36//36 32//32 30//30
f 34//34 35//35 37//37
f 41//41 33//33 38//38
f 37//37 42//42 38//38
f 40//40 39//39 36//36
f 43//43 41//41 38//38
f 42//42 43//43 38//38
f 42//42 37//37 35//35
f 20//20 27//27 44//44
f 28//28 46//46 30//30
f 46//46 47//47 30//30
f 45//45 31//31 33//33
f 47//47 36//36 30//30
f 36//36 49//49 35//35
f 39//39 49//49 36//36
f 40//40 36//36 47//47
f 40//40 47//47 48//48
f 41//41 53//53 33//33
f 55//55 53//53 41//41
f 49//49 42//42 35//35
f 39//39 50//50 49//49
f 50//50 39//39 40//40
f 42//42 51//51 43//43
f 49//49 51//51 42//42
f 16//16 5//5 15//15
f 77//77 76//76 45//45
f 45//45 76//76 28//28
f 28//28 76//76 46//46
f 80//80 77//77 45//45
f 52//52 47//47 46//46
f 33//33 81//81 80//80
f 45//45 33//33 80//80
f 52//52 48//48 47//47
f 81//81 33//33 53//53
f 52//52 54//54 48//48
f 40//40 48//48 56//56
f 56//56 48//48 54//54
f 43//43 57//57 55//55
f 43//43 55//55 41//41
f 50//50 40//40 58//58
f 56//56 58//58 40//40
f 57//57 43//43 51//51
f 51//51 49//49 58//58
f 49//49 50//50 58//58
f 59//59 57//57 51//51
f 58//58 59//59 51//51
f 27//27 23//23 60//60
f 17//17 61//61 18//18
f 61//61 17//17 62//62
f 17//17 13//13 62//62
f 13//13 16//16 62//62
f 64//64 61//61 62//62
f 64//64 63//63 61//61
f 18//18 61//61 22//22
f 63//63 65//65 61//61
f 16//16 15//15 62//62
f 63//63 66//66 65//65
f 64//64 74//74 63//63
f 66//66 67//67 65//65
f 67//67 71//71 65//65
f 68//68 67//67 66//66
f 74//74 66//66 63//63
f 61//61 70//70 22//22
f 65//65 70//70 61//61
f 69//69 74//74 64//64
f 71//71 70//70 65//65
f 72//72 71//71 67//67
f 68//68 72//72 67//67
f 74//74 68//68 66//66
f 75//75 69//69 64//64
f 68//68 76//76 72//72
f 73//73 76//76 68//68
f 62//62 75//75 64//64
f 22//22 70//70 25//25
f 76//76 77//77 72//72
f 73//73 46//46 76//76
f 68//68 78//78 73//73
f 62//62 15//15 84//84
f 72//72 79//79 71//71
f 74//74 78//78 68//68
f 72//72 80//80 79//79
f 77//77 80//80 72//72
f 46//46 73//73 52//52
f 78//78 52//52 73//73
f 79//79 70//70 71//71
f 80//80 81//81 79//79
f 70//70 82//82 25//25
f 69//69 78//78 74//74
f 81//81 53//53 79//79
f 78//78 83//83 52//52
f 83//83 54//54 52//52
f 84//84 75//75 62//62
f 79//79 85//85 70//70
f 53//53 85//85 79//79
f 69//69 86//86 78//78
f 53//53 55//55 85//85
f 83//83 56//56 54//54
f 75//75 86//86 69//69
f 85//85 87//87 70//70
f 87//87 82//82 70//70
f 55//55 57//57 85//85
f 78//78 86//86 83//83
f 56//56 88//88 58//58
f 83//83 88//88 56//56
f 82//82 89//89 25//25
f 57//57 90//90 85//85
f 59//59 58//58 91//91
f 88//88 91//91 58//58
f 86//86 88//88 83//83
f 75//75 93//93 86//86
f 25//25 89//89 14//14
f 90//90 87//87 85//85
f 59//59 92//92 57//57
f 92//92 90//90 57//57
f 91//91 92//92 59//59
f 86//86 93//93 88//88
f 93//93 94//94 88//88
f 82//82 87//87 89//89
f 94//94 92//92 91//91
f 88//88 94//94 91//91
f 84//84 93//93 75//75
f 60//60 87//87 90//90
f 95//95 60//60 90//90
f 92//92 95//95 90//90
f 94//94 95//95 92//92
f 14//14 89//89 23//23
f 87//87 23//23 89//89
f 60//60 23//23 87//87
f 95//95 27//27 60//60
f 44//44 27//27 95//95
f 94//94 44//44 95//95
f 21//21 44//44 94//94
f 93//93 21//21 94//94
f 26//26 21//21 93//93
f 84//84 26//26 93//93
f 19//19 26//26 84//84
f 15//15 19//19 84//84
