# Blender 4.1.1
# www.blender.org
mtllib aa0986.mtl
o Liquid_Domain
v -8.134167 -8.755833 6.217273
v -8.487272 -8.755834 5.864167
v -8.134167 -9.108939 5.864167
v 8.487272 -8.755833 5.864167
v 8.134167 -9.108939 5.864167
v -8.134167 -9.108939 -5.864167
v 8.134167 -9.108939 -5.864167
v -8.487272 -8.755834 -5.864167
v 8.487272 -8.755833 -5.864167
v -8.134167 -8.755833 -6.217273
v 8.134167 -8.755833 -6.217273
v -8.134167 6.755833 -6.217273
v -8.134167 6.755833 6.217273
v 8.485859 6.727200 5.862857
v 8.134167 6.755833 -6.217273
v 8.134167 -8.755833 6.217273
v -8.487272 6.755834 -5.864167
v -8.487272 6.755834 5.864167
v 8.487272 6.755833 -5.864167
v 1.296518 3.519584 6.216649
v 5.151375 4.511199 6.217251
v 3.449584 4.434607 6.145062
v 8.484524 6.743492 2.042768
v 0.951938 4.954471 6.169968
v 2.280590 4.712769 6.145793
v 0.032170 5.767434 6.189827
v 4.460117 5.408497 6.173119
v -1.426080 6.680073 6.144834
v 1.399372 5.524516 5.912604
v 2.153118 5.499608 5.793365
v 3.352217 5.333093 5.619553
v 8.143580 6.717459 6.204806
v 2.787372 5.969464 5.217446
v -4.202537 6.746372 6.210532
v 4.002576 6.222473 5.862366
v -0.892002 6.644886 6.153805
v 0.400581 6.215810 5.922544
v 1.704579 6.420343 5.153920
v 3.413824 6.334298 5.211770
v 2.108559 5.882069 2.987108
v 2.495254 5.819417 3.123311
v 2.919267 5.959865 3.078509
v 1.592984 6.064372 1.837859
v 2.718811 5.615099 2.301808
v 3.290995 5.930559 1.850239
v 2.495173 5.890068 1.499362
v 3.018960 6.147963 1.347663
v 4.716816 6.312766 6.123482
v 0.593139 6.760313 5.348006
v 2.717007 6.506566 4.737453
v 1.875310 6.207686 3.590294
v 3.861494 6.735495 2.139834
v -0.393194 6.784060 5.927737
v 6.044116 6.759235 6.129978
v 4.215784 6.757784 5.762792
v 3.416875 6.769411 4.863865
v 2.670514 6.537022 4.086361
v 3.006909 6.766146 4.278093
v 3.432977 6.796169 3.080760
v 0.865330 6.775511 2.767987
v 0.376901 6.814315 1.819820
v 3.812544 6.779997 1.526169
v 0.963776 6.720531 1.128559
v 2.558473 6.746978 0.833121
v -8.134167 7.108939 5.864166
v -4.213932 7.096646 5.867174
v -1.054751 7.033453 5.803633
v 5.377336 7.007300 5.703537
v -0.027635 7.045032 4.241935
v 4.347469 7.060335 4.954650
v 8.121728 7.098658 5.864265
v 1.586397 6.775783 4.561272
v -4.868740 7.108473 1.853936
v -2.351282 7.089192 4.446782
v 0.891450 6.860476 3.937795
v 3.787838 7.035924 3.521911
v -0.016837 7.070516 2.636885
v 6.234791 7.039779 1.924121
v 8.135521 7.079931 2.081184
v 4.501085 7.075775 2.492960
v -1.272571 7.044366 1.174259
v -0.395194 7.074131 1.708927
v -2.502489 7.066477 1.897850
v 4.158086 7.085018 1.097216
v 1.381564 7.071168 0.210786
v -8.134168 7.108939 -5.864166
v 3.365786 7.068086 0.534300
v 5.527531 7.080399 -0.204156
v 2.958952 7.076108 0.025298
v 8.134167 7.108939 -5.864166
v 1.332358 6.997013 -0.717315
v 3.544360 7.011539 -0.723629
v 0.948676 7.097031 -3.025774
v 3.685250 7.076901 -2.301210
vn -0.3101 -0.3159 0.8967
vn -0.8644 -0.3430 0.3677
vn -0.3350 -0.8684 0.3657
vn 0.8644 -0.3430 0.3677
vn 0.3350 -0.8684 0.3657
vn -0.3350 -0.8684 -0.3657
vn 0.3350 -0.8684 -0.3657
vn -0.8644 -0.3430 -0.3677
vn 0.8644 -0.3430 -0.3677
vn -0.3102 -0.3161 -0.8966
vn 0.3102 -0.3161 -0.8966
vn -0.3102 0.3161 -0.8966
vn -0.3092 0.3161 0.8969
vn 0.8644 0.3392 0.3711
vn 0.3102 0.3161 -0.8966
vn 0.3102 -0.3160 0.8966
vn -0.8644 0.3430 -0.3677
vn -0.8644 0.3430 0.3677
vn 0.8645 0.3432 -0.3673
vn 0.0031 0.0184 0.9998
vn -0.0124 0.0178 0.9998
vn -0.0739 0.2672 0.9608
vn 0.9187 0.3951 0.0005
vn 0.1067 0.1496 0.9830
vn 0.0876 0.2676 0.9595
vn 0.1278 0.1614 0.9786
vn -0.1911 0.1090 0.9755
vn 0.0256 0.3852 0.9225
vn 0.2223 0.4026 0.8880
vn 0.2472 0.4926 0.8344
vn -0.2920 0.4052 0.8664
vn 0.3065 0.3026 0.9025
vn 0.0020 0.5690 0.8223
vn 0.0120 0.3531 0.9355
vn -0.5080 0.2539 0.8231
vn 0.0818 0.3615 0.9288
vn 0.3208 0.4586 0.8287
vn 0.2578 0.7231 0.6408
vn -0.4986 0.4735 0.7261
vn 0.4078 0.8903 -0.2026
vn -0.0392 0.9126 -0.4070
vn -0.5669 0.7165 -0.4066
vn 0.4371 0.8847 0.1618
vn -0.1228 0.9923 -0.0133
vn -0.5778 0.7853 0.2223
vn 0.0461 0.8282 0.5586
vn -0.3458 0.6041 0.7180
vn -0.1847 0.2515 0.9501
vn 0.2856 0.8390 0.4632
vn -0.1121 0.8691 0.4818
vn 0.3015 0.8693 -0.3916
vn -0.6397 0.7650 -0.0744
vn 0.2829 0.6565 0.6993
vn -0.0635 0.4605 0.8854
vn -0.3832 0.6408 0.6653
vn -0.3924 0.8245 0.4077
vn -0.2848 0.9131 -0.2917
vn -0.4121 0.9086 0.0672
vn -0.5946 0.7426 -0.3083
vn 0.4483 0.8867 -0.1132
vn 0.3955 0.9185 0.0032
vn -0.5560 0.7527 0.3525
vn 0.3284 0.8257 0.4587
vn -0.0931 0.8097 0.5794
vn -0.3340 0.8686 0.3659
vn 0.0143 0.9091 0.4163
vn 0.0908 0.8965 0.4336
vn -0.0991 0.9065 0.4104
vn 0.1120 0.9932 0.0328
vn -0.1704 0.9742 0.1479
vn 0.3222 0.8623 0.3907
vn 0.2169 0.9739 0.0670
vn 0.0066 1.0000 0.0012
vn 0.0156 0.9999 0.0056
vn 0.2999 0.9443 -0.1351
vn -0.2529 0.9658 -0.0568
vn 0.1672 0.9854 -0.0328
vn -0.0050 1.0000 0.0054
vn 0.3642 0.9313 0.0006
vn -0.1635 0.9856 -0.0424
vn 0.0050 1.0000 0.0029
vn 0.0982 0.9949 0.0239
vn 0.0170 0.9998 -0.0053
vn -0.1422 0.9809 0.1328
vn 0.0331 0.9918 0.1238
vn -0.3348 0.8685 -0.3655
vn -0.1453 0.9789 0.1438
vn -0.0093 1.0000 0.0023
vn -0.0149 0.9979 0.0629
vn 0.3347 0.8692 -0.3640
vn 0.0067 1.0000 -0.0065
vn -0.0163 0.9998 -0.0061
vn 0.0047 0.9999 0.0151
vn -0.0063 0.9997 0.0215
s 1
usemtl Liquid_Domain_Material
f 3//3 1//1 2//2
f 3//3 5//5 1//1
f 1//1 5//5 16//16
f 16//16 5//5 4//4
f 7//7 3//3 6//6
f 5//5 3//3 7//7
f 8//8 3//3 2//2
f 6//6 3//3 8//8
f 7//7 4//4 5//5
f 9//9 4//4 7//7
f 6//6 8//8 10//10
f 11//11 6//6 10//10
f 7//7 6//6 11//11
f 9//9 7//7 11//11
f 11//11 10//10 12//12
f 1//1 13//13 2//2
f 10//10 8//8 12//12
f 14//14 16//16 4//4
f 4//4 9//9 14//14
f 11//11 12//12 15//15
f 15//15 9//9 11//11
f 2//2 17//17 8//8
f 2//2 13//13 18//18
f 32//32 16//16 14//14
f 19//19 9//9 15//15
f 16//16 20//20 1//1
f 8//8 17//17 12//12
f 2//2 18//18 17//17
f 16//16 21//21 20//20
f 21//21 22//22 20//20
f 14//14 9//9 23//23
f 20//20 22//22 25//25
f 1//1 20//20 26//26
f 20//20 25//25 24//24
f 21//21 27//27 22//22
f 1//1 26//26 34//34
f 26//26 20//20 24//24
f 9//9 19//19 23//23
f 26//26 28//28 34//34
f 25//25 30//30 24//24
f 24//24 30//30 29//29
f 31//31 22//22 27//27
f 16//16 32//32 21//21
f 33//33 30//30 25//25
f 22//22 33//33 25//25
f 31//31 33//33 22//22
f 1//1 34//34 13//13
f 24//24 29//29 26//26
f 31//31 27//27 35//35
f 26//26 36//36 28//28
f 29//29 37//37 26//26
f 21//21 32//32 27//27
f 38//38 37//37 29//29
f 38//38 29//29 30//30
f 39//39 31//31 35//35
f 31//31 39//39 33//33
f 41//41 44//44 40//40
f 42//42 44//44 41//41
f 44//44 42//42 45//45
f 44//44 43//43 40//40
f 44//44 46//46 43//43
f 45//45 46//46 44//44
f 45//45 47//47 46//46
f 26//26 37//37 36//36
f 48//48 35//35 27//27
f 27//27 32//32 48//48
f 38//38 49//49 37//37
f 38//38 30//30 33//33
f 33//33 50//50 38//38
f 39//39 50//50 33//33
f 51//51 57//57 41//41
f 41//41 40//40 51//51
f 42//42 41//41 57//57
f 60//60 40//40 43//43
f 45//45 42//42 52//52
f 63//63 43//43 46//46
f 53//53 36//36 37//37
f 48//48 55//55 35//35
f 48//48 54//54 55//55
f 32//32 54//54 48//48
f 49//49 53//53 37//37
f 39//39 35//35 55//55
f 39//39 55//55 56//56
f 49//49 38//38 72//72
f 38//38 50//50 72//72
f 50//50 39//39 56//56
f 50//50 57//57 72//72
f 58//58 57//57 50//50
f 58//58 50//50 56//56
f 57//57 51//51 72//72
f 51//51 75//75 72//72
f 58//58 59//59 57//57
f 75//75 51//51 60//60
f 51//51 40//40 60//60
f 59//59 42//42 57//57
f 59//59 52//52 42//42
f 60//60 43//43 61//61
f 52//52 62//62 45//45
f 61//61 43//43 63//63
f 45//45 62//62 47//47
f 63//63 46//46 64//64
f 64//64 46//46 47//47
f 64//64 47//47 62//62
f 13//13 65//65 18//18
f 13//13 34//34 66//66
f 65//65 13//13 66//66
f 34//34 28//28 66//66
f 66//66 28//28 67//67
f 28//28 36//36 67//67
f 67//67 36//36 53//53
f 55//55 54//54 68//68
f 68//68 54//54 71//71
f 54//54 32//32 71//71
f 32//32 14//14 71//71
f 67//67 74//74 66//66
f 53//53 49//49 67//67
f 69//69 74//74 67//67
f 55//55 70//70 56//56
f 68//68 70//70 55//55
f 49//49 69//69 67//67
f 72//72 69//69 49//49
f 66//66 73//73 65//65
f 74//74 73//73 66//66
f 72//72 75//75 69//69
f 58//58 56//56 76//76
f 70//70 76//76 56//56
f 80//80 76//76 70//70
f 71//71 70//70 68//68
f 14//14 23//23 71//71
f 75//75 60//60 69//69
f 60//60 77//77 69//69
f 76//76 59//59 58//58
f 78//78 80//80 70//70
f 71//71 79//79 70//70
f 71//71 23//23 79//79
f 69//69 83//83 74//74
f 80//80 59//59 76//76
f 79//79 78//78 70//70
f 83//83 73//73 74//74
f 81//81 83//83 69//69
f 77//77 82//82 69//69
f 82//82 81//81 69//69
f 52//52 59//59 80//80
f 61//61 82//82 77//77
f 60//60 61//61 77//77
f 78//78 84//84 80//80
f 80//80 62//62 52//52
f 61//61 63//63 82//82
f 80//80 84//84 62//62
f 64//64 62//62 84//84
f 78//78 88//88 84//84
f 63//63 85//85 82//82
f 63//63 64//64 85//85
f 84//84 87//87 64//64
f 85//85 81//81 82//82
f 64//64 89//89 85//85
f 87//87 89//89 64//64
f 88//88 87//87 84//84
f 18//18 65//65 17//17
f 73//73 86//86 65//65
f 81//81 73//73 83//83
f 79//79 23//23 90//90
f 85//85 91//91 81//81
f 87//87 92//92 89//89
f 88//88 92//92 87//87
f 79//79 88//88 78//78
f 90//90 88//88 79//79
f 91//91 93//93 81//81
f 89//89 91//91 85//85
f 92//92 91//91 89//89
f 88//88 94//94 92//92
f 81//81 93//93 73//73
f 93//93 86//86 73//73
f 94//94 93//93 91//91
f 92//92 94//94 91//91
f 65//65 86//86 17//17
f 23//23 19//19 90//90
f 88//88 90//90 94//94
f 94//94 90//90 93//93
f 93//93 90//90 86//86
f 17//17 86//86 12//12
f 90//90 12//12 86//86
f 15//15 12//12 90//90
f 19//19 15//15 90//90
