# Blender 4.1.1
# www.blender.org
mtllib aa0950.mtl
o Liquid_Domain
v -8.134167 -8.755833 6.217273
v -8.487272 -8.755834 5.864167
v -8.134167 -9.108939 5.864167
v 8.134167 -8.755833 6.217273
v 8.487272 -8.755833 5.864167
v 8.134167 -9.108939 5.864167
v -8.134167 -9.108939 -5.864167
v 8.134167 -9.108939 -5.864167
v 8.487272 -8.755833 -5.864167
v -8.134167 -8.755833 -6.217273
v 8.134167 -8.755833 -6.217273
v -8.487272 -8.755834 -5.864167
v -8.133950 2.654853 6.217278
v -8.474024 3.760998 5.864401
v 8.487272 6.755833 -5.864167
v -8.134167 6.755833 -6.217273
v 8.134167 6.755833 -6.217273
v -0.484024 4.413276 6.217304
v -8.487272 6.755834 -5.864167
v 1.159771 3.335454 6.214271
v 8.487272 6.755833 5.864167
v -8.136575 4.039576 6.156328
v -8.479476 4.455528 5.080050
v -7.039355 4.888491 6.153044
v 0.417775 4.770370 6.165093
v 3.170358 6.264311 6.157771
v -8.145051 4.625928 5.858725
v -5.187464 5.434945 6.209877
v 1.144696 4.603189 6.076053
v -8.389514 5.071599 4.960063
v -8.482188 6.750553 -0.490869
v 1.904819 5.045962 6.120008
v 4.302868 4.842872 6.216937
v -8.420065 5.628290 4.281866
v -7.203454 5.584530 5.740839
v -3.507813 6.755861 6.181284
v -0.344877 5.606618 6.155298
v 0.265748 5.403963 6.027687
v -7.800480 5.274755 5.586557
v 1.352348 5.837623 5.353889
v -6.137517 6.138162 6.149225
v -1.083564 6.229343 6.161937
v 2.366798 6.149678 5.846057
v 8.134397 6.756009 6.215690
v 1.722483 6.055750 5.368604
v -8.202780 6.296761 4.400573
v -8.437806 6.215918 3.420260
v -6.647285 6.305331 5.833118
v -0.360581 6.252498 5.934387
v -7.352273 6.262490 5.513186
v 0.848198 5.986145 5.253789
v -7.596160 6.726377 4.883014
v 4.415912 6.733652 6.114607
v 2.259501 6.799561 5.156400
v -7.780626 6.785281 4.541811
v 0.839400 6.737273 3.820603
v -5.883776 6.796889 6.000747
v -0.980804 6.793231 5.957495
v 3.300118 6.738164 5.942844
v -6.543467 6.831082 5.522172
v -0.029043 6.787074 5.032841
v 0.451438 6.770526 4.014718
v 1.465388 6.735444 4.070927
v -8.154475 6.869582 3.602960
v -8.378429 6.751424 2.403962
v -5.694099 6.953484 5.827791
v -3.759503 7.061842 5.868330
v -1.795236 6.985412 5.823711
v 3.874344 6.974575 5.773549
v 4.852322 7.041692 5.856626
v 8.126322 7.110122 5.864069
v -1.359966 7.076509 5.216732
v 2.748565 7.059843 4.958390
v -6.623789 7.069596 4.908453
v -1.944987 7.037981 4.219912
v -0.402675 7.017206 4.507042
v 3.695577 7.031580 5.143665
v -7.326232 7.064786 3.937678
v -7.773795 7.026900 3.448746
v -6.221385 7.035313 3.881225
v 2.171373 7.077123 3.816571
v 3.496480 7.040162 3.705498
v -0.080096 7.061299 3.164829
v 1.622435 7.087140 2.972655
v -7.399346 7.033330 2.659985
v 0.603111 7.048798 1.415723
v 1.995543 7.045424 2.050082
v -4.395204 7.111776 2.679470
v 4.744434 7.108616 1.975046
v -8.131193 7.104318 -0.370885
v -1.880144 7.108859 1.240852
v 1.418575 7.108171 -1.410102
v 8.134167 7.108939 -5.864166
v -8.134168 7.108939 -5.864166
vn -0.3102 -0.3161 0.8966
vn -0.8645 -0.3428 0.3675
vn -0.3350 -0.8684 0.3657
vn 0.3102 -0.3161 0.8966
vn 0.8644 -0.3430 0.3677
vn 0.3350 -0.8684 0.3657
vn -0.3350 -0.8684 -0.3657
vn 0.3350 -0.8684 -0.3657
vn 0.8644 -0.3430 -0.3677
vn -0.3102 -0.3161 -0.8966
vn 0.3102 -0.3161 -0.8966
vn -0.8644 -0.3430 -0.3676
vn -0.3524 0.0099 0.9358
vn -0.8933 0.1127 0.4351
vn 0.8644 0.3430 -0.3677
vn -0.3102 0.3161 -0.8966
vn 0.3102 0.3161 -0.8966
vn 0.0174 0.0246 0.9995
vn -0.8645 0.3431 -0.3672
vn 0.0015 0.0259 0.9997
vn 0.8627 0.3467 0.3681
vn -0.3948 0.1797 0.9010
vn -0.9811 0.1174 0.1536
vn -0.1962 0.2077 0.9583
vn 0.1163 0.1390 0.9834
vn -0.1797 0.2644 0.9475
vn -0.6262 0.4300 0.6504
vn -0.0165 0.0278 0.9995
vn 0.0135 0.2574 0.9662
vn -0.8808 0.2946 0.3706
vn -0.9224 0.3862 0.0075
vn -0.2610 0.2782 0.9244
vn -0.0075 0.0148 0.9999
vn -0.9648 0.1969 0.1741
vn -0.4108 0.3149 0.8556
vn 0.0069 0.3806 0.9247
vn 0.1698 0.1812 0.9687
vn 0.3616 0.3856 0.8488
vn -0.5926 0.4679 0.6556
vn -0.1989 0.6536 0.7302
vn -0.2184 0.1993 0.9553
vn 0.1198 0.1940 0.9737
vn -0.4710 0.4779 0.7415
vn 0.3048 0.3193 0.8973
vn -0.5115 0.5934 0.6214
vn -0.8367 0.3972 0.3771
vn -0.9735 0.2059 0.0996
vn -0.4354 0.3664 0.8223
vn -0.6335 -0.4054 0.6590
vn -0.5265 0.4140 0.7426
vn 0.3328 0.7099 0.6207
vn -0.5466 0.6859 0.4803
vn -0.0619 0.4466 0.8926
vn -0.4768 0.7521 0.4550
vn -0.5220 0.7693 0.3683
vn 0.1371 0.8330 0.5361
vn -0.2272 0.5491 0.8043
vn 0.2576 0.6417 0.7224
vn -0.2579 0.6528 0.7123
vn -0.3720 0.7372 0.5641
vn 0.4371 0.8376 0.3278
vn 0.3115 0.8994 0.3068
vn -0.2987 0.8349 0.4624
vn -0.6656 0.7285 0.1618
vn -0.8593 0.5091 0.0489
vn -0.1119 0.9160 0.3852
vn -0.0115 0.9103 0.4138
vn 0.0620 0.9023 0.4267
vn -0.1178 0.8971 0.4259
vn -0.0422 0.8934 0.4473
vn 0.3223 0.8715 0.3697
vn 0.0516 0.9899 0.1320
vn -0.1817 0.9627 0.2005
vn -0.1255 0.9752 0.1821
vn 0.0344 0.9985 0.0421
vn 0.2290 0.9649 0.1284
vn -0.0069 0.9989 0.0468
vn -0.1426 0.9852 0.0951
vn -0.2774 0.9603 -0.0300
vn 0.0076 0.9999 0.0127
vn -0.1346 0.9839 0.1176
vn -0.0081 1.0000 0.0053
vn 0.0288 0.9972 0.0695
vn -0.0112 0.9979 0.0635
vn -0.0837 0.9962 0.0234
vn 0.0124 0.9998 0.0141
vn 0.0005 1.0000 -0.0017
vn -0.0086 0.9998 0.0166
vn -0.0115 0.9999 0.0100
vn -0.3845 0.9230 0.0133
vn 0.0061 1.0000 0.0076
vn -0.0001 1.0000 0.0047
vn 0.3350 0.8684 -0.3657
vn -0.3352 0.8684 -0.3654
s 1
usemtl Liquid_Domain_Material
f 3//3 1//1 2//2
f 1//1 3//3 4//4
f 3//3 6//6 4//4
f 4//4 6//6 5//5
f 7//7 3//3 2//2
f 12//12 7//7 2//2
f 8//8 3//3 7//7
f 6//6 3//3 8//8
f 9//9 5//5 6//6
f 8//8 9//9 6//6
f 7//7 12//12 10//10
f 8//8 7//7 10//10
f 11//11 8//8 10//10
f 9//9 8//8 11//11
f 1//1 13//13 2//2
f 1//1 4//4 13//13
f 10//10 16//16 17//17
f 11//11 10//10 17//17
f 2//2 13//13 14//14
f 2//2 14//14 12//12
f 5//5 9//9 15//15
f 10//10 12//12 16//16
f 17//17 9//9 11//11
f 4//4 18//18 13//13
f 4//4 33//33 20//20
f 44//44 4//4 5//5
f 12//12 19//19 16//16
f 21//21 44//44 5//5
f 13//13 22//22 14//14
f 20//20 18//18 4//4
f 14//14 23//23 12//12
f 13//13 24//24 22//22
f 20//20 25//25 18//18
f 18//18 28//28 13//13
f 13//13 28//28 24//24
f 14//14 22//22 27//27
f 20//20 29//29 25//25
f 27//27 23//23 14//14
f 12//12 31//31 19//19
f 15//15 9//9 17//17
f 22//22 24//24 27//27
f 20//20 32//32 29//29
f 20//20 33//33 26//26
f 27//27 30//30 23//23
f 30//30 34//34 23//23
f 35//35 27//27 24//24
f 18//18 36//36 28//28
f 25//25 37//37 18//18
f 25//25 38//38 37//37
f 29//29 38//38 25//25
f 20//20 26//26 32//32
f 35//35 39//39 27//27
f 32//32 40//40 29//29
f 39//39 30//30 27//27
f 47//47 31//31 23//23
f 23//23 31//31 12//12
f 24//24 41//41 35//35
f 28//28 41//41 24//24
f 18//18 42//42 36//36
f 18//18 37//37 42//42
f 32//32 26//26 43//43
f 33//33 44//44 26//26
f 4//4 44//44 33//33
f 29//29 51//51 38//38
f 29//29 40//40 51//51
f 32//32 45//45 40//40
f 43//43 45//45 32//32
f 39//39 46//46 30//30
f 30//30 46//46 34//34
f 34//34 47//47 23//23
f 35//35 41//41 48//48
f 38//38 49//49 37//37
f 39//39 35//35 50//50
f 35//35 48//48 50//50
f 46//46 39//39 52//52
f 52//52 39//39 50//50
f 28//28 36//36 41//41
f 37//37 49//49 42//42
f 26//26 44//44 53//53
f 38//38 58//58 49//49
f 38//38 51//51 58//58
f 43//43 54//54 45//45
f 52//52 55//55 46//46
f 40//40 56//56 51//51
f 34//34 46//46 47//47
f 41//41 57//57 48//48
f 41//41 36//36 57//57
f 42//42 58//58 36//36
f 49//49 58//58 42//42
f 59//59 43//43 26//26
f 53//53 59//59 26//26
f 60//60 50//50 48//48
f 57//57 60//60 48//48
f 43//43 59//59 54//54
f 50//50 60//60 52//52
f 58//58 51//51 61//61
f 61//61 51//51 62//62
f 51//51 56//56 62//62
f 40//40 45//45 63//63
f 63//63 45//45 54//54
f 64//64 46//46 55//55
f 40//40 63//63 56//56
f 46//46 64//64 47//47
f 64//64 65//65 47//47
f 47//47 65//65 31//31
f 5//5 15//15 21//21
f 57//57 36//36 67//67
f 66//66 57//57 67//67
f 67//67 36//36 68//68
f 36//36 58//58 68//68
f 59//59 53//53 70//70
f 69//69 59//59 70//70
f 53//53 44//44 70//70
f 70//70 44//44 71//71
f 44//44 21//21 71//71
f 60//60 57//57 66//66
f 58//58 72//72 68//68
f 59//59 73//73 54//54
f 69//69 73//73 59//59
f 60//60 74//74 52//52
f 66//66 74//74 60//60
f 67//67 88//88 66//66
f 68//68 75//75 67//67
f 72//72 75//75 68//68
f 76//76 72//72 58//58
f 58//58 61//61 76//76
f 69//69 77//77 73//73
f 70//70 77//77 69//69
f 88//88 80//80 66//66
f 71//71 21//21 93//93
f 55//55 52//52 78//78
f 74//74 78//78 52//52
f 66//66 80//80 74//74
f 61//61 62//62 76//76
f 55//55 79//79 64//64
f 78//78 79//79 55//55
f 80//80 78//78 74//74
f 63//63 54//54 81//81
f 73//73 81//81 54//54
f 73//73 82//82 81//81
f 77//77 82//82 73//73
f 72//72 83//83 75//75
f 76//76 83//83 72//72
f 62//62 83//83 76//76
f 63//63 81//81 56//56
f 71//71 89//89 70//70
f 80//80 85//85 78//78
f 56//56 84//84 62//62
f 84//84 83//83 62//62
f 81//81 84//84 56//56
f 70//70 89//89 77//77
f 93//93 89//89 71//71
f 78//78 85//85 79//79
f 86//86 75//75 83//83
f 81//81 87//87 84//84
f 82//82 87//87 81//81
f 89//89 82//82 77//77
f 79//79 85//85 64//64
f 67//67 91//91 88//88
f 86//86 67//67 75//75
f 83//83 84//84 86//86
f 64//64 90//90 65//65
f 85//85 90//90 64//64
f 88//88 85//85 80//80
f 87//87 86//86 84//84
f 89//89 87//87 82//82
f 65//65 90//90 31//31
f 88//88 90//90 85//85
f 67//67 92//92 91//91
f 86//86 92//92 67//67
f 87//87 92//92 86//86
f 89//89 92//92 87//87
f 89//89 93//93 92//92
f 91//91 90//90 88//88
f 90//90 94//94 19//19
f 31//31 90//90 19//19
f 91//91 94//94 90//90
f 92//92 94//94 91//91
f 21//21 15//15 93//93
f 92//92 93//93 94//94
f 19//19 94//94 16//16
f 93//93 16//16 94//94
f 17//17 16//16 93//93
f 15//15 17//17 93//93
