# Blender 4.1.1
# www.blender.org
mtllib bb0022.mtl
o グリッド
v 2.059399 801.019165 -10.319732
v 0.897527 800.955566 -9.727728
v -0.264345 800.761047 -9.135725
v -1.426218 800.546265 -8.543721
v -2.588090 800.391846 -7.951717
v -3.749962 800.336914 -7.359714
v -4.911835 800.391846 -6.767710
v -6.073707 800.546265 -6.175707
v -7.235579 800.761047 -5.583704
v -8.397451 800.955566 -4.991700
v -9.559323 801.019165 -4.399696
v 2.809392 800.955566 -8.847789
v 1.647519 800.682190 -8.255785
v 0.485647 800.336914 -7.663782
v -0.676225 800.045044 -7.071778
v -1.838097 800.143433 -6.479774
v -2.999970 800.211731 -5.887771
v -4.161842 800.143433 -5.295767
v -5.323714 800.045044 -4.703764
v -6.485587 800.336914 -4.111761
v -7.647459 800.682190 -3.519757
v -8.809331 800.955566 -2.927753
v 3.559384 800.761047 -7.375846
v 2.397512 800.336914 -6.783843
v 1.235640 800.077942 -6.191839
v 0.073767 800.430847 -5.599836
v -1.088105 800.661316 -5.007832
v -2.249977 800.736755 -4.415829
v -3.411850 800.661316 -3.823825
v -4.573722 800.430847 -3.231822
v -5.735594 800.077942 -2.639818
v -6.897467 800.336914 -2.047814
v -8.059339 800.761047 -1.455811
v 4.309377 800.546265 -5.903903
v 3.147504 800.045044 -5.311899
v 1.985632 800.430847 -4.719896
v 0.823760 800.809204 -4.127892
v -0.338112 800.984070 -3.535889
v -1.499985 801.014893 -2.943885
v -2.661857 800.984070 -2.351882
v -3.823729 800.809204 -1.759878
v -4.985601 800.430847 -1.167875
v -6.147474 800.045044 -0.575871
v -7.309346 800.546265 0.016132
v 5.059369 800.391846 -4.431960
v 3.897497 800.143433 -3.839957
v 2.735625 800.661316 -3.247953
v 1.573752 800.984070 -2.655950
v 0.411880 800.985962 -2.063946
v -0.749992 800.878723 -1.471943
v -1.911865 800.985962 -0.879939
v -3.073737 800.984070 -0.287936
v -4.235609 800.661316 0.304068
v -5.397482 800.143433 0.896072
v -6.559354 800.391846 1.488075
v 5.809361 800.336914 -2.960018
v 4.647489 800.211731 -2.368014
v 3.485617 800.736755 -1.776011
v 2.323745 801.014893 -1.184007
v 1.161872 800.878723 -0.592004
v 0.000000 800.412231 0.000000
v -1.161873 800.878723 0.592004
v -2.323745 801.014893 1.184007
v -3.485617 800.736755 1.776011
v -4.647490 800.211731 2.368014
v -5.809361 800.336914 2.960018
v 6.559354 800.391846 -1.488075
v 5.397482 800.143433 -0.896071
v 4.235610 800.661316 -0.304067
v 3.073737 800.984070 0.287936
v 1.911865 800.985962 0.879940
v 0.749993 800.878723 1.471943
v -0.411880 800.985962 2.063947
v -1.573752 800.984070 2.655950
v -2.735624 800.661316 3.247954
v -3.897497 800.143433 3.839957
v -5.059369 800.391846 4.431961
v 7.309346 800.546265 -0.016132
v 6.147474 800.045044 0.575871
v 4.985601 800.430847 1.167875
v 3.823729 800.809204 1.759878
v 2.661857 800.984070 2.351882
v 1.499985 801.014893 2.943885
v 0.338112 800.984070 3.535889
v -0.823760 800.809204 4.127892
v -1.985632 800.430847 4.719896
v -3.147505 800.045044 5.311900
v -4.309377 800.546265 5.903903
v 8.059339 800.761047 1.455811
v 6.897467 800.336914 2.047815
v 5.735594 800.077942 2.639818
v 4.573722 800.430847 3.231822
v 3.411849 800.661316 3.823825
v 2.249977 800.736755 4.415829
v 1.088105 800.661316 5.007833
v -0.073767 800.430847 5.599836
v -1.235640 800.077942 6.191839
v -2.397512 800.336914 6.783843
v -3.559384 800.761047 7.375846
v 8.809332 800.955566 2.927754
v 7.647459 800.682190 3.519758
v 6.485587 800.336914 4.111761
v 5.323714 800.045044 4.703764
v 4.161842 800.143433 5.295768
v 2.999970 800.211731 5.887772
v 1.838097 800.143433 6.479775
v 0.676225 800.045044 7.071779
v -0.485647 800.336914 7.663782
v -1.647520 800.682190 8.255786
v -2.809391 800.955566 8.847790
v 9.559323 801.019165 4.399696
v 8.397451 800.955566 4.991700
v 7.235579 800.761047 5.583704
v 6.073707 800.546265 6.175707
v 4.911834 800.391846 6.767711
v 3.749962 800.336914 7.359714
v 2.588089 800.391846 7.951718
v 1.426218 800.546265 8.543721
v 0.264345 800.761047 9.135725
v -0.897527 800.955566 9.727728
v -2.059399 801.019165 10.319732
vn -0.0679 0.9867 0.1475
vn -0.0849 0.9590 0.2705
vn -0.0435 0.9465 0.3197
vn 0.0818 0.9750 0.2066
vn 0.0556 0.9937 0.0978
vn 0.0465 0.9937 0.1024
vn 0.1191 0.9750 0.1876
vn 0.2842 0.9465 0.1527
vn 0.2687 0.9590 0.0903
vn 0.1593 0.9867 0.0318
vn -0.1566 0.9542 0.2547
vn -0.1184 0.9591 0.2572
vn 0.0034 0.9990 -0.0448
vn -0.0113 0.9575 -0.2882
vn -0.0897 0.9523 -0.2917
vn -0.1832 0.9523 -0.2440
vn -0.2265 0.9575 -0.1785
vn -0.0382 0.9990 -0.0235
vn 0.2776 0.9591 0.0554
vn 0.2982 0.9542 0.0230
vn -0.2299 0.9327 0.2777
vn 0.0349 0.9987 -0.0385
vn 0.1407 0.9417 -0.3056
vn 0.0408 0.9671 -0.2511
vn -0.0455 0.9831 -0.1775
vn -0.1169 0.9831 -0.1411
vn -0.2271 0.9671 -0.1146
vn -0.3299 0.9417 -0.0658
vn -0.0516 0.9987 0.0056
vn 0.3598 0.9327 -0.0228
vn -0.2387 0.9610 0.1399
vn 0.2479 0.9407 -0.2314
vn 0.1763 0.9590 -0.2219
vn 0.0360 0.9963 -0.0782
vn -0.0076 0.9987 0.0494
vn 0.0445 0.9987 0.0229
vn -0.0844 0.9963 -0.0168
vn -0.2831 0.9590 0.0122
vn -0.3329 0.9407 0.0646
vn 0.2535 0.9610 -0.1109
vn -0.1282 0.9899 0.0608
vn 0.3122 0.9278 -0.2044
vn 0.1857 0.9740 -0.1298
vn -0.0353 0.9984 0.0439
vn -0.1128 0.9629 0.2451
vn 0.2646 0.9629 0.0528
vn 0.0563 0.9984 -0.0028
vn -0.2142 0.9740 0.0740
vn -0.3489 0.9278 0.1325
vn 0.1245 0.9899 -0.0680
vn -0.1245 0.9899 0.0680
vn 0.3489 0.9278 -0.1325
vn 0.2142 0.9740 -0.0740
vn -0.0563 0.9984 0.0028
vn -0.2646 0.9629 -0.0528
vn 0.1128 0.9629 -0.2451
vn 0.0353 0.9984 -0.0439
vn -0.1857 0.9740 0.1298
vn -0.3122 0.9278 0.2044
vn 0.1282 0.9899 -0.0608
vn -0.2535 0.9610 0.1109
vn 0.3329 0.9407 -0.0646
vn 0.2831 0.9590 -0.0122
vn 0.0844 0.9963 0.0168
vn -0.0445 0.9987 -0.0229
vn 0.0076 0.9987 -0.0494
vn -0.0360 0.9963 0.0782
vn -0.1763 0.9590 0.2219
vn -0.2479 0.9407 0.2314
vn 0.2387 0.9610 -0.1399
vn -0.3598 0.9327 0.0228
vn 0.0516 0.9987 -0.0056
vn 0.3299 0.9417 0.0658
vn 0.2271 0.9671 0.1146
vn 0.1169 0.9831 0.1411
vn 0.0455 0.9831 0.1775
vn -0.0408 0.9671 0.2511
vn -0.1407 0.9417 0.3056
vn -0.0349 0.9987 0.0385
vn 0.2299 0.9327 -0.2777
vn -0.2982 0.9542 -0.0230
vn -0.2776 0.9591 -0.0554
vn 0.0382 0.9990 0.0235
vn 0.2265 0.9575 0.1785
vn 0.1832 0.9523 0.2440
vn 0.0897 0.9523 0.2917
vn 0.0113 0.9575 0.2882
vn -0.0034 0.9990 0.0448
vn 0.1184 0.9591 -0.2572
vn 0.1566 0.9542 -0.2547
vn -0.1593 0.9867 -0.0318
vn -0.2687 0.9590 -0.0903
vn -0.2842 0.9465 -0.1527
vn -0.1191 0.9750 -0.1876
vn -0.0465 0.9937 -0.1024
vn -0.0556 0.9937 -0.0978
vn -0.0818 0.9750 -0.2066
vn 0.0435 0.9465 -0.3197
vn 0.0849 0.9590 -0.2705
vn 0.0679 0.9867 -0.1475
vt 0.000000 0.000000
vt 0.100000 0.000000
vt 0.100000 0.100000
vt 0.000000 0.100000
vt 0.200000 0.000000
vt 0.200000 0.100000
vt 0.300000 0.000000
vt 0.300000 0.100000
vt 0.200000 0.100000
vt 0.400000 0.000000
vt 0.400000 0.100000
vt 0.500000 0.000000
vt 0.500000 0.100000
vt 0.600000 0.000000
vt 0.600000 0.100000
vt 0.700000 0.000000
vt 0.700000 0.100000
vt 0.800000 0.000000
vt 0.800000 0.100000
vt 0.900000 0.000000
vt 0.900000 0.100000
vt 1.000000 0.000000
vt 1.000000 0.100000
vt 0.100000 0.200000
vt 0.000000 0.200000
vt 0.200000 0.200000
vt 0.300000 0.200000
vt 0.200000 0.200000
vt 0.400000 0.200000
vt 0.500000 0.200000
vt 0.600000 0.200000
vt 0.700000 0.200000
vt 0.800000 0.200000
vt 0.900000 0.200000
vt 1.000000 0.200000
vt 0.000000 0.200000
vt 0.100000 0.200000
vt 0.100000 0.300000
vt 0.000000 0.300000
vt 0.200000 0.200000
vt 0.200000 0.300000
vt 0.300000 0.200000
vt 0.300000 0.300000
vt 0.200000 0.300000
vt 0.400000 0.200000
vt 0.400000 0.300000
vt 0.500000 0.200000
vt 0.500000 0.300000
vt 0.600000 0.200000
vt 0.600000 0.300000
vt 0.700000 0.200000
vt 0.700000 0.300000
vt 0.800000 0.200000
vt 0.800000 0.300000
vt 0.900000 0.200000
vt 0.900000 0.300000
vt 1.000000 0.200000
vt 1.000000 0.300000
vt 0.100000 0.400000
vt 0.000000 0.400000
vt 0.200000 0.400000
vt 0.300000 0.400000
vt 0.200000 0.400000
vt 0.400000 0.400000
vt 0.500000 0.400000
vt 0.600000 0.400000
vt 0.700000 0.400000
vt 0.800000 0.400000
vt 0.900000 0.400000
vt 1.000000 0.400000
vt 0.100000 0.500000
vt 0.000000 0.500000
vt 0.200000 0.500000
vt 0.300000 0.500000
vt 0.200000 0.500000
vt 0.400000 0.500000
vt 0.500000 0.500000
vt 0.600000 0.500000
vt 0.700000 0.500000
vt 0.800000 0.500000
vt 0.900000 0.500000
vt 1.000000 0.500000
vt 0.100000 0.600000
vt 0.000000 0.600000
vt 0.200000 0.600000
vt 0.300000 0.600000
vt 0.200000 0.600000
vt 0.400000 0.600000
vt 0.500000 0.600000
vt 0.600000 0.600000
vt 0.700000 0.600000
vt 0.800000 0.600000
vt 0.900000 0.600000
vt 1.000000 0.600000
vt 0.100000 0.700000
vt 0.000000 0.700000
vt 0.200000 0.700000
vt 0.300000 0.700000
vt 0.200000 0.700000
vt 0.400000 0.700000
vt 0.500000 0.700000
vt 0.600000 0.700000
vt 0.700000 0.700000
vt 0.800000 0.700000
vt 0.900000 0.700000
vt 1.000000 0.700000
vt 0.100000 0.800000
vt 0.000000 0.800000
vt 0.200000 0.800000
vt 0.300000 0.800000
vt 0.200000 0.800000
vt 0.400000 0.800000
vt 0.500000 0.800000
vt 0.600000 0.800000
vt 0.700000 0.800000
vt 0.800000 0.800000
vt 0.900000 0.800000
vt 1.000000 0.800000
vt 0.100000 0.900000
vt 0.000000 0.900000
vt 0.200000 0.900000
vt 0.300000 0.900000
vt 0.200000 0.900000
vt 0.400000 0.900000
vt 0.500000 0.900000
vt 0.600000 0.900000
vt 0.700000 0.900000
vt 0.800000 0.900000
vt 0.900000 0.900000
vt 1.000000 0.900000
vt 0.100000 1.000000
vt 0.000000 1.000000
vt 0.200000 1.000000
vt 0.300000 1.000000
vt 0.200000 1.000000
vt 0.400000 1.000000
vt 0.500000 1.000000
vt 0.600000 1.000000
vt 0.700000 1.000000
vt 0.800000 1.000000
vt 0.900000 1.000000
vt 1.000000 1.000000
s 0
f 1/1/1 2/2/1 13/3/1 12/4/1
f 2/2/2 3/5/2 14/6/2 13/3/2
f 3/5/3 4/7/3 15/8/3 14/9/3
f 4/7/4 5/10/4 16/11/4 15/8/4
f 5/10/5 6/12/5 17/13/5 16/11/5
f 6/12/6 7/14/6 18/15/6 17/13/6
f 7/14/7 8/16/7 19/17/7 18/15/7
f 8/16/8 9/18/8 20/19/8 19/17/8
f 9/18/9 10/20/9 21/21/9 20/19/9
f 10/20/10 11/22/10 22/23/10 21/21/10
f 12/4/11 13/3/11 24/24/11 23/25/11
f 13/3/12 14/6/12 25/26/12 24/24/12
f 14/6/13 15/8/13 26/27/13 25/28/13
f 15/8/14 16/11/14 27/29/14 26/27/14
f 16/11/15 17/13/15 28/30/15 27/29/15
f 17/13/16 18/15/16 29/31/16 28/30/16
f 18/15/17 19/17/17 30/32/17 29/31/17
f 19/17/18 20/19/18 31/33/18 30/32/18
f 20/19/19 21/21/19 32/34/19 31/33/19
f 21/21/20 22/23/20 33/35/20 32/34/20
f 23/36/21 24/37/21 35/38/21 34/39/21
f 24/37/22 25/40/22 36/41/22 35/38/22
f 25/40/23 26/42/23 37/43/23 36/44/23
f 26/42/24 27/45/24 38/46/24 37/43/24
f 27/45/25 28/47/25 39/48/25 38/46/25
f 28/47/26 29/49/26 40/50/26 39/48/26
f 29/49/27 30/51/27 41/52/27 40/50/27
f 30/51/28 31/53/28 42/54/28 41/52/28
f 31/53/29 32/55/29 43/56/29 42/54/29
f 32/55/30 33/57/30 44/58/30 43/56/30
f 34/39/31 35/38/31 46/59/31 45/60/31
f 35/38/32 36/41/32 47/61/32 46/59/32
f 36/41/33 37/43/33 48/62/33 47/63/33
f 37/43/34 38/46/34 49/64/34 48/62/34
f 38/46/35 39/48/35 50/65/35 49/64/35
f 39/48/36 40/50/36 51/66/36 50/65/36
f 40/50/37 41/52/37 52/67/37 51/66/37
f 41/52/38 42/54/38 53/68/38 52/67/38
f 42/54/39 43/56/39 54/69/39 53/68/39
f 43/56/40 44/58/40 55/70/40 54/69/40
f 45/60/41 46/59/41 57/71/41 56/72/41
f 46/59/42 47/61/42 58/73/42 57/71/42
f 47/61/43 48/62/43 59/74/43 58/75/43
f 48/62/44 49/64/44 60/76/44 59/74/44
f 49/64/45 50/65/45 61/77/45 60/76/45
f 50/65/46 51/66/46 62/78/46 61/77/46
f 51/66/47 52/67/47 63/79/47 62/78/47
f 52/67/48 53/68/48 64/80/48 63/79/48
f 53/68/49 54/69/49 65/81/49 64/80/49
f 54/69/50 55/70/50 66/82/50 65/81/50
f 56/72/51 57/71/51 68/83/51 67/84/51
f 57/71/52 58/73/52 69/85/52 68/83/52
f 58/73/53 59/74/53 70/86/53 69/87/53
f 59/74/54 60/76/54 71/88/54 70/86/54
f 60/76/55 61/77/55 72/89/55 71/88/55
f 61/77/56 62/78/56 73/90/56 72/89/56
f 62/78/57 63/79/57 74/91/57 73/90/57
f 63/79/58 64/80/58 75/92/58 74/91/58
f 64/80/59 65/81/59 76/93/59 75/92/59
f 65/81/60 66/82/60 77/94/60 76/93/60
f 67/84/61 68/83/61 79/95/61 78/96/61
f 68/83/62 69/85/62 80/97/62 79/95/62
f 69/85/63 70/86/63 81/98/63 80/99/63
f 70/86/64 71/88/64 82/100/64 81/98/64
f 71/88/65 72/89/65 83/101/65 82/100/65
f 72/89/66 73/90/66 84/102/66 83/101/66
f 73/90/67 74/91/67 85/103/67 84/102/67
f 74/91/68 75/92/68 86/104/68 85/103/68
f 75/92/69 76/93/69 87/105/69 86/104/69
f 76/93/70 77/94/70 88/106/70 87/105/70
f 78/96/71 79/95/71 90/107/71 89/108/71
f 79/95/72 80/97/72 91/109/72 90/107/72
f 80/97/73 81/98/73 92/110/73 91/111/73
f 81/98/74 82/100/74 93/112/74 92/110/74
f 82/100/75 83/101/75 94/113/75 93/112/75
f 83/101/76 84/102/76 95/114/76 94/113/76
f 84/102/77 85/103/77 96/115/77 95/114/77
f 85/103/78 86/104/78 97/116/78 96/115/78
f 86/104/79 87/105/79 98/117/79 97/116/79
f 87/105/80 88/106/80 99/118/80 98/117/80
f 89/108/81 90/107/81 101/119/81 100/120/81
f 90/107/82 91/109/82 102/121/82 101/119/82
f 91/109/83 92/110/83 103/122/83 102/123/83
f 92/110/84 93/112/84 104/124/84 103/122/84
f 93/112/85 94/113/85 105/125/85 104/124/85
f 94/113/86 95/114/86 106/126/86 105/125/86
f 95/114/87 96/115/87 107/127/87 106/126/87
f 96/115/88 97/116/88 108/128/88 107/127/88
f 97/116/89 98/117/89 109/129/89 108/128/89
f 98/117/90 99/118/90 110/130/90 109/129/90
f 100/120/91 101/119/91 112/131/91 111/132/91
f 101/119/92 102/121/92 113/133/92 112/131/92
f 102/121/93 103/122/93 114/134/93 113/135/93
f 103/122/94 104/124/94 115/136/94 114/134/94
f 104/124/95 105/125/95 116/137/95 115/136/95
f 105/125/96 106/126/96 117/138/96 116/137/96
f 106/126/97 107/127/97 118/139/97 117/138/97
f 107/127/98 108/128/98 119/140/98 118/139/98
f 108/128/99 109/129/99 120/141/99 119/140/99
f 109/129/100 110/130/100 121/142/100 120/141/100
o Liquid_Domain
v -6.181012 750.573181 16.900106
v -0.067686 752.436157 -17.370588
v 16.082792 788.758057 42.179985
v 44.318394 786.454407 11.056495
v 21.423704 780.243896 -33.675335
v -33.684673 769.770630 0.791625
v -9.761671 826.036987 -60.220943
v -39.198822 821.136108 40.096874
v -1.011628 829.010498 63.527088
v -65.072525 831.908081 0.658556
v 65.812782 832.997070 1.619227
v -40.951717 815.672424 -35.743477
v 9.139232 830.765015 -60.930038
v 34.967041 836.176758 44.198780
v 42.029301 826.406616 -36.633621
v -38.896412 1028.044189 -39.019753
v 15.251852 1005.451843 60.244507
v -40.907692 1024.865601 38.874336
v -7.881726 1002.017090 -62.259769
v 13.628440 999.822144 -60.878658
v -64.349129 1014.472412 1.097822
v 66.696457 1005.097412 0.213787
v -9.009209 1009.301636 61.595608
v 20.702154 1055.365845 38.305180
v 43.965290 1052.753662 -12.475123
v 9.355449 1045.166870 -47.878170
v -4.986291 1077.314941 27.592983
v -19.610804 1085.188721 -3.096097
v 6.540706 1097.129150 -6.724245
vn -0.0914 -0.8310 0.5487
vn -0.0031 -0.8309 -0.5565
vn 0.2732 -0.4642 0.8425
vn 0.7825 -0.5596 0.2730
vn 0.3740 -0.5188 -0.7687
vn -0.7603 -0.6489 -0.0312
vn -0.2077 -0.2054 -0.9564
vn -0.6107 -0.2419 0.7540
vn -0.0151 -0.1524 0.9882
vn -0.9786 -0.2054 0.0090
vn 0.9800 -0.1964 0.0332
vn -0.6528 -0.2788 -0.7044
vn 0.1995 -0.1499 -0.9684
vn 0.6396 -0.1201 0.7592
vn 0.7100 -0.1753 -0.6820
vn -0.5880 0.3087 -0.7477
vn 0.2971 0.1503 0.9430
vn -0.6306 0.2662 0.7290
vn -0.1690 0.1282 -0.9772
vn 0.2920 0.1180 -0.9491
vn -0.9677 0.2516 0.0124
vn 0.9793 0.1986 0.0392
vn -0.1671 0.1672 0.9716
vn 0.3876 0.4509 0.8040
vn 0.8004 0.4709 -0.3711
vn 0.1435 0.4489 -0.8820
vn -0.1433 0.6957 0.7039
vn -0.6317 0.7647 -0.1272
vn 0.1661 0.9357 -0.3111
s 1
usemtl Liquid_Domain_Material
f 124//103 122//101 125//104
f 122//101 123//102 125//104
f 123//102 122//101 127//106
f 123//102 126//105 125//104
f 123//102 127//106 133//112
f 123//102 133//112 128//107
f 124//103 130//109 122//101
f 122//101 129//108 127//106
f 127//106 129//108 131//110
f 133//112 127//106 131//110
f 125//104 126//105 132//111
f 123//102 128//107 126//105
f 129//108 122//101 130//109
f 128//107 134//113 126//105
f 136//115 126//105 134//113
f 125//104 135//114 124//103
f 132//111 126//105 136//115
f 135//114 130//109 124//103
f 132//111 135//114 125//104
f 131//110 137//116 133//112
f 130//109 138//117 144//123
f 133//112 137//116 128//107
f 136//115 134//113 141//120
f 129//108 130//109 139//118
f 138//117 130//109 135//114
f 129//108 139//118 131//110
f 135//114 132//111 138//117
f 143//122 132//111 136//115
f 134//113 128//107 141//120
f 128//107 140//119 141//120
f 131//110 139//118 142//121
f 131//110 142//121 137//116
f 128//107 137//116 140//119
f 130//109 144//123 139//118
f 138//117 132//111 143//122
f 136//115 141//120 143//122
f 145//124 138//117 143//122
f 141//120 147//126 146//125
f 146//125 143//122 141//120
f 141//120 140//119 147//126
f 144//123 138//117 145//124
f 140//119 137//116 147//126
f 148//127 139//118 144//123
f 144//123 145//124 148//127
f 143//122 146//125 145//124
f 137//116 142//121 149//128
f 146//125 147//126 150//129
f 139//118 149//128 142//121
f 150//129 145//124 146//125
f 137//116 150//129 147//126
f 145//124 150//129 148//127
f 139//118 148//127 149//128
f 137//116 149//128 150//129
f 149//128 148//127 150//129
o 平面
v -2.000000 -35.435863 2.000000
v 2.000000 -35.435863 2.000000
v -2.000000 -35.435863 -2.000000
v 2.000000 -35.435863 -2.000000
vn -0.0000 1.0000 -0.0000
vt 0.000000 0.000000
vt 1.000000 0.000000
vt 1.000000 1.000000
vt 0.000000 1.000000
s 0
f 151/143/130 152/144/130 154/145/130 153/146/130
