# Blender 4.1.1
# www.blender.org
mtllib bb0068.mtl
o グリッド
v 2.059399 800.854919 -10.319732
v 0.897527 800.553894 -9.727728
v -0.264345 800.240723 -9.135725
v -1.426218 800.003174 -8.543721
v -2.588090 800.158630 -7.951717
v -3.749962 800.213623 -7.359714
v -4.911835 800.158630 -6.767710
v -6.073707 800.003174 -6.175707
v -7.235579 800.240723 -5.583704
v -8.397451 800.553894 -4.991700
v -9.559323 800.854919 -4.399696
v 2.809392 800.553894 -8.847789
v 1.647519 800.144043 -8.255785
v 0.485647 800.213623 -7.663782
v -0.676225 800.504822 -7.071778
v -1.838097 800.681702 -6.479774
v -2.999970 800.738281 -5.887771
v -4.161842 800.681702 -5.295767
v -5.323714 800.504822 -4.703764
v -6.485587 800.213623 -4.111761
v -7.647459 800.144043 -3.519757
v -8.809331 800.553894 -2.927753
v 3.559384 800.240723 -7.375846
v 2.397512 800.213623 -6.783843
v 1.235640 800.623535 -6.191839
v 0.073767 800.890991 -5.599836
v -1.088105 800.996765 -5.007832
v -2.249977 801.015198 -4.415829
v -3.411850 800.996765 -3.823825
v -4.573722 800.890991 -3.231822
v -5.735594 800.623535 -2.639818
v -6.897467 800.213623 -2.047814
v -8.059339 800.240723 -1.455811
v 4.309377 800.003174 -5.903903
v 3.147504 800.504822 -5.311899
v 1.985632 800.890991 -4.719896
v 0.823760 801.022095 -4.127892
v -0.338112 800.947144 -3.535889
v -1.499985 800.877563 -2.943885
v -2.661857 800.947144 -2.351882
v -3.823729 801.022095 -1.759878
v -4.985601 800.890991 -1.167875
v -6.147474 800.504822 -0.575871
v -7.309346 800.003174 0.016132
v 5.059369 800.158630 -4.431960
v 3.897497 800.681702 -3.839957
v 2.735625 800.996765 -3.247953
v 1.573752 800.947144 -2.655950
v 0.411880 800.628784 -2.063946
v -0.749992 800.410400 -1.471943
v -1.911865 800.628784 -0.879939
v -3.073737 800.947144 -0.287936
v -4.235609 800.996765 0.304068
v -5.397482 800.681702 0.896072
v -6.559354 800.158630 1.488075
v 5.809361 800.213623 -2.960018
v 4.647489 800.738281 -2.368014
v 3.485617 801.015198 -1.776011
v 2.323745 800.877563 -1.184007
v 1.161872 800.410400 -0.592004
v 0.000000 800.138184 0.000000
v -1.161873 800.410400 0.592004
v -2.323745 800.877563 1.184007
v -3.485617 801.015198 1.776011
v -4.647490 800.738281 2.368014
v -5.809361 800.213623 2.960018
v 6.559354 800.158630 -1.488075
v 5.397482 800.681702 -0.896071
v 4.235610 800.996765 -0.304067
v 3.073737 800.947144 0.287936
v 1.911865 800.628784 0.879940
v 0.749993 800.410400 1.471943
v -0.411880 800.628784 2.063947
v -1.573752 800.947144 2.655950
v -2.735624 800.996765 3.247954
v -3.897497 800.681702 3.839957
v -5.059369 800.158630 4.431961
v 7.309346 800.003174 -0.016132
v 6.147474 800.504822 0.575871
v 4.985601 800.890991 1.167875
v 3.823729 801.022095 1.759878
v 2.661857 800.947144 2.351882
v 1.499985 800.877563 2.943885
v 0.338112 800.947144 3.535889
v -0.823760 801.022095 4.127892
v -1.985632 800.890991 4.719896
v -3.147505 800.504822 5.311900
v -4.309377 800.003174 5.903903
v 8.059339 800.240723 1.455811
v 6.897467 800.213623 2.047815
v 5.735594 800.623535 2.639818
v 4.573722 800.890991 3.231822
v 3.411849 800.996765 3.823825
v 2.249977 801.015198 4.415829
v 1.088105 800.996765 5.007833
v -0.073767 800.890991 5.599836
v -1.235640 800.623535 6.191839
v -2.397512 800.213623 6.783843
v -3.559384 800.240723 7.375846
v 8.809332 800.553894 2.927754
v 7.647459 800.144043 3.519758
v 6.485587 800.213623 4.111761
v 5.323714 800.504822 4.703764
v 4.161842 800.681702 5.295768
v 2.999970 800.738281 5.887772
v 1.838097 800.681702 6.479775
v 0.676225 800.504822 7.071779
v -0.485647 800.213623 7.663782
v -1.647520 800.144043 8.255786
v -2.809391 800.553894 8.847790
v 9.559323 800.854919 4.399696
v 8.397451 800.553894 4.991700
v 7.235579 800.240723 5.583704
v 6.073707 800.003174 6.175707
v 4.911834 800.158630 6.767711
v 3.749962 800.213623 7.359714
v 2.588089 800.158630 7.951718
v 1.426218 800.003174 8.543721
v 0.264345 800.240723 9.135725
v -0.897527 800.553894 9.727728
v -2.059399 800.854919 10.319732
vn -0.1372 0.9447 0.2980
vn -0.0229 0.9871 0.1582
vn -0.0464 0.9896 -0.1359
vn -0.0259 0.9481 -0.3169
vn -0.1008 0.9524 -0.2876
vn -0.1734 0.9524 -0.2506
vn -0.2411 0.9481 -0.2072
vn -0.0827 0.9896 -0.1174
vn 0.1414 0.9871 0.0745
vn 0.3217 0.9447 0.0642
vn -0.1139 0.9837 0.1394
vn 0.0954 0.9736 -0.2072
vn 0.0776 0.9518 -0.2969
vn 0.0002 0.9728 -0.2318
vn -0.0548 0.9839 -0.1699
vn -0.1053 0.9839 -0.1442
vn -0.1877 0.9728 -0.1361
vn -0.2858 0.9518 -0.1118
vn -0.2237 0.9736 -0.0446
vn 0.1798 0.9837 -0.0102
vn 0.1522 0.9837 -0.0955
vn 0.1843 0.9442 -0.2731
vn 0.0799 0.9816 -0.1736
vn -0.0007 0.9996 -0.0273
vn 0.0082 0.9982 0.0593
vn 0.0431 0.9982 0.0415
vn -0.0217 0.9996 -0.0166
vn -0.1874 0.9816 -0.0374
vn -0.3293 0.9442 -0.0114
vn -0.1667 0.9837 0.0670
vn 0.2821 0.9267 -0.2483
vn 0.1932 0.9624 -0.1908
vn 0.0236 0.9995 -0.0225
vn -0.0789 0.9820 0.1714
vn 0.0092 0.9673 0.2534
vn 0.1996 0.9673 0.1564
vn 0.1850 0.9820 0.0369
vn -0.0321 0.9995 0.0059
vn -0.2680 0.9624 0.0441
vn -0.3667 0.9267 0.0823
vn 0.3178 0.9275 -0.1971
vn 0.1871 0.9750 -0.1202
vn -0.0568 0.9973 0.0463
vn -0.2183 0.9542 0.2046
vn -0.0974 0.9725 0.2117
vn 0.2286 0.9725 0.0456
vn 0.2938 0.9542 -0.0564
vn 0.0708 0.9973 -0.0187
vn -0.2072 0.9750 0.0807
vn -0.3462 0.9275 0.1413
vn 0.3462 0.9275 -0.1413
vn 0.2072 0.9750 -0.0807
vn -0.0708 0.9973 0.0187
vn -0.2938 0.9542 0.0564
vn -0.2286 0.9725 -0.0456
vn 0.0974 0.9725 -0.2117
vn 0.2183 0.9542 -0.2046
vn 0.0568 0.9973 -0.0463
vn -0.1871 0.9750 0.1202
vn -0.3178 0.9275 0.1971
vn 0.3667 0.9267 -0.0823
vn 0.2680 0.9624 -0.0441
vn 0.0321 0.9995 -0.0059
vn -0.1850 0.9820 -0.0369
vn -0.1996 0.9673 -0.1564
vn -0.0092 0.9673 -0.2534
vn 0.0789 0.9820 -0.1714
vn -0.0236 0.9995 0.0225
vn -0.1932 0.9624 0.1908
vn -0.2821 0.9267 0.2483
vn 0.1667 0.9837 -0.0670
vn 0.3293 0.9442 0.0114
vn 0.1874 0.9816 0.0374
vn 0.0217 0.9996 0.0166
vn -0.0431 0.9982 -0.0415
vn -0.0082 0.9982 -0.0593
vn 0.0007 0.9996 0.0273
vn -0.0799 0.9816 0.1736
vn -0.1843 0.9442 0.2731
vn -0.1522 0.9837 0.0955
vn -0.1798 0.9837 0.0102
vn 0.2237 0.9736 0.0446
vn 0.2858 0.9518 0.1118
vn 0.1877 0.9728 0.1361
vn 0.1052 0.9839 0.1442
vn 0.0548 0.9839 0.1699
vn -0.0002 0.9728 0.2318
vn -0.0776 0.9518 0.2969
vn -0.0954 0.9736 0.2072
vn 0.1139 0.9837 -0.1394
vn -0.3217 0.9447 -0.0642
vn -0.1414 0.9871 -0.0745
vn 0.0827 0.9896 0.1174
vn 0.2411 0.9481 0.2072
vn 0.1734 0.9524 0.2506
vn 0.1008 0.9524 0.2876
vn 0.0259 0.9481 0.3169
vn 0.0464 0.9896 0.1359
vn 0.0229 0.9871 -0.1582
vn 0.1372 0.9447 -0.2980
vt 0.000000 0.000000
vt 0.100000 0.000000
vt 0.100000 0.100000
vt 0.000000 0.100000
vt 0.200000 0.000000
vt 0.200000 0.100000
vt 0.300000 0.000000
vt 0.300000 0.100000
vt 0.200000 0.100000
vt 0.400000 0.000000
vt 0.400000 0.100000
vt 0.500000 0.000000
vt 0.500000 0.100000
vt 0.600000 0.000000
vt 0.600000 0.100000
vt 0.700000 0.000000
vt 0.700000 0.100000
vt 0.800000 0.000000
vt 0.800000 0.100000
vt 0.900000 0.000000
vt 0.900000 0.100000
vt 1.000000 0.000000
vt 1.000000 0.100000
vt 0.100000 0.200000
vt 0.000000 0.200000
vt 0.200000 0.200000
vt 0.300000 0.200000
vt 0.200000 0.200000
vt 0.400000 0.200000
vt 0.500000 0.200000
vt 0.600000 0.200000
vt 0.700000 0.200000
vt 0.800000 0.200000
vt 0.900000 0.200000
vt 1.000000 0.200000
vt 0.000000 0.200000
vt 0.100000 0.200000
vt 0.100000 0.300000
vt 0.000000 0.300000
vt 0.200000 0.200000
vt 0.200000 0.300000
vt 0.300000 0.200000
vt 0.300000 0.300000
vt 0.200000 0.300000
vt 0.400000 0.200000
vt 0.400000 0.300000
vt 0.500000 0.200000
vt 0.500000 0.300000
vt 0.600000 0.200000
vt 0.600000 0.300000
vt 0.700000 0.200000
vt 0.700000 0.300000
vt 0.800000 0.200000
vt 0.800000 0.300000
vt 0.900000 0.200000
vt 0.900000 0.300000
vt 1.000000 0.200000
vt 1.000000 0.300000
vt 0.100000 0.400000
vt 0.000000 0.400000
vt 0.200000 0.400000
vt 0.300000 0.400000
vt 0.200000 0.400000
vt 0.400000 0.400000
vt 0.500000 0.400000
vt 0.600000 0.400000
vt 0.700000 0.400000
vt 0.800000 0.400000
vt 0.900000 0.400000
vt 1.000000 0.400000
vt 0.100000 0.500000
vt 0.000000 0.500000
vt 0.200000 0.500000
vt 0.300000 0.500000
vt 0.200000 0.500000
vt 0.400000 0.500000
vt 0.500000 0.500000
vt 0.600000 0.500000
vt 0.700000 0.500000
vt 0.800000 0.500000
vt 0.900000 0.500000
vt 1.000000 0.500000
vt 0.100000 0.600000
vt 0.000000 0.600000
vt 0.200000 0.600000
vt 0.300000 0.600000
vt 0.200000 0.600000
vt 0.400000 0.600000
vt 0.500000 0.600000
vt 0.600000 0.600000
vt 0.700000 0.600000
vt 0.800000 0.600000
vt 0.900000 0.600000
vt 1.000000 0.600000
vt 0.100000 0.700000
vt 0.000000 0.700000
vt 0.200000 0.700000
vt 0.300000 0.700000
vt 0.200000 0.700000
vt 0.400000 0.700000
vt 0.500000 0.700000
vt 0.600000 0.700000
vt 0.700000 0.700000
vt 0.800000 0.700000
vt 0.900000 0.700000
vt 1.000000 0.700000
vt 0.100000 0.800000
vt 0.000000 0.800000
vt 0.200000 0.800000
vt 0.300000 0.800000
vt 0.200000 0.800000
vt 0.400000 0.800000
vt 0.500000 0.800000
vt 0.600000 0.800000
vt 0.700000 0.800000
vt 0.800000 0.800000
vt 0.900000 0.800000
vt 1.000000 0.800000
vt 0.100000 0.900000
vt 0.000000 0.900000
vt 0.200000 0.900000
vt 0.300000 0.900000
vt 0.200000 0.900000
vt 0.400000 0.900000
vt 0.500000 0.900000
vt 0.600000 0.900000
vt 0.700000 0.900000
vt 0.800000 0.900000
vt 0.900000 0.900000
vt 1.000000 0.900000
vt 0.100000 1.000000
vt 0.000000 1.000000
vt 0.200000 1.000000
vt 0.300000 1.000000
vt 0.200000 1.000000
vt 0.400000 1.000000
vt 0.500000 1.000000
vt 0.600000 1.000000
vt 0.700000 1.000000
vt 0.800000 1.000000
vt 0.900000 1.000000
vt 1.000000 1.000000
s 0
f 1/1/1 2/2/1 13/3/1 12/4/1
f 2/2/2 3/5/2 14/6/2 13/3/2
f 3/5/3 4/7/3 15/8/3 14/9/3
f 4/7/4 5/10/4 16/11/4 15/8/4
f 5/10/5 6/12/5 17/13/5 16/11/5
f 6/12/6 7/14/6 18/15/6 17/13/6
f 7/14/7 8/16/7 19/17/7 18/15/7
f 8/16/8 9/18/8 20/19/8 19/17/8
f 9/18/9 10/20/9 21/21/9 20/19/9
f 10/20/10 11/22/10 22/23/10 21/21/10
f 12/4/11 13/3/11 24/24/11 23/25/11
f 13/3/12 14/6/12 25/26/12 24/24/12
f 14/6/13 15/8/13 26/27/13 25/28/13
f 15/8/14 16/11/14 27/29/14 26/27/14
f 16/11/15 17/13/15 28/30/15 27/29/15
f 17/13/16 18/15/16 29/31/16 28/30/16
f 18/15/17 19/17/17 30/32/17 29/31/17
f 19/17/18 20/19/18 31/33/18 30/32/18
f 20/19/19 21/21/19 32/34/19 31/33/19
f 21/21/20 22/23/20 33/35/20 32/34/20
f 23/36/21 24/37/21 35/38/21 34/39/21
f 24/37/22 25/40/22 36/41/22 35/38/22
f 25/40/23 26/42/23 37/43/23 36/44/23
f 26/42/24 27/45/24 38/46/24 37/43/24
f 27/45/25 28/47/25 39/48/25 38/46/25
f 28/47/26 29/49/26 40/50/26 39/48/26
f 29/49/27 30/51/27 41/52/27 40/50/27
f 30/51/28 31/53/28 42/54/28 41/52/28
f 31/53/29 32/55/29 43/56/29 42/54/29
f 32/55/30 33/57/30 44/58/30 43/56/30
f 34/39/31 35/38/31 46/59/31 45/60/31
f 35/38/32 36/41/32 47/61/32 46/59/32
f 36/41/33 37/43/33 48/62/33 47/63/33
f 37/43/34 38/46/34 49/64/34 48/62/34
f 38/46/35 39/48/35 50/65/35 49/64/35
f 39/48/36 40/50/36 51/66/36 50/65/36
f 40/50/37 41/52/37 52/67/37 51/66/37
f 41/52/38 42/54/38 53/68/38 52/67/38
f 42/54/39 43/56/39 54/69/39 53/68/39
f 43/56/40 44/58/40 55/70/40 54/69/40
f 45/60/41 46/59/41 57/71/41 56/72/41
f 46/59/42 47/61/42 58/73/42 57/71/42
f 47/61/43 48/62/43 59/74/43 58/75/43
f 48/62/44 49/64/44 60/76/44 59/74/44
f 49/64/45 50/65/45 61/77/45 60/76/45
f 50/65/46 51/66/46 62/78/46 61/77/46
f 51/66/47 52/67/47 63/79/47 62/78/47
f 52/67/48 53/68/48 64/80/48 63/79/48
f 53/68/49 54/69/49 65/81/49 64/80/49
f 54/69/50 55/70/50 66/82/50 65/81/50
f 56/72/51 57/71/51 68/83/51 67/84/51
f 57/71/52 58/73/52 69/85/52 68/83/52
f 58/73/53 59/74/53 70/86/53 69/87/53
f 59/74/54 60/76/54 71/88/54 70/86/54
f 60/76/55 61/77/55 72/89/55 71/88/55
f 61/77/56 62/78/56 73/90/56 72/89/56
f 62/78/57 63/79/57 74/91/57 73/90/57
f 63/79/58 64/80/58 75/92/58 74/91/58
f 64/80/59 65/81/59 76/93/59 75/92/59
f 65/81/60 66/82/60 77/94/60 76/93/60
f 67/84/61 68/83/61 79/95/61 78/96/61
f 68/83/62 69/85/62 80/97/62 79/95/62
f 69/85/63 70/86/63 81/98/63 80/99/63
f 70/86/64 71/88/64 82/100/64 81/98/64
f 71/88/65 72/89/65 83/101/65 82/100/65
f 72/89/66 73/90/66 84/102/66 83/101/66
f 73/90/67 74/91/67 85/103/67 84/102/67
f 74/91/68 75/92/68 86/104/68 85/103/68
f 75/92/69 76/93/69 87/105/69 86/104/69
f 76/93/70 77/94/70 88/106/70 87/105/70
f 78/96/71 79/95/71 90/107/71 89/108/71
f 79/95/72 80/97/72 91/109/72 90/107/72
f 80/97/73 81/98/73 92/110/73 91/111/73
f 81/98/74 82/100/74 93/112/74 92/110/74
f 82/100/75 83/101/75 94/113/75 93/112/75
f 83/101/76 84/102/76 95/114/76 94/113/76
f 84/102/77 85/103/77 96/115/77 95/114/77
f 85/103/78 86/104/78 97/116/78 96/115/78
f 86/104/79 87/105/79 98/117/79 97/116/79
f 87/105/80 88/106/80 99/118/80 98/117/80
f 89/108/81 90/107/81 101/119/81 100/120/81
f 90/107/82 91/109/82 102/121/82 101/119/82
f 91/109/83 92/110/83 103/122/83 102/123/83
f 92/110/84 93/112/84 104/124/84 103/122/84
f 93/112/85 94/113/85 105/125/85 104/124/85
f 94/113/86 95/114/86 106/126/86 105/125/86
f 95/114/87 96/115/87 107/127/87 106/126/87
f 96/115/88 97/116/88 108/128/88 107/127/88
f 97/116/89 98/117/89 109/129/89 108/128/89
f 98/117/90 99/118/90 110/130/90 109/129/90
f 100/120/91 101/119/91 112/131/91 111/132/91
f 101/119/92 102/121/92 113/133/92 112/131/92
f 102/121/93 103/122/93 114/134/93 113/135/93
f 103/122/94 104/124/94 115/136/94 114/134/94
f 104/124/95 105/125/95 116/137/95 115/136/95
f 105/125/96 106/126/96 117/138/96 116/137/96
f 106/126/97 107/127/97 118/139/97 117/138/97
f 107/127/98 108/128/98 119/140/98 118/139/98
f 108/128/99 109/129/99 120/141/99 119/140/99
f 109/129/100 110/130/100 121/142/100 120/141/100
o Liquid_Domain
v -0.957343 745.067261 5.066936
v -0.067587 752.436157 -17.370506
v -13.789108 778.231018 35.476711
v 16.029425 787.642212 41.477547
v 44.319824 786.456726 11.056917
v 21.423885 780.244690 -33.675648
v -33.684650 769.770630 0.790819
v -9.731050 807.424683 -52.311100
v -43.835892 820.445435 34.712349
v -4.718122 825.058594 61.809349
v -60.793705 824.870483 -9.832172
v 60.383339 829.404663 10.805452
v 60.221542 828.850037 -10.627896
v -36.140888 818.277710 -42.033638
v 7.091960 829.617065 -61.224186
v -16.655884 832.907410 57.307648
v 35.234856 828.823608 -43.347504
v 9.310089 832.783936 61.135872
v 35.577103 835.767090 43.583065
v -60.575771 834.465149 10.929589
v -7.401797 840.724121 -61.366947
v -43.489376 1379.226196 -36.976852
v 39.640202 1234.391235 41.260372
v 33.937683 1238.156982 -45.630600
v -39.407528 1236.425903 41.469261
v 5.710031 1228.419922 -65.176704
v 64.353035 1236.476562 7.442297
v 57.521175 1384.705811 -19.590071
v -4.892457 1234.105225 -65.428467
v 11.492284 1234.957520 62.053673
v -63.011074 1373.610107 11.636129
v -16.995359 1246.970947 -58.010788
v 64.782852 1237.749390 -5.568963
v -11.371172 1218.203613 62.145924
v -61.317913 1358.107910 -14.861178
v 21.107655 1392.258789 -58.438778
v 8.242400 1359.683716 64.236633
v 51.971348 1393.904785 29.624418
v -22.425192 1376.915894 58.846439
v 69.922981 1386.410400 0.342983
v -19.764795 1392.209229 -58.757668
v 0.841159 1384.007080 -70.016495
v 3.113303 1383.238159 70.466057
v -68.758354 1399.981201 -12.332349
v -7.838268 1398.275391 71.634018
v -60.976627 1445.913940 32.182110
v 58.407280 1444.845825 33.407356
v -20.580017 1447.404297 76.312553
v 19.599878 1437.512451 72.996902
v 83.023323 1452.258911 13.786565
v 74.569839 1448.251221 -19.721142
v 39.895546 1443.599731 -51.046856
v -8.374599 1447.264404 -83.413101
v 20.486774 1445.277100 -76.454506
v -0.135038 1445.776733 82.230301
v -83.064682 1467.606934 9.350352
v -40.435555 1469.136719 44.790623
v -72.478065 1455.896484 -20.635443
v -34.132702 1455.444092 -53.415401
v -6.567763 1473.840210 -78.739754
v 2.706034 1472.611572 77.813148
v 26.049702 1470.598633 55.849300
v -22.889290 1480.060547 45.623676
v 75.245651 1473.959229 0.993675
v 44.266277 1481.690308 14.870076
v -59.659111 1477.640381 -12.349735
v -13.335584 1478.798096 -56.427204
v 28.492336 1475.197754 -47.819931
vn 0.0289 -0.9762 0.2148
vn -0.0048 -0.8099 -0.5866
vn -0.2948 -0.5657 0.7701
vn 0.3183 -0.4791 0.8180
vn 0.7896 -0.5483 0.2754
vn 0.4045 -0.5197 -0.7526
vn -0.7718 -0.6358 0.0012
vn -0.1847 -0.3957 -0.8996
vn -0.7054 -0.2316 0.6699
vn -0.1010 -0.2051 0.9735
vn -0.9271 -0.2439 -0.2845
vn 0.9214 -0.1698 0.3495
vn 0.9101 -0.2171 -0.3529
vn -0.6205 -0.2547 -0.7417
vn 0.1504 -0.1738 -0.9732
vn -0.4948 -0.1270 0.8597
vn 0.6375 -0.1599 -0.7537
vn 0.2652 -0.1151 0.9573
vn 0.6587 -0.1335 0.7405
vn -0.9195 -0.2367 0.3139
vn -0.2226 -0.0746 -0.9721
vn -0.6975 -0.0563 -0.7144
vn 0.6899 -0.0018 0.7239
vn 0.6592 -0.0062 -0.7519
vn -0.6994 -0.0077 0.7147
vn 0.2366 -0.0152 -0.9715
vn 0.9361 -0.0163 0.3513
vn 0.7802 -0.0985 -0.6177
vn -0.2104 -0.0172 -0.9775
vn 0.2453 -0.0071 0.9694
vn -0.9206 -0.0990 0.3778
vn -0.5745 -0.0049 -0.8185
vn 0.9649 -0.0135 -0.2622
vn -0.2283 -0.0070 0.9736
vn -0.9085 -0.0581 -0.4138
vn 0.6456 -0.1145 -0.7550
vn 0.1703 -0.0710 0.9828
vn 0.7290 -0.1066 0.6762
vn -0.5078 -0.0932 0.8564
vn 0.9919 -0.1269 -0.0089
vn -0.6188 -0.0874 -0.7806
vn 0.0035 -0.1420 -0.9899
vn 0.0954 -0.2578 0.9615
vn -0.9166 -0.1556 -0.3682
vn -0.3496 -0.2080 0.9135
vn -0.7106 -0.0021 0.7036
vn 0.6940 0.0890 0.7145
vn -0.4845 0.0746 0.8716
vn 0.5536 -0.0249 0.8324
vn 0.7896 0.2225 0.5718
vn 0.7513 0.1689 -0.6380
vn 0.7458 0.0727 -0.6622
vn -0.1275 -0.0055 -0.9918
vn 0.4566 0.0473 -0.8884
vn 0.0333 -0.0002 0.9994
vn -0.8476 0.4630 0.2593
vn -0.5793 0.4914 0.6504
vn -0.7509 0.2211 -0.6223
vn -0.7083 0.1928 -0.6791
vn -0.0934 0.4286 -0.8986
vn 0.0714 0.4270 0.9014
vn 0.5286 0.6389 0.5589
vn -0.2218 0.8785 0.4231
vn 0.7014 0.7073 -0.0880
vn 0.1974 0.9649 0.1731
vn -0.4147 0.8584 -0.3018
vn -0.3260 0.8826 -0.3387
vn 0.5018 0.7251 -0.4717
s 1
usemtl Liquid_Domain_Material
f 122//101 124//103 128//107
f 125//104 124//103 122//101
f 125//104 122//101 126//105
f 122//101 123//102 126//105
f 123//102 122//101 128//107
f 123//102 127//106 126//105
f 123//102 128//107 135//114
f 123//102 135//114 129//108
f 125//104 131//110 124//103
f 124//103 130//109 128//107
f 128//107 130//109 132//111
f 133//112 126//105 134//113
f 135//114 128//107 132//111
f 126//105 127//106 134//113
f 123//102 129//108 127//106
f 130//109 124//103 137//116
f 137//116 124//103 131//110
f 129//108 136//115 127//106
f 138//117 127//106 136//115
f 131//110 125//104 139//118
f 126//105 140//119 125//104
f 132//111 130//109 141//120
f 134//113 127//106 138//117
f 125//104 140//119 139//118
f 133//112 140//119 126//105
f 129//108 135//114 142//121
f 142//121 136//115 129//108
f 130//109 146//125 141//120
f 132//111 143//122 135//114
f 144//123 139//118 140//119
f 137//116 146//125 130//109
f 133//112 134//113 148//127
f 147//126 138//117 136//115
f 136//115 142//121 147//126
f 145//124 138//117 147//126
f 148//127 144//123 133//112
f 137//116 155//134 146//125
f 155//134 137//116 131//110
f 140//119 133//112 144//123
f 151//130 139//118 144//123
f 135//114 153//132 142//121
f 148//127 134//113 154//133
f 142//121 150//129 147//126
f 139//118 151//130 131//110
f 131//110 151//130 155//134
f 141//120 152//131 132//111
f 134//113 138//117 149//128
f 149//128 138//117 145//124
f 135//114 143//122 153//132
f 141//120 146//125 152//131
f 152//131 156//135 132//111
f 153//132 150//129 142//121
f 134//113 149//128 154//133
f 132//111 156//135 143//122
f 155//134 160//139 146//125
f 144//123 148//127 159//138
f 145//124 147//126 157//136
f 151//130 158//137 155//134
f 147//126 150//129 163//142
f 163//142 157//136 147//126
f 155//134 158//137 160//139
f 144//123 159//138 151//130
f 146//125 160//139 152//131
f 148//127 154//133 161//140
f 162//141 153//132 143//122
f 150//129 153//132 163//142
f 159//138 148//127 161//140
f 145//124 157//136 149//128
f 151//130 159//138 158//137
f 149//128 161//140 154//133
f 153//132 162//141 163//142
f 158//137 164//143 160//139
f 160//139 164//143 166//145
f 152//131 165//144 156//135
f 165//144 143//122 156//135
f 158//137 159//138 164//143
f 167//146 160//139 166//145
f 168//147 170//149 159//138
f 160//139 167//146 152//131
f 166//145 169//148 167//146
f 159//138 170//149 164//143
f 171//150 168//147 159//138
f 161//140 171//150 159//138
f 149//128 172//151 161//140
f 157//136 173//152 149//128
f 173//152 172//151 149//128
f 162//141 174//153 163//142
f 157//136 163//142 175//154
f 157//136 175//154 173//152
f 166//145 176//155 169//148
f 164//143 176//155 166//145
f 164//143 170//149 176//155
f 152//131 167//146 177//156
f 152//131 177//156 165//144
f 161//140 172//151 171//150
f 163//142 174//153 175//154
f 178//157 167//146 169//148
f 177//156 179//158 165//144
f 165//144 179//158 143//122
f 143//122 179//158 180//159
f 162//141 143//122 180//159
f 180//159 174//153 162//141
f 181//160 174//153 180//159
f 176//155 182//161 169//148
f 170//149 182//161 176//155
f 183//162 182//161 170//149
f 183//162 170//149 168//147
f 182//161 184//163 169//148
f 169//148 184//163 178//157
f 168//147 185//164 183//162
f 178//157 177//156 167//146
f 171//150 185//164 168//147
f 187//166 179//158 177//156
f 172//151 185//164 171//150
f 180//159 179//158 187//166
f 188//167 180//159 187//166
f 173//152 189//168 185//164
f 185//164 172//151 173//152
f 189//168 173//152 175//154
f 180//159 188//167 181//160
f 189//168 175//154 181//160
f 181//160 175//154 174//153
f 182//161 183//162 184//163
f 183//162 186//165 184//163
f 183//162 185//164 186//165
f 177//156 178//157 184//163
f 184//163 187//166 177//156
f 186//165 187//166 184//163
f 186//165 188//167 187//166
f 189//168 188//167 186//165
f 185//164 189//168 186//165
f 188//167 189//168 181//160
o 平面
v -2.000000 -35.044277 2.000000
v 2.000000 -35.044277 2.000000
v -2.000000 -35.044277 -2.000000
v 2.000000 -35.044277 -2.000000
vn -0.0000 1.0000 -0.0000
vt 0.000000 0.000000
vt 1.000000 0.000000
vt 1.000000 1.000000
vt 0.000000 1.000000
s 0
f 190/143/169 191/144/169 193/145/169 192/146/169
