# Blender 4.1.1
# www.blender.org
mtllib bb0041.mtl
o グリッド
v 2.059399 800.286865 -10.319732
v 0.897527 800.644226 -9.727728
v -0.264345 800.883484 -9.135725
v -1.426218 800.993652 -8.543721
v -2.588090 801.020935 -7.951717
v -3.749962 801.021973 -7.359714
v -4.911835 801.020935 -6.767710
v -6.073707 800.993652 -6.175707
v -7.235579 800.883484 -5.583704
v -8.397451 800.644226 -4.991700
v -9.559323 800.286865 -4.399696
v 2.809392 800.644226 -8.847789
v 1.647519 800.935730 -8.255785
v 0.485647 801.021973 -7.663782
v -0.676225 800.955383 -7.071778
v -1.838097 800.849731 -6.479774
v -2.999970 800.802490 -5.887771
v -4.161842 800.849731 -5.295767
v -5.323714 800.955383 -4.703764
v -6.485587 801.021973 -4.111761
v -7.647459 800.935730 -3.519757
v -8.809331 800.644226 -2.927753
v 3.559384 800.883484 -7.375846
v 2.397512 801.021973 -6.783843
v 1.235640 800.890869 -6.191839
v 0.073767 800.623291 -5.599836
v -1.088105 800.388306 -5.007832
v -2.249977 800.298096 -4.415829
v -3.411850 800.388306 -3.823825
v -4.573722 800.623291 -3.231822
v -5.735594 800.890869 -2.639818
v -6.897467 801.021973 -2.047814
v -8.059339 800.883484 -1.455811
v 4.309377 800.993652 -5.903903
v 3.147504 800.955383 -5.311899
v 1.985632 800.623291 -4.719896
v 0.823760 800.202332 -4.127892
v -0.338112 800.119629 -3.535889
v -1.499985 800.250610 -2.943885
v -2.661857 800.119629 -2.351882
v -3.823729 800.202332 -1.759878
v -4.985601 800.623291 -1.167875
v -6.147474 800.955383 -0.575871
v -7.309346 800.993652 0.016132
v 5.059369 801.020935 -4.431960
v 3.897497 800.849731 -3.839957
v 2.735625 800.388306 -3.247953
v 1.573752 800.119629 -2.655950
v 0.411880 800.570129 -2.063946
v -0.749992 800.767212 -1.471943
v -1.911865 800.570129 -0.879939
v -3.073737 800.119629 -0.287936
v -4.235609 800.388306 0.304068
v -5.397482 800.849731 0.896072
v -6.559354 801.020935 1.488075
v 5.809361 801.021973 -2.960018
v 4.647489 800.802490 -2.368014
v 3.485617 800.298096 -1.776011
v 2.323745 800.250610 -1.184007
v 1.161872 800.767212 -0.592004
v 0.000000 801.019409 0.000000
v -1.161873 800.767212 0.592004
v -2.323745 800.250610 1.184007
v -3.485617 800.298096 1.776011
v -4.647490 800.802490 2.368014
v -5.809361 801.021973 2.960018
v 6.559354 801.020935 -1.488075
v 5.397482 800.849731 -0.896071
v 4.235610 800.388306 -0.304067
v 3.073737 800.119629 0.287936
v 1.911865 800.570129 0.879940
v 0.749993 800.767212 1.471943
v -0.411880 800.570129 2.063947
v -1.573752 800.119629 2.655950
v -2.735624 800.388306 3.247954
v -3.897497 800.849731 3.839957
v -5.059369 801.020935 4.431961
v 7.309346 800.993652 -0.016132
v 6.147474 800.955383 0.575871
v 4.985601 800.623291 1.167875
v 3.823729 800.202332 1.759878
v 2.661857 800.119629 2.351882
v 1.499985 800.250610 2.943885
v 0.338112 800.119629 3.535889
v -0.823760 800.202332 4.127892
v -1.985632 800.623291 4.719896
v -3.147505 800.955383 5.311900
v -4.309377 800.993652 5.903903
v 8.059339 800.883484 1.455811
v 6.897467 801.021973 2.047815
v 5.735594 800.890869 2.639818
v 4.573722 800.623291 3.231822
v 3.411849 800.388306 3.823825
v 2.249977 800.298096 4.415829
v 1.088105 800.388306 5.007833
v -0.073767 800.623291 5.599836
v -1.235640 800.890869 6.191839
v -2.397512 801.021973 6.783843
v -3.559384 800.883484 7.375846
v 8.809332 800.644226 2.927754
v 7.647459 800.935730 3.519758
v 6.485587 801.021973 4.111761
v 5.323714 800.955383 4.703764
v 4.161842 800.849731 5.295768
v 2.999970 800.802490 5.887772
v 1.838097 800.849731 6.479775
v 0.676225 800.955383 7.071779
v -0.485647 801.021973 7.663782
v -1.647520 800.935730 8.255786
v -2.809391 800.644226 8.847790
v 9.559323 800.286865 4.399696
v 8.397451 800.644226 4.991700
v 7.235579 800.883484 5.583704
v 6.073707 800.993652 6.175707
v 4.911834 801.020935 6.767711
v 3.749962 801.021973 7.359714
v 2.588089 801.020935 7.951718
v 1.426218 800.993652 8.543721
v 0.264345 800.883484 9.135725
v -0.897527 800.644226 9.727728
v -2.059399 800.286865 10.319732
vn 0.1263 0.9533 -0.2745
vn 0.0513 0.9841 -0.1699
vn 0.0011 0.9994 -0.0346
vn 0.0020 0.9975 0.0699
vn 0.0376 0.9929 0.1126
vn 0.0690 0.9929 0.0966
vn 0.0554 0.9975 0.0427
vn -0.0286 0.9994 -0.0194
vn -0.1676 0.9841 -0.0583
vn -0.2963 0.9533 -0.0591
vn 0.1003 0.9821 -0.1597
vn -0.0092 0.9998 0.0199
vn -0.0496 0.9824 0.1799
vn -0.0071 0.9646 0.2636
vn 0.0822 0.9586 0.2726
vn 0.1722 0.9586 0.2268
vn 0.2174 0.9646 0.1492
vn 0.1747 0.9824 0.0656
vn 0.0215 0.9998 0.0043
vn -0.1882 0.9821 -0.0127
vn 0.0282 0.9992 -0.0292
vn -0.1100 0.9797 0.1673
vn -0.1333 0.9478 0.2896
vn -0.0134 0.9720 0.2345
vn 0.0571 0.9953 0.0778
vn 0.0294 0.9953 0.0919
vn 0.1976 0.9720 0.1270
vn 0.3126 0.9478 0.0624
vn 0.2000 0.9797 0.0093
vn -0.0402 0.9992 0.0057
vn -0.0606 0.9965 0.0574
vn -0.2135 0.9521 0.2190
vn -0.1848 0.9626 0.1980
vn 0.0739 0.9842 -0.1606
vn -0.0198 0.9528 -0.3029
vn -0.2334 0.9528 -0.1941
vn -0.1734 0.9842 -0.0346
vn 0.2688 0.9626 -0.0331
vn 0.3027 0.9521 -0.0440
vn 0.0820 0.9965 -0.0153
vn -0.1257 0.9889 0.0796
vn -0.2915 0.9370 0.1923
vn -0.1128 0.9927 0.0437
vn 0.2664 0.9336 -0.2398
vn 0.0896 0.9767 -0.1947
vn -0.2102 0.9767 -0.0420
vn -0.3505 0.9336 0.0746
vn 0.1016 0.9927 -0.0655
vn 0.3269 0.9370 -0.1228
vn 0.1383 0.9889 -0.0549
vn -0.1383 0.9889 0.0549
vn -0.3269 0.9370 0.1228
vn -0.1016 0.9927 0.0655
vn 0.3505 0.9336 -0.0746
vn 0.2102 0.9767 0.0420
vn -0.0896 0.9767 0.1947
vn -0.2664 0.9336 0.2398
vn 0.1128 0.9927 -0.0437
vn 0.2915 0.9370 -0.1923
vn 0.1257 0.9889 -0.0796
vn -0.0820 0.9965 0.0153
vn -0.3027 0.9521 0.0440
vn -0.2688 0.9626 0.0331
vn 0.1734 0.9842 0.0346
vn 0.2334 0.9528 0.1941
vn 0.0198 0.9528 0.3029
vn -0.0739 0.9842 0.1606
vn 0.1848 0.9626 -0.1980
vn 0.2135 0.9521 -0.2190
vn 0.0606 0.9965 -0.0574
vn 0.0402 0.9992 -0.0057
vn -0.2000 0.9797 -0.0093
vn -0.3126 0.9478 -0.0624
vn -0.1976 0.9720 -0.1270
vn -0.0294 0.9953 -0.0919
vn -0.0571 0.9953 -0.0778
vn 0.0134 0.9720 -0.2345
vn 0.1333 0.9478 -0.2896
vn 0.1100 0.9797 -0.1673
vn -0.0282 0.9992 0.0292
vn 0.1882 0.9821 0.0127
vn -0.0215 0.9998 -0.0043
vn -0.1747 0.9824 -0.0656
vn -0.2174 0.9646 -0.1492
vn -0.1722 0.9586 -0.2268
vn -0.0822 0.9586 -0.2726
vn 0.0071 0.9646 -0.2636
vn 0.0496 0.9824 -0.1799
vn 0.0092 0.9998 -0.0199
vn -0.1003 0.9821 0.1597
vn 0.2963 0.9533 0.0591
vn 0.1676 0.9841 0.0583
vn 0.0286 0.9994 0.0194
vn -0.0554 0.9975 -0.0427
vn -0.0690 0.9929 -0.0966
vn -0.0376 0.9929 -0.1126
vn -0.0020 0.9975 -0.0699
vn -0.0011 0.9994 0.0346
vn -0.0513 0.9841 0.1699
vn -0.1263 0.9533 0.2745
vt 0.000000 0.000000
vt 0.100000 0.000000
vt 0.100000 0.100000
vt 0.000000 0.100000
vt 0.200000 0.000000
vt 0.200000 0.100000
vt 0.300000 0.000000
vt 0.300000 0.100000
vt 0.200000 0.100000
vt 0.400000 0.000000
vt 0.400000 0.100000
vt 0.500000 0.000000
vt 0.500000 0.100000
vt 0.600000 0.000000
vt 0.600000 0.100000
vt 0.700000 0.000000
vt 0.700000 0.100000
vt 0.800000 0.000000
vt 0.800000 0.100000
vt 0.900000 0.000000
vt 0.900000 0.100000
vt 1.000000 0.000000
vt 1.000000 0.100000
vt 0.100000 0.200000
vt 0.000000 0.200000
vt 0.200000 0.200000
vt 0.300000 0.200000
vt 0.200000 0.200000
vt 0.400000 0.200000
vt 0.500000 0.200000
vt 0.600000 0.200000
vt 0.700000 0.200000
vt 0.800000 0.200000
vt 0.900000 0.200000
vt 1.000000 0.200000
vt 0.000000 0.200000
vt 0.100000 0.200000
vt 0.100000 0.300000
vt 0.000000 0.300000
vt 0.200000 0.200000
vt 0.200000 0.300000
vt 0.300000 0.200000
vt 0.300000 0.300000
vt 0.200000 0.300000
vt 0.400000 0.200000
vt 0.400000 0.300000
vt 0.500000 0.200000
vt 0.500000 0.300000
vt 0.600000 0.200000
vt 0.600000 0.300000
vt 0.700000 0.200000
vt 0.700000 0.300000
vt 0.800000 0.200000
vt 0.800000 0.300000
vt 0.900000 0.200000
vt 0.900000 0.300000
vt 1.000000 0.200000
vt 1.000000 0.300000
vt 0.100000 0.400000
vt 0.000000 0.400000
vt 0.200000 0.400000
vt 0.300000 0.400000
vt 0.200000 0.400000
vt 0.400000 0.400000
vt 0.500000 0.400000
vt 0.600000 0.400000
vt 0.700000 0.400000
vt 0.800000 0.400000
vt 0.900000 0.400000
vt 1.000000 0.400000
vt 0.100000 0.500000
vt 0.000000 0.500000
vt 0.200000 0.500000
vt 0.300000 0.500000
vt 0.200000 0.500000
vt 0.400000 0.500000
vt 0.500000 0.500000
vt 0.600000 0.500000
vt 0.700000 0.500000
vt 0.800000 0.500000
vt 0.900000 0.500000
vt 1.000000 0.500000
vt 0.100000 0.600000
vt 0.000000 0.600000
vt 0.200000 0.600000
vt 0.300000 0.600000
vt 0.200000 0.600000
vt 0.400000 0.600000
vt 0.500000 0.600000
vt 0.600000 0.600000
vt 0.700000 0.600000
vt 0.800000 0.600000
vt 0.900000 0.600000
vt 1.000000 0.600000
vt 0.100000 0.700000
vt 0.000000 0.700000
vt 0.200000 0.700000
vt 0.300000 0.700000
vt 0.200000 0.700000
vt 0.400000 0.700000
vt 0.500000 0.700000
vt 0.600000 0.700000
vt 0.700000 0.700000
vt 0.800000 0.700000
vt 0.900000 0.700000
vt 1.000000 0.700000
vt 0.100000 0.800000
vt 0.000000 0.800000
vt 0.200000 0.800000
vt 0.300000 0.800000
vt 0.200000 0.800000
vt 0.400000 0.800000
vt 0.500000 0.800000
vt 0.600000 0.800000
vt 0.700000 0.800000
vt 0.800000 0.800000
vt 0.900000 0.800000
vt 1.000000 0.800000
vt 0.100000 0.900000
vt 0.000000 0.900000
vt 0.200000 0.900000
vt 0.300000 0.900000
vt 0.200000 0.900000
vt 0.400000 0.900000
vt 0.500000 0.900000
vt 0.600000 0.900000
vt 0.700000 0.900000
vt 0.800000 0.900000
vt 0.900000 0.900000
vt 1.000000 0.900000
vt 0.100000 1.000000
vt 0.000000 1.000000
vt 0.200000 1.000000
vt 0.300000 1.000000
vt 0.200000 1.000000
vt 0.400000 1.000000
vt 0.500000 1.000000
vt 0.600000 1.000000
vt 0.700000 1.000000
vt 0.800000 1.000000
vt 0.900000 1.000000
vt 1.000000 1.000000
s 0
f 1/1/1 2/2/1 13/3/1 12/4/1
f 2/2/2 3/5/2 14/6/2 13/3/2
f 3/5/3 4/7/3 15/8/3 14/9/3
f 4/7/4 5/10/4 16/11/4 15/8/4
f 5/10/5 6/12/5 17/13/5 16/11/5
f 6/12/6 7/14/6 18/15/6 17/13/6
f 7/14/7 8/16/7 19/17/7 18/15/7
f 8/16/8 9/18/8 20/19/8 19/17/8
f 9/18/9 10/20/9 21/21/9 20/19/9
f 10/20/10 11/22/10 22/23/10 21/21/10
f 12/4/11 13/3/11 24/24/11 23/25/11
f 13/3/12 14/6/12 25/26/12 24/24/12
f 14/6/13 15/8/13 26/27/13 25/28/13
f 15/8/14 16/11/14 27/29/14 26/27/14
f 16/11/15 17/13/15 28/30/15 27/29/15
f 17/13/16 18/15/16 29/31/16 28/30/16
f 18/15/17 19/17/17 30/32/17 29/31/17
f 19/17/18 20/19/18 31/33/18 30/32/18
f 20/19/19 21/21/19 32/34/19 31/33/19
f 21/21/20 22/23/20 33/35/20 32/34/20
f 23/36/21 24/37/21 35/38/21 34/39/21
f 24/37/22 25/40/22 36/41/22 35/38/22
f 25/40/23 26/42/23 37/43/23 36/44/23
f 26/42/24 27/45/24 38/46/24 37/43/24
f 27/45/25 28/47/25 39/48/25 38/46/25
f 28/47/26 29/49/26 40/50/26 39/48/26
f 29/49/27 30/51/27 41/52/27 40/50/27
f 30/51/28 31/53/28 42/54/28 41/52/28
f 31/53/29 32/55/29 43/56/29 42/54/29
f 32/55/30 33/57/30 44/58/30 43/56/30
f 34/39/31 35/38/31 46/59/31 45/60/31
f 35/38/32 36/41/32 47/61/32 46/59/32
f 36/41/33 37/43/33 48/62/33 47/63/33
f 37/43/34 38/46/34 49/64/34 48/62/34
f 38/46/35 39/48/35 50/65/35 49/64/35
f 39/48/36 40/50/36 51/66/36 50/65/36
f 40/50/37 41/52/37 52/67/37 51/66/37
f 41/52/38 42/54/38 53/68/38 52/67/38
f 42/54/39 43/56/39 54/69/39 53/68/39
f 43/56/40 44/58/40 55/70/40 54/69/40
f 45/60/41 46/59/41 57/71/41 56/72/41
f 46/59/42 47/61/42 58/73/42 57/71/42
f 47/61/43 48/62/43 59/74/43 58/75/43
f 48/62/44 49/64/44 60/76/44 59/74/44
f 49/64/45 50/65/45 61/77/45 60/76/45
f 50/65/46 51/66/46 62/78/46 61/77/46
f 51/66/47 52/67/47 63/79/47 62/78/47
f 52/67/48 53/68/48 64/80/48 63/79/48
f 53/68/49 54/69/49 65/81/49 64/80/49
f 54/69/50 55/70/50 66/82/50 65/81/50
f 56/72/51 57/71/51 68/83/51 67/84/51
f 57/71/52 58/73/52 69/85/52 68/83/52
f 58/73/53 59/74/53 70/86/53 69/87/53
f 59/74/54 60/76/54 71/88/54 70/86/54
f 60/76/55 61/77/55 72/89/55 71/88/55
f 61/77/56 62/78/56 73/90/56 72/89/56
f 62/78/57 63/79/57 74/91/57 73/90/57
f 63/79/58 64/80/58 75/92/58 74/91/58
f 64/80/59 65/81/59 76/93/59 75/92/59
f 65/81/60 66/82/60 77/94/60 76/93/60
f 67/84/61 68/83/61 79/95/61 78/96/61
f 68/83/62 69/85/62 80/97/62 79/95/62
f 69/85/63 70/86/63 81/98/63 80/99/63
f 70/86/64 71/88/64 82/100/64 81/98/64
f 71/88/65 72/89/65 83/101/65 82/100/65
f 72/89/66 73/90/66 84/102/66 83/101/66
f 73/90/67 74/91/67 85/103/67 84/102/67
f 74/91/68 75/92/68 86/104/68 85/103/68
f 75/92/69 76/93/69 87/105/69 86/104/69
f 76/93/70 77/94/70 88/106/70 87/105/70
f 78/96/71 79/95/71 90/107/71 89/108/71
f 79/95/72 80/97/72 91/109/72 90/107/72
f 80/97/73 81/98/73 92/110/73 91/111/73
f 81/98/74 82/100/74 93/112/74 92/110/74
f 82/100/75 83/101/75 94/113/75 93/112/75
f 83/101/76 84/102/76 95/114/76 94/113/76
f 84/102/77 85/103/77 96/115/77 95/114/77
f 85/103/78 86/104/78 97/116/78 96/115/78
f 86/104/79 87/105/79 98/117/79 97/116/79
f 87/105/80 88/106/80 99/118/80 98/117/80
f 89/108/81 90/107/81 101/119/81 100/120/81
f 90/107/82 91/109/82 102/121/82 101/119/82
f 91/109/83 92/110/83 103/122/83 102/123/83
f 92/110/84 93/112/84 104/124/84 103/122/84
f 93/112/85 94/113/85 105/125/85 104/124/85
f 94/113/86 95/114/86 106/126/86 105/125/86
f 95/114/87 96/115/87 107/127/87 106/126/87
f 96/115/88 97/116/88 108/128/88 107/127/88
f 97/116/89 98/117/89 109/129/89 108/128/89
f 98/117/90 99/118/90 110/130/90 109/129/90
f 100/120/91 101/119/91 112/131/91 111/132/91
f 101/119/92 102/121/92 113/133/92 112/131/92
f 102/121/93 103/122/93 114/134/93 113/135/93
f 103/122/94 104/124/94 115/136/94 114/134/94
f 104/124/95 105/125/95 116/137/95 115/136/95
f 105/125/96 106/126/96 117/138/96 116/137/96
f 106/126/97 107/127/97 118/139/97 117/138/97
f 107/127/98 108/128/98 119/140/98 118/139/98
f 108/128/99 109/129/99 120/141/99 119/140/99
f 109/129/100 110/130/100 121/142/100 120/141/100
o Liquid_Domain
v -0.957218 745.067078 5.067061
v -0.067899 752.436035 -17.370659
v -13.788857 778.230347 35.476425
v 16.030193 787.642273 41.476990
v 44.318966 786.455078 11.056771
v 21.423271 780.243713 -33.675732
v -33.684139 769.770142 0.791169
v -9.730843 807.425171 -52.311218
v -38.977013 820.910828 40.227192
v -1.456142 813.607117 56.971401
v -60.420616 824.286865 -10.633309
v 60.615566 829.487793 10.211323
v 60.299824 828.932129 -10.521312
v -41.032421 817.338684 -36.580513
v 7.351719 829.978516 -61.276001
v 35.030201 828.703918 -43.485115
v 8.803693 832.507568 61.231293
v 34.586609 835.590820 44.402351
v -60.427189 835.646484 11.467850
v -8.773095 841.247437 -61.117256
v -9.613866 833.177002 61.123459
v 15.943066 1195.079102 59.618484
v -45.198940 1201.634399 34.796616
v 46.590656 1216.398438 32.740879
v 15.740836 1194.675537 -58.473015
v 64.695961 1204.356201 5.607338
v -62.931068 1205.043701 -7.508229
v -16.364784 1195.371338 59.616077
v 63.168472 1200.761963 -8.370836
v -0.234975 1209.164795 63.116177
v -43.939587 1199.970947 -35.662754
v 44.478397 1200.938110 -35.131866
v -15.560744 1196.516113 -58.433521
v -59.968201 1202.107910 15.092847
v -5.691377 1199.125244 -64.578796
v 5.636331 1199.855713 -64.692032
v -26.782364 1239.427734 39.972946
v 24.588037 1251.545410 35.026844
v -26.600527 1251.511719 -32.650547
v 0.077725 1248.708130 45.084953
v -46.452057 1248.037354 0.303041
v 49.126492 1241.574585 -9.960949
v 10.607388 1248.781006 -44.638081
v -9.555129 1279.373291 20.953335
v -8.185121 1288.922485 -0.324174
v 9.134501 1288.789062 -9.091612
vn 0.0289 -0.9762 0.2148
vn -0.0043 -0.8093 -0.5874
vn -0.2994 -0.5751 0.7613
vn 0.3308 -0.4863 0.8087
vn 0.7895 -0.5473 0.2778
vn 0.4046 -0.5197 -0.7525
vn -0.7757 -0.6307 0.0198
vn -0.2003 -0.3916 -0.8981
vn -0.6530 -0.2263 0.7227
vn -0.0576 -0.3611 0.9308
vn -0.9326 -0.2452 -0.2650
vn 0.9236 -0.1704 0.3433
vn 0.9090 -0.2173 -0.3558
vn -0.6548 -0.2626 -0.7087
vn 0.1491 -0.1695 -0.9742
vn 0.6381 -0.1607 -0.7530
vn 0.2096 -0.1225 0.9701
vn 0.6538 -0.1349 0.7445
vn -0.9075 -0.2544 0.3342
vn -0.2469 -0.0766 -0.9660
vn -0.2247 -0.1172 0.9673
vn 0.4042 0.0896 0.9103
vn -0.7237 0.1276 0.6782
vn 0.7332 0.2198 0.6435
vn 0.5805 0.0884 -0.8095
vn 0.9448 0.2144 0.2479
vn -0.9449 0.1887 -0.2677
vn -0.4041 0.0857 0.9107
vn 0.9181 0.1373 -0.3718
vn 0.0032 0.1942 0.9810
vn -0.7072 0.1317 -0.6947
vn 0.7015 0.1516 -0.6963
vn -0.5750 0.1145 -0.8101
vn -0.8930 0.1763 0.4141
vn -0.2081 0.1497 -0.9666
vn 0.1870 0.1550 -0.9700
vn -0.5261 0.3943 0.7534
vn 0.4911 0.5271 0.6935
vn -0.4835 0.4974 -0.7203
vn 0.0004 0.4769 0.8790
vn -0.8470 0.5313 0.0165
vn 0.8293 0.4910 -0.2669
vn 0.1760 0.4677 -0.8662
vn -0.1751 0.7772 0.6044
vn -0.3154 0.9473 0.0565
vn 0.2547 0.8802 -0.4004
s 1
usemtl Liquid_Domain_Material
f 122//101 124//103 128//107
f 125//104 124//103 122//101
f 125//104 122//101 126//105
f 122//101 123//102 126//105
f 123//102 122//101 128//107
f 123//102 127//106 126//105
f 123//102 128//107 135//114
f 123//102 135//114 129//108
f 125//104 131//110 124//103
f 124//103 130//109 128//107
f 128//107 130//109 132//111
f 133//112 126//105 134//113
f 135//114 128//107 132//111
f 126//105 127//106 134//113
f 123//102 129//108 127//106
f 130//109 124//103 142//121
f 142//121 124//103 131//110
f 129//108 136//115 127//106
f 137//116 127//106 136//115
f 131//110 125//104 138//117
f 126//105 139//118 125//104
f 132//111 130//109 140//119
f 134//113 127//106 137//116
f 125//104 139//118 138//117
f 133//112 139//118 126//105
f 141//120 129//108 135//114
f 138//117 142//121 131//110
f 141//120 136//115 129//108
f 130//109 142//121 149//128
f 143//122 138//117 139//118
f 130//109 144//123 140//119
f 139//118 133//112 145//124
f 140//119 148//127 132//111
f 133//112 134//113 147//126
f 146//125 137//116 136//115
f 147//126 145//124 133//112
f 147//126 134//113 150//129
f 142//121 138//117 151//130
f 153//132 150//129 134//113
f 132//111 152//131 135//114
f 134//113 137//116 153//132
f 141//120 135//114 154//133
f 135//114 152//131 154//133
f 142//121 151//130 149//128
f 140//119 144//123 155//134
f 151//130 138//117 143//122
f 139//118 145//124 143//122
f 140//119 155//134 148//127
f 132//111 148//127 152//131
f 141//120 154//133 156//135
f 136//115 141//120 157//136
f 141//120 156//135 157//136
f 157//136 146//125 136//115
f 144//123 130//109 149//128
f 137//116 146//125 153//132
f 146//125 157//136 153//132
f 151//130 158//137 149//128
f 143//122 159//138 151//130
f 144//123 149//128 158//137
f 159//138 143//122 145//124
f 144//123 158//137 155//134
f 155//134 162//141 148//127
f 153//132 163//142 150//129
f 152//131 148//127 160//139
f 153//132 164//143 163//142
f 154//133 152//131 160//139
f 154//133 160//139 156//135
f 164//143 153//132 157//136
f 158//137 151//130 161//140
f 161//140 151//130 159//138
f 158//137 162//141 155//134
f 145//124 147//126 163//142
f 147//126 150//129 163//142
f 162//141 160//139 148//127
f 156//135 160//139 164//143
f 157//136 156//135 164//143
f 158//137 165//144 162//141
f 161//140 165//144 158//137
f 163//142 159//138 145//124
f 164//143 167//146 163//142
f 165//144 161//140 159//138
f 165//144 166//145 162//141
f 159//138 163//142 167//146
f 162//141 166//145 160//139
f 167//146 164//143 160//139
f 165//144 159//138 167//146
f 167//146 160//139 166//145
f 165//144 167//146 166//145
o 平面
v -2.000000 -34.565201 2.000000
v 2.000000 -34.565201 2.000000
v -2.000000 -34.565201 -2.000000
v 2.000000 -34.565201 -2.000000
vn -0.0000 1.0000 -0.0000
vt 0.000000 0.000000
vt 1.000000 0.000000
vt 1.000000 1.000000
vt 0.000000 1.000000
s 0
f 168/143/147 169/144/147 171/145/147 170/146/147
