# Blender 4.1.1
# www.blender.org
mtllib bb0055.mtl
o グリッド
v 2.059399 801.021667 -10.319732
v 0.897527 800.912231 -9.727728
v -0.264345 800.688110 -9.135725
v -1.426218 800.460083 -8.543721
v -2.588090 800.302063 -7.951717
v -3.749962 800.246826 -7.359714
v -4.911835 800.302063 -6.767710
v -6.073707 800.460083 -6.175707
v -7.235579 800.688110 -5.583704
v -8.397451 800.912231 -4.991700
v -9.559323 801.021667 -4.399696
v 2.809392 800.912231 -8.847789
v 1.647519 800.602966 -8.255785
v 0.485647 800.246826 -7.663782
v -0.676225 800.041199 -7.071778
v -1.838097 800.233154 -6.479774
v -2.999970 800.301880 -5.887771
v -4.161842 800.233154 -5.295767
v -5.323714 800.041199 -4.703764
v -6.485587 800.246826 -4.111761
v -7.647459 800.602966 -3.519757
v -8.809331 800.912231 -2.927753
v 3.559384 800.688110 -7.375846
v 2.397512 800.246826 -6.783843
v 1.235640 800.166687 -6.191839
v 0.073767 800.518005 -5.599836
v -1.088105 800.736450 -5.007832
v -2.249977 800.805237 -4.415829
v -3.411850 800.736450 -3.823825
v -4.573722 800.518005 -3.231822
v -5.735594 800.166687 -2.639818
v -6.897467 800.246826 -2.047814
v -8.059339 800.688110 -1.455811
v 4.309377 800.460083 -5.903903
v 3.147504 800.041199 -5.311899
v 1.985632 800.518005 -4.719896
v 0.823760 800.869385 -4.127892
v -0.338112 801.007751 -3.535889
v -1.499985 801.022034 -2.943885
v -2.661857 801.007751 -2.351882
v -3.823729 800.869385 -1.759878
v -4.985601 800.518005 -1.167875
v -6.147474 800.041199 -0.575871
v -7.309346 800.460083 0.016132
v 5.059369 800.302063 -4.431960
v 3.897497 800.233154 -3.839957
v 2.735625 800.736450 -3.247953
v 1.573752 801.007751 -2.655950
v 0.411880 800.952087 -2.063946
v -0.749992 800.820007 -1.471943
v -1.911865 800.952087 -0.879939
v -3.073737 801.007751 -0.287936
v -4.235609 800.736450 0.304068
v -5.397482 800.233154 0.896072
v -6.559354 800.302063 1.488075
v 5.809361 800.246826 -2.960018
v 4.647489 800.301880 -2.368014
v 3.485617 800.805237 -1.776011
v 2.323745 801.022034 -1.184007
v 1.161872 800.820007 -0.592004
v 0.000000 800.322754 0.000000
v -1.161873 800.820007 0.592004
v -2.323745 801.022034 1.184007
v -3.485617 800.805237 1.776011
v -4.647490 800.301880 2.368014
v -5.809361 800.246826 2.960018
v 6.559354 800.302063 -1.488075
v 5.397482 800.233154 -0.896071
v 4.235610 800.736450 -0.304067
v 3.073737 801.007751 0.287936
v 1.911865 800.952087 0.879940
v 0.749993 800.820007 1.471943
v -0.411880 800.952087 2.063947
v -1.573752 801.007751 2.655950
v -2.735624 800.736450 3.247954
v -3.897497 800.233154 3.839957
v -5.059369 800.302063 4.431961
v 7.309346 800.460083 -0.016132
v 6.147474 800.041199 0.575871
v 4.985601 800.518005 1.167875
v 3.823729 800.869385 1.759878
v 2.661857 801.007751 2.351882
v 1.499985 801.022034 2.943885
v 0.338112 801.007751 3.535889
v -0.823760 800.869385 4.127892
v -1.985632 800.518005 4.719896
v -3.147505 800.041199 5.311900
v -4.309377 800.460083 5.903903
v 8.059339 800.688110 1.455811
v 6.897467 800.246826 2.047815
v 5.735594 800.166687 2.639818
v 4.573722 800.518005 3.231822
v 3.411849 800.736450 3.823825
v 2.249977 800.805237 4.415829
v 1.088105 800.736450 5.007833
v -0.073767 800.518005 5.599836
v -1.235640 800.166687 6.191839
v -2.397512 800.246826 6.783843
v -3.559384 800.688110 7.375846
v 8.809332 800.912231 2.927754
v 7.647459 800.602966 3.519758
v 6.485587 800.246826 4.111761
v 5.323714 800.041199 4.703764
v 4.161842 800.233154 5.295768
v 2.999970 800.301880 5.887772
v 1.838097 800.233154 6.479775
v 0.676225 800.041199 7.071779
v -0.485647 800.246826 7.663782
v -1.647520 800.602966 8.255786
v -2.809391 800.912231 8.847790
v 9.559323 801.021667 4.399696
v 8.397451 800.912231 4.991700
v 7.235579 800.688110 5.583704
v 6.073707 800.460083 6.175707
v 4.911834 800.302063 6.767711
v 3.749962 800.246826 7.359714
v 2.588089 800.302063 7.951718
v 1.426218 800.460083 8.543721
v 0.264345 800.688110 9.135725
v -0.897527 800.912231 9.727728
v -2.059399 801.021667 10.319732
vn -0.0838 0.9797 0.1820
vn -0.0906 0.9530 0.2892
vn -0.0286 0.9554 0.2938
vn 0.0778 0.9892 0.1243
vn 0.0065 1.0000 0.0014
vn -0.0027 1.0000 0.0061
vn 0.0548 0.9892 0.1360
vn 0.2545 0.9554 0.1495
vn 0.2872 0.9530 0.0966
vn 0.1965 0.9797 0.0392
vn -0.1674 0.9476 0.2721
vn -0.0871 0.9780 0.1894
vn -0.0047 0.9913 -0.1312
vn 0.0053 0.9480 -0.3183
vn -0.0873 0.9554 -0.2822
vn -0.1770 0.9554 -0.2365
vn -0.2606 0.9480 -0.1828
vn -0.1034 0.9913 -0.0809
vn 0.2044 0.9780 0.0408
vn 0.3185 0.9476 0.0245
vn -0.2208 0.9424 0.2513
vn 0.1141 0.9877 -0.1070
vn 0.1357 0.9458 -0.2949
vn 0.0354 0.9739 -0.2241
vn -0.0383 0.9888 -0.1445
vn -0.0944 0.9888 -0.1159
vn -0.2021 0.9739 -0.1030
vn -0.3184 0.9458 -0.0635
vn -0.1536 0.9877 0.0294
vn 0.3331 0.9424 -0.0309
vn -0.1684 0.9829 0.0745
vn 0.2589 0.9298 -0.2615
vn 0.1584 0.9673 -0.1980
vn 0.0169 0.9992 -0.0367
vn -0.0048 0.9960 0.0896
vn 0.0754 0.9960 0.0488
vn -0.0396 0.9992 -0.0079
vn -0.2532 0.9673 0.0118
vn -0.3638 0.9298 0.0557
vn 0.1592 0.9829 -0.0925
vn -0.0066 1.0000 -0.0012
vn 0.3030 0.9322 -0.1979
vn 0.1527 0.9826 -0.1055
vn -0.0715 0.9945 0.0762
vn -0.1229 0.9558 0.2669
vn 0.2882 0.9558 0.0575
vn 0.1037 0.9945 -0.0130
vn -0.1751 0.9826 0.0615
vn -0.3382 0.9322 0.1288
vn 0.0029 1.0000 -0.0060
vn -0.0029 1.0000 0.0060
vn 0.3382 0.9322 -0.1288
vn 0.1751 0.9826 -0.0615
vn -0.1037 0.9945 0.0130
vn -0.2882 0.9558 -0.0575
vn 0.1229 0.9558 -0.2669
vn 0.0715 0.9945 -0.0762
vn -0.1527 0.9826 0.1055
vn -0.3030 0.9322 0.1979
vn 0.0066 1.0000 0.0012
vn -0.1592 0.9829 0.0925
vn 0.3638 0.9298 -0.0557
vn 0.2532 0.9673 -0.0118
vn 0.0396 0.9992 0.0079
vn -0.0754 0.9960 -0.0488
vn 0.0048 0.9960 -0.0896
vn -0.0169 0.9992 0.0367
vn -0.1584 0.9673 0.1980
vn -0.2589 0.9298 0.2615
vn 0.1684 0.9829 -0.0745
vn -0.3331 0.9424 0.0309
vn 0.1536 0.9877 -0.0294
vn 0.3184 0.9458 0.0635
vn 0.2021 0.9739 0.1030
vn 0.0944 0.9888 0.1159
vn 0.0383 0.9888 0.1445
vn -0.0354 0.9739 0.2241
vn -0.1357 0.9458 0.2949
vn -0.1141 0.9877 0.1070
vn 0.2208 0.9424 -0.2513
vn -0.3185 0.9476 -0.0245
vn -0.2044 0.9780 -0.0408
vn 0.1034 0.9913 0.0809
vn 0.2606 0.9480 0.1828
vn 0.1770 0.9554 0.2365
vn 0.0873 0.9554 0.2822
vn -0.0053 0.9480 0.3183
vn 0.0047 0.9913 0.1312
vn 0.0871 0.9780 -0.1894
vn 0.1674 0.9476 -0.2721
vn -0.1965 0.9797 -0.0392
vn -0.2872 0.9530 -0.0966
vn -0.2545 0.9554 -0.1495
vn -0.0548 0.9892 -0.1360
vn 0.0027 1.0000 -0.0061
vn -0.0065 1.0000 -0.0014
vn -0.0778 0.9892 -0.1243
vn 0.0286 0.9554 -0.2938
vn 0.0906 0.9530 -0.2892
vn 0.0838 0.9797 -0.1820
vt 0.000000 0.000000
vt 0.100000 0.000000
vt 0.100000 0.100000
vt 0.000000 0.100000
vt 0.200000 0.000000
vt 0.200000 0.100000
vt 0.300000 0.000000
vt 0.300000 0.100000
vt 0.200000 0.100000
vt 0.400000 0.000000
vt 0.400000 0.100000
vt 0.500000 0.000000
vt 0.500000 0.100000
vt 0.600000 0.000000
vt 0.600000 0.100000
vt 0.700000 0.000000
vt 0.700000 0.100000
vt 0.800000 0.000000
vt 0.800000 0.100000
vt 0.900000 0.000000
vt 0.900000 0.100000
vt 1.000000 0.000000
vt 1.000000 0.100000
vt 0.100000 0.200000
vt 0.000000 0.200000
vt 0.200000 0.200000
vt 0.300000 0.200000
vt 0.200000 0.200000
vt 0.400000 0.200000
vt 0.500000 0.200000
vt 0.600000 0.200000
vt 0.700000 0.200000
vt 0.800000 0.200000
vt 0.900000 0.200000
vt 1.000000 0.200000
vt 0.000000 0.200000
vt 0.100000 0.200000
vt 0.100000 0.300000
vt 0.000000 0.300000
vt 0.200000 0.200000
vt 0.200000 0.300000
vt 0.300000 0.200000
vt 0.300000 0.300000
vt 0.200000 0.300000
vt 0.400000 0.200000
vt 0.400000 0.300000
vt 0.500000 0.200000
vt 0.500000 0.300000
vt 0.600000 0.200000
vt 0.600000 0.300000
vt 0.700000 0.200000
vt 0.700000 0.300000
vt 0.800000 0.200000
vt 0.800000 0.300000
vt 0.900000 0.200000
vt 0.900000 0.300000
vt 1.000000 0.200000
vt 1.000000 0.300000
vt 0.100000 0.400000
vt 0.000000 0.400000
vt 0.200000 0.400000
vt 0.300000 0.400000
vt 0.200000 0.400000
vt 0.400000 0.400000
vt 0.500000 0.400000
vt 0.600000 0.400000
vt 0.700000 0.400000
vt 0.800000 0.400000
vt 0.900000 0.400000
vt 1.000000 0.400000
vt 0.100000 0.500000
vt 0.000000 0.500000
vt 0.200000 0.500000
vt 0.300000 0.500000
vt 0.200000 0.500000
vt 0.400000 0.500000
vt 0.500000 0.500000
vt 0.600000 0.500000
vt 0.700000 0.500000
vt 0.800000 0.500000
vt 0.900000 0.500000
vt 1.000000 0.500000
vt 0.100000 0.600000
vt 0.000000 0.600000
vt 0.200000 0.600000
vt 0.300000 0.600000
vt 0.200000 0.600000
vt 0.400000 0.600000
vt 0.500000 0.600000
vt 0.600000 0.600000
vt 0.700000 0.600000
vt 0.800000 0.600000
vt 0.900000 0.600000
vt 1.000000 0.600000
vt 0.100000 0.700000
vt 0.000000 0.700000
vt 0.200000 0.700000
vt 0.300000 0.700000
vt 0.200000 0.700000
vt 0.400000 0.700000
vt 0.500000 0.700000
vt 0.600000 0.700000
vt 0.700000 0.700000
vt 0.800000 0.700000
vt 0.900000 0.700000
vt 1.000000 0.700000
vt 0.100000 0.800000
vt 0.000000 0.800000
vt 0.200000 0.800000
vt 0.300000 0.800000
vt 0.200000 0.800000
vt 0.400000 0.800000
vt 0.500000 0.800000
vt 0.600000 0.800000
vt 0.700000 0.800000
vt 0.800000 0.800000
vt 0.900000 0.800000
vt 1.000000 0.800000
vt 0.100000 0.900000
vt 0.000000 0.900000
vt 0.200000 0.900000
vt 0.300000 0.900000
vt 0.200000 0.900000
vt 0.400000 0.900000
vt 0.500000 0.900000
vt 0.600000 0.900000
vt 0.700000 0.900000
vt 0.800000 0.900000
vt 0.900000 0.900000
vt 1.000000 0.900000
vt 0.100000 1.000000
vt 0.000000 1.000000
vt 0.200000 1.000000
vt 0.300000 1.000000
vt 0.200000 1.000000
vt 0.400000 1.000000
vt 0.500000 1.000000
vt 0.600000 1.000000
vt 0.700000 1.000000
vt 0.800000 1.000000
vt 0.900000 1.000000
vt 1.000000 1.000000
s 0
f 1/1/1 2/2/1 13/3/1 12/4/1
f 2/2/2 3/5/2 14/6/2 13/3/2
f 3/5/3 4/7/3 15/8/3 14/9/3
f 4/7/4 5/10/4 16/11/4 15/8/4
f 5/10/5 6/12/5 17/13/5 16/11/5
f 6/12/6 7/14/6 18/15/6 17/13/6
f 7/14/7 8/16/7 19/17/7 18/15/7
f 8/16/8 9/18/8 20/19/8 19/17/8
f 9/18/9 10/20/9 21/21/9 20/19/9
f 10/20/10 11/22/10 22/23/10 21/21/10
f 12/4/11 13/3/11 24/24/11 23/25/11
f 13/3/12 14/6/12 25/26/12 24/24/12
f 14/6/13 15/8/13 26/27/13 25/28/13
f 15/8/14 16/11/14 27/29/14 26/27/14
f 16/11/15 17/13/15 28/30/15 27/29/15
f 17/13/16 18/15/16 29/31/16 28/30/16
f 18/15/17 19/17/17 30/32/17 29/31/17
f 19/17/18 20/19/18 31/33/18 30/32/18
f 20/19/19 21/21/19 32/34/19 31/33/19
f 21/21/20 22/23/20 33/35/20 32/34/20
f 23/36/21 24/37/21 35/38/21 34/39/21
f 24/37/22 25/40/22 36/41/22 35/38/22
f 25/40/23 26/42/23 37/43/23 36/44/23
f 26/42/24 27/45/24 38/46/24 37/43/24
f 27/45/25 28/47/25 39/48/25 38/46/25
f 28/47/26 29/49/26 40/50/26 39/48/26
f 29/49/27 30/51/27 41/52/27 40/50/27
f 30/51/28 31/53/28 42/54/28 41/52/28
f 31/53/29 32/55/29 43/56/29 42/54/29
f 32/55/30 33/57/30 44/58/30 43/56/30
f 34/39/31 35/38/31 46/59/31 45/60/31
f 35/38/32 36/41/32 47/61/32 46/59/32
f 36/41/33 37/43/33 48/62/33 47/63/33
f 37/43/34 38/46/34 49/64/34 48/62/34
f 38/46/35 39/48/35 50/65/35 49/64/35
f 39/48/36 40/50/36 51/66/36 50/65/36
f 40/50/37 41/52/37 52/67/37 51/66/37
f 41/52/38 42/54/38 53/68/38 52/67/38
f 42/54/39 43/56/39 54/69/39 53/68/39
f 43/56/40 44/58/40 55/70/40 54/69/40
f 45/60/41 46/59/41 57/71/41 56/72/41
f 46/59/42 47/61/42 58/73/42 57/71/42
f 47/61/43 48/62/43 59/74/43 58/75/43
f 48/62/44 49/64/44 60/76/44 59/74/44
f 49/64/45 50/65/45 61/77/45 60/76/45
f 50/65/46 51/66/46 62/78/46 61/77/46
f 51/66/47 52/67/47 63/79/47 62/78/47
f 52/67/48 53/68/48 64/80/48 63/79/48
f 53/68/49 54/69/49 65/81/49 64/80/49
f 54/69/50 55/70/50 66/82/50 65/81/50
f 56/72/51 57/71/51 68/83/51 67/84/51
f 57/71/52 58/73/52 69/85/52 68/83/52
f 58/73/53 59/74/53 70/86/53 69/87/53
f 59/74/54 60/76/54 71/88/54 70/86/54
f 60/76/55 61/77/55 72/89/55 71/88/55
f 61/77/56 62/78/56 73/90/56 72/89/56
f 62/78/57 63/79/57 74/91/57 73/90/57
f 63/79/58 64/80/58 75/92/58 74/91/58
f 64/80/59 65/81/59 76/93/59 75/92/59
f 65/81/60 66/82/60 77/94/60 76/93/60
f 67/84/61 68/83/61 79/95/61 78/96/61
f 68/83/62 69/85/62 80/97/62 79/95/62
f 69/85/63 70/86/63 81/98/63 80/99/63
f 70/86/64 71/88/64 82/100/64 81/98/64
f 71/88/65 72/89/65 83/101/65 82/100/65
f 72/89/66 73/90/66 84/102/66 83/101/66
f 73/90/67 74/91/67 85/103/67 84/102/67
f 74/91/68 75/92/68 86/104/68 85/103/68
f 75/92/69 76/93/69 87/105/69 86/104/69
f 76/93/70 77/94/70 88/106/70 87/105/70
f 78/96/71 79/95/71 90/107/71 89/108/71
f 79/95/72 80/97/72 91/109/72 90/107/72
f 80/97/73 81/98/73 92/110/73 91/111/73
f 81/98/74 82/100/74 93/112/74 92/110/74
f 82/100/75 83/101/75 94/113/75 93/112/75
f 83/101/76 84/102/76 95/114/76 94/113/76
f 84/102/77 85/103/77 96/115/77 95/114/77
f 85/103/78 86/104/78 97/116/78 96/115/78
f 86/104/79 87/105/79 98/117/79 97/116/79
f 87/105/80 88/106/80 99/118/80 98/117/80
f 89/108/81 90/107/81 101/119/81 100/120/81
f 90/107/82 91/109/82 102/121/82 101/119/82
f 91/109/83 92/110/83 103/122/83 102/123/83
f 92/110/84 93/112/84 104/124/84 103/122/84
f 93/112/85 94/113/85 105/125/85 104/124/85
f 94/113/86 95/114/86 106/126/86 105/125/86
f 95/114/87 96/115/87 107/127/87 106/126/87
f 96/115/88 97/116/88 108/128/88 107/127/88
f 97/116/89 98/117/89 109/129/89 108/128/89
f 98/117/90 99/118/90 110/130/90 109/129/90
f 100/120/91 101/119/91 112/131/91 111/132/91
f 101/119/92 102/121/92 113/133/92 112/131/92
f 102/121/93 103/122/93 114/134/93 113/135/93
f 103/122/94 104/124/94 115/136/94 114/134/94
f 104/124/95 105/125/95 116/137/95 115/136/95
f 105/125/96 106/126/96 117/138/96 116/137/96
f 106/126/97 107/127/97 118/139/97 117/138/97
f 107/127/98 108/128/98 119/140/98 118/139/98
f 108/128/99 109/129/99 120/141/99 119/140/99
f 109/129/100 110/130/100 121/142/100 120/141/100
o Liquid_Domain
v -0.957227 745.067078 5.067060
v -0.067961 752.436035 -17.370649
v -13.789184 778.230530 35.476448
v 16.030081 787.642395 41.477047
v 44.319233 786.455322 11.056372
v 21.423334 780.243896 -33.675793
v -33.684113 769.770142 0.791307
v -9.730947 807.424866 -52.311081
v -38.985836 803.772034 31.410933
v -0.971094 814.151855 57.209831
v -60.761089 824.823242 -9.907018
v 60.619389 829.468384 10.181197
v 61.033054 828.215698 -8.159614
v -37.464352 797.226440 -28.357941
v 5.942528 828.907898 -61.382801
v 35.231178 836.422791 44.024105
v -60.149277 835.247986 11.932102
v -33.073883 833.947021 -44.881821
v -35.128761 839.400452 44.118191
v 9.964137 833.788696 60.902649
v 42.559750 826.312927 -36.104324
v 17.949322 839.171997 -55.879040
v -7.132267 840.741089 -61.470009
v -9.671222 833.258911 61.121780
v -34.397793 1351.477539 45.846523
v -44.389313 1232.564209 35.926346
v -35.399136 1338.773926 -44.652184
v 43.424156 1236.822754 -36.458889
v 44.388618 1334.819336 36.394573
v 65.228119 1243.132812 5.274705
v 16.403732 1220.096924 59.723618
v -61.714401 1331.925781 14.030417
v 61.613899 1338.908203 13.277529
v -14.208815 1186.422607 -59.657162
v 14.586871 1239.316284 -59.832287
v -4.960934 1238.382568 -65.485207
v 63.744694 1240.167603 -7.983534
v -15.772294 1330.354492 60.766144
v 33.334084 1337.027832 -46.310036
v -60.823376 1241.382080 -13.580029
v 0.595333 1220.248779 63.385685
v 5.536244 1237.148682 -65.708031
v -8.084044 1341.590698 -63.579483
v 0.127815 1351.484375 63.101696
v 17.129456 1340.451538 59.756832
v -62.939293 1347.195068 -7.078751
v 63.043533 1342.684326 -9.002362
v 6.249138 1339.769287 -64.669228
v -21.613363 1391.551270 39.676510
v 31.212286 1397.249268 29.616886
v -44.235439 1400.515137 0.868518
v 46.887444 1390.563843 -0.613973
v -27.395845 1386.324097 -37.400524
v 26.854118 1396.651855 -33.725838
v 0.166026 1395.963989 43.958477
v 5.227254 1400.960327 -40.987331
v -6.630206 1432.067871 12.606245
v 8.481804 1434.624268 0.250185
v -8.051616 1429.537598 -15.597293
vn 0.0289 -0.9762 0.2148
vn 0.0152 -0.8215 -0.5700
vn -0.2773 -0.5672 0.7755
vn 0.3304 -0.4853 0.8096
vn 0.7877 -0.5482 0.2809
vn 0.3995 -0.5204 -0.7547
vn -0.7661 -0.6419 0.0311
vn -0.2123 -0.3888 -0.8965
vn -0.6920 -0.3437 0.6349
vn -0.0371 -0.3510 0.9356
vn -0.9354 -0.2239 -0.2738
vn 0.9175 -0.1686 0.3603
vn 0.9253 -0.2248 -0.3053
vn -0.6358 -0.4194 -0.6479
vn 0.1249 -0.1862 -0.9745
vn 0.6598 -0.1346 0.7393
vn -0.9212 -0.1829 0.3435
vn -0.6255 -0.1256 -0.7700
vn -0.6505 -0.0960 0.7534
vn 0.2278 -0.1151 0.9669
vn 0.6990 -0.1788 -0.6924
vn 0.5252 -0.0764 -0.8476
vn -0.2272 -0.0744 -0.9710
vn -0.2147 -0.1194 0.9693
vn -0.6103 0.1819 0.7710
vn -0.7455 -0.0016 0.6665
vn -0.6656 0.1065 -0.7386
vn 0.7439 0.0030 -0.6683
vn 0.7202 0.1027 0.6862
vn 0.9821 -0.0000 0.1886
vn 0.3959 0.0002 0.9183
vn -0.9056 0.1251 0.4053
vn 0.9074 0.1542 0.3909
vn -0.5479 -0.0034 -0.8365
vn 0.5667 -0.0015 -0.8239
vn -0.2294 0.0017 -0.9733
vn 0.9243 0.0024 -0.3816
vn -0.3514 0.0599 0.9343
vn 0.6527 0.1114 -0.7493
vn -0.9190 -0.0014 -0.3942
vn 0.0255 -0.0001 0.9997
vn 0.2029 -0.0015 -0.9792
vn -0.2405 0.1654 -0.9564
vn -0.0109 0.2004 0.9797
vn 0.3930 0.1151 0.9123
vn -0.9482 0.1806 -0.2612
vn 0.9276 0.1677 -0.3339
vn 0.1720 0.1405 -0.9750
vn -0.4782 0.4456 0.7568
vn 0.5699 0.4851 0.6633
vn -0.8380 0.5439 0.0443
vn 0.8654 0.4999 -0.0337
vn -0.5247 0.3959 -0.7536
vn 0.5625 0.4670 -0.6822
vn 0.0525 0.4736 0.8792
vn 0.0470 0.4886 -0.8712
vn -0.1625 0.8238 0.5432
vn 0.3389 0.9404 -0.0284
vn -0.1817 0.7935 -0.5808
s 1
usemtl Liquid_Domain_Material
f 122//101 124//103 128//107
f 125//104 124//103 122//101
f 125//104 122//101 126//105
f 122//101 123//102 126//105
f 123//102 122//101 128//107
f 123//102 127//106 126//105
f 123//102 128//107 135//114
f 123//102 135//114 129//108
f 125//104 131//110 124//103
f 124//103 130//109 128//107
f 128//107 130//109 132//111
f 133//112 126//105 134//113
f 135//114 128//107 132//111
f 126//105 127//106 134//113
f 123//102 129//108 127//106
f 130//109 124//103 145//124
f 145//124 124//103 131//110
f 129//108 136//115 127//106
f 142//121 127//106 136//115
f 131//110 125//104 141//120
f 126//105 137//116 125//104
f 132//111 130//109 138//117
f 134//113 127//106 142//121
f 129//108 135//114 139//118
f 140//119 130//109 145//124
f 125//104 137//116 141//120
f 133//112 137//116 126//105
f 135//114 132//111 139//118
f 136//115 143//122 142//121
f 129//108 139//118 144//123
f 141//120 145//124 131//110
f 130//109 140//119 138//117
f 144//123 136//115 129//108
f 140//119 145//124 146//125
f 132//111 148//127 139//118
f 142//121 143//122 149//128
f 137//116 133//112 150//129
f 132//111 161//140 148//127
f 141//120 162//141 145//124
f 137//116 150//129 152//131
f 140//119 147//126 138//117
f 138//117 153//132 132//111
f 133//112 134//113 151//130
f 152//131 141//120 137//116
f 158//137 134//113 142//121
f 138//117 147//126 153//132
f 154//133 150//129 133//112
f 154//133 133//112 151//130
f 144//123 139//118 155//134
f 143//122 136//115 156//135
f 156//135 160//139 143//122
f 144//123 155//134 157//136
f 144//123 157//136 136//115
f 139//118 148//127 155//134
f 143//122 160//139 149//128
f 146//125 145//124 159//138
f 153//132 161//140 132//111
f 151//130 134//113 158//137
f 145//124 162//141 159//138
f 152//131 162//141 141//120
f 147//126 140//119 146//125
f 149//128 158//137 142//121
f 136//115 157//136 163//142
f 163//142 156//135 136//115
f 155//134 148//127 157//136
f 152//131 150//129 166//145
f 157//136 148//127 164//143
f 162//141 165//144 159//138
f 165//144 162//141 152//131
f 166//145 165//144 152//131
f 153//132 147//126 146//125
f 153//132 167//146 161//140
f 158//137 149//128 160//139
f 156//135 169//148 160//139
f 151//130 158//137 168//147
f 151//130 168//147 154//133
f 161//140 167//146 148//127
f 158//137 160//139 168//147
f 163//142 157//136 169//148
f 157//136 164//143 169//148
f 169//148 156//135 163//142
f 146//125 159//138 170//149
f 165//144 170//149 159//138
f 150//129 171//150 166//145
f 172//151 153//132 146//125
f 171//150 150//129 154//133
f 167//146 153//132 172//151
f 173//152 171//150 154//133
f 168//147 173//152 154//133
f 174//153 148//127 167//146
f 175//154 168//147 160//139
f 175//154 160//139 169//148
f 148//127 174//153 164//143
f 169//148 164//143 177//156
f 177//156 175//154 169//148
f 165//144 176//155 170//149
f 165//144 166//145 176//155
f 166//145 171//150 176//155
f 168//147 175//154 173//152
f 172//151 174//153 167//146
f 164//143 174//153 177//156
f 172//151 146//125 170//149
f 172//151 180//159 174//153
f 174//153 180//159 177//156
f 170//149 176//155 178//157
f 178//157 176//155 171//150
f 170//149 178//157 172//151
f 171//150 173//152 179//158
f 178//157 180//159 172//151
f 179//158 173//152 175//154
f 180//159 175//154 177//156
f 178//157 171//150 179//158
f 179//158 175//154 180//159
f 178//157 179//158 180//159
o 平面
v -2.000000 -34.730400 2.000000
v 2.000000 -34.730400 2.000000
v -2.000000 -34.730400 -2.000000
v 2.000000 -34.730400 -2.000000
vn -0.0000 1.0000 -0.0000
vt 0.000000 0.000000
vt 1.000000 0.000000
vt 1.000000 1.000000
vt 0.000000 1.000000
s 0
f 181/143/160 182/144/160 184/145/160 183/146/160
