# Blender 4.1.1
# www.blender.org
mtllib bb0018.mtl
o グリッド
v 2.059399 801.022034 -10.319732
v 0.897527 800.919739 -9.727728
v -0.264345 800.700073 -9.135725
v -1.426218 800.473877 -8.543721
v -2.588090 800.316284 -7.951717
v -3.749962 800.261047 -7.359714
v -4.911835 800.316284 -6.767710
v -6.073707 800.473877 -6.175707
v -7.235579 800.700073 -5.583704
v -8.397451 800.919739 -4.991700
v -9.559323 801.022034 -4.399696
v 2.809392 800.919739 -8.847789
v 1.647519 800.615784 -8.255785
v 0.485647 800.261047 -7.663782
v -0.676225 800.027527 -7.071778
v -1.838097 800.218933 -6.479774
v -2.999970 800.287659 -5.887771
v -4.161842 800.218933 -5.295767
v -5.323714 800.027527 -4.703764
v -6.485587 800.261047 -4.111761
v -7.647459 800.615784 -3.519757
v -8.809331 800.919739 -2.927753
v 3.559384 800.700073 -7.375846
v 2.397512 800.261047 -6.783843
v 1.235640 800.152527 -6.191839
v 0.073767 800.504395 -5.599836
v -1.088105 800.724976 -5.007832
v -2.249977 800.794922 -4.415829
v -3.411850 800.724976 -3.823825
v -4.573722 800.504395 -3.231822
v -5.735594 800.152527 -2.639818
v -6.897467 800.261047 -2.047814
v -8.059339 800.700073 -1.455811
v 4.309377 800.473877 -5.903903
v 3.147504 800.027527 -5.311899
v 1.985632 800.504395 -4.719896
v 0.823760 800.860413 -4.127892
v -0.338112 801.004761 -3.535889
v -1.499985 801.021667 -2.943885
v -2.661857 801.004761 -2.351882
v -3.823729 800.860413 -1.759878
v -4.985601 800.504395 -1.167875
v -6.147474 800.027527 -0.575871
v -7.309346 800.473877 0.016132
v 5.059369 800.316284 -4.431960
v 3.897497 800.218933 -3.839957
v 2.735625 800.724976 -3.247953
v 1.573752 801.004761 -2.655950
v 0.411880 800.958130 -2.063946
v -0.749992 800.829834 -1.471943
v -1.911865 800.958130 -0.879939
v -3.073737 801.004761 -0.287936
v -4.235609 800.724976 0.304068
v -5.397482 800.218933 0.896072
v -6.559354 800.316284 1.488075
v 5.809361 800.261047 -2.960018
v 4.647489 800.287659 -2.368014
v 3.485617 800.794922 -1.776011
v 2.323745 801.021667 -1.184007
v 1.161872 800.829834 -0.592004
v 0.000000 800.336914 0.000000
v -1.161873 800.829834 0.592004
v -2.323745 801.021667 1.184007
v -3.485617 800.794922 1.776011
v -4.647490 800.287659 2.368014
v -5.809361 800.261047 2.960018
v 6.559354 800.316284 -1.488075
v 5.397482 800.218933 -0.896071
v 4.235610 800.724976 -0.304067
v 3.073737 801.004761 0.287936
v 1.911865 800.958130 0.879940
v 0.749993 800.829834 1.471943
v -0.411880 800.958130 2.063947
v -1.573752 801.004761 2.655950
v -2.735624 800.724976 3.247954
v -3.897497 800.218933 3.839957
v -5.059369 800.316284 4.431961
v 7.309346 800.473877 -0.016132
v 6.147474 800.027527 0.575871
v 4.985601 800.504395 1.167875
v 3.823729 800.860413 1.759878
v 2.661857 801.004761 2.351882
v 1.499985 801.021667 2.943885
v 0.338112 801.004761 3.535889
v -0.823760 800.860413 4.127892
v -1.985632 800.504395 4.719896
v -3.147505 800.027527 5.311900
v -4.309377 800.473877 5.903903
v 8.059339 800.700073 1.455811
v 6.897467 800.261047 2.047815
v 5.735594 800.152527 2.639818
v 4.573722 800.504395 3.231822
v 3.411849 800.724976 3.823825
v 2.249977 800.794922 4.415829
v 1.088105 800.724976 5.007833
v -0.073767 800.504395 5.599836
v -1.235640 800.152527 6.191839
v -2.397512 800.261047 6.783843
v -3.559384 800.700073 7.375846
v 8.809332 800.919739 2.927754
v 7.647459 800.615784 3.519758
v 6.485587 800.261047 4.111761
v 5.323714 800.027527 4.703764
v 4.161842 800.218933 5.295768
v 2.999970 800.287659 5.887772
v 1.838097 800.218933 6.479775
v 0.676225 800.027527 7.071779
v -0.485647 800.261047 7.663782
v -1.647520 800.615784 8.255786
v -2.809391 800.919739 8.847790
v 9.559323 801.022034 4.399696
v 8.397451 800.919739 4.991700
v 7.235579 800.700073 5.583704
v 6.073707 800.473877 6.175707
v 4.911834 800.316284 6.767711
v 3.749962 800.261047 7.359714
v 2.588089 800.316284 7.951718
v 1.426218 800.473877 8.543721
v 0.264345 800.700073 9.135725
v -0.897527 800.919739 9.727728
v -2.059399 801.022034 10.319732
vn -0.0814 0.9809 0.1768
vn -0.0898 0.9539 0.2865
vn -0.0337 0.9522 0.3036
vn 0.0851 0.9866 0.1389
vn 0.0143 0.9998 0.0167
vn 0.0051 0.9998 0.0214
vn 0.0623 0.9866 0.1505
vn 0.2654 0.9522 0.1512
vn 0.2846 0.9539 0.0957
vn 0.1909 0.9809 0.0381
vn -0.1659 0.9486 0.2696
vn -0.0923 0.9753 0.2005
vn -0.0101 0.9928 -0.1191
vn 0.0054 0.9477 -0.3192
vn -0.0877 0.9548 -0.2840
vn -0.1782 0.9548 -0.2379
vn -0.2614 0.9477 -0.1832
vn -0.0904 0.9928 -0.0782
vn 0.2164 0.9753 0.0432
vn 0.3156 0.9486 0.0243
vn -0.2247 0.9388 0.2611
vn 0.1085 0.9895 -0.0950
vn 0.1366 0.9451 -0.2969
vn 0.0363 0.9728 -0.2286
vn -0.0395 0.9879 -0.1499
vn -0.0981 0.9879 -0.1200
vn -0.2063 0.9728 -0.1050
vn -0.3205 0.9451 -0.0640
vn -0.1406 0.9895 0.0319
vn 0.3433 0.9388 -0.0283
vn -0.1864 0.9789 0.0837
vn 0.2595 0.9294 -0.2623
vn 0.1614 0.9660 -0.2020
vn 0.0199 0.9989 -0.0433
vn -0.0053 0.9965 0.0834
vn 0.0706 0.9965 0.0448
vn -0.0468 0.9989 -0.0093
vn -0.2583 0.9660 0.0118
vn -0.3647 0.9294 0.0558
vn 0.1773 0.9789 -0.1016
vn -0.0260 0.9996 0.0087
vn 0.3047 0.9314 -0.1991
vn 0.1581 0.9813 -0.1095
vn -0.0659 0.9953 0.0712
vn -0.1214 0.9569 0.2638
vn 0.2848 0.9569 0.0568
vn 0.0963 0.9953 -0.0114
vn -0.1815 0.9813 0.0636
vn -0.3402 0.9314 0.1295
vn 0.0223 0.9996 -0.0159
vn -0.0223 0.9996 0.0159
vn 0.3402 0.9314 -0.1295
vn 0.1815 0.9813 -0.0636
vn -0.0963 0.9953 0.0114
vn -0.2848 0.9569 -0.0568
vn 0.1214 0.9569 -0.2638
vn 0.0659 0.9953 -0.0712
vn -0.1581 0.9813 0.1095
vn -0.3047 0.9314 0.1991
vn 0.0260 0.9996 -0.0087
vn -0.1773 0.9789 0.1016
vn 0.3647 0.9294 -0.0558
vn 0.2583 0.9660 -0.0118
vn 0.0468 0.9989 0.0093
vn -0.0706 0.9965 -0.0448
vn 0.0053 0.9965 -0.0834
vn -0.0199 0.9989 0.0433
vn -0.1614 0.9660 0.2020
vn -0.2595 0.9294 0.2623
vn 0.1864 0.9789 -0.0837
vn -0.3433 0.9388 0.0283
vn 0.1406 0.9895 -0.0319
vn 0.3205 0.9451 0.0640
vn 0.2063 0.9728 0.1050
vn 0.0981 0.9879 0.1200
vn 0.0395 0.9879 0.1499
vn -0.0363 0.9728 0.2286
vn -0.1366 0.9451 0.2969
vn -0.1085 0.9895 0.0950
vn 0.2247 0.9388 -0.2611
vn -0.3156 0.9486 -0.0243
vn -0.2164 0.9753 -0.0432
vn 0.0904 0.9928 0.0782
vn 0.2614 0.9477 0.1832
vn 0.1782 0.9548 0.2379
vn 0.0877 0.9548 0.2840
vn -0.0054 0.9477 0.3192
vn 0.0101 0.9928 0.1191
vn 0.0923 0.9753 -0.2005
vn 0.1659 0.9486 -0.2696
vn -0.1909 0.9809 -0.0381
vn -0.2846 0.9539 -0.0957
vn -0.2654 0.9522 -0.1512
vn -0.0623 0.9866 -0.1505
vn -0.0051 0.9998 -0.0214
vn -0.0143 0.9998 -0.0167
vn -0.0851 0.9866 -0.1389
vn 0.0337 0.9522 -0.3036
vn 0.0898 0.9539 -0.2865
vn 0.0814 0.9809 -0.1768
vt 0.000000 0.000000
vt 0.100000 0.000000
vt 0.100000 0.100000
vt 0.000000 0.100000
vt 0.200000 0.000000
vt 0.200000 0.100000
vt 0.300000 0.000000
vt 0.300000 0.100000
vt 0.200000 0.100000
vt 0.400000 0.000000
vt 0.400000 0.100000
vt 0.500000 0.000000
vt 0.500000 0.100000
vt 0.600000 0.000000
vt 0.600000 0.100000
vt 0.700000 0.000000
vt 0.700000 0.100000
vt 0.800000 0.000000
vt 0.800000 0.100000
vt 0.900000 0.000000
vt 0.900000 0.100000
vt 1.000000 0.000000
vt 1.000000 0.100000
vt 0.100000 0.200000
vt 0.000000 0.200000
vt 0.200000 0.200000
vt 0.300000 0.200000
vt 0.200000 0.200000
vt 0.400000 0.200000
vt 0.500000 0.200000
vt 0.600000 0.200000
vt 0.700000 0.200000
vt 0.800000 0.200000
vt 0.900000 0.200000
vt 1.000000 0.200000
vt 0.000000 0.200000
vt 0.100000 0.200000
vt 0.100000 0.300000
vt 0.000000 0.300000
vt 0.200000 0.200000
vt 0.200000 0.300000
vt 0.300000 0.200000
vt 0.300000 0.300000
vt 0.200000 0.300000
vt 0.400000 0.200000
vt 0.400000 0.300000
vt 0.500000 0.200000
vt 0.500000 0.300000
vt 0.600000 0.200000
vt 0.600000 0.300000
vt 0.700000 0.200000
vt 0.700000 0.300000
vt 0.800000 0.200000
vt 0.800000 0.300000
vt 0.900000 0.200000
vt 0.900000 0.300000
vt 1.000000 0.200000
vt 1.000000 0.300000
vt 0.100000 0.400000
vt 0.000000 0.400000
vt 0.200000 0.400000
vt 0.300000 0.400000
vt 0.200000 0.400000
vt 0.400000 0.400000
vt 0.500000 0.400000
vt 0.600000 0.400000
vt 0.700000 0.400000
vt 0.800000 0.400000
vt 0.900000 0.400000
vt 1.000000 0.400000
vt 0.100000 0.500000
vt 0.000000 0.500000
vt 0.200000 0.500000
vt 0.300000 0.500000
vt 0.200000 0.500000
vt 0.400000 0.500000
vt 0.500000 0.500000
vt 0.600000 0.500000
vt 0.700000 0.500000
vt 0.800000 0.500000
vt 0.900000 0.500000
vt 1.000000 0.500000
vt 0.100000 0.600000
vt 0.000000 0.600000
vt 0.200000 0.600000
vt 0.300000 0.600000
vt 0.200000 0.600000
vt 0.400000 0.600000
vt 0.500000 0.600000
vt 0.600000 0.600000
vt 0.700000 0.600000
vt 0.800000 0.600000
vt 0.900000 0.600000
vt 1.000000 0.600000
vt 0.100000 0.700000
vt 0.000000 0.700000
vt 0.200000 0.700000
vt 0.300000 0.700000
vt 0.200000 0.700000
vt 0.400000 0.700000
vt 0.500000 0.700000
vt 0.600000 0.700000
vt 0.700000 0.700000
vt 0.800000 0.700000
vt 0.900000 0.700000
vt 1.000000 0.700000
vt 0.100000 0.800000
vt 0.000000 0.800000
vt 0.200000 0.800000
vt 0.300000 0.800000
vt 0.200000 0.800000
vt 0.400000 0.800000
vt 0.500000 0.800000
vt 0.600000 0.800000
vt 0.700000 0.800000
vt 0.800000 0.800000
vt 0.900000 0.800000
vt 1.000000 0.800000
vt 0.100000 0.900000
vt 0.000000 0.900000
vt 0.200000 0.900000
vt 0.300000 0.900000
vt 0.200000 0.900000
vt 0.400000 0.900000
vt 0.500000 0.900000
vt 0.600000 0.900000
vt 0.700000 0.900000
vt 0.800000 0.900000
vt 0.900000 0.900000
vt 1.000000 0.900000
vt 0.100000 1.000000
vt 0.000000 1.000000
vt 0.200000 1.000000
vt 0.300000 1.000000
vt 0.200000 1.000000
vt 0.400000 1.000000
vt 0.500000 1.000000
vt 0.600000 1.000000
vt 0.700000 1.000000
vt 0.800000 1.000000
vt 0.900000 1.000000
vt 1.000000 1.000000
s 0
f 1/1/1 2/2/1 13/3/1 12/4/1
f 2/2/2 3/5/2 14/6/2 13/3/2
f 3/5/3 4/7/3 15/8/3 14/9/3
f 4/7/4 5/10/4 16/11/4 15/8/4
f 5/10/5 6/12/5 17/13/5 16/11/5
f 6/12/6 7/14/6 18/15/6 17/13/6
f 7/14/7 8/16/7 19/17/7 18/15/7
f 8/16/8 9/18/8 20/19/8 19/17/8
f 9/18/9 10/20/9 21/21/9 20/19/9
f 10/20/10 11/22/10 22/23/10 21/21/10
f 12/4/11 13/3/11 24/24/11 23/25/11
f 13/3/12 14/6/12 25/26/12 24/24/12
f 14/6/13 15/8/13 26/27/13 25/28/13
f 15/8/14 16/11/14 27/29/14 26/27/14
f 16/11/15 17/13/15 28/30/15 27/29/15
f 17/13/16 18/15/16 29/31/16 28/30/16
f 18/15/17 19/17/17 30/32/17 29/31/17
f 19/17/18 20/19/18 31/33/18 30/32/18
f 20/19/19 21/21/19 32/34/19 31/33/19
f 21/21/20 22/23/20 33/35/20 32/34/20
f 23/36/21 24/37/21 35/38/21 34/39/21
f 24/37/22 25/40/22 36/41/22 35/38/22
f 25/40/23 26/42/23 37/43/23 36/44/23
f 26/42/24 27/45/24 38/46/24 37/43/24
f 27/45/25 28/47/25 39/48/25 38/46/25
f 28/47/26 29/49/26 40/50/26 39/48/26
f 29/49/27 30/51/27 41/52/27 40/50/27
f 30/51/28 31/53/28 42/54/28 41/52/28
f 31/53/29 32/55/29 43/56/29 42/54/29
f 32/55/30 33/57/30 44/58/30 43/56/30
f 34/39/31 35/38/31 46/59/31 45/60/31
f 35/38/32 36/41/32 47/61/32 46/59/32
f 36/41/33 37/43/33 48/62/33 47/63/33
f 37/43/34 38/46/34 49/64/34 48/62/34
f 38/46/35 39/48/35 50/65/35 49/64/35
f 39/48/36 40/50/36 51/66/36 50/65/36
f 40/50/37 41/52/37 52/67/37 51/66/37
f 41/52/38 42/54/38 53/68/38 52/67/38
f 42/54/39 43/56/39 54/69/39 53/68/39
f 43/56/40 44/58/40 55/70/40 54/69/40
f 45/60/41 46/59/41 57/71/41 56/72/41
f 46/59/42 47/61/42 58/73/42 57/71/42
f 47/61/43 48/62/43 59/74/43 58/75/43
f 48/62/44 49/64/44 60/76/44 59/74/44
f 49/64/45 50/65/45 61/77/45 60/76/45
f 50/65/46 51/66/46 62/78/46 61/77/46
f 51/66/47 52/67/47 63/79/47 62/78/47
f 52/67/48 53/68/48 64/80/48 63/79/48
f 53/68/49 54/69/49 65/81/49 64/80/49
f 54/69/50 55/70/50 66/82/50 65/81/50
f 56/72/51 57/71/51 68/83/51 67/84/51
f 57/71/52 58/73/52 69/85/52 68/83/52
f 58/73/53 59/74/53 70/86/53 69/87/53
f 59/74/54 60/76/54 71/88/54 70/86/54
f 60/76/55 61/77/55 72/89/55 71/88/55
f 61/77/56 62/78/56 73/90/56 72/89/56
f 62/78/57 63/79/57 74/91/57 73/90/57
f 63/79/58 64/80/58 75/92/58 74/91/58
f 64/80/59 65/81/59 76/93/59 75/92/59
f 65/81/60 66/82/60 77/94/60 76/93/60
f 67/84/61 68/83/61 79/95/61 78/96/61
f 68/83/62 69/85/62 80/97/62 79/95/62
f 69/85/63 70/86/63 81/98/63 80/99/63
f 70/86/64 71/88/64 82/100/64 81/98/64
f 71/88/65 72/89/65 83/101/65 82/100/65
f 72/89/66 73/90/66 84/102/66 83/101/66
f 73/90/67 74/91/67 85/103/67 84/102/67
f 74/91/68 75/92/68 86/104/68 85/103/68
f 75/92/69 76/93/69 87/105/69 86/104/69
f 76/93/70 77/94/70 88/106/70 87/105/70
f 78/96/71 79/95/71 90/107/71 89/108/71
f 79/95/72 80/97/72 91/109/72 90/107/72
f 80/97/73 81/98/73 92/110/73 91/111/73
f 81/98/74 82/100/74 93/112/74 92/110/74
f 82/100/75 83/101/75 94/113/75 93/112/75
f 83/101/76 84/102/76 95/114/76 94/113/76
f 84/102/77 85/103/77 96/115/77 95/114/77
f 85/103/78 86/104/78 97/116/78 96/115/78
f 86/104/79 87/105/79 98/117/79 97/116/79
f 87/105/80 88/106/80 99/118/80 98/117/80
f 89/108/81 90/107/81 101/119/81 100/120/81
f 90/107/82 91/109/82 102/121/82 101/119/82
f 91/109/83 92/110/83 103/122/83 102/123/83
f 92/110/84 93/112/84 104/124/84 103/122/84
f 93/112/85 94/113/85 105/125/85 104/124/85
f 94/113/86 95/114/86 106/126/86 105/125/86
f 95/114/87 96/115/87 107/127/87 106/126/87
f 96/115/88 97/116/88 108/128/88 107/127/88
f 97/116/89 98/117/89 109/129/89 108/128/89
f 98/117/90 99/118/90 110/130/90 109/129/90
f 100/120/91 101/119/91 112/131/91 111/132/91
f 101/119/92 102/121/92 113/133/92 112/131/92
f 102/121/93 103/122/93 114/134/93 113/135/93
f 103/122/94 104/124/94 115/136/94 114/134/94
f 104/124/95 105/125/95 116/137/95 115/136/95
f 105/125/96 106/126/96 117/138/96 116/137/96
f 106/126/97 107/127/97 118/139/97 117/138/97
f 107/127/98 108/128/98 119/140/98 118/139/98
f 108/128/99 109/129/99 120/141/99 119/140/99
f 109/129/100 110/130/100 121/142/100 120/141/100
o Liquid_Domain
v -1.472567 741.217896 -4.969931
v 26.056091 783.173584 33.793797
v 65.109795 822.051147 -0.499035
v -59.476818 810.827881 -9.195459
v 29.506605 803.860840 -45.101902
v -32.262669 814.063110 -43.840916
v -34.087547 824.942627 44.441940
v -6.189897 825.537109 61.641384
v -26.041582 774.432983 27.468338
v -61.562202 825.287354 8.111945
v 14.217334 832.153503 59.875168
v 0.187756 831.368530 -63.696201
v 62.132980 964.846130 8.584851
v -1.937094 967.160217 63.553394
v 34.977760 957.201294 44.465004
v -41.104412 982.580444 37.245197
v -65.706970 962.385681 -1.452249
v -33.954178 984.674133 -42.724224
v 59.354382 975.946045 -13.810319
v 2.219521 957.606323 -64.692810
v 11.233304 1006.790588 -44.949623
v -31.613569 1030.113770 -2.067982
v -2.625671 1024.767822 36.032631
v 27.721333 1017.937927 28.400261
v 5.306805 1050.628784 -10.728539
vn 0.0031 -0.9736 -0.2284
vn 0.4140 -0.5115 0.7530
vn 0.9571 -0.2898 0.0061
vn -0.8789 -0.3382 -0.3365
vn 0.4214 -0.3608 -0.8320
vn -0.5059 -0.3019 -0.8080
vn -0.6183 -0.1691 0.7675
vn -0.1256 -0.1946 0.9728
vn -0.3998 -0.5979 0.6947
vn -0.9172 -0.2057 0.3411
vn 0.3275 -0.1488 0.9331
vn -0.0053 -0.1390 -0.9903
vn 0.9233 0.2036 0.3257
vn -0.0163 0.1509 0.9884
vn 0.6245 0.1177 0.7721
vn -0.6472 0.2626 0.7157
vn -0.9784 0.1956 -0.0671
vn -0.5286 0.2904 -0.7976
vn 0.8573 0.2778 -0.4335
vn 0.0294 0.1125 -0.9932
vn 0.1774 0.4466 -0.8770
vn -0.7020 0.7119 -0.0196
vn -0.0806 0.5936 0.8007
vn 0.5669 0.5451 0.6177
vn 0.1330 0.9118 -0.3885
s 1
usemtl Liquid_Domain_Material
f 123//102 130//109 122//101
f 122//101 124//103 123//102
f 130//109 125//104 122//101
f 122//101 126//105 124//103
f 122//101 125//104 127//106
f 123//102 129//108 130//109
f 130//109 131//110 125//104
f 122//101 127//106 133//112
f 122//101 133//112 126//105
f 128//107 130//109 129//108
f 129//108 123//102 132//111
f 130//109 128//107 131//110
f 124//103 132//111 123//102
f 132//111 124//103 134//113
f 125//104 138//117 127//106
f 127//106 139//118 133//112
f 132//111 134//113 136//115
f 141//120 126//105 133//112
f 129//108 132//111 135//114
f 129//108 135//114 128//107
f 128//107 137//116 131//110
f 131//110 137//116 138//117
f 131//110 138//117 125//104
f 138//117 139//118 127//106
f 124//103 126//105 140//119
f 128//107 135//114 137//116
f 135//114 132//111 136//115
f 126//105 141//120 140//119
f 133//112 139//118 141//120
f 124//103 140//119 134//113
f 145//124 135//114 136//115
f 145//124 136//115 134//113
f 142//121 140//119 141//120
f 144//123 135//114 145//124
f 138//117 143//122 139//118
f 141//120 139//118 142//121
f 144//123 137//116 135//114
f 138//117 137//116 143//122
f 134//113 140//119 145//124
f 140//119 142//121 146//125
f 145//124 140//119 146//125
f 139//118 146//125 142//121
f 137//116 144//123 143//122
f 139//118 143//122 146//125
f 143//122 144//123 146//125
f 144//123 145//124 146//125
o 平面
v -2.000000 -34.522751 2.000000
v 2.000000 -34.522751 2.000000
v -2.000000 -34.522751 -2.000000
v 2.000000 -34.522751 -2.000000
vn -0.0000 1.0000 -0.0000
vt 0.000000 0.000000
vt 1.000000 0.000000
vt 1.000000 1.000000
vt 0.000000 1.000000
s 0
f 147/143/126 148/144/126 150/145/126 149/146/126
