# Blender 4.1.1
# www.blender.org
mtllib bb0047.mtl
o グリッド
v 2.059399 800.999756 -10.319732
v 0.897527 800.818054 -9.727728
v -0.264345 800.552612 -9.135725
v -1.426218 800.309937 -8.543721
v -2.588090 800.150574 -7.951717
v -3.749962 800.096191 -7.359714
v -4.911835 800.150574 -6.767710
v -6.073707 800.309937 -6.175707
v -7.235579 800.552612 -5.583704
v -8.397451 800.818054 -4.991700
v -9.559323 800.999756 -4.399696
v 2.809392 800.818054 -8.847789
v 1.647519 800.459839 -8.255785
v 0.485647 800.096191 -7.663782
v -0.676225 800.190308 -7.071778
v -1.838097 800.384705 -6.479774
v -2.999970 800.452209 -5.887771
v -4.161842 800.384705 -5.295767
v -5.323714 800.190308 -4.703764
v -6.485587 800.096191 -4.111761
v -7.647459 800.459839 -3.519757
v -8.809331 800.818054 -2.927753
v 3.559384 800.552612 -7.375846
v 2.397512 800.096191 -6.783843
v 1.235640 800.318298 -6.191839
v 0.073767 800.656677 -5.599836
v -1.088105 800.847351 -5.007832
v -2.249977 800.902344 -4.415829
v -3.411850 800.847351 -3.823825
v -4.573722 800.656677 -3.231822
v -5.735594 800.318298 -2.639818
v -6.897467 800.096191 -2.047814
v -8.059339 800.552612 -1.455811
v 4.309377 800.309937 -5.903903
v 3.147504 800.190308 -5.311899
v 1.985632 800.656677 -4.719896
v 0.823760 800.950134 -4.127892
v -0.338112 801.022034 -3.535889
v -1.499985 801.007935 -2.943885
v -2.661857 801.022034 -2.351882
v -3.823729 800.950134 -1.759878
v -4.985601 800.656677 -1.167875
v -6.147474 800.190308 -0.575871
v -7.309346 800.309937 0.016132
v 5.059369 800.150574 -4.431960
v 3.897497 800.384705 -3.839957
v 2.735625 800.847351 -3.247953
v 1.573752 801.022034 -2.655950
v 0.411880 800.872070 -2.063946
v -0.749992 800.703552 -1.471943
v -1.911865 800.872070 -0.879939
v -3.073737 801.022034 -0.287936
v -4.235609 800.847351 0.304068
v -5.397482 800.384705 0.896072
v -6.559354 800.150574 1.488075
v 5.809361 800.096191 -2.960018
v 4.647489 800.452209 -2.368014
v 3.485617 800.902344 -1.776011
v 2.323745 801.007935 -1.184007
v 1.161872 800.703552 -0.592004
v 0.000000 800.171082 0.000000
v -1.161873 800.703552 0.592004
v -2.323745 801.007935 1.184007
v -3.485617 800.902344 1.776011
v -4.647490 800.452209 2.368014
v -5.809361 800.096191 2.960018
v 6.559354 800.150574 -1.488075
v 5.397482 800.384705 -0.896071
v 4.235610 800.847351 -0.304067
v 3.073737 801.022034 0.287936
v 1.911865 800.872070 0.879940
v 0.749993 800.703552 1.471943
v -0.411880 800.872070 2.063947
v -1.573752 801.022034 2.655950
v -2.735624 800.847351 3.247954
v -3.897497 800.384705 3.839957
v -5.059369 800.150574 4.431961
v 7.309346 800.309937 -0.016132
v 6.147474 800.190308 0.575871
v 4.985601 800.656677 1.167875
v 3.823729 800.950134 1.759878
v 2.661857 801.022034 2.351882
v 1.499985 801.007935 2.943885
v 0.338112 801.022034 3.535889
v -0.823760 800.950134 4.127892
v -1.985632 800.656677 4.719896
v -3.147505 800.190308 5.311900
v -4.309377 800.309937 5.903903
v 8.059339 800.552612 1.455811
v 6.897467 800.096191 2.047815
v 5.735594 800.318298 2.639818
v 4.573722 800.656677 3.231822
v 3.411849 800.847351 3.823825
v 2.249977 800.902344 4.415829
v 1.088105 800.847351 5.007833
v -0.073767 800.656677 5.599836
v -1.235640 800.318298 6.191839
v -2.397512 800.096191 6.783843
v -3.559384 800.552612 7.375846
v 8.809332 800.818054 2.927754
v 7.647459 800.459839 3.519758
v 6.485587 800.096191 4.111761
v 5.323714 800.190308 4.703764
v 4.161842 800.384705 5.295768
v 2.999970 800.452209 5.887772
v 1.838097 800.384705 6.479775
v 0.676225 800.190308 7.071779
v -0.485647 800.096191 7.663782
v -1.647520 800.459839 8.255786
v -2.809391 800.818054 8.847790
v 9.559323 800.999756 4.399696
v 8.397451 800.818054 4.991700
v 7.235579 800.552612 5.583704
v 6.073707 800.309937 6.175707
v 4.911834 800.150574 6.767711
v 3.749962 800.096191 7.359714
v 2.588089 800.150574 7.951718
v 1.426218 800.309937 8.543721
v 0.264345 800.552612 9.135725
v -0.897527 800.818054 9.727728
v -2.059399 800.999756 10.319732
vn -0.1066 0.9669 0.2317
vn -0.0974 0.9453 0.3112
vn 0.0279 0.9836 0.1782
vn -0.0038 0.9993 -0.0370
vn -0.0754 0.9844 -0.1589
vn -0.0842 0.9844 -0.1544
vn -0.0277 0.9993 -0.0248
vn 0.1278 0.9836 0.1274
vn 0.3090 0.9453 0.1041
vn 0.2501 0.9669 0.0499
vn -0.1802 0.9391 0.2925
vn -0.0288 0.9976 0.0627
vn 0.0514 0.9663 -0.2522
vn 0.0037 0.9531 -0.3027
vn -0.0805 0.9629 -0.2576
vn -0.1611 0.9629 -0.2165
vn -0.2471 0.9531 -0.1749
vn -0.2342 0.9663 -0.1067
vn 0.0676 0.9976 0.0135
vn 0.3426 0.9391 0.0262
vn -0.1721 0.9755 0.1369
vn 0.1686 0.9592 -0.2268
vn 0.1233 0.9555 -0.2679
vn 0.0250 0.9852 -0.1694
vn -0.0245 0.9963 -0.0824
vn -0.0523 0.9963 -0.0682
vn -0.1518 0.9852 -0.0794
vn -0.2892 0.9555 -0.0577
vn -0.2826 0.9592 0.0031
vn 0.2119 0.9755 -0.0587
vn 0.0343 0.9990 -0.0294
vn 0.2477 0.9364 -0.2487
vn 0.1215 0.9813 -0.1495
vn -0.0159 0.9993 0.0346
vn -0.0000 0.9883 0.1525
vn 0.1234 0.9883 0.0897
vn 0.0374 0.9993 0.0075
vn -0.1924 0.9813 0.0105
vn -0.3468 0.9364 0.0542
vn -0.0439 0.9990 0.0105
vn 0.1949 0.9753 -0.1037
vn 0.2783 0.9433 -0.1811
vn 0.0896 0.9942 -0.0595
vn -0.1280 0.9837 0.1263
vn -0.1355 0.9461 0.2943
vn 0.3177 0.9461 0.0634
vn 0.1774 0.9837 -0.0293
vn -0.1008 0.9942 0.0375
vn -0.3100 0.9433 0.1187
vn -0.1984 0.9753 0.0968
vn 0.1984 0.9753 -0.0968
vn 0.3100 0.9433 -0.1187
vn 0.1008 0.9942 -0.0375
vn -0.1774 0.9837 0.0293
vn -0.3177 0.9461 -0.0634
vn 0.1355 0.9461 -0.2943
vn 0.1280 0.9837 -0.1263
vn -0.0896 0.9942 0.0595
vn -0.2783 0.9433 0.1811
vn -0.1949 0.9753 0.1037
vn 0.0439 0.9990 -0.0105
vn 0.3468 0.9364 -0.0542
vn 0.1924 0.9813 -0.0105
vn -0.0374 0.9993 -0.0075
vn -0.1234 0.9883 -0.0897
vn -0.0000 0.9883 -0.1525
vn 0.0159 0.9993 -0.0346
vn -0.1215 0.9813 0.1495
vn -0.2477 0.9364 0.2487
vn -0.0343 0.9990 0.0294
vn -0.2119 0.9755 0.0587
vn 0.2826 0.9592 -0.0031
vn 0.2892 0.9555 0.0577
vn 0.1518 0.9852 0.0794
vn 0.0523 0.9963 0.0682
vn 0.0245 0.9963 0.0824
vn -0.0250 0.9852 0.1694
vn -0.1233 0.9555 0.2679
vn -0.1686 0.9592 0.2268
vn 0.1721 0.9755 -0.1369
vn -0.3426 0.9391 -0.0262
vn -0.0676 0.9976 -0.0135
vn 0.2342 0.9663 0.1067
vn 0.2471 0.9531 0.1749
vn 0.1611 0.9629 0.2165
vn 0.0805 0.9629 0.2576
vn -0.0037 0.9531 0.3027
vn -0.0514 0.9663 0.2522
vn 0.0288 0.9976 -0.0627
vn 0.1802 0.9391 -0.2925
vn -0.2501 0.9669 -0.0499
vn -0.3090 0.9453 -0.1041
vn -0.1278 0.9836 -0.1274
vn 0.0277 0.9993 0.0248
vn 0.0842 0.9844 0.1544
vn 0.0754 0.9844 0.1589
vn 0.0038 0.9993 0.0370
vn -0.0279 0.9836 -0.1782
vn 0.0974 0.9453 -0.3112
vn 0.1066 0.9669 -0.2317
vt 0.000000 0.000000
vt 0.100000 0.000000
vt 0.100000 0.100000
vt 0.000000 0.100000
vt 0.200000 0.000000
vt 0.200000 0.100000
vt 0.300000 0.000000
vt 0.300000 0.100000
vt 0.200000 0.100000
vt 0.400000 0.000000
vt 0.400000 0.100000
vt 0.500000 0.000000
vt 0.500000 0.100000
vt 0.600000 0.000000
vt 0.600000 0.100000
vt 0.700000 0.000000
vt 0.700000 0.100000
vt 0.800000 0.000000
vt 0.800000 0.100000
vt 0.900000 0.000000
vt 0.900000 0.100000
vt 1.000000 0.000000
vt 1.000000 0.100000
vt 0.100000 0.200000
vt 0.000000 0.200000
vt 0.200000 0.200000
vt 0.300000 0.200000
vt 0.200000 0.200000
vt 0.400000 0.200000
vt 0.500000 0.200000
vt 0.600000 0.200000
vt 0.700000 0.200000
vt 0.800000 0.200000
vt 0.900000 0.200000
vt 1.000000 0.200000
vt 0.000000 0.200000
vt 0.100000 0.200000
vt 0.100000 0.300000
vt 0.000000 0.300000
vt 0.200000 0.200000
vt 0.200000 0.300000
vt 0.300000 0.200000
vt 0.300000 0.300000
vt 0.200000 0.300000
vt 0.400000 0.200000
vt 0.400000 0.300000
vt 0.500000 0.200000
vt 0.500000 0.300000
vt 0.600000 0.200000
vt 0.600000 0.300000
vt 0.700000 0.200000
vt 0.700000 0.300000
vt 0.800000 0.200000
vt 0.800000 0.300000
vt 0.900000 0.200000
vt 0.900000 0.300000
vt 1.000000 0.200000
vt 1.000000 0.300000
vt 0.100000 0.400000
vt 0.000000 0.400000
vt 0.200000 0.400000
vt 0.300000 0.400000
vt 0.200000 0.400000
vt 0.400000 0.400000
vt 0.500000 0.400000
vt 0.600000 0.400000
vt 0.700000 0.400000
vt 0.800000 0.400000
vt 0.900000 0.400000
vt 1.000000 0.400000
vt 0.100000 0.500000
vt 0.000000 0.500000
vt 0.200000 0.500000
vt 0.300000 0.500000
vt 0.200000 0.500000
vt 0.400000 0.500000
vt 0.500000 0.500000
vt 0.600000 0.500000
vt 0.700000 0.500000
vt 0.800000 0.500000
vt 0.900000 0.500000
vt 1.000000 0.500000
vt 0.100000 0.600000
vt 0.000000 0.600000
vt 0.200000 0.600000
vt 0.300000 0.600000
vt 0.200000 0.600000
vt 0.400000 0.600000
vt 0.500000 0.600000
vt 0.600000 0.600000
vt 0.700000 0.600000
vt 0.800000 0.600000
vt 0.900000 0.600000
vt 1.000000 0.600000
vt 0.100000 0.700000
vt 0.000000 0.700000
vt 0.200000 0.700000
vt 0.300000 0.700000
vt 0.200000 0.700000
vt 0.400000 0.700000
vt 0.500000 0.700000
vt 0.600000 0.700000
vt 0.700000 0.700000
vt 0.800000 0.700000
vt 0.900000 0.700000
vt 1.000000 0.700000
vt 0.100000 0.800000
vt 0.000000 0.800000
vt 0.200000 0.800000
vt 0.300000 0.800000
vt 0.200000 0.800000
vt 0.400000 0.800000
vt 0.500000 0.800000
vt 0.600000 0.800000
vt 0.700000 0.800000
vt 0.800000 0.800000
vt 0.900000 0.800000
vt 1.000000 0.800000
vt 0.100000 0.900000
vt 0.000000 0.900000
vt 0.200000 0.900000
vt 0.300000 0.900000
vt 0.200000 0.900000
vt 0.400000 0.900000
vt 0.500000 0.900000
vt 0.600000 0.900000
vt 0.700000 0.900000
vt 0.800000 0.900000
vt 0.900000 0.900000
vt 1.000000 0.900000
vt 0.100000 1.000000
vt 0.000000 1.000000
vt 0.200000 1.000000
vt 0.300000 1.000000
vt 0.200000 1.000000
vt 0.400000 1.000000
vt 0.500000 1.000000
vt 0.600000 1.000000
vt 0.700000 1.000000
vt 0.800000 1.000000
vt 0.900000 1.000000
vt 1.000000 1.000000
s 0
f 1/1/1 2/2/1 13/3/1 12/4/1
f 2/2/2 3/5/2 14/6/2 13/3/2
f 3/5/3 4/7/3 15/8/3 14/9/3
f 4/7/4 5/10/4 16/11/4 15/8/4
f 5/10/5 6/12/5 17/13/5 16/11/5
f 6/12/6 7/14/6 18/15/6 17/13/6
f 7/14/7 8/16/7 19/17/7 18/15/7
f 8/16/8 9/18/8 20/19/8 19/17/8
f 9/18/9 10/20/9 21/21/9 20/19/9
f 10/20/10 11/22/10 22/23/10 21/21/10
f 12/4/11 13/3/11 24/24/11 23/25/11
f 13/3/12 14/6/12 25/26/12 24/24/12
f 14/6/13 15/8/13 26/27/13 25/28/13
f 15/8/14 16/11/14 27/29/14 26/27/14
f 16/11/15 17/13/15 28/30/15 27/29/15
f 17/13/16 18/15/16 29/31/16 28/30/16
f 18/15/17 19/17/17 30/32/17 29/31/17
f 19/17/18 20/19/18 31/33/18 30/32/18
f 20/19/19 21/21/19 32/34/19 31/33/19
f 21/21/20 22/23/20 33/35/20 32/34/20
f 23/36/21 24/37/21 35/38/21 34/39/21
f 24/37/22 25/40/22 36/41/22 35/38/22
f 25/40/23 26/42/23 37/43/23 36/44/23
f 26/42/24 27/45/24 38/46/24 37/43/24
f 27/45/25 28/47/25 39/48/25 38/46/25
f 28/47/26 29/49/26 40/50/26 39/48/26
f 29/49/27 30/51/27 41/52/27 40/50/27
f 30/51/28 31/53/28 42/54/28 41/52/28
f 31/53/29 32/55/29 43/56/29 42/54/29
f 32/55/30 33/57/30 44/58/30 43/56/30
f 34/39/31 35/38/31 46/59/31 45/60/31
f 35/38/32 36/41/32 47/61/32 46/59/32
f 36/41/33 37/43/33 48/62/33 47/63/33
f 37/43/34 38/46/34 49/64/34 48/62/34
f 38/46/35 39/48/35 50/65/35 49/64/35
f 39/48/36 40/50/36 51/66/36 50/65/36
f 40/50/37 41/52/37 52/67/37 51/66/37
f 41/52/38 42/54/38 53/68/38 52/67/38
f 42/54/39 43/56/39 54/69/39 53/68/39
f 43/56/40 44/58/40 55/70/40 54/69/40
f 45/60/41 46/59/41 57/71/41 56/72/41
f 46/59/42 47/61/42 58/73/42 57/71/42
f 47/61/43 48/62/43 59/74/43 58/75/43
f 48/62/44 49/64/44 60/76/44 59/74/44
f 49/64/45 50/65/45 61/77/45 60/76/45
f 50/65/46 51/66/46 62/78/46 61/77/46
f 51/66/47 52/67/47 63/79/47 62/78/47
f 52/67/48 53/68/48 64/80/48 63/79/48
f 53/68/49 54/69/49 65/81/49 64/80/49
f 54/69/50 55/70/50 66/82/50 65/81/50
f 56/72/51 57/71/51 68/83/51 67/84/51
f 57/71/52 58/73/52 69/85/52 68/83/52
f 58/73/53 59/74/53 70/86/53 69/87/53
f 59/74/54 60/76/54 71/88/54 70/86/54
f 60/76/55 61/77/55 72/89/55 71/88/55
f 61/77/56 62/78/56 73/90/56 72/89/56
f 62/78/57 63/79/57 74/91/57 73/90/57
f 63/79/58 64/80/58 75/92/58 74/91/58
f 64/80/59 65/81/59 76/93/59 75/92/59
f 65/81/60 66/82/60 77/94/60 76/93/60
f 67/84/61 68/83/61 79/95/61 78/96/61
f 68/83/62 69/85/62 80/97/62 79/95/62
f 69/85/63 70/86/63 81/98/63 80/99/63
f 70/86/64 71/88/64 82/100/64 81/98/64
f 71/88/65 72/89/65 83/101/65 82/100/65
f 72/89/66 73/90/66 84/102/66 83/101/66
f 73/90/67 74/91/67 85/103/67 84/102/67
f 74/91/68 75/92/68 86/104/68 85/103/68
f 75/92/69 76/93/69 87/105/69 86/104/69
f 76/93/70 77/94/70 88/106/70 87/105/70
f 78/96/71 79/95/71 90/107/71 89/108/71
f 79/95/72 80/97/72 91/109/72 90/107/72
f 80/97/73 81/98/73 92/110/73 91/111/73
f 81/98/74 82/100/74 93/112/74 92/110/74
f 82/100/75 83/101/75 94/113/75 93/112/75
f 83/101/76 84/102/76 95/114/76 94/113/76
f 84/102/77 85/103/77 96/115/77 95/114/77
f 85/103/78 86/104/78 97/116/78 96/115/78
f 86/104/79 87/105/79 98/117/79 97/116/79
f 87/105/80 88/106/80 99/118/80 98/117/80
f 89/108/81 90/107/81 101/119/81 100/120/81
f 90/107/82 91/109/82 102/121/82 101/119/82
f 91/109/83 92/110/83 103/122/83 102/123/83
f 92/110/84 93/112/84 104/124/84 103/122/84
f 93/112/85 94/113/85 105/125/85 104/124/85
f 94/113/86 95/114/86 106/126/86 105/125/86
f 95/114/87 96/115/87 107/127/87 106/126/87
f 96/115/88 97/116/88 108/128/88 107/127/88
f 97/116/89 98/117/89 109/129/89 108/128/89
f 98/117/90 99/118/90 110/130/90 109/129/90
f 100/120/91 101/119/91 112/131/91 111/132/91
f 101/119/92 102/121/92 113/133/92 112/131/92
f 102/121/93 103/122/93 114/134/93 113/135/93
f 103/122/94 104/124/94 115/136/94 114/134/94
f 104/124/95 105/125/95 116/137/95 115/136/95
f 105/125/96 106/126/96 117/138/96 116/137/96
f 106/126/97 107/127/97 118/139/97 117/138/97
f 107/127/98 108/128/98 119/140/98 118/139/98
f 108/128/99 109/129/99 120/141/99 119/140/99
f 109/129/100 110/130/100 121/142/100 120/141/100
o Liquid_Domain
v -0.957227 745.067078 5.067060
v 4.480651 750.634155 -11.614615
v -18.787432 780.874512 -35.851196
v -13.789184 778.230530 35.476448
v 16.030081 787.642395 41.477032
v 44.319233 786.455322 11.056370
v 21.423334 780.243896 -33.675793
v -33.684113 769.770142 0.791307
v -38.985699 803.771790 31.410942
v -0.971097 814.152100 57.209946
v -60.312126 824.089111 -10.806756
v 60.582203 829.658020 10.474611
v 60.574223 828.983154 -9.892335
v -37.464352 797.226501 -28.357983
v 12.764911 826.814819 -58.638138
v 35.032631 828.806946 -43.515396
v 34.684105 835.757935 44.352524
v -60.440311 835.740601 11.502192
v -33.539192 834.220215 -44.560513
v -35.066231 840.242676 44.315800
v 9.414995 833.597534 61.063011
v -6.812386 830.265869 -61.299728
v -9.653241 833.291565 61.138969
v 5.600935 842.409790 -61.784428
v -34.551033 1254.132812 -45.143429
v 43.542740 1263.064819 36.813961
v 44.938354 1262.307373 -34.881580
v -14.544681 1252.422241 -59.721004
v -39.681541 1260.817749 41.262608
v 27.153889 1277.539551 -50.330128
v -61.749115 1269.905762 12.012980
v -5.516762 1240.388306 -65.594261
v 63.867741 1258.275635 -7.749712
v 14.681938 1251.851807 -59.820129
v -14.575145 1265.804688 60.758560
v 16.337542 1256.808594 59.840900
v -48.260021 1272.314941 -29.953838
v 0.747175 1273.830200 63.348061
v 64.829132 1270.169434 6.017562
v -61.700401 1259.172119 -11.720227
v 5.504744 1243.432617 -65.703072
v -0.025588 1281.786255 -59.958248
v 31.985916 1308.500244 35.213020
v -46.179565 1308.436035 -11.844763
v 45.622463 1312.201172 -12.473516
v -23.244143 1307.387939 -40.597389
v -25.661303 1311.427979 36.980164
v -1.565508 1317.212891 43.064137
v -21.064644 1340.835449 13.755645
v 12.234133 1348.197266 11.088594
v -15.854867 1343.439453 -11.330281
v 7.732137 1335.392090 -28.917974
vn 0.0053 -0.9745 0.2245
vn 0.1142 -0.8742 -0.4720
vn -0.2909 -0.5074 -0.8111
vn -0.2773 -0.5672 0.7755
vn 0.3301 -0.4854 0.8096
vn 0.7891 -0.5416 0.2899
vn 0.3832 -0.5247 -0.7601
vn -0.7578 -0.6524 0.0131
vn -0.6929 -0.3430 0.6342
vn -0.0384 -0.3531 0.9348
vn -0.9305 -0.2264 -0.2878
vn 0.9204 -0.1692 0.3526
vn 0.9122 -0.2171 -0.3475
vn -0.7040 -0.3775 -0.6016
vn 0.2832 -0.2383 -0.9290
vn 0.6604 -0.1566 -0.7344
vn 0.6546 -0.1356 0.7437
vn -0.9256 -0.1828 0.3315
vn -0.6274 -0.1276 -0.7682
vn -0.6502 -0.0932 0.7540
vn 0.2207 -0.1155 0.9685
vn -0.1701 -0.1868 -0.9676
vn -0.2187 -0.1196 0.9684
vn 0.1533 -0.0383 -0.9874
vn -0.6375 0.0845 -0.7658
vn 0.7173 0.1004 0.6895
vn 0.7531 0.1094 -0.6487
vn -0.4900 0.1151 -0.8641
vn -0.6946 0.1113 0.7108
vn 0.5208 0.2332 -0.8212
vn -0.9191 0.2139 0.3310
vn -0.2153 0.0492 -0.9753
vn 0.9213 0.1122 -0.3724
vn 0.4904 0.0889 -0.8670
vn -0.3600 0.1257 0.9245
vn 0.4097 0.0735 0.9093
vn -0.7499 0.1641 -0.6409
vn 0.0342 0.1997 0.9793
vn 0.9450 0.2244 0.2379
vn -0.9375 0.1199 -0.3267
vn 0.1856 0.0708 -0.9801
vn -0.0187 0.2784 -0.9603
vn 0.5604 0.4306 0.7074
vn -0.8324 0.4762 -0.2835
vn 0.7870 0.5162 -0.3378
vn -0.4230 0.4240 -0.8008
vn -0.5268 0.4412 0.7265
vn -0.0105 0.5068 0.8620
vn -0.5051 0.7596 0.4097
vn 0.3223 0.8914 0.3187
vn -0.3702 0.8557 -0.3615
vn 0.1609 0.6614 -0.7326
s 1
usemtl Liquid_Domain_Material
f 124//103 123//102 122//101
f 122//101 125//104 129//108
f 126//105 125//104 122//101
f 126//105 122//101 127//106
f 122//101 123//102 127//106
f 124//103 122//101 129//108
f 123//102 128//107 127//106
f 124//103 129//108 135//114
f 124//103 128//107 123//102
f 126//105 131//110 125//104
f 125//104 130//109 129//108
f 129//108 130//109 132//111
f 133//112 127//106 134//113
f 135//114 129//108 132//111
f 127//106 128//107 134//113
f 124//103 143//122 128//107
f 130//109 125//104 144//123
f 144//123 125//104 131//110
f 143//122 136//115 128//107
f 137//116 128//107 136//115
f 131//110 126//105 142//121
f 127//106 138//117 126//105
f 132//111 130//109 139//118
f 134//113 128//107 137//116
f 124//103 135//114 140//119
f 141//120 130//109 144//123
f 126//105 138//117 142//121
f 133//112 138//117 127//106
f 135//114 132//111 140//119
f 124//103 140//119 143//122
f 142//121 144//123 131//110
f 130//109 141//120 139//118
f 143//122 145//124 136//115
f 142//121 159//138 144//123
f 157//136 142//121 138//117
f 139//118 161//140 132//111
f 132//111 146//125 140//119
f 134//113 137//116 148//127
f 138//117 133//112 147//126
f 143//122 140//119 149//128
f 141//120 150//129 139//118
f 139//118 150//129 152//131
f 151//130 137//116 136//115
f 141//120 144//123 150//129
f 145//124 155//134 136//115
f 143//122 149//128 153//132
f 143//122 153//132 145//124
f 155//134 151//130 136//115
f 157//136 159//138 142//121
f 138//117 147//126 157//136
f 133//112 134//113 160//139
f 154//133 134//113 148//127
f 132//111 158//137 146//125
f 140//119 146//125 149//128
f 150//129 144//123 156//135
f 139//118 152//131 161//140
f 160//139 134//113 154//133
f 137//116 151//130 148//127
f 144//123 159//138 156//135
f 160//139 147//126 133//112
f 132//111 161//140 158//137
f 145//124 153//132 162//141
f 162//141 155//134 145//124
f 149//128 163//142 153//132
f 162//141 153//132 163//142
f 155//134 162//141 163//142
f 157//136 164//143 159//138
f 164//143 147//126 160//139
f 161//140 152//131 165//144
f 154//133 166//145 160//139
f 158//137 161//140 165//144
f 166//145 154//133 148//127
f 146//125 158//137 167//146
f 149//128 146//125 167//146
f 149//128 167//146 163//142
f 155//134 163//142 151//130
f 150//129 156//135 168//147
f 164//143 157//136 147//126
f 152//131 150//129 168//147
f 148//127 151//130 166//145
f 159//138 169//148 156//135
f 159//138 164//143 169//148
f 169//148 168//147 156//135
f 168//147 170//149 152//131
f 164//143 160//139 166//145
f 167//146 158//137 165//144
f 163//142 173//152 151//130
f 152//131 170//149 165//144
f 173//152 166//145 151//130
f 167//146 173//152 163//142
f 164//143 171//150 169//148
f 166//145 171//150 164//143
f 172//151 167//146 165//144
f 170//149 168//147 169//148
f 171//150 170//149 169//148
f 165//144 170//149 172//151
f 173//152 167//146 172//151
f 171//150 172//151 170//149
f 171//150 173//152 172//151
f 166//145 173//152 171//150
o 平面
v -2.000000 -35.488281 2.000000
v 2.000000 -35.488281 2.000000
v -2.000000 -35.488281 -2.000000
v 2.000000 -35.488281 -2.000000
vn -0.0000 1.0000 -0.0000
vt 0.000000 0.000000
vt 1.000000 0.000000
vt 1.000000 1.000000
vt 0.000000 1.000000
s 0
f 174/143/153 175/144/153 177/145/153 176/146/153
