# Blender 4.1.1
# www.blender.org
mtllib bb0019.mtl
o グリッド
v 2.059399 800.695435 -10.319732
v 0.897527 800.346436 -9.727728
v -0.264345 800.030457 -9.135725
v -1.426218 800.212219 -8.543721
v -2.588090 800.371704 -7.951717
v -3.749962 800.426270 -7.359714
v -4.911835 800.371704 -6.767710
v -6.073707 800.212219 -6.175707
v -7.235579 800.030457 -5.583704
v -8.397451 800.346436 -4.991700
v -9.559323 800.695435 -4.399696
v 2.809392 800.346436 -8.847789
v 1.647519 800.062622 -8.255785
v 0.485647 800.426270 -7.663782
v -0.676225 800.697510 -7.071778
v -1.838097 800.844238 -6.479774
v -2.999970 800.887207 -5.887771
v -4.161842 800.844238 -5.295767
v -5.323714 800.697510 -4.703764
v -6.485587 800.426270 -4.111761
v -7.647459 800.062622 -3.519757
v -8.809331 800.346436 -2.927753
v 3.559384 800.030457 -7.375846
v 2.397512 800.426270 -6.783843
v 1.235640 800.797913 -6.191839
v 0.073767 800.987000 -5.599836
v -1.088105 801.021729 -5.007832
v -2.249977 801.012756 -4.415829
v -3.411850 801.021729 -3.823825
v -4.573722 800.987000 -3.231822
v -5.735594 800.797913 -2.639818
v -6.897467 800.426270 -2.047814
v -8.059339 800.030457 -1.455811
v 4.309377 800.212219 -5.903903
v 3.147504 800.697510 -5.311899
v 1.985632 800.987000 -4.719896
v 0.823760 800.990784 -4.127892
v -0.338112 800.824463 -3.535889
v -1.499985 800.725342 -2.943885
v -2.661857 800.824463 -2.351882
v -3.823729 800.990784 -1.759878
v -4.985601 800.987000 -1.167875
v -6.147474 800.697510 -0.575871
v -7.309346 800.212219 0.016132
v 5.059369 800.371704 -4.431960
v 3.897497 800.844238 -3.839957
v 2.735625 801.021729 -3.247953
v 1.573752 800.824463 -2.655950
v 0.411880 800.427673 -2.063946
v -0.749992 800.197510 -1.471943
v -1.911865 800.427673 -0.879939
v -3.073737 800.824463 -0.287936
v -4.235609 801.021729 0.304068
v -5.397482 800.844238 0.896072
v -6.559354 800.371704 1.488075
v 5.809361 800.426270 -2.960018
v 4.647489 800.887207 -2.368014
v 3.485617 801.012756 -1.776011
v 2.323745 800.725342 -1.184007
v 1.161872 800.197510 -0.592004
v 0.000000 800.351135 0.000000
v -1.161873 800.197510 0.592004
v -2.323745 800.725342 1.184007
v -3.485617 801.012756 1.776011
v -4.647490 800.887207 2.368014
v -5.809361 800.426270 2.960018
v 6.559354 800.371704 -1.488075
v 5.397482 800.844238 -0.896071
v 4.235610 801.021729 -0.304067
v 3.073737 800.824463 0.287936
v 1.911865 800.427673 0.879940
v 0.749993 800.197510 1.471943
v -0.411880 800.427673 2.063947
v -1.573752 800.824463 2.655950
v -2.735624 801.021729 3.247954
v -3.897497 800.844238 3.839957
v -5.059369 800.371704 4.431961
v 7.309346 800.212219 -0.016132
v 6.147474 800.697510 0.575871
v 4.985601 800.987000 1.167875
v 3.823729 800.990784 1.759878
v 2.661857 800.824463 2.351882
v 1.499985 800.725342 2.943885
v 0.338112 800.824463 3.535889
v -0.823760 800.990784 4.127892
v -1.985632 800.987000 4.719896
v -3.147505 800.697510 5.311900
v -4.309377 800.212219 5.903903
v 8.059339 800.030457 1.455811
v 6.897467 800.426270 2.047815
v 5.735594 800.797913 2.639818
v 4.573722 800.987000 3.231822
v 3.411849 801.021729 3.823825
v 2.249977 801.012756 4.415829
v 1.088105 801.021729 5.007833
v -0.073767 800.987000 5.599836
v -1.235640 800.797913 6.191839
v -2.397512 800.426270 6.783843
v -3.559384 800.030457 7.375846
v 8.809332 800.346436 2.927754
v 7.647459 800.062622 3.519758
v 6.485587 800.426270 4.111761
v 5.323714 800.697510 4.703764
v 4.161842 800.844238 5.295768
v 2.999970 800.887207 5.887772
v 1.838097 800.844238 6.479775
v 0.676225 800.697510 7.071779
v -0.485647 800.426270 7.663782
v -1.647520 800.062622 8.255786
v -2.809391 800.346436 8.847790
v 9.559323 800.695435 4.399696
v 8.397451 800.346436 4.991700
v 7.235579 800.030457 5.583704
v 6.073707 800.212219 6.175707
v 4.911834 800.371704 6.767711
v 3.749962 800.426270 7.359714
v 2.588089 800.371704 7.951718
v 1.426218 800.212219 8.543721
v 0.264345 800.030457 9.135725
v -0.897527 800.346436 9.727728
v -2.059399 800.695435 10.319732
vn -0.1235 0.9554 0.2683
vn 0.0009 0.9993 -0.0385
vn 0.0321 0.9529 -0.3016
vn -0.0258 0.9544 -0.2974
vn -0.0913 0.9617 -0.2584
vn -0.1554 0.9617 -0.2258
vn -0.2255 0.9544 -0.1957
vn -0.2629 0.9529 -0.1513
vn -0.0316 0.9993 -0.0219
vn 0.2896 0.9554 0.0578
vn 0.0317 0.9990 -0.0323
vn 0.1413 0.9411 -0.3071
vn 0.0642 0.9662 -0.2497
vn -0.0021 0.9878 -0.1556
vn -0.0299 0.9957 -0.0873
vn -0.0530 0.9957 -0.0755
vn -0.1246 0.9878 -0.0932
vn -0.2397 0.9662 -0.0948
vn -0.3315 0.9411 -0.0662
vn -0.0448 0.9990 0.0067
vn 0.2243 0.9395 -0.2589
vn 0.1562 0.9606 -0.2298
vn 0.0392 0.9956 -0.0852
vn -0.0183 0.9970 0.0748
vn 0.0293 0.9886 0.1478
vn 0.1023 0.9886 0.1106
vn 0.0713 0.9970 0.0292
vn -0.0920 0.9956 -0.0184
vn -0.2777 0.9606 -0.0087
vn -0.3413 0.9395 0.0293
vn 0.2667 0.9352 -0.2332
vn 0.1323 0.9829 -0.1280
vn -0.0478 0.9965 0.0689
vn -0.1109 0.9642 0.2409
vn 0.0139 0.9560 0.2932
vn 0.2290 0.9560 0.1836
vn 0.2601 0.9642 0.0519
vn 0.0839 0.9965 0.0018
vn -0.1813 0.9829 0.0318
vn -0.3454 0.9352 0.0787
vn 0.2876 0.9411 -0.1777
vn 0.0982 0.9933 -0.0615
vn -0.1481 0.9827 0.1116
vn -0.2540 0.9384 0.2344
vn -0.0156 0.9993 0.0340
vn 0.0367 0.9993 0.0073
vn 0.3389 0.9384 -0.0677
vn 0.1773 0.9827 -0.0543
vn -0.1075 0.9933 0.0433
vn -0.3128 0.9411 0.1282
vn 0.3128 0.9411 -0.1282
vn 0.1075 0.9933 -0.0433
vn -0.1773 0.9827 0.0543
vn -0.3389 0.9384 0.0677
vn -0.0367 0.9993 -0.0073
vn 0.0156 0.9993 -0.0340
vn 0.2540 0.9384 -0.2344
vn 0.1481 0.9827 -0.1116
vn -0.0982 0.9933 0.0615
vn -0.2876 0.9411 0.1777
vn 0.3454 0.9352 -0.0787
vn 0.1813 0.9829 -0.0318
vn -0.0839 0.9965 -0.0018
vn -0.2601 0.9642 -0.0519
vn -0.2290 0.9560 -0.1836
vn -0.0139 0.9560 -0.2932
vn 0.1109 0.9642 -0.2409
vn 0.0478 0.9965 -0.0689
vn -0.1323 0.9829 0.1280
vn -0.2667 0.9352 0.2332
vn 0.3413 0.9395 -0.0293
vn 0.2777 0.9606 0.0087
vn 0.0920 0.9956 0.0184
vn -0.0713 0.9970 -0.0292
vn -0.1023 0.9886 -0.1106
vn -0.0293 0.9886 -0.1478
vn 0.0183 0.9970 -0.0748
vn -0.0392 0.9956 0.0852
vn -0.1562 0.9606 0.2298
vn -0.2243 0.9395 0.2589
vn 0.0448 0.9990 -0.0067
vn 0.3315 0.9411 0.0662
vn 0.2397 0.9662 0.0948
vn 0.1246 0.9878 0.0932
vn 0.0530 0.9957 0.0755
vn 0.0299 0.9957 0.0873
vn 0.0021 0.9878 0.1556
vn -0.0642 0.9662 0.2497
vn -0.1413 0.9411 0.3071
vn -0.0317 0.9990 0.0323
vn -0.2896 0.9554 -0.0578
vn 0.0316 0.9993 0.0219
vn 0.2629 0.9529 0.1513
vn 0.2255 0.9544 0.1957
vn 0.1554 0.9617 0.2258
vn 0.0913 0.9617 0.2584
vn 0.0258 0.9544 0.2974
vn -0.0321 0.9529 0.3016
vn -0.0009 0.9993 0.0385
vn 0.1235 0.9554 -0.2683
vt 0.000000 0.000000
vt 0.100000 0.000000
vt 0.100000 0.100000
vt 0.000000 0.100000
vt 0.200000 0.000000
vt 0.200000 0.100000
vt 0.300000 0.000000
vt 0.300000 0.100000
vt 0.200000 0.100000
vt 0.400000 0.000000
vt 0.400000 0.100000
vt 0.500000 0.000000
vt 0.500000 0.100000
vt 0.600000 0.000000
vt 0.600000 0.100000
vt 0.700000 0.000000
vt 0.700000 0.100000
vt 0.800000 0.000000
vt 0.800000 0.100000
vt 0.900000 0.000000
vt 0.900000 0.100000
vt 1.000000 0.000000
vt 1.000000 0.100000
vt 0.100000 0.200000
vt 0.000000 0.200000
vt 0.200000 0.200000
vt 0.300000 0.200000
vt 0.200000 0.200000
vt 0.400000 0.200000
vt 0.500000 0.200000
vt 0.600000 0.200000
vt 0.700000 0.200000
vt 0.800000 0.200000
vt 0.900000 0.200000
vt 1.000000 0.200000
vt 0.000000 0.200000
vt 0.100000 0.200000
vt 0.100000 0.300000
vt 0.000000 0.300000
vt 0.200000 0.200000
vt 0.200000 0.300000
vt 0.300000 0.200000
vt 0.300000 0.300000
vt 0.200000 0.300000
vt 0.400000 0.200000
vt 0.400000 0.300000
vt 0.500000 0.200000
vt 0.500000 0.300000
vt 0.600000 0.200000
vt 0.600000 0.300000
vt 0.700000 0.200000
vt 0.700000 0.300000
vt 0.800000 0.200000
vt 0.800000 0.300000
vt 0.900000 0.200000
vt 0.900000 0.300000
vt 1.000000 0.200000
vt 1.000000 0.300000
vt 0.100000 0.400000
vt 0.000000 0.400000
vt 0.200000 0.400000
vt 0.300000 0.400000
vt 0.200000 0.400000
vt 0.400000 0.400000
vt 0.500000 0.400000
vt 0.600000 0.400000
vt 0.700000 0.400000
vt 0.800000 0.400000
vt 0.900000 0.400000
vt 1.000000 0.400000
vt 0.100000 0.500000
vt 0.000000 0.500000
vt 0.200000 0.500000
vt 0.300000 0.500000
vt 0.200000 0.500000
vt 0.400000 0.500000
vt 0.500000 0.500000
vt 0.600000 0.500000
vt 0.700000 0.500000
vt 0.800000 0.500000
vt 0.900000 0.500000
vt 1.000000 0.500000
vt 0.100000 0.600000
vt 0.000000 0.600000
vt 0.200000 0.600000
vt 0.300000 0.600000
vt 0.200000 0.600000
vt 0.400000 0.600000
vt 0.500000 0.600000
vt 0.600000 0.600000
vt 0.700000 0.600000
vt 0.800000 0.600000
vt 0.900000 0.600000
vt 1.000000 0.600000
vt 0.100000 0.700000
vt 0.000000 0.700000
vt 0.200000 0.700000
vt 0.300000 0.700000
vt 0.200000 0.700000
vt 0.400000 0.700000
vt 0.500000 0.700000
vt 0.600000 0.700000
vt 0.700000 0.700000
vt 0.800000 0.700000
vt 0.900000 0.700000
vt 1.000000 0.700000
vt 0.100000 0.800000
vt 0.000000 0.800000
vt 0.200000 0.800000
vt 0.300000 0.800000
vt 0.200000 0.800000
vt 0.400000 0.800000
vt 0.500000 0.800000
vt 0.600000 0.800000
vt 0.700000 0.800000
vt 0.800000 0.800000
vt 0.900000 0.800000
vt 1.000000 0.800000
vt 0.100000 0.900000
vt 0.000000 0.900000
vt 0.200000 0.900000
vt 0.300000 0.900000
vt 0.200000 0.900000
vt 0.400000 0.900000
vt 0.500000 0.900000
vt 0.600000 0.900000
vt 0.700000 0.900000
vt 0.800000 0.900000
vt 0.900000 0.900000
vt 1.000000 0.900000
vt 0.100000 1.000000
vt 0.000000 1.000000
vt 0.200000 1.000000
vt 0.300000 1.000000
vt 0.200000 1.000000
vt 0.400000 1.000000
vt 0.500000 1.000000
vt 0.600000 1.000000
vt 0.700000 1.000000
vt 0.800000 1.000000
vt 0.900000 1.000000
vt 1.000000 1.000000
s 0
f 1/1/1 2/2/1 13/3/1 12/4/1
f 2/2/2 3/5/2 14/6/2 13/3/2
f 3/5/3 4/7/3 15/8/3 14/9/3
f 4/7/4 5/10/4 16/11/4 15/8/4
f 5/10/5 6/12/5 17/13/5 16/11/5
f 6/12/6 7/14/6 18/15/6 17/13/6
f 7/14/7 8/16/7 19/17/7 18/15/7
f 8/16/8 9/18/8 20/19/8 19/17/8
f 9/18/9 10/20/9 21/21/9 20/19/9
f 10/20/10 11/22/10 22/23/10 21/21/10
f 12/4/11 13/3/11 24/24/11 23/25/11
f 13/3/12 14/6/12 25/26/12 24/24/12
f 14/6/13 15/8/13 26/27/13 25/28/13
f 15/8/14 16/11/14 27/29/14 26/27/14
f 16/11/15 17/13/15 28/30/15 27/29/15
f 17/13/16 18/15/16 29/31/16 28/30/16
f 18/15/17 19/17/17 30/32/17 29/31/17
f 19/17/18 20/19/18 31/33/18 30/32/18
f 20/19/19 21/21/19 32/34/19 31/33/19
f 21/21/20 22/23/20 33/35/20 32/34/20
f 23/36/21 24/37/21 35/38/21 34/39/21
f 24/37/22 25/40/22 36/41/22 35/38/22
f 25/40/23 26/42/23 37/43/23 36/44/23
f 26/42/24 27/45/24 38/46/24 37/43/24
f 27/45/25 28/47/25 39/48/25 38/46/25
f 28/47/26 29/49/26 40/50/26 39/48/26
f 29/49/27 30/51/27 41/52/27 40/50/27
f 30/51/28 31/53/28 42/54/28 41/52/28
f 31/53/29 32/55/29 43/56/29 42/54/29
f 32/55/30 33/57/30 44/58/30 43/56/30
f 34/39/31 35/38/31 46/59/31 45/60/31
f 35/38/32 36/41/32 47/61/32 46/59/32
f 36/41/33 37/43/33 48/62/33 47/63/33
f 37/43/34 38/46/34 49/64/34 48/62/34
f 38/46/35 39/48/35 50/65/35 49/64/35
f 39/48/36 40/50/36 51/66/36 50/65/36
f 40/50/37 41/52/37 52/67/37 51/66/37
f 41/52/38 42/54/38 53/68/38 52/67/38
f 42/54/39 43/56/39 54/69/39 53/68/39
f 43/56/40 44/58/40 55/70/40 54/69/40
f 45/60/41 46/59/41 57/71/41 56/72/41
f 46/59/42 47/61/42 58/73/42 57/71/42
f 47/61/43 48/62/43 59/74/43 58/75/43
f 48/62/44 49/64/44 60/76/44 59/74/44
f 49/64/45 50/65/45 61/77/45 60/76/45
f 50/65/46 51/66/46 62/78/46 61/77/46
f 51/66/47 52/67/47 63/79/47 62/78/47
f 52/67/48 53/68/48 64/80/48 63/79/48
f 53/68/49 54/69/49 65/81/49 64/80/49
f 54/69/50 55/70/50 66/82/50 65/81/50
f 56/72/51 57/71/51 68/83/51 67/84/51
f 57/71/52 58/73/52 69/85/52 68/83/52
f 58/73/53 59/74/53 70/86/53 69/87/53
f 59/74/54 60/76/54 71/88/54 70/86/54
f 60/76/55 61/77/55 72/89/55 71/88/55
f 61/77/56 62/78/56 73/90/56 72/89/56
f 62/78/57 63/79/57 74/91/57 73/90/57
f 63/79/58 64/80/58 75/92/58 74/91/58
f 64/80/59 65/81/59 76/93/59 75/92/59
f 65/81/60 66/82/60 77/94/60 76/93/60
f 67/84/61 68/83/61 79/95/61 78/96/61
f 68/83/62 69/85/62 80/97/62 79/95/62
f 69/85/63 70/86/63 81/98/63 80/99/63
f 70/86/64 71/88/64 82/100/64 81/98/64
f 71/88/65 72/89/65 83/101/65 82/100/65
f 72/89/66 73/90/66 84/102/66 83/101/66
f 73/90/67 74/91/67 85/103/67 84/102/67
f 74/91/68 75/92/68 86/104/68 85/103/68
f 75/92/69 76/93/69 87/105/69 86/104/69
f 76/93/70 77/94/70 88/106/70 87/105/70
f 78/96/71 79/95/71 90/107/71 89/108/71
f 79/95/72 80/97/72 91/109/72 90/107/72
f 80/97/73 81/98/73 92/110/73 91/111/73
f 81/98/74 82/100/74 93/112/74 92/110/74
f 82/100/75 83/101/75 94/113/75 93/112/75
f 83/101/76 84/102/76 95/114/76 94/113/76
f 84/102/77 85/103/77 96/115/77 95/114/77
f 85/103/78 86/104/78 97/116/78 96/115/78
f 86/104/79 87/105/79 98/117/79 97/116/79
f 87/105/80 88/106/80 99/118/80 98/117/80
f 89/108/81 90/107/81 101/119/81 100/120/81
f 90/107/82 91/109/82 102/121/82 101/119/82
f 91/109/83 92/110/83 103/122/83 102/123/83
f 92/110/84 93/112/84 104/124/84 103/122/84
f 93/112/85 94/113/85 105/125/85 104/124/85
f 94/113/86 95/114/86 106/126/86 105/125/86
f 95/114/87 96/115/87 107/127/87 106/126/87
f 96/115/88 97/116/88 108/128/88 107/127/88
f 97/116/89 98/117/89 109/129/89 108/128/89
f 98/117/90 99/118/90 110/130/90 109/129/90
f 100/120/91 101/119/91 112/131/91 111/132/91
f 101/119/92 102/121/92 113/133/92 112/131/92
f 102/121/93 103/122/93 114/134/93 113/135/93
f 103/122/94 104/124/94 115/136/94 114/134/94
f 104/124/95 105/125/95 116/137/95 115/136/95
f 105/125/96 106/126/96 117/138/96 116/137/96
f 106/126/97 107/127/97 118/139/97 117/138/97
f 107/127/98 108/128/98 119/140/98 118/139/98
f 108/128/99 109/129/99 120/141/99 119/140/99
f 109/129/100 110/130/100 121/142/100 120/141/100
o Liquid_Domain
v -6.180697 750.572937 16.899464
v -0.067700 752.436218 -17.370434
v 55.884857 807.015198 16.445623
v 31.483438 802.742004 -43.093525
v -33.680756 769.766235 0.791654
v -9.609524 825.925903 -60.227604
v -35.366554 821.927429 43.163536
v -6.398832 825.575684 61.624752
v -64.908401 830.308594 0.855190
v 64.393990 830.863525 -2.146641
v -40.316921 813.776123 -35.365822
v 7.984268 829.814819 -60.980297
v 9.612706 814.026306 60.217796
v 54.657867 983.424377 22.639257
v -38.374992 995.403076 -39.198330
v 8.784697 985.059814 -60.966492
v -53.835342 995.408813 22.207010
v 60.936703 986.643066 -9.536320
v 31.151518 986.979248 -46.422874
v -63.460732 973.840210 -3.949273
v -7.982319 969.028320 -62.061768
v 11.012504 974.400635 60.951626
v -10.591231 974.365662 61.232746
v -0.731402 1035.210449 37.170376
v 28.023481 1050.492920 -1.233124
v -6.803772 1063.961304 -7.725278
vn -0.0513 -0.8253 0.5623
vn 0.0432 -0.8241 -0.5647
vn 0.8104 -0.3811 0.4449
vn 0.4663 -0.3574 -0.8092
vn -0.7602 -0.6495 -0.0162
vn -0.2135 -0.2161 -0.9528
vn -0.6192 -0.2415 0.7472
vn -0.1804 -0.1308 0.9749
vn -0.9763 -0.2150 0.0233
vn 0.9578 -0.2102 -0.1962
vn -0.6494 -0.2857 -0.7047
vn 0.1953 -0.1576 -0.9680
vn 0.1787 -0.2661 0.9472
vn 0.7780 0.2294 0.5850
vn -0.5799 0.3141 -0.7517
vn 0.1287 0.2420 -0.9617
vn -0.7925 0.3251 0.5160
vn 0.9216 0.2390 -0.3058
vn 0.5950 0.2554 -0.7620
vn -0.9467 0.2528 -0.1997
vn -0.2051 0.0918 -0.9744
vn 0.2380 0.1535 0.9591
vn -0.2160 0.1513 0.9646
vn 0.0066 0.5661 0.8243
vn 0.6366 0.7712 -0.0086
vn -0.2120 0.9025 -0.3749
s 1
usemtl Liquid_Domain_Material
f 134//113 122//101 124//103
f 122//101 123//102 124//103
f 123//102 122//101 126//105
f 123//102 125//104 124//103
f 123//102 126//105 132//111
f 123//102 132//111 127//106
f 134//113 129//108 122//101
f 126//105 128//107 130//109
f 122//101 128//107 126//105
f 132//111 126//105 130//109
f 124//103 125//104 131//110
f 123//102 127//106 125//104
f 128//107 122//101 129//108
f 127//106 133//112 125//104
f 139//118 131//110 125//104
f 130//109 136//115 132//111
f 133//112 137//116 125//104
f 124//103 135//114 134//113
f 128//107 138//117 130//109
f 135//114 131//110 139//118
f 139//118 125//104 140//119
f 132//111 136//115 127//106
f 125//104 137//116 140//119
f 131//110 135//114 124//103
f 128//107 129//108 144//123
f 128//107 144//123 138//117
f 134//113 135//114 143//122
f 130//109 141//120 136//115
f 127//106 142//121 133//112
f 129//108 134//113 144//123
f 141//120 130//109 138//117
f 134//113 143//122 144//123
f 127//106 136//115 142//121
f 133//112 142//121 137//116
f 144//123 143//122 145//124
f 144//123 145//124 138//117
f 141//120 138//117 136//115
f 142//121 136//115 137//116
f 135//114 145//124 143//122
f 135//114 146//125 145//124
f 135//114 139//118 146//125
f 146//125 139//118 140//119
f 136//115 138//117 147//126
f 137//116 146//125 140//119
f 136//115 147//126 137//116
f 147//126 146//125 137//116
f 138//117 145//124 147//126
f 145//124 146//125 147//126
o 平面
v -2.000000 -34.730400 2.000000
v 2.000000 -34.730400 2.000000
v -2.000000 -34.730400 -2.000000
v 2.000000 -34.730400 -2.000000
vn -0.0000 1.0000 -0.0000
vt 0.000000 0.000000
vt 1.000000 0.000000
vt 1.000000 1.000000
vt 0.000000 1.000000
s 0
f 148/143/127 149/144/127 151/145/127 150/146/127
