# Blender 4.1.1
# www.blender.org
mtllib bb0082.mtl
o グリッド
v 2.059399 800.225159 -10.319732
v 0.897527 800.588867 -9.727728
v -0.264345 800.844727 -9.135725
v -1.426218 800.973694 -8.543721
v -2.588090 801.014587 -7.951717
v -3.749962 801.020508 -7.359714
v -4.911835 801.014587 -6.767710
v -6.073707 800.973694 -6.175707
v -7.235579 800.844727 -5.583704
v -8.397451 800.588867 -4.991700
v -9.559323 800.225159 -4.399696
v 2.809392 800.588867 -8.847789
v 1.647519 800.903809 -8.255785
v 0.485647 801.020508 -7.663782
v -0.676225 800.979126 -7.071778
v -1.838097 800.887939 -6.479774
v -2.999970 800.845154 -5.887771
v -4.161842 800.887939 -5.295767
v -5.323714 800.979126 -4.703764
v -6.485587 801.020508 -4.111761
v -7.647459 800.903809 -3.519757
v -8.809331 800.588867 -2.927753
v 3.559384 800.844727 -7.375846
v 2.397512 801.020508 -6.783843
v 1.235640 800.924438 -6.191839
v 0.073767 800.677185 -5.599836
v -1.088105 800.448914 -5.007832
v -2.249977 800.359619 -4.415829
v -3.411850 800.448914 -3.823825
v -4.573722 800.677185 -3.231822
v -5.735594 800.924438 -2.639818
v -6.897467 801.020508 -2.047814
v -8.059339 800.844727 -1.455811
v 4.309377 800.973694 -5.903903
v 3.147504 800.979126 -5.311899
v 1.985632 800.677185 -4.719896
v 0.823760 800.264038 -4.127892
v -0.338112 800.059326 -3.535889
v -1.499985 800.189026 -2.943885
v -2.661857 800.059326 -2.351882
v -3.823729 800.264038 -1.759878
v -4.985601 800.677185 -1.167875
v -6.147474 800.979126 -0.575871
v -7.309346 800.973694 0.016132
v 5.059369 801.014587 -4.431960
v 3.897497 800.887939 -3.839957
v 2.735625 800.448914 -3.247953
v 1.573752 800.059326 -2.655950
v 0.411880 800.512146 -2.063946
v -0.749992 800.718384 -1.471943
v -1.911865 800.512146 -0.879939
v -3.073737 800.059326 -0.287936
v -4.235609 800.448914 0.304068
v -5.397482 800.887939 0.896072
v -6.559354 801.014587 1.488075
v 5.809361 801.020508 -2.960018
v 4.647489 800.845154 -2.368014
v 3.485617 800.359619 -1.776011
v 2.323745 800.189026 -1.184007
v 1.161872 800.718384 -0.592004
v 0.000000 801.011292 0.000000
v -1.161873 800.718384 0.592004
v -2.323745 800.189026 1.184007
v -3.485617 800.359619 1.776011
v -4.647490 800.845154 2.368014
v -5.809361 801.020508 2.960018
v 6.559354 801.014587 -1.488075
v 5.397482 800.887939 -0.896071
v 4.235610 800.448914 -0.304067
v 3.073737 800.059326 0.287936
v 1.911865 800.512146 0.879940
v 0.749993 800.718384 1.471943
v -0.411880 800.512146 2.063947
v -1.573752 800.059326 2.655950
v -2.735624 800.448914 3.247954
v -3.897497 800.887939 3.839957
v -5.059369 801.014587 4.431961
v 7.309346 800.973694 -0.016132
v 6.147474 800.979126 0.575871
v 4.985601 800.677185 1.167875
v 3.823729 800.264038 1.759878
v 2.661857 800.059326 2.351882
v 1.499985 800.189026 2.943885
v 0.338112 800.059326 3.535889
v -0.823760 800.264038 4.127892
v -1.985632 800.677185 4.719896
v -3.147505 800.979126 5.311900
v -4.309377 800.973694 5.903903
v 8.059339 800.844727 1.455811
v 6.897467 801.020508 2.047815
v 5.735594 800.924438 2.639818
v 4.573722 800.677185 3.231822
v 3.411849 800.448914 3.823825
v 2.249977 800.359619 4.415829
v 1.088105 800.448914 5.007833
v -0.073767 800.677185 5.599836
v -1.235640 800.924438 6.191839
v -2.397512 801.020508 6.783843
v -3.559384 800.844727 7.375846
v 8.809332 800.588867 2.927754
v 7.647459 800.903809 3.519758
v 6.485587 801.020508 4.111761
v 5.323714 800.979126 4.703764
v 4.161842 800.887939 5.295768
v 2.999970 800.845154 5.887772
v 1.838097 800.887939 6.479775
v 0.676225 800.979126 7.071779
v -0.485647 801.020508 7.663782
v -1.647520 800.903809 8.255786
v -2.809391 800.588867 8.847790
v 9.559323 800.225159 4.399696
v 8.397451 800.588867 4.991700
v 7.235579 800.844727 5.583704
v 6.073707 800.973694 6.175707
v 4.911834 801.014587 6.767711
v 3.749962 801.020508 7.359714
v 2.588089 801.014587 7.951718
v 1.426218 800.973694 8.543721
v 0.264345 800.844727 9.135725
v -0.897527 800.588867 9.727728
v -2.059399 800.225159 10.319732
vn 0.1316 0.9492 -0.2859
vn 0.0586 0.9794 -0.1931
vn 0.0050 0.9979 -0.0640
vn -0.0005 0.9991 0.0414
vn 0.0288 0.9957 0.0875
vn 0.0539 0.9957 0.0747
vn 0.0338 0.9991 0.0239
vn -0.0547 0.9979 -0.0336
vn -0.1907 0.9794 -0.0661
vn -0.3086 0.9492 -0.0616
vn 0.1137 0.9768 -0.1816
vn 0.0042 0.9999 -0.0091
vn -0.0433 0.9869 0.1555
vn -0.0071 0.9689 0.2475
vn 0.0788 0.9619 0.2619
vn 0.1656 0.9619 0.2177
vn 0.2044 0.9689 0.1397
vn 0.1513 0.9869 0.0563
vn -0.0099 0.9999 -0.0020
vn -0.2138 0.9768 -0.0147
vn 0.0497 0.9972 -0.0550
vn -0.0949 0.9849 0.1449
vn -0.1284 0.9517 0.2789
vn -0.0361 0.9593 0.2800
vn 0.0895 0.9858 0.1420
vn 0.0623 0.9858 0.1559
vn 0.2477 0.9593 0.1354
vn 0.3011 0.9517 0.0601
vn 0.1730 0.9849 0.0084
vn -0.0737 0.9972 0.0079
vn -0.0345 0.9988 0.0346
vn -0.2004 0.9578 0.2060
vn -0.2037 0.9483 0.2432
vn 0.0503 0.9927 -0.1093
vn -0.0192 0.9513 -0.3076
vn -0.2376 0.9513 -0.1963
vn -0.1180 0.9927 -0.0235
vn 0.3165 0.9483 -0.0218
vn 0.2845 0.9578 -0.0410
vn 0.0483 0.9988 -0.0076
vn -0.0975 0.9933 0.0621
vn -0.2804 0.9419 0.1851
vn -0.1925 0.9776 0.0847
vn 0.2696 0.9316 -0.2437
vn 0.0990 0.9715 -0.2152
vn -0.2323 0.9715 -0.0464
vn -0.3556 0.9316 0.0749
vn 0.1817 0.9776 -0.1060
vn 0.3146 0.9419 -0.1180
vn 0.1075 0.9933 -0.0423
vn -0.1075 0.9933 0.0423
vn -0.3146 0.9419 0.1180
vn -0.1817 0.9776 0.1060
vn 0.3556 0.9316 -0.0749
vn 0.2323 0.9715 0.0464
vn -0.0990 0.9715 0.2152
vn -0.2696 0.9316 0.2437
vn 0.1925 0.9776 -0.0847
vn 0.2804 0.9419 -0.1851
vn 0.0975 0.9933 -0.0621
vn -0.0483 0.9988 0.0076
vn -0.2845 0.9578 0.0410
vn -0.3165 0.9483 0.0218
vn 0.1180 0.9927 0.0235
vn 0.2376 0.9513 0.1963
vn 0.0192 0.9513 0.3076
vn -0.0503 0.9927 0.1093
vn 0.2037 0.9483 -0.2432
vn 0.2004 0.9578 -0.2060
vn 0.0345 0.9988 -0.0346
vn 0.0737 0.9972 -0.0079
vn -0.1730 0.9849 -0.0084
vn -0.3011 0.9517 -0.0601
vn -0.2477 0.9593 -0.1354
vn -0.0623 0.9858 -0.1559
vn -0.0895 0.9858 -0.1420
vn 0.0361 0.9593 -0.2800
vn 0.1284 0.9517 -0.2789
vn 0.0949 0.9849 -0.1449
vn -0.0497 0.9972 0.0550
vn 0.2138 0.9768 0.0147
vn 0.0099 0.9999 0.0020
vn -0.1513 0.9869 -0.0563
vn -0.2044 0.9689 -0.1397
vn -0.1656 0.9619 -0.2177
vn -0.0788 0.9619 -0.2619
vn 0.0071 0.9689 -0.2475
vn 0.0433 0.9869 -0.1555
vn -0.0042 0.9999 0.0091
vn -0.1137 0.9768 0.1816
vn 0.3086 0.9492 0.0616
vn 0.1907 0.9794 0.0661
vn 0.0547 0.9979 0.0336
vn -0.0338 0.9991 -0.0239
vn -0.0539 0.9957 -0.0747
vn -0.0288 0.9957 -0.0875
vn 0.0005 0.9991 -0.0414
vn -0.0050 0.9979 0.0640
vn -0.0586 0.9794 0.1931
vn -0.1316 0.9492 0.2859
vt 0.000000 0.000000
vt 0.100000 0.000000
vt 0.100000 0.100000
vt 0.000000 0.100000
vt 0.200000 0.000000
vt 0.200000 0.100000
vt 0.300000 0.000000
vt 0.300000 0.100000
vt 0.200000 0.100000
vt 0.400000 0.000000
vt 0.400000 0.100000
vt 0.500000 0.000000
vt 0.500000 0.100000
vt 0.600000 0.000000
vt 0.600000 0.100000
vt 0.700000 0.000000
vt 0.700000 0.100000
vt 0.800000 0.000000
vt 0.800000 0.100000
vt 0.900000 0.000000
vt 0.900000 0.100000
vt 1.000000 0.000000
vt 1.000000 0.100000
vt 0.100000 0.200000
vt 0.000000 0.200000
vt 0.200000 0.200000
vt 0.300000 0.200000
vt 0.200000 0.200000
vt 0.400000 0.200000
vt 0.500000 0.200000
vt 0.600000 0.200000
vt 0.700000 0.200000
vt 0.800000 0.200000
vt 0.900000 0.200000
vt 1.000000 0.200000
vt 0.000000 0.200000
vt 0.100000 0.200000
vt 0.100000 0.300000
vt 0.000000 0.300000
vt 0.200000 0.200000
vt 0.200000 0.300000
vt 0.300000 0.200000
vt 0.300000 0.300000
vt 0.200000 0.300000
vt 0.400000 0.200000
vt 0.400000 0.300000
vt 0.500000 0.200000
vt 0.500000 0.300000
vt 0.600000 0.200000
vt 0.600000 0.300000
vt 0.700000 0.200000
vt 0.700000 0.300000
vt 0.800000 0.200000
vt 0.800000 0.300000
vt 0.900000 0.200000
vt 0.900000 0.300000
vt 1.000000 0.200000
vt 1.000000 0.300000
vt 0.100000 0.400000
vt 0.000000 0.400000
vt 0.200000 0.400000
vt 0.300000 0.400000
vt 0.200000 0.400000
vt 0.400000 0.400000
vt 0.500000 0.400000
vt 0.600000 0.400000
vt 0.700000 0.400000
vt 0.800000 0.400000
vt 0.900000 0.400000
vt 1.000000 0.400000
vt 0.100000 0.500000
vt 0.000000 0.500000
vt 0.200000 0.500000
vt 0.300000 0.500000
vt 0.200000 0.500000
vt 0.400000 0.500000
vt 0.500000 0.500000
vt 0.600000 0.500000
vt 0.700000 0.500000
vt 0.800000 0.500000
vt 0.900000 0.500000
vt 1.000000 0.500000
vt 0.100000 0.600000
vt 0.000000 0.600000
vt 0.200000 0.600000
vt 0.300000 0.600000
vt 0.200000 0.600000
vt 0.400000 0.600000
vt 0.500000 0.600000
vt 0.600000 0.600000
vt 0.700000 0.600000
vt 0.800000 0.600000
vt 0.900000 0.600000
vt 1.000000 0.600000
vt 0.100000 0.700000
vt 0.000000 0.700000
vt 0.200000 0.700000
vt 0.300000 0.700000
vt 0.200000 0.700000
vt 0.400000 0.700000
vt 0.500000 0.700000
vt 0.600000 0.700000
vt 0.700000 0.700000
vt 0.800000 0.700000
vt 0.900000 0.700000
vt 1.000000 0.700000
vt 0.100000 0.800000
vt 0.000000 0.800000
vt 0.200000 0.800000
vt 0.300000 0.800000
vt 0.200000 0.800000
vt 0.400000 0.800000
vt 0.500000 0.800000
vt 0.600000 0.800000
vt 0.700000 0.800000
vt 0.800000 0.800000
vt 0.900000 0.800000
vt 1.000000 0.800000
vt 0.100000 0.900000
vt 0.000000 0.900000
vt 0.200000 0.900000
vt 0.300000 0.900000
vt 0.200000 0.900000
vt 0.400000 0.900000
vt 0.500000 0.900000
vt 0.600000 0.900000
vt 0.700000 0.900000
vt 0.800000 0.900000
vt 0.900000 0.900000
vt 1.000000 0.900000
vt 0.100000 1.000000
vt 0.000000 1.000000
vt 0.200000 1.000000
vt 0.300000 1.000000
vt 0.200000 1.000000
vt 0.400000 1.000000
vt 0.500000 1.000000
vt 0.600000 1.000000
vt 0.700000 1.000000
vt 0.800000 1.000000
vt 0.900000 1.000000
vt 1.000000 1.000000
s 0
f 1/1/1 2/2/1 13/3/1 12/4/1
f 2/2/2 3/5/2 14/6/2 13/3/2
f 3/5/3 4/7/3 15/8/3 14/9/3
f 4/7/4 5/10/4 16/11/4 15/8/4
f 5/10/5 6/12/5 17/13/5 16/11/5
f 6/12/6 7/14/6 18/15/6 17/13/6
f 7/14/7 8/16/7 19/17/7 18/15/7
f 8/16/8 9/18/8 20/19/8 19/17/8
f 9/18/9 10/20/9 21/21/9 20/19/9
f 10/20/10 11/22/10 22/23/10 21/21/10
f 12/4/11 13/3/11 24/24/11 23/25/11
f 13/3/12 14/6/12 25/26/12 24/24/12
f 14/6/13 15/8/13 26/27/13 25/28/13
f 15/8/14 16/11/14 27/29/14 26/27/14
f 16/11/15 17/13/15 28/30/15 27/29/15
f 17/13/16 18/15/16 29/31/16 28/30/16
f 18/15/17 19/17/17 30/32/17 29/31/17
f 19/17/18 20/19/18 31/33/18 30/32/18
f 20/19/19 21/21/19 32/34/19 31/33/19
f 21/21/20 22/23/20 33/35/20 32/34/20
f 23/36/21 24/37/21 35/38/21 34/39/21
f 24/37/22 25/40/22 36/41/22 35/38/22
f 25/40/23 26/42/23 37/43/23 36/44/23
f 26/42/24 27/45/24 38/46/24 37/43/24
f 27/45/25 28/47/25 39/48/25 38/46/25
f 28/47/26 29/49/26 40/50/26 39/48/26
f 29/49/27 30/51/27 41/52/27 40/50/27
f 30/51/28 31/53/28 42/54/28 41/52/28
f 31/53/29 32/55/29 43/56/29 42/54/29
f 32/55/30 33/57/30 44/58/30 43/56/30
f 34/39/31 35/38/31 46/59/31 45/60/31
f 35/38/32 36/41/32 47/61/32 46/59/32
f 36/41/33 37/43/33 48/62/33 47/63/33
f 37/43/34 38/46/34 49/64/34 48/62/34
f 38/46/35 39/48/35 50/65/35 49/64/35
f 39/48/36 40/50/36 51/66/36 50/65/36
f 40/50/37 41/52/37 52/67/37 51/66/37
f 41/52/38 42/54/38 53/68/38 52/67/38
f 42/54/39 43/56/39 54/69/39 53/68/39
f 43/56/40 44/58/40 55/70/40 54/69/40
f 45/60/41 46/59/41 57/71/41 56/72/41
f 46/59/42 47/61/42 58/73/42 57/71/42
f 47/61/43 48/62/43 59/74/43 58/75/43
f 48/62/44 49/64/44 60/76/44 59/74/44
f 49/64/45 50/65/45 61/77/45 60/76/45
f 50/65/46 51/66/46 62/78/46 61/77/46
f 51/66/47 52/67/47 63/79/47 62/78/47
f 52/67/48 53/68/48 64/80/48 63/79/48
f 53/68/49 54/69/49 65/81/49 64/80/49
f 54/69/50 55/70/50 66/82/50 65/81/50
f 56/72/51 57/71/51 68/83/51 67/84/51
f 57/71/52 58/73/52 69/85/52 68/83/52
f 58/73/53 59/74/53 70/86/53 69/87/53
f 59/74/54 60/76/54 71/88/54 70/86/54
f 60/76/55 61/77/55 72/89/55 71/88/55
f 61/77/56 62/78/56 73/90/56 72/89/56
f 62/78/57 63/79/57 74/91/57 73/90/57
f 63/79/58 64/80/58 75/92/58 74/91/58
f 64/80/59 65/81/59 76/93/59 75/92/59
f 65/81/60 66/82/60 77/94/60 76/93/60
f 67/84/61 68/83/61 79/95/61 78/96/61
f 68/83/62 69/85/62 80/97/62 79/95/62
f 69/85/63 70/86/63 81/98/63 80/99/63
f 70/86/64 71/88/64 82/100/64 81/98/64
f 71/88/65 72/89/65 83/101/65 82/100/65
f 72/89/66 73/90/66 84/102/66 83/101/66
f 73/90/67 74/91/67 85/103/67 84/102/67
f 74/91/68 75/92/68 86/104/68 85/103/68
f 75/92/69 76/93/69 87/105/69 86/104/69
f 76/93/70 77/94/70 88/106/70 87/105/70
f 78/96/71 79/95/71 90/107/71 89/108/71
f 79/95/72 80/97/72 91/109/72 90/107/72
f 80/97/73 81/98/73 92/110/73 91/111/73
f 81/98/74 82/100/74 93/112/74 92/110/74
f 82/100/75 83/101/75 94/113/75 93/112/75
f 83/101/76 84/102/76 95/114/76 94/113/76
f 84/102/77 85/103/77 96/115/77 95/114/77
f 85/103/78 86/104/78 97/116/78 96/115/78
f 86/104/79 87/105/79 98/117/79 97/116/79
f 87/105/80 88/106/80 99/118/80 98/117/80
f 89/108/81 90/107/81 101/119/81 100/120/81
f 90/107/82 91/109/82 102/121/82 101/119/82
f 91/109/83 92/110/83 103/122/83 102/123/83
f 92/110/84 93/112/84 104/124/84 103/122/84
f 93/112/85 94/113/85 105/125/85 104/124/85
f 94/113/86 95/114/86 106/126/86 105/125/86
f 95/114/87 96/115/87 107/127/87 106/126/87
f 96/115/88 97/116/88 108/128/88 107/127/88
f 97/116/89 98/117/89 109/129/89 108/128/89
f 98/117/90 99/118/90 110/130/90 109/129/90
f 100/120/91 101/119/91 112/131/91 111/132/91
f 101/119/92 102/121/92 113/133/92 112/131/92
f 102/121/93 103/122/93 114/134/93 113/135/93
f 103/122/94 104/124/94 115/136/94 114/134/94
f 104/124/95 105/125/95 116/137/95 115/136/95
f 105/125/96 106/126/96 117/138/96 116/137/96
f 106/126/97 107/127/97 118/139/97 117/138/97
f 107/127/98 108/128/98 119/140/98 118/139/98
f 108/128/99 109/129/99 120/141/99 119/140/99
f 109/129/100 110/130/100 121/142/100 120/141/100
o Liquid_Domain
v -0.957308 745.067261 5.066966
v -0.067692 752.436157 -17.370539
v 16.029512 787.641907 41.477329
v 44.319073 786.455444 11.057091
v -38.578087 787.606506 -21.290054
v 21.423864 780.244568 -33.675552
v -8.152143 825.764282 -60.727543
v -12.226723 826.070190 60.168846
v 6.894183 825.317261 61.602982
v -24.124796 771.624023 26.264748
v -62.923885 828.856567 -6.532312
v 60.233868 829.090698 10.908529
v 60.280277 829.063721 -10.702618
v 6.027258 829.010132 -61.397064
v 28.017662 829.004517 -49.516659
v 35.122787 836.353149 44.102772
v -50.027859 834.555969 28.437883
v -33.418152 834.122314 -44.638508
v -42.672203 1245.591309 37.969578
v -0.533680 1368.214111 63.990559
v -61.076893 1350.447632 15.408399
v 68.332001 1375.168945 1.782979
v -63.388191 1353.749634 -9.538281
v 14.932882 1241.556641 60.561298
v 35.005184 1224.598145 45.024086
v 56.835197 1280.181641 20.299206
v 63.888432 1230.710205 -7.870659
v 16.941956 1240.444336 -58.519810
v -0.722862 1240.032104 -66.494720
v -15.216046 1223.553955 60.512405
v -16.092356 1236.913574 -58.572250
v 42.171032 1399.147583 -38.805218
v -43.244396 1398.734009 -37.354439
v -17.827250 1409.613037 60.851616
v 59.696133 1409.770020 -18.301764
v -52.055241 1400.698242 30.120977
v -17.290554 1410.780762 -60.452271
v 16.995680 1405.253662 -60.206341
v 1.013105 1382.457031 -70.049599
v 18.725685 1403.602905 60.103786
v -67.555099 1411.055542 -2.146589
v -0.058815 1384.463867 70.602043
v 51.321747 1401.042603 31.281494
v 62.506153 1419.739258 37.470486
v 32.158146 1423.912109 72.544113
v 110.025948 1430.247803 36.096241
v 52.691540 1423.692627 -57.935863
v -47.804970 1437.945801 136.470444
v 49.166588 1435.596191 124.555191
v -59.168289 1431.113892 92.196190
v 106.772430 1447.670410 83.755165
v -73.184120 1423.468506 32.771538
v -130.526672 1436.936890 51.019024
v 147.538528 1438.492432 39.971523
v -83.524414 1426.535645 -29.978228
v -144.466507 1436.405273 -39.142982
v -95.885384 1443.484131 -77.986084
v 89.820480 1435.333008 -66.695740
v -24.840145 1428.353638 -101.264168
v 46.639099 1437.698608 -139.552567
v -55.395767 1441.032227 -139.516525
v -52.674248 1458.268555 166.410339
v -0.853436 1455.099609 166.087143
v 52.996201 1455.605469 156.925079
v -109.951912 1456.918335 83.867371
v -165.198471 1456.920166 48.381474
v 162.102814 1455.733521 54.074280
v 177.577866 1467.022949 3.602531
v 158.565308 1454.700928 -46.368626
v -150.816040 1466.277710 -68.691177
v 99.425629 1454.608398 -84.042328
v 50.145119 1457.926025 -171.003479
v -40.711105 1454.323730 -170.975357
v -88.787178 1469.364624 117.119682
v 93.700043 1470.986816 110.059250
v -175.765167 1453.320801 -35.576550
v -97.708046 1471.814575 -90.958763
v -52.470173 1472.108398 -175.376312
v -47.142979 1472.759766 172.471802
v 4.725518 1472.476562 171.238022
v 54.314404 1472.258667 164.114563
v 157.809967 1478.470215 61.745792
v -142.866577 1472.529053 70.654953
v -163.660797 1480.052002 53.291523
v -182.763199 1473.093262 -40.323635
v 160.951477 1474.518555 -50.962330
v 102.449265 1474.313110 -87.054703
v -49.925335 1481.995605 146.963669
v 53.742943 1481.226074 138.847183
v 80.045403 1482.212891 -83.415627
v 158.380554 1481.320312 -13.912751
v -148.651596 1481.475342 -54.174988
v -70.010826 1481.965576 -96.998474
v -50.389297 1480.818115 -158.095856
v 51.435738 1476.169312 -174.689667
vn -0.0207 -0.9888 0.1480
vn 0.0118 -0.8294 -0.5586
vn 0.2637 -0.4874 0.8324
vn 0.7896 -0.5480 0.2761
vn -0.6760 -0.4939 -0.5469
vn 0.3831 -0.5143 -0.7673
vn -0.2044 -0.2166 -0.9546
vn -0.2705 -0.1962 0.9425
vn 0.1518 -0.1847 0.9710
vn -0.4520 -0.5869 0.6717
vn -0.9636 -0.2278 -0.1398
vn 0.9190 -0.1722 0.3546
vn 0.9039 -0.2135 -0.3708
vn 0.1714 -0.1618 -0.9718
vn 0.5812 -0.1635 -0.7971
vn 0.6538 -0.1261 0.7461
vn -0.7889 -0.1589 0.5936
vn -0.6454 -0.1375 -0.7513
vn -0.7068 -0.0056 0.7074
vn 0.0028 -0.0568 0.9984
vn -0.9228 -0.0120 0.3851
vn 0.9866 0.1242 0.1054
vn -0.9438 -0.0150 -0.3303
vn 0.3706 -0.0054 0.9288
vn 0.6761 -0.0078 0.7368
vn 0.8180 -0.0103 0.5752
vn 0.8797 -0.0053 -0.4755
vn 0.5120 -0.0090 -0.8590
vn -0.0139 -0.0153 -0.9998
vn -0.3833 -0.0045 0.9236
vn -0.5353 -0.0062 -0.8447
vn 0.7302 -0.2800 -0.6232
vn -0.6638 -0.2761 -0.6951
vn -0.3077 -0.4001 0.8633
vn 0.9543 0.0784 -0.2885
vn -0.7467 -0.3016 0.5929
vn -0.3064 -0.3944 -0.8664
vn 0.2351 0.0337 -0.9714
vn 0.0145 0.0673 -0.9976
vn 0.3312 -0.2562 0.9081
vn -0.9134 -0.4070 -0.0072
vn -0.0004 -0.0664 0.9978
vn 0.8284 -0.2623 0.4949
vn 0.4828 -0.8196 0.3085
vn 0.1394 -0.8779 0.4581
vn 0.2175 -0.9710 0.0993
vn 0.3162 -0.8495 -0.4224
vn -0.3297 -0.8682 0.3708
vn 0.2336 -0.9001 0.3677
vn -0.2734 -0.8723 0.4053
vn 0.5120 -0.6511 0.5602
vn -0.4284 -0.8698 0.2446
vn -0.3677 -0.8616 0.3500
vn 0.4602 -0.8713 0.1704
vn -0.3601 -0.9089 -0.2102
vn -0.3351 -0.8927 -0.3013
vn -0.3863 -0.7311 -0.5623
vn 0.3501 -0.8784 -0.3252
vn -0.1025 -0.9701 -0.2199
vn 0.3035 -0.8702 -0.3880
vn -0.4379 -0.7879 -0.4329
vn -0.4090 -0.4005 0.8200
vn 0.0542 -0.5095 0.8587
vn 0.4060 -0.5578 0.7239
vn -0.4749 -0.6282 0.6163
vn -0.7892 -0.4433 0.4250
vn 0.7303 -0.3958 0.5568
vn 0.9987 0.0466 -0.0195
vn 0.6641 -0.5848 -0.4658
vn -0.4989 0.0038 -0.8667
vn 0.6310 -0.4610 -0.6240
vn 0.3241 -0.4100 -0.8526
vn -0.1844 -0.5166 -0.8361
vn -0.7162 -0.2127 0.6647
vn 0.6850 -0.0667 0.7255
vn -0.7551 -0.6282 -0.1877
vn -0.6340 0.2456 -0.7333
vn -0.2846 0.1137 -0.9519
vn -0.1749 0.1239 0.9768
vn 0.0842 0.1424 0.9862
vn 0.3101 0.1362 0.9409
vn 0.5778 0.4330 0.6918
vn -0.5939 -0.1922 0.7812
vn -0.6642 0.5581 0.4973
vn -0.8402 0.3481 -0.4157
vn 0.6425 0.3603 -0.6763
vn 0.6502 0.4084 -0.6407
vn -0.2445 0.9313 0.2698
vn 0.2114 0.9545 0.2105
vn 0.1265 0.9831 -0.1321
vn 0.3499 0.9356 -0.0463
vn -0.2563 0.8967 -0.3608
vn -0.1709 0.9771 -0.1266
vn -0.2831 0.9210 -0.2677
vn 0.2604 0.2067 -0.9431
s 1
usemtl Liquid_Domain_Material
f 124//103 131//110 122//101
f 124//103 122//101 125//104
f 131//110 126//105 122//101
f 122//101 123//102 125//104
f 123//102 122//101 126//105
f 123//102 127//106 125//104
f 123//102 126//105 128//107
f 124//103 130//109 131//110
f 131//110 132//111 126//105
f 133//112 125//104 134//113
f 125//104 127//106 134//113
f 123//102 128//107 127//106
f 129//108 131//110 130//109
f 128//107 135//114 127//106
f 136//115 127//106 135//114
f 131//110 129//108 138//117
f 125//104 137//116 124//103
f 131//110 138//117 132//111
f 134//113 127//106 136//115
f 128//107 126//105 139//118
f 124//103 137//116 130//109
f 133//112 137//116 125//104
f 126//105 132//111 139//118
f 132//111 154//133 139//118
f 129//108 130//109 141//120
f 142//121 132//111 138//117
f 133//112 134//113 143//122
f 138//117 129//108 140//119
f 135//114 149//128 136//115
f 146//125 130//109 137//116
f 145//124 130//109 146//125
f 143//122 134//113 148//127
f 128//107 152//131 150//129
f 128//107 150//129 135//114
f 137//116 133//112 147//126
f 134//113 136//115 153//132
f 139//118 152//131 128//107
f 139//118 154//133 152//131
f 137//116 147//126 146//125
f 133//112 143//122 147//126
f 141//120 130//109 145//124
f 153//132 148//127 134//113
f 129//108 141//120 151//130
f 138//117 140//119 142//121
f 132//111 144//123 154//133
f 150//129 149//128 135//114
f 129//108 151//130 140//119
f 132//111 142//121 144//123
f 136//115 149//128 153//132
f 146//125 147//126 164//143
f 151//130 141//120 155//134
f 151//130 155//134 140//119
f 146//125 161//140 145//124
f 146//125 164//143 161//140
f 148//127 153//132 156//135
f 160//139 149//128 150//129
f 140//119 157//136 142//121
f 143//122 148//127 156//135
f 158//137 152//131 154//133
f 149//128 159//138 153//132
f 152//131 158//137 160//139
f 150//129 152//131 160//139
f 159//138 149//128 160//139
f 161//140 141//120 145//124
f 155//134 157//136 140//119
f 164//143 147//126 143//122
f 142//121 162//141 144//123
f 155//134 141//120 163//142
f 163//142 141//120 161//140
f 142//121 157//136 162//141
f 144//123 162//141 154//133
f 163//142 161//140 155//134
f 164//143 143//122 156//135
f 160//139 158//137 159//138
f 161//140 166//145 155//134
f 157//136 155//134 173//152
f 166//145 161//140 164//143
f 166//145 164//143 165//144
f 157//136 173//152 162//141
f 165//144 164//143 156//135
f 154//133 162//141 176//155
f 153//132 168//147 156//135
f 154//133 176//155 158//137
f 159//138 168//147 153//132
f 168//147 159//138 158//137
f 166//145 171//150 155//134
f 155//134 171//150 173//152
f 167//146 166//145 165//144
f 162//141 173//152 176//155
f 165//144 156//135 168//147
f 167//146 165//144 168//147
f 176//155 180//159 158//137
f 168//147 158//137 180//159
f 170//149 169//148 171//150
f 166//145 170//149 171//150
f 167//146 170//149 166//145
f 172//151 170//149 167//146
f 173//152 171//150 174//153
f 172//151 167//146 175//154
f 174//153 177//156 176//155
f 173//152 174//153 176//155
f 167//146 168//147 179//158
f 179//158 175//154 167//146
f 178//157 176//155 177//156
f 180//159 176//155 178//157
f 168//147 180//159 181//160
f 179//158 168//147 181//160
f 180//159 178//157 182//161
f 181//160 180//159 182//161
f 183//162 169//148 184//163
f 170//149 184//163 169//148
f 185//164 184//163 170//149
f 195//174 169//148 183//162
f 170//149 172//151 185//164
f 195//174 186//165 171//150
f 169//148 195//174 171//150
f 171//150 186//165 174//153
f 187//166 174//153 186//165
f 172//151 175//154 188//167
f 174//153 187//166 197//176
f 188//167 175//154 189//168
f 174//153 197//176 177//156
f 190//169 189//168 175//154
f 190//169 175//154 179//158
f 197//176 191//170 177//156
f 191//170 178//157 177//156
f 190//169 179//158 192//171
f 181//160 192//171 179//158
f 193//172 192//171 181//160
f 181//160 182//161 194//173
f 193//172 181//160 194//173
f 185//164 172//151 196//175
f 198//177 178//157 191//170
f 199//178 182//161 178//157
f 194//173 182//161 199//178
f 201//180 200//179 183//162
f 184//163 201//180 183//162
f 185//164 201//180 184//163
f 185//164 202//181 201//180
f 183//162 200//179 195//174
f 202//181 185//164 196//175
f 204//183 186//165 195//174
f 172//151 203//182 196//175
f 204//183 187//166 186//165
f 188//167 203//182 172//151
f 187//166 204//183 205//184
f 203//182 188//167 189//168
f 187//166 205//184 197//176
f 205//184 206//185 197//176
f 189//168 190//169 207//186
f 191//170 197//176 206//185
f 190//169 192//171 207//186
f 192//171 208//187 207//186
f 192//171 193//172 208//187
f 208//187 193//172 216//195
f 198//177 199//178 178//157
f 193//172 194//173 216//195
f 194//173 199//178 216//195
f 201//180 209//188 200//179
f 201//180 210//189 209//188
f 202//181 210//189 201//180
f 195//174 200//179 209//188
f 202//181 196//175 210//189
f 209//188 204//183 195//174
f 209//188 205//184 204//183
f 196//175 203//182 210//189
f 203//182 209//188 210//189
f 203//182 189//168 212//191
f 209//188 214//193 205//184
f 211//190 214//193 209//188
f 214//193 213//192 205//184
f 203//182 212//191 209//188
f 209//188 212//191 211//190
f 205//184 213//192 206//185
f 189//168 207//186 212//191
f 191//170 206//185 213//192
f 207//186 211//190 212//191
f 207//186 208//187 211//190
f 213//192 198//177 191//170
f 198//177 213//192 214//193
f 214//193 215//194 198//177
f 211//190 215//194 214//193
f 216//195 215//194 211//190
f 211//190 208//187 216//195
f 199//178 198//177 215//194
f 216//195 199//178 215//194
o 平面
v -2.000000 -35.435863 2.000000
v 2.000000 -35.435863 2.000000
v -2.000000 -35.435863 -2.000000
v 2.000000 -35.435863 -2.000000
vn -0.0000 1.0000 -0.0000
vt 0.000000 0.000000
vt 1.000000 0.000000
vt 1.000000 1.000000
vt 0.000000 1.000000
s 0
f 217/143/196 218/144/196 220/145/196 219/146/196
