# Blender 4.1.1
# www.blender.org
mtllib aa0022.mtl
o Liquid_Domain
v -8.458971 -9.033723 6.172645
v 8.369346 -9.066869 6.169708
v -3.569796 -9.026392 1.311456
v 2.630194 -9.026821 -1.569109
v -8.478733 -9.029822 -6.216284
v 8.436601 -9.066437 -6.196770
v -2.917042 -9.009933 -6.147419
v 3.263304 -8.211575 -0.982770
v 3.906073 -8.227918 -3.525829
v -0.623034 -4.040239 -6.115583
v 4.452299 -4.471695 6.128932
v -0.990943 -7.965216 5.047928
v 6.184545 -7.892560 5.065050
v 1.645647 -8.222890 2.620206
v 8.359482 -4.338984 1.854066
v 5.101884 -8.155447 1.436877
v -3.443868 -8.343431 2.650556
v -5.163066 -8.314494 -0.537683
v 0.750197 -8.351360 -1.245382
v -3.267642 -7.990925 -1.252037
v -1.381567 -7.729375 -2.690597
v -3.567970 -8.232111 -4.746900
v 2.311952 -7.698081 -4.354555
v -1.707862 -7.926125 -5.356270
v -6.211309 -7.800700 5.273973
v -7.346943 -6.828113 4.753057
v 7.372165 -6.660060 0.201700
v 4.040615 -6.844929 -0.422405
v -5.738489 -6.837959 -0.942814
v -8.449168 3.738016 -5.748420
v -1.081891 -6.822188 -6.133873
v -6.952695 -7.146174 0.133143
v 8.457157 -4.883933 -5.656582
v 2.868360 -5.351562 -2.449341
v -2.708426 -7.036999 -3.342391
v 0.732437 -4.556279 -5.410045
v -1.607837 -6.014457 -5.080948
v 4.411911 -4.890123 5.401638
v 7.441041 -6.677123 3.406876
v 4.379191 -6.441440 -0.910964
v -7.181452 -7.081535 -4.055424
v 6.466156 -6.914445 -3.560645
v -0.736315 -5.804396 -1.541569
v 2.973130 -5.970472 -4.349317
v -7.672656 -5.958305 0.065489
v -3.015872 -5.749826 -1.265886
v -8.396676 -3.322004 -2.038586
v 5.100987 -6.358338 -4.192779
v -0.808221 -6.338448 -3.310928
v -6.906886 -3.841242 5.052433
v 7.583067 -3.548490 4.693262
v -2.794697 -6.283975 -2.569353
v 6.228194 -4.766616 -4.974607
v 6.976734 -6.907340 5.443457
v 7.807031 -3.988125 1.625222
v 4.187637 -4.787772 0.192507
v -7.328343 -4.776211 -4.577942
v -3.606571 -4.697874 -5.046640
v 1.836645 -2.615848 -6.136000
v -4.892499 -3.517604 6.151526
v -3.190163 -4.678105 5.238053
v -7.637546 -4.138268 -1.243576
v 7.687891 -4.634362 -2.710953
v 3.413515 -3.803506 -2.350264
v 3.672560 -4.770639 -3.569430
v -8.021781 0.826395 -6.161816
v -3.646431 -2.595920 -6.117753
v 4.669466 -2.810373 -6.090224
v 3.110260 -4.142737 -0.613236
v -1.351888 -4.181412 -0.274432
v 2.038225 -2.580812 -4.973641
v -1.481569 -4.174128 -5.686738
v 2.379844 -2.476702 4.797287
v -7.559517 0.672572 4.457249
v -0.975543 -2.215698 -0.234285
v -0.458005 -4.246424 -2.356782
v 3.258976 -1.985349 4.999854
v 7.257546 -2.533996 -5.119419
v -7.327097 -3.153090 -5.393155
v -4.044152 -2.508318 -5.124490
v 0.444503 -2.020575 -5.139916
v -8.375953 6.968284 6.164536
v -8.373424 5.010711 1.166760
v -0.846120 -3.116616 0.568916
v -1.931750 -2.594687 0.111217
v 7.325111 -1.512483 -3.263229
v -2.619431 -1.379052 -5.571679
v 7.138199 -1.027759 5.088725
v -7.661685 0.663908 -0.767723
v 3.851005 -2.585595 -5.040425
v 5.308936 -0.806050 5.159220
v -2.310177 -2.339801 4.500837
v 8.381717 1.798070 -0.075416
v 4.159162 -2.338930 -5.721017
v -2.117785 -1.610901 -6.014614
v -3.554832 0.933685 4.845511
v -0.571570 -2.020632 1.306951
v 2.048240 -1.731889 -0.318562
v -7.673248 3.192886 -5.229547
v 2.647654 -1.030379 -5.982289
v -2.026875 -1.717638 2.685545
v -6.528430 1.036431 5.233970
v 7.682465 0.782633 -1.427298
v -0.258446 -0.344282 -1.777828
v -4.311079 -0.176237 -5.550022
v -0.837824 -1.007047 -5.997148
v 3.926767 0.980017 -6.089330
v 3.241790 1.875692 4.781748
v 2.362270 1.222387 3.260722
v -3.700017 -0.309322 -6.043606
v 3.702069 3.352684 6.187120
v -2.184569 1.446403 3.515858
v -1.634830 1.783156 -0.524227
v 8.287638 6.810319 -6.170604
v -6.013535 0.903231 -5.605432
v -2.797596 6.799731 6.138818
v 8.316652 6.932368 -2.217677
v 6.766349 0.734594 -4.863440
v 7.554678 6.574458 5.128769
v -0.929714 2.509946 3.175756
v 1.651289 1.386984 -0.997739
v 7.768561 2.417050 0.718060
v 7.780220 5.014165 -2.667960
v 7.108261 2.524519 -4.982536
v 3.269634 3.451025 -5.245995
v -5.447094 2.423368 -6.087518
v -7.489971 6.485220 5.044979
v -7.616753 4.005426 0.470008
v 0.835569 2.255977 -0.277779
v -1.472786 3.729403 4.984513
v -8.360696 6.884669 -0.984542
v -8.433907 7.002746 -6.115425
v 0.994711 3.276858 4.676520
v 7.731701 6.589497 0.959509
v -7.457906 4.868928 -3.526206
v 6.470678 3.985559 -5.032015
v 3.354503 6.531302 -6.114960
v 8.411429 7.018841 6.131169
v -5.750825 4.952070 -5.775381
v -4.429996 5.129024 5.104871
v -7.684905 6.646486 0.308494
v 6.901086 6.711569 -5.311788
v 8.162807 6.949924 -4.123823
v 3.564071 6.634422 -5.238559
v -7.995062 5.822346 1.058433
v -8.148766 5.837829 -2.754515
v -6.376888 6.531962 -5.189054
v -3.470648 6.682021 5.368404
v -7.938150 6.813721 -2.065600
v 3.329503 6.715985 5.326612
v -8.130512 6.159423 -2.839839
v -8.226888 6.869874 2.224633
vn -0.5037 -0.5219 0.6884
vn 0.5002 -0.5233 0.6899
vn -0.0003 -1.0000 -0.0022
vn -0.0039 -1.0000 -0.0009
vn -0.4998 -0.5194 -0.6931
vn 0.4987 -0.5224 -0.6916
vn 0.0053 -0.6058 -0.7956
vn -0.5664 0.7988 0.2029
vn -0.7202 0.5772 0.3849
vn -0.2201 0.2238 -0.9495
vn -0.0009 0.0017 1.0000
vn -0.0037 0.6095 -0.7928
vn -0.2632 0.7171 -0.6454
vn -0.0146 0.9984 -0.0545
vn 1.0000 0.0007 0.0034
vn -0.2817 0.9385 0.1995
vn 0.0316 0.9982 -0.0512
vn 0.2945 0.8056 0.5141
vn 0.0345 0.9989 0.0329
vn 0.1749 0.5702 0.8027
vn 0.8541 0.1949 -0.4821
vn 0.6978 0.6096 0.3761
vn -0.2430 0.5804 0.7772
vn 0.0682 0.4498 0.8905
vn 0.2993 0.5512 -0.7788
vn 0.7984 0.3301 -0.5036
vn -0.7278 0.6672 0.1588
vn -0.4488 0.4290 0.7840
vn 0.0309 0.8077 0.5887
vn -0.9672 -0.0106 -0.2538
vn -0.0021 0.0080 -1.0000
vn 0.6752 0.7272 0.1240
vn 0.9989 0.0044 -0.0472
vn -0.9954 0.0733 -0.0615
vn 0.6110 0.2968 -0.7339
vn -0.3007 0.0219 0.9535
vn 0.1622 0.0487 0.9856
vn -0.0165 -0.0303 -0.9994
vn -0.8999 0.4323 -0.0578
vn 0.9784 -0.1330 0.1584
vn 0.4235 0.7095 0.5633
vn -0.3886 0.7998 0.4574
vn 0.8026 -0.3732 0.4655
vn -0.6722 0.0495 0.7387
vn 0.9675 0.2527 0.0036
vn -0.6095 0.6272 0.4848
vn -1.0000 0.0052 0.0062
vn 0.3555 0.5851 0.7289
vn 0.4578 0.0372 -0.8883
vn 0.3439 -0.0050 -0.9390
vn -0.7092 0.0021 -0.7050
vn -0.1467 0.8882 -0.4355
vn -0.1944 0.3429 0.9190
vn -0.4488 0.2758 -0.8500
vn -0.9986 0.0523 -0.0124
vn 0.2578 0.2392 0.9361
vn 0.6368 0.2131 0.7410
vn 0.2191 0.2578 0.9410
vn -0.0224 0.3321 -0.9430
vn 0.0026 0.0002 1.0000
vn -0.0273 -0.0565 -0.9980
vn 0.9976 0.0139 0.0674
vn -0.9614 0.1670 0.2185
vn -0.0073 0.9296 -0.3684
vn -0.0299 0.7609 0.6482
vn -0.2341 0.0336 -0.9716
vn 0.3583 0.0693 -0.9310
vn -0.0792 0.0724 -0.9942
vn -0.5467 0.6163 0.5668
vn -0.3286 -0.3445 0.8794
vn -0.0930 0.5242 0.8465
vn 0.1988 0.4886 0.8496
vn 0.2867 -0.3994 -0.8708
vn 0.8794 0.0118 -0.4760
vn 0.2463 -0.5489 -0.7988
vn 0.4466 0.5551 -0.7017
vn 0.2806 -0.1342 -0.9504
vn -0.6053 0.0654 0.7933
vn 0.4706 0.2579 0.8438
vn 0.2271 0.1619 0.9603
vn -0.0245 0.3693 0.9290
vn -0.4817 0.6011 0.6377
vn -0.9261 0.2247 -0.3030
vn 0.3586 -0.4603 0.8121
vn -0.8784 -0.4065 -0.2513
vn -0.9876 -0.0738 0.1386
vn 0.1507 0.0323 0.9881
vn -0.2621 0.0670 -0.9627
vn 0.9999 0.0006 0.0115
vn 0.1687 0.6058 0.7775
vn 0.0168 0.0018 -0.9999
vn -0.4145 -0.3960 -0.8194
vn 1.0000 0.0044 -0.0009
vn -0.2349 0.9429 -0.2361
vn -0.1499 -0.2477 -0.9572
vn -0.3410 0.0297 -0.9396
vn 0.0866 -0.9912 0.0999
vn 0.6416 -0.5744 -0.5084
vn 0.7299 -0.1494 0.6670
vn -0.0895 0.9058 -0.4141
vn -0.8520 -0.4944 -0.1721
vn 0.2275 0.0088 -0.9737
vn -0.9926 0.0355 0.1165
vn -0.1051 -0.1002 -0.9894
vn 0.2575 0.4695 0.8445
vn 0.1425 0.8603 -0.4894
vn -0.8194 -0.2885 -0.4952
vn 0.4137 0.1883 -0.8907
vn 0.8887 0.3235 -0.3249
vn 0.3939 0.6462 -0.6536
vn 0.0049 0.0019 1.0000
vn -0.8445 0.3458 -0.4089
vn -0.5951 0.5490 -0.5869
vn 0.4763 0.5324 -0.6997
vn 0.7272 0.3640 0.5820
vn 0.0027 0.6497 0.7602
vn 0.1545 0.9758 -0.1547
vn -0.6438 -0.0220 0.7649
vn -0.4590 0.7134 -0.5295
vn -0.4024 0.8623 -0.3076
vn 0.5343 0.4062 -0.7413
vn -0.9999 0.0008 -0.0139
vn -0.9776 0.1643 0.1316
vn -0.5223 0.0273 0.8523
vn -0.7323 -0.1066 0.6725
vn 0.8072 -0.0297 -0.5895
vn 0.4776 0.7064 -0.5225
vn 0.9902 0.1372 -0.0241
vn 0.2281 0.8773 -0.4223
vn -0.1157 0.3318 -0.9362
vn -0.6343 0.7671 0.0960
vn -0.3841 0.5842 -0.7150
vn 0.1429 0.5197 -0.8423
vn -0.8665 0.4984 -0.0274
vn 0.9581 0.0484 0.2823
vn -0.3971 0.0390 0.9169
vn -0.5558 0.4877 -0.6732
vn 0.4879 0.6011 0.6330
vn 0.8871 0.0319 -0.4605
vn 0.0126 0.0721 -0.9973
vn 0.9535 0.2957 -0.0578
vn -0.2732 0.7844 0.5568
vn -0.2380 0.9474 0.2139
vn -0.4275 0.5495 0.7179
vn 0.0473 -0.1861 -0.9814
vn -0.2466 0.6315 -0.7351
vn 0.7562 0.6531 -0.0393
vn 0.0292 0.6328 -0.7738
vn 0.6742 0.7377 -0.0337
vn 0.0026 0.5847 -0.8113
vn 0.8908 -0.3768 0.2539
vn -0.4792 0.8759 -0.0564
s 1
usemtl Liquid_Domain_Material
f 2//2 1//1 3//3
f 2//2 3//3 4//4
f 2//2 4//4 6//6
f 3//3 1//1 5//5
f 4//4 3//3 7//7
f 7//7 3//3 5//5
f 6//6 4//4 7//7
f 7//7 31//31 6//6
f 2//2 11//11 1//1
f 12//12 17//17 25//25
f 13//13 14//14 12//12
f 13//13 16//16 14//14
f 12//12 14//14 17//17
f 17//17 18//18 25//25
f 14//14 20//20 17//17
f 16//16 8//8 14//14
f 14//14 19//19 20//20
f 8//8 19//19 14//14
f 17//17 20//20 18//18
f 19//19 21//21 20//20
f 8//8 9//9 19//19
f 35//35 21//21 22//22
f 19//19 22//22 21//21
f 9//9 23//23 19//19
f 19//19 23//23 22//22
f 24//24 22//22 23//23
f 16//16 13//13 27//27
f 2//2 6//6 15//15
f 25//25 18//18 32//32
f 16//16 28//28 8//8
f 18//18 20//20 29//29
f 13//13 54//54 39//39
f 26//26 25//25 32//32
f 16//16 27//27 28//28
f 18//18 29//29 32//32
f 9//9 8//8 34//34
f 36//36 24//24 23//23
f 12//12 38//38 13//13
f 13//13 39//39 27//27
f 27//27 42//42 28//28
f 29//29 41//41 32//32
f 6//6 33//33 15//15
f 21//21 35//35 49//49
f 44//44 9//9 34//34
f 22//22 58//58 35//35
f 44//44 23//23 9//9
f 24//24 36//36 37//37
f 44//44 36//36 23//23
f 7//7 5//5 10//10
f 11//11 60//60 1//1
f 12//12 61//61 38//38
f 26//26 32//32 45//45
f 20//20 46//46 29//29
f 32//32 41//41 45//45
f 46//46 41//41 29//29
f 20//20 21//21 43//43
f 1//1 47//47 5//5
f 48//48 40//40 28//28
f 28//28 42//42 48//48
f 43//43 21//21 49//49
f 24//24 37//37 22//22
f 26//26 50//50 25//25
f 12//12 25//25 61//61
f 39//39 54//54 51//51
f 8//8 28//28 34//34
f 52//52 41//41 46//46
f 34//34 65//65 44//44
f 48//48 42//42 53//53
f 40//40 56//56 28//28
f 49//49 35//35 52//52
f 45//45 41//41 57//57
f 40//40 48//48 65//65
f 58//58 41//41 52//52
f 35//35 58//58 52//52
f 47//47 30//30 5//5
f 58//58 22//22 37//37
f 31//31 7//7 10//10
f 31//31 10//10 59//59
f 13//13 38//38 54//54
f 28//28 56//56 69//69
f 39//39 63//63 27//27
f 43//43 70//70 20//20
f 20//20 70//70 46//46
f 34//34 28//28 69//69
f 46//46 76//76 52//52
f 56//56 40//40 64//64
f 42//42 27//27 63//63
f 65//65 64//64 40//40
f 62//62 45//45 57//57
f 53//53 42//42 63//63
f 41//41 58//58 57//57
f 5//5 30//30 66//66
f 5//5 66//66 67//67
f 31//31 68//68 6//6
f 25//25 50//50 61//61
f 43//43 49//49 76//76
f 49//49 52//52 76//76
f 44//44 65//65 71//71
f 5//5 67//67 10//10
f 31//31 59//59 68//68
f 54//54 38//38 51//51
f 69//69 56//56 64//64
f 34//34 64//64 65//65
f 48//48 53//53 65//65
f 37//37 72//72 58//58
f 37//37 36//36 72//72
f 38//38 61//61 73//73
f 39//39 55//55 63//63
f 46//46 70//70 75//75
f 43//43 76//76 84//84
f 76//76 46//46 75//75
f 58//58 80//80 57//57
f 51//51 38//38 91//91
f 26//26 45//45 74//74
f 39//39 51//51 55//55
f 43//43 84//84 70//70
f 69//69 64//64 34//34
f 63//63 78//78 53//53
f 90//90 65//65 53//53
f 81//81 44//44 71//71
f 72//72 80//80 58//58
f 81//81 36//36 44//44
f 38//38 77//77 91//91
f 26//26 74//74 50//50
f 38//38 73//73 77//77
f 1//1 83//83 47//47
f 70//70 85//85 75//75
f 84//84 76//76 75//75
f 78//78 90//90 53//53
f 80//80 79//79 57//57
f 72//72 67//67 80//80
f 72//72 36//36 10//10
f 67//67 72//72 10//10
f 50//50 102//102 61//61
f 73//73 61//61 92//92
f 70//70 84//84 85//85
f 10//10 36//36 87//87
f 68//68 59//59 94//94
f 51//51 91//91 88//88
f 45//45 62//62 89//89
f 97//97 84//84 75//75
f 86//86 78//78 63//63
f 57//57 79//79 89//89
f 65//65 90//90 71//71
f 10//10 87//87 95//95
f 59//59 10//10 106//106
f 1//1 60//60 82//82
f 85//85 84//84 97//97
f 15//15 33//33 93//93
f 55//55 86//86 63//63
f 62//62 57//57 89//89
f 36//36 81//81 87//87
f 80//80 67//67 87//87
f 10//10 95//95 106//106
f 94//94 59//59 100//100
f 61//61 102//102 96//96
f 61//61 96//96 92//92
f 97//97 92//92 101//101
f 73//73 92//92 97//97
f 74//74 45//45 89//89
f 98//98 97//97 75//75
f 89//89 79//79 99//99
f 80//80 105//105 79//79
f 90//90 78//78 94//94
f 59//59 106//106 71//71
f 94//94 100//100 90//90
f 97//97 98//98 73//73
f 97//97 101//101 85//85
f 98//98 75//75 104//104
f 87//87 105//105 80//80
f 71//71 90//90 100//100
f 67//67 95//95 87//87
f 71//71 106//106 81//81
f 100//100 59//59 71//71
f 95//95 67//67 110//110
f 50//50 74//74 102//102
f 104//104 75//75 85//85
f 83//83 30//30 47//47
f 106//106 87//87 81//81
f 6//6 68//68 114//114
f 11//11 111//111 60//60
f 55//55 103//103 86//86
f 87//87 110//110 105//105
f 87//87 106//106 110//110
f 68//68 94//94 107//107
f 67//67 66//66 110//110
f 95//95 110//110 106//106
f 77//77 73//73 109//109
f 101//101 112//112 85//85
f 55//55 122//122 103//103
f 86//86 103//103 118//118
f 77//77 108//108 91//91
f 15//15 93//93 138//138
f 92//92 112//112 101//101
f 73//73 98//98 109//109
f 112//112 113//113 85//85
f 121//121 98//98 104//104
f 86//86 118//118 78//78
f 114//114 33//33 6//6
f 112//112 92//92 96//96
f 109//109 98//98 121//121
f 113//113 104//104 85//85
f 105//105 115//115 79//79
f 78//78 118//118 94//94
f 94//94 118//118 107//107
f 60//60 116//116 82//82
f 77//77 109//109 108//108
f 99//99 79//79 115//115
f 115//115 105//105 110//110
f 115//115 110//110 66//66
f 2//2 15//15 138//138
f 55//55 51//51 122//122
f 93//93 33//33 117//117
f 111//111 116//116 60//60
f 119//119 122//122 51//51
f 113//113 121//121 104//104
f 114//114 68//68 107//107
f 88//88 119//119 51//51
f 113//113 112//112 120//120
f 103//103 123//123 124//124
f 103//103 124//124 118//118
f 125//125 107//107 118//118
f 115//115 66//66 126//126
f 109//109 133//133 108//108
f 74//74 89//89 127//127
f 109//109 129//129 133//133
f 109//109 121//121 129//129
f 129//129 121//121 113//113
f 11//11 2//2 138//138
f 133//133 129//129 120//120
f 129//129 113//113 120//120
f 118//118 136//136 125//125
f 118//118 124//124 136//136
f 108//108 150//150 91//91
f 88//88 91//91 119//119
f 96//96 130//130 112//112
f 130//130 120//120 112//112
f 127//127 89//89 128//128
f 103//103 122//122 123//123
f 115//115 139//139 99//99
f 30//30 132//132 66//66
f 1//1 82//82 83//83
f 96//96 140//140 130//130
f 130//130 133//133 120//120
f 119//119 134//134 122//122
f 89//89 99//99 135//135
f 123//123 136//136 124//124
f 125//125 137//137 107//107
f 11//11 138//138 111//111
f 96//96 102//102 140//140
f 108//108 133//133 150//150
f 117//117 33//33 114//114
f 139//139 115//115 126//126
f 128//128 89//89 141//141
f 131//131 30//30 83//83
f 89//89 135//135 141//141
f 136//136 142//142 125//125
f 127//127 102//102 74//74
f 122//122 134//134 123//123
f 139//139 135//135 99//99
f 137//137 114//114 107//107
f 102//102 127//127 140//140
f 130//130 150//150 133//133
f 91//91 150//150 119//119
f 123//123 143//143 136//136
f 125//125 142//142 144//144
f 126//126 66//66 139//139
f 127//127 128//128 145//145
f 128//128 83//83 145//145
f 131//131 83//83 128//128
f 131//131 128//128 141//141
f 138//138 93//93 117//117
f 135//135 146//146 149//149
f 135//135 139//139 147//147
f 66//66 132//132 139//139
f 130//130 140//140 148//148
f 131//131 145//145 152//152
f 145//145 131//131 141//141
f 134//134 117//117 123//123
f 131//131 146//146 30//30
f 135//135 30//30 146//146
f 123//123 117//117 143//143
f 143//143 142//142 136//136
f 125//125 144//144 137//137
f 111//111 138//138 116//116
f 130//130 148//148 150//150
f 83//83 152//152 145//145
f 141//141 135//135 149//149
f 151//151 146//146 132//132
f 146//146 151//151 149//149
f 135//135 151//151 30//30
f 30//30 151//151 132//132
f 135//135 147//147 151//151
f 117//117 114//114 143//143
f 140//140 127//127 148//148
f 82//82 152//152 83//83
f 145//145 141//141 127//127
f 146//146 131//131 132//132
f 151//151 147//147 149//149
f 139//139 132//132 147//147
f 148//148 82//82 116//116
f 150//150 148//148 116//116
f 138//138 150//150 116//116
f 148//148 127//127 82//82
f 138//138 119//119 150//150
f 127//127 152//152 82//82
f 119//119 138//138 134//134
f 138//138 117//117 134//134
f 127//127 141//141 152//152
f 141//141 149//149 152//152
f 149//149 131//131 152//152
f 131//131 149//149 132//132
f 147//147 132//132 149//149
f 114//114 142//142 143//143
f 114//114 137//137 144//144
f 142//142 114//114 144//144
