# Blender 4.1.1
# www.blender.org
mtllib aa0091.mtl
o Liquid_Domain
v -8.463198 -9.040238 6.151473
v -3.893463 -9.061893 6.135391
v 8.436692 -9.084105 6.200828
v -8.433730 -9.062615 -6.207179
v -5.967691 -7.321606 6.068764
v 8.475886 -9.086283 -6.166804
v -6.329607 -8.341056 4.322675
v -5.280725 -8.104026 2.504367
v -3.331641 -7.498468 3.964056
v -1.855067 -8.063706 5.269745
v -8.423490 -2.785057 -0.512743
v -0.198351 -6.891793 4.479193
v -2.229951 -8.049921 2.593282
v -1.677405 -7.898690 -0.338927
v -7.000991 -6.406591 1.557271
v 0.687529 -7.270295 2.408307
v -2.639953 -6.767522 -0.255876
v -4.215291 -6.652567 5.796399
v -3.957830 -7.074006 2.347934
v -5.305460 -5.664899 1.004638
v -8.466766 -0.246915 6.150811
v -6.238045 -4.620955 6.017379
v -2.523786 -4.708651 4.903751
v -0.316462 -5.468589 1.001228
v -5.377283 -5.870912 5.770287
v -3.617217 -2.433397 6.168256
v -3.109234 -5.784127 -0.959986
v -0.324574 -3.729700 3.397658
v 7.149114 -5.771897 -2.170328
v 5.108133 -6.304412 -1.211002
v 4.466950 -4.699527 -2.995013
v -7.479095 -5.027768 5.389567
v -7.637578 -4.378269 0.355872
v -0.752358 -2.671819 0.783345
v -6.265313 -5.030858 0.510652
v -1.772066 -4.375896 -1.726971
v -6.500008 -4.190182 -1.169976
v -4.725572 -4.705423 -1.044265
v 6.837245 -3.281742 -2.432397
v -2.756512 -1.230751 4.707645
v -7.217089 -1.307500 2.014502
v 5.482367 -4.926918 1.224164
v -3.699811 -4.171748 0.737413
v -5.577200 -3.268747 -3.234349
v -0.840288 -2.728778 4.965888
v 4.609064 -2.957506 2.492163
v 6.645750 -4.266331 1.894260
v 1.958822 -3.550437 -2.656679
v -3.778419 -3.126953 1.715538
v -3.869737 -1.946318 -2.276242
v -7.144914 -2.137841 -3.506531
v -6.731285 -2.183738 5.441847
v -2.400925 -2.281990 1.354783
v 1.176263 -3.178626 0.758447
v 4.675972 0.872070 6.172557
v 1.940734 -2.423711 3.142381
v -3.261495 -1.343087 -3.720694
v 3.767809 -1.476359 -3.044932
v 3.832968 1.615971 -6.185865
v 1.266701 -1.058181 -2.215769
v 6.702588 -3.142536 -4.390239
v 8.327353 2.329409 -6.169798
v -4.386329 -1.175313 4.970420
v 6.442209 -2.889628 2.038648
v 6.900644 0.272861 2.889241
v 2.135590 -1.266034 -0.078212
v -7.658096 -0.240047 -0.354554
v -2.137998 -1.239676 2.255398
v 4.123703 -1.585816 -4.885714
v -5.973984 -0.690381 4.240491
v 2.121103 0.606780 0.929747
v -6.820756 -0.233752 1.764788
v 4.055108 -0.288397 -2.955338
v 8.430112 3.800754 -0.952851
v 6.749547 2.485307 -5.381275
v 2.538911 2.430831 4.658851
v -5.520179 1.926391 3.376036
v 2.209852 -0.320174 -1.762114
v 7.519157 0.479794 -4.052619
v -2.251792 -0.705045 -0.387329
v -1.603492 -0.061344 -1.832162
v 5.127065 -0.013004 -5.131585
v -4.843231 2.060612 6.068888
v -5.660007 0.613076 5.524048
v -2.417451 1.879224 5.248111
v -7.496261 0.183432 4.967099
v 3.335392 -1.615903 5.061229
v -1.660363 1.705427 -0.975577
v 3.326023 1.814217 -2.869452
v -3.729536 1.805031 -4.804829
v -3.767045 4.869973 -6.191079
v 6.753267 2.026046 3.092684
v -1.828559 1.492544 2.413229
v -6.855874 2.508552 -0.955003
v 2.317376 3.232716 -0.777694
v -7.436696 2.245251 4.955344
v -6.260578 2.345724 -3.671588
v -6.336283 2.262428 5.963383
v 4.821600 2.932166 5.044458
v 6.221180 1.150822 5.177372
v 6.970923 2.711512 -2.843704
v 3.704166 2.649691 -5.133461
v -4.063972 2.342441 4.519102
v 1.000019 3.471310 1.715000
v -3.652271 3.419100 -3.768319
v 4.891586 2.172563 2.718475
v 6.855260 4.109044 -0.215431
v -4.438412 2.765445 1.593751
v -5.398342 3.290568 6.178539
v -6.284397 2.725529 2.924139
v -8.420568 6.660525 -2.488105
v 6.131537 3.438820 -2.885206
v -5.770205 3.461272 -4.384960
v -2.402084 4.279054 -3.115546
v 8.052726 3.937867 -4.306427
v 6.257406 4.572966 -4.386366
v 6.085767 4.709202 4.616343
v 0.208801 5.085883 4.364632
v 7.947102 4.261454 -2.040999
v 5.774712 6.960990 6.104564
v -3.543972 6.386575 2.677620
v -1.711010 4.580415 -1.700308
v 4.855803 4.927278 -2.193555
v -4.421402 3.531473 3.564177
v -8.280644 6.826653 2.023519
v -7.025991 6.303150 1.753405
v 2.772882 5.030653 1.130567
v 4.420533 5.193993 -0.412569
v -8.326405 6.758414 -6.163207
v 7.780496 4.506567 -6.024127
v 2.084827 5.320576 -5.950607
v 8.472798 6.740682 6.183511
v 6.421755 5.990033 2.984161
v 0.312344 4.862188 1.572194
v 6.707997 5.570940 -4.680143
v -4.362570 5.211331 -5.146003
v 4.524590 6.788466 5.474230
v -3.082182 5.498701 -2.490454
v -1.845275 5.335569 -5.647443
v -0.405833 6.868191 -6.151642
v -8.414009 6.872111 6.101080
v -0.753109 6.986629 6.203944
v -0.493060 6.883841 4.402260
v 0.825953 6.932016 0.615377
v 7.095633 6.860415 -0.020768
v -6.713010 6.729497 -1.461497
v 2.757258 5.807343 -2.684664
v 4.277107 5.787406 -2.018212
v 5.941365 6.400527 -2.652981
v 2.544770 5.207094 -4.243810
v -2.089239 6.929377 -4.422215
v -2.960954 6.950247 0.885322
v 8.318023 7.023549 -0.995859
v 3.483804 6.467122 -3.120594
v 8.083908 6.402347 -4.141644
v 3.861217 6.378036 -4.845884
v 8.136447 6.556860 1.018557
v 1.126695 6.481577 -1.152953
v 3.701602 6.649456 -6.153906
v -6.541274 6.763734 4.843670
v -7.281016 7.020330 -5.624579
v 8.168519 7.003201 -6.030459
v 1.232978 7.011820 -4.831967
vn -0.4968 -0.5136 0.6996
vn -0.0111 -0.6046 0.7964
vn 0.4992 -0.5242 0.6899
vn -0.5030 -0.5220 -0.6889
vn 0.1298 0.4489 0.8841
vn 0.5045 -0.5236 -0.6865
vn 0.4010 0.8916 -0.2102
vn -0.0407 0.8050 0.5919
vn 0.1247 0.9858 -0.1127
vn -0.1995 0.6294 -0.7510
vn -1.0000 0.0053 -0.0046
vn -0.6914 0.2480 -0.6785
vn 0.1013 0.9949 -0.0004
vn -0.0965 0.4835 0.8700
vn 0.5458 0.6130 0.5712
vn -0.8792 0.4753 0.0312
vn 0.1594 0.5473 0.8217
vn -0.2713 0.2622 -0.9261
vn 0.1257 0.8504 0.5108
vn 0.1438 0.5367 0.8314
vn -0.5796 0.0052 0.8149
vn 0.0312 -0.1338 0.9905
vn -0.3128 -0.0831 -0.9462
vn -0.8697 -0.0364 0.4923
vn -0.5808 -0.7967 -0.1670
vn -0.0191 -0.0073 0.9998
vn 0.4252 0.2487 0.8703
vn -0.9323 -0.2185 -0.2881
vn -0.6434 0.5550 0.5272
vn 0.4259 0.8957 -0.1277
vn 0.1293 0.4514 0.8829
vn 0.7741 0.0117 -0.6330
vn 0.8568 0.4196 0.2996
vn -0.5320 -0.6401 0.5543
vn 0.0535 0.7519 0.6571
vn -0.1184 -0.1825 0.9760
vn 0.3706 0.8053 0.4628
vn -0.3681 0.8376 0.4037
vn -0.7877 0.3157 0.5291
vn -0.5032 -0.1285 -0.8545
vn 0.9520 -0.3033 -0.0404
vn 0.1204 0.8466 -0.5185
vn -0.1365 -0.3341 0.9326
vn -0.0737 0.6445 0.7611
vn -0.5613 -0.1825 -0.8073
vn -0.0722 0.6282 -0.7747
vn -0.5219 0.4635 -0.7161
vn 0.5720 0.4485 0.6868
vn -0.3293 -0.1017 0.9387
vn -0.7274 0.6534 0.2096
vn 0.5861 0.2632 0.7663
vn 0.4221 -0.3556 -0.8339
vn -0.2244 -0.1301 0.9658
vn 0.8556 0.4617 -0.2342
vn -0.0013 0.0023 1.0000
vn 0.5877 0.6888 -0.4245
vn -0.4984 0.4846 0.7189
vn 0.5457 0.0520 0.8364
vn 0.0052 0.0116 -0.9999
vn 0.7344 -0.4151 0.5369
vn -0.3126 0.7463 0.5876
vn 0.5872 0.0943 -0.8039
vn -0.0309 -0.0089 -0.9995
vn 0.0846 0.1796 -0.9801
vn -0.9034 0.2169 -0.3698
vn 0.9425 -0.3340 0.0162
vn 0.9826 -0.1690 -0.0776
vn -0.9696 -0.2438 -0.0206
vn 0.5887 0.2638 0.7641
vn 0.8770 -0.1432 -0.4586
vn 0.9984 0.0236 0.0505
vn 0.9412 -0.1840 -0.2835
vn 0.7679 -0.0294 0.6399
vn 0.9931 0.0758 -0.0895
vn -0.3831 -0.1027 0.9180
vn 0.5102 0.1416 -0.8483
vn 0.6383 -0.7518 -0.1655
vn 0.8026 -0.4063 0.4368
vn -0.9630 0.0044 0.2693
vn -0.8819 0.4675 0.0612
vn -0.9415 0.2775 0.1913
vn -0.0462 0.5306 0.8464
vn -0.5244 0.1257 0.8421
vn 0.0191 0.3706 -0.9286
vn -0.5010 -0.4242 -0.7544
vn 0.8145 0.5499 -0.1849
vn 0.1315 0.4608 -0.8777
vn -0.9916 0.0307 0.1258
vn 0.7889 -0.2156 0.5755
vn -0.2634 -0.0724 0.9620
vn 0.0280 0.4276 -0.9035
vn -0.9042 -0.1823 -0.3862
vn -0.9630 -0.1123 -0.2450
vn 0.9918 -0.0969 0.0839
vn 0.7988 -0.3426 0.4946
vn 0.8536 -0.5093 0.1092
vn 0.7862 0.0830 0.6124
vn 0.8310 -0.3671 -0.4179
vn -0.1795 -0.2636 -0.9478
vn -0.5363 0.0269 -0.8436
vn -0.9895 0.1439 -0.0097
vn 0.6693 -0.2932 0.6827
vn -0.1978 -0.8834 -0.4248
vn 0.8888 0.4499 0.0878
vn -0.5048 -0.2531 0.8253
vn -0.4370 -0.2750 -0.8564
vn -0.9698 0.0536 -0.2381
vn 0.2132 0.0197 -0.9768
vn -0.0166 -0.2972 0.9547
vn -0.1328 0.3116 -0.9409
vn -0.7322 0.6805 0.0287
vn 0.7234 -0.4891 0.4873
vn 0.1138 0.3143 0.9425
vn -0.6298 0.5809 0.5156
vn 0.4602 0.8153 0.3515
vn 0.7427 -0.2840 0.6064
vn -0.6458 0.2306 -0.7279
vn 0.6692 0.3570 -0.6517
vn 0.0315 0.8502 -0.5255
vn -0.0638 0.7490 0.6595
vn -0.6484 -0.5056 -0.5692
vn -0.9533 -0.2890 0.0875
vn 0.5621 -0.1379 0.8155
vn 0.4467 0.1740 -0.8776
vn -0.5582 0.8287 -0.0422
vn 0.7968 0.6018 -0.0546
vn 0.4458 -0.0741 0.8921
vn 0.8621 0.1562 0.4820
vn -0.4765 0.4936 -0.7275
vn 0.6152 0.1006 -0.7819
vn 0.0276 0.0160 -0.9995
vn 0.5149 0.5105 0.6887
vn -0.8955 0.3674 -0.2511
vn 0.8236 0.1815 0.5374
vn 0.4872 0.2601 0.8337
vn 0.0664 0.8640 0.4991
vn 0.0998 0.6687 -0.7369
vn -0.8222 -0.4320 -0.3708
vn -0.5917 0.7679 0.2456
vn -0.1521 0.5889 -0.7938
vn -0.5102 0.5439 0.6662
vn 0.0055 0.6178 0.7863
vn 0.3496 0.8981 -0.2669
vn 0.3697 0.8767 0.3078
vn -0.6257 0.7580 -0.1843
vn 0.6902 0.7223 0.0436
vn 0.1003 0.9816 0.1628
vn 0.2053 0.8142 0.5430
vn 0.4988 0.6520 0.5711
vn 0.1248 0.9596 0.2521
vn -0.7139 0.6552 -0.2471
vn -0.6971 0.6874 -0.2038
vn 0.3227 0.7005 -0.6365
vn -0.1188 0.9818 0.1482
vn 0.2637 0.2659 0.9272
vn 0.0042 0.9478 0.3188
vn 0.6403 0.7603 0.1098
vn 0.7052 0.7090 0.0076
vn 0.0147 0.6024 -0.7981
vn 0.0714 0.9497 -0.3051
vn 0.2800 0.9404 -0.1932
vn 0.5534 0.6529 -0.5173
vn 0.1960 0.9762 0.0930
s 1
usemtl Liquid_Domain_Material
f 1//1 4//4 2//2
f 3//3 2//2 6//6
f 6//6 2//2 4//4
f 2//2 5//5 1//1
f 9//9 8//8 7//7
f 5//5 18//18 7//7
f 10//10 13//13 9//9
f 9//9 7//7 18//18
f 13//13 10//10 12//12
f 8//8 15//15 7//7
f 9//9 19//19 8//8
f 19//19 9//9 13//13
f 13//13 14//14 19//19
f 16//16 14//14 13//13
f 18//18 10//10 9//9
f 16//16 13//13 12//12
f 8//8 19//19 15//15
f 19//19 14//14 17//17
f 1//1 11//11 4//4
f 2//2 26//26 5//5
f 5//5 7//7 32//32
f 10//10 23//23 12//12
f 14//14 16//16 24//24
f 5//5 22//22 1//1
f 1//1 22//22 21//21
f 5//5 32//32 22//22
f 10//10 18//18 23//23
f 7//7 15//15 32//32
f 15//15 19//19 20//20
f 14//14 24//24 17//17
f 5//5 26//26 18//18
f 19//19 17//17 20//20
f 20//20 17//17 27//27
f 2//2 3//3 26//26
f 12//12 28//28 16//16
f 20//20 35//35 15//15
f 29//29 31//31 30//30
f 18//18 25//25 23//23
f 12//12 23//23 28//28
f 15//15 35//35 33//33
f 17//17 24//24 36//36
f 29//29 30//30 42//42
f 47//47 29//29 42//42
f 17//17 36//36 27//27
f 25//25 18//18 22//22
f 3//3 55//55 26//26
f 1//1 21//21 11//11
f 16//16 28//28 24//24
f 20//20 43//43 35//35
f 20//20 27//27 43//43
f 42//42 30//30 31//31
f 29//29 58//58 31//31
f 29//29 39//39 58//58
f 6//6 4//4 62//62
f 18//18 26//26 22//22
f 15//15 33//33 32//32
f 24//24 34//34 36//36
f 33//33 35//35 37//37
f 22//22 32//32 25//25
f 23//23 25//25 40//40
f 24//24 28//28 34//34
f 42//42 48//48 54//54
f 35//35 38//38 37//37
f 27//27 36//36 43//43
f 42//42 31//31 48//48
f 44//44 37//37 38//38
f 23//23 40//40 45//45
f 23//23 45//45 28//28
f 32//32 33//33 41//41
f 46//46 47//47 42//42
f 42//42 54//54 46//46
f 38//38 35//35 43//43
f 38//38 50//50 44//44
f 47//47 39//39 29//29
f 36//36 34//34 43//43
f 43//43 50//50 38//38
f 51//51 33//33 37//37
f 51//51 37//37 44//44
f 56//56 87//87 54//54
f 54//54 87//87 46//46
f 46//46 64//64 47//47
f 49//49 43//43 53//53
f 53//53 43//43 34//34
f 43//43 49//49 50//50
f 4//4 59//59 62//62
f 22//22 26//26 21//21
f 32//32 52//52 25//25
f 52//52 32//32 41//41
f 3//3 6//6 132//132
f 45//45 34//34 28//28
f 64//64 65//65 47//47
f 47//47 65//65 39//39
f 50//50 57//57 44//44
f 31//31 58//58 48//48
f 52//52 41//41 70//70
f 67//67 33//33 51//51
f 61//61 58//58 39//39
f 4//4 91//91 59//59
f 25//25 52//52 63//63
f 40//40 25//25 63//63
f 68//68 34//34 40//40
f 40//40 34//34 45//45
f 68//68 53//53 34//34
f 48//48 58//58 60//60
f 57//57 51//51 44//44
f 69//69 58//58 61//61
f 63//63 52//52 70//70
f 64//64 46//46 65//65
f 49//49 53//53 80//80
f 50//50 49//49 80//80
f 66//66 54//54 60//60
f 54//54 48//48 60//60
f 41//41 72//72 70//70
f 56//56 54//54 71//71
f 41//41 33//33 72//72
f 72//72 33//33 67//67
f 60//60 58//58 78//78
f 39//39 79//79 61//61
f 6//6 62//62 74//74
f 69//69 61//61 75//75
f 87//87 56//56 76//76
f 87//87 65//65 46//46
f 70//70 72//72 77//77
f 68//68 80//80 53//53
f 66//66 71//71 54//54
f 58//58 73//73 78//78
f 50//50 81//81 57//57
f 58//58 69//69 73//73
f 81//81 50//50 80//80
f 69//69 82//82 73//73
f 75//75 61//61 79//79
f 26//26 98//98 21//21
f 26//26 55//55 142//142
f 63//63 84//84 85//85
f 84//84 70//70 86//86
f 63//63 70//70 84//84
f 100//100 65//65 87//87
f 56//56 71//71 76//76
f 65//65 79//79 39//39
f 66//66 60//60 78//78
f 57//57 90//90 51//51
f 69//69 75//75 82//82
f 26//26 83//83 98//98
f 63//63 85//85 40//40
f 93//93 88//88 80//80
f 80//80 88//88 81//81
f 40//40 93//93 68//68
f 68//68 93//93 80//80
f 67//67 94//94 72//72
f 132//132 6//6 74//74
f 66//66 78//78 71//71
f 94//94 67//67 51//51
f 73//73 89//89 78//78
f 81//81 90//90 57//57
f 70//70 77//77 86//86
f 65//65 100//100 92//92
f 71//71 78//78 95//95
f 95//95 78//78 89//89
f 81//81 88//88 105//105
f 51//51 90//90 97//97
f 89//89 73//73 82//82
f 98//98 84//84 86//86
f 77//77 96//96 86//86
f 40//40 85//85 93//93
f 92//92 79//79 65//65
f 26//26 142//142 83//83
f 55//55 3//3 132//132
f 83//83 84//84 98//98
f 83//83 103//103 84//84
f 98//98 86//86 96//96
f 84//84 103//103 85//85
f 87//87 99//99 100//100
f 99//99 92//92 100//100
f 72//72 110//110 77//77
f 76//76 71//71 104//104
f 81//81 105//105 90//90
f 102//102 89//89 82//82
f 101//101 75//75 79//79
f 82//82 75//75 102//102
f 62//62 59//59 130//130
f 92//92 99//99 106//106
f 71//71 95//95 104//104
f 79//79 107//107 101//101
f 142//142 109//109 83//83
f 99//99 87//87 76//76
f 109//109 96//96 77//77
f 103//103 109//109 77//77
f 103//103 93//93 85//85
f 108//108 103//103 77//77
f 110//110 108//108 77//77
f 112//112 89//89 102//102
f 109//109 98//98 96//96
f 83//83 109//109 103//103
f 103//103 108//108 124//124
f 107//107 79//79 92//92
f 94//94 51//51 97//97
f 114//114 105//105 88//88
f 101//101 115//115 75//75
f 115//115 74//74 62//62
f 90//90 113//113 97//97
f 90//90 105//105 113//113
f 76//76 117//117 99//99
f 88//88 122//122 114//114
f 119//119 74//74 115//115
f 112//112 102//102 116//116
f 4//4 129//129 91//91
f 98//98 109//109 21//21
f 106//106 99//99 117//117
f 106//106 117//117 92//92
f 124//124 108//108 110//110
f 21//21 141//141 11//11
f 76//76 104//104 118//118
f 95//95 134//134 104//104
f 122//122 88//88 93//93
f 112//112 123//123 89//89
f 119//119 115//115 101//101
f 102//102 75//75 116//116
f 55//55 120//120 142//142
f 110//110 72//72 160//160
f 121//121 93//93 103//103
f 121//121 122//122 93//93
f 101//101 107//107 119//119
f 95//95 89//89 123//123
f 105//105 114//114 113//113
f 115//115 116//116 75//75
f 62//62 130//130 115//115
f 59//59 91//91 140//140
f 134//134 118//118 104//104
f 141//141 125//125 11//11
f 72//72 94//94 160//160
f 160//160 94//94 126//126
f 127//127 134//134 95//95
f 125//125 111//111 11//11
f 95//95 128//128 127//127
f 94//94 146//146 126//126
f 128//128 95//95 123//123
f 94//94 97//97 146//146
f 114//114 136//136 113//113
f 111//111 129//129 11//11
f 11//11 129//129 4//4
f 59//59 140//140 131//131
f 159//159 59//59 131//131
f 130//130 59//59 159//159
f 55//55 132//132 120//120
f 110//110 160//160 124//124
f 103//103 124//124 121//121
f 117//117 133//133 92//92
f 92//92 133//133 107//107
f 112//112 149//149 123//123
f 113//113 161//161 97//97
f 115//115 130//130 116//116
f 132//132 74//74 157//157
f 139//139 114//114 122//122
f 139//139 136//136 114//114
f 116//116 130//130 135//135
f 91//91 139//139 140//140
f 21//21 109//109 141//141
f 117//117 76//76 137//137
f 118//118 143//143 76//76
f 127//127 144//144 134//134
f 152//152 138//138 122//122
f 123//123 148//148 128//128
f 107//107 145//145 119//119
f 147//147 128//128 148//148
f 112//112 116//116 149//149
f 149//149 116//116 135//135
f 97//97 161//161 146//146
f 122//122 151//151 139//139
f 113//113 136//136 161//161
f 91//91 136//136 139//139
f 130//130 159//159 162//162
f 76//76 143//143 137//137
f 118//118 134//134 143//143
f 133//133 145//145 107//107
f 127//127 128//128 144//144
f 153//153 157//157 74//74
f 128//128 147//147 158//158
f 145//145 153//153 119//119
f 148//148 154//154 147//147
f 149//149 148//148 123//123
f 151//151 122//122 138//138
f 155//155 135//135 130//130
f 161//161 136//136 91//91
f 151//151 140//140 139//139
f 130//130 162//162 155//155
f 109//109 142//142 141//141
f 124//124 160//160 121//121
f 143//143 134//134 144//144
f 152//152 122//122 121//121
f 157//157 145//145 133//133
f 157//157 153//153 145//145
f 144//144 128//128 158//158
f 74//74 119//119 153//153
f 154//154 150//150 147//147
f 148//148 156//156 154//154
f 149//149 156//156 148//148
f 149//149 135//135 156//156
f 150//150 154//154 156//156
f 150//150 156//156 163//163
f 162//162 156//156 135//135
f 120//120 117//117 137//137
f 133//133 117//117 120//120
f 120//120 157//157 133//133
f 152//152 151//151 138//138
f 147//147 150//150 163//163
f 162//162 135//135 155//155
f 91//91 129//129 161//161
f 131//131 140//140 159//159
f 160//160 125//125 141//141
f 142//142 160//160 141//141
f 152//152 160//160 142//142
f 120//120 137//137 142//142
f 132//132 157//157 120//120
f 137//137 143//143 142//142
f 143//143 152//152 142//142
f 121//121 160//160 152//152
f 160//160 126//126 125//125
f 144//144 152//152 143//143
f 126//126 146//146 125//125
f 125//125 146//146 111//111
f 158//158 163//163 144//144
f 144//144 151//151 152//152
f 163//163 151//151 144//144
f 158//158 147//147 163//163
f 146//146 161//161 111//111
f 161//161 129//129 111//111
f 163//163 140//140 151//151
f 156//156 162//162 159//159
f 159//159 140//140 163//163
f 156//156 159//159 163//163
