# Blender 4.1.1
# www.blender.org
mtllib aa0180.mtl
o Liquid_Domain
v -8.474651 -9.091344 6.211979
v 8.422553 -9.087977 6.164297
v -8.477675 -9.099145 -5.870453
v 8.434362 -9.090999 -6.203154
v -8.134167 -8.755833 -6.217273
v 8.481178 -4.881141 0.825015
v 3.784585 -2.841561 6.203790
v 8.401808 -2.063115 6.148960
v 8.462350 -2.275849 -2.440206
v 5.466637 -4.677604 4.011056
v 8.131650 -4.354684 3.749152
v 7.555239 -4.252041 5.165971
v 6.511722 -4.291092 4.305383
v 6.234596 -4.357465 1.548265
v 7.923779 -3.720402 0.329738
v 6.407409 -4.169806 -0.399250
v 4.231074 -3.837312 4.167547
v 8.347584 -2.477668 3.186833
v 4.373285 -3.405664 2.679939
v 5.650758 -2.694087 1.970273
v 5.333006 -3.367300 0.877810
v 7.977273 -3.529453 -1.533130
v 4.160240 -2.015118 5.291828
v 7.735061 -2.722709 2.365801
v 6.374847 -2.770060 -2.666455
v 7.722016 -1.876400 4.963489
v 8.371306 -1.721612 1.966866
v 5.573410 -1.261332 0.603119
v 7.773405 -2.078897 -0.060546
v 8.315996 -2.167548 -0.542647
v 8.150831 -1.733277 0.619530
v -2.195842 0.612893 -6.180854
v 6.244857 -0.817545 5.300463
v 3.859666 -1.617580 2.609311
v 7.178043 -1.069582 -2.599101
v 7.859274 3.691705 -6.174020
v -8.428679 6.942766 5.871349
v 7.779268 -1.189814 0.928150
v -8.440518 2.892316 -3.659020
v 2.075073 1.720477 -6.158240
v -8.129685 6.958632 6.161686
v 6.400605 -0.836947 3.013089
v 4.721956 -1.272518 -1.546614
v 7.630259 1.710996 -3.772474
v 5.297181 -0.952026 -4.277653
v 6.765943 -0.471662 4.421346
v 3.453260 -0.904005 1.004664
v 8.377439 0.087931 0.088050
v 2.736966 -1.154914 -0.304353
v -5.872164 -0.863001 -2.700558
v 6.171278 2.459564 5.591582
v 4.426537 -0.434983 0.288579
v -5.944495 -0.441611 -0.976897
v -3.356314 0.334264 0.008457
v 3.533695 -0.338227 -3.403818
v 8.467727 3.214785 -5.733052
v 7.831158 0.302938 0.173360
v 2.271311 2.835195 1.089136
v 2.180226 1.609988 -2.219542
v 3.237357 1.504159 4.176695
v 7.625381 1.311258 4.236442
v -3.885543 0.847987 0.528625
v -2.928083 1.314980 -4.687167
v 5.195821 0.162198 -4.576742
v 8.337667 6.956639 6.145008
v -6.201551 1.734598 -1.976385
v 7.766897 4.537982 1.532704
v 2.832154 1.228013 -4.992929
v -8.461284 6.390311 -5.800656
v -7.598871 3.630486 -6.179619
v 2.728925 3.780602 5.162795
v -2.467672 2.128484 -1.058006
v -3.270734 2.632888 -1.550344
v -4.051092 1.844756 -5.539402
v 6.481510 2.069330 -5.298173
v -4.837532 2.468411 -6.108884
v -3.317638 2.119614 -3.935299
v 1.542343 2.051500 -4.719241
v -6.746481 0.700413 -4.396271
v 8.373783 4.179438 1.890535
v -7.215013 2.335838 -2.315799
v -7.797451 2.884653 -4.411010
v -6.016228 2.780050 -5.703165
v -0.540570 2.842341 -6.204312
v 6.090908 2.705206 6.109987
v -4.441912 3.193026 -4.055723
v 2.366838 2.941281 -5.538911
v 1.101530 2.819880 -5.762174
v 1.319237 3.963438 4.295052
v 4.254017 5.478221 -5.635394
v -3.799450 4.769783 -5.727856
v 6.380607 3.963021 5.061668
v 7.524546 6.662126 4.874826
v 7.473369 6.500963 -3.018814
v 2.728486 6.655966 6.175659
v 1.183180 4.800772 1.637200
v -6.563432 5.244627 -5.361777
v -5.621093 4.058524 -5.314363
v -1.736901 4.713043 -5.213684
v -5.471816 5.219682 -6.042720
v 6.691638 5.469755 -6.045707
v -4.982905 4.893656 -2.878537
v 0.588179 5.495647 -5.975924
v 6.918333 5.039482 -5.267243
v -7.786069 6.773057 -5.985757
v -8.317374 6.340446 -3.300802
v -0.915867 5.548861 2.636549
v 7.419932 6.673698 2.487543
v 0.310029 5.390601 -2.588845
v -6.857191 4.393105 -2.027672
v 1.866082 5.631423 4.637854
v -7.074342 5.304093 -0.149083
v -3.651314 6.833652 -3.852362
v 4.379211 6.779751 5.161733
v 8.392150 6.770375 -3.429039
v 1.249498 7.095263 5.325490
v -6.737061 5.728771 2.680789
v -7.710012 6.374999 -3.542782
v -4.679347 6.939355 -0.137455
v -5.806716 7.000154 4.432781
v -7.390581 6.927483 3.476715
v -1.897692 7.017130 2.389992
v -1.444722 7.016536 -2.209345
v -0.519914 6.852307 -6.140219
v 0.664896 6.998733 -4.959711
vn -0.5027 -0.5224 0.6888
vn 0.5110 -0.5179 0.6860
vn -0.6266 -0.6440 -0.4388
vn 0.5016 -0.5233 -0.6889
vn -0.2975 -0.2711 -0.9154
vn 0.9891 0.1458 -0.0188
vn 0.0062 0.0027 1.0000
vn 0.6053 -0.0053 0.7960
vn 0.9986 -0.0088 0.0528
vn 0.1782 0.8904 -0.4189
vn 0.9995 -0.0034 0.0300
vn -0.4135 0.6307 -0.6567
vn -0.1190 0.9497 -0.2898
vn 0.1124 0.9922 0.0537
vn 0.4279 0.8793 -0.2093
vn 0.3897 0.8679 0.3079
vn 0.6924 0.5991 -0.4021
vn 0.9982 -0.0595 -0.0014
vn 0.7124 0.4180 0.5638
vn 0.7897 0.2465 0.5619
vn 0.9523 0.2825 0.1154
vn -0.3511 0.6432 0.6805
vn 0.5031 0.2260 -0.8342
vn -0.9726 0.1607 -0.1681
vn 0.0536 0.7242 0.6875
vn -0.7724 -0.2715 -0.5742
vn 0.9242 -0.2190 -0.3129
vn 0.7810 0.5736 0.2471
vn -0.9789 -0.1408 -0.1482
vn 0.9048 -0.3705 0.2099
vn 0.4437 0.7593 0.4761
vn -0.1264 0.2549 -0.9587
vn -0.2884 -0.0963 -0.9527
vn 0.8291 0.4737 0.2970
vn -0.8666 0.1970 0.4584
vn 0.3618 0.2261 -0.9044
vn -0.7100 0.6383 0.2974
vn -0.2998 -0.7352 -0.6080
vn -0.9999 0.0118 0.0090
vn -0.0090 0.1549 -0.9879
vn -0.2937 0.5408 0.7882
vn -0.9946 -0.0616 -0.0833
vn 0.4373 0.8967 -0.0688
vn -0.8766 0.2000 0.4377
vn 0.0265 0.4826 0.8754
vn -0.9645 -0.1131 -0.2388
vn 0.4892 0.8721 -0.0044
vn 0.9942 -0.0850 0.0664
vn 0.5608 0.8085 -0.1786
vn 0.2552 0.9510 0.1747
vn -0.2684 -0.0632 -0.9612
vn 0.1432 0.9897 0.0061
vn 0.5086 0.5778 -0.6383
vn -0.5656 0.5960 -0.5699
vn 0.6059 0.6981 0.3815
vn 0.8643 0.1252 -0.4871
vn -0.9988 0.0224 -0.0438
vn 0.8971 0.4197 -0.1384
vn 0.9055 0.4236 -0.0245
vn 0.9239 0.3534 -0.1464
vn -0.8663 0.1972 -0.4590
vn 0.0002 -0.0573 -0.9984
vn -0.7370 0.2163 0.6403
vn -0.0699 0.4294 0.9004
vn 0.4944 0.5644 0.6611
vn 0.0861 -0.5054 -0.8586
vn -0.9974 -0.0718 -0.0093
vn 0.2734 0.5352 0.7993
vn -0.7363 0.4000 -0.5458
vn -0.1525 0.0725 -0.9856
vn 0.3034 0.0052 -0.9528
vn -0.8099 -0.4244 -0.4049
vn -0.1217 -0.9797 -0.1593
vn 0.3762 0.8182 0.4348
vn -0.3859 0.2750 0.8806
vn 0.2646 0.1493 -0.9527
vn -0.6862 -0.6066 -0.4015
vn 0.7545 0.5590 0.3439
vn 0.5247 0.6425 0.5584
vn 1.0000 0.0025 0.0090
vn 0.7799 0.1031 -0.6174
vn 0.9426 0.0394 0.3317
vn 0.2625 0.1287 0.9563
vn -0.1587 0.1046 -0.9818
vn 0.0054 0.0016 1.0000
vn -0.5538 -0.1479 -0.8194
vn -0.3181 0.8615 0.3957
vn 0.4682 0.4803 -0.7417
vn 0.7101 0.3868 -0.5884
vn -0.5158 0.8438 0.1481
vn 0.8389 0.5330 0.1101
vn -0.2395 -0.0682 -0.9685
vn -0.4770 0.7551 -0.4498
vn -0.7874 0.6124 -0.0696
vn -0.0103 0.4354 0.9002
vn 0.7006 0.7072 0.0952
vn 0.8370 0.5445 -0.0542
vn 0.0868 -0.0513 0.9949
vn -0.5398 0.0786 -0.8381
vn 0.1814 0.8343 -0.5206
vn 0.2854 0.7437 -0.6046
vn -0.6609 0.4563 -0.5958
vn 0.5777 0.1420 -0.8038
vn -0.1579 0.9140 0.3738
vn 0.1204 0.6862 -0.7173
vn -0.7140 0.7000 0.0166
vn 0.7048 0.6885 -0.1708
vn -0.8247 0.5655 0.0050
vn 0.8438 0.5205 0.1306
vn 0.4373 0.5403 -0.7189
vn 0.3281 0.1892 -0.9255
vn 0.3504 0.8922 -0.2851
vn -0.5166 0.6822 -0.5174
vn 0.0609 0.5505 -0.8326
vn 0.4745 0.8139 -0.3354
vn 0.1588 0.9716 -0.1754
vn 0.1024 0.9370 -0.3340
vn 0.4844 0.8677 0.1115
vn -0.3450 0.9252 -0.1582
vn -0.0274 0.9968 -0.0749
vn 0.1656 0.9481 -0.2714
vn 0.3654 0.9206 -0.1378
vn 0.2907 0.9537 0.0768
vn -0.0663 0.5168 -0.8535
vn 0.6433 0.7584 -0.1049
s 1
usemtl Liquid_Domain_Material
f 2//2 1//1 3//3
f 4//4 2//2 3//3
f 4//4 3//3 5//5
f 6//6 2//2 4//4
f 8//8 2//2 11//11
f 2//2 6//6 11//11
f 2//2 7//7 1//1
f 2//2 8//8 7//7
f 6//6 4//4 9//9
f 10//10 13//13 14//14
f 15//15 6//6 22//22
f 10//10 17//17 13//13
f 17//17 10//10 19//19
f 10//10 14//14 19//19
f 11//11 6//6 18//18
f 24//24 14//14 13//13
f 24//24 15//15 14//14
f 21//21 20//20 14//14
f 18//18 6//6 15//15
f 16//16 21//21 14//14
f 15//15 22//22 14//14
f 22//22 16//16 14//14
f 17//17 23//23 13//13
f 23//23 12//12 13//13
f 13//13 12//12 24//24
f 20//20 19//19 14//14
f 16//16 22//22 25//25
f 22//22 6//6 9//9
f 26//26 24//24 12//12
f 11//11 18//18 8//8
f 17//17 19//19 34//34
f 24//24 29//29 15//15
f 18//18 15//15 30//30
f 15//15 29//29 30//30
f 21//21 16//16 28//28
f 25//25 28//28 16//16
f 4//4 5//5 84//84
f 27//27 18//18 31//31
f 21//21 28//28 20//20
f 18//18 30//30 31//31
f 22//22 9//9 30//30
f 12//12 23//23 33//33
f 12//12 33//33 26//26
f 23//23 17//17 34//34
f 20//20 34//34 19//19
f 27//27 31//31 29//29
f 24//24 27//27 29//29
f 22//22 30//30 29//29
f 35//35 25//25 22//22
f 26//26 42//42 24//24
f 42//42 38//38 24//24
f 27//27 24//24 38//38
f 22//22 29//29 57//57
f 22//22 57//57 35//35
f 25//25 43//43 28//28
f 55//55 43//43 25//25
f 5//5 32//32 84//84
f 4//4 84//84 40//40
f 1//1 41//41 37//37
f 26//26 33//33 46//46
f 26//26 46//46 42//42
f 28//28 34//34 20//20
f 31//31 38//38 29//29
f 31//31 30//30 38//38
f 1//1 39//39 3//3
f 30//30 9//9 48//48
f 44//44 25//25 35//35
f 45//45 55//55 25//25
f 45//45 25//25 44//44
f 4//4 40//40 36//36
f 27//27 38//38 48//48
f 52//52 28//28 43//43
f 52//52 49//49 47//47
f 43//43 49//49 52//52
f 49//49 43//43 55//55
f 8//8 18//18 27//27
f 34//34 52//52 47//47
f 34//34 28//28 52//52
f 38//38 30//30 48//48
f 38//38 57//57 29//29
f 54//54 50//50 53//53
f 9//9 4//4 56//56
f 32//32 5//5 70//70
f 46//46 33//33 51//51
f 57//57 38//38 42//42
f 49//49 58//58 47//47
f 53//53 62//62 54//54
f 49//49 55//55 59//59
f 57//57 44//44 35//35
f 64//64 55//55 45//45
f 23//23 34//34 47//47
f 46//46 61//61 42//42
f 61//61 57//57 42//42
f 79//79 53//53 50//50
f 79//79 50//50 63//63
f 45//45 44//44 64//64
f 51//51 61//61 46//46
f 23//23 47//47 60//60
f 53//53 66//66 62//62
f 54//54 63//63 50//50
f 68//68 55//55 64//64
f 32//32 70//70 76//76
f 8//8 85//85 7//7
f 8//8 65//65 85//85
f 23//23 71//71 33//33
f 8//8 27//27 65//65
f 59//59 58//58 49//49
f 67//67 44//44 57//57
f 48//48 9//9 80//80
f 81//81 53//53 79//79
f 39//39 69//69 3//3
f 3//3 69//69 70//70
f 5//5 3//3 70//70
f 71//71 23//23 60//60
f 61//61 67//67 57//57
f 62//62 72//72 54//54
f 62//62 66//66 73//73
f 63//63 54//54 72//72
f 68//68 78//78 55//55
f 64//64 44//44 75//75
f 79//79 63//63 74//74
f 68//68 64//64 75//75
f 77//77 74//74 63//63
f 77//77 32//32 74//74
f 32//32 76//76 74//74
f 7//7 85//85 95//95
f 72//72 62//62 73//73
f 73//73 66//66 77//77
f 53//53 81//81 66//66
f 55//55 78//78 59//59
f 84//84 88//88 40//40
f 56//56 4//4 36//36
f 7//7 95//95 1//1
f 33//33 71//71 51//51
f 80//80 27//27 48//48
f 60//60 47//47 58//58
f 80//80 9//9 56//56
f 81//81 79//79 82//82
f 79//79 83//83 82//82
f 74//74 83//83 79//79
f 87//87 78//78 68//68
f 32//32 77//77 84//84
f 60//60 89//89 71//71
f 58//58 89//89 60//60
f 63//63 72//72 73//73
f 77//77 66//66 86//86
f 63//63 73//73 77//77
f 68//68 75//75 87//87
f 65//65 27//27 80//80
f 92//92 61//61 51//51
f 66//66 81//81 110//110
f 81//81 82//82 110//110
f 77//77 86//86 84//84
f 75//75 90//90 87//87
f 91//91 74//74 76//76
f 88//88 87//87 40//40
f 67//67 94//94 44//44
f 74//74 91//91 83//83
f 78//78 87//87 88//88
f 51//51 71//71 92//92
f 61//61 92//92 93//93
f 61//61 93//93 67//67
f 96//96 58//58 59//59
f 66//66 110//110 86//86
f 82//82 83//83 97//97
f 104//104 75//75 44//44
f 83//83 98//98 97//97
f 87//87 90//90 40//40
f 89//89 58//58 96//96
f 96//96 59//59 109//109
f 59//59 78//78 109//109
f 86//86 99//99 84//84
f 76//76 70//70 100//100
f 88//88 84//84 103//103
f 36//36 40//40 101//101
f 86//86 110//110 102//102
f 97//97 110//110 82//82
f 109//109 78//78 125//125
f 83//83 91//91 98//98
f 78//78 88//88 103//103
f 75//75 104//104 90//90
f 70//70 69//69 105//105
f 76//76 100//100 91//91
f 71//71 89//89 111//111
f 96//96 107//107 89//89
f 37//37 39//39 1//1
f 80//80 56//56 115//115
f 39//39 106//106 69//69
f 115//115 56//56 36//36
f 40//40 90//90 101//101
f 71//71 111//111 92//92
f 108//108 94//94 67//67
f 44//44 94//94 104//104
f 86//86 113//113 99//99
f 103//103 125//125 78//78
f 115//115 36//36 104//104
f 98//98 100//100 97//97
f 100//100 98//98 91//91
f 104//104 101//101 90//90
f 104//104 36//36 101//101
f 70//70 105//105 97//97
f 70//70 97//97 100//100
f 1//1 95//95 41//41
f 93//93 108//108 67//67
f 110//110 112//112 102//102
f 110//110 97//97 118//118
f 86//86 102//102 113//113
f 84//84 99//99 124//124
f 103//103 84//84 124//124
f 85//85 65//65 95//95
f 92//92 111//111 114//114
f 111//111 122//122 116//116
f 89//89 122//122 111//111
f 107//107 122//122 89//89
f 119//119 112//112 117//117
f 37//37 106//106 39//39
f 123//123 96//96 109//109
f 102//102 112//112 119//119
f 115//115 104//104 94//94
f 124//124 99//99 113//113
f 92//92 114//114 93//93
f 65//65 80//80 115//115
f 117//117 120//120 119//119
f 117//117 112//112 121//121
f 107//107 96//96 123//123
f 112//112 110//110 118//118
f 119//119 113//113 102//102
f 118//118 97//97 105//105
f 111//111 116//116 114//114
f 117//117 121//121 120//120
f 112//112 118//118 121//121
f 123//123 122//122 107//107
f 109//109 125//125 123//123
f 106//106 118//118 105//105
f 69//69 106//106 105//105
f 103//103 124//124 125//125
f 41//41 95//95 116//116
f 116//116 95//95 65//65
f 120//120 37//37 41//41
f 116//116 122//122 41//41
f 65//65 114//114 116//116
f 93//93 114//114 65//65
f 120//120 121//121 37//37
f 122//122 120//120 41//41
f 122//122 119//119 120//120
f 65//65 108//108 93//93
f 122//122 123//123 119//119
f 121//121 118//118 37//37
f 118//118 106//106 37//37
f 123//123 113//113 119//119
f 65//65 115//115 108//108
f 123//123 124//124 113//113
f 115//115 94//94 108//108
f 125//125 124//124 123//123
