# Blender 4.1.1
# www.blender.org
mtllib aa0113.mtl
o Liquid_Domain
v -8.436424 -9.085081 6.086719
v -1.893439 -8.646223 6.186840
v -8.445530 -9.074698 -6.193409
v 8.455992 -9.077813 6.196351
v 8.456318 -9.089638 -6.181679
v -8.360208 -4.858083 6.035267
v -7.862590 -6.034695 5.973073
v -5.796441 -6.662024 6.034733
v -2.096123 -7.045646 5.631887
v -3.503229 -7.787181 0.232019
v -5.959267 -7.132457 5.525664
v -1.347446 -7.531110 2.693705
v -7.255984 -7.119196 5.583994
v -1.233164 -6.101672 3.946681
v -5.036368 -7.149590 2.860697
v -3.968408 -6.021448 0.375411
v -7.421466 -6.309741 1.827080
v -5.297592 -5.528910 0.428027
v 6.795399 -5.956934 0.350040
v 3.610622 -6.349967 -1.474513
v -5.244762 -4.153131 6.028107
v -2.845733 -5.502288 5.634329
v -2.983430 -5.028652 5.385377
v -3.503254 -4.689803 1.341164
v 4.888898 -5.538836 0.654978
v -3.764865 -4.848785 6.113563
v 5.892103 6.926431 6.197625
v 6.509376 -3.108489 1.296932
v 5.617728 -5.149616 -2.143275
v -7.232985 -4.018364 5.604309
v -2.509124 -4.290278 5.783682
v -0.996316 -4.143274 2.570032
v -7.242342 -3.766060 1.023871
v 3.717810 -4.004677 -0.960980
v -7.714810 -4.339092 2.557788
v -8.456921 -1.645844 0.974495
v 7.043859 -2.274601 -0.517530
v 7.537625 -3.656840 -2.993576
v 4.623848 -2.503537 -3.449685
v -3.129253 -3.373220 6.123711
v -1.654907 -2.857513 5.303047
v -2.320864 -2.925395 0.308644
v -3.841818 -2.586579 0.586183
v 4.337777 -1.574406 -0.339818
v -4.389209 -3.458077 5.435091
v -7.397849 -1.743288 5.389505
v -0.895871 -2.448786 -0.749425
v 6.594422 -3.714110 -4.405477
v -8.351097 -1.332439 4.099222
v -6.353153 -1.682391 -1.098733
v -1.980296 -2.226093 -0.147609
v -1.481824 -2.624682 -0.890087
v -7.108123 -1.579469 3.827631
v -3.349131 -1.899545 -3.204195
v -6.692084 -2.149539 -2.702500
v -8.040053 -0.618919 6.196617
v -7.186669 -1.514975 1.937486
v 5.167114 -0.607001 1.884381
v -4.573755 -1.358333 -1.863311
v -1.501922 -1.903491 -0.234275
v 6.269918 -1.151706 -2.678716
v -7.242377 -2.323698 -3.999546
v 7.032523 -0.552026 -4.175130
v -1.316398 -1.963092 3.524807
v -1.661672 -1.335700 1.424773
v -7.229341 0.044285 -1.155659
v 8.426887 2.660733 -0.551461
v -1.696028 -0.214978 -3.996957
v 5.072434 -0.306747 -2.200583
v -8.402514 6.756100 -6.153035
v -5.487556 -0.698206 5.292923
v -1.106139 1.627070 -1.678280
v -5.575049 0.021152 -2.937559
v -6.485109 -0.458589 3.894540
v -6.292772 0.526856 -4.981518
v 8.411343 6.631239 6.154039
v -8.411989 -0.352039 3.325748
v 5.746497 -0.683485 3.847564
v -1.774983 1.206402 3.626281
v 5.737955 0.674635 2.280656
v 7.188637 0.905651 -2.254898
v -7.079274 2.194695 -4.726805
v 7.237566 1.133609 4.100004
v -6.644796 0.682956 1.946373
v -1.462469 1.347028 1.057680
v 3.519656 0.279562 1.702857
v 8.411283 6.822795 -6.176261
v -2.540981 1.702932 5.104950
v -5.689071 1.022618 4.647453
v 4.336264 0.533905 3.470595
v 5.364402 2.367349 1.921832
v 4.395148 2.662355 0.666931
v 1.830554 2.315121 0.766860
v 1.247281 4.787707 -6.214443
v 6.073481 2.462174 3.741905
v 7.404118 2.612406 -0.283733
v -2.689785 1.098615 -4.921182
v 6.507936 2.284968 -4.766881
v -1.767779 6.945195 6.194996
v 3.820310 3.397955 -4.409167
v -6.701954 2.736076 4.701986
v 7.082883 2.401236 1.331276
v 0.039236 4.213074 1.315236
v 2.294472 3.098891 1.323328
v 2.904916 3.476297 -1.237561
v -8.427598 7.042013 6.150384
v 0.708946 3.821751 3.276388
v -7.741879 6.458032 -2.448023
v -1.150269 4.447422 -4.332547
v -8.398791 5.750054 -1.847719
v 7.357945 6.468446 3.010615
v 2.878324 4.316245 -3.808814
v 6.493465 3.372669 4.846955
v -6.862217 5.202243 -5.028158
v -1.863239 4.182121 4.435569
v 0.388972 3.628679 2.618233
v 6.608635 6.497214 2.659615
v 6.827311 3.959059 1.744134
v -8.324045 6.838997 1.482608
v 7.030176 5.020451 1.052130
v 4.426776 4.964984 -2.854648
v -3.660916 5.580036 -5.292034
v 7.353965 5.504878 -4.702826
v 4.932277 6.789092 -6.125129
v -7.098819 6.749135 4.627501
v 7.513656 6.511563 -1.617769
v 6.542449 4.246834 1.701942
v 8.395493 7.045609 1.718387
v 6.829129 6.478071 5.128993
v -2.055455 6.458809 4.686878
v 3.467490 4.970036 2.901914
v 6.547901 4.991047 1.183298
v 5.123578 7.021184 4.490773
v 2.663474 6.718092 3.653480
v 2.410413 5.674249 -5.469375
v -0.220607 7.029630 -5.805889
v -3.095259 6.291652 -6.124414
v -7.839393 6.298951 -5.246683
v 6.690638 6.846406 -4.819174
v 4.435707 6.987116 2.200621
v 6.877067 6.924848 1.183296
v 2.167604 6.701519 -3.451932
v 0.057976 6.971854 3.588394
v 0.248340 7.098187 -2.017538
vn -0.5083 -0.5090 0.6946
vn -0.0510 0.0020 0.9987
vn -0.5036 -0.5235 -0.6873
vn 0.5030 -0.5230 0.6880
vn 0.5038 -0.5244 -0.6864
vn -0.4884 -0.0574 0.8707
vn 0.5175 0.1418 0.8438
vn 0.1406 0.0282 0.9897
vn -0.9121 0.3466 0.2190
vn -0.0425 0.4755 0.8787
vn 0.1704 0.7732 -0.6109
vn -0.7570 0.5192 0.3967
vn 0.3853 0.8061 -0.4491
vn -0.9807 -0.0655 -0.1844
vn 0.3619 0.9054 0.2218
vn -0.0784 -0.0274 0.9965
vn 0.5360 0.6963 0.4774
vn 0.0978 0.4223 0.9012
vn -0.6123 0.6798 -0.4037
vn 0.6013 0.6358 0.4840
vn -0.2796 -0.6380 0.7174
vn -0.3852 -0.6624 0.6425
vn -0.5724 0.0897 -0.8150
vn -0.5277 0.1768 0.8308
vn 0.3913 0.4555 -0.7996
vn 0.3023 0.0483 0.9520
vn 0.0449 0.6205 0.7829
vn -0.5123 0.1497 -0.8457
vn -0.1323 0.7366 0.6633
vn 0.6085 -0.4131 -0.6775
vn -0.8746 0.1965 -0.4433
vn -0.9231 0.3514 0.1559
vn 0.8380 0.1183 0.5328
vn 0.9999 -0.0110 0.0114
vn 0.9919 -0.0477 0.1176
vn -0.9982 0.0069 0.0600
vn -0.9931 0.0856 -0.0804
vn -0.9343 0.3528 0.0516
vn 0.7346 -0.0113 0.6784
vn -0.0269 -0.4759 0.8791
vn -0.7355 0.0623 -0.6747
vn 0.1158 0.5916 0.7979
vn -0.1266 0.5211 0.8441
vn 0.9870 0.1544 -0.0444
vn 0.0512 -0.2695 -0.9616
vn 0.5926 -0.3248 -0.7371
vn -0.8973 0.4328 0.0863
vn -0.1136 0.3821 0.9171
vn 0.1952 -0.0734 -0.9780
vn 0.4838 0.7372 0.4717
vn -0.6187 0.7846 -0.0389
vn -0.0088 0.9772 0.2120
vn 0.9263 -0.0924 -0.3652
vn -0.1537 0.8500 0.5038
vn 0.2844 0.8144 -0.5059
vn -0.1553 -0.0153 0.9877
vn 0.9230 0.0069 0.3846
vn 0.3513 0.2326 -0.9069
vn 0.2422 0.9697 0.0313
vn 0.2391 -0.7677 0.5946
vn -0.9968 -0.0053 -0.0792
vn 0.4925 0.6827 0.5398
vn -0.4555 0.0581 0.8884
vn -0.9781 -0.0603 -0.1990
vn -0.9623 -0.2636 0.0672
vn 0.9816 0.1845 -0.0494
vn 1.0000 0.0042 0.0002
vn -0.6322 0.2678 0.7270
vn 0.8641 0.1032 0.4926
vn -0.4721 0.6484 -0.5972
vn 0.2164 -0.2585 -0.9415
vn -0.9800 0.1521 0.1280
vn 0.0788 0.7168 -0.6928
vn 0.7068 -0.3806 -0.5963
vn 0.1432 0.1521 0.9779
vn 0.5350 0.4690 0.7027
vn -0.7952 -0.5539 -0.2465
vn -0.0280 0.8661 -0.4990
vn -0.9145 0.2691 -0.3021
vn -0.0621 0.9595 -0.2747
vn -0.9873 0.0625 0.1463
vn 0.6158 0.0370 0.7870
vn -0.5455 0.4141 -0.7287
vn 0.9912 -0.1231 -0.0490
vn -0.9447 0.3270 -0.0238
vn 0.3650 0.1985 -0.9096
vn 0.4999 0.5219 -0.6912
vn -0.2534 -0.1306 -0.9585
vn 0.3084 -0.0481 -0.9500
vn 0.9200 0.2143 -0.3282
vn 0.8872 -0.2937 -0.3559
vn 0.2882 -0.6293 -0.7218
vn 0.9929 0.0567 -0.1045
vn 0.0343 0.1678 -0.9852
vn 0.8014 -0.0266 -0.5975
vn -0.9983 0.0252 -0.0518
vn -0.3490 0.2198 0.9110
vn -0.3666 0.1208 0.9225
vn -0.0346 0.6497 0.7594
vn 0.4457 0.4224 0.7892
vn 0.5451 0.0855 -0.8340
vn -0.9818 0.1149 -0.1510
vn -0.7359 0.5438 0.4035
vn 0.3204 -0.5611 -0.7632
vn 0.8718 -0.4890 -0.0287
vn -0.4982 0.5667 0.6562
vn -0.5165 0.5194 -0.6807
vn 0.2769 0.9607 -0.0171
vn -0.7057 0.3291 0.6274
vn -0.9483 0.3131 -0.0526
vn -0.8508 0.5087 0.1315
vn 0.9097 0.3788 -0.1703
vn 0.1674 0.2537 -0.9527
vn 0.4590 0.2615 0.8491
vn -0.2521 -0.0296 -0.9673
vn -0.6333 0.7416 0.2213
vn 0.5475 0.4019 0.7340
vn -0.0791 -0.1252 0.9890
vn -0.5916 0.8041 -0.0591
vn -0.9228 -0.1643 -0.3484
vn 0.6921 -0.1372 -0.7086
vn -0.0442 0.4299 0.9018
vn -0.6364 0.0031 0.7713
vn -0.1903 0.7298 -0.6566
vn 0.3528 0.8214 -0.4482
vn -0.9905 0.0775 0.1135
vn 0.5348 0.1119 -0.8375
vn 0.6103 0.7902 0.0560
vn -0.5042 0.0270 -0.8631
vn -0.2492 0.5775 -0.7774
vn -0.7247 0.6324 -0.2736
vn 0.7374 -0.5167 -0.4351
vn 0.3662 0.9243 -0.1081
vn -0.1360 0.6264 -0.7675
vn 0.1682 0.9773 -0.1291
vn -0.0632 0.8342 -0.5479
vn -0.0701 0.7807 -0.6209
vn 0.3350 0.8675 0.3678
vn -0.3124 0.8027 0.5079
vn -0.2732 0.9594 0.0693
vn -0.0119 0.9722 -0.2339
vn 0.4597 0.8213 -0.3378
vn -0.2066 0.5822 -0.7864
vn -0.5188 0.8424 0.1455
s 1
usemtl Liquid_Domain_Material
f 1//1 4//4 2//2
f 4//4 1//1 5//5
f 5//5 1//1 3//3
f 1//1 6//6 3//3
f 5//5 3//3 94//94
f 2//2 8//8 1//1
f 1//1 8//8 7//7
f 2//2 11//11 8//8
f 2//2 9//9 11//11
f 12//12 10//10 15//15
f 1//1 7//7 6//6
f 11//11 15//15 13//13
f 12//12 11//11 9//9
f 12//12 15//15 11//11
f 7//7 8//8 13//13
f 9//9 14//14 12//12
f 15//15 10//10 16//16
f 18//18 17//17 13//13
f 15//15 18//18 13//13
f 15//15 16//16 18//18
f 7//7 13//13 17//17
f 10//10 12//12 14//14
f 25//25 19//19 20//20
f 8//8 21//21 13//13
f 8//8 22//22 26//26
f 11//11 23//23 8//8
f 8//8 23//23 22//22
f 23//23 14//14 9//9
f 7//7 17//17 35//35
f 10//10 14//14 24//24
f 29//29 20//20 19//19
f 8//8 26//26 21//21
f 9//9 2//2 31//31
f 4//4 27//27 2//2
f 22//22 9//9 31//31
f 9//9 22//22 23//23
f 17//17 18//18 33//33
f 24//24 16//16 10//10
f 19//19 25//25 28//28
f 6//6 36//36 3//3
f 30//30 6//6 7//7
f 22//22 31//31 26//26
f 11//11 13//13 21//21
f 11//11 21//21 23//23
f 21//21 45//45 23//23
f 31//31 23//23 26//26
f 32//32 24//24 14//14
f 35//35 17//17 33//33
f 16//16 24//24 18//18
f 20//20 34//34 25//25
f 19//19 37//37 29//29
f 20//20 29//29 34//34
f 2//2 40//40 31//31
f 2//2 27//27 40//40
f 45//45 26//26 23//23
f 7//7 35//35 30//30
f 28//28 37//37 19//19
f 29//29 38//38 48//48
f 29//29 48//48 39//39
f 45//45 40//40 26//26
f 31//31 41//41 23//23
f 23//23 32//32 14//14
f 42//42 24//24 32//32
f 24//24 43//43 18//18
f 25//25 34//34 44//44
f 37//37 38//38 29//29
f 39//39 34//34 29//29
f 30//30 21//21 6//6
f 26//26 40//40 21//21
f 21//21 30//30 45//45
f 31//31 40//40 41//41
f 30//30 35//35 46//46
f 42//42 32//32 47//47
f 42//42 43//43 24//24
f 94//94 3//3 70//70
f 45//45 41//41 40//40
f 41//41 64//64 23//23
f 23//23 64//64 32//32
f 50//50 33//33 18//18
f 52//52 42//42 47//47
f 5//5 94//94 87//87
f 21//21 56//56 6//6
f 46//46 35//35 53//53
f 49//49 36//36 6//6
f 35//35 33//33 57//57
f 64//64 47//47 32//32
f 57//57 33//33 50//50
f 42//42 51//51 43//43
f 45//45 30//30 46//46
f 53//53 35//35 57//57
f 25//25 58//58 28//28
f 58//58 25//25 44//44
f 43//43 50//50 18//18
f 47//47 54//54 52//52
f 34//34 39//39 44//44
f 49//49 57//57 36//36
f 47//47 64//64 65//65
f 59//59 43//43 51//51
f 51//51 42//42 65//65
f 60//60 65//65 42//42
f 47//47 65//65 60//60
f 50//50 43//43 59//59
f 52//52 59//59 51//51
f 51//51 60//60 52//52
f 42//42 52//52 60//60
f 52//52 54//54 59//59
f 61//61 38//38 37//37
f 63//63 38//38 61//61
f 54//54 62//62 55//55
f 38//38 63//63 48//48
f 39//39 48//48 63//63
f 40//40 27//27 99//99
f 45//45 46//46 71//71
f 4//4 5//5 67//67
f 57//57 50//50 66//66
f 47//47 60//60 51//51
f 47//47 68//68 54//54
f 39//39 69//69 44//44
f 54//54 55//55 59//59
f 39//39 63//63 69//69
f 36//36 70//70 3//3
f 21//21 40//40 56//56
f 45//45 71//71 41//41
f 57//57 49//49 53//53
f 58//58 44//44 86//86
f 47//47 51//51 72//72
f 50//50 55//55 66//66
f 55//55 62//62 66//66
f 55//55 73//73 59//59
f 54//54 75//75 62//62
f 71//71 46//46 74//74
f 46//46 53//53 74//74
f 53//53 49//49 77//77
f 74//74 53//53 77//77
f 28//28 80//80 37//37
f 6//6 77//77 49//49
f 41//41 71//71 88//88
f 41//41 88//88 64//64
f 76//76 4//4 67//67
f 79//79 65//65 64//64
f 77//77 57//57 84//84
f 28//28 58//58 80//80
f 61//61 37//37 81//81
f 50//50 73//73 55//55
f 61//61 81//81 63//63
f 68//68 97//97 54//54
f 62//62 75//75 82//82
f 6//6 56//56 106//106
f 6//6 106//106 77//77
f 84//84 74//74 77//77
f 57//57 77//77 36//36
f 93//93 86//86 44//44
f 72//72 68//68 47//47
f 73//73 50//50 59//59
f 71//71 74//74 89//89
f 83//83 80//80 78//78
f 85//85 65//65 79//79
f 80//80 102//102 37//37
f 65//65 85//85 51//51
f 51//51 85//85 72//72
f 66//66 62//62 82//82
f 97//97 75//75 54//54
f 40//40 99//99 56//56
f 71//71 89//89 88//88
f 78//78 90//90 83//83
f 78//78 80//80 90//90
f 58//58 91//91 80//80
f 86//86 92//92 58//58
f 37//37 96//96 81//81
f 74//74 101//101 89//89
f 64//64 88//88 79//79
f 83//83 90//90 95//95
f 77//77 106//106 36//36
f 58//58 92//92 91//91
f 102//102 96//96 37//37
f 69//69 93//93 44//44
f 81//81 98//98 63//63
f 36//36 110//110 70//70
f 97//97 68//68 72//72
f 69//69 63//63 100//100
f 83//83 102//102 80//80
f 80//80 91//91 90//90
f 92//92 86//86 104//104
f 57//57 66//66 84//84
f 75//75 97//97 82//82
f 83//83 95//95 113//113
f 85//85 103//103 72//72
f 93//93 69//69 105//105
f 81//81 96//96 98//98
f 97//97 122//122 82//82
f 27//27 4//4 76//76
f 90//90 91//91 95//95
f 79//79 116//116 85//85
f 104//104 86//86 93//93
f 79//79 88//88 107//107
f 74//74 84//84 101//101
f 107//107 116//116 79//79
f 116//116 103//103 85//85
f 69//69 100//100 105//105
f 108//108 66//66 82//82
f 72//72 109//109 97//97
f 63//63 98//98 100//100
f 83//83 111//111 102//102
f 112//112 105//105 100//100
f 94//94 70//70 137//137
f 115//115 88//88 89//89
f 105//105 104//104 93//93
f 92//92 104//104 105//105
f 89//89 101//101 115//115
f 115//115 107//107 88//88
f 95//95 91//91 117//117
f 111//111 118//118 102//102
f 105//105 112//112 121//121
f 87//87 94//94 124//124
f 106//106 119//119 36//36
f 118//118 117//117 91//91
f 102//102 118//118 91//91
f 102//102 120//120 96//96
f 96//96 126//126 98//98
f 72//72 103//103 109//109
f 114//114 108//108 82//82
f 97//97 109//109 122//122
f 98//98 123//123 100//100
f 83//83 113//113 129//129
f 115//115 101//101 130//130
f 113//113 95//95 133//133
f 111//111 120//120 118//118
f 127//127 117//117 118//118
f 120//120 127//127 118//118
f 84//84 66//66 125//125
f 127//127 102//102 91//91
f 127//127 120//120 102//102
f 36//36 119//119 110//110
f 120//120 126//126 96//96
f 121//121 92//92 105//105
f 100//100 135//135 112//112
f 123//123 139//139 100//100
f 67//67 5//5 87//87
f 99//99 106//106 56//56
f 95//95 117//117 133//133
f 107//107 131//131 116//116
f 117//117 127//127 132//132
f 127//127 91//91 132//132
f 91//91 92//92 132//132
f 125//125 66//66 108//108
f 126//126 123//123 98//98
f 82//82 122//122 114//114
f 113//113 133//133 129//129
f 76//76 67//67 128//128
f 101//101 84//84 125//125
f 131//131 107//107 134//134
f 111//111 132//132 120//120
f 121//121 132//132 92//92
f 100//100 139//139 135//135
f 94//94 137//137 136//136
f 124//124 94//94 135//135
f 101//101 125//125 130//130
f 107//107 115//115 143//143
f 132//132 111//111 117//117
f 131//131 103//103 116//116
f 125//125 108//108 119//119
f 109//109 103//103 144//144
f 142//142 121//121 112//112
f 138//138 108//108 114//114
f 143//143 115//115 130//130
f 83//83 129//129 111//111
f 110//110 119//119 108//108
f 123//123 126//126 139//139
f 128//128 67//67 87//87
f 108//108 138//138 110//110
f 135//135 142//142 112//112
f 109//109 136//136 122//122
f 110//110 138//138 70//70
f 134//134 107//107 143//143
f 131//131 134//134 140//140
f 103//103 131//131 140//140
f 132//132 141//141 120//120
f 132//132 121//121 141//141
f 122//122 138//138 114//114
f 137//137 122//122 136//136
f 136//136 135//135 94//94
f 140//140 144//144 103//103
f 120//120 141//141 126//126
f 121//121 142//142 141//141
f 144//144 136//136 109//109
f 136//136 142//142 135//135
f 139//139 124//124 135//135
f 99//99 125//125 106//106
f 27//27 133//133 99//99
f 76//76 128//128 27//27
f 99//99 130//130 125//125
f 133//133 143//143 99//99
f 129//129 133//133 27//27
f 128//128 129//129 27//27
f 130//130 99//99 143//143
f 133//133 134//134 143//143
f 140//140 134//134 133//133
f 129//129 128//128 111//111
f 141//141 140//140 133//133
f 106//106 125//125 119//119
f 117//117 141//141 133//133
f 128//128 117//117 111//111
f 128//128 141//141 117//117
f 140//140 141//141 144//144
f 141//141 128//128 126//126
f 141//141 142//142 144//144
f 128//128 139//139 126//126
f 142//142 136//136 144//144
f 128//128 87//87 139//139
f 70//70 138//138 137//137
f 138//138 122//122 137//137
f 87//87 124//124 139//139
