# Blender 4.1.1
# www.blender.org
mtllib aa0168.mtl
o Liquid_Domain
v -8.477235 -9.081549 6.211323
v 8.421017 -9.095670 6.175003
v 8.471577 -9.099422 -5.874078
v -8.442768 -9.092678 -6.207565
v 8.134167 -8.755833 -6.217273
v 8.428231 -1.078098 5.832784
v 5.054832 -2.873329 6.069724
v 8.436045 -0.724092 -2.233219
v 7.181001 -2.650115 6.143868
v 7.434305 -4.951739 3.285502
v 4.579220 -4.409653 2.737095
v 6.789054 -4.127437 0.369334
v 7.951526 -2.133840 6.108635
v 7.539187 -2.823357 4.258556
v 4.471678 -3.621374 3.920653
v 5.079129 -3.834931 0.547372
v 6.323843 4.723296 -6.188598
v 7.314419 -3.200928 -0.258313
v 4.952824 -0.807886 6.061481
v 3.777521 -2.479550 3.158056
v 6.556384 -3.226433 -1.397321
v -2.470304 1.605539 -6.134641
v 5.346133 -2.230129 5.312912
v 7.014392 -1.778951 2.705875
v 5.209501 -1.818208 1.629850
v 6.216844 -2.961502 -3.268694
v 7.140867 -2.145726 -3.167732
v 3.776912 -0.456182 6.148647
v 6.249655 -1.396632 -1.280494
v 5.541271 -2.407496 -1.909045
v 2.181572 -1.153894 4.905864
v 4.185142 -0.749181 5.510453
v 6.798316 -1.723312 3.825231
v 3.682864 -1.315439 0.775812
v 4.503366 -1.623991 -0.204207
v 2.515418 -1.956742 2.944832
v 7.409091 0.580686 -0.091194
v 4.887268 -1.939330 -2.836987
v -8.403633 5.844491 -2.307949
v -8.403091 6.862229 6.169096
v 2.215236 0.824938 2.042749
v -4.633793 -0.803475 2.178351
v -5.551292 -0.868185 0.333846
v -3.790121 -1.236744 0.444071
v 4.642982 -0.448434 -3.289614
v 6.801397 1.235475 -4.606358
v 7.145420 -0.001164 6.022861
v 0.506438 2.575797 -6.181195
v 4.678440 0.108706 5.346821
v 7.608697 0.458635 5.277106
v -4.609720 0.579042 1.268144
v 6.327101 1.189078 5.977438
v 3.289278 1.387494 5.859083
v 3.208366 2.519577 6.152568
v 8.050749 1.831210 6.116451
v 7.187925 3.373526 2.504154
v -5.967369 0.782197 -1.863877
v -4.443533 1.612787 -4.693430
v 7.477722 4.107358 -3.250164
v -8.367626 5.042263 -6.132066
v 2.345716 2.067303 5.046809
v -7.482722 1.089008 -4.029223
v -5.895559 1.361364 -6.067746
v 1.664383 2.030228 3.185635
v -4.811398 2.379540 -3.354955
v -6.042369 2.025679 -5.087418
v 5.958190 2.895316 -4.696587
v 8.410560 4.597645 -6.143469
v 7.216137 3.092945 0.114769
v 2.746454 1.000877 -0.950638
v 3.535405 1.435388 -4.680749
v 4.717851 2.216702 4.442368
v -6.747012 3.302174 -1.505233
v 1.548041 2.868229 -5.071547
v -6.683434 3.478833 -5.717770
v 4.850838 1.998920 6.059808
v 3.512571 3.341663 4.703779
v 8.415667 6.942085 0.604237
v 0.506672 3.645988 -1.847983
v -7.164273 3.934739 -4.595454
v 3.112338 3.681074 -6.050783
v 6.633329 3.039667 5.769424
v 1.904867 4.995486 3.751549
v 5.819094 3.957761 -5.076228
v 4.279827 4.152100 -5.387231
v 7.238274 3.452862 4.485246
v 0.615160 4.941959 2.079372
v -3.468772 4.441302 -5.966096
v -6.193032 3.924765 -3.413298
v 3.410041 5.181448 4.975117
v -6.680112 3.838952 2.792969
v -6.662930 3.937214 0.137722
v 5.946405 5.202475 5.146759
v 6.735671 5.372739 3.825804
v -4.991208 6.803771 1.911382
v -7.306492 3.854013 -1.137414
v -0.458804 6.600370 -5.562881
v -1.290628 5.404378 -6.084868
v 0.331028 5.402214 -0.366001
v 8.310593 6.461805 -3.142487
v -6.381166 4.640769 -2.823752
v -1.339233 6.822202 -3.075173
v -4.511749 5.820263 -3.774598
v 1.842292 6.835922 6.187008
v -7.290571 6.430786 -0.831354
v 7.486006 6.472495 -0.996880
v -8.326053 6.935744 -0.837762
v 3.436967 6.792970 4.913112
v -7.088973 6.831354 3.974196
v 7.285250 6.156678 -5.262116
v 8.279176 7.057166 6.068005
v -4.195661 6.091616 -0.230111
v -8.099633 6.138755 -4.791286
v -0.917448 6.043766 4.049943
v -5.824940 7.010930 3.800169
v -0.759333 6.652230 -0.381640
v -1.739645 7.013223 -5.396428
v -7.870551 6.988835 -5.874107
v -3.003809 5.951319 4.135533
v 7.525637 6.906877 3.608341
v -3.548745 6.841058 -3.387545
v -2.828177 7.083932 5.402470
v 0.586271 6.985305 4.253988
v -1.935601 6.955090 2.138184
v -2.583269 7.062516 -0.276846
vn -0.5028 -0.5218 0.6891
vn 0.5017 -0.5217 0.6900
vn 0.6246 -0.6518 -0.4301
vn -0.5029 -0.5215 -0.6893
vn 0.2825 -0.2808 -0.9172
vn 0.8447 -0.0014 0.5353
vn -0.0196 0.0522 0.9984
vn 1.0000 0.0062 -0.0005
vn -0.0191 0.4869 0.8733
vn -0.5432 0.7553 -0.3668
vn 0.6585 0.7473 0.0893
vn -0.2633 0.8853 0.3832
vn -0.1044 0.1188 0.9874
vn -0.8865 0.3918 -0.2462
vn 0.4365 0.7060 -0.5577
vn 0.7468 0.4459 0.4933
vn -0.1352 0.3818 -0.9143
vn -0.9084 0.3661 0.2021
vn 0.5972 0.0097 0.8020
vn 0.6558 0.6955 0.2938
vn 0.2102 0.9378 0.2762
vn -0.1621 0.1170 -0.9798
vn 0.2715 0.6476 -0.7120
vn -0.9940 -0.0868 -0.0663
vn 0.6618 0.5699 0.4871
vn 0.0501 0.7476 0.6622
vn -0.7713 0.3767 0.5131
vn 0.0436 0.0279 0.9987
vn 0.4652 0.7714 -0.4342
vn 0.5311 0.7755 -0.3413
vn 0.7280 0.3654 -0.5801
vn 0.2632 0.1566 -0.9520
vn -0.9418 -0.2596 0.2138
vn 0.6151 0.7411 0.2691
vn 0.1343 0.9893 -0.0577
vn 0.7247 0.6637 0.1855
vn -0.9992 0.0053 -0.0403
vn 0.7101 0.5068 0.4887
vn -0.5876 0.7593 -0.2796
vn -0.5113 0.5158 0.6874
vn 0.9430 0.2792 0.1810
vn 0.0033 0.1746 -0.9846
vn 0.6299 0.1759 0.7565
vn -0.6182 0.4445 0.6483
vn 0.5389 0.4657 0.7019
vn -0.3050 0.1462 0.9411
vn -0.3746 -0.3507 0.8583
vn 0.0876 0.1923 -0.9774
vn 0.0177 -0.0326 -0.9993
vn -0.9563 0.0039 -0.2923
vn -0.0459 -0.9825 -0.1808
vn -0.1503 0.8812 0.4483
vn 0.7225 0.2700 -0.6365
vn 0.1950 -0.2946 0.9355
vn 0.1024 -0.0565 0.9931
vn -0.9973 0.0307 -0.0669
vn -0.1025 0.5911 -0.8001
vn -0.2547 0.9386 -0.2325
vn -0.9635 0.0624 0.2605
vn -0.4632 0.1512 -0.8732
vn 0.8611 -0.2834 -0.4221
vn 0.6901 0.6744 0.2626
vn 0.4062 0.6972 0.5907
vn 0.8732 0.3179 -0.3695
vn -0.7921 -0.1313 -0.5961
vn 0.4640 0.7895 0.4017
vn -0.3588 0.1659 0.9185
vn 0.5622 0.2595 -0.7852
vn -0.9991 -0.0090 -0.0422
vn 0.7799 0.6018 0.1723
vn 0.1346 0.6557 0.7429
vn -0.0657 -0.5688 -0.8199
vn 0.1695 -0.3625 -0.9165
vn 0.5305 0.8278 0.1825
vn 0.8722 0.3682 -0.3222
vn 0.0160 -0.8529 0.5218
vn 0.2169 -0.2340 -0.9477
vn 0.5582 0.8262 -0.0760
vn 0.8535 0.5203 -0.0303
vn 0.9933 0.1155 -0.0083
vn -0.3795 0.9230 -0.0642
vn -0.1616 -0.7680 -0.6197
vn 0.5118 0.3173 -0.7983
vn -0.3757 0.2876 0.8810
vn -0.4101 0.6772 0.6109
vn -0.8112 -0.2753 -0.5160
vn 0.7983 0.5754 -0.1775
vn -0.4464 0.1982 -0.8726
vn -0.2384 -0.3010 -0.9233
vn 0.3161 0.0761 -0.9457
vn 0.1039 0.8417 -0.5299
vn -0.4956 0.8685 -0.0071
vn -0.3139 -0.1820 -0.9319
vn -0.7201 -0.1212 -0.6832
vn -0.5921 0.7472 -0.3017
vn 0.5405 0.7884 0.2939
vn 0.5162 0.6512 -0.5563
vn -0.0623 0.2653 -0.9622
vn 0.8819 0.4662 -0.0701
vn 0.6182 0.7793 -0.1023
vn 0.0764 0.9533 -0.2921
vn 0.5595 0.8282 0.0318
vn -0.5932 0.6665 -0.4516
vn 0.0231 0.5883 0.8083
vn 0.7615 0.6044 -0.2339
vn -0.7739 0.6286 -0.0774
vn -0.4218 0.8525 -0.3088
vn 0.0983 0.6895 -0.7176
vn 0.0842 0.9387 -0.3343
vn -0.1431 0.9381 -0.3153
vn 0.4881 0.5554 0.6733
vn -0.5856 0.7890 -0.1857
vn -0.1717 0.9680 0.1828
vn 0.0531 0.8521 -0.5207
vn -0.1975 0.9105 -0.3632
vn 0.5472 0.8356 0.0482
vn -0.2853 0.7155 -0.6377
vn 0.0161 0.9080 -0.4188
vn 0.1715 0.9733 -0.1525
vn -0.4387 0.8315 -0.3407
vn -0.4698 0.8522 -0.2304
vn 0.0280 0.9885 -0.1487
vn 0.0294 0.7226 -0.6906
vn 0.3059 0.9363 0.1726
vn -0.1028 0.9934 -0.0514
s 1
usemtl Liquid_Domain_Material
f 3//3 2//2 1//1
f 3//3 1//1 4//4
f 5//5 3//3 4//4
f 2//2 3//3 6//6
f 2//2 9//9 1//1
f 6//6 3//3 8//8
f 1//1 9//9 7//7
f 10//10 11//11 15//15
f 10//10 16//16 11//11
f 12//12 16//16 10//10
f 5//5 4//4 17//17
f 7//7 28//28 1//1
f 2//2 13//13 9//9
f 13//13 2//2 6//6
f 15//15 14//14 10//10
f 10//10 18//18 12//12
f 12//12 18//18 21//21
f 7//7 19//19 28//28
f 15//15 23//23 14//14
f 15//15 11//11 20//20
f 10//10 24//24 18//18
f 12//12 21//21 16//16
f 23//23 9//9 14//14
f 11//11 25//25 20//20
f 14//14 24//24 10//10
f 21//21 25//25 16//16
f 30//30 21//21 26//26
f 27//27 26//26 21//21
f 9//9 19//19 7//7
f 11//11 16//16 25//25
f 18//18 27//27 21//21
f 30//30 26//26 38//38
f 13//13 14//14 9//9
f 32//32 9//9 23//23
f 23//23 15//15 31//31
f 14//14 33//33 24//24
f 36//36 20//20 34//34
f 25//25 21//21 29//29
f 30//30 38//38 35//35
f 21//21 30//30 29//29
f 55//55 13//13 6//6
f 23//23 31//31 32//32
f 13//13 47//47 14//14
f 31//31 15//15 20//20
f 20//20 36//36 31//31
f 25//25 34//34 20//20
f 30//30 35//35 29//29
f 1//1 39//39 4//4
f 27//27 46//46 26//26
f 9//9 32//32 19//19
f 41//41 36//36 34//34
f 42//42 44//44 43//43
f 24//24 37//37 18//18
f 25//25 35//35 34//34
f 25//25 29//29 35//35
f 35//35 38//38 34//34
f 26//26 46//46 38//38
f 14//14 50//50 33//33
f 31//31 36//36 41//41
f 34//34 38//38 45//45
f 38//38 46//46 45//45
f 17//17 4//4 48//48
f 13//13 55//55 47//47
f 49//49 19//19 32//32
f 47//47 50//50 14//14
f 44//44 51//51 43//43
f 47//47 19//19 49//49
f 53//53 32//32 31//31
f 41//41 61//61 31//31
f 42//42 43//43 51//51
f 44//44 42//42 51//51
f 45//45 70//70 34//34
f 28//28 53//53 54//54
f 19//19 52//52 28//28
f 47//47 52//52 19//19
f 49//49 50//50 47//47
f 18//18 37//37 27//27
f 22//22 4//4 60//60
f 28//28 54//54 1//1
f 28//28 52//52 53//53
f 47//47 55//55 52//52
f 32//32 53//53 49//49
f 24//24 56//56 37//37
f 41//41 34//34 70//70
f 58//58 62//62 57//57
f 70//70 45//45 71//71
f 27//27 37//37 59//59
f 39//39 60//60 4//4
f 52//52 49//49 53//53
f 55//55 50//50 52//52
f 31//31 61//61 53//53
f 50//50 49//49 52//52
f 45//45 46//46 67//67
f 22//22 60//60 63//63
f 4//4 22//22 48//48
f 64//64 61//61 41//41
f 33//33 56//56 24//24
f 65//65 58//58 57//57
f 62//62 58//58 66//66
f 67//67 71//71 45//45
f 8//8 3//3 68//68
f 17//17 48//48 81//81
f 68//68 3//3 5//5
f 50//50 86//86 33//33
f 86//86 56//56 33//33
f 57//57 62//62 73//73
f 37//37 69//69 59//59
f 71//71 74//74 70//70
f 27//27 59//59 46//46
f 58//58 63//63 66//66
f 22//22 63//63 58//58
f 17//17 68//68 5//5
f 1//1 54//54 104//104
f 76//76 54//54 72//72
f 55//55 82//82 50//50
f 82//82 86//86 50//50
f 56//56 69//69 37//37
f 70//70 64//64 41//41
f 65//65 22//22 58//58
f 66//66 75//75 62//62
f 63//63 60//60 75//75
f 53//53 61//61 54//54
f 72//72 54//54 77//77
f 61//61 64//64 77//77
f 6//6 8//8 78//78
f 64//64 70//70 79//79
f 65//65 57//57 73//73
f 70//70 74//74 79//79
f 63//63 75//75 66//66
f 72//72 82//82 76//76
f 61//61 77//77 54//54
f 73//73 62//62 80//80
f 62//62 75//75 80//80
f 67//67 84//84 71//71
f 71//71 81//81 74//74
f 71//71 85//85 81//81
f 86//86 82//82 72//72
f 83//83 77//77 64//64
f 83//83 64//64 87//87
f 87//87 64//64 79//79
f 73//73 89//89 65//65
f 88//88 22//22 65//65
f 84//84 85//85 71//71
f 81//81 48//48 74//74
f 82//82 55//55 76//76
f 73//73 80//80 89//89
f 59//59 67//67 46//46
f 65//65 89//89 88//88
f 59//59 84//84 67//67
f 48//48 22//22 88//88
f 48//48 88//88 98//98
f 77//77 90//90 72//72
f 77//77 83//83 90//90
f 1//1 40//40 39//39
f 87//87 79//79 99//99
f 101//101 96//96 92//92
f 69//69 106//106 59//59
f 102//102 79//79 74//74
f 102//102 74//74 97//97
f 97//97 74//74 48//48
f 48//48 98//98 97//97
f 86//86 72//72 90//90
f 86//86 90//90 93//93
f 94//94 56//56 86//86
f 95//95 92//92 91//91
f 91//91 92//92 96//96
f 8//8 68//68 100//100
f 75//75 60//60 118//118
f 55//55 54//54 76//76
f 78//78 8//8 100//100
f 101//101 105//105 96//96
f 80//80 101//101 89//89
f 88//88 89//89 103//103
f 85//85 84//84 110//110
f 17//17 81//81 85//85
f 1//1 104//104 40//40
f 55//55 111//111 54//54
f 111//111 55//55 6//6
f 6//6 78//78 111//111
f 109//109 91//91 105//105
f 40//40 107//107 39//39
f 106//106 56//56 120//120
f 91//91 96//96 105//105
f 56//56 106//106 69//69
f 99//99 79//79 102//102
f 89//89 101//101 103//103
f 59//59 110//110 84//84
f 118//118 80//80 75//75
f 90//90 108//108 93//93
f 93//93 94//94 86//86
f 91//91 115//115 95//95
f 39//39 105//105 101//101
f 59//59 106//106 110//110
f 80//80 113//113 101//101
f 118//118 113//113 80//80
f 17//17 85//85 110//110
f 110//110 68//68 17//17
f 109//109 115//115 91//91
f 83//83 87//87 114//114
f 94//94 120//120 56//56
f 99//99 114//114 87//87
f 92//92 95//95 112//112
f 112//112 101//101 92//92
f 112//112 103//103 101//101
f 99//99 102//102 116//116
f 101//101 113//113 39//39
f 113//113 60//60 39//39
f 88//88 103//103 98//98
f 110//110 100//100 68//68
f 113//113 118//118 60//60
f 119//119 122//122 114//114
f 90//90 83//83 108//108
f 94//94 93//93 108//108
f 114//114 99//99 124//124
f 105//105 39//39 107//107
f 106//106 100//100 110//110
f 103//103 121//121 98//98
f 54//54 111//111 104//104
f 123//123 108//108 83//83
f 94//94 108//108 120//120
f 83//83 114//114 123//123
f 99//99 116//116 124//124
f 78//78 100//100 106//106
f 121//121 112//112 125//125
f 112//112 121//121 103//103
f 98//98 121//121 117//117
f 98//98 117//117 97//97
f 122//122 40//40 104//104
f 115//115 109//109 40//40
f 122//122 115//115 40//40
f 104//104 123//123 122//122
f 111//111 108//108 104//104
f 108//108 123//123 104//104
f 120//120 108//108 111//111
f 111//111 78//78 120//120
f 119//119 115//115 122//122
f 123//123 114//114 122//122
f 124//124 115//115 119//119
f 119//119 114//114 124//124
f 109//109 107//107 40//40
f 124//124 125//125 115//115
f 125//125 95//95 115//115
f 125//125 112//112 95//95
f 78//78 106//106 120//120
f 109//109 105//105 107//107
f 116//116 125//125 124//124
f 116//116 102//102 125//125
f 102//102 117//117 125//125
f 125//125 117//117 121//121
f 97//97 117//117 102//102
