# Blender 4.1.1
# www.blender.org
mtllib aa0144.mtl
o Liquid_Domain
v -8.456304 -9.094071 6.170811
v 8.443782 -9.091692 6.105480
v -8.441984 -9.088241 -6.208471
v 8.443200 -9.087976 -6.198728
v 8.462630 -1.739982 1.609414
v -8.422807 -2.980556 -0.060403
v -4.459417 -6.027624 2.133572
v -5.974367 -3.665900 3.388299
v -3.285579 -4.719811 1.321522
v -7.269851 -4.247678 1.448159
v -7.085595 -5.153950 -0.738800
v -3.008765 1.325095 -6.179032
v -5.998362 -4.934129 1.656346
v -7.901654 -3.034686 -0.679560
v -3.743381 -3.433764 3.420256
v -2.065636 -4.013651 2.794434
v -5.096356 -4.259851 0.091820
v 4.765269 -4.089277 0.937893
v 6.729172 -3.497011 -0.038108
v -5.797857 -2.117187 5.044884
v -2.180199 -0.902280 3.455458
v 6.115327 -2.584209 3.201363
v -7.746820 -1.730500 1.069167
v 6.761768 -1.643687 3.619368
v 4.443684 -2.031702 1.989842
v -7.269959 -2.546027 3.829154
v -1.822166 -1.386364 2.249639
v 4.303714 -1.771654 0.376069
v -5.207165 -1.160944 0.266463
v 7.320723 -1.273433 -1.164129
v -6.736628 -1.673655 -1.062553
v 8.483262 0.995158 -5.846676
v -8.438421 3.125831 -3.041089
v -8.456524 -1.149708 6.205300
v -4.305887 0.512951 4.805465
v -7.232802 -0.328405 4.957119
v 8.295659 6.767534 -6.178012
v -3.593810 -0.249963 1.554378
v -7.242260 -0.577010 0.237213
v 4.708296 -0.085720 -1.949131
v 6.805933 -0.587099 -2.832198
v -7.406825 -0.075808 -0.827369
v -6.931023 -0.612226 -2.118010
v 2.787511 1.506800 0.885321
v 7.265848 1.866264 0.484573
v -4.291441 -1.024349 -1.864950
v 6.841859 -0.967994 -4.388805
v -7.064754 -0.551292 -4.026581
v 0.574978 6.544943 6.203698
v 8.375540 6.852846 6.185866
v -6.045737 1.731137 4.349379
v -5.336835 1.076790 -0.584828
v -4.848907 -0.253875 -3.704471
v 6.656947 0.509074 -4.872860
v -8.328622 6.529610 -6.150656
v -0.945946 1.218277 -6.177264
v -4.839530 1.596374 1.737343
v 3.132930 -0.925223 1.718919
v -2.698724 0.673532 0.002349
v -6.316828 0.636136 -1.191191
v -0.742686 1.246164 -1.841710
v -4.443990 0.698775 -1.509010
v -7.608669 2.461375 -3.124370
v -8.453572 6.800261 6.155631
v -7.390303 2.037860 3.531485
v 2.742186 1.370221 -3.311587
v -5.375391 1.073028 -2.810657
v -1.397943 1.084886 -3.803031
v -3.787760 0.946809 -4.589936
v 4.438743 1.452967 -4.443095
v -1.975935 0.910462 1.321158
v -7.923607 2.677794 -4.135731
v -3.857687 3.949794 -6.109084
v 6.775365 2.199334 2.022888
v -1.492668 1.878525 2.250862
v -1.186361 2.072792 0.098643
v -6.586909 1.744193 -2.132480
v 6.756364 2.743199 -3.942261
v -8.452956 1.351172 -4.897129
v -7.248846 2.816399 -5.060435
v -4.708927 2.454975 3.844098
v -4.573911 2.308711 1.377991
v -3.059222 2.212334 1.597908
v 2.988427 2.664811 -2.672920
v -2.239053 1.973808 -5.073490
v -7.622135 2.445565 -0.733410
v 7.352448 5.455674 3.372176
v 8.393637 6.944426 0.620532
v -1.663336 3.381949 0.498421
v -1.261994 3.261932 -1.933955
v -6.317464 3.295105 -2.087547
v 4.287498 3.733297 -4.052979
v -0.208745 3.972229 -6.006805
v 4.073746 2.833793 2.634431
v -6.498604 4.840354 4.493905
v 2.645722 4.528185 -1.292299
v -7.171412 4.750946 -1.699450
v 7.083777 4.214883 -2.439704
v -1.977889 2.862391 -3.509708
v -3.837646 2.964451 -4.265891
v -8.537120 4.919225 -4.364182
v -7.235572 3.728152 -3.965621
v -5.649360 4.001802 4.063349
v 6.746481 2.309663 4.441526
v 8.374479 6.975162 -2.892734
v -1.504446 5.032773 -3.573200
v -3.343770 3.929840 -4.447850
v 7.049623 6.543893 -5.237053
v 4.950319 4.865207 4.628067
v -7.227543 6.508867 2.942191
v -3.207783 4.181219 2.039302
v 2.306383 4.331471 0.711696
v -7.816720 6.539796 -1.038200
v -6.715527 6.469906 -6.054811
v -3.021125 4.180095 -1.124117
v -6.119809 4.641003 -2.777126
v -3.767649 5.410247 -3.306531
v 4.177065 6.875214 -5.632638
v -8.366236 6.695641 0.232391
v -7.003169 5.681333 -3.240518
v -5.964729 5.241878 -5.815798
v -6.240633 5.884641 2.831812
v -5.049242 5.927207 0.018092
v 7.184740 6.580965 -0.936699
v -5.079046 6.869135 0.152779
v 1.617623 5.155772 -1.180315
v 3.198324 6.922987 -6.173488
v 2.685267 5.901441 4.330732
v -1.389557 5.415444 3.862585
v -0.338545 6.936009 0.750184
v -7.870372 6.269554 -3.873873
v -1.357268 6.637003 -6.119545
v 0.178062 7.037148 5.784880
v -5.520235 7.008238 -4.335340
v -7.475545 6.786984 4.557925
v -5.571559 6.973298 4.706478
v 3.639777 6.927668 4.775680
v 7.451811 6.935035 4.128252
v -4.065740 7.027602 2.878287
v -0.919791 6.872079 4.572276
v -0.984946 7.055174 -1.997651
v -4.229907 6.946532 -4.081215
v 0.875800 7.024731 -5.777368
vn -0.5025 -0.5252 0.6867
vn 0.5046 -0.5263 0.6844
vn -0.5026 -0.5226 -0.6887
vn 0.5018 -0.5243 -0.6880
vn 1.0000 0.0026 0.0049
vn -1.0000 0.0023 -0.0006
vn -0.0215 0.9820 -0.1878
vn 0.2472 0.6866 -0.6837
vn -0.5995 0.4170 0.6831
vn 0.7710 0.5556 -0.3113
vn 0.2080 0.6853 0.6979
vn 0.1494 0.2770 -0.9492
vn 0.4437 0.8842 -0.1458
vn 0.7846 0.0353 0.6190
vn -0.2264 0.3985 -0.8888
vn -0.7738 0.4705 -0.4240
vn -0.4954 0.3938 0.7742
vn 0.4490 0.8842 0.1291
vn -0.3998 0.7915 0.4623
vn -0.0009 0.3530 -0.9356
vn -0.8030 -0.2107 -0.5575
vn 0.0371 0.5326 -0.8456
vn 0.9982 -0.0598 0.0003
vn -0.3279 0.3191 -0.8892
vn 0.6995 0.4541 -0.5518
vn 0.7432 0.4416 -0.5027
vn -0.8479 -0.2896 0.4441
vn 0.7292 0.4932 0.4743
vn -0.7094 -0.0239 0.7044
vn -0.9610 0.1721 0.2163
vn 0.0711 0.2110 0.9749
vn 0.9828 0.0094 -0.1845
vn -0.9965 -0.0129 -0.0826
vn -0.5893 -0.0011 0.8079
vn -0.3472 -0.1995 -0.9163
vn 0.5290 -0.0665 -0.8460
vn 0.4818 0.5511 -0.6812
vn -0.6048 -0.3772 0.7014
vn 0.9879 -0.0673 0.1395
vn 0.4172 0.7896 0.4498
vn -0.5645 0.7524 0.3396
vn 0.9328 0.0382 0.3584
vn 0.1499 0.0962 0.9840
vn 0.9598 0.0651 -0.2730
vn -0.9993 0.0195 -0.0303
vn 0.2657 0.9259 -0.2686
vn -0.3625 0.7728 0.5209
vn 0.4797 0.8667 0.1369
vn -0.0047 0.3127 0.9498
vn 0.5047 0.5109 0.6959
vn 0.1190 -0.2533 -0.9600
vn -0.6129 0.7725 0.1658
vn -0.0385 0.9775 0.2075
vn -0.3260 0.0323 0.9448
vn -0.5009 0.5269 -0.6866
vn -0.6407 0.5690 -0.5155
vn -0.9580 -0.0741 0.2769
vn 0.8255 0.4038 -0.3943
vn -0.0298 0.8762 -0.4810
vn 0.0044 -0.1200 0.9928
vn -0.9177 0.3972 0.0106
vn 0.5929 0.6215 -0.5120
vn 0.8927 0.1621 -0.4205
vn -0.5154 0.5294 0.6739
vn 0.8933 -0.0588 -0.4456
vn 0.8211 0.2730 0.5012
vn 0.5788 0.6543 -0.4867
vn -0.7312 0.6134 0.2987
vn -0.1014 0.5370 0.8375
vn 0.3144 0.0594 0.9474
vn -0.1439 0.8890 -0.4346
vn 0.0853 0.4673 -0.8800
vn 0.5485 0.3871 -0.7412
vn -0.9221 -0.3592 -0.1442
vn -0.3049 0.0302 -0.9519
vn -0.9748 0.1641 -0.1510
vn 0.7332 0.6721 0.1036
vn -0.6690 0.0039 0.7433
vn -0.9954 0.0938 0.0181
vn 0.0295 -0.1287 0.9912
vn -0.6244 -0.2499 -0.7400
vn -0.4422 0.8730 -0.2056
vn -0.0462 0.5838 -0.8106
vn 0.9245 -0.2209 0.3107
vn -0.2642 0.9437 0.1991
vn 0.9345 0.1020 0.3412
vn -0.8640 0.0914 -0.4952
vn 0.6019 0.7980 -0.0311
vn -0.7405 -0.6146 -0.2719
vn -0.7406 -0.6427 0.1960
vn 0.6963 0.2365 -0.6776
vn 0.4562 0.0918 0.8851
vn -0.4137 0.0031 -0.9104
vn 0.7094 0.1558 -0.6873
vn 0.0484 0.1584 -0.9862
vn 0.8166 0.4533 0.3573
vn 0.9487 0.1899 0.2529
vn -0.9955 0.0428 0.0842
vn -0.4927 -0.5889 -0.6407
vn 0.3306 -0.9040 0.2713
vn -0.9989 0.0395 0.0235
vn 0.2773 -0.9342 0.2244
vn -0.6862 -0.2754 -0.6733
vn -0.3121 0.1762 -0.9335
vn 0.5573 0.8302 -0.0131
vn -0.4636 -0.3332 -0.8210
vn 0.7132 0.0887 -0.6953
vn -0.2547 0.8681 0.4261
vn 0.0443 0.1626 -0.9857
vn 0.7886 0.6149 -0.0018
vn -0.6905 -0.5061 -0.5168
vn 0.8290 0.5144 -0.2194
vn 0.4046 0.8922 -0.2008
vn 0.2751 0.5401 -0.7954
vn -0.4478 -0.8668 0.2194
vn -0.5144 -0.5883 0.6239
vn 0.1890 0.0937 -0.9775
vn 0.0680 0.9005 0.4295
vn -0.5993 0.7992 -0.0457
vn -0.1664 0.6313 0.7574
vn 0.7435 0.6416 0.1887
vn -0.9741 -0.0555 -0.2193
vn -0.8680 -0.4872 0.0960
vn -0.7968 0.6036 0.0271
vn -0.7407 0.6716 0.0199
vn 0.4958 0.8233 0.2763
vn -0.0145 0.6756 -0.7371
vn 0.2283 0.6351 -0.7379
vn 0.2771 0.8723 -0.4029
vn 0.3617 0.9318 0.0296
vn -0.4992 0.8033 0.3247
vn -0.3257 0.3448 -0.8804
vn 0.0055 0.9200 0.3918
vn 0.1947 0.9049 -0.3785
vn 0.0813 0.8779 -0.4719
vn -0.3351 0.9384 0.0843
vn -0.0295 0.6692 -0.7425
vn -0.1844 0.9412 -0.2829
vn 0.0757 0.9971 0.0095
vn 0.2030 0.7370 -0.6447
vn 0.2550 0.9652 0.0576
vn -0.0773 0.4530 -0.8882
vn 0.0335 0.9836 -0.1774
s 1
usemtl Liquid_Domain_Material
f 2//2 1//1 4//4
f 4//4 1//1 3//3
f 2//2 34//34 1//1
f 2//2 4//4 5//5
f 1//1 6//6 3//3
f 17//17 13//13 7//7
f 10//10 13//13 11//11
f 17//17 7//7 9//9
f 8//8 7//7 13//13
f 9//9 7//7 16//16
f 13//13 17//17 11//11
f 11//11 14//14 10//10
f 7//7 8//8 15//15
f 7//7 15//15 16//16
f 8//8 13//13 10//10
f 17//17 9//9 29//29
f 34//34 6//6 1//1
f 8//8 10//10 26//26
f 16//16 15//15 21//21
f 19//19 18//18 22//22
f 20//20 8//8 26//26
f 15//15 35//35 21//21
f 23//23 26//26 10//10
f 9//9 16//16 27//27
f 19//19 22//22 24//24
f 25//25 18//18 28//28
f 31//31 11//11 17//17
f 8//8 20//20 15//15
f 21//21 27//27 16//16
f 25//25 22//22 18//18
f 10//10 14//14 23//23
f 18//18 19//19 28//28
f 11//11 31//31 14//14
f 6//6 33//33 3//3
f 15//15 20//20 35//35
f 38//38 29//29 9//9
f 24//24 30//30 19//19
f 29//29 31//31 17//17
f 36//36 20//20 26//26
f 19//19 30//30 41//41
f 4//4 32//32 5//5
f 3//3 12//12 56//56
f 4//4 3//3 37//37
f 27//27 38//38 9//9
f 28//28 58//58 25//25
f 39//39 14//14 31//31
f 23//23 14//14 39//39
f 41//41 28//28 19//19
f 34//34 2//2 50//50
f 22//22 25//25 24//24
f 36//36 26//26 23//23
f 24//24 45//45 30//30
f 28//28 40//40 58//58
f 31//31 42//42 39//39
f 40//40 28//28 41//41
f 31//31 29//29 43//43
f 43//43 42//42 31//31
f 33//33 79//79 3//3
f 50//50 2//2 5//5
f 20//20 36//36 35//35
f 36//36 51//51 35//35
f 38//38 27//27 21//21
f 38//38 57//57 29//29
f 29//29 57//57 52//52
f 29//29 52//52 43//43
f 46//46 62//62 59//59
f 46//46 53//53 67//67
f 41//41 66//66 40//40
f 41//41 47//47 66//66
f 79//79 55//55 3//3
f 37//37 32//32 4//4
f 34//34 64//64 6//6
f 24//24 104//104 45//45
f 43//43 52//52 60//60
f 42//42 43//43 60//60
f 46//46 59//59 61//61
f 46//46 61//61 53//53
f 46//46 67//67 62//62
f 48//48 67//67 53//53
f 47//47 70//70 66//66
f 47//47 54//54 70//70
f 25//25 58//58 24//24
f 36//36 23//23 65//65
f 23//23 39//39 65//65
f 21//21 57//57 38//38
f 66//66 44//44 58//58
f 45//45 41//41 30//30
f 53//53 61//61 68//68
f 58//58 40//40 66//66
f 48//48 63//63 67//67
f 69//69 53//53 68//68
f 47//47 78//78 54//54
f 12//12 3//3 55//55
f 51//51 36//36 65//65
f 58//58 44//44 94//94
f 42//42 60//60 86//86
f 62//62 67//67 52//52
f 63//63 77//77 67//67
f 63//63 48//48 72//72
f 12//12 55//55 73//73
f 81//81 35//35 51//51
f 35//35 81//81 21//21
f 58//58 104//104 24//24
f 57//57 21//21 81//81
f 65//65 39//39 86//86
f 104//104 74//74 45//45
f 75//75 76//76 71//71
f 39//39 42//42 86//86
f 52//52 57//57 82//82
f 71//71 59//59 83//83
f 59//59 71//71 76//76
f 62//62 52//52 82//82
f 59//59 62//62 83//83
f 77//77 60//60 52//52
f 67//67 77//77 52//52
f 41//41 78//78 47//47
f 48//48 80//80 72//72
f 53//53 69//69 48//48
f 69//69 80//80 48//48
f 75//75 71//71 83//83
f 83//83 62//62 82//82
f 59//59 76//76 61//61
f 44//44 66//66 84//84
f 56//56 12//12 85//85
f 34//34 50//50 49//49
f 58//58 94//94 104//104
f 81//81 82//82 57//57
f 45//45 98//98 41//41
f 86//86 60//60 77//77
f 41//41 98//98 78//78
f 90//90 68//68 61//61
f 99//99 68//68 90//90
f 54//54 78//78 70//70
f 68//68 85//85 69//69
f 79//79 101//101 55//55
f 85//85 93//93 56//56
f 3//3 56//56 127//127
f 3//3 127//127 37//37
f 104//104 87//87 74//74
f 83//83 82//82 81//81
f 75//75 83//83 89//89
f 89//89 76//76 75//75
f 89//89 61//61 76//76
f 89//89 90//90 61//61
f 86//86 77//77 91//91
f 84//84 66//66 92//92
f 66//66 70//70 92//92
f 70//70 78//78 92//92
f 69//69 85//85 80//80
f 85//85 68//68 93//93
f 65//65 95//95 51//51
f 64//64 119//119 6//6
f 6//6 119//119 33//33
f 86//86 91//91 97//97
f 33//33 72//72 79//79
f 68//68 99//99 106//106
f 72//72 80//80 79//79
f 80//80 101//101 79//79
f 85//85 100//100 80//80
f 12//12 100//100 85//85
f 51//51 95//95 81//81
f 83//83 81//81 89//89
f 94//94 44//44 112//112
f 5//5 32//32 88//88
f 44//44 84//84 96//96
f 97//97 91//91 77//77
f 77//77 63//63 97//97
f 72//72 33//33 101//101
f 72//72 102//102 63//63
f 101//101 102//102 72//72
f 100//100 102//102 80//80
f 80//80 102//102 101//101
f 68//68 106//106 93//93
f 100//100 12//12 73//73
f 56//56 93//93 127//127
f 50//50 5//5 88//88
f 81//81 95//95 103//103
f 109//109 104//104 94//94
f 111//111 89//89 81//81
f 87//87 45//45 74//74
f 44//44 96//96 112//112
f 90//90 115//115 99//99
f 96//96 84//84 92//92
f 99//99 115//115 100//100
f 100//100 107//107 106//106
f 99//99 100//100 106//106
f 78//78 108//108 92//92
f 100//100 73//73 107//107
f 65//65 86//86 110//110
f 111//111 81//81 103//103
f 94//94 112//112 109//109
f 89//89 115//115 90//90
f 116//116 100//100 115//115
f 116//116 102//102 100//100
f 107//107 117//117 106//106
f 108//108 78//78 98//98
f 73//73 55//55 114//114
f 135//135 65//65 110//110
f 89//89 111//111 115//115
f 113//113 86//86 97//97
f 63//63 102//102 97//97
f 120//120 102//102 116//116
f 92//92 108//108 118//118
f 73//73 114//114 121//121
f 34//34 49//49 64//64
f 103//103 122//122 111//111
f 110//110 86//86 113//113
f 111//111 123//123 115//115
f 33//33 119//119 101//101
f 73//73 121//121 107//107
f 104//104 109//109 87//87
f 109//109 112//112 128//128
f 115//115 123//123 116//116
f 112//112 96//96 126//126
f 45//45 124//124 98//98
f 116//116 123//123 125//125
f 118//118 96//96 92//92
f 97//97 102//102 120//120
f 107//107 121//121 117//117
f 32//32 37//37 105//105
f 95//95 136//136 103//103
f 109//109 137//137 87//87
f 128//128 112//112 130//130
f 122//122 123//123 111//111
f 87//87 124//124 45//45
f 88//88 32//32 105//105
f 126//126 96//96 118//118
f 119//119 113//113 101//101
f 124//124 108//108 98//98
f 142//142 93//93 106//106
f 93//93 132//132 127//127
f 128//128 130//130 129//129
f 141//141 112//112 126//126
f 97//97 131//131 113//113
f 120//120 116//116 125//125
f 113//113 131//131 101//101
f 120//120 131//131 97//97
f 135//135 136//136 95//95
f 95//95 65//65 135//135
f 109//109 128//128 137//137
f 103//103 136//136 122//122
f 87//87 138//138 124//124
f 130//130 112//112 141//141
f 134//134 142//142 117//117
f 121//121 134//134 117//117
f 121//121 114//114 134//134
f 93//93 142//142 132//132
f 128//128 129//129 140//140
f 128//128 140//140 137//137
f 87//87 137//137 138//138
f 139//139 140//140 129//129
f 136//136 125//125 122//122
f 129//129 130//130 139//139
f 122//122 125//125 123//123
f 119//119 110//110 113//113
f 125//125 134//134 120//120
f 134//134 131//131 120//120
f 117//117 142//142 106//106
f 143//143 141//141 126//126
f 101//101 131//131 55//55
f 127//127 132//132 143//143
f 37//37 127//127 118//118
f 64//64 49//49 133//133
f 133//133 49//49 50//50
f 133//133 135//135 64//64
f 136//136 135//135 133//133
f 138//138 133//133 50//50
f 133//133 139//139 136//136
f 140//140 139//139 133//133
f 137//137 140//140 133//133
f 138//138 137//137 133//133
f 50//50 88//88 138//138
f 135//135 110//110 64//64
f 110//110 119//119 64//64
f 139//139 125//125 136//136
f 139//139 134//134 125//125
f 130//130 141//141 139//139
f 88//88 124//124 138//138
f 141//141 134//134 139//139
f 88//88 105//105 124//124
f 141//141 142//142 134//134
f 141//141 143//143 142//142
f 108//108 124//124 105//105
f 134//134 55//55 131//131
f 126//126 127//127 143//143
f 127//127 126//126 118//118
f 105//105 37//37 108//108
f 134//134 114//114 55//55
f 143//143 132//132 142//142
f 37//37 118//118 108//108
