# Blender 4.1.1
# www.blender.org
mtllib aa0183.mtl
o Liquid_Domain
v -8.427329 -9.088314 6.213109
v 8.455109 -9.090263 6.171433
v -8.466990 -9.085981 -6.209232
v 8.403341 -9.094131 -6.150812
v 8.298454 -4.688542 -1.665668
v -8.469039 6.727144 2.319040
v 8.447370 -3.416478 -2.184563
v 8.346808 -3.079566 4.389741
v 8.390771 -2.671276 6.158714
v 4.501808 -4.339758 4.570347
v 5.943900 -4.934619 3.844404
v 8.178619 -2.945639 0.761563
v 8.380587 -3.667221 -0.033993
v -8.395583 6.992927 6.167379
v 7.809183 -3.144273 4.863153
v 5.428742 -3.979453 2.307587
v 6.953094 -3.772987 1.095317
v 4.675688 -2.332201 2.788323
v 7.016187 -2.990478 2.525581
v 5.346764 -3.255298 0.640855
v 7.646222 -3.769291 -0.761378
v 6.548594 -3.676294 -2.367862
v 7.672981 -3.678351 -2.172539
v 8.459912 -2.858239 3.558818
v 5.540660 -1.018524 0.585459
v 8.024365 -1.836463 -1.609598
v 4.852004 -0.644937 5.248789
v 6.934894 -1.576432 5.054984
v 6.282931 -1.789379 1.613748
v 6.791558 -1.249117 0.440242
v 7.840230 -1.464798 0.238377
v 7.704659 -0.933776 -2.952203
v 3.875222 -1.223156 3.625187
v 6.855709 -1.591600 3.131144
v -8.437085 5.772654 -6.144578
v 6.092020 -3.104785 -2.943252
v -2.945383 0.730944 -6.135826
v 4.503502 -0.916343 -4.259692
v 7.638012 -0.089136 2.424857
v 4.691551 3.308082 6.176158
v 8.355710 -0.155622 -1.344684
v -5.708252 -0.927790 -2.292519
v 3.816164 1.082038 4.650436
v 3.198152 -0.284293 1.889496
v -5.380346 0.557137 -0.418547
v 3.428529 -0.472155 -2.414524
v -3.563106 1.153833 -5.374242
v 7.098211 1.171350 -4.907288
v 2.586731 -0.694306 0.495176
v 4.588287 0.020432 1.363571
v 7.822661 2.470568 -0.663087
v -4.585261 -0.039863 -0.624028
v -3.293929 0.306593 -3.269504
v -5.339891 1.379104 -5.460883
v 8.407884 4.516073 -6.188950
v -4.522616 1.284028 -6.152228
v 0.523540 3.849086 -6.100031
v 8.345605 3.243765 0.026889
v -2.973877 1.059343 1.394314
v -1.673869 1.819113 -0.800290
v -5.509902 1.048298 -1.640443
v -2.685433 1.232615 -2.534093
v 1.914638 2.332103 -6.173707
v 8.416912 6.899380 6.181613
v 6.753782 2.212893 5.386370
v -6.916527 2.386193 -2.671326
v -7.651278 1.789221 -4.865746
v -1.424202 2.074584 -5.302119
v 2.202656 1.279133 -4.507573
v 7.636452 4.174227 4.365432
v -3.623658 1.325375 -2.175581
v -4.396385 2.113865 -5.812281
v 7.743590 4.889832 1.357538
v 1.776217 2.112477 -0.407048
v -2.618772 3.237763 -0.829842
v -3.157605 2.352255 -3.975231
v -4.800311 2.752509 -6.080309
v 6.019295 1.479476 -5.357194
v 2.890876 3.514986 5.091719
v 7.584223 3.902874 -3.810197
v 6.135203 3.729095 -5.427896
v -2.797750 4.120794 -5.980623
v -6.267410 3.136959 -2.318550
v 1.601766 2.995382 -5.505027
v 6.684670 4.431123 -6.026214
v 0.753043 4.328527 -2.082752
v -4.431877 4.070676 -5.378656
v 4.196230 4.455440 -5.429266
v 6.596951 4.692891 4.881325
v -7.051476 4.276861 -4.291121
v -0.642808 4.522664 -5.505913
v -4.672978 3.596847 -2.953316
v 8.371679 6.798388 -4.616396
v -1.630839 4.633290 -4.015417
v -5.544291 4.939834 -5.902627
v 0.180041 6.985412 6.151906
v 3.795892 4.762084 -6.045141
v 2.661858 6.488853 4.719270
v -5.417551 6.112346 0.138172
v -4.469765 6.953827 -2.108105
v -2.336480 6.054461 -4.012167
v 6.052852 5.340108 -5.971377
v 1.204969 5.540483 4.315170
v 7.814034 6.787708 4.495408
v 7.393700 6.304071 0.881195
v 8.385653 6.757212 0.466140
v 7.538129 6.350809 -5.078461
v -8.077518 6.075287 -4.378232
v 1.251867 5.546537 2.082567
v 1.629741 4.617579 0.538442
v -1.955929 7.013166 -3.647901
v -1.465719 6.256577 3.524492
v -7.727916 6.781576 0.427714
v -0.302023 6.705859 -5.929372
v -6.816975 4.901807 -0.421254
v -7.135380 6.890375 -5.869174
v 6.039628 7.015788 5.320519
v -6.538755 6.957867 4.742572
v -2.221517 7.021987 3.787294
v -0.644061 6.988195 -1.712804
v 1.122019 6.916852 -5.362646
vn -0.5003 -0.5231 0.6900
vn 0.5095 -0.5208 0.6850
vn -0.5022 -0.5222 -0.6893
vn 0.5060 -0.5258 -0.6838
vn 0.9142 0.3762 0.1506
vn -0.7320 0.6811 -0.0159
vn 0.9590 -0.1102 0.2612
vn 0.6316 0.7696 0.0935
vn 0.5930 -0.0065 0.8052
vn 0.5608 0.5892 -0.5816
vn -0.0649 0.9872 -0.1458
vn 0.5495 0.6056 -0.5756
vn 0.9979 0.0456 -0.0467
vn -0.5011 0.5347 0.6804
vn -0.3586 0.2691 -0.8939
vn 0.6862 0.4877 0.5396
vn -0.2637 0.9633 0.0502
vn 0.5888 0.1148 0.8001
vn -0.5237 -0.7654 0.3741
vn 0.8506 0.4931 0.1827
vn -0.4821 0.5134 -0.7099
vn 0.4188 0.7686 0.4836
vn -0.3940 0.1726 0.9028
vn 0.9446 -0.3230 -0.0592
vn 0.8348 0.5045 -0.2204
vn -0.3399 0.0821 0.9369
vn 0.3499 0.0860 -0.9328
vn -0.4892 -0.0190 -0.8720
vn 0.3186 0.8215 -0.4730
vn -0.5539 0.2604 -0.7909
vn -0.0357 -0.4218 -0.9060
vn -0.8494 0.1902 0.4922
vn 0.9530 0.3020 -0.0262
vn -0.8794 0.1848 0.4388
vn -0.5528 0.3202 -0.7694
vn 0.2172 0.7404 0.6361
vn 0.0342 0.1924 -0.9807
vn 0.2843 0.6152 0.7354
vn -0.9645 0.2517 -0.0802
vn -0.0003 0.0008 1.0000
vn 0.9815 -0.1885 0.0335
vn 0.3535 0.9249 -0.1397
vn 0.6117 0.2113 -0.7624
vn 0.5932 0.7991 -0.0980
vn 0.7429 -0.0194 -0.6691
vn 0.7215 0.6920 0.0266
vn 0.0082 0.7332 0.6799
vn -0.5913 0.2254 0.7743
vn 0.5164 0.8403 -0.1650
vn 0.2922 0.9478 0.1274
vn -0.9989 -0.0448 0.0164
vn -0.0801 0.8950 -0.4387
vn -0.5534 0.8290 0.0805
vn 0.2170 0.5963 0.7729
vn 0.5071 0.2427 -0.8270
vn -0.0045 0.1336 -0.9910
vn 0.0559 0.1522 -0.9868
vn 0.9999 -0.0061 0.0158
vn -0.1288 0.1044 -0.9862
vn -0.9951 0.0982 -0.0097
vn -0.5309 -0.7343 -0.4230
vn -0.9883 -0.0790 -0.1308
vn -0.0238 0.1703 -0.9851
vn 0.5130 0.5242 0.6797
vn -0.3025 -0.0270 -0.9528
vn 0.7818 0.1517 -0.6048
vn 0.7985 0.2756 0.5351
vn -0.7210 0.5289 -0.4477
vn 0.7335 0.5710 0.3687
vn -0.8468 -0.0045 -0.5319
vn 0.1931 -0.9812 0.0051
vn -0.9539 0.2982 -0.0327
vn -0.9931 -0.0924 0.0723
vn 0.9424 0.3215 -0.0924
vn -0.1188 -0.9926 0.0242
vn -0.5365 -0.2767 -0.7972
vn 0.2950 -0.2978 -0.9079
vn -0.1470 0.2386 0.9599
vn 0.4361 0.1673 -0.8842
vn -0.9558 0.0158 0.2935
vn -0.3441 0.2681 0.8998
vn 0.7891 0.5510 -0.2714
vn -0.2940 0.3466 -0.8907
vn 0.6897 0.7237 0.0232
vn -0.2523 0.5688 -0.7828
vn 0.9294 0.3691 -0.0039
vn 0.1262 0.2631 0.9565
vn -0.1192 0.4228 0.8984
vn -0.2431 -0.0485 -0.9688
vn 0.9506 0.1096 0.2903
vn -0.5924 0.0163 -0.8055
vn -0.4987 0.2739 -0.8224
vn 0.4659 0.8413 -0.2742
vn -0.6375 0.0209 -0.7702
vn 0.6110 0.6655 -0.4287
vn 0.0340 0.6427 0.7653
vn -0.3385 0.7499 -0.5684
vn 0.1165 0.4682 -0.8759
vn -0.5215 0.8250 -0.2176
vn -0.5895 0.7172 -0.3716
vn -0.6006 0.1679 -0.7817
vn 0.4923 0.8625 -0.1176
vn 0.5016 0.3704 -0.7818
vn -0.4612 0.8047 -0.3737
vn -0.8909 0.4522 0.0415
vn 0.5258 0.8504 -0.0174
vn -0.5026 0.7058 -0.4992
vn 0.2225 0.9641 0.1449
vn 0.5999 0.7547 -0.2656
vn 0.9176 0.3969 0.0214
vn -0.3038 0.8762 -0.3742
vn 0.5293 0.8088 -0.2564
vn 0.2964 0.9356 -0.1918
vn -0.1996 0.4520 -0.8694
vn 0.3231 0.8001 -0.5054
vn 0.2036 0.8964 -0.3937
vn -0.0394 0.8075 -0.5886
vn -0.0214 0.9943 -0.1046
vn 0.1682 0.9734 -0.1555
vn 0.4387 0.8958 0.0716
vn 0.6244 0.6630 -0.4129
s 1
usemtl Liquid_Domain_Material
f 2//2 1//1 3//3
f 4//4 2//2 3//3
f 2//2 4//4 5//5
f 4//4 3//3 55//55
f 1//1 6//6 3//3
f 5//5 4//4 7//7
f 1//1 2//2 9//9
f 2//2 5//5 8//8
f 8//8 5//5 13//13
f 2//2 8//8 9//9
f 12//12 8//8 13//13
f 15//15 11//11 10//10
f 11//11 15//15 8//8
f 10//10 11//11 16//16
f 17//17 11//11 8//8
f 17//17 16//16 11//11
f 14//14 6//6 1//1
f 10//10 16//16 18//18
f 8//8 19//19 17//17
f 24//24 8//8 12//12
f 17//17 21//21 20//20
f 21//21 13//13 5//5
f 21//21 5//5 20//20
f 5//5 22//22 20//20
f 5//5 7//7 23//23
f 17//17 20//20 16//16
f 21//21 17//17 12//12
f 21//21 7//7 13//13
f 23//23 7//7 21//21
f 22//22 5//5 23//23
f 15//15 10//10 27//27
f 9//9 8//8 15//15
f 19//19 12//12 17//17
f 15//15 24//24 9//9
f 18//18 16//16 19//19
f 19//19 16//16 25//25
f 16//16 20//20 25//25
f 12//12 26//26 21//21
f 21//21 26//26 23//23
f 22//22 23//23 36//36
f 15//15 27//27 28//28
f 15//15 28//28 24//24
f 24//24 28//28 8//8
f 10//10 18//18 33//33
f 19//19 8//8 34//34
f 18//18 19//19 34//34
f 25//25 29//29 19//19
f 19//19 30//30 12//12
f 12//12 30//30 31//31
f 22//22 25//25 20//20
f 12//12 13//13 26//26
f 13//13 7//7 26//26
f 25//25 22//22 36//36
f 26//26 32//32 23//23
f 32//32 36//36 23//23
f 3//3 63//63 55//55
f 28//28 34//34 8//8
f 24//24 12//12 31//31
f 29//29 30//30 19//19
f 26//26 7//7 41//41
f 9//9 40//40 1//1
f 10//10 33//33 27//27
f 6//6 35//35 3//3
f 34//34 28//28 39//39
f 18//18 29//29 33//33
f 34//34 29//29 18//18
f 29//29 34//34 30//30
f 25//25 36//36 50//50
f 36//36 46//46 50//50
f 33//33 29//29 50//50
f 50//50 29//29 25//25
f 24//24 31//31 41//41
f 49//49 50//50 46//46
f 26//26 41//41 32//32
f 36//36 38//38 46//46
f 7//7 4//4 41//41
f 43//43 27//27 33//33
f 39//39 30//30 34//34
f 52//52 42//42 45//45
f 36//36 48//48 38//38
f 3//3 56//56 37//37
f 44//44 33//33 50//50
f 50//50 49//49 44//44
f 30//30 39//39 31//31
f 41//41 31//31 32//32
f 53//53 42//42 52//52
f 53//53 47//47 42//42
f 48//48 36//36 32//32
f 41//41 4//4 55//55
f 9//9 64//64 40//40
f 28//28 27//27 65//65
f 44//44 43//43 33//33
f 39//39 51//51 31//31
f 59//59 52//52 45//45
f 42//42 47//47 54//54
f 38//38 69//69 46//46
f 69//69 38//38 84//84
f 24//24 41//41 58//58
f 60//60 52//52 59//59
f 49//49 46//46 74//74
f 61//61 45//45 83//83
f 45//45 42//42 83//83
f 52//52 62//62 53//53
f 74//74 46//46 69//69
f 42//42 54//54 67//67
f 38//38 78//78 84//84
f 48//48 78//78 38//38
f 3//3 35//35 56//56
f 3//3 37//37 63//63
f 9//9 24//24 64//64
f 27//27 43//43 65//65
f 62//62 52//52 60//60
f 67//67 66//66 42//42
f 68//68 53//53 62//62
f 72//72 54//54 47//47
f 68//68 47//47 53//53
f 47//47 68//68 37//37
f 37//37 68//68 57//57
f 28//28 65//65 70//70
f 79//79 43//43 44//44
f 28//28 70//70 39//39
f 45//45 61//61 71//71
f 51//51 32//32 31//31
f 42//42 66//66 83//83
f 37//37 57//57 63//63
f 70//70 73//73 39//39
f 49//49 74//74 44//44
f 64//64 24//24 58//58
f 73//73 51//51 39//39
f 59//59 45//45 75//75
f 45//45 71//71 75//75
f 76//76 71//71 61//61
f 76//76 62//62 71//71
f 62//62 76//76 68//68
f 54//54 77//77 67//67
f 37//37 56//56 82//82
f 71//71 62//62 75//75
f 51//51 80//80 32//32
f 76//76 61//61 83//83
f 80//80 48//48 32//32
f 48//48 81//81 78//78
f 56//56 35//35 77//77
f 77//77 54//54 56//56
f 56//56 54//54 72//72
f 56//56 72//72 82//82
f 79//79 44//44 74//74
f 60//60 59//59 75//75
f 60//60 75//75 62//62
f 74//74 69//69 86//86
f 72//72 77//77 82//82
f 55//55 63//63 85//85
f 79//79 65//65 43//43
f 69//69 84//84 86//86
f 77//77 87//87 67//67
f 77//77 72//72 87//87
f 87//87 72//72 47//47
f 82//82 47//47 37//37
f 63//63 57//57 84//84
f 83//83 92//92 76//76
f 66//66 67//67 90//90
f 91//91 68//68 76//76
f 78//78 88//88 84//84
f 57//57 68//68 91//91
f 63//63 97//97 85//85
f 74//74 110//110 109//109
f 110//110 74//74 86//86
f 58//58 41//41 106//106
f 106//106 41//41 93//93
f 76//76 92//92 94//94
f 81//81 48//48 80//80
f 81//81 88//88 78//78
f 82//82 77//77 95//95
f 89//89 70//70 65//65
f 79//79 74//74 103//103
f 103//103 74//74 109//109
f 66//66 115//115 83//83
f 90//90 115//115 66//66
f 93//93 41//41 55//55
f 76//76 94//94 91//91
f 95//95 90//90 67//67
f 87//87 95//95 67//67
f 47//47 82//82 87//87
f 84//84 97//97 63//63
f 85//85 97//97 102//102
f 40//40 96//96 1//1
f 92//92 101//101 94//94
f 84//84 88//88 97//97
f 1//1 96//96 14//14
f 65//65 79//79 98//98
f 65//65 98//98 89//89
f 115//115 92//92 83//83
f 113//113 115//115 90//90
f 99//99 100//100 92//92
f 92//92 100//100 101//101
f 86//86 84//84 121//121
f 81//81 80//80 107//107
f 85//85 88//88 81//81
f 81//81 107//107 85//85
f 95//95 87//87 82//82
f 85//85 107//107 55//55
f 40//40 64//64 96//96
f 79//79 103//103 98//98
f 64//64 58//58 106//106
f 51//51 73//73 105//105
f 115//115 99//99 92//92
f 95//95 108//108 90//90
f 84//84 57//57 121//121
f 97//97 88//88 102//102
f 85//85 102//102 88//88
f 116//116 95//95 77//77
f 57//57 91//91 114//114
f 70//70 104//104 73//73
f 104//104 105//105 73//73
f 51//51 105//105 80//80
f 108//108 35//35 6//6
f 116//116 108//108 95//95
f 107//107 93//93 55//55
f 77//77 35//35 116//116
f 57//57 114//114 121//121
f 89//89 98//98 117//117
f 104//104 70//70 89//89
f 105//105 107//107 80//80
f 111//111 101//101 100//100
f 86//86 121//121 120//120
f 101//101 91//91 94//94
f 89//89 117//117 104//104
f 115//115 118//118 99//99
f 103//103 109//109 112//112
f 109//109 110//110 112//112
f 113//113 108//108 6//6
f 110//110 86//86 120//120
f 113//113 90//90 108//108
f 114//114 91//91 101//101
f 103//103 119//119 98//98
f 119//119 103//103 112//112
f 113//113 118//118 115//115
f 112//112 110//110 120//120
f 111//111 114//114 101//101
f 35//35 108//108 116//116
f 96//96 64//64 117//117
f 98//98 119//119 96//96
f 117//117 98//98 96//96
f 118//118 6//6 14//14
f 96//96 119//119 14//14
f 104//104 117//117 64//64
f 14//14 119//119 118//118
f 64//64 106//106 104//104
f 118//118 113//113 6//6
f 119//119 99//99 118//118
f 106//106 105//105 104//104
f 119//119 100//100 99//99
f 120//120 100//100 119//119
f 112//112 120//120 119//119
f 120//120 111//111 100//100
f 106//106 93//93 105//105
f 105//105 93//93 107//107
f 120//120 121//121 111//111
f 121//121 114//114 111//111
