# Blender 4.1.1
# www.blender.org
mtllib aa0114.mtl
o Liquid_Domain
v -8.324728 -9.088928 6.225652
v -4.142334 -9.071705 6.114872
v 8.453288 -9.076999 6.206058
v -8.439729 -9.087246 -6.130203
v 8.445444 -9.087078 -6.197846
v -5.171997 -7.545838 5.771537
v -8.457754 -3.684216 1.356799
v -2.409564 -7.201300 5.489171
v -8.398486 -5.869055 6.111195
v -1.445139 -7.084814 6.182837
v -3.605951 -7.963561 0.039843
v -3.629767 -5.821444 5.971344
v -1.424170 -7.510841 2.673369
v -5.527644 -6.703784 2.156495
v -4.230183 -6.481341 5.484686
v -7.608268 -7.009589 4.964594
v -1.346869 -6.082186 4.115118
v -4.346342 -5.633580 0.338293
v 8.435960 1.018857 1.987935
v -3.326302 -5.123675 5.365547
v -7.680285 -5.683089 0.944912
v 3.277722 -6.428812 -1.364468
v 5.106311 -4.995065 -2.216188
v -6.916449 -4.995581 6.019022
v 4.798136 -5.765340 0.627608
v 6.754117 -5.912054 0.309937
v -2.232022 -4.784995 6.064565
v 8.334789 6.847613 -6.189676
v -4.736226 -4.346993 5.509129
v -1.832330 -3.996225 4.270920
v -5.825966 -2.217543 -0.801080
v 3.542540 -3.943379 -0.935341
v -7.476662 -2.200304 5.157346
v -1.192172 -4.300171 2.558576
v -3.413622 -4.671435 1.384840
v -4.381957 -3.779687 6.071317
v -1.312414 -2.714152 6.206501
v 6.422355 -4.603099 -1.683216
v 7.525148 -3.818524 -3.507110
v -2.359262 -4.287807 5.961829
v 0.136281 -2.817582 1.698557
v -6.787663 -3.901297 0.764614
v -2.839312 -3.166803 0.988251
v 6.466238 -4.184405 -4.125307
v 6.754291 -2.028593 -4.416913
v -1.955923 -3.213420 5.622453
v -7.023934 -1.888391 3.593478
v -7.077205 -1.704152 0.847692
v 4.373952 -1.191447 -1.007264
v 7.219036 -0.880747 -0.630381
v 4.674798 -2.450083 -3.719195
v -7.807892 -2.169856 1.947089
v 6.520424 -2.764759 1.349078
v -3.586667 -2.071218 0.890827
v -0.929037 -2.501073 -0.175520
v -1.668597 -1.494433 4.093226
v 5.103798 -0.815164 1.935514
v -6.882431 -0.840441 -1.760606
v -1.229632 -2.152658 -1.206506
v -7.043453 -2.212243 -3.660867
v -4.448459 -1.089278 5.302562
v -8.028461 -1.150804 3.188503
v -1.810242 -1.258513 1.956143
v -2.293432 -1.902695 -0.020925
v 5.999499 -1.100427 -2.850437
v -4.753019 0.277855 6.158188
v -7.724810 -0.505644 1.869540
v -5.369904 -1.302139 -3.685919
v -3.416002 0.737210 -4.995455
v -8.459340 0.284226 2.537140
v 7.690273 1.070923 -1.399117
v -5.567172 0.662630 -2.788247
v -4.403720 -0.971058 -2.006882
v -1.731185 0.194715 -4.301898
v -6.863443 0.118129 -4.949836
v -1.983613 0.742286 0.040709
v 3.682140 0.628416 -0.375634
v -7.472610 2.030706 -0.721891
v 8.437817 6.799299 6.185988
v -5.083178 0.547891 5.150230
v -2.000051 0.894154 3.405493
v 6.750075 -0.177519 -3.978764
v 4.955958 0.213758 3.574813
v -6.673699 1.341455 1.312774
v -2.955731 1.311222 5.141601
v -6.572798 1.649969 4.625867
v 6.293786 1.449984 3.148146
v 5.646670 1.584619 2.373746
v -8.396780 5.259387 -1.347305
v -0.870874 2.540051 -0.359385
v -1.488773 2.001756 -4.164297
v 6.028898 2.010389 3.271501
v 3.812884 0.475310 1.704764
v 7.649921 3.054007 -0.446830
v -3.721257 2.095475 4.393845
v -7.240058 6.720806 4.543067
v 1.794499 1.869818 1.336383
v 4.657004 2.236019 1.200814
v -6.626481 2.342978 -4.852639
v 7.057731 1.503648 4.237738
v 2.146981 3.031911 1.834486
v -0.017476 2.996111 4.424141
v 3.581327 3.689927 -4.329468
v -7.662050 5.711100 -2.688210
v -8.343620 6.436346 -3.081683
v -8.313865 6.811910 -6.133252
v 7.105911 2.196577 0.847671
v 8.419633 6.711570 -0.994795
v -1.737784 3.820689 4.547169
v 6.518680 3.918280 1.448911
v 7.433463 4.382498 -4.503988
v -6.903023 5.229516 -4.999137
v 5.979922 1.969007 -4.813664
v -3.135539 5.379909 -5.229477
v -1.925420 6.256509 4.800053
v 5.747064 6.950747 4.701993
v 0.656822 4.043555 3.123466
v 0.539019 6.826329 -0.653784
v 2.632911 3.607246 -0.567232
v 4.063636 4.077436 -0.878445
v 3.200334 3.812106 -3.271299
v -0.435670 4.947131 3.362813
v -8.385826 6.900460 1.575666
v 7.156603 6.336822 2.726521
v 7.496768 6.430696 -2.021782
v 5.740315 6.592494 -5.049834
v -7.392940 6.531316 1.530453
v 6.844098 6.205379 0.394281
v -0.717462 6.685437 -5.584667
v -1.252662 4.486982 -4.381729
v -3.954661 7.112126 -5.630571
v -8.408211 7.014835 6.122963
v -2.226429 7.001467 6.155739
v 3.728614 6.475304 3.881780
v 3.710203 5.111971 3.027438
v 2.499215 5.692689 -5.458022
v -2.762698 5.827383 -6.130369
v 4.811849 6.274961 -2.083763
v 0.952499 6.643407 -5.907247
v 2.532208 5.885909 -6.207466
v 2.064288 7.005219 0.752357
v -7.897516 6.213295 -5.259068
v 0.147915 6.794103 3.620293
v 4.624197 6.962839 2.628956
v 7.123365 6.988897 -4.290841
v 7.125593 6.941699 5.120828
v 7.501166 6.970086 1.940074
v 5.256943 7.050832 -0.570827
v 1.682699 7.016180 -3.084711
vn -0.4629 -0.5112 0.7241
vn -0.0154 -0.4911 0.8710
vn 0.5021 -0.5237 0.6882
vn -0.5054 -0.5244 -0.6853
vn 0.5022 -0.5232 -0.6885
vn 0.4275 0.2024 0.8811
vn -0.9983 0.0292 0.0499
vn -0.7201 0.5488 0.4245
vn -0.5816 0.0108 0.8134
vn -0.1846 0.0320 0.9823
vn -0.0719 0.4433 0.8935
vn 0.8643 0.4176 0.2804
vn -0.8133 0.5174 0.2662
vn 0.4385 0.8311 0.3420
vn 0.5241 -0.1145 -0.8439
vn 0.6560 0.6318 -0.4129
vn -0.9438 0.0288 -0.3292
vn -0.1364 0.2181 0.9664
vn 1.0000 0.0019 -0.0039
vn -0.9111 -0.3042 -0.2781
vn 0.6396 0.3312 0.6937
vn 0.6287 0.6650 0.4032
vn 0.1715 0.7050 0.6882
vn 0.6148 0.0004 0.7887
vn 0.3460 0.4847 -0.8033
vn -0.6229 0.6788 -0.3889
vn -0.2568 -0.0136 0.9664
vn 0.4673 0.5410 -0.6993
vn 0.0429 -0.7501 -0.6600
vn -0.8451 0.2813 -0.4547
vn 0.1865 0.6244 0.7585
vn 0.9808 -0.1202 -0.1538
vn 0.6773 -0.3398 -0.6525
vn -0.7313 0.6268 0.2690
vn -0.7236 0.2187 0.6547
vn -0.0259 -0.2678 0.9631
vn -0.0313 -0.0248 0.9992
vn -0.7505 0.6263 0.2110
vn -0.8859 0.3527 0.3014
vn 0.6273 0.0963 0.7728
vn -0.9858 0.0042 0.1677
vn 0.7179 0.0465 0.6946
vn -0.2231 0.4458 0.8669
vn -0.0439 0.5663 0.8230
vn -0.3058 -0.4175 0.8557
vn -0.5070 -0.2014 -0.8381
vn 0.9649 -0.1673 -0.2023
vn 0.9309 0.1818 0.3170
vn 0.9792 -0.0471 0.1973
vn -0.9845 0.0933 -0.1484
vn 0.6530 -0.1719 0.7376
vn -0.3933 0.6694 0.6303
vn -0.5370 0.0729 -0.8404
vn -0.1708 0.3693 0.9135
vn -0.3624 0.0274 0.9316
vn -0.7873 -0.3252 -0.5238
vn 0.0853 0.2256 -0.9705
vn 0.6838 0.6438 0.3435
vn -0.5857 0.8046 -0.0982
vn 0.4435 0.8830 0.1538
vn -0.0750 -0.0908 -0.9930
vn -0.5269 -0.3607 -0.7696
vn -0.8884 -0.4495 0.0935
vn -0.3529 0.7173 0.6007
vn -0.0624 -0.4082 0.9108
vn -0.0088 -0.0043 1.0000
vn 0.8349 -0.3248 0.4445
vn -0.2874 0.9501 0.1212
vn -0.1667 0.2597 0.9512
vn -0.9917 -0.1285 0.0015
vn -0.9850 0.0897 0.1477
vn -0.0068 0.9501 -0.3120
vn 0.3802 0.9071 0.1805
vn -0.5666 0.3725 0.7350
vn 0.4798 0.2336 0.8457
vn -0.8829 0.2622 -0.3896
vn 0.8505 0.4273 0.3067
vn 0.9939 0.0953 -0.0556
vn 0.5115 0.5010 0.6981
vn 0.2007 -0.2093 -0.9570
vn -0.9360 0.2963 -0.1900
vn -0.2934 0.5467 0.7842
vn 0.4678 0.7086 -0.5283
vn 0.9909 -0.0846 -0.1043
vn -0.1781 -0.1221 -0.9764
vn 0.5698 -0.0263 -0.8214
vn -0.2484 0.9304 -0.2697
vn 0.4593 0.7058 -0.5394
vn -0.9118 0.4094 -0.0313
vn -0.9477 0.3182 0.0236
vn -0.7786 0.0953 0.6203
vn 0.8183 -0.0446 -0.5731
vn 0.3488 0.2891 -0.8915
vn -0.9834 -0.0162 -0.1807
vn 0.1024 -0.2104 -0.9722
vn 0.3501 0.8272 -0.4395
vn 0.8981 0.3366 -0.2830
vn 0.2611 -0.5101 -0.8195
vn -0.1649 0.0208 0.9861
vn -0.2342 0.6082 -0.7584
vn 0.3388 -0.5003 -0.7968
vn -0.6845 0.1123 -0.7203
vn 0.5280 0.4517 0.7192
vn 0.8067 0.5374 0.2458
vn -0.3286 0.9142 0.2371
vn -0.5047 0.6324 -0.5877
vn -0.9365 0.1494 -0.3171
vn 0.7788 0.6271 -0.0132
vn -0.1746 -0.1017 -0.9794
vn 0.2621 -0.9606 -0.0920
vn -0.7398 0.1111 0.6636
vn 0.4738 0.2880 0.8322
vn -0.1538 0.3307 0.9311
vn -0.0603 0.3704 0.9269
vn -0.2782 0.4662 -0.8398
vn 0.3001 0.9247 -0.2344
vn -0.4478 0.8663 -0.2211
vn -0.5964 0.7780 0.1977
vn 0.7951 -0.6045 -0.0487
vn 0.5267 -0.7045 -0.4757
vn 0.9039 0.4099 -0.1222
vn -0.4688 0.0158 -0.8832
vn -0.5034 0.8359 -0.2187
vn -0.1620 0.3766 0.9121
vn -0.9802 -0.1980 0.0045
vn -0.2827 0.7331 0.6186
vn 0.7281 0.6476 -0.2246
vn -0.0778 0.4632 -0.8828
vn -0.3193 0.9358 -0.1495
vn -0.7091 0.2875 0.6438
vn 0.3151 0.9285 0.1963
vn -0.4977 0.5648 0.6583
vn -0.0353 0.7026 0.7107
vn -0.1964 0.7274 -0.6575
vn -0.6055 0.7930 -0.0671
vn 0.1217 0.8220 0.5563
vn 0.0466 0.5221 -0.8516
vn 0.6584 0.2332 -0.7156
vn 0.1898 0.7808 -0.5953
vn 0.0363 0.5632 -0.8255
vn -0.2895 0.8858 0.3627
vn 0.4515 0.7581 0.4704
vn -0.1956 0.6037 -0.7729
vn -0.3393 0.9248 0.1721
vn -0.4921 0.8033 0.3354
vn -0.0919 0.9581 -0.2712
vn 0.1102 0.9939 -0.0071
vn 0.3144 0.9037 -0.2906
vn 0.2668 0.9069 -0.3261
s 1
usemtl Liquid_Domain_Material
f 2//2 1//1 4//4
f 5//5 3//3 2//2
f 5//5 2//2 4//4
f 1//1 2//2 6//6
f 1//1 9//9 4//4
f 9//9 7//7 4//4
f 5//5 4//4 140//140
f 2//2 8//8 6//6
f 2//2 10//10 8//8
f 3//3 10//10 2//2
f 13//13 11//11 6//6
f 14//14 6//6 11//11
f 1//1 6//6 12//12
f 8//8 13//13 6//6
f 6//6 14//14 16//16
f 12//12 9//9 1//1
f 6//6 16//16 15//15
f 17//17 13//13 8//8
f 14//14 11//11 18//18
f 6//6 15//15 12//12
f 18//18 11//11 13//13
f 3//3 5//5 19//19
f 10//10 20//20 8//8
f 8//8 20//20 17//17
f 14//14 21//21 16//16
f 13//13 17//17 35//35
f 35//35 18//18 13//13
f 26//26 22//22 25//25
f 23//23 22//22 26//26
f 24//24 9//9 12//12
f 15//15 16//16 24//24
f 12//12 15//15 24//24
f 21//21 14//14 18//18
f 20//20 10//10 27//27
f 3//3 37//37 10//10
f 23//23 26//26 38//38
f 10//10 37//37 27//27
f 16//16 33//33 24//24
f 17//17 20//20 30//30
f 21//21 18//18 42//42
f 30//30 34//34 17//17
f 18//18 31//31 42//42
f 22//22 23//23 32//32
f 29//29 36//36 24//24
f 24//24 33//33 29//29
f 40//40 30//30 20//20
f 16//16 21//21 33//33
f 34//34 35//35 17//17
f 32//32 25//25 22//22
f 39//39 23//23 38//38
f 7//7 89//89 4//4
f 39//39 44//44 23//23
f 5//5 140//140 28//28
f 36//36 27//27 40//40
f 36//36 29//29 27//27
f 29//29 20//20 27//27
f 40//40 20//20 46//46
f 40//40 27//27 30//30
f 30//30 27//27 46//46
f 41//41 34//34 30//30
f 34//34 43//43 35//35
f 25//25 53//53 26//26
f 24//24 66//66 9//9
f 27//27 37//37 46//46
f 20//20 29//29 46//46
f 42//42 47//47 21//21
f 35//35 43//43 18//18
f 18//18 43//43 31//31
f 23//23 51//51 32//32
f 44//44 51//51 23//23
f 45//45 44//44 39//39
f 40//40 37//37 36//36
f 46//46 37//37 40//40
f 46//46 41//41 30//30
f 43//43 34//34 55//55
f 34//34 41//41 55//55
f 25//25 32//32 49//49
f 26//26 50//50 38//38
f 50//50 39//39 38//38
f 44//44 45//45 51//51
f 19//19 5//5 28//28
f 36//36 66//66 24//24
f 47//47 33//33 21//21
f 47//47 42//42 48//48
f 54//54 31//31 43//43
f 25//25 49//49 57//57
f 31//31 48//48 42//42
f 26//26 53//53 50//50
f 140//140 4//4 137//137
f 56//56 41//41 46//46
f 52//52 47//47 48//48
f 32//32 51//51 49//49
f 29//29 33//33 80//80
f 46//46 29//29 61//61
f 7//7 62//62 52//52
f 25//25 57//57 53//53
f 54//54 43//43 64//64
f 55//55 64//64 43//43
f 48//48 31//31 58//58
f 65//65 39//39 50//50
f 65//65 45//45 39//39
f 56//56 46//46 61//61
f 9//9 62//62 7//7
f 62//62 47//47 52//52
f 56//56 63//63 41//41
f 41//41 63//63 55//55
f 63//63 64//64 55//55
f 51//51 65//65 49//49
f 45//45 65//65 51//51
f 29//29 80//80 61//61
f 67//67 52//52 48//48
f 50//50 53//53 57//57
f 57//57 49//49 93//93
f 64//64 73//73 54//54
f 54//54 73//73 31//31
f 64//64 59//59 73//73
f 73//73 59//59 68//68
f 60//60 58//58 68//68
f 68//68 69//69 60//60
f 80//80 33//33 47//47
f 62//62 67//67 47//47
f 52//52 67//67 70//70
f 52//52 70//70 7//7
f 31//31 72//72 58//58
f 73//73 72//72 31//31
f 68//68 59//59 74//74
f 69//69 75//75 60//60
f 36//36 37//37 66//66
f 61//61 85//85 56//56
f 62//62 9//9 70//70
f 67//67 62//62 70//70
f 76//76 64//64 63//63
f 93//93 49//49 77//77
f 68//68 58//58 72//72
f 47//47 86//86 80//80
f 76//76 63//63 81//81
f 50//50 57//57 88//88
f 48//48 58//58 78//78
f 76//76 59//59 64//64
f 50//50 71//71 65//65
f 72//72 73//73 68//68
f 58//58 60//60 75//75
f 69//69 68//68 74//74
f 47//47 67//67 86//86
f 86//86 67//67 84//84
f 56//56 81//81 63//63
f 107//107 50//50 88//88
f 65//65 77//77 49//49
f 65//65 82//82 77//77
f 61//61 80//80 85//85
f 3//3 19//19 79//79
f 56//56 85//85 81//81
f 87//87 88//88 83//83
f 67//67 48//48 84//84
f 77//77 97//97 93//93
f 78//78 84//84 48//48
f 50//50 107//107 71//71
f 90//90 59//59 76//76
f 90//90 91//91 59//59
f 59//59 91//91 74//74
f 71//71 82//82 65//65
f 4//4 106//106 137//137
f 3//3 79//79 37//37
f 87//87 83//83 92//92
f 57//57 93//93 98//98
f 98//98 88//88 57//57
f 70//70 89//89 7//7
f 107//107 94//94 71//71
f 69//69 99//99 75//75
f 37//37 79//79 66//66
f 80//80 86//86 95//95
f 85//85 80//80 95//95
f 86//86 84//84 96//96
f 92//92 83//83 88//88
f 113//113 82//82 71//71
f 77//77 82//82 103//103
f 69//69 74//74 91//91
f 87//87 92//92 100//100
f 90//90 76//76 81//81
f 93//93 101//101 98//98
f 71//71 94//94 113//113
f 78//78 58//58 104//104
f 58//58 75//75 104//104
f 81//81 85//85 102//102
f 102//102 90//90 81//81
f 92//92 88//88 98//98
f 101//101 93//93 97//97
f 87//87 107//107 88//88
f 119//119 97//97 77//77
f 82//82 113//113 103//103
f 105//105 106//106 89//89
f 89//89 106//106 4//4
f 100//100 107//107 87//87
f 77//77 103//103 119//119
f 85//85 109//109 102//102
f 109//109 85//85 95//95
f 98//98 110//110 92//92
f 94//94 111//111 113//113
f 104//104 75//75 112//112
f 9//9 132//132 70//70
f 95//95 86//86 115//115
f 116//116 100//100 92//92
f 90//90 102//102 118//118
f 101//101 97//97 119//119
f 110//110 98//98 120//120
f 108//108 19//19 28//28
f 75//75 99//99 112//112
f 69//69 130//130 114//114
f 91//91 130//130 69//69
f 101//101 119//119 98//98
f 119//119 120//120 98//98
f 107//107 110//110 94//94
f 119//119 121//121 120//120
f 119//119 103//103 121//121
f 109//109 95//95 115//115
f 100//100 146//146 107//107
f 102//102 117//117 118//118
f 127//127 84//84 78//78
f 90//90 130//130 91//91
f 69//69 114//114 99//99
f 102//102 109//109 122//122
f 102//102 122//122 117//117
f 94//94 125//125 111//111
f 113//113 126//126 103//103
f 116//116 146//146 100//100
f 115//115 86//86 96//96
f 146//146 124//124 107//107
f 96//96 84//84 127//127
f 107//107 124//124 110//110
f 70//70 123//123 89//89
f 110//110 120//120 128//128
f 94//94 110//110 128//128
f 127//127 78//78 104//104
f 103//103 136//136 121//121
f 114//114 131//131 99//99
f 9//9 66//66 132//132
f 79//79 133//133 66//66
f 135//135 117//117 134//134
f 79//79 19//19 108//108
f 92//92 110//110 124//124
f 103//103 126//126 136//136
f 99//99 131//131 112//112
f 140//140 137//137 139//139
f 66//66 133//133 132//132
f 116//116 92//92 124//124
f 128//128 120//120 138//138
f 128//128 125//125 94//94
f 104//104 89//89 127//127
f 120//120 121//121 138//138
f 121//121 136//136 139//139
f 113//113 111//111 126//126
f 105//105 142//142 106//106
f 139//139 136//136 140//140
f 117//117 143//143 134//134
f 117//117 122//122 143//143
f 70//70 132//132 123//123
f 117//117 135//135 141//141
f 117//117 141//141 118//118
f 130//130 90//90 118//118
f 104//104 105//105 89//89
f 112//112 131//131 142//142
f 114//114 130//130 129//129
f 137//137 114//114 129//129
f 115//115 143//143 109//109
f 122//122 109//109 143//143
f 144//144 135//135 134//134
f 144//144 141//141 135//135
f 121//121 139//139 149//149
f 125//125 145//145 111//111
f 104//104 142//142 105//105
f 104//104 112//112 142//142
f 126//126 111//111 145//145
f 114//114 137//137 131//131
f 137//137 129//129 139//139
f 147//147 116//116 124//124
f 127//127 89//89 123//123
f 138//138 148//148 147//147
f 138//138 147//147 128//128
f 138//138 121//121 149//149
f 130//130 118//118 129//129
f 140//140 136//136 126//126
f 137//137 106//106 131//131
f 133//133 79//79 146//146
f 133//133 96//96 132//132
f 115//115 96//96 133//133
f 146//146 116//116 133//133
f 143//143 115//115 133//133
f 116//116 143//143 133//133
f 116//116 134//134 143//143
f 144//144 134//134 116//116
f 79//79 147//147 146//146
f 79//79 108//108 147//147
f 132//132 96//96 127//127
f 146//146 147//147 124//124
f 127//127 123//123 132//132
f 147//147 148//148 116//116
f 116//116 148//148 144//144
f 144//144 148//148 141//141
f 148//148 149//149 141//141
f 128//128 147//147 125//125
f 148//148 138//138 149//149
f 141//141 149//149 118//118
f 147//147 145//145 125//125
f 147//147 108//108 145//145
f 149//149 129//129 118//118
f 145//145 108//108 28//28
f 149//149 139//139 129//129
f 106//106 142//142 131//131
f 28//28 140//140 126//126
f 145//145 28//28 126//126
