# Blender 4.1.1
# www.blender.org
mtllib aa0126.mtl
o Liquid_Domain
v -8.436255 -9.006797 6.152711
v -4.579039 -9.085092 6.180070
v 8.466639 -9.086555 -6.199989
v -8.444426 -9.083787 -6.201839
v 8.472711 -9.093193 6.210238
v -8.429725 -4.306219 1.247487
v -5.053571 -6.706157 6.080821
v -2.802385 -7.378788 0.707545
v -6.651647 -7.103484 5.472012
v -7.660103 -7.628786 4.485885
v -3.336403 -7.245794 4.281509
v -4.091006 -7.704973 -0.567135
v -2.416677 -7.107529 3.663008
v -4.682656 -5.449942 5.092811
v -7.592705 -5.492526 2.378637
v -5.509638 -6.414632 2.537567
v -3.267906 -5.442885 -0.371491
v -7.882115 -5.563829 6.131800
v 4.645535 -5.946652 -1.122508
v -7.201405 -4.373830 5.626766
v -5.619080 -4.861288 1.996389
v -2.608295 -3.982770 -1.127321
v 2.500841 -6.403436 -0.863394
v -8.408316 -2.659311 5.779900
v -1.750421 -2.077171 3.935279
v 2.037846 -4.482635 2.050960
v -2.219110 -2.436936 4.876291
v -3.308101 -3.080498 0.749942
v 3.811626 -4.654760 2.115747
v -7.219069 -4.760335 0.367432
v 3.537863 -4.108193 -0.070322
v -4.804918 -3.732617 0.285403
v 4.515855 -4.412048 -1.030751
v -7.570864 -3.403183 1.817844
v -7.769454 -3.982087 -0.360235
v -5.082450 -1.985731 -1.237323
v -6.010964 -3.788259 -1.807588
v -4.868766 -2.507796 5.095964
v 3.663017 -3.275214 1.596404
v 4.181983 -2.409511 -2.293932
v 5.429381 -2.726712 -2.815225
v -8.467149 2.249657 -4.621610
v 5.301239 -2.182058 1.806492
v -3.212967 -2.390811 -1.057935
v -8.351605 5.374452 -5.883790
v -7.328912 -2.168228 5.539969
v 6.157508 -1.832017 -1.798315
v -6.988771 -2.887864 6.101446
v -7.096251 -2.064837 3.306326
v 4.503508 -0.834360 1.377205
v -6.274528 -1.516028 -2.822760
v -2.718717 -0.101493 1.739787
v -7.119224 0.621920 1.324172
v -2.711139 0.392675 -0.966769
v 8.415807 6.832116 0.326010
v -6.868403 0.876117 6.054340
v -4.910945 0.198970 -2.633664
v 1.814392 4.995108 -6.201095
v -2.922259 0.660452 4.566236
v -6.723446 -0.019577 4.733937
v -6.259448 -0.049431 -1.046671
v -3.965610 -0.850998 -3.655458
v -8.424891 2.054078 6.125111
v -6.566223 0.016537 -5.005041
v -7.431661 3.113966 -1.994230
v -3.022277 -0.035742 -4.568295
v -8.013442 3.222400 -6.165935
v -4.464067 3.090209 -3.523003
v -4.231359 1.665257 6.177759
v 8.343173 6.956791 6.201807
v -3.314239 1.922450 4.667704
v -6.785809 2.207133 3.112695
v -2.193873 0.430977 -2.588956
v -0.452935 0.762485 -4.691444
v -1.107266 4.684500 -6.108470
v -7.691018 2.643341 4.100108
v -3.243822 2.701622 1.978110
v 7.437303 0.851126 -0.895136
v -0.549081 1.813765 -0.724943
v -5.875575 2.673676 6.106988
v -2.904918 3.585296 -0.954976
v 6.362551 0.670996 -2.766082
v -2.300106 2.548272 -2.625332
v -0.003780 1.906287 -4.375625
v -6.773840 2.603242 -3.727903
v -1.052314 3.438321 -5.441755
v -5.178235 1.503725 5.661970
v -6.442139 2.941981 4.110601
v 5.492230 1.472052 1.681859
v -7.300124 3.016433 -5.135365
v -4.842661 4.538033 -3.542945
v 5.535586 2.292053 -3.965775
v 8.414545 6.804784 -6.174180
v -7.266063 2.823635 5.685111
v -7.447951 3.784932 5.969626
v -5.090376 3.653683 4.681729
v -4.329358 2.838734 3.158221
v -1.227404 4.758448 3.865601
v -1.945223 3.579736 1.385034
v 5.536844 2.434553 -1.360870
v -4.416297 2.595459 -1.736810
v -8.435720 3.949050 -1.965495
v 4.141497 3.272633 1.786870
v 7.389648 3.515180 -3.396731
v -5.560904 4.292302 -5.608055
v -0.156399 7.015819 6.173882
v -6.573540 3.602744 5.336402
v -2.699323 4.189526 4.990320
v -2.015274 4.208587 -3.254012
v 6.566524 3.543519 1.158290
v 3.116096 4.511973 -1.451305
v -8.011249 4.442245 -4.758464
v -2.461152 5.241207 -5.766942
v 3.921534 4.019747 -4.585384
v -4.000868 4.178971 -5.010992
v 6.332467 5.190559 -4.263888
v -5.271677 4.901633 -6.124619
v -6.427746 5.223600 4.710854
v -3.999178 4.916064 4.059629
v -1.976968 6.534889 1.540583
v 1.821134 5.135676 1.614867
v 7.072278 6.659468 1.064974
v -4.743249 4.737411 -5.333664
v -7.206791 6.734555 5.968662
v -5.057100 6.845965 6.094008
v -6.039834 5.791348 2.420570
v 6.440935 6.468560 3.674808
v -8.032290 6.558295 -3.643156
v 4.135770 7.218549 -5.840391
v -8.373541 6.978108 5.963657
v -1.140682 6.126393 4.549044
v -7.915588 6.064148 -0.388802
v -1.283457 6.731959 -4.816501
v 2.770856 5.713220 -4.596189
v -6.059006 6.897694 4.490152
v -0.047789 6.670995 -4.618786
v -1.507373 6.719628 -0.418625
v 6.698768 6.782937 -5.205892
v -7.392598 6.680619 -5.546651
v -3.122030 6.860651 3.803261
v 0.160049 7.031583 3.808519
v -5.831345 6.276368 -5.955951
v 8.106685 6.921777 -1.821922
v -7.475860 7.094211 1.946512
v 3.331354 6.940569 3.295834
v -0.265144 6.994844 0.828804
vn -0.5058 -0.5081 0.6971
vn -0.0186 -0.5982 0.8012
vn 0.5034 -0.5233 -0.6876
vn -0.5030 -0.5235 -0.6877
vn 0.5027 -0.5228 0.6885
vn -1.0000 -0.0000 0.0028
vn -0.0764 0.0102 0.9970
vn -0.7661 0.6104 0.2015
vn -0.0670 0.6208 -0.7811
vn 0.4990 0.8553 -0.1395
vn -0.0605 0.7040 -0.7077
vn 0.1940 0.4611 0.8659
vn -0.7568 0.5995 -0.2605
vn -0.2201 0.3280 -0.9187
vn 0.6550 0.3278 0.6808
vn 0.4203 0.7997 0.4287
vn 0.2866 0.2922 0.9124
vn -0.1475 0.0259 0.9887
vn -0.5633 0.4894 0.6657
vn 0.4331 -0.0019 -0.9013
vn 0.4173 0.4064 0.8128
vn -0.4121 0.0549 0.9095
vn 0.5694 0.5984 0.5636
vn -0.9221 -0.0246 0.3861
vn -0.9937 -0.0892 -0.0681
vn 0.6945 0.0011 -0.7195
vn -0.5207 -0.0220 -0.8535
vn -0.9964 -0.0011 0.0846
vn -0.2854 0.3366 -0.8974
vn 0.1981 0.9677 -0.1558
vn 0.8283 -0.3720 0.4189
vn 0.2939 0.6326 0.7165
vn -0.3358 0.4646 0.8194
vn 0.9735 0.1415 0.1796
vn 0.8535 0.3616 0.3752
vn -0.5002 0.4105 0.7624
vn -0.2573 0.6962 0.6702
vn -0.1662 0.0087 -0.9861
vn 0.6210 -0.5149 -0.5910
vn 0.6053 -0.2633 0.7512
vn -0.2382 0.0813 0.9678
vn -0.9987 0.0444 -0.0246
vn -0.5102 -0.0858 -0.8558
vn -0.4651 0.2114 0.8596
vn -0.3329 0.8842 -0.3276
vn 0.5539 -0.0954 -0.8271
vn -0.7676 -0.4816 0.4230
vn 0.0080 -0.0003 1.0000
vn 0.9685 -0.2485 -0.0145
vn 0.1646 -0.8341 -0.5265
vn 0.3919 0.7041 0.5922
vn -0.9907 -0.0899 0.1025
vn 0.9712 -0.1921 0.1408
vn -0.7562 0.0654 0.6510
vn 0.6568 0.7533 0.0351
vn 0.2063 0.2215 0.9531
vn -0.9392 0.2247 -0.2595
vn -0.0575 0.3514 -0.9344
vn -0.7099 -0.0366 -0.7034
vn 0.9609 0.0017 -0.2768
vn 0.9969 -0.0499 0.0604
vn -0.2943 0.9315 -0.2137
vn -0.5463 0.0520 0.8360
vn 0.4907 0.4704 0.7334
vn 0.9210 0.3835 -0.0682
vn -0.1440 0.5973 0.7890
vn -0.2419 0.0780 -0.9672
vn -0.3078 -0.3301 -0.8924
vn -0.0826 0.0098 0.9965
vn 0.5025 0.5464 0.6701
vn -0.3015 -0.1578 -0.9403
vn 0.9814 -0.1336 0.1377
vn 0.0901 0.6203 -0.7792
vn -0.5569 0.5749 0.5995
vn -0.2390 0.6018 -0.7621
vn 0.8221 -0.3286 0.4649
vn -0.8074 0.4836 0.3380
vn -0.5371 0.8191 -0.2014
vn -0.2220 0.0269 -0.9747
vn -0.1822 -0.1229 0.9755
vn -0.8418 0.4126 0.3481
vn -0.0166 0.9230 0.3844
vn 0.5403 -0.2224 -0.8115
vn -0.9720 -0.1037 0.2109
vn 0.9725 0.2329 0.0100
vn -0.5852 0.0466 0.8096
vn -0.7576 0.0899 -0.6465
vn 0.6248 -0.6340 -0.4556
vn 0.0330 0.6294 -0.7764
vn 0.7131 0.3545 0.6048
vn -0.7357 0.6736 0.0706
vn 0.1138 0.5586 0.8216
vn 0.5069 0.5189 -0.6884
vn -0.7279 0.2531 0.6373
vn 0.3742 -0.2084 0.9037
vn -0.2055 -0.0205 -0.9784
vn -0.0886 -0.2647 -0.9603
vn -0.8935 0.3812 -0.2374
vn -0.8282 0.4992 0.2548
vn 0.6469 0.7482 -0.1475
vn -0.7050 0.1888 0.6836
vn -0.7522 0.6589 -0.0026
vn 0.3633 0.6210 -0.6946
vn -0.7994 0.1670 0.5772
vn -0.2980 0.4428 0.8456
vn -0.0390 0.6421 0.7656
vn -0.3176 -0.2054 0.9257
vn -0.0306 0.0287 -0.9991
vn -0.7516 0.1225 -0.6481
vn -0.7641 0.2204 -0.6063
vn 0.6267 0.7743 0.0871
vn -0.3080 0.7647 -0.5661
vn 0.2830 0.9441 0.1690
vn 0.3447 0.5475 0.7625
vn -0.0620 -0.2377 0.9693
vn -0.5259 0.2726 0.8057
vn -0.3515 0.1197 -0.9285
vn 0.8296 0.0599 -0.5552
vn -0.1371 0.1102 -0.9844
vn -0.8148 0.5704 0.1040
vn 0.6142 0.6094 -0.5014
vn -0.6839 0.7206 -0.1139
vn -0.3661 0.5460 0.7535
vn 0.0434 0.5290 0.8475
vn -0.0946 0.7038 0.7041
vn 0.9470 0.2594 -0.1895
vn -0.1257 0.8978 -0.4220
vn -0.0619 0.9961 -0.0625
vn -0.2701 0.9340 -0.2339
vn -0.4734 0.5650 0.6758
vn -0.2229 0.5127 -0.8291
vn -0.2083 0.8006 -0.5618
vn -0.5160 0.7150 -0.4718
vn 0.3385 0.8796 0.3342
vn 0.7179 0.6818 -0.1408
vn 0.2216 0.9378 -0.2674
vn -0.6412 0.7665 -0.0381
vn -0.1537 0.9000 0.4079
vn -0.8198 0.5219 0.2356
vn -0.0606 0.4172 -0.9068
vn -0.3393 0.9404 0.0216
vn 0.1239 0.8357 -0.5351
vn -0.3769 0.9262 -0.0056
vn -0.1050 0.9206 -0.3762
vn 0.2030 0.8343 -0.5125
vn 0.1757 0.9769 -0.1218
s 1
usemtl Liquid_Domain_Material
f 1//1 4//4 2//2
f 5//5 2//2 3//3
f 3//3 2//2 4//4
f 1//1 2//2 7//7
f 1//1 6//6 4//4
f 3//3 4//4 58//58
f 1//1 7//7 18//18
f 13//13 12//12 11//11
f 12//12 13//13 8//8
f 11//11 16//16 14//14
f 16//16 11//11 12//12
f 9//9 14//14 10//10
f 14//14 16//16 10//10
f 16//16 15//15 10//10
f 12//12 8//8 17//17
f 1//1 18//18 24//24
f 1//1 24//24 6//6
f 20//20 9//9 10//10
f 16//16 21//21 15//15
f 16//16 12//12 17//17
f 19//19 23//23 29//29
f 27//27 25//25 13//13
f 25//25 28//28 13//13
f 13//13 28//28 8//8
f 29//29 23//23 26//26
f 17//17 21//21 16//16
f 8//8 28//28 22//22
f 8//8 22//22 17//17
f 23//23 19//19 33//33
f 9//9 20//20 14//14
f 27//27 13//13 11//11
f 31//31 23//23 33//33
f 10//10 15//15 20//20
f 26//26 23//23 31//31
f 32//32 21//21 17//17
f 11//11 14//14 27//27
f 21//21 32//32 34//34
f 30//30 35//35 34//34
f 32//32 30//30 34//34
f 19//19 29//29 33//33
f 7//7 48//48 18//18
f 20//20 38//38 14//14
f 20//20 15//15 34//34
f 21//21 34//34 15//15
f 30//30 32//32 36//36
f 32//32 17//17 22//22
f 36//36 37//37 30//30
f 35//35 30//30 37//37
f 29//29 26//26 39//39
f 26//26 31//31 39//39
f 31//31 33//33 40//40
f 22//22 44//44 32//32
f 40//40 33//33 41//41
f 37//37 51//51 35//35
f 6//6 42//42 4//4
f 5//5 70//70 2//2
f 38//38 27//27 14//14
f 20//20 34//34 46//46
f 29//29 39//39 43//43
f 29//29 43//43 33//33
f 20//20 46//46 38//38
f 50//50 43//43 39//39
f 44//44 22//22 28//28
f 33//33 47//47 41//41
f 2//2 69//69 7//7
f 70//70 69//69 2//2
f 34//34 49//49 46//46
f 49//49 34//34 35//35
f 43//43 47//47 33//33
f 39//39 31//31 50//50
f 31//31 40//40 50//50
f 48//48 7//7 69//69
f 27//27 38//38 59//59
f 63//63 6//6 24//24
f 36//36 32//32 44//44
f 35//35 51//51 61//61
f 52//52 28//28 25//25
f 49//49 35//35 53//53
f 47//47 43//43 50//50
f 5//5 3//3 55//55
f 28//28 54//54 44//44
f 51//51 37//37 36//36
f 47//47 40//40 41//41
f 61//61 53//53 35//35
f 40//40 47//47 50//50
f 4//4 67//67 58//58
f 69//69 56//56 48//48
f 38//38 46//46 87//87
f 38//38 87//87 59//59
f 46//46 49//49 60//60
f 25//25 27//27 59//59
f 49//49 53//53 60//60
f 6//6 63//63 42//42
f 54//54 36//36 44//44
f 36//36 57//57 51//51
f 51//51 57//57 62//62
f 62//62 64//64 51//51
f 18//18 63//63 24//24
f 48//48 63//63 18//18
f 48//48 56//56 63//63
f 46//46 60//60 87//87
f 59//59 52//52 25//25
f 28//28 52//52 54//54
f 36//36 54//54 101//101
f 64//64 62//62 66//66
f 42//42 45//45 4//4
f 51//51 65//65 61//61
f 4//4 45//45 67//67
f 63//63 102//102 42//42
f 36//36 101//101 57//57
f 62//62 57//57 68//68
f 62//62 68//68 73//73
f 87//87 60//60 56//56
f 60//60 53//53 72//72
f 74//74 62//62 73//73
f 62//62 74//74 66//66
f 55//55 3//3 93//93
f 87//87 56//56 69//69
f 76//76 56//56 60//60
f 79//79 74//74 73//73
f 56//56 80//80 63//63
f 59//59 87//87 71//71
f 60//60 72//72 76//76
f 59//59 77//77 52//52
f 77//77 54//54 52//52
f 82//82 100//100 78//78
f 83//83 73//73 68//68
f 79//79 84//84 74//74
f 85//85 65//65 51//51
f 64//64 85//85 51//51
f 58//58 67//67 75//75
f 80//80 56//56 88//88
f 77//77 81//81 54//54
f 89//89 78//78 100//100
f 54//54 81//81 101//101
f 83//83 79//79 73//73
f 82//82 78//78 104//104
f 92//92 82//82 104//104
f 85//85 64//64 90//90
f 86//86 66//66 74//74
f 66//66 86//86 64//64
f 80//80 87//87 69//69
f 87//87 80//80 88//88
f 88//88 56//56 94//94
f 89//89 110//110 78//78
f 101//101 91//91 57//57
f 3//3 58//58 93//93
f 80//80 94//94 63//63
f 56//56 95//95 94//94
f 87//87 96//96 71//71
f 56//56 76//76 95//95
f 87//87 88//88 96//96
f 97//97 71//71 96//96
f 71//71 98//98 59//59
f 59//59 99//99 77//77
f 78//78 110//110 104//104
f 111//111 100//100 82//82
f 86//86 74//74 84//84
f 64//64 86//86 105//105
f 76//76 72//72 88//88
f 59//59 98//98 99//99
f 89//89 103//103 110//110
f 103//103 89//89 111//111
f 111//111 89//89 100//100
f 79//79 83//83 109//109
f 91//91 68//68 57//57
f 79//79 109//109 84//84
f 92//92 111//111 82//82
f 64//64 105//105 90//90
f 94//94 95//95 63//63
f 69//69 106//106 80//80
f 70//70 106//106 69//69
f 80//80 107//107 94//94
f 94//94 107//107 88//88
f 99//99 81//81 77//77
f 92//92 114//114 111//111
f 75//75 67//67 117//117
f 107//107 95//95 76//76
f 107//107 76//76 88//88
f 71//71 119//119 108//108
f 71//71 108//108 98//98
f 119//119 71//71 97//97
f 72//72 53//53 126//126
f 127//127 110//110 103//103
f 53//53 61//61 126//126
f 111//111 121//121 103//103
f 90//90 128//128 85//85
f 86//86 84//84 109//109
f 88//88 118//118 96//96
f 96//96 119//119 97//97
f 126//126 61//61 65//65
f 110//110 122//122 104//104
f 101//101 81//81 91//91
f 128//128 65//65 85//85
f 68//68 123//123 83//83
f 123//123 109//109 83//83
f 102//102 128//128 42//42
f 90//90 112//112 128//128
f 68//68 115//115 123//123
f 104//104 116//116 92//92
f 92//92 116//116 114//114
f 115//115 105//105 86//86
f 86//86 113//113 115//115
f 107//107 80//80 125//125
f 88//88 72//72 118//118
f 70//70 5//5 55//55
f 98//98 120//120 99//99
f 65//65 128//128 102//102
f 134//134 111//111 114//114
f 112//112 42//42 128//128
f 91//91 115//115 68//68
f 112//112 45//45 42//42
f 91//91 105//105 115//115
f 90//90 45//45 112//112
f 105//105 91//91 123//123
f 90//90 105//105 45//45
f 45//45 105//105 67//67
f 67//67 105//105 117//117
f 95//95 124//124 63//63
f 95//95 125//125 124//124
f 107//107 125//125 95//95
f 106//106 125//125 80//80
f 118//118 72//72 126//126
f 120//120 137//137 99//99
f 99//99 137//137 81//81
f 111//111 136//136 121//121
f 102//102 132//132 65//65
f 109//109 91//91 81//81
f 109//109 123//123 91//91
f 86//86 75//75 113//113
f 63//63 124//124 130//130
f 125//125 119//119 96//96
f 98//98 108//108 131//131
f 63//63 130//130 102//102
f 126//126 65//65 132//132
f 136//136 111//111 134//134
f 109//109 133//133 86//86
f 105//105 123//123 117//117
f 117//117 142//142 113//113
f 75//75 117//117 113//113
f 96//96 118//118 125//125
f 118//118 126//126 135//135
f 145//145 127//127 103//103
f 103//103 121//121 145//145
f 127//127 122//122 110//110
f 86//86 133//133 75//75
f 116//116 129//129 114//114
f 115//115 142//142 123//123
f 113//113 142//142 115//115
f 58//58 129//129 93//93
f 135//135 125//125 118//118
f 108//108 119//119 140//140
f 131//131 108//108 140//140
f 126//126 132//132 144//144
f 81//81 137//137 109//109
f 143//143 116//116 104//104
f 137//137 133//133 109//109
f 114//114 129//129 134//134
f 139//139 117//117 123//123
f 75//75 133//133 58//58
f 133//133 136//136 58//58
f 134//134 58//58 136//136
f 119//119 125//125 140//140
f 131//131 141//141 98//98
f 98//98 141//141 120//120
f 121//121 146//146 145//145
f 121//121 136//136 146//146
f 122//122 143//143 104//104
f 116//116 138//138 129//129
f 123//123 142//142 139//139
f 58//58 134//134 129//129
f 117//117 139//139 142//142
f 131//131 140//140 106//106
f 143//143 55//55 93//93
f 138//138 116//116 143//143
f 125//125 135//135 124//124
f 106//106 140//140 125//125
f 70//70 141//141 106//106
f 141//141 131//131 106//106
f 145//145 141//141 70//70
f 124//124 135//135 130//130
f 70//70 127//127 145//145
f 55//55 127//127 70//70
f 135//135 144//144 130//130
f 55//55 143//143 127//127
f 145//145 146//146 141//141
f 127//127 143//143 122//122
f 126//126 144//144 135//135
f 130//130 144//144 102//102
f 144//144 132//132 102//102
f 146//146 137//137 141//141
f 120//120 141//141 137//137
f 137//137 136//136 133//133
f 146//146 136//136 137//137
f 93//93 138//138 143//143
f 93//93 129//129 138//138
