# Blender 4.1.1
# www.blender.org
mtllib aa0213.mtl
o Liquid_Domain
v -8.142923 -8.744419 6.220170
v -8.468285 -9.102686 5.874949
v 8.479902 -9.101757 5.869196
v -8.479031 -9.099611 -5.869568
v 8.469456 -9.101375 -5.873448
v -8.134167 -8.755833 -6.217273
v 8.134167 -8.755833 -6.217273
v 8.469177 0.625291 -2.170641
v 8.411670 6.692108 6.211663
v 8.134167 -8.755833 6.217273
v -8.453329 6.881441 6.038486
v 3.950528 -0.814240 -6.180503
v 0.623775 6.505196 6.190421
v -5.079104 -2.193292 -0.673009
v -6.365363 -1.258457 -1.725801
v 6.777660 1.288862 -6.122949
v -6.327530 -0.990680 2.651885
v -3.396321 -1.611836 1.260924
v 8.316253 1.921827 -6.170165
v -6.943198 0.119628 2.388713
v -4.221549 -0.317082 -1.440973
v -5.428782 -0.635485 -2.463351
v -8.455346 3.207143 -3.817369
v -3.194535 -0.915541 -2.603364
v -4.497326 -0.796632 -3.758022
v 6.450292 -0.887242 -4.525470
v -5.233541 -0.156466 -6.201872
v -2.199851 -0.157701 1.914985
v 4.819268 0.627384 -5.409986
v -2.400440 -0.645638 3.493520
v -4.404576 0.472408 2.937255
v -2.360414 0.598115 -0.313135
v -6.598984 3.094679 -0.354875
v -7.070886 1.034235 -3.903905
v 5.233335 0.172071 -1.968807
v 4.931166 -0.967624 -4.110194
v -1.395233 1.399784 -5.240779
v -0.830101 2.311257 3.752903
v -1.201322 1.382548 0.979293
v -1.187161 0.613803 -1.653399
v 7.559165 1.103066 -2.090721
v 4.031236 0.939321 -4.835503
v -2.562322 0.846251 4.442701
v -6.537438 3.395407 3.371707
v 6.981893 0.564987 -1.023336
v 7.599216 1.314579 -3.843364
v -5.390157 0.785017 -5.201757
v 1.773572 3.234163 -6.150974
v -5.195811 4.131296 3.084771
v 4.845580 1.239906 -1.252699
v -0.471576 1.281483 -4.149925
v 4.287021 1.309053 -3.670749
v 6.724391 1.406116 -5.207865
v -8.304264 5.118670 -6.120206
v -3.413560 2.131333 -5.453420
v -1.816905 3.697536 -6.103497
v -0.751671 2.535162 2.355499
v 8.322595 2.873750 -5.293832
v 3.171954 2.249563 -4.997728
v -1.085333 2.770986 3.985294
v 5.944438 2.965556 -1.229289
v 4.558723 2.286788 -5.320173
v -8.429243 6.755896 1.173090
v 0.348089 2.591545 -0.032401
v 4.921834 2.963951 -2.583135
v 0.063644 3.210652 -5.251639
v -7.044521 4.186887 -5.560464
v -2.307462 3.661088 4.144729
v 1.165027 3.368728 -2.223653
v 7.235034 3.389956 -4.964388
v 7.084717 2.474097 0.476095
v 7.712831 3.372462 0.403557
v 1.000408 4.564287 1.910808
v 2.125201 4.943347 0.051605
v -7.527467 3.273521 -3.525793
v 7.220306 4.836649 -2.588564
v -7.869507 4.205360 -5.453828
v -2.441002 3.438079 -5.128261
v -4.900107 6.852173 6.141636
v 7.158941 3.943981 4.201383
v -3.871707 4.331913 3.263593
v 4.514418 3.753506 1.928168
v 5.917336 3.653564 2.041835
v -0.293313 4.682210 1.664429
v 8.409171 6.657066 -3.066537
v 1.947335 4.428516 -5.497663
v 5.358047 3.510877 3.566468
v 4.197545 4.507346 -4.211520
v 2.559561 5.124924 -3.345895
v 6.465456 4.770251 -3.815324
v 2.397220 1.499714 -5.892881
v -5.193324 4.803475 -6.080563
v -0.508124 4.676453 4.170325
v 4.982080 5.085347 3.477678
v 5.310372 6.507496 -0.057351
v 6.864984 4.666538 -0.755636
v -7.496502 6.706880 1.732030
v -7.831823 6.102213 -1.122133
v 7.207339 6.013406 -4.263611
v -4.651698 4.677362 -5.251549
v 7.991053 6.889434 6.153404
v 6.131044 6.955832 4.750729
v 6.335340 5.042367 -2.721542
v -5.728623 5.546024 -5.242835
v -3.565601 5.054814 -5.605024
v -6.939813 6.240872 -6.104783
v 7.669900 6.836916 0.880951
v 8.038250 6.832559 -1.968153
v 3.507223 6.691608 -5.941561
v -3.541559 6.450830 4.668298
v 5.679534 6.539325 3.182812
v 4.537201 7.031103 2.173819
v 3.509261 6.721120 1.357146
v -7.788812 6.766161 -5.059594
v 1.884780 6.776906 3.149262
v 3.861842 6.977301 -3.257383
v 0.991987 6.281306 4.238091
v 7.557590 6.637609 4.304253
v -5.222139 6.886195 5.022885
v 2.220087 7.059538 5.770614
v -7.138841 6.907416 4.289160
v 5.223886 6.849388 -3.502107
vn -0.2881 -0.2784 0.9163
vn -0.6189 -0.6537 0.4354
vn 0.6215 -0.6521 0.4342
vn -0.6225 -0.6505 -0.4352
vn 0.6212 -0.6519 -0.4349
vn -0.2801 -0.2866 -0.9162
vn 0.2808 -0.2848 -0.9165
vn 0.9999 0.0071 -0.0143
vn 0.5682 0.3932 0.7229
vn 0.2768 -0.2890 0.9164
vn -0.5152 0.5332 0.6710
vn 0.0245 0.1555 -0.9875
vn 0.0065 0.2749 0.9615
vn -0.0920 0.9291 0.3582
vn 0.5188 0.7396 0.4287
vn -0.3199 0.4589 -0.8289
vn 0.3490 0.5951 -0.7239
vn -0.4310 0.8926 -0.1324
vn 0.4268 0.3752 -0.8229
vn 0.9104 0.2146 -0.3538
vn -0.3653 0.9268 0.0871
vn 0.0774 0.9524 0.2950
vn -0.8489 0.5276 -0.0320
vn -0.2566 0.9649 -0.0554
vn 0.1016 0.8864 0.4517
vn -0.4065 0.7884 0.4616
vn -0.0042 0.0110 -0.9999
vn -0.8259 0.5541 0.1038
vn -0.2346 0.9698 -0.0665
vn -0.2349 0.7779 -0.5829
vn 0.2287 0.3744 -0.8986
vn -0.6109 0.7916 -0.0109
vn 0.9830 0.1658 -0.0784
vn 0.8122 0.4937 0.3107
vn 0.3854 0.7624 -0.5198
vn 0.4579 0.8878 0.0464
vn -0.2759 0.4068 0.8709
vn -0.8166 0.2998 -0.4932
vn -0.7453 0.6658 -0.0349
vn -0.6147 0.7624 -0.2024
vn -0.9647 0.2478 -0.0891
vn 0.8218 0.2952 -0.4873
vn 0.0181 0.2682 -0.9632
vn -0.0067 0.2435 -0.9699
vn -0.2808 0.5994 -0.7496
vn -0.9568 0.0773 0.2804
vn 0.2345 0.4681 0.8520
vn -0.0222 0.2187 -0.9755
vn -0.0611 0.2556 -0.9649
vn 0.5920 0.1126 -0.7981
vn -0.6786 0.6632 0.3157
vn 0.9843 -0.0283 -0.1742
vn -0.8506 0.4063 0.3338
vn -0.6860 0.2136 -0.6955
vn -0.0652 0.0341 0.9973
vn 0.2052 0.6273 -0.7512
vn -0.8883 0.3981 -0.2291
vn 0.6092 0.3758 -0.6983
vn 0.4235 0.0859 -0.9018
vn -0.3085 0.1106 -0.9448
vn 0.7578 0.4085 -0.5087
vn 0.4170 0.0046 -0.9089
vn -0.6063 0.7776 -0.1666
vn -0.7259 0.6584 -0.1991
vn 0.8816 -0.2307 -0.4118
vn -0.3622 0.8374 0.4093
vn 0.1123 0.0055 0.9937
vn 0.1243 0.0460 -0.9912
vn -0.7804 0.6252 -0.0031
vn -0.4165 0.3124 -0.8538
vn -0.1255 0.8826 -0.4531
vn -0.9838 0.1776 0.0255
vn -0.4360 0.6115 -0.6603
vn -0.7632 0.6276 -0.1538
vn 0.7310 0.6023 -0.3208
vn -0.8618 -0.2370 0.4485
vn 0.1959 0.3906 0.8995
vn 0.1053 0.2518 0.9620
vn -0.0203 0.5933 0.8047
vn -0.3759 0.5264 -0.7626
vn 0.2729 0.0323 -0.9615
vn 0.8931 0.4346 -0.1158
vn -0.1324 0.9598 -0.2473
vn -0.3428 0.2896 -0.8936
vn 0.5689 0.7524 -0.3321
vn -0.7288 0.6039 -0.3227
vn 0.3918 0.7229 -0.5691
vn 0.8871 -0.0234 -0.4611
vn -0.8045 0.5939 -0.0091
vn -0.9871 0.0326 -0.1568
vn 0.9088 0.3837 -0.1640
vn 0.1899 0.4295 -0.8829
vn -0.4698 0.3169 -0.8239
vn 0.8663 -0.0501 -0.4970
vn 0.9684 0.2491 0.0115
vn -0.9890 0.0549 0.1373
vn 0.6023 0.7803 -0.1685
vn 0.1127 0.8277 -0.5497
vn -0.2319 0.6300 -0.7412
vn 0.0130 0.3790 0.9253
vn 0.1393 0.7730 0.6189
vn 0.2015 0.8739 -0.4425
vn -0.8120 -0.2257 0.5383
vn 0.4186 0.4588 0.7838
vn 0.2901 0.9493 0.1214
vn 0.1082 0.6027 -0.7906
vn -0.4264 0.8957 0.1263
vn -0.2780 0.9605 0.0140
vn 0.0660 0.5639 -0.8232
vn 0.0076 0.4397 -0.8981
vn 0.8292 0.0529 -0.5564
vn 0.4264 0.8988 -0.1018
vn -0.4716 0.8666 -0.1628
vn -0.3316 0.7015 0.6308
vn -0.4885 0.8209 -0.2959
vn -0.3939 0.9182 -0.0408
vn -0.3852 0.8025 -0.4557
vn -0.5550 0.7162 -0.4232
vn 0.0325 0.8802 -0.4735
vn -0.0576 0.9304 0.3619
vn 0.3067 0.8865 -0.3465
vn 0.8178 0.5159 -0.2552
s 1
usemtl Liquid_Domain_Material
f 2//2 3//3 1//1
f 1//1 3//3 10//10
f 5//5 2//2 4//4
f 3//3 2//2 5//5
f 5//5 4//4 6//6
f 7//7 5//5 6//6
f 3//3 5//5 8//8
f 19//19 5//5 7//7
f 10//10 9//9 1//1
f 4//4 11//11 23//23
f 2//2 11//11 4//4
f 18//18 14//14 17//17
f 14//14 15//15 17//17
f 7//7 6//6 27//27
f 7//7 27//27 12//12
f 17//17 15//15 20//20
f 14//14 18//18 21//21
f 12//12 19//19 7//7
f 30//30 18//18 31//31
f 14//14 21//21 15//15
f 15//15 21//21 22//22
f 25//25 22//22 24//24
f 1//1 9//9 13//13
f 30//30 28//28 18//18
f 18//18 28//28 32//32
f 18//18 32//32 21//21
f 24//24 22//22 21//21
f 26//26 36//36 35//35
f 29//29 36//36 26//26
f 12//12 16//16 19//19
f 18//18 17//17 31//31
f 33//33 15//15 34//34
f 26//26 35//35 45//45
f 37//37 25//25 24//24
f 12//12 42//42 29//29
f 8//8 5//5 19//19
f 28//28 39//39 32//32
f 20//20 15//15 33//33
f 24//24 21//21 32//32
f 40//40 24//24 32//32
f 36//36 50//50 35//35
f 45//45 41//41 26//26
f 22//22 34//34 15//15
f 41//41 46//46 26//26
f 47//47 25//25 37//37
f 36//36 29//29 42//42
f 12//12 29//29 16//16
f 38//38 30//30 43//43
f 43//43 30//30 31//31
f 17//17 44//44 31//31
f 30//30 38//38 28//28
f 17//17 20//20 44//44
f 51//51 24//24 40//40
f 50//50 36//36 52//52
f 25//25 34//34 22//22
f 37//37 24//24 51//51
f 34//34 25//25 47//47
f 42//42 52//52 36//36
f 12//12 27//27 48//48
f 31//31 44//44 49//49
f 57//57 39//39 28//28
f 45//45 35//35 50//50
f 47//47 37//37 55//55
f 53//53 29//29 26//26
f 53//53 26//26 46//46
f 12//12 91//91 59//59
f 42//42 12//12 59//59
f 23//23 54//54 4//4
f 53//53 16//16 29//29
f 12//12 48//48 91//91
f 2//2 1//1 11//11
f 43//43 60//60 38//38
f 38//38 57//57 28//28
f 45//45 50//50 61//61
f 40//40 64//64 51//51
f 50//50 52//52 65//65
f 8//8 19//19 58//58
f 27//27 56//56 48//48
f 31//31 49//49 43//43
f 64//64 32//32 39//39
f 40//40 32//32 64//64
f 45//45 61//61 71//71
f 41//41 45//45 71//71
f 67//67 34//34 47//47
f 62//62 42//42 59//59
f 42//42 62//62 52//52
f 6//6 4//4 54//54
f 27//27 6//6 54//54
f 63//63 23//23 11//11
f 61//61 50//50 65//65
f 51//51 66//66 37//37
f 27//27 54//54 92//92
f 56//56 27//27 92//92
f 19//19 16//16 58//58
f 43//43 68//68 60//60
f 39//39 57//57 64//64
f 69//69 51//51 64//64
f 41//41 96//96 46//46
f 51//51 69//69 66//66
f 90//90 53//53 46//46
f 37//37 78//78 55//55
f 70//70 16//16 53//53
f 70//70 58//58 16//16
f 43//43 49//49 68//68
f 49//49 81//81 68//68
f 71//71 72//72 41//41
f 41//41 72//72 96//96
f 9//9 8//8 85//85
f 33//33 34//34 75//75
f 90//90 46//46 76//76
f 65//65 52//52 62//62
f 75//75 34//34 77//77
f 67//67 77//77 34//34
f 55//55 67//67 47//47
f 80//80 71//71 83//83
f 80//80 72//72 71//71
f 57//57 73//73 64//64
f 73//73 74//74 64//64
f 71//71 61//61 83//83
f 23//23 77//77 54//54
f 37//37 66//66 78//78
f 13//13 79//79 1//1
f 38//38 60//60 93//93
f 57//57 38//38 93//93
f 80//80 83//83 87//87
f 87//87 61//61 82//82
f 83//83 61//61 87//87
f 74//74 69//69 64//64
f 88//88 82//82 61//61
f 96//96 76//76 46//46
f 65//65 88//88 61//61
f 8//8 58//58 85//85
f 62//62 88//88 65//65
f 69//69 86//86 66//66
f 90//90 70//70 53//53
f 75//75 77//77 23//23
f 55//55 100//100 67//67
f 100//100 55//55 78//78
f 86//86 48//48 66//66
f 66//66 56//56 78//78
f 56//56 66//66 48//48
f 44//44 20//20 121//121
f 93//93 84//84 57//57
f 57//57 84//84 73//73
f 75//75 98//98 33//33
f 86//86 69//69 89//89
f 88//88 62//62 59//59
f 58//58 70//70 99//99
f 59//59 91//91 88//88
f 78//78 56//56 105//105
f 9//9 10//10 3//3
f 3//3 8//8 9//9
f 60//60 68//68 93//93
f 82//82 94//94 87//87
f 121//121 20//20 33//33
f 82//82 88//88 95//95
f 97//97 33//33 98//98
f 74//74 89//89 69//69
f 63//63 98//98 23//23
f 90//90 99//99 70//70
f 58//58 99//99 85//85
f 78//78 105//105 100//100
f 9//9 101//101 13//13
f 80//80 87//87 102//102
f 118//118 72//72 80//80
f 82//82 95//95 94//94
f 76//76 103//103 90//90
f 67//67 104//104 77//77
f 67//67 100//100 104//104
f 54//54 106//106 92//92
f 56//56 92//92 105//105
f 68//68 81//81 110//110
f 87//87 94//94 102//102
f 44//44 119//119 49//49
f 117//117 84//84 93//93
f 121//121 33//33 97//97
f 117//117 73//73 84//84
f 72//72 107//107 96//96
f 96//96 108//108 76//76
f 98//98 75//75 23//23
f 92//92 104//104 100//100
f 100//100 105//105 92//92
f 48//48 86//86 109//109
f 48//48 109//109 91//91
f 81//81 49//49 110//110
f 73//73 113//113 74//74
f 94//94 95//95 112//112
f 76//76 108//108 103//103
f 103//103 99//99 90//90
f 77//77 104//104 114//114
f 88//88 91//91 109//109
f 77//77 114//114 54//54
f 1//1 79//79 11//11
f 119//119 110//110 49//49
f 94//94 111//111 102//102
f 117//117 115//115 73//73
f 94//94 112//112 111//111
f 118//118 107//107 72//72
f 116//116 74//74 113//113
f 116//116 89//89 74//74
f 95//95 88//88 122//122
f 103//103 108//108 99//99
f 89//89 116//116 86//86
f 104//104 92//92 106//106
f 93//93 68//68 110//110
f 93//93 110//110 117//117
f 80//80 102//102 118//118
f 96//96 107//107 108//108
f 122//122 88//88 109//109
f 116//116 109//109 86//86
f 106//106 114//114 104//104
f 119//119 44//44 121//121
f 115//115 113//113 73//73
f 63//63 97//97 98//98
f 85//85 99//99 108//108
f 106//106 54//54 114//114
f 13//13 101//101 120//120
f 79//79 121//121 11//11
f 119//119 121//121 79//79
f 13//13 120//120 79//79
f 101//101 102//102 120//120
f 120//120 119//119 79//79
f 117//117 119//119 120//120
f 117//117 110//110 119//119
f 101//101 118//118 102//102
f 121//121 63//63 11//11
f 120//120 115//115 117//117
f 9//9 85//85 101//101
f 120//120 112//112 115//115
f 102//102 112//112 120//120
f 113//113 115//115 112//112
f 111//111 112//112 102//102
f 121//121 97//97 63//63
f 101//101 108//108 118//118
f 101//101 85//85 108//108
f 108//108 107//107 118//118
f 95//95 122//122 112//112
f 112//112 116//116 113//113
f 112//112 122//122 116//116
f 122//122 109//109 116//116
