# Blender 4.1.1
# www.blender.org
mtllib aa0286.mtl
o Liquid_Domain
v -8.134167 -8.755833 6.217273
v -8.484354 -9.104337 5.865302
v -8.472618 -9.091219 -6.132797
v 8.481606 -9.102385 5.867364
v 8.469086 -9.100931 -5.871189
v 8.134167 -8.755833 -6.217273
v -8.421411 0.146047 -6.208558
v 8.417927 3.788461 -6.186651
v 4.108823 1.550649 6.178664
v 2.910311 1.210999 -6.198934
v 2.198994 -0.744134 -1.510564
v 4.088016 -0.425078 -1.353988
v 3.660462 0.133798 -3.484322
v 2.115892 -0.658952 -3.567580
v -5.371628 0.539801 -6.176375
v 8.134167 -8.755833 6.217273
v 8.451010 6.694714 1.969788
v 3.893872 -0.112618 -0.010961
v 2.571426 0.827802 0.190401
v -8.452199 4.048509 -3.609660
v 1.227638 -0.038457 -4.642925
v 3.848600 0.224680 2.552500
v 6.944123 2.665847 0.712315
v 5.446166 0.686640 -4.067942
v 2.674589 3.676183 6.117997
v 4.828885 0.592125 4.996081
v 4.024186 0.810336 3.961101
v 0.199395 1.632040 -1.334028
v 0.297458 0.466402 -2.052755
v 6.755454 1.294947 -1.752537
v 3.111006 1.717914 -5.301641
v 8.342472 6.877267 6.193414
v 1.559425 3.249427 -5.125548
v -6.193589 1.245523 -5.615081
v 3.654167 1.661377 5.058072
v 2.354307 1.008444 4.046137
v 3.093799 1.348472 3.653624
v 4.479181 2.568331 3.798330
v -7.899604 2.093050 -5.210374
v 3.376781 1.827427 5.382571
v 4.323910 1.742789 5.117093
v 6.961747 2.637384 4.498545
v 1.374833 2.102371 -0.186315
v 4.338791 2.217536 5.090147
v 5.899677 2.376002 5.350665
v 4.033197 2.559086 5.007221
v 1.617152 1.864681 2.728083
v 2.746324 2.613547 2.588432
v 1.321937 1.224234 1.330683
v -7.279843 2.876664 -6.045377
v 0.583006 3.328464 -6.203174
v 1.961155 3.531637 5.558314
v 0.535514 2.103694 4.304500
v 2.550184 3.410692 3.860963
v -0.630898 2.475337 1.050737
v 7.366192 3.290147 -1.421409
v 6.013348 4.622135 -2.481621
v 3.589815 4.262277 5.259935
v -0.561461 3.383752 5.299516
v 8.457012 6.696947 -2.726797
v -0.613801 4.315029 -3.741312
v 1.421391 4.303451 -5.440090
v -7.059063 4.665344 -6.156518
v -3.260231 3.825195 2.362053
v 7.085816 6.892217 3.629252
v -1.636963 4.676404 -1.520102
v 6.761026 5.323129 -5.111897
v 3.683309 4.794311 -5.709047
v 2.727410 3.953918 -6.051551
v 2.407489 5.524562 6.135390
v 0.710652 3.971859 5.398442
v -4.265204 4.089750 -1.768302
v -3.442224 3.713274 0.841927
v -2.022051 6.893361 6.175150
v -1.339948 5.397621 4.634801
v 0.594749 4.769203 3.956737
v 7.112511 4.689569 0.230609
v 4.293874 4.746410 4.162701
v -2.315387 5.568793 4.215580
v -8.409075 5.423744 -5.932531
v 2.958931 5.500292 5.657360
v -5.829795 5.521202 -3.223554
v -3.970757 4.986105 -4.804801
v 0.452809 6.916296 -6.113491
v 6.158928 5.595190 -6.073813
v -8.440070 7.023166 6.043545
v 2.840802 5.761902 5.564829
v -1.333746 6.629369 4.251471
v 6.818542 6.870194 4.654939
v -5.190169 5.748266 -0.802735
v 7.883674 6.923031 -0.337550
v 0.630510 6.702621 -4.649177
v 7.692199 6.408849 -3.955175
v -6.997556 6.476903 -5.656441
v 2.702495 6.491184 4.340943
v 6.634521 6.529375 -3.455760
v -8.277671 6.968049 -5.221503
v -0.633140 6.531171 5.665462
v 2.514098 6.997771 5.072668
v 3.985172 6.969740 6.139110
v 4.268165 6.772573 4.036498
v -4.438303 5.692284 0.455891
v -4.948837 6.736657 -0.223407
v -1.187720 6.470231 -3.014956
v -1.598809 7.057112 -4.485817
v -4.316177 6.705834 -5.193355
v 0.621790 6.864902 6.020488
v 1.338214 6.594986 4.616904
v -4.562872 6.377137 2.536360
v -6.848893 6.950273 3.053399
v -3.236388 6.934194 4.949846
v -5.887099 7.040938 -1.629728
v -6.356886 6.944185 -4.083465
v -5.504927 6.894341 -6.105714
vn -0.2782 -0.2861 0.9169
vn -0.6221 -0.6512 0.4346
vn -0.5058 -0.5272 -0.6828
vn 0.6221 -0.6514 0.4342
vn 0.6232 -0.6535 -0.4295
vn 0.2826 -0.2839 -0.9162
vn -0.5324 0.1956 -0.8236
vn 0.5734 0.1857 -0.7980
vn -0.0097 0.0094 0.9999
vn 0.0014 0.0171 -0.9999
vn 0.2412 0.9330 -0.2669
vn -0.3598 0.9313 -0.0578
vn -0.2565 0.8560 0.4489
vn -0.0162 0.9508 0.3093
vn -0.0820 0.1754 -0.9811
vn 0.2778 -0.2875 0.9166
vn 0.7649 0.6435 0.0285
vn -0.1434 0.9249 -0.3520
vn 0.5679 0.7575 -0.3221
vn -0.9906 0.0061 -0.1368
vn 0.4067 0.5466 0.7320
vn 0.0154 0.9850 -0.1717
vn -0.8922 0.4334 -0.1272
vn -0.5381 0.6108 0.5808
vn -0.0029 0.0249 0.9997
vn -0.1024 0.7618 -0.6397
vn 0.7414 0.4378 -0.5085
vn 0.7826 0.5919 -0.1931
vn 0.8851 0.4480 -0.1258
vn -0.8429 0.5171 0.1489
vn -0.0618 0.3243 0.9439
vn 0.4954 0.5269 0.6906
vn 0.4892 0.2864 0.8238
vn -0.4438 0.0075 -0.8961
vn 0.0433 0.8953 0.4434
vn 0.1090 0.9919 -0.0654
vn -0.0152 0.8556 -0.5174
vn 0.8177 0.3377 -0.4662
vn -0.5080 0.2515 -0.8238
vn -0.0078 0.3640 -0.9314
vn -0.0816 -0.2899 -0.9536
vn -0.8053 0.2209 -0.5502
vn 0.4858 0.8369 -0.2521
vn 0.5673 0.1997 -0.7989
vn -0.3446 0.0082 -0.9387
vn -0.0389 0.6483 -0.7604
vn 0.4002 0.9136 -0.0717
vn -0.2328 0.0770 -0.9695
vn 0.3328 0.9323 -0.1419
vn -0.4949 -0.1280 -0.8595
vn 0.0723 0.0922 -0.9931
vn 0.0782 0.1037 -0.9915
vn 0.3917 0.8113 -0.4340
vn -0.6063 0.7611 0.2305
vn 0.4536 0.8864 0.0923
vn -0.9199 -0.0638 0.3868
vn -0.9561 0.1451 0.2546
vn -0.3896 -0.1514 -0.9084
vn 0.3587 0.2983 -0.8845
vn 0.6315 0.7584 -0.1610
vn 0.8050 0.1924 0.5612
vn 0.8575 0.4950 0.1403
vn -0.2996 -0.0270 -0.9537
vn 0.6963 0.6319 -0.3405
vn -0.5666 0.8229 -0.0430
vn 0.3687 0.7426 0.5591
vn -0.7923 0.4151 0.4471
vn -0.4384 0.8279 0.3499
vn -0.1909 0.5016 -0.8438
vn 0.3568 0.2530 0.8993
vn 0.1327 -0.2921 -0.9472
vn 0.2887 0.9505 0.1153
vn 0.5125 0.8555 0.0735
vn 0.0657 0.6364 0.7685
vn 0.2565 -0.1047 -0.9608
vn 0.1746 -0.3162 -0.9325
vn -0.9924 0.1217 0.0171
vn -0.2523 -0.3099 -0.9167
vn 0.4478 0.2620 -0.8549
vn -0.5966 -0.0598 -0.8003
vn -0.9682 -0.0775 0.2377
vn 0.8290 0.5537 0.0778
vn -0.0104 0.6544 0.7561
vn 0.4127 0.5796 -0.7027
vn -0.0467 0.7272 -0.6848
vn -0.5057 0.5403 0.6725
vn -0.4059 0.0616 0.9118
vn 0.3718 0.4173 -0.8292
vn -0.1581 0.8724 -0.4626
vn 0.8894 0.2864 -0.3563
vn -0.3255 0.9436 0.0598
vn 0.6891 0.5944 0.4145
vn 0.2184 0.8431 -0.4914
vn -0.1690 0.6371 -0.7520
vn -0.4175 0.0774 -0.9054
vn -0.5926 0.7802 -0.2003
vn -0.5268 0.7222 -0.4482
vn 0.0390 0.8710 -0.4897
vn -0.1046 0.9852 0.1358
vn -0.1918 0.5796 0.7920
vn 0.0080 0.4586 -0.8886
vn 0.8416 0.5282 -0.1132
vn 0.7403 0.6659 -0.0926
vn 0.0574 0.7707 0.6346
vn -0.1663 0.9234 0.3460
vn -0.0012 0.7011 0.7131
vn 0.0458 0.7650 0.6424
vn 0.0136 0.4418 -0.8970
vn 0.4636 0.7990 -0.3829
vn 0.1540 0.9874 -0.0373
vn 0.1060 0.9619 -0.2521
vn 0.2323 0.9711 -0.0543
vn 0.3556 0.9306 0.0872
vn -0.1164 0.6315 -0.7666
s 1
usemtl Liquid_Domain_Material
f 2//2 4//4 1//1
f 1//1 4//4 16//16
f 4//4 2//2 3//3
f 5//5 4//4 3//3
f 6//6 5//5 3//3
f 3//3 7//7 6//6
f 8//8 5//5 6//6
f 5//5 17//17 4//4
f 5//5 8//8 17//17
f 1//1 16//16 9//9
f 6//6 7//7 10//10
f 3//3 20//20 7//7
f 13//13 11//11 12//12
f 14//14 11//11 13//13
f 10//10 7//7 15//15
f 6//6 10//10 8//8
f 1//1 9//9 25//25
f 2//2 20//20 3//3
f 18//18 12//12 11//11
f 18//18 11//11 19//19
f 19//19 11//11 29//29
f 11//11 14//14 29//29
f 21//21 29//29 14//14
f 18//18 23//23 12//12
f 13//13 12//12 24//24
f 13//13 21//21 14//14
f 26//26 22//22 27//27
f 37//37 27//27 22//22
f 37//37 22//22 47//47
f 22//22 18//18 19//19
f 23//23 18//18 22//22
f 30//30 24//24 12//12
f 24//24 31//31 13//13
f 21//21 13//13 31//31
f 9//9 16//16 32//32
f 19//19 49//49 47//47
f 47//47 22//22 19//19
f 29//29 28//28 43//43
f 43//43 19//19 29//29
f 12//12 23//23 30//30
f 29//29 21//21 33//33
f 15//15 7//7 34//34
f 2//2 1//1 86//86
f 32//32 16//16 4//4
f 35//35 26//26 27//27
f 37//37 36//36 35//35
f 36//36 40//40 35//35
f 37//37 47//47 36//36
f 28//28 29//29 33//33
f 7//7 20//20 39//39
f 7//7 39//39 34//34
f 21//21 31//31 33//33
f 41//41 26//26 40//40
f 26//26 35//35 40//40
f 40//40 36//36 53//53
f 35//35 27//27 41//41
f 45//45 42//42 26//26
f 22//22 26//26 42//42
f 36//36 47//47 53//53
f 27//27 37//37 38//38
f 49//49 19//19 43//43
f 30//30 57//57 24//24
f 1//1 25//25 74//74
f 40//40 53//53 52//52
f 46//46 41//41 40//40
f 41//41 44//44 26//26
f 26//26 44//44 45//45
f 41//41 46//46 35//35
f 41//41 27//27 44//44
f 35//35 46//46 37//37
f 44//44 27//27 38//38
f 48//48 38//38 37//37
f 42//42 23//23 22//22
f 47//47 49//49 55//55
f 43//43 55//55 49//49
f 50//50 34//34 39//39
f 37//37 46//46 54//54
f 44//44 38//38 46//46
f 54//54 48//48 37//37
f 47//47 55//55 53//53
f 43//43 28//28 55//55
f 56//56 57//57 30//30
f 34//34 50//50 15//15
f 40//40 58//58 46//46
f 44//44 46//46 58//58
f 44//44 58//58 45//45
f 23//23 56//56 30//30
f 17//17 8//8 60//60
f 9//9 32//32 25//25
f 53//53 59//59 52//52
f 45//45 58//58 42//42
f 38//38 54//54 46//46
f 42//42 65//65 23//23
f 59//59 53//53 64//64
f 38//38 48//48 54//54
f 64//64 53//53 73//73
f 53//53 55//55 73//73
f 20//20 63//63 39//39
f 63//63 50//50 39//39
f 8//8 10//10 85//85
f 40//40 52//52 58//58
f 52//52 59//59 71//71
f 42//42 58//58 78//78
f 73//73 55//55 66//66
f 23//23 77//77 56//56
f 55//55 28//28 66//66
f 61//61 66//66 28//28
f 28//28 33//33 61//61
f 31//31 67//67 68//68
f 24//24 67//67 31//31
f 33//33 69//69 62//62
f 31//31 68//68 33//33
f 15//15 63//63 10//10
f 51//51 62//62 69//69
f 10//10 51//51 69//69
f 25//25 70//70 74//74
f 64//64 73//73 72//72
f 72//72 73//73 66//66
f 77//77 57//57 56//56
f 61//61 33//33 62//62
f 57//57 67//67 24//24
f 69//69 33//33 68//68
f 15//15 50//50 63//63
f 4//4 17//17 32//32
f 75//75 71//71 59//59
f 64//64 79//79 59//59
f 65//65 77//77 23//23
f 57//57 96//96 67//67
f 10//10 63//63 51//51
f 52//52 71//71 108//108
f 75//75 76//76 71//71
f 71//71 76//76 108//108
f 79//79 75//75 59//59
f 64//64 72//72 102//102
f 86//86 20//20 2//2
f 104//104 72//72 66//66
f 72//72 104//104 83//83
f 62//62 92//92 61//61
f 20//20 80//80 63//63
f 93//93 8//8 85//85
f 10//10 69//69 85//85
f 25//25 81//81 70//70
f 78//78 58//58 81//81
f 42//42 78//78 89//89
f 89//89 65//65 42//42
f 72//72 82//82 90//90
f 72//72 83//83 82//82
f 92//92 62//62 84//84
f 93//93 85//85 67//67
f 63//63 114//114 84//84
f 51//51 63//63 84//84
f 84//84 62//62 51//51
f 68//68 85//85 69//69
f 1//1 74//74 86//86
f 32//32 100//100 25//25
f 81//81 58//58 70//70
f 58//58 87//87 70//70
f 58//58 52//52 87//87
f 52//52 108//108 87//87
f 95//95 78//78 81//81
f 75//75 79//79 88//88
f 79//79 64//64 109//109
f 102//102 109//109 64//64
f 102//102 72//72 90//90
f 77//77 91//91 57//57
f 66//66 61//61 92//92
f 67//67 85//85 68//68
f 63//63 80//80 94//94
f 70//70 107//107 74//74
f 25//25 100//100 81//81
f 87//87 95//95 81//81
f 87//87 108//108 95//95
f 76//76 75//75 108//108
f 111//111 79//79 109//109
f 77//77 65//65 91//91
f 91//91 96//96 57//57
f 60//60 8//8 93//93
f 113//113 82//82 83//83
f 20//20 97//97 80//80
f 80//80 97//97 94//94
f 114//114 63//63 94//94
f 74//74 107//107 98//98
f 70//70 87//87 107//107
f 87//87 99//99 107//107
f 87//87 100//100 99//99
f 81//81 100//100 87//87
f 98//98 75//75 88//88
f 108//108 75//75 98//98
f 78//78 101//101 89//89
f 78//78 95//95 101//101
f 110//110 109//109 102//102
f 90//90 82//82 103//103
f 86//86 97//97 20//20
f 83//83 104//104 105//105
f 96//96 93//93 67//67
f 106//106 113//113 83//83
f 83//83 105//105 106//106
f 79//79 111//111 88//88
f 110//110 102//102 103//103
f 103//103 102//102 90//90
f 103//103 82//82 113//113
f 92//92 104//104 66//66
f 110//110 86//86 74//74
f 32//32 89//89 100//100
f 111//111 110//110 74//74
f 88//88 111//111 74//74
f 98//98 88//88 74//74
f 107//107 108//108 98//98
f 89//89 99//99 100//100
f 99//99 108//108 107//107
f 95//95 108//108 99//99
f 101//101 95//95 99//99
f 89//89 101//101 99//99
f 111//111 109//109 110//110
f 32//32 17//17 89//89
f 17//17 65//65 89//89
f 110//110 112//112 86//86
f 17//17 91//91 65//65
f 103//103 112//112 110//110
f 17//17 60//60 91//91
f 112//112 97//97 86//86
f 112//112 103//103 113//113
f 91//91 93//93 96//96
f 60//60 93//93 91//91
f 113//113 97//97 112//112
f 113//113 94//94 97//97
f 92//92 105//105 104//104
f 114//114 94//94 113//113
f 114//114 113//113 106//106
f 105//105 114//114 106//106
f 84//84 114//114 105//105
f 92//92 84//84 105//105
