# Blender 4.1.1
# www.blender.org
mtllib aa0247.mtl
o Liquid_Domain
v -8.428035 -9.093962 6.130569
v 8.444840 -9.086075 6.210542
v -8.450752 -9.092618 -6.149728
v 8.474908 -9.086686 -6.210403
v -2.069954 3.753604 6.178224
v -8.461031 -5.236844 1.447151
v -8.409858 -0.221602 -5.219423
v -8.421809 -1.899613 4.837621
v -8.300906 -3.285412 3.271794
v -7.907591 -4.315466 0.419864
v -8.325689 -1.873637 -1.579498
v -8.143978 -3.769665 1.784328
v -4.919050 -3.816866 4.256709
v -7.840308 -2.474925 0.834503
v -8.298784 -0.984813 0.157317
v -7.135684 -2.956702 -1.880814
v -7.560098 -4.296943 3.533730
v -8.395761 2.324890 6.170033
v -7.636297 -0.867835 2.164100
v -4.498592 -2.400640 2.875946
v -4.930480 -1.545564 4.905817
v -5.178312 -2.509057 -0.308345
v -8.182622 -1.391890 2.823512
v -7.903233 -1.540056 -3.343160
v -5.148821 -0.877959 -2.704401
v -4.528536 0.128646 2.855675
v -8.213484 1.301082 2.836085
v -7.434994 -0.528111 -0.072805
v -2.621617 -0.243003 4.358835
v -5.832452 -0.138346 -4.758511
v -7.690689 0.595195 3.974626
v -7.556245 0.957397 4.143579
v -8.255086 0.627076 3.924146
v -8.053910 1.612336 0.035573
v -3.098175 0.127260 -4.656708
v -8.313393 1.492373 -6.162692
v -5.364689 1.312229 5.181728
v -4.042427 0.408923 -0.086904
v -1.575810 3.258174 0.088334
v -3.098116 3.051732 4.876698
v -2.239841 0.943161 -3.560347
v 8.428265 6.504595 -3.744031
v -8.170662 1.061917 -2.775610
v -8.137506 1.768148 -4.463831
v -7.845836 2.448498 4.884542
v -3.811904 1.186213 -6.172891
v -5.612082 6.040040 6.114010
v -2.564981 3.189063 1.721874
v -1.914641 3.733424 -0.550834
v -7.754593 2.599507 -2.073983
v -7.708941 2.627678 -4.396641
v -1.285500 3.596147 -6.217629
v -4.498794 2.534004 -4.259673
v -3.333770 2.346042 -5.472991
v -8.208532 3.812209 -1.464810
v 5.466847 2.300700 -3.897286
v 8.270501 7.047834 -6.150218
v 5.087762 7.013403 6.184632
v -4.789182 4.488671 4.737913
v 1.941075 3.598935 -2.689304
v 1.772956 2.503811 -3.677397
v 6.619903 3.417728 -2.933192
v -8.186207 3.554865 -4.899648
v -5.184442 4.127259 -3.090129
v 5.996614 4.473806 -5.220235
v -7.451974 5.479326 5.203712
v 8.447393 6.781473 6.170484
v -1.813614 3.259859 4.699616
v -8.387222 4.477937 2.693769
v -7.931519 3.989837 2.565526
v -8.198714 4.971684 -0.349618
v -6.358888 4.176576 -0.313939
v -7.126985 3.746211 -1.061574
v -8.306960 6.584805 6.123247
v -1.432797 4.107500 5.864167
v -1.324167 4.033725 5.864167
v -0.991485 6.297168 5.349668
v -7.465473 4.612440 0.414823
v -7.934999 4.208851 -3.092170
v -3.570486 4.559121 -6.087039
v -2.418780 4.626917 6.050004
v -0.205978 4.844233 5.065369
v -7.953546 4.737839 2.252793
v 6.674905 4.513981 -1.366725
v 0.402216 4.457499 -2.036974
v 6.189530 5.120044 -3.236889
v 2.074456 5.350350 -5.948996
v -8.434662 6.828130 -5.440301
v -0.234503 5.547256 2.284580
v -7.992845 5.187867 1.092427
v 5.338838 5.093487 0.163157
v 2.768398 4.833506 -1.425424
v 3.631993 5.421897 -2.646081
v -3.041079 5.525425 -4.723374
v -8.429540 6.987614 -3.089685
v -0.569603 4.862663 -4.622541
v 0.159760 6.129235 -5.816624
v 2.889183 5.067168 3.834301
v -8.151573 5.576145 1.647770
v -7.118626 6.066988 -2.580570
v -6.373641 6.904991 -6.076640
v -5.768399 5.674646 5.669183
v 2.550856 6.988512 0.866724
v -7.422240 6.448373 1.808724
v 3.902949 6.883063 0.060617
v -8.278911 6.332365 -1.123792
v -3.047062 6.920963 -3.447114
v -0.775186 6.795292 6.036729
v 4.273269 7.186792 2.809065
v -8.253809 6.751606 1.882298
v 6.970500 6.625712 -2.684750
v -4.190421 6.877772 -1.574608
v 6.357661 7.097291 -5.752534
v -5.624599 6.070923 -5.040492
v 2.122289 7.012719 5.342264
v 6.773945 6.626376 3.845384
vn -0.5035 -0.5256 0.6858
vn 0.5005 -0.5232 0.6897
vn -0.5067 -0.5230 -0.6853
vn 0.5026 -0.5225 -0.6887
vn -0.1525 0.2391 0.9589
vn -0.9954 0.0934 0.0234
vn -0.8460 0.2291 0.4814
vn -0.7683 0.1317 -0.6264
vn -0.5080 0.1773 -0.8429
vn -0.1350 0.9292 0.3440
vn -0.3082 0.7921 0.5270
vn -0.9007 0.1840 0.3935
vn -0.4683 0.6242 -0.6254
vn 0.9737 -0.0639 -0.2188
vn -0.6488 -0.2964 -0.7009
vn 0.0210 0.8249 0.5648
vn 0.3177 0.7779 -0.5421
vn -0.6280 0.0045 0.7782
vn 0.9778 -0.0075 0.2096
vn -0.8706 0.4553 0.1865
vn -0.2173 0.2773 -0.9359
vn -0.6402 0.7446 0.1890
vn 0.8090 0.1096 0.5775
vn 0.2426 0.8206 0.5175
vn -0.5512 0.7842 0.2850
vn -0.9113 0.2097 0.3543
vn -0.1726 0.9753 -0.1382
vn 0.7399 -0.3017 -0.6013
vn -0.8992 0.3465 -0.2672
vn -0.1403 0.8882 0.4375
vn 0.8215 -0.4492 -0.3512
vn 0.3614 0.3103 -0.8793
vn -0.9618 0.0039 -0.2736
vn -0.1036 0.8405 0.5317
vn -0.5619 0.3701 0.7398
vn -0.6006 0.0303 -0.7989
vn 0.0739 0.0624 -0.9953
vn -0.8724 0.4888 -0.0027
vn -0.9031 0.4139 0.1148
vn 0.0060 0.3163 -0.9486
vn -0.9056 0.3710 0.2058
vn 0.7799 0.6219 0.0709
vn -0.1276 -0.9744 -0.1853
vn -0.3712 -0.6164 0.6945
vn -0.3416 -0.0340 -0.9392
vn 0.0106 0.0715 -0.9974
vn 0.3178 0.7945 0.5174
vn -0.5365 0.8417 -0.0613
vn -0.7891 -0.2781 0.5478
vn 0.9958 0.0848 0.0338
vn 0.9649 0.0367 -0.2602
vn -0.1048 0.2358 -0.9661
vn -0.3632 -0.5134 0.7775
vn 0.1153 0.2077 -0.9714
vn -0.1254 0.8362 0.5338
vn -0.3091 0.9392 0.1496
vn 0.4779 0.5602 -0.6767
vn 0.0360 0.6196 0.7841
vn 0.1898 0.3466 -0.9186
vn 0.1216 0.6952 -0.7084
vn 0.3794 0.9238 -0.0509
vn -0.6576 0.2691 -0.7036
vn -0.5774 -0.4155 0.7028
vn -0.2780 -0.5003 0.8200
vn -0.5288 0.3759 0.7610
vn 0.5988 0.5117 -0.6161
vn 0.5164 0.5272 0.6749
vn -0.6168 0.6892 -0.3803
vn -0.9419 -0.2604 -0.2122
vn 0.3067 -0.8621 -0.4034
vn -0.5499 0.1635 -0.8191
vn 0.9390 -0.2899 -0.1849
vn 0.0357 -0.4465 -0.8941
vn -0.3800 0.6966 0.6086
vn 0.6590 0.4571 0.5973
vn -0.0400 0.1836 -0.9822
vn -0.4105 0.4566 -0.7893
vn 0.0641 -0.9152 0.3980
vn -0.4968 -0.5440 0.6762
vn -0.0353 0.3113 -0.9497
vn -0.6701 0.2824 0.6864
vn -0.5793 0.5556 -0.5964
vn 0.8687 0.0875 -0.4876
vn -0.5472 0.8088 0.2155
vn 0.3955 0.4504 -0.8005
vn -0.6623 0.2312 -0.7127
vn -0.0132 0.9713 -0.2375
vn -0.5742 0.6674 -0.4743
vn -0.6325 0.6882 0.3555
vn -0.3777 -0.4213 0.8245
vn 0.2762 0.8410 -0.4652
vn 0.0863 0.8360 -0.5420
vn -0.3524 0.8163 -0.4576
vn 0.3176 0.7352 -0.5989
vn -0.6537 0.7279 0.2069
vn 0.1633 0.9819 0.0958
vn -0.1451 0.9438 -0.2970
vn -0.4955 0.8581 -0.1349
vn -0.5243 -0.8110 -0.2595
vn 0.0982 -0.0729 0.9925
vn 0.2168 0.7330 -0.6448
vn 0.2465 0.6997 -0.6706
vn -0.1088 0.9936 -0.0297
vn 0.8329 0.4816 -0.2727
vn 0.2528 0.7632 -0.5947
vn -0.1457 0.1457 0.9785
vn 0.2677 0.8477 -0.4579
vn -0.4012 0.7110 0.5775
vn -0.0856 0.9877 -0.1307
vn -0.4961 0.8190 -0.2882
vn -0.3891 0.9181 0.0755
vn -0.4153 0.5828 0.6985
vn -0.4129 0.8898 -0.1944
vn 0.3412 0.8347 -0.4323
vn -0.2402 0.8953 -0.3752
vn 0.0394 0.9931 -0.1106
s 1
usemtl Liquid_Domain_Material
f 4//4 1//1 3//3
f 2//2 1//1 4//4
f 2//2 5//5 1//1
f 1//1 6//6 3//3
f 3//3 36//36 4//4
f 1//1 8//8 6//6
f 11//11 7//7 3//3
f 8//8 9//9 6//6
f 9//9 17//17 6//6
f 6//6 17//17 12//12
f 6//6 10//10 11//11
f 6//6 11//11 3//3
f 17//17 13//13 10//10
f 17//17 14//14 12//12
f 6//6 15//15 10//10
f 14//14 17//17 10//10
f 12//12 15//15 6//6
f 14//14 10//10 15//15
f 16//16 11//11 10//10
f 1//1 18//18 8//8
f 5//5 18//18 1//1
f 9//9 19//19 17//17
f 13//13 20//20 10//10
f 10//10 20//20 16//16
f 13//13 17//17 21//21
f 9//9 12//12 19//19
f 19//19 12//12 14//14
f 9//9 15//15 12//12
f 22//22 16//16 20//20
f 8//8 23//23 9//9
f 8//8 17//17 23//23
f 11//11 16//16 24//24
f 21//21 20//20 13//13
f 17//17 19//19 23//23
f 3//3 7//7 36//36
f 17//17 8//8 21//21
f 16//16 22//22 25//25
f 11//11 24//24 7//7
f 36//36 46//46 4//4
f 9//9 27//27 15//15
f 15//15 28//28 14//14
f 25//25 24//24 16//16
f 21//21 29//29 20//20
f 23//23 27//27 9//9
f 19//19 14//14 28//28
f 24//24 25//25 30//30
f 32//32 21//21 8//8
f 20//20 29//29 26//26
f 30//30 25//25 35//35
f 7//7 24//24 30//30
f 21//21 32//32 37//37
f 29//29 21//21 40//40
f 33//33 31//31 8//8
f 31//31 32//32 8//8
f 23//23 33//33 27//27
f 33//33 23//23 19//19
f 27//27 34//34 15//15
f 19//19 34//34 27//27
f 34//34 19//19 28//28
f 20//20 38//38 22//22
f 4//4 46//46 52//52
f 2//2 4//4 67//67
f 19//19 31//31 33//33
f 26//26 38//38 20//20
f 38//38 25//25 22//22
f 25//25 39//39 35//35
f 21//21 37//37 40//40
f 41//41 35//35 39//39
f 18//18 33//33 8//8
f 45//45 37//37 32//32
f 32//32 31//31 27//27
f 26//26 29//29 68//68
f 31//31 19//19 27//27
f 28//28 15//15 50//50
f 38//38 39//39 25//25
f 30//30 35//35 7//7
f 7//7 44//44 36//36
f 18//18 45//45 33//33
f 45//45 32//32 33//33
f 32//32 27//27 33//33
f 34//34 28//28 50//50
f 34//34 43//43 15//15
f 50//50 15//15 43//43
f 44//44 43//43 63//63
f 43//43 44//44 51//51
f 44//44 7//7 51//51
f 35//35 63//63 7//7
f 44//44 63//63 36//36
f 29//29 40//40 68//68
f 26//26 48//48 38//38
f 38//38 48//48 39//39
f 39//39 49//49 41//41
f 43//43 51//51 50//50
f 7//7 63//63 51//51
f 35//35 53//53 63//63
f 46//46 54//54 52//52
f 5//5 2//2 58//58
f 4//4 42//42 67//67
f 41//41 53//53 35//35
f 42//42 4//4 57//57
f 4//4 52//52 57//57
f 26//26 68//68 48//48
f 34//34 55//55 43//43
f 41//41 49//49 53//53
f 45//45 59//59 37//37
f 34//34 50//50 55//55
f 55//55 63//63 43//43
f 62//62 61//61 60//60
f 56//56 61//61 62//62
f 87//87 61//61 56//56
f 52//52 87//87 57//57
f 5//5 58//58 108//108
f 45//45 66//66 59//59
f 40//40 37//37 59//59
f 49//49 64//64 53//53
f 79//79 53//53 64//64
f 56//56 65//65 87//87
f 54//54 46//46 80//80
f 47//47 74//74 18//18
f 18//18 5//5 47//47
f 68//68 40//40 5//5
f 18//18 69//69 45//45
f 70//70 45//45 69//69
f 39//39 48//48 68//68
f 51//51 63//63 55//55
f 53//53 79//79 63//63
f 62//62 65//65 56//56
f 76//76 75//75 5//5
f 75//75 81//81 5//5
f 82//82 76//76 5//5
f 82//82 5//5 108//108
f 75//75 76//76 68//68
f 75//75 68//68 77//77
f 5//5 81//81 68//68
f 81//81 77//77 68//68
f 76//76 82//82 68//68
f 45//45 70//70 66//66
f 71//71 70//70 69//69
f 71//71 78//78 70//70
f 72//72 78//78 73//73
f 55//55 50//50 51//51
f 60//60 61//61 96//96
f 54//54 80//80 52//52
f 75//75 82//82 81//81
f 82//82 75//75 77//77
f 5//5 40//40 59//59
f 39//39 68//68 82//82
f 66//66 70//70 83//83
f 69//69 83//83 71//71
f 78//78 83//83 70//70
f 71//71 73//73 78//78
f 85//85 92//92 60//60
f 60//60 96//96 85//85
f 62//62 60//60 86//86
f 63//63 95//95 36//36
f 61//61 87//87 96//96
f 5//5 102//102 47//47
f 82//82 108//108 81//81
f 67//67 58//58 2//2
f 102//102 5//5 59//59
f 18//18 74//74 69//69
f 82//82 89//89 39//39
f 83//83 90//90 71//71
f 83//83 78//78 90//90
f 39//39 89//89 49//49
f 73//73 71//71 72//72
f 84//84 92//92 91//91
f 84//84 93//93 92//92
f 93//93 60//60 92//92
f 86//86 60//60 93//93
f 96//96 94//94 85//85
f 79//79 95//95 63//63
f 96//96 87//87 97//97
f 80//80 46//46 114//114
f 52//52 97//97 87//87
f 66//66 102//102 59//59
f 66//66 83//83 104//104
f 99//99 83//83 69//69
f 90//90 78//78 72//72
f 84//84 91//91 116//116
f 112//112 64//64 49//49
f 93//93 84//84 111//111
f 79//79 64//64 100//100
f 62//62 86//86 65//65
f 36//36 95//95 88//88
f 96//96 52//52 94//94
f 52//52 80//80 94//94
f 96//96 97//97 52//52
f 46//46 36//36 101//101
f 47//47 102//102 74//74
f 98//98 103//103 82//82
f 103//103 89//89 82//82
f 99//99 104//104 83//83
f 90//90 99//99 71//71
f 90//90 104//104 99//99
f 72//72 104//104 90//90
f 105//105 91//91 92//92
f 107//107 92//92 85//85
f 79//79 106//106 95//95
f 111//111 86//86 93//93
f 107//107 85//85 94//94
f 86//86 111//111 65//65
f 46//46 101//101 114//114
f 81//81 108//108 77//77
f 98//98 82//82 115//115
f 69//69 110//110 99//99
f 99//99 110//110 71//71
f 116//116 111//111 84//84
f 104//104 72//72 71//71
f 49//49 89//89 112//112
f 106//106 79//79 100//100
f 112//112 100//100 64//64
f 94//94 80//80 114//114
f 36//36 88//88 101//101
f 102//102 66//66 74//74
f 82//82 77//77 115//115
f 115//115 109//109 98//98
f 98//98 109//109 103//103
f 74//74 110//110 69//69
f 105//105 109//109 91//91
f 104//104 71//71 110//110
f 111//111 113//113 65//65
f 113//113 87//87 65//65
f 87//87 113//113 57//57
f 104//104 74//74 66//66
f 109//109 116//116 91//91
f 112//112 89//89 103//103
f 103//103 105//105 92//92
f 103//103 92//92 107//107
f 100//100 95//95 106//106
f 95//95 100//100 112//112
f 114//114 88//88 95//95
f 107//107 114//114 95//95
f 107//107 94//94 114//114
f 108//108 58//58 115//115
f 115//115 77//77 108//108
f 109//109 115//115 58//58
f 58//58 116//116 109//109
f 67//67 116//116 58//58
f 104//104 110//110 74//74
f 109//109 105//105 103//103
f 67//67 111//111 116//116
f 103//103 107//107 112//112
f 67//67 42//42 111//111
f 107//107 95//95 112//112
f 113//113 111//111 57//57
f 57//57 111//111 42//42
f 114//114 101//101 88//88
