# Blender 4.1.1
# www.blender.org
mtllib aa0255.mtl
o Liquid_Domain
v -8.433245 -9.090334 6.155094
v 8.469646 -9.088649 6.202811
v -8.391713 -9.088809 -6.207708
v 8.460574 -9.090016 -6.207643
v -8.411916 -4.705358 0.305115
v -8.403489 -2.869098 -1.869535
v -5.737690 -1.454351 6.213647
v -8.470539 -2.073834 5.866055
v -8.294622 -2.913084 2.352018
v -7.065001 -3.953069 1.917749
v -7.315730 -4.121143 -0.407104
v -6.863704 -3.902586 4.819263
v -5.223732 -3.437513 4.235469
v -6.981023 -4.178235 -2.788416
v -6.188110 -2.590170 1.931906
v -5.289182 -2.337768 0.788102
v -8.124068 -2.346875 0.222310
v -7.629705 -0.321562 0.556195
v -4.402064 -1.800770 3.061245
v -7.074879 -1.289304 -3.501601
v -8.331328 -0.876664 -4.019202
v -8.095011 -1.654041 -3.018255
v -8.452796 1.860881 -6.203719
v -1.395149 2.676739 -6.195742
v -6.796122 -0.376189 5.285557
v -8.364517 -0.694811 0.831644
v -5.177350 -0.619531 -2.004372
v -8.264884 -0.741961 -1.080170
v -7.516232 2.248500 4.914859
v -5.168654 1.041897 4.818988
v -7.635365 1.479207 3.171305
v 8.434053 6.794017 0.611172
v -6.189334 0.828817 -6.128860
v -5.932744 5.047345 6.120432
v -3.746863 1.161438 1.448761
v -3.440757 0.621678 -1.545834
v -8.207283 0.007288 -1.590719
v -6.457771 0.470902 -1.284084
v -4.839317 0.104027 -2.512851
v -8.123594 0.618679 2.265865
v -3.423781 2.347236 1.238419
v -4.957068 1.441782 -3.129689
v 8.400633 7.021406 6.195307
v -8.283248 2.615186 -0.709020
v -6.578300 1.988683 -1.791913
v 6.478343 1.201201 -3.818521
v -8.350047 2.681949 2.847719
v 2.071831 1.794072 -1.658393
v 3.641798 2.674424 -1.878945
v 2.614541 1.095734 -3.687256
v 6.233881 1.769353 -4.508667
v 6.261290 2.408581 -2.630081
v 3.506871 2.745221 -4.530570
v -8.293990 2.861673 3.669535
v -8.399494 3.170746 1.365409
v -7.937787 2.021879 0.710616
v 0.455234 1.895196 -2.336633
v 0.928492 2.688394 -5.291774
v -6.314457 1.869591 -5.329431
v -6.436871 3.057507 -5.588195
v -8.359132 6.265369 6.147202
v -7.706437 3.628746 2.492235
v -4.184199 2.354429 -0.992720
v 7.025882 2.968332 -2.047393
v -7.080442 3.023335 -4.154862
v -7.544937 3.736134 0.059365
v 0.537365 2.601949 0.271885
v 3.074832 2.555494 -0.581005
v 4.397270 3.747240 -0.156489
v -0.749975 3.413083 -5.735285
v -8.286884 3.446883 3.646241
v -0.145524 2.971472 -1.433532
v -8.435849 6.905742 0.433179
v -5.244289 3.526925 -2.948160
v -5.764603 4.570038 5.262109
v -6.834989 4.188335 4.795443
v -7.830142 5.079882 0.961440
v -5.384195 5.006238 1.579904
v -1.173000 4.288671 0.405315
v -3.756016 4.090763 -5.689134
v -8.429809 6.648266 -6.070808
v -3.232330 4.322569 2.335434
v -8.287446 4.958813 1.862364
v -2.441284 3.695090 -2.612996
v -6.238400 4.048741 -1.670066
v 7.698668 6.871953 -4.255298
v 3.738698 6.070312 -5.366228
v -5.649415 5.847318 -6.056750
v -3.152926 4.516324 4.529144
v 0.532497 5.406168 0.969060
v 6.819391 4.104478 -0.621369
v 4.182857 5.381157 0.647332
v -2.993527 5.244342 0.250631
v 8.389677 6.566205 -6.173142
v -3.676062 6.835047 5.301561
v -7.698547 6.597036 3.007339
v -5.171423 6.609634 -0.071490
v -5.371452 6.373883 -4.483416
v 2.300093 5.990290 -6.034245
v -3.449009 6.817535 6.153216
v -8.313550 6.975348 2.880330
v -4.364060 6.629395 2.357219
v 6.420181 5.061592 1.461832
v 6.857783 6.678991 0.065976
v -7.329297 6.429728 -4.596658
v 6.416170 7.128580 -5.600527
v -7.928197 7.059271 5.992357
v -1.300914 6.501735 4.453722
v 3.951860 6.074210 4.249560
v 5.322079 6.802173 3.436933
v 2.952977 6.884621 3.611796
v -7.369126 6.632697 0.610579
v -0.996909 7.081843 5.628525
v 3.986826 7.126138 5.604044
v 7.110106 7.028854 3.187252
v -2.656211 7.083458 2.455695
v 2.252012 6.942825 2.109821
v -6.050415 7.092378 0.384178
v -7.808255 7.032022 -5.795067
vn -0.5076 -0.5249 0.6832
vn 0.5031 -0.5236 0.6875
vn -0.5024 -0.5222 -0.6891
vn 0.5029 -0.5229 -0.6882
vn -0.9218 0.3616 0.1398
vn -0.5541 0.7931 0.2531
vn -0.0274 0.0058 0.9996
vn -0.9950 0.0026 0.0998
vn -0.6107 0.0661 -0.7891
vn -0.2487 0.9615 -0.1169
vn 0.0844 0.9455 0.3145
vn 0.2566 0.5933 -0.7630
vn -0.6791 0.5924 -0.4334
vn -0.0396 0.7390 0.6725
vn -0.6490 0.7469 0.1446
vn -0.7695 0.6379 0.0313
vn -0.0653 0.6849 0.7257
vn 0.8104 0.1109 -0.5752
vn -0.9137 0.4017 -0.0625
vn -0.3195 0.1122 0.9409
vn -0.9650 -0.0218 0.2614
vn -0.1283 0.7174 0.6848
vn -0.5326 0.0318 -0.8458
vn -0.0563 0.2025 -0.9777
vn 0.1392 0.0723 -0.9876
vn -0.7437 -0.4089 -0.5288
vn -0.5403 0.2900 0.7899
vn -0.0647 -0.1300 -0.9894
vn 0.5826 -0.0292 -0.8122
vn -0.5098 0.0921 -0.8554
vn 0.9726 0.2149 -0.0888
vn 0.6839 0.7285 -0.0395
vn 0.0386 0.1712 -0.9845
vn -0.0771 0.5476 0.8332
vn -0.9380 0.3381 0.0762
vn -0.9140 0.2678 0.3048
vn -0.5753 -0.5304 0.6226
vn 0.2981 -0.1410 0.9441
vn -0.0430 0.4915 0.8698
vn 0.3747 0.5539 -0.7435
vn -0.9970 0.0711 0.0303
vn -0.0180 -0.1790 0.9837
vn 0.5046 0.5220 0.6877
vn -0.6215 -0.4911 0.6104
vn 0.4043 -0.3131 0.8594
vn -0.7246 0.6867 0.0585
vn -0.7249 0.1623 0.6695
vn -0.1327 0.8506 -0.5087
vn -0.1779 0.8621 -0.4745
vn 0.1192 0.9344 0.3358
vn -0.4164 0.4581 0.7853
vn -0.3239 0.8217 -0.4689
vn -0.0610 0.3527 0.9337
vn -0.2875 0.5401 -0.7909
vn -0.9678 0.2402 -0.0756
vn 0.1109 -0.9540 -0.2786
vn 0.4249 0.8977 -0.1171
vn 0.0023 0.5909 0.8067
vn 0.4735 0.7095 -0.5220
vn 0.9172 -0.0567 -0.3943
vn -0.4057 0.2791 0.8704
vn 0.9917 -0.0917 -0.0897
vn -0.5302 -0.6662 0.5244
vn -0.7485 0.5789 -0.3236
vn 0.8754 0.4448 -0.1894
vn 0.5042 -0.5370 0.6763
vn 0.1046 0.6396 -0.7615
vn -0.1069 0.8412 -0.5300
vn -0.1067 0.5615 -0.8205
vn -0.1571 0.9876 -0.0072
vn -0.5956 -0.7718 -0.2227
vn 0.5266 0.8329 -0.1704
vn -0.6868 0.7161 0.1243
vn -0.1991 0.9222 -0.3316
vn -0.0748 0.4457 -0.8920
vn 0.6186 0.1413 -0.7729
vn 0.8978 -0.2875 0.3335
vn -0.4259 -0.3750 0.8234
vn 0.3687 0.4496 -0.8136
vn -0.2012 0.7097 -0.6751
vn -0.5286 0.4002 -0.7486
vn -0.8435 -0.1497 0.5159
vn -0.9257 -0.1716 -0.3371
vn 0.2674 0.9503 -0.1597
vn 0.6268 0.4993 -0.5982
vn -0.3324 0.9202 0.2069
vn -0.1859 0.4981 0.8470
vn 0.6056 0.2103 -0.7674
vn -0.5813 0.4580 -0.6725
vn 0.0832 0.3736 -0.9238
vn -0.7383 0.5141 -0.4366
vn 0.1493 0.6158 -0.7736
vn 0.0624 0.1252 -0.9902
vn 0.5250 0.4462 -0.7248
vn -0.2791 0.7412 -0.6106
vn 0.8523 0.5186 -0.0678
vn 0.4210 0.6878 -0.5914
vn 0.5832 0.3147 0.7489
vn -0.4403 0.7739 -0.4552
vn -0.2025 0.6025 0.7720
vn -0.4729 0.8811 0.0048
vn -0.4606 0.3813 0.8015
vn -0.2342 0.7700 -0.5935
vn -0.7413 0.6704 -0.0311
vn 0.8594 0.4240 0.2857
vn -0.2388 0.9701 0.0439
vn 0.1123 0.6852 0.7197
vn -0.9319 0.1779 0.3159
vn 0.0760 0.9877 -0.1367
vn -0.1195 0.9287 -0.3512
vn 0.1836 0.9806 -0.0686
vn 0.1292 0.5336 0.8358
vn -0.1389 0.9887 0.0556
vn -0.0111 0.9997 0.0236
vn -0.1224 0.9609 -0.2482
vn -0.1240 0.9851 0.1195
vn 0.2047 0.8907 -0.4060
vn 0.0386 0.9965 0.0738
vn -0.0095 0.8871 -0.4615
s 1
usemtl Liquid_Domain_Material
f 2//2 1//1 3//3
f 4//4 2//2 3//3
f 1//1 5//5 3//3
f 5//5 6//6 3//3
f 1//1 2//2 7//7
f 1//1 9//9 5//5
f 8//8 9//9 1//1
f 4//4 3//3 24//24
f 10//10 11//11 5//5
f 13//13 10//10 12//12
f 5//5 17//17 6//6
f 9//9 10//10 5//5
f 10//10 15//15 11//11
f 17//17 5//5 11//11
f 14//14 11//11 16//16
f 17//17 11//11 14//14
f 13//13 19//19 15//15
f 10//10 9//9 12//12
f 13//13 15//15 10//10
f 11//11 15//15 16//16
f 17//17 14//14 6//6
f 6//6 21//21 3//3
f 12//12 9//9 18//18
f 6//6 14//14 20//20
f 22//22 6//6 20//20
f 21//21 23//23 3//3
f 12//12 25//25 13//13
f 15//15 19//19 16//16
f 20//20 14//14 27//27
f 6//6 22//22 21//21
f 26//26 18//18 9//9
f 16//16 27//27 14//14
f 2//2 4//4 32//32
f 30//30 19//19 13//13
f 22//22 20//20 21//21
f 12//12 29//29 25//25
f 13//13 25//25 30//30
f 29//29 12//12 31//31
f 12//12 18//18 31//31
f 28//28 18//18 26//26
f 9//9 8//8 26//26
f 27//27 16//16 35//35
f 27//27 37//37 21//21
f 20//20 27//27 21//21
f 7//7 34//34 1//1
f 19//19 35//35 16//16
f 35//35 36//36 27//27
f 38//38 37//37 27//27
f 39//39 27//27 36//36
f 3//3 23//23 33//33
f 8//8 1//1 61//61
f 31//31 18//18 40//40
f 40//40 28//28 26//26
f 28//28 40//40 18//18
f 27//27 39//39 38//38
f 41//41 35//35 19//19
f 37//37 23//23 21//21
f 25//25 76//76 30//30
f 41//41 19//19 30//30
f 35//35 41//41 36//36
f 37//37 38//38 44//44
f 38//38 39//39 45//45
f 45//45 39//39 42//42
f 57//57 48//48 50//50
f 46//46 50//50 48//48
f 3//3 33//33 24//24
f 4//4 24//24 94//94
f 26//26 47//47 40//40
f 36//36 42//42 39//39
f 49//49 46//46 48//48
f 46//46 51//51 50//50
f 32//32 4//4 94//94
f 76//76 25//25 29//29
f 38//38 45//45 44//44
f 52//52 46//46 49//49
f 30//30 89//89 41//41
f 26//26 54//54 47//47
f 56//56 40//40 47//47
f 55//55 56//56 47//47
f 56//56 31//31 40//40
f 36//36 41//41 63//63
f 63//63 42//42 36//36
f 48//48 57//57 67//67
f 63//63 45//45 42//42
f 57//57 50//50 58//58
f 53//53 50//50 51//51
f 59//59 33//33 60//60
f 33//33 23//23 60//60
f 34//34 61//61 1//1
f 61//61 54//54 8//8
f 8//8 54//54 26//26
f 31//31 54//54 29//29
f 44//44 56//56 55//55
f 57//57 72//72 67//67
f 49//49 48//48 67//67
f 68//68 49//49 67//67
f 44//44 23//23 37//37
f 64//64 52//52 68//68
f 52//52 49//49 68//68
f 46//46 52//52 51//51
f 50//50 53//53 58//58
f 65//65 59//59 60//60
f 47//47 54//54 31//31
f 47//47 31//31 62//62
f 31//31 56//56 62//62
f 62//62 56//56 66//66
f 44//44 66//66 56//56
f 84//84 72//72 57//57
f 59//59 65//65 85//85
f 58//58 70//70 57//57
f 33//33 59//59 24//24
f 54//54 71//71 29//29
f 47//47 62//62 71//71
f 47//47 71//71 55//55
f 41//41 82//82 63//63
f 63//63 82//82 78//78
f 66//66 44//44 45//45
f 91//91 64//64 68//68
f 72//72 84//84 67//67
f 44//44 73//73 23//23
f 74//74 59//59 85//85
f 52//52 64//64 51//51
f 70//70 84//84 57//57
f 74//74 80//80 59//59
f 59//59 80//80 24//24
f 24//24 80//80 70//70
f 76//76 75//75 30//30
f 71//71 76//76 29//29
f 62//62 66//66 55//55
f 78//78 66//66 45//45
f 63//63 78//78 45//45
f 69//69 91//91 68//68
f 84//84 79//79 67//67
f 84//84 70//70 80//80
f 7//7 100//100 34//34
f 61//61 71//71 54//54
f 89//89 82//82 41//41
f 83//83 62//62 55//55
f 55//55 66//66 77//77
f 55//55 77//77 44//44
f 69//69 103//103 91//91
f 84//84 80//80 74//74
f 64//64 86//86 51//51
f 53//53 87//87 58//58
f 23//23 88//88 60//60
f 7//7 2//2 43//43
f 71//71 62//62 76//76
f 67//67 79//79 90//90
f 68//68 67//67 90//90
f 69//69 68//68 92//92
f 93//93 79//79 84//84
f 74//74 85//85 93//93
f 84//84 74//74 93//93
f 73//73 81//81 23//23
f 106//106 51//51 86//86
f 87//87 70//70 58//58
f 30//30 75//75 89//89
f 76//76 62//62 96//96
f 62//62 83//83 77//77
f 68//68 90//90 92//92
f 103//103 69//69 92//92
f 51//51 87//87 53//53
f 70//70 99//99 24//24
f 34//34 75//75 61//61
f 75//75 76//76 61//61
f 2//2 32//32 43//43
f 75//75 95//95 89//89
f 89//89 108//108 82//82
f 71//71 61//61 55//55
f 91//91 86//86 64//64
f 60//60 105//105 65//65
f 51//51 106//106 87//87
f 94//94 24//24 99//99
f 43//43 100//100 7//7
f 75//75 34//34 95//95
f 113//113 108//108 89//89
f 61//61 101//101 55//55
f 55//55 101//101 83//83
f 96//96 62//62 77//77
f 112//112 66//66 78//78
f 77//77 83//83 44//44
f 66//66 112//112 77//77
f 92//92 90//90 117//117
f 83//83 73//73 44//44
f 97//97 85//85 65//65
f 104//104 86//86 91//91
f 60//60 98//98 105//105
f 87//87 99//99 70//70
f 107//107 61//61 76//76
f 82//82 108//108 102//102
f 82//82 102//102 78//78
f 78//78 102//102 112//112
f 103//103 115//115 91//91
f 115//115 104//104 91//91
f 111//111 92//92 117//117
f 93//93 97//97 79//79
f 85//85 97//97 93//93
f 97//97 65//65 105//105
f 98//98 60//60 88//88
f 23//23 81//81 88//88
f 76//76 96//96 107//107
f 61//61 107//107 101//101
f 110//110 111//111 109//109
f 110//110 92//92 111//111
f 103//103 92//92 110//110
f 83//83 101//101 73//73
f 97//97 90//90 79//79
f 98//98 119//119 105//105
f 88//88 119//119 98//98
f 88//88 81//81 119//119
f 100//100 95//95 34//34
f 89//89 95//95 113//113
f 111//111 114//114 109//109
f 109//109 114//114 110//110
f 101//101 107//107 96//96
f 115//115 103//103 110//110
f 112//112 96//96 77//77
f 97//97 117//117 90//90
f 106//106 99//99 87//87
f 94//94 99//99 106//106
f 113//113 100//100 114//114
f 114//114 100//100 43//43
f 113//113 95//95 100//100
f 114//114 111//111 113//113
f 113//113 116//116 108//108
f 115//115 110//110 114//114
f 43//43 115//115 114//114
f 111//111 117//117 113//113
f 102//102 108//108 116//116
f 113//113 117//117 116//116
f 112//112 101//101 96//96
f 116//116 118//118 102//102
f 32//32 104//104 115//115
f 43//43 32//32 115//115
f 101//101 112//112 73//73
f 112//112 102//102 118//118
f 97//97 118//118 116//116
f 117//117 97//97 116//116
f 118//118 73//73 112//112
f 32//32 86//86 104//104
f 118//118 119//119 73//73
f 32//32 94//94 86//86
f 73//73 119//119 81//81
f 97//97 105//105 118//118
f 118//118 105//105 119//119
f 86//86 94//94 106//106
