# Blender 4.1.1
# www.blender.org
mtllib aa0259.mtl
o Liquid_Domain
v -8.144759 -9.099156 6.197045
v -8.493177 -8.740595 5.855730
v 8.134167 -8.755833 6.217273
v 8.483256 -9.103018 5.866310
v 8.474631 -9.099916 -5.872582
v -8.471699 -9.102127 -5.873932
v -8.134167 -8.755833 -6.217273
v 8.134167 -8.755833 -6.217273
v -8.429251 -3.699315 0.866062
v -8.436846 -3.446886 -2.210775
v -7.989077 -4.301093 -0.203446
v -8.105457 -2.101165 6.212464
v -7.114953 -3.790908 4.261559
v -6.645852 -4.148481 3.604907
v -7.132928 -3.404624 0.155983
v -7.009907 -3.784223 -1.514654
v -6.726760 -2.581813 2.178672
v 8.437648 6.710627 -2.452745
v -7.596000 -0.849475 4.340587
v -5.394300 -1.958335 3.717234
v -5.840181 -3.133455 -0.453661
v -8.346471 -2.612025 -0.491880
v -6.748811 -1.046244 4.712655
v -5.454181 -1.564874 1.755661
v -7.380191 -2.441236 -0.252476
v -5.217236 -0.853819 -0.757330
v -7.719783 2.202273 3.530164
v -7.302608 -0.979599 -0.718120
v -5.971295 -0.775819 3.952322
v -4.643888 -0.120029 3.761121
v -8.371480 2.558344 3.491173
v -7.633874 1.331988 0.706042
v -8.436526 6.548493 -6.131250
v -3.920466 0.294600 -1.403419
v -7.108062 0.743443 -1.701224
v -6.859068 -0.052461 -1.993985
v 5.107481 2.761296 -6.180010
v -5.941442 1.274905 4.800667
v -7.333604 2.422834 4.470561
v -8.469492 1.845590 0.258787
v -5.628883 0.833065 -2.352275
v 4.101386 -0.117913 -3.748722
v 5.895658 0.618615 -4.261773
v -5.420716 6.707761 6.182707
v -3.953965 1.581101 2.360078
v 2.407730 0.113305 -2.260954
v 4.220389 1.185006 -1.999608
v 6.209636 0.454400 -3.651315
v 7.979846 6.672639 6.196148
v 2.736130 1.208857 0.087689
v 4.834806 1.676239 -0.991480
v 6.794203 1.663737 -1.958273
v -5.953107 1.866833 -6.191066
v -5.602537 2.525132 0.169491
v 8.466220 7.033582 5.853955
v 7.017714 3.123810 -4.868641
v 1.758401 2.556172 -4.482598
v 5.076011 3.162127 -4.906994
v 1.161719 2.252273 0.472950
v 0.241917 1.634774 -1.597716
v 6.914222 4.090522 -0.043771
v 0.325580 1.562861 -3.159035
v 3.580065 3.754096 -5.312327
v 8.333319 6.892088 -6.110125
v -1.421330 2.546194 -6.146468
v -8.416066 6.746788 6.148127
v -3.869862 4.247951 3.913306
v -8.171074 2.175455 1.371400
v 3.799791 2.806967 -0.030176
v -0.863652 3.192105 -5.650901
v -4.601771 5.278105 4.916727
v -8.359296 3.698279 3.061543
v -0.136388 2.588362 1.484562
v -2.671542 3.017465 -0.740015
v -2.417024 2.881520 -1.703076
v -5.732225 3.101321 -4.243610
v -1.991561 3.169900 -5.375041
v -5.521822 3.215129 -5.687196
v 0.802297 4.431812 1.381823
v -7.136114 2.419010 -4.155654
v -4.510675 2.830810 -5.556652
v 2.447379 5.018231 -5.450258
v -7.082025 4.722622 3.125040
v 4.309340 4.426793 0.670088
v 6.327414 4.071629 0.580470
v -7.149483 3.318577 -1.304983
v -6.980330 5.337668 -4.988642
v 0.449236 5.156260 -5.804325
v -7.294412 6.138424 5.130176
v -4.870733 3.731202 -1.268019
v -7.117443 6.747890 -1.737749
v -5.158896 5.380519 -4.390408
v -4.643914 4.479206 -4.914682
v -5.385888 5.135779 -6.069050
v -5.394950 4.656110 3.176431
v -6.520399 4.334991 0.095659
v 3.896311 6.353206 -6.073997
v -1.391670 4.180292 1.910666
v -6.237957 5.261206 1.359232
v -3.525561 5.010937 1.081235
v 6.967232 5.577519 -1.952403
v 7.537297 6.808429 -4.056724
v 6.634893 6.518690 -5.417439
v -7.192886 6.522429 3.525763
v -0.489993 6.600769 2.607812
v -5.720256 6.609120 2.185791
v -5.448331 6.611814 4.510921
v 3.740202 5.488334 2.162997
v -7.135085 6.901314 5.866655
v 4.406328 6.003835 4.356838
v -8.124840 6.904104 3.834001
v 6.267110 6.321880 3.209160
v 5.091373 7.080362 5.551489
v 2.675438 7.031957 3.514455
v -4.660819 7.089151 3.483495
v 6.973422 6.877983 3.104092
v -6.888763 7.017028 1.909920
v 8.023323 7.055649 0.735615
v -7.947721 6.977723 -5.755360
vn -0.3543 -0.5607 0.7483
vn -0.9024 -0.2860 0.3224
vn 0.2851 -0.2800 0.9167
vn 0.6252 -0.6493 0.4331
vn 0.6218 -0.6507 -0.4358
vn -0.6210 -0.6524 -0.4345
vn -0.2789 -0.2844 -0.9172
vn 0.2804 -0.2848 -0.9167
vn -0.9791 0.0387 -0.1998
vn -0.9775 -0.0160 0.2101
vn 0.1110 0.9786 -0.1731
vn -0.2676 -0.0053 0.9635
vn 0.2898 0.6193 -0.7297
vn -0.0757 0.9872 0.1403
vn -0.1214 0.6251 -0.7710
vn -0.5803 0.3060 0.7547
vn -0.6418 0.7524 0.1482
vn 0.7774 0.6273 -0.0457
vn 0.8736 0.1019 -0.4759
vn -0.7994 0.4086 -0.4404
vn -0.6258 0.5279 0.5742
vn -0.7815 -0.6185 -0.0824
vn -0.0864 0.1034 -0.9909
vn -0.8330 0.5524 -0.0298
vn 0.7749 -0.4468 0.4470
vn -0.5378 0.6608 0.5236
vn 0.8851 0.1937 -0.4232
vn 0.6490 0.3451 0.6781
vn -0.2261 0.2155 -0.9500
vn -0.8193 0.1790 -0.5446
vn -0.7952 0.1745 -0.5807
vn 0.8965 -0.2125 0.3887
vn -0.4873 0.3993 -0.7766
vn -0.8039 0.1251 0.5815
vn 0.6919 -0.3978 0.6026
vn 0.3630 0.3754 0.8528
vn 0.0011 0.0136 -0.9999
vn -0.2267 0.1103 -0.9677
vn 0.6551 0.0668 -0.7526
vn -0.9995 -0.0091 0.0303
vn -0.1264 -0.1871 0.9742
vn 0.0192 0.9144 0.4043
vn -0.2640 0.5467 0.7946
vn -0.0020 0.4397 0.8981
vn -0.9991 0.0411 0.0066
vn 0.1388 0.9730 -0.1843
vn -0.2902 0.8546 -0.4306
vn -0.6024 0.7981 -0.0115
vn 0.2050 0.3047 0.9301
vn -0.1033 0.5963 -0.7961
vn -0.3217 0.7239 -0.6103
vn -0.7153 0.5829 -0.3855
vn 0.0602 0.0807 -0.9949
vn -0.1296 -0.8317 0.5398
vn 0.6039 0.6378 0.4781
vn -0.6019 0.2404 0.7616
vn 0.0793 0.5180 0.8517
vn -0.0653 0.2604 0.9633
vn -0.0949 0.6473 -0.7563
vn 0.4269 0.8840 -0.1908
vn -0.8269 0.4347 -0.3567
vn 0.3962 0.8557 0.3328
vn 0.0201 0.2565 0.9663
vn 0.4516 0.5825 -0.6758
vn -0.1094 0.3058 -0.9458
vn -0.5253 0.4853 0.6990
vn -0.9738 -0.2184 -0.0626
vn -0.0225 0.3905 0.9203
vn -0.2520 0.3790 -0.8904
vn -0.4364 0.8192 0.3722
vn -0.5588 -0.2161 -0.8007
vn -0.7019 -0.6970 -0.1469
vn -0.0243 0.5798 -0.8144
vn 0.4133 0.8540 -0.3159
vn 0.3500 0.9362 -0.0312
vn 0.0475 0.8680 0.4943
vn 0.0027 0.9802 -0.1979
vn 0.8281 0.1330 -0.5447
vn -0.2062 0.3936 -0.8958
vn 0.4058 0.7989 0.4440
vn 0.0629 0.8481 -0.5261
vn -0.0604 0.3826 0.9220
vn 0.3307 -0.4967 0.8025
vn -0.0402 0.6033 -0.7965
vn -0.3050 0.7432 -0.5954
vn 0.5926 0.7131 -0.3745
vn 0.6381 0.6063 0.4747
vn -0.5427 0.8378 -0.0601
vn 0.5044 0.3363 -0.7953
vn 0.0845 0.9301 -0.3575
vn 0.8961 0.4289 -0.1146
vn 0.3145 0.5889 0.7445
vn 0.9932 -0.0292 0.1125
vn 0.5148 0.4074 -0.7543
vn -0.2284 -0.6463 0.7281
vn -0.0181 0.8290 -0.5590
vn -0.2698 0.8331 -0.4829
vn 0.1442 0.4638 -0.8741
vn 0.4500 0.5940 -0.6668
vn 0.3039 0.7932 -0.5277
vn -0.9833 0.1695 -0.0659
vn -0.5662 0.8193 0.0902
vn -0.3628 0.7350 0.5729
vn 0.2891 0.7211 0.6296
vn 0.0044 0.6566 -0.7542
vn 0.2474 0.6430 -0.7248
vn -0.8400 -0.3250 -0.4344
vn 0.0304 0.8010 -0.5979
vn -0.0131 0.9952 0.0973
vn 0.1593 0.8081 -0.5672
vn -0.0756 0.9940 0.0796
vn -0.4225 0.7645 -0.4869
vn -0.0117 0.9933 0.1154
vn 0.2304 0.8844 -0.4059
vn -0.0576 0.9940 -0.0927
vn -0.4032 0.8853 -0.2316
vn 0.2718 0.9385 -0.2130
vn 0.1236 0.9918 -0.0320
vn 0.0781 0.9370 -0.3404
s 1
usemtl Liquid_Domain_Material
f 1//1 4//4 3//3
f 5//5 4//4 1//1
f 6//6 1//1 2//2
f 5//5 1//1 6//6
f 8//8 6//6 7//7
f 5//5 6//6 8//8
f 3//3 12//12 1//1
f 2//2 9//9 6//6
f 9//9 10//10 6//6
f 11//11 10//10 9//9
f 11//11 9//9 15//15
f 16//16 11//11 15//15
f 11//11 16//16 10//10
f 17//17 13//13 14//14
f 14//14 20//20 17//17
f 16//16 15//15 21//21
f 16//16 25//25 10//10
f 1//1 12//12 2//2
f 20//20 14//14 13//13
f 15//15 17//17 21//21
f 9//9 22//22 15//15
f 25//25 16//16 21//21
f 22//22 10//10 25//25
f 4//4 5//5 18//18
f 13//13 19//19 23//23
f 23//23 20//20 13//13
f 25//25 13//13 17//17
f 15//15 25//25 17//17
f 21//21 17//17 24//24
f 25//25 15//15 22//22
f 21//21 26//26 25//25
f 55//55 3//3 4//4
f 13//13 25//25 27//27
f 20//20 24//24 17//17
f 24//24 26//26 21//21
f 10//10 40//40 6//6
f 29//29 20//20 23//23
f 45//45 26//26 24//24
f 25//25 26//26 28//28
f 22//22 40//40 10//10
f 19//19 13//13 27//27
f 25//25 28//28 32//32
f 2//2 31//31 9//9
f 29//29 38//38 20//20
f 30//30 20//20 38//38
f 20//20 30//30 24//24
f 27//27 25//25 32//32
f 40//40 33//33 6//6
f 31//31 22//22 9//9
f 45//45 34//34 26//26
f 32//32 28//28 35//35
f 36//36 26//26 34//34
f 36//36 28//28 26//26
f 7//7 65//65 37//37
f 8//8 7//7 37//37
f 19//19 39//39 23//23
f 29//29 23//23 38//38
f 24//24 30//30 45//45
f 28//28 36//36 35//35
f 34//34 41//41 36//36
f 7//7 53//53 65//65
f 39//39 19//19 27//27
f 31//31 40//40 22//22
f 36//36 41//41 35//35
f 48//48 43//43 42//42
f 3//3 44//44 12//12
f 30//30 38//38 45//45
f 50//50 47//47 46//46
f 47//47 42//42 46//46
f 47//47 48//48 42//42
f 62//62 60//60 46//46
f 62//62 46//46 42//42
f 31//31 68//68 40//40
f 50//50 46//46 60//60
f 34//34 54//54 41//41
f 51//51 47//47 50//50
f 52//52 48//48 47//47
f 42//42 57//57 62//62
f 27//27 32//32 68//68
f 54//54 34//34 45//45
f 32//32 35//35 54//54
f 4//4 18//18 55//55
f 54//54 35//35 41//41
f 52//52 47//47 51//51
f 52//52 56//56 48//48
f 43//43 58//58 42//42
f 23//23 39//39 38//38
f 27//27 68//68 31//31
f 50//50 60//60 59//59
f 50//50 69//69 51//51
f 61//61 52//52 51//51
f 60//60 62//62 74//74
f 57//57 70//70 62//62
f 43//43 48//48 56//56
f 42//42 63//63 57//57
f 42//42 58//58 63//63
f 18//18 5//5 64//64
f 65//65 53//53 81//81
f 65//65 81//81 77//77
f 37//37 65//65 97//97
f 2//2 12//12 66//66
f 12//12 44//44 66//66
f 2//2 66//66 31//31
f 45//45 38//38 67//67
f 45//45 67//67 54//54
f 50//50 59//59 69//69
f 59//59 60//60 73//73
f 73//73 60//60 74//74
f 74//74 62//62 75//75
f 56//56 58//58 43//43
f 78//78 81//81 53//53
f 64//64 5//5 8//8
f 54//54 68//68 32//32
f 73//73 79//79 59//59
f 59//59 79//79 69//69
f 85//85 61//61 69//69
f 61//61 51//51 69//69
f 62//62 77//77 75//75
f 81//81 78//78 76//76
f 62//62 70//70 77//77
f 38//38 71//71 67//67
f 68//68 72//72 40//40
f 67//67 95//95 54//54
f 72//72 66//66 40//40
f 73//73 74//74 98//98
f 76//76 80//80 86//86
f 75//75 81//81 90//90
f 90//90 76//76 86//86
f 81//81 76//76 90//90
f 75//75 77//77 81//81
f 63//63 82//82 57//57
f 70//70 65//65 77//77
f 7//7 6//6 33//33
f 7//7 33//33 53//53
f 8//8 37//37 64//64
f 83//83 27//27 31//31
f 72//72 83//83 31//31
f 68//68 83//83 72//72
f 68//68 95//95 83//83
f 54//54 95//95 68//68
f 73//73 98//98 79//79
f 69//69 84//84 85//85
f 75//75 90//90 74//74
f 57//57 88//88 70//70
f 53//53 33//33 94//94
f 78//78 53//53 94//94
f 38//38 39//39 89//89
f 69//69 79//79 84//84
f 98//98 74//74 100//100
f 74//74 90//90 100//100
f 90//90 86//86 96//96
f 61//61 101//101 52//52
f 52//52 101//101 56//56
f 86//86 80//80 91//91
f 80//80 76//76 87//87
f 76//76 93//93 92//92
f 78//78 93//93 76//76
f 65//65 70//70 88//88
f 66//66 72//72 31//31
f 38//38 89//89 71//71
f 96//96 100//100 90//90
f 96//96 86//86 99//99
f 76//76 92//92 87//87
f 57//57 82//82 88//88
f 56//56 103//103 58//58
f 78//78 94//94 93//93
f 65//65 88//88 97//97
f 3//3 49//49 44//44
f 39//39 27//27 89//89
f 79//79 98//98 105//105
f 100//100 96//96 99//99
f 91//91 80//80 87//87
f 101//101 102//102 56//56
f 63//63 103//103 82//82
f 58//58 103//103 63//63
f 104//104 27//27 83//83
f 79//79 108//108 84//84
f 94//94 92//92 93//93
f 37//37 97//97 64//64
f 49//49 3//3 55//55
f 89//89 27//27 104//104
f 71//71 107//107 67//67
f 95//95 67//67 107//107
f 107//107 83//83 95//95
f 99//99 106//106 100//100
f 98//98 100//100 106//106
f 79//79 105//105 108//108
f 112//112 84//84 108//108
f 85//85 84//84 112//112
f 112//112 116//116 85//85
f 85//85 116//116 61//61
f 99//99 86//86 91//91
f 87//87 92//92 94//94
f 88//88 82//82 97//97
f 107//107 89//89 109//109
f 104//104 83//83 107//107
f 103//103 56//56 102//102
f 119//119 87//87 94//94
f 94//94 33//33 119//119
f 66//66 44//44 109//109
f 71//71 89//89 107//107
f 110//110 108//108 114//114
f 112//112 108//108 110//110
f 116//116 101//101 61//61
f 113//113 110//110 114//114
f 89//89 104//104 111//111
f 110//110 113//113 112//112
f 98//98 106//106 105//105
f 114//114 108//108 105//105
f 117//117 106//106 99//99
f 116//116 102//102 101//101
f 66//66 33//33 40//40
f 99//99 91//91 117//117
f 55//55 18//18 118//118
f 91//91 87//87 119//119
f 103//103 97//97 82//82
f 44//44 49//49 109//109
f 109//109 49//49 113//113
f 113//113 49//49 55//55
f 113//113 114//114 109//109
f 109//109 111//111 66//66
f 109//109 89//89 111//111
f 114//114 115//115 109//109
f 115//115 107//107 109//109
f 104//104 107//107 115//115
f 116//116 112//112 113//113
f 115//115 117//117 104//104
f 55//55 116//116 113//113
f 104//104 117//117 111//111
f 106//106 117//117 115//115
f 105//105 106//106 115//115
f 114//114 105//105 115//115
f 118//118 116//116 55//55
f 102//102 116//116 118//118
f 111//111 119//119 33//33
f 66//66 111//111 33//33
f 117//117 119//119 111//111
f 18//18 102//102 118//118
f 91//91 119//119 117//117
f 18//18 64//64 102//102
f 64//64 103//103 102//102
f 97//97 103//103 64//64
