# Blender 4.1.1
# www.blender.org
mtllib aa0250.mtl
o Liquid_Domain
v -8.418402 -9.091856 6.174767
v 8.476707 -9.088192 6.208493
v -8.426353 -9.091174 -6.136216
v 8.399251 -9.089640 -6.211198
v -8.385127 -3.297261 3.240944
v -8.439502 -4.577978 -1.323091
v -8.480061 -0.343977 5.868235
v -5.333057 -1.340866 6.200334
v -8.395564 -0.354959 -6.194387
v -7.456293 -4.009670 0.618440
v -6.120842 -3.153671 4.850936
v -5.219677 -3.959669 4.174582
v -8.300010 -2.585515 -2.897389
v -7.097428 -3.007473 -2.870666
v -4.309716 -2.043101 2.517235
v -7.948601 -2.749738 -0.402256
v -8.341058 -2.409561 1.488655
v -5.293147 -2.739629 0.018765
v -8.312787 6.760121 6.167026
v -4.151281 -0.597593 5.028291
v -8.131103 -1.775195 3.874504
v -8.320086 -1.633150 -1.384779
v -6.323552 -1.004637 -3.652435
v -7.815211 -1.838630 1.100195
v -8.259073 -1.161722 0.821059
v -8.228760 0.075481 2.690588
v -7.747845 0.443380 2.804319
v -8.094586 0.057080 -1.827178
v -4.653085 -0.498845 -2.511384
v -6.291958 0.104187 5.190961
v -2.906418 3.116211 3.737412
v -4.560201 0.921502 3.079263
v -8.033694 0.000289 -1.143688
v -8.206800 0.128164 -1.889691
v -8.146358 0.464753 -1.773625
v -2.692101 0.302121 -4.386510
v -8.111508 0.979568 1.681144
v -7.879588 -0.421726 -5.137925
v -7.375228 3.013855 5.223114
v -3.769831 0.515351 -0.136199
v -8.262697 1.063686 -3.427885
v -7.884926 0.839086 -3.671253
v -5.855227 3.130599 -6.141512
v -3.034641 3.149848 4.706703
v -2.738539 2.126390 -1.471280
v -8.147691 1.442364 -3.718763
v -8.296013 2.417906 -4.490259
v -8.444807 6.951572 -6.095187
v -8.196279 2.208773 4.342152
v 8.422313 6.606633 0.792910
v -7.178716 1.912001 -5.078495
v -4.276648 2.188014 -3.797415
v -4.594992 1.065444 -4.346513
v 4.489288 1.585315 -3.942160
v -3.286622 3.479842 -6.084200
v -5.428165 5.199160 6.131670
v -8.085805 2.117188 -1.203672
v 1.736600 2.760325 -1.954639
v -8.018520 2.387661 -3.087315
v 5.458410 6.852620 -6.109192
v -3.107591 4.169996 5.891553
v -6.747962 2.682742 -1.767208
v 6.218791 2.856979 -2.952575
v 1.353705 2.045958 -3.569332
v -7.851297 3.588389 2.745153
v -1.915334 4.313036 1.343971
v -7.067916 3.492822 -0.818652
v -8.396650 4.338480 1.989616
v -7.692224 4.612531 -1.383639
v 2.967575 4.065252 -2.650218
v 6.547091 4.774711 -2.690952
v 6.676457 2.326765 -3.824725
v 3.818532 3.830803 -5.305130
v -1.115128 4.557419 4.919879
v -5.168074 4.234962 4.719433
v -7.884352 3.668866 -0.601830
v -3.011554 4.614608 0.442326
v -5.795418 3.591708 -2.605298
v 0.650708 4.692835 -6.066589
v -0.618088 6.633090 6.177904
v -7.471687 6.727878 1.164592
v -8.216640 5.178741 -1.427108
v -8.328574 4.592607 -2.082304
v 3.001290 4.036749 -1.102182
v -6.345464 6.363950 -2.008848
v -1.620475 4.705830 -4.821096
v -1.334780 5.446127 -5.751596
v -7.541007 5.831981 4.594395
v 8.429811 6.941545 6.108008
v -8.004087 5.542505 -0.141613
v -5.036259 5.421755 -0.680434
v -3.833853 4.452618 -3.603951
v -0.519459 3.939560 -3.778483
v -6.611086 5.174985 -5.732484
v 0.460652 6.193047 4.700959
v 4.861690 4.790281 -0.054983
v 6.863198 3.910007 -1.280669
v -0.338217 4.548656 -1.145836
v -6.218123 6.512305 -4.058551
v -5.831151 6.903689 -5.942132
v 4.005985 6.527533 -5.712697
v -1.402891 6.956597 5.577128
v 0.139805 6.686935 3.473660
v 7.279952 6.897414 0.696992
v -1.269267 6.693450 -1.200413
v 6.960117 6.780591 -4.753452
v -8.117262 6.895312 5.604597
v 2.976744 5.468036 4.210705
v 6.482741 6.850358 3.752944
v -8.083869 6.947955 -2.153531
v -3.453857 6.227427 5.865980
v -3.084704 6.884526 0.426195
v -3.034760 6.785672 5.940333
v -3.706778 6.881043 5.594923
v 4.054562 6.676867 0.631470
v 3.783766 7.122588 5.258180
v 1.249368 6.603124 -0.034139
v 1.825907 7.107635 1.682499
v -4.733025 6.994636 -2.904718
v 8.433611 6.947156 -6.180372
vn -0.5037 -0.5253 0.6858
vn 0.5037 -0.5224 0.6880
vn -0.5052 -0.5270 -0.6834
vn 0.4991 -0.5222 -0.6915
vn -0.6599 0.6604 -0.3584
vn -0.9200 0.3872 0.0600
vn -0.9900 0.0057 0.1407
vn -0.0031 0.0055 1.0000
vn -0.6443 0.0103 -0.7647
vn 0.3390 0.9392 -0.0549
vn 0.1343 0.4147 -0.9000
vn -0.4011 0.8197 -0.4089
vn -0.5146 0.5234 0.6792
vn -0.2794 0.5963 0.7525
vn -0.9206 0.3812 0.0852
vn 0.2012 0.0336 -0.9790
vn -0.9116 0.3013 0.2796
vn -0.7068 0.6867 0.1697
vn -0.3946 0.5837 0.7097
vn -0.6125 0.1643 -0.7733
vn -0.2397 0.1101 -0.9646
vn -0.2526 -0.3575 -0.8991
vn -0.5466 0.4937 0.6764
vn 0.9750 0.1360 0.1758
vn -0.4947 0.8533 -0.1650
vn -0.7902 -0.6101 0.0583
vn 0.9368 -0.1537 -0.3144
vn 0.8072 -0.2306 -0.5434
vn -0.6369 0.7491 0.1823
vn 0.2865 0.0272 -0.9577
vn -0.8846 0.4611 -0.0701
vn -0.9461 0.3212 0.0419
vn 0.1282 0.9027 0.4108
vn -0.8288 -0.4395 -0.3464
vn 0.5595 -0.1683 0.8116
vn -0.7090 0.1539 0.6882
vn -0.0623 0.5993 -0.7981
vn -0.5658 -0.5381 0.6248
vn 0.4040 -0.0306 -0.9142
vn -0.8960 0.4440 -0.0074
vn -0.9585 -0.2511 -0.1349
vn 0.7008 -0.5319 0.4753
vn 0.1373 0.2144 -0.9671
vn -0.4743 0.5541 -0.6841
vn -0.9673 0.0359 0.2509
vn -0.3311 0.8561 -0.3968
vn -0.9270 -0.2329 0.2939
vn -0.4973 0.5337 -0.6840
vn 0.3536 0.1128 -0.9286
vn 0.7819 0.6228 -0.0278
vn 0.0870 -0.4812 0.8723
vn -0.3651 -0.4437 0.8184
vn -0.2225 -0.4796 0.8488
vn -0.1249 0.9594 0.2528
vn -0.1396 0.4347 -0.8897
vn 0.3878 0.5942 0.7047
vn 0.0191 0.1965 0.9803
vn 0.0819 0.7268 -0.6819
vn 0.2865 -0.7712 0.5684
vn -0.1185 0.6849 -0.7190
vn -0.2627 0.7375 0.6221
vn 0.3414 -0.5957 -0.7271
vn -0.3886 0.4203 -0.8200
vn 0.3852 0.9162 0.1103
vn 0.5713 -0.6636 -0.4829
vn -0.8822 0.2181 0.4173
vn 0.6898 -0.2695 0.6719
vn -0.9836 -0.1493 -0.1013
vn 0.9325 -0.1162 -0.3420
vn -0.4267 0.4402 -0.7900
vn -0.8718 0.4411 -0.2130
vn -0.7128 0.6705 0.2060
vn -0.1711 0.3704 0.9130
vn -0.6217 0.5892 -0.5161
vn 0.1483 0.3131 -0.9381
vn -0.4661 -0.7550 0.4612
vn -0.6137 -0.2933 0.7330
vn -0.1543 -0.5361 0.8299
vn 0.1065 0.7626 -0.6380
vn -0.1236 0.4485 0.8852
vn 0.2319 0.9052 -0.3562
vn -0.6449 0.4206 0.6381
vn -0.7413 -0.4199 0.5237
vn -0.0432 0.7853 -0.6175
vn -0.1311 0.4183 0.8988
vn -0.0131 0.9408 0.3388
vn -0.1198 0.9490 -0.2917
vn 0.8571 0.3592 -0.3691
vn 0.5106 0.5301 0.6769
vn -0.0514 0.9248 -0.3770
vn -0.6370 -0.1275 0.7602
vn 0.3263 0.7475 -0.5785
vn 0.5072 0.8461 -0.1638
vn 0.9179 0.0710 0.3905
vn -0.2585 0.8217 -0.5079
vn 0.2212 0.7078 -0.6709
vn -0.5939 0.8014 0.0707
vn 0.3564 0.5158 -0.7791
vn 0.5827 0.7624 -0.2815
vn 0.6740 0.4730 -0.5675
vn -0.4702 0.7988 0.3752
vn -0.5707 0.8056 -0.1591
vn -0.3352 0.8141 0.4742
vn -0.4574 0.8810 -0.1213
vn 0.3317 0.6745 -0.6596
vn -0.3718 0.8562 0.3586
vn -0.1875 0.9724 -0.1386
vn -0.2627 0.9326 -0.2474
vn -0.0091 0.9921 -0.1255
vn -0.4693 0.6973 0.5418
vn -0.0887 -0.9487 0.3035
vn -0.4472 0.6902 0.5689
vn -0.0923 -0.9631 0.2527
vn -0.0817 -0.9511 0.2979
vn 0.3361 0.7855 -0.5197
vn -0.1326 0.9890 -0.0657
vn 0.1978 0.7078 -0.6781
vn 0.1507 0.9808 0.1239
vn 0.2481 0.8616 -0.4429
vn 0.4868 0.5503 -0.6784
s 1
usemtl Liquid_Domain_Material
f 2//2 1//1 3//3
f 4//4 2//2 3//3
f 5//5 6//6 1//1
f 1//1 6//6 3//3
f 3//3 9//9 4//4
f 1//1 2//2 8//8
f 6//6 9//9 3//3
f 5//5 17//17 6//6
f 5//5 12//12 10//10
f 11//11 12//12 5//5
f 13//13 6//6 14//14
f 6//6 13//13 9//9
f 2//2 4//4 120//120
f 1//1 7//7 5//5
f 12//12 15//15 10//10
f 16//16 24//24 10//10
f 17//17 16//16 6//6
f 16//16 10//10 6//6
f 6//6 10//10 18//18
f 11//11 5//5 21//21
f 24//24 5//5 10//10
f 15//15 18//18 10//10
f 14//14 6//6 18//18
f 24//24 17//17 5//5
f 1//1 19//19 7//7
f 8//8 19//19 1//1
f 12//12 11//11 20//20
f 7//7 21//21 5//5
f 12//12 20//20 15//15
f 18//18 23//23 14//14
f 17//17 22//22 16//16
f 14//14 23//23 13//13
f 26//26 17//17 24//24
f 26//26 25//25 17//17
f 17//17 25//25 22//22
f 15//15 40//40 18//18
f 18//18 40//40 29//29
f 16//16 22//22 28//28
f 18//18 29//29 23//23
f 9//9 13//13 23//23
f 20//20 11//11 30//30
f 30//30 11//11 21//21
f 21//21 27//27 30//30
f 27//27 21//21 26//26
f 20//20 32//32 15//15
f 25//25 24//24 33//33
f 25//25 33//33 22//22
f 33//33 24//24 16//16
f 16//16 28//28 33//33
f 23//23 38//38 9//9
f 31//31 32//32 20//20
f 34//34 28//28 22//22
f 29//29 38//38 23//23
f 33//33 35//35 22//22
f 22//22 35//35 34//34
f 36//36 38//38 29//29
f 7//7 26//26 21//21
f 26//26 24//24 27//27
f 26//26 37//37 25//25
f 24//24 25//25 37//37
f 35//35 33//33 28//28
f 39//39 30//30 27//27
f 27//27 24//24 37//37
f 32//32 40//40 15//15
f 41//41 28//28 34//34
f 41//41 42//42 28//28
f 51//51 38//38 53//53
f 36//36 53//53 38//38
f 20//20 30//30 44//44
f 29//29 40//40 45//45
f 35//35 57//57 34//34
f 42//42 35//35 28//28
f 45//45 36//36 29//29
f 42//42 41//41 38//38
f 53//53 36//36 45//45
f 38//38 46//46 9//9
f 46//46 47//47 9//9
f 47//47 48//48 9//9
f 20//20 44//44 31//31
f 49//49 37//37 26//26
f 37//37 39//39 27//27
f 49//49 39//39 37//37
f 35//35 42//42 57//57
f 34//34 57//57 41//41
f 41//41 46//46 38//38
f 51//51 42//42 38//38
f 4//4 9//9 79//79
f 4//4 79//79 120//120
f 45//45 52//52 53//53
f 47//47 46//46 42//42
f 42//42 51//51 47//47
f 9//9 43//43 55//55
f 8//8 56//56 19//19
f 7//7 49//49 26//26
f 32//32 31//31 40//40
f 42//42 83//83 57//57
f 57//57 59//59 41//41
f 83//83 42//42 59//59
f 46//46 41//41 59//59
f 59//59 42//42 46//46
f 54//54 64//64 58//58
f 72//72 54//54 58//58
f 51//51 59//59 47//47
f 59//59 51//51 53//53
f 9//9 55//55 79//79
f 8//8 61//61 56//56
f 30//30 75//75 44//44
f 2//2 120//120 50//50
f 52//52 45//45 77//77
f 53//53 78//78 59//59
f 58//58 63//63 72//72
f 78//78 53//53 52//52
f 54//54 72//72 73//73
f 75//75 30//30 39//39
f 65//65 39//39 49//49
f 59//59 57//57 47//47
f 54//54 73//73 64//64
f 120//120 79//79 60//60
f 8//8 2//2 80//80
f 49//49 68//68 65//65
f 31//31 66//66 40//40
f 40//40 66//66 45//45
f 62//62 76//76 69//69
f 76//76 62//62 67//67
f 77//77 78//78 52//52
f 58//58 64//64 93//93
f 58//58 70//70 63//63
f 59//59 78//78 83//83
f 64//64 86//86 93//93
f 73//73 79//79 64//64
f 8//8 80//80 61//61
f 19//19 68//68 7//7
f 7//7 68//68 49//49
f 61//61 44//44 75//75
f 74//74 44//44 61//61
f 66//66 77//77 45//45
f 67//67 62//62 69//69
f 58//58 93//93 98//98
f 63//63 70//70 71//71
f 71//71 72//72 63//63
f 47//47 83//83 48//48
f 86//86 64//64 79//79
f 31//31 44//44 66//66
f 76//76 81//81 65//65
f 65//65 68//68 76//76
f 68//68 82//82 76//76
f 83//83 76//76 82//82
f 69//69 76//76 83//83
f 78//78 77//77 91//91
f 58//58 98//98 84//84
f 70//70 58//58 84//84
f 97//97 71//71 84//84
f 69//69 83//83 85//85
f 83//83 78//78 85//85
f 83//83 47//47 57//57
f 86//86 87//87 55//55
f 79//79 55//55 87//87
f 75//75 39//39 88//88
f 74//74 66//66 44//44
f 2//2 50//50 89//89
f 76//76 90//90 81//81
f 68//68 90//90 82//82
f 67//67 90//90 76//76
f 96//96 97//97 84//84
f 71//71 70//70 84//84
f 92//92 98//98 93//93
f 86//86 92//92 93//93
f 43//43 94//94 99//99
f 55//55 43//43 92//92
f 86//86 55//55 92//92
f 86//86 79//79 87//87
f 56//56 61//61 75//75
f 88//88 39//39 65//65
f 74//74 95//95 66//66
f 90//90 67//67 69//69
f 84//84 98//98 117//117
f 85//85 78//78 91//91
f 92//92 43//43 99//99
f 73//73 72//72 101//101
f 73//73 101//101 79//79
f 43//43 9//9 48//48
f 43//43 48//48 100//100
f 60//60 79//79 101//101
f 61//61 102//102 74//74
f 97//97 96//96 109//109
f 104//104 97//97 109//109
f 69//69 82//82 90//90
f 98//98 105//105 117//117
f 104//104 71//71 97//97
f 69//69 85//85 82//82
f 119//119 92//92 99//99
f 43//43 100//100 94//94
f 2//2 89//89 80//80
f 88//88 65//65 81//81
f 66//66 95//95 103//103
f 112//112 66//66 103//103
f 84//84 115//115 96//96
f 98//98 119//119 105//105
f 85//85 110//110 82//82
f 119//119 98//98 92//92
f 71//71 106//106 72//72
f 72//72 106//106 101//101
f 56//56 75//75 107//107
f 75//75 88//88 107//107
f 112//112 77//77 66//66
f 109//109 96//96 115//115
f 84//84 117//117 115//115
f 82//82 110//110 83//83
f 107//107 19//19 56//56
f 19//19 107//107 68//68
f 74//74 102//102 95//95
f 108//108 103//103 95//95
f 103//103 108//108 118//118
f 91//91 77//77 112//112
f 104//104 106//106 71//71
f 110//110 48//48 83//83
f 99//99 94//94 100//100
f 111//111 113//113 114//114
f 61//61 80//80 102//102
f 114//114 113//113 111//111
f 95//95 116//116 108//108
f 108//108 116//116 115//115
f 118//118 108//108 115//115
f 107//107 81//81 68//68
f 81//81 90//90 68//68
f 91//91 112//112 85//85
f 102//102 80//80 116//116
f 80//80 89//89 116//116
f 109//109 116//116 89//89
f 116//116 95//95 102//102
f 89//89 104//104 109//109
f 89//89 50//50 104//104
f 88//88 81//81 107//107
f 109//109 115//115 116//116
f 118//118 112//112 103//103
f 115//115 117//117 118//118
f 117//117 105//105 118//118
f 118//118 105//105 112//112
f 105//105 119//119 112//112
f 85//85 112//112 119//119
f 110//110 85//85 119//119
f 50//50 106//106 104//104
f 50//50 120//120 106//106
f 119//119 99//99 110//110
f 99//99 100//100 110//110
f 100//100 48//48 110//110
f 106//106 60//60 101//101
f 120//120 60//60 106//106
