# Blender 4.1.1
# www.blender.org
mtllib aa0320.mtl
o Liquid_Domain
v -8.474360 -9.089160 6.209559
v -8.400724 -9.088034 -6.210005
v 8.447330 -9.087417 -6.199430
v 8.465595 -2.843773 -1.118163
v 8.430837 -0.839421 2.331469
v 6.166105 2.806452 6.113347
v 8.463390 2.176125 5.828111
v 8.458241 -9.092064 6.200790
v 4.641845 -1.845152 -0.501736
v 7.785509 -1.096324 0.346922
v 7.443970 -1.241965 -0.621787
v -8.433997 6.974214 0.392864
v 3.110701 -1.626479 4.863881
v 6.952026 -0.614553 5.217991
v 5.548880 -1.036414 4.699527
v 4.110661 -1.035212 3.045317
v 3.671865 -1.368935 0.332468
v 8.329993 -0.530710 -3.489767
v 7.426269 -0.699335 0.441296
v 8.142952 -0.661068 0.626572
v 6.792676 -0.145737 -2.306386
v 6.520813 0.877650 -6.160012
v 8.365853 4.421653 6.155021
v 2.700394 0.406360 5.450289
v 8.335234 1.322209 4.302243
v 7.096344 -0.292866 2.064733
v 5.408403 1.190826 -1.451543
v 2.539188 0.832578 6.133184
v 8.151493 0.401113 1.783502
v 8.053201 0.133178 -0.523874
v 8.304049 1.820105 -6.147981
v 1.377014 0.246732 4.919937
v 7.758215 1.920130 4.722462
v 2.512952 0.383980 1.269722
v 8.114532 1.652666 2.843032
v 7.312767 0.784905 1.199480
v -5.345070 0.598529 2.635352
v -6.415797 0.631658 2.312930
v -6.263270 1.278019 0.433418
v 7.895157 1.623450 0.912730
v 7.949110 1.801682 -4.761682
v 2.095361 2.347937 5.266236
v 3.208646 2.332502 -0.846021
v -3.109410 2.592612 -6.210285
v 4.438496 2.849242 4.994625
v 6.063784 3.450937 5.499383
v 1.114915 2.244635 4.156486
v -7.061526 1.496877 -0.805926
v 4.520630 2.100171 -2.397724
v -4.601575 2.085301 3.082425
v -7.012335 3.904140 0.450255
v 8.102535 1.922704 -1.218614
v 6.385437 2.344514 -5.745104
v -4.753592 3.210155 3.468368
v -5.675231 2.498908 -0.893924
v 2.402573 3.237258 1.228783
v 8.253332 3.254156 -0.005169
v 7.576143 2.635627 -0.300427
v 6.948419 2.192754 -4.374629
v 5.374442 2.169151 -5.291008
v 6.838311 3.234884 -5.369535
v 0.531787 3.926538 4.816652
v -4.720560 3.067092 1.681922
v -7.100243 3.489423 -3.943794
v -5.876287 2.670602 -3.424174
v 2.310148 3.258709 -5.459977
v 2.177160 6.958868 -6.174418
v 8.143282 3.581334 3.671068
v 5.080380 4.147524 -1.181690
v 1.481980 2.849450 -4.947008
v 3.046308 6.992332 6.167368
v 4.554907 5.460439 5.199736
v 0.595484 4.506161 2.821447
v -2.268915 5.038218 3.122885
v 2.650240 3.729270 -0.626812
v -3.737959 5.173039 -1.403288
v 3.133555 4.204355 -3.684324
v -4.614277 4.011837 -4.758334
v 6.597263 3.845484 -6.044441
v 7.981654 4.589978 5.073134
v 3.517774 3.913088 -0.417591
v 3.965528 4.607751 -2.525520
v -1.617996 4.419449 -5.852048
v 7.459183 6.402589 4.896637
v -3.811667 3.915737 -5.540438
v 1.856982 4.446556 -4.806551
v 4.870917 5.810822 -5.250623
v -6.025701 6.943893 3.391427
v -2.524463 6.139418 1.346076
v 0.903605 5.112576 -0.695480
v 2.268037 5.125459 -3.262394
v -1.936267 4.623626 -4.201736
v -8.400947 6.937658 6.153172
v 8.270760 7.003017 6.168393
v 2.021422 5.932246 4.629224
v -7.041499 6.702873 1.677495
v 4.640757 5.572079 0.897208
v -4.927088 6.509808 -6.029593
v 5.802690 5.584279 -6.073657
v -7.008841 5.889468 -2.381762
v -8.351373 6.947221 -6.160044
v 8.028976 6.358186 3.198919
v 3.105897 6.673663 1.063158
v -6.609941 6.522175 -5.162892
v 6.341196 6.837762 5.407666
v 1.887848 6.769750 4.872246
v 8.255577 6.556204 3.046163
v 7.557433 6.429564 -0.468940
v 2.687854 5.998014 -0.672540
v 8.328606 6.496277 -0.964798
v 5.361677 6.722274 -3.145081
v 1.971431 6.943372 2.599405
v 8.153306 6.762869 2.333931
v 0.500542 7.052423 1.229378
v -1.435220 7.066540 -0.960343
v 0.649601 6.935953 -5.499014
v -1.311058 6.944326 3.935776
v 4.730381 6.955593 0.621499
v -7.725676 7.069177 -2.483792
v 3.748040 7.004197 -1.972311
v 4.771507 6.984997 -5.546587
vn -0.5031 -0.5222 0.6886
vn -0.5013 -0.5233 -0.6891
vn 0.5037 -0.5212 -0.6889
vn 0.9821 0.1860 0.0290
vn 0.9558 0.1731 -0.2376
vn -0.0058 -0.0017 1.0000
vn 0.9996 0.0287 -0.0004
vn 0.5020 -0.5214 0.6900
vn 0.3491 0.8002 0.4876
vn 0.7789 0.2463 -0.5768
vn 0.4122 0.9101 0.0427
vn -0.6454 0.7637 0.0151
vn 0.3138 0.8648 -0.3920
vn -0.4976 0.5194 -0.6947
vn -0.2498 0.9679 0.0270
vn 0.1826 0.9769 0.1111
vn 0.6831 0.6688 0.2933
vn 0.7525 0.4780 0.4530
vn -0.7848 0.4974 -0.3698
vn 0.9847 -0.1453 0.0962
vn 0.5445 0.5545 0.6293
vn 0.0240 0.0840 -0.9962
vn 0.6159 0.0152 0.7877
vn 0.1622 0.1089 -0.9807
vn 0.8775 0.4507 -0.1638
vn -0.4338 0.7935 -0.4269
vn 0.5563 0.4578 0.6935
vn 0.0078 -0.0016 1.0000
vn 0.8241 -0.3303 -0.4602
vn 0.1163 0.1515 -0.9816
vn 0.5762 0.3335 -0.7462
vn 0.7932 0.3724 -0.4818
vn -0.1182 0.3650 -0.9235
vn 0.8835 0.3756 0.2798
vn 0.2220 0.9402 -0.2585
vn -0.9890 0.0453 -0.1409
vn -0.3694 0.7770 -0.5097
vn 0.5816 0.7269 -0.3651
vn 0.0946 0.9633 0.2512
vn 0.1148 0.8504 -0.5135
vn 0.7474 0.5132 0.4219
vn 0.2659 -0.0109 -0.9639
vn 0.7212 0.1302 0.6804
vn 0.0065 0.1083 -0.9941
vn 0.1583 -0.1446 -0.9767
vn -0.0452 -0.0292 -0.9986
vn 0.9612 0.2663 -0.0726
vn 0.5019 0.8575 0.1132
vn 0.7102 0.6918 0.1309
vn -0.5919 0.5488 -0.5903
vn 0.9927 0.0798 -0.0908
vn 0.3024 0.4731 0.8275
vn 0.9056 -0.1426 0.3994
vn 0.0572 0.2013 -0.9778
vn -0.7072 0.6829 0.1833
vn 0.8601 0.3655 0.3558
vn 0.2357 0.4916 0.8383
vn 0.2691 0.4912 0.8284
vn 0.2235 0.8863 0.4056
vn 0.1140 0.6949 0.7100
vn 0.0507 0.5937 0.8031
vn 0.7399 -0.0833 -0.6676
vn -0.7790 0.5384 0.3214
vn 0.6804 0.4125 0.6057
vn -0.1509 0.8988 0.4116
vn 0.2690 0.1026 0.9577
vn -0.0448 0.5870 -0.8083
vn 0.0346 0.1499 -0.9881
vn 0.9770 -0.1963 0.0833
vn 0.8713 0.4516 0.1920
vn 0.0205 0.6511 0.7588
vn 0.0728 -0.0134 -0.9973
vn 0.9693 -0.1484 0.1962
vn -0.6736 0.6968 -0.2463
vn 0.3864 0.6565 0.6479
vn -0.6733 0.7238 -0.1508
vn 0.6664 -0.4171 -0.6180
vn 0.1298 0.7447 0.6547
vn 0.6474 0.5246 -0.5529
vn 0.3005 -0.0783 -0.9506
vn -0.1243 -0.3369 0.9333
vn 0.9523 -0.0742 -0.2961
vn -0.4355 0.6311 -0.6420
vn -0.4770 0.5380 -0.6950
vn 0.4628 0.8752 -0.1411
vn 0.7872 -0.6129 0.0689
vn 0.8087 -0.1385 0.5717
vn 0.2993 0.7976 -0.5238
vn -0.5300 0.7791 0.3349
vn 0.9412 -0.1006 0.3224
vn 0.0094 -0.0569 0.9983
vn -0.5358 0.8032 -0.2601
vn -0.5012 0.5255 0.6875
vn 0.4776 0.6243 0.6182
vn 0.6841 -0.1180 -0.7198
vn 0.7907 0.4978 -0.3563
vn 0.3136 -0.3396 0.8867
vn 0.5475 0.7249 -0.4181
vn 0.7069 0.3945 -0.5871
vn 0.9731 0.2258 0.0449
vn -0.4478 0.5774 -0.6826
vn -0.6636 -0.4843 -0.5702
vn 0.3205 -0.8325 0.4520
vn 0.4556 0.7903 0.4098
vn 0.2342 -0.7062 -0.6681
vn 0.3355 0.8410 -0.4246
vn 0.9669 -0.2285 -0.1139
vn -0.7280 -0.0951 -0.6790
vn -0.2292 -0.8436 0.4856
vn 0.2260 0.0089 -0.9741
vn 0.8696 0.3545 0.3436
vn 0.3444 0.9181 0.1962
vn 0.0299 0.9944 0.1010
vn -0.1233 0.9891 0.0799
vn -0.3625 0.9282 -0.0836
vn -0.3711 0.8073 -0.4589
vn -0.1732 0.9230 -0.3436
vn 0.6413 0.6291 0.4393
vn 0.3723 0.9276 0.0313
vn 0.5147 0.8510 0.1044
vn 0.5193 0.7725 -0.3656
s 1
usemtl Liquid_Domain_Material
f 8//8 1//1 2//2
f 3//3 8//8 2//2
f 8//8 3//3 4//4
f 2//2 44//44 3//3
f 8//8 6//6 1//1
f 5//5 8//8 4//4
f 1//1 6//6 28//28
f 10//10 4//4 11//11
f 5//5 4//4 10//10
f 4//4 3//3 31//31
f 8//8 5//5 7//7
f 14//14 15//15 13//13
f 16//16 13//13 15//15
f 16//16 9//9 17//17
f 26//26 9//9 16//16
f 9//9 26//26 11//11
f 11//11 4//4 18//18
f 8//8 23//23 6//6
f 23//23 8//8 7//7
f 32//32 13//13 16//16
f 34//34 16//16 17//17
f 5//5 10//10 20//20
f 11//11 26//26 19//19
f 19//19 10//10 11//11
f 11//11 21//21 9//9
f 4//4 31//31 18//18
f 3//3 44//44 22//22
f 3//3 22//22 31//31
f 15//15 14//14 26//26
f 26//26 16//16 15//15
f 34//34 32//32 16//16
f 5//5 20//20 26//26
f 20//20 19//19 26//26
f 9//9 27//27 17//17
f 21//21 27//27 9//9
f 21//21 11//11 18//18
f 14//14 13//13 24//24
f 7//7 5//5 25//25
f 26//26 29//29 5//5
f 10//10 19//19 30//30
f 20//20 10//10 30//30
f 32//32 24//24 13//13
f 14//14 33//33 26//26
f 33//33 35//35 26//26
f 35//35 36//36 26//26
f 29//29 26//26 36//36
f 29//29 36//36 20//20
f 20//20 36//36 19//19
f 5//5 29//29 25//25
f 25//25 29//29 35//35
f 35//35 40//40 36//36
f 29//29 40//40 35//35
f 37//37 39//39 38//38
f 43//43 34//34 17//17
f 36//36 40//40 19//19
f 30//30 19//19 40//40
f 30//30 40//40 20//20
f 27//27 43//43 17//17
f 41//41 21//21 18//18
f 18//18 31//31 41//41
f 32//32 42//42 24//24
f 40//40 29//29 20//20
f 21//21 41//41 27//27
f 24//24 42//42 45//45
f 14//14 24//24 46//46
f 47//47 42//42 32//32
f 32//32 34//34 47//47
f 37//37 38//38 54//54
f 14//14 46//46 33//33
f 33//33 25//25 35//35
f 37//37 54//54 50//50
f 39//39 37//37 50//50
f 39//39 51//51 38//38
f 27//27 49//49 43//43
f 27//27 41//41 59//59
f 53//53 59//59 22//22
f 1//1 28//28 71//71
f 24//24 45//45 46//46
f 7//7 25//25 33//33
f 50//50 63//63 39//39
f 63//63 55//55 39//39
f 34//34 43//43 56//56
f 51//51 39//39 48//48
f 57//57 58//58 52//52
f 48//48 39//39 55//55
f 27//27 59//59 49//49
f 60//60 49//49 59//59
f 49//49 60//60 70//70
f 60//60 59//59 53//53
f 41//41 61//61 59//59
f 1//1 12//12 2//2
f 59//59 61//61 22//22
f 61//61 31//31 22//22
f 62//62 42//42 47//47
f 47//47 34//34 56//56
f 55//55 65//65 48//48
f 64//64 48//48 65//65
f 60//60 66//66 70//70
f 53//53 61//61 60//60
f 61//61 53//53 31//31
f 53//53 22//22 79//79
f 7//7 33//33 68//68
f 43//43 81//81 75//75
f 81//81 43//43 49//49
f 41//41 31//31 79//79
f 44//44 2//2 101//101
f 53//53 79//79 31//31
f 45//45 42//42 72//72
f 62//62 47//47 73//73
f 74//74 50//50 54//54
f 56//56 73//73 47//47
f 56//56 43//43 75//75
f 58//58 57//57 52//52
f 69//69 81//81 49//49
f 77//77 49//49 70//70
f 64//64 65//65 78//78
f 101//101 2//2 12//12
f 79//79 61//61 41//41
f 22//22 44//44 79//79
f 45//45 72//72 46//46
f 33//33 46//46 80//80
f 7//7 68//68 23//23
f 33//33 80//80 68//68
f 51//51 48//48 100//100
f 48//48 64//64 100//100
f 55//55 76//76 65//65
f 82//82 69//69 49//49
f 65//65 76//76 92//92
f 82//82 49//49 77//77
f 78//78 65//65 92//92
f 70//70 66//66 86//86
f 66//66 60//60 87//87
f 85//85 83//83 44//44
f 61//61 79//79 60//60
f 75//75 73//73 56//56
f 63//63 76//76 55//55
f 78//78 92//92 85//85
f 70//70 86//86 77//77
f 66//66 87//87 86//86
f 44//44 101//101 98//98
f 1//1 71//71 93//93
f 6//6 71//71 28//28
f 42//42 62//62 72//72
f 46//46 72//72 84//84
f 46//46 84//84 80//80
f 23//23 68//68 80//80
f 93//93 12//12 1//1
f 38//38 88//88 54//54
f 73//73 75//75 90//90
f 97//97 81//81 69//69
f 91//91 75//75 81//81
f 75//75 91//91 90//90
f 92//92 83//83 85//85
f 79//79 87//87 60//60
f 99//99 87//87 79//79
f 6//6 94//94 71//71
f 23//23 94//94 6//6
f 62//62 95//95 72//72
f 96//96 88//88 38//38
f 50//50 74//74 89//89
f 38//38 51//51 96//96
f 50//50 89//89 63//63
f 76//76 63//63 89//89
f 81//81 97//97 109//109
f 85//85 44//44 98//98
f 44//44 83//83 67//67
f 79//79 44//44 99//99
f 62//62 73//73 95//95
f 54//54 88//88 117//117
f 96//96 51//51 100//100
f 118//118 69//69 82//82
f 81//81 109//109 91//91
f 87//87 82//82 77//77
f 77//77 86//86 87//87
f 78//78 104//104 64//64
f 44//44 67//67 99//99
f 72//72 105//105 84//84
f 23//23 80//80 107//107
f 80//80 84//84 102//102
f 74//74 54//54 117//117
f 95//95 73//73 103//103
f 73//73 90//90 103//103
f 82//82 120//120 118//118
f 100//100 64//64 104//104
f 98//98 78//78 85//85
f 107//107 80//80 102//102
f 110//110 107//107 102//102
f 103//103 90//90 109//109
f 97//97 103//103 109//109
f 102//102 108//108 110//110
f 90//90 91//91 109//109
f 82//82 111//111 120//120
f 82//82 87//87 111//111
f 83//83 92//92 116//116
f 78//78 98//98 104//104
f 83//83 116//116 67//67
f 23//23 107//107 94//94
f 106//106 95//95 112//112
f 95//95 103//103 112//112
f 103//103 97//97 118//118
f 76//76 115//115 92//92
f 100//100 104//104 119//119
f 92//92 115//115 116//116
f 121//121 87//87 99//99
f 72//72 95//95 106//106
f 105//105 72//72 106//106
f 74//74 117//117 114//114
f 89//89 74//74 114//114
f 114//114 115//115 89//89
f 96//96 100//100 119//119
f 69//69 118//118 97//97
f 108//108 102//102 113//113
f 107//107 110//110 113//113
f 115//115 76//76 89//89
f 87//87 121//121 111//111
f 99//99 67//67 121//121
f 117//117 88//88 93//93
f 94//94 84//84 71//71
f 84//84 105//105 71//71
f 105//105 106//106 71//71
f 71//71 117//117 93//93
f 88//88 12//12 93//93
f 106//106 117//117 71//71
f 106//106 112//112 117//117
f 84//84 94//94 102//102
f 102//102 94//94 113//113
f 94//94 107//107 113//113
f 96//96 12//12 88//88
f 112//112 114//114 117//117
f 112//112 103//103 118//118
f 118//118 120//120 112//112
f 96//96 119//119 12//12
f 112//112 120//120 114//114
f 113//113 110//110 108//108
f 120//120 115//115 114//114
f 12//12 119//119 101//101
f 104//104 101//101 119//119
f 111//111 121//121 120//120
f 120//120 121//121 115//115
f 115//115 67//67 116//116
f 121//121 67//67 115//115
f 104//104 98//98 101//101
