# Blender 4.1.1
# www.blender.org
mtllib aa0323.mtl
o Liquid_Domain
v -8.464786 -9.090591 6.207263
v 8.455177 -9.089940 6.193944
v -8.464257 -9.086627 -6.209607
v 8.463800 -9.088308 -6.187212
v 8.473025 -2.627697 -2.173309
v 3.008752 6.703010 6.205721
v 8.260433 0.024668 -0.335269
v 2.334809 2.561617 6.145483
v 4.382226 -1.947982 -0.401540
v 4.780522 -1.197893 -1.184768
v 3.880456 -1.195152 4.847286
v 3.015257 -0.899065 0.437010
v 7.766963 -1.189850 -1.776640
v -8.454268 1.780488 -1.726519
v 8.455240 0.558080 6.147236
v 7.238836 -0.885587 5.226923
v 7.415661 -0.284982 3.110549
v 7.154438 -0.428076 1.375755
v 2.640208 -0.162651 2.418527
v 5.217328 1.118112 -1.031545
v 8.200024 0.285698 -3.867990
v 3.170194 0.457668 5.259422
v 4.760203 -0.711777 2.741692
v 7.584793 0.938283 -0.807619
v 8.036970 0.855312 -1.513762
v 8.205439 1.262493 3.119310
v 8.125669 0.582583 1.268568
v 8.239494 0.549706 -6.191887
v 1.206561 0.857188 4.956557
v -6.185627 0.452615 1.865818
v 2.528732 1.720582 -0.243658
v 8.054753 2.102337 1.454733
v -6.358161 1.120485 2.947669
v -6.879455 0.854806 1.558334
v 8.356077 6.213463 6.169735
v -4.994933 2.414349 3.637571
v 4.680690 1.576188 -1.239208
v -7.483245 1.781682 -1.957470
v -6.507792 1.171933 -2.102662
v 3.025380 3.492012 -6.136179
v 6.518780 2.295325 -6.030963
v 5.514996 2.799513 4.909791
v 0.560721 3.980774 4.312060
v -6.024911 2.125291 0.328695
v -6.684711 2.274602 -0.292356
v -7.221270 1.497702 -3.746787
v -4.031054 3.126026 -4.496620
v -2.818434 2.389963 -6.196129
v 2.002563 3.654409 5.303267
v 7.363186 2.261180 5.190614
v 2.613130 3.424705 -0.246261
v 6.931201 2.466569 -4.013703
v 4.456110 1.993354 -4.975077
v -6.556395 3.357265 -5.079503
v 5.766800 2.512760 -5.735343
v -3.848690 5.644551 -6.137995
v 7.478525 4.742168 5.298997
v 7.940688 3.289009 3.002507
v 8.061670 3.259547 -1.301297
v 2.416617 3.180996 -3.212564
v 4.363109 2.738872 -5.376968
v 3.870194 3.418242 0.197985
v 0.826631 3.141538 -4.801019
v 5.607669 4.933508 5.342397
v -4.319824 4.421293 -1.129488
v 5.493164 3.644242 -0.444530
v -8.425775 6.602564 -6.128833
v -3.683767 4.578783 -5.232577
v 1.631259 4.119409 -5.642089
v -6.325578 6.008325 3.138723
v -7.240182 4.195107 -0.395098
v 4.297726 3.969234 -1.654217
v 3.385133 4.655384 -2.725866
v -2.637061 3.675052 -5.386616
v 0.856686 6.346852 -6.191197
v 5.221326 4.166025 1.190737
v 8.140905 5.289152 3.905689
v -3.757181 4.983012 4.007769
v -2.997282 5.999983 2.235365
v 0.572161 5.027703 0.890662
v 6.251657 5.533367 1.400384
v 3.528631 6.336686 0.614950
v -1.133371 5.262328 -3.575097
v 2.671356 4.487473 -2.901568
v 4.603422 4.825735 -3.099752
v -7.374375 6.718167 -4.773279
v 1.777377 5.500007 -4.506259
v -6.548360 6.110406 -5.300607
v 0.214678 6.889984 -5.852380
v 4.545893 5.187197 -5.375998
v -8.397108 6.940614 6.129782
v 4.143723 5.406607 4.947964
v 2.582630 6.465282 4.671530
v -7.155621 6.799327 -0.485649
v -8.419123 6.915856 -0.342669
v 5.136059 5.274776 -6.076553
v -2.877724 5.107009 3.633291
v 2.243727 5.967271 3.112061
v 1.023273 5.877131 1.060699
v 4.844076 6.037688 2.224561
v 2.958872 5.303202 -3.656821
v -5.643431 6.773880 -5.988049
v 7.138193 6.276126 4.641346
v -1.746712 6.971185 -1.471018
v 5.418284 6.687981 -1.997306
v 8.053117 6.364516 0.727078
v 7.588391 6.271276 -2.045242
v 8.250541 6.757409 -2.187185
v 7.184845 6.422369 -2.974806
v 5.027984 6.858185 4.609416
v -0.586495 6.326242 3.694852
v 8.075621 6.783816 1.757253
v 5.165955 6.978317 2.085471
v 2.715010 6.698500 -1.706560
v 3.365580 6.983757 -1.627414
v 1.318151 7.045560 2.584722
v -2.509572 7.061570 1.114594
v 0.849423 7.121522 -3.595256
v 2.957924 7.095275 5.546869
v 7.864041 7.098993 5.685122
v -6.735532 7.001466 4.123306
v -1.457403 6.992234 4.861272
v 3.141115 6.774376 2.373106
v 3.478852 6.941080 -0.764632
v 4.604603 6.806778 0.049689
v 6.152725 6.990088 -5.888186
vn -0.5023 -0.5223 0.6891
vn 0.5019 -0.5225 0.6893
vn -0.5024 -0.5221 -0.6892
vn 0.5048 -0.5215 -0.6879
vn 0.9929 0.1193 0.0005
vn 0.0050 0.4299 0.9029
vn 0.9619 0.2663 -0.0617
vn 0.0114 -0.0089 0.9999
vn 0.3005 0.9151 0.2690
vn 0.4899 0.3147 0.8130
vn 0.4950 0.7858 -0.3707
vn 0.7852 0.5327 0.3158
vn 0.4876 0.8721 -0.0414
vn -1.0000 0.0039 0.0010
vn 0.6046 0.0181 0.7963
vn -0.4425 0.5815 -0.6826
vn -0.6459 0.7612 0.0582
vn -0.5550 0.8290 -0.0684
vn 0.6465 0.7618 -0.0415
vn 0.5570 0.3022 0.7736
vn 0.8782 0.3544 0.3212
vn 0.2717 0.2620 -0.9260
vn 0.1474 0.9870 -0.0644
vn -0.8882 0.3893 0.2439
vn 0.1431 0.1210 -0.9823
vn 0.2626 0.9242 -0.2775
vn -0.4233 0.8788 -0.2203
vn 0.6044 0.2489 -0.7568
vn 0.6120 0.4496 -0.6506
vn -0.2308 0.9681 0.0971
vn 0.6439 0.0426 0.7640
vn 0.0205 0.7553 -0.6551
vn 0.3479 0.5458 -0.7623
vn 0.7312 0.6369 0.2444
vn 0.5817 0.2586 0.7712
vn -0.2683 0.4619 -0.8453
vn 0.6708 0.5665 0.4786
vn 0.8425 0.4956 -0.2109
vn -0.1343 0.9761 -0.1711
vn 0.0357 0.0067 -0.9993
vn 0.3422 0.6277 -0.6992
vn 0.0692 0.0250 -0.9973
vn 0.9214 -0.1526 -0.3574
vn -0.6123 0.7489 0.2535
vn 0.7672 0.6271 -0.1347
vn 0.4565 0.7239 0.5173
vn -0.3837 0.8255 0.4140
vn 0.0107 0.0871 -0.9961
vn 0.2299 -0.0655 -0.9710
vn -0.4477 0.0231 -0.8939
vn 0.1446 0.4409 0.8858
vn 0.4146 0.8750 0.2502
vn 0.1411 0.8819 0.4498
vn 0.3470 0.3076 0.8860
vn 0.2971 0.9352 0.1924
vn 0.5385 0.6085 -0.5828
vn -0.4726 -0.1430 -0.8696
vn -0.1022 0.0905 -0.9906
vn 0.0458 0.9729 -0.2268
vn 0.7329 0.3626 -0.5757
vn 0.1825 0.2757 0.9438
vn -0.0698 -0.4099 0.9094
vn 0.8853 0.4467 0.1294
vn 0.0324 -0.1931 -0.9806
vn -0.7382 0.6402 -0.2126
vn 0.9434 -0.2984 -0.1446
vn -0.5115 0.4970 -0.7010
vn 0.3140 0.4582 0.8316
vn 0.3859 -0.0853 0.9186
vn 0.7171 0.3340 -0.6118
vn 0.9851 0.0306 -0.1693
vn 0.8007 -0.1716 -0.5740
vn -0.4866 -0.4030 -0.7751
vn -0.0618 0.9210 -0.3847
vn -0.0946 0.2442 -0.9651
vn 0.0871 -0.6473 0.7572
vn 0.3042 -0.3716 -0.8771
vn 0.0125 0.2205 -0.9753
vn -0.6607 0.6624 0.3530
vn 0.9699 0.0906 0.2262
vn 0.9429 0.0032 0.3331
vn -0.4527 -0.8225 0.3443
vn -0.6275 0.7129 -0.3129
vn 0.9078 0.4056 -0.1072
vn 0.3833 -0.9091 -0.1632
vn 0.7095 -0.5383 0.4548
vn 0.5458 -0.8341 -0.0797
vn 0.4559 0.1910 0.8693
vn -0.3938 0.7104 -0.5833
vn 0.1738 -0.7788 0.6027
vn -0.5059 0.5222 0.6865
vn 0.0162 -0.1894 -0.9818
vn 0.7534 0.0511 -0.6556
vn 0.7194 0.6844 -0.1183
vn -0.6592 0.7516 -0.0248
vn 0.5619 -0.1576 -0.8120
vn -0.5985 0.7828 -0.1704
vn 0.6587 -0.7509 -0.0475
vn 0.6247 -0.7807 -0.0145
vn 0.0162 -0.3425 0.9394
vn 0.1537 -0.9872 -0.0425
vn 0.3454 0.8756 -0.3377
vn -0.4884 0.1879 -0.8522
vn -0.4487 0.8294 -0.3328
vn 0.7261 0.5053 0.4663
vn -0.0000 -0.0000 1.0000
vn 0.9287 0.0802 0.3621
vn -0.1014 0.4227 -0.9006
vn -0.5011 0.8155 -0.2896
vn 0.0455 0.1408 -0.9890
vn 0.4194 0.6666 0.6162
vn 0.9392 -0.2185 0.2648
vn -0.4509 0.8168 0.3599
vn 0.0287 0.9976 0.0634
vn -0.4830 0.8669 0.1232
vn -0.2508 0.9627 -0.1019
vn 0.1039 0.9928 -0.0598
vn 0.3723 0.8758 0.3073
vn 0.1091 0.9755 -0.1913
vn -0.1022 0.9248 -0.3665
vn 0.6699 0.4611 0.5819
vn -0.1094 0.9833 -0.1453
vn 0.5413 0.8253 -0.1606
vn 0.6462 0.3989 -0.6506
s 1
usemtl Liquid_Domain_Material
f 4//4 1//1 3//3
f 2//2 1//1 4//4
f 2//2 4//4 5//5
f 2//2 5//5 15//15
f 4//4 28//28 5//5
f 4//4 3//3 28//28
f 2//2 8//8 1//1
f 2//2 15//15 8//8
f 15//15 5//5 7//7
f 1//1 14//14 3//3
f 7//7 5//5 13//13
f 28//28 3//3 40//40
f 26//26 15//15 7//7
f 19//19 23//23 9//9
f 9//9 12//12 19//19
f 12//12 9//9 10//10
f 13//13 10//10 9//9
f 5//5 28//28 21//21
f 17//17 11//11 16//16
f 18//18 9//9 23//23
f 18//18 13//13 9//9
f 21//21 13//13 5//5
f 1//1 8//8 6//6
f 11//11 18//18 23//23
f 17//17 18//18 11//11
f 20//20 12//12 10//10
f 18//18 24//24 13//13
f 21//21 10//10 13//13
f 11//11 22//22 16//16
f 23//23 22//22 11//11
f 7//7 13//13 25//25
f 23//23 29//29 22//22
f 23//23 19//19 29//29
f 17//17 27//27 18//18
f 26//26 7//7 27//27
f 24//24 18//18 27//27
f 12//12 20//20 31//31
f 25//25 13//13 24//24
f 21//21 20//20 10//10
f 16//16 26//26 17//17
f 31//31 29//29 19//19
f 19//19 12//12 31//31
f 17//17 32//32 27//27
f 27//27 7//7 24//24
f 16//16 22//22 50//50
f 26//26 32//32 17//17
f 34//34 33//33 30//30
f 3//3 56//56 48//48
f 28//28 40//40 41//41
f 8//8 15//15 35//35
f 33//33 36//36 30//30
f 26//26 27//27 32//32
f 44//44 34//34 30//30
f 20//20 37//37 31//31
f 38//38 45//45 39//39
f 46//46 38//38 39//39
f 21//21 52//52 20//20
f 21//21 28//28 52//52
f 3//3 48//48 40//40
f 22//22 29//29 42//42
f 22//22 42//42 50//50
f 16//16 50//50 26//26
f 45//45 34//34 44//44
f 47//47 46//46 39//39
f 52//52 28//28 41//41
f 29//29 49//49 42//42
f 29//29 43//43 49//49
f 29//29 31//31 51//51
f 30//30 36//36 44//44
f 37//37 20//20 52//52
f 52//52 53//53 37//37
f 52//52 41//41 55//55
f 15//15 26//26 35//35
f 50//50 57//57 26//26
f 43//43 29//29 51//51
f 44//44 39//39 45//45
f 37//37 62//62 31//31
f 31//31 62//62 51//51
f 24//24 7//7 59//59
f 7//7 25//25 59//59
f 25//25 24//24 59//59
f 53//53 60//60 37//37
f 55//55 53//53 52//52
f 14//14 67//67 3//3
f 55//55 61//61 53//53
f 40//40 48//48 75//75
f 41//41 40//40 55//55
f 37//37 66//66 62//62
f 47//47 54//54 46//46
f 53//53 63//63 60//60
f 63//63 53//53 61//61
f 42//42 49//49 64//64
f 26//26 77//77 35//35
f 57//57 58//58 26//26
f 44//44 65//65 39//39
f 72//72 66//66 37//37
f 45//45 38//38 71//71
f 60//60 72//72 37//37
f 39//39 65//65 47//47
f 47//47 68//68 54//54
f 69//69 63//63 61//61
f 64//64 57//57 50//50
f 64//64 50//50 42//42
f 33//33 70//70 36//36
f 26//26 58//58 77//77
f 34//34 45//45 71//71
f 76//76 62//62 66//66
f 68//68 47//47 74//74
f 56//56 3//3 67//67
f 48//48 74//74 75//75
f 55//55 40//40 96//96
f 97//97 36//36 78//78
f 36//36 97//97 79//79
f 36//36 79//79 44//44
f 72//72 60//60 73//73
f 60//60 84//84 73//73
f 74//74 47//47 65//65
f 61//61 90//90 69//69
f 1//1 95//95 14//14
f 57//57 77//77 58//58
f 78//78 36//36 70//70
f 33//33 34//34 70//70
f 34//34 71//71 70//70
f 43//43 51//51 80//80
f 76//76 66//66 81//81
f 79//79 65//65 44//44
f 82//82 62//62 76//76
f 84//84 80//80 51//51
f 85//85 72//72 73//73
f 101//101 84//84 60//60
f 74//74 65//65 83//83
f 63//63 87//87 60//60
f 87//87 101//101 60//60
f 46//46 88//88 86//86
f 54//54 88//88 46//46
f 87//87 63//63 69//69
f 54//54 68//68 88//88
f 68//68 74//74 56//56
f 90//90 61//61 55//55
f 74//74 48//48 56//56
f 1//1 6//6 91//91
f 64//64 49//49 92//92
f 76//76 100//100 82//82
f 62//62 82//82 51//51
f 51//51 73//73 84//84
f 71//71 38//38 94//94
f 14//14 95//95 67//67
f 38//38 46//46 86//86
f 96//96 90//90 55//55
f 74//74 89//89 75//75
f 35//35 6//6 8//8
f 1//1 91//91 95//95
f 93//93 92//92 49//49
f 49//49 43//43 93//93
f 57//57 103//103 77//77
f 99//99 98//98 43//43
f 43//43 80//80 99//99
f 76//76 81//81 100//100
f 82//82 124//122 51//51
f 51//51 124//122 73//73
f 80//80 84//84 101//101
f 94//94 38//38 86//86
f 85//85 73//73 101//101
f 87//87 85//85 101//101
f 90//90 87//87 69//69
f 56//56 67//67 102//102
f 57//57 64//64 103//103
f 70//70 71//71 94//94
f 79//79 117//115 65//65
f 81//81 66//66 72//72
f 125//123 81//81 72//72
f 65//65 104//104 83//83
f 105//105 72//72 85//85
f 85//85 87//87 90//90
f 40//40 75//75 96//96
f 111//109 97//97 78//78
f 65//65 117//115 104//104
f 107//106 108//106 106//106
f 80//80 114//112 99//99
f 125//123 72//72 105//105
f 114//112 80//80 101//101
f 124//122 101//101 73//73
f 105//105 85//85 109//107
f 83//83 89//89 74//74
f 90//90 96//96 85//85
f 96//96 126//124 85//85
f 119//117 92//92 93//93
f 110//108 92//92 119//117
f 92//92 103//103 64//64
f 78//78 70//70 122//120
f 93//93 43//43 98//98
f 103//103 112//110 77//77
f 35//35 77//77 112//110
f 123//121 98//98 82//82
f 100//100 123//121 82//82
f 81//81 113//111 100//100
f 82//82 98//98 99//99
f 82//82 99//99 114//112
f 114//112 101//101 115//113
f 101//101 124//122 115//113
f 126//124 109//107 85//85
f 56//56 102//102 68//68
f 78//78 122//120 111//109
f 103//103 92//92 110//108
f 98//98 123//121 93//93
f 97//97 111//109 117//115
f 116//114 117//115 111//109
f 79//79 97//97 117//115
f 121//119 70//70 94//94
f 100//100 113//111 123//121
f 113//111 81//81 125//123
f 82//82 114//112 124//122
f 108//106 107//106 106//106
f 83//83 104//104 118//116
f 83//83 118//116 89//89
f 68//68 102//102 88//88
f 96//96 75//75 126//124
f 91//91 6//6 119//117
f 119//117 6//6 120//118
f 6//6 35//35 120//118
f 119//117 122//120 91//91
f 122//120 121//119 91//91
f 116//114 122//120 119//117
f 103//103 110//108 120//118
f 110//108 119//117 120//118
f 121//119 95//95 91//91
f 122//120 70//70 121//119
f 93//93 116//114 119//117
f 35//35 112//110 120//118
f 111//109 122//120 116//114
f 93//93 123//121 116//114
f 103//103 120//118 112//110
f 121//119 94//94 95//95
f 123//121 124//122 116//114
f 123//121 125//123 124//122
f 113//111 125//123 123//121
f 116//114 118//116 117//115
f 124//122 118//116 116//114
f 118//116 104//104 117//115
f 125//123 115//113 124//122
f 114//112 118//116 124//122
f 105//105 115//113 125//123
f 94//94 86//86 95//95
f 115//113 118//116 114//112
f 105//105 126//124 115//113
f 126//124 118//116 115//113
f 109//107 126//124 105//105
f 126//124 89//89 118//116
f 86//86 102//102 95//95
f 102//102 67//67 95//95
f 86//86 88//88 102//102
f 126//124 75//75 89//89
