# Blender 4.1.1
# www.blender.org
mtllib aa0313.mtl
o Liquid_Domain
v -8.466050 -9.092093 6.208762
v -8.466747 -9.091595 -6.212725
v 8.449246 -9.088589 6.196364
v 8.474515 -9.081877 -6.189310
v 8.165000 1.346342 6.173622
v 1.241129 1.448307 6.182675
v 8.411336 0.382445 5.776112
v 8.383317 -1.309730 -2.425469
v 8.407545 -1.539030 2.606066
v -8.439972 6.637690 -5.900068
v 8.404584 0.659187 -6.161772
v 3.339952 -1.907671 4.335924
v 2.883048 -1.589110 1.505764
v 4.203927 -1.118894 2.586182
v 2.125545 -0.408667 1.844913
v 8.363429 -0.696790 -0.000379
v 5.608286 -1.224247 -0.885203
v 8.298776 0.956274 -4.037674
v 5.718837 -0.870139 4.795310
v 7.267877 -0.811320 3.665732
v 7.412422 -0.210780 0.686663
v 5.734292 0.093910 2.462634
v 5.439456 0.196060 -1.109401
v 8.071885 0.455280 -2.795126
v 7.470255 2.402112 -6.104822
v 7.616637 0.872744 5.140768
v -8.440548 6.703831 -2.109823
v 7.804571 1.192788 -0.450544
v 1.383456 0.191912 4.161187
v 7.743021 -0.079999 2.931718
v 7.367295 0.890534 2.333775
v 4.012199 0.870376 0.533524
v 7.954885 0.799433 0.890990
v 7.052299 -0.216226 -2.056466
v 8.447219 1.644549 2.535351
v -5.191642 0.742203 0.842543
v 5.012926 1.435745 -1.700892
v 2.282689 4.809928 -6.158877
v 6.005458 2.469696 6.090541
v 2.301614 1.128995 5.223285
v 0.972259 3.006559 2.680629
v -5.122090 1.627411 2.348119
v -6.327288 1.302238 -0.144363
v 6.247509 2.078588 5.603911
v 8.008751 1.991534 4.538530
v 0.714843 3.217829 5.092834
v 7.946101 1.112751 -3.384909
v -6.165211 2.625068 0.969671
v 7.872945 1.478447 -4.168992
v 8.223925 2.506171 -4.717871
v 2.443583 3.456882 0.624739
v -4.982565 2.625707 0.754360
v 1.510913 1.624384 -4.299093
v 6.934499 2.781249 -5.332364
v 0.525665 5.212320 -6.153370
v 7.922348 2.956002 5.114826
v 0.165282 3.187735 -2.547283
v 3.455052 2.765579 -3.347048
v 3.220999 2.546586 -5.058990
v 0.931447 3.759724 -4.612699
v 3.015197 4.870116 5.242934
v -3.787671 3.911480 1.640637
v 7.935363 3.606825 -2.395070
v 7.973543 4.772696 -4.178395
v 1.370129 6.998035 6.181388
v -0.288465 3.410274 2.520081
v 1.047327 3.416386 1.974640
v 8.252144 3.772828 2.432976
v 7.692978 3.209673 1.221969
v 8.222352 3.946318 0.857110
v -6.887727 3.164409 -1.672625
v -3.044876 4.080564 -6.142087
v 8.426645 4.310538 5.520080
v -0.532797 4.157445 4.735840
v 0.199764 4.135336 2.690785
v -5.408888 4.142076 1.960837
v 0.966137 4.694934 -0.560619
v 2.702854 3.684933 -2.556128
v -4.532547 3.668514 -2.341127
v 1.859357 3.594000 -2.660348
v 7.168153 4.392922 5.401966
v 0.605570 5.377686 3.477437
v 0.097860 4.172582 2.203995
v -6.689227 6.808699 -0.790333
v -5.477603 3.399949 -0.811364
v -5.661322 6.090296 -4.820016
v -3.412076 4.634232 -4.927504
v 8.059306 5.285233 -5.197967
v 7.808112 5.124407 -6.089466
v 1.913539 5.288499 -2.001122
v 3.459422 5.460822 -5.377554
v 6.649558 6.267772 -5.438469
v -7.608043 5.802530 -6.163510
v 7.852255 6.005020 3.665084
v 0.453676 4.975409 2.306864
v -7.113609 5.878973 -2.085870
v 1.603769 6.589594 5.163797
v -6.585615 4.903629 1.902169
v 3.749128 4.807203 -3.107449
v -8.406192 7.003916 6.159655
v 8.359462 6.864366 6.110202
v 1.246038 6.605871 3.701610
v 8.156052 5.848961 1.487104
v -2.221976 5.723067 -1.631179
v 3.490613 6.566718 4.647612
v 4.716742 6.628422 5.333458
v 6.923037 6.623787 5.087612
v 8.175177 6.193050 2.587437
v 7.660950 6.063078 2.088185
v 1.764107 6.655289 -0.506303
v 3.965196 6.245475 -5.859949
v 1.371162 6.605733 -5.327025
v 6.863511 6.896614 -6.067930
v 2.491624 6.909472 -2.696222
v 2.379326 6.121977 -5.317969
v -7.344776 7.071563 2.002434
v -5.091022 6.958619 2.927370
v -1.565995 7.056912 1.401814
v 0.134367 6.946644 2.541653
v -0.280430 7.035892 -1.479921
v -6.702672 6.971810 -4.470218
vn -0.5026 -0.5227 0.6886
vn -0.5019 -0.5219 -0.6897
vn 0.5039 -0.5221 0.6881
vn 0.5057 -0.5210 -0.6876
vn 0.6564 0.0533 0.7525
vn 0.0055 0.0037 1.0000
vn 0.9670 0.2548 -0.0030
vn 0.9963 0.0822 0.0248
vn 0.9195 0.3930 -0.0066
vn -0.4388 0.5850 -0.6820
vn 0.6189 0.1751 -0.7657
vn 0.1506 0.8580 -0.4911
vn 0.4271 0.8121 0.3975
vn -0.4612 0.8866 0.0339
vn 0.8090 0.2955 0.5081
vn 0.9679 0.2213 0.1188
vn -0.0230 0.6489 0.7606
vn 0.9642 0.2543 0.0755
vn -0.2003 0.6936 -0.6920
vn 0.0039 0.9527 -0.3037
vn -0.0608 0.8534 0.5177
vn -0.2283 0.9718 -0.0597
vn 0.4106 0.5010 0.7618
vn 0.7427 0.5317 0.4070
vn 0.5590 0.1579 -0.8140
vn 0.3341 0.3441 -0.8775
vn -0.5850 0.8099 -0.0425
vn 0.1696 0.9720 0.1627
vn 0.8282 0.4475 -0.3375
vn -0.0517 -0.9974 0.0503
vn -0.4810 -0.0829 -0.8728
vn 0.6838 0.1175 0.7202
vn 0.1232 0.4780 0.8697
vn -0.0086 0.9433 0.3318
vn 0.5464 0.4237 -0.7224
vn -0.1827 0.8790 0.4404
vn 0.6016 0.6644 0.4434
vn -0.0170 0.2050 -0.9786
vn -0.0020 0.0314 0.9995
vn 0.2525 0.2264 -0.9407
vn 0.7807 0.3890 0.4891
vn -0.0038 0.4292 -0.9032
vn 0.2949 0.1395 0.9453
vn -0.1101 0.1185 -0.9868
vn -0.9742 -0.0903 -0.2067
vn 0.4600 0.2510 -0.8517
vn 0.5778 0.6349 0.5130
vn 0.8665 0.4992 -0.0041
vn -0.0951 0.8940 -0.4378
vn 0.1892 0.0185 -0.9818
vn 0.6258 0.6191 0.4744
vn -0.4265 0.4039 0.8093
vn -0.1217 0.8004 0.5869
vn 0.3947 0.3096 0.8651
vn -0.0777 0.3530 -0.9324
vn 0.3386 0.0940 -0.9362
vn 0.7808 0.3958 -0.4835
vn 0.8066 0.5780 0.1235
vn 0.6280 0.4960 0.5996
vn 0.1669 -0.2944 0.9410
vn 0.0539 -0.0858 -0.9949
vn -0.6790 0.4380 -0.5891
vn -0.0204 0.2709 0.9624
vn -0.0216 0.9315 -0.3632
vn 0.0549 0.6511 0.7570
vn 0.7705 0.5172 0.3726
vn 0.4888 0.8420 0.2283
vn -0.0000 0.2644 0.9644
vn -0.0000 0.2529 0.9675
vn -0.0000 0.2671 0.9637
vn 0.5992 0.7477 0.2862
vn 0.0115 0.3731 -0.9277
vn 0.8606 -0.1417 -0.4892
vn 0.8424 0.0385 -0.5375
vn -0.8592 -0.1411 0.4919
vn 0.1465 0.2152 -0.9655
vn 0.9465 0.2139 0.2418
vn 0.4692 0.6218 0.6270
vn -0.3115 0.9199 0.2383
vn -0.0956 0.7526 -0.6515
vn -0.1201 -0.1668 -0.9786
vn 0.9484 -0.3135 0.0485
vn 0.6770 -0.6735 -0.2968
vn 0.6999 0.6821 -0.2118
vn -0.4109 0.8937 0.1804
vn 0.5406 0.8360 -0.0945
vn 0.0564 0.9897 -0.1315
vn 0.6237 0.2959 0.7234
vn 0.5787 0.1940 -0.7921
vn 0.4200 -0.6755 0.6061
vn 0.4429 0.4590 0.7702
vn 0.1889 0.4608 0.8672
vn 0.0362 0.3087 -0.9505
vn 0.0705 0.1079 -0.9917
vn 0.9898 0.0884 -0.1121
vn 0.8703 0.4923 0.0106
vn 0.4163 0.4917 -0.7648
vn 0.6703 0.3072 -0.6755
vn 0.9109 0.0691 0.4069
vn -0.5010 0.5280 0.6857
vn 0.5419 0.5962 0.5924
vn 0.8989 0.2325 -0.3713
vn -0.0000 -0.2128 -0.9771
vn -0.5849 0.8002 -0.1326
vn 0.1166 0.2646 -0.9573
vn 0.1015 -0.6135 -0.7832
vn -0.2253 0.6273 -0.7454
vn -0.0000 -0.1872 -0.9823
vn -0.0000 -0.2284 -0.9736
vn 0.8879 0.2096 0.4094
vn -0.2223 0.9527 -0.2074
vn 0.0702 0.8460 -0.5285
vn 0.3675 0.8306 -0.4183
vn 0.4826 0.8758 -0.0017
vn 0.2285 0.8414 -0.4896
vn 0.2547 0.9379 -0.2357
vn 0.0008 0.8481 -0.5298
vn -0.2964 0.9288 -0.2222
vn 0.5818 0.8120 -0.0467
vn -0.2475 0.9546 -0.1655
vn 0.3580 0.9311 -0.0702
s 1
usemtl Liquid_Domain_Material
f 3//3 1//1 2//2
f 3//3 2//2 4//4
f 1//1 3//3 6//6
f 3//3 4//4 9//9
f 5//5 3//3 7//7
f 3//3 5//5 6//6
f 7//7 3//3 9//9
f 9//9 4//4 8//8
f 8//8 4//4 11//11
f 4//4 2//2 11//11
f 9//9 8//8 16//16
f 13//13 12//12 14//14
f 12//12 19//19 14//14
f 13//13 29//29 12//12
f 15//15 29//29 13//13
f 14//14 17//17 13//13
f 8//8 11//11 18//18
f 14//14 19//19 22//22
f 20//20 9//9 21//21
f 21//21 9//9 16//16
f 13//13 17//17 15//15
f 17//17 14//14 21//21
f 12//12 40//40 19//19
f 20//20 22//22 19//19
f 14//14 22//22 21//21
f 23//23 15//15 17//17
f 11//11 2//2 25//25
f 19//19 26//26 20//20
f 20//20 26//26 9//9
f 21//21 22//22 20//20
f 15//15 23//23 32//32
f 1//1 27//27 2//2
f 28//28 17//17 21//21
f 16//16 8//8 33//33
f 17//17 28//28 23//23
f 40//40 26//26 19//19
f 7//7 9//9 26//26
f 21//21 16//16 33//33
f 33//33 8//8 24//24
f 28//28 34//34 23//23
f 18//18 24//24 8//8
f 40//40 12//12 29//29
f 21//21 33//33 28//28
f 33//33 24//24 28//28
f 28//28 24//24 34//34
f 37//37 23//23 34//34
f 24//24 37//37 34//34
f 47//47 24//24 18//18
f 18//18 11//11 49//49
f 5//5 39//39 6//6
f 35//35 45//45 30//30
f 31//31 30//30 45//45
f 30//30 31//31 35//35
f 43//43 42//42 36//36
f 24//24 47//47 37//37
f 2//2 38//38 25//25
f 26//26 40//40 44//44
f 26//26 5//5 7//7
f 29//29 15//15 41//41
f 11//11 25//25 49//49
f 38//38 2//2 55//55
f 46//46 40//40 29//29
f 45//45 35//35 26//26
f 46//46 29//29 41//41
f 45//45 56//56 31//31
f 32//32 51//51 15//15
f 42//42 43//43 48//48
f 47//47 49//49 37//37
f 47//47 18//18 50//50
f 18//18 49//49 50//50
f 26//26 44//44 45//45
f 5//5 26//26 56//56
f 56//56 26//26 35//35
f 35//35 31//31 56//56
f 15//15 51//51 41//41
f 43//43 36//36 48//48
f 48//48 36//36 52//52
f 32//32 37//37 51//51
f 37//37 32//32 23//23
f 49//49 58//58 37//37
f 49//49 59//59 58//58
f 50//50 49//49 64//64
f 49//49 54//54 59//59
f 49//49 25//25 54//54
f 2//2 72//72 55//55
f 25//25 38//38 89//89
f 45//45 44//44 56//56
f 42//42 48//48 76//76
f 49//49 47//47 63//63
f 64//64 49//49 63//63
f 40//40 46//46 61//61
f 42//42 62//62 36//36
f 41//41 51//51 67//67
f 36//36 62//62 52//52
f 52//52 85//85 48//48
f 53//53 57//57 80//80
f 78//78 37//37 58//58
f 63//63 47//47 50//50
f 57//57 53//53 60//60
f 1//1 6//6 65//65
f 40//40 61//61 44//44
f 46//46 41//41 66//66
f 74//74 46//46 66//66
f 42//42 76//76 62//62
f 69//69 70//70 68//68
f 48//48 85//85 71//71
f 78//78 51//51 37//37
f 63//63 50//50 64//64
f 2//2 27//27 10//10
f 2//2 93//93 72//72
f 5//5 56//56 73//73
f 56//56 44//44 81//81
f 67//67 66//66 75//75
f 66//66 41//41 75//75
f 48//48 98//98 76//76
f 67//67 77//77 66//66
f 51//51 77//77 67//67
f 85//85 79//79 71//71
f 58//58 59//59 99//99
f 88//88 54//54 25//25
f 89//89 88//88 25//25
f 56//56 81//81 73//73
f 74//74 66//66 82//82
f 66//66 83//83 82//82
f 75//75 83//83 67//67
f 98//98 48//48 71//71
f 85//85 52//52 62//62
f 51//51 78//78 77//77
f 77//77 80//80 57//57
f 58//58 99//99 78//78
f 80//80 78//78 53//53
f 78//78 60//60 53//53
f 54//54 88//88 92//92
f 44//44 61//61 81//81
f 41//41 82//82 75//75
f 67//67 82//82 41//41
f 82//82 83//83 75//75
f 68//68 70//70 69//69
f 83//83 66//66 77//77
f 78//78 80//80 77//77
f 71//71 86//86 96//96
f 78//78 99//99 90//90
f 71//71 79//79 86//86
f 79//79 87//87 86//86
f 60//60 78//78 90//90
f 99//99 59//59 91//91
f 54//54 92//92 59//59
f 2//2 10//10 93//93
f 65//65 100//100 1//1
f 81//81 94//94 73//73
f 67//67 83//83 95//95
f 71//71 84//84 98//98
f 77//77 57//57 60//60
f 72//72 86//86 87//87
f 59//59 92//92 91//91
f 55//55 115//115 38//38
f 6//6 39//39 65//65
f 101//101 5//5 73//73
f 46//46 97//97 61//61
f 1//1 100//100 27//27
f 67//67 95//95 82//82
f 98//98 117//117 76//76
f 95//95 83//83 77//77
f 104//104 85//85 62//62
f 85//85 104//104 79//79
f 90//90 110//110 77//77
f 60//60 90//90 77//77
f 104//104 87//87 79//79
f 5//5 101//101 39//39
f 81//81 61//61 106//106
f 97//97 46//46 74//74
f 102//102 97//97 74//74
f 82//82 102//102 74//74
f 71//71 96//96 84//84
f 99//99 91//91 114//114
f 87//87 55//55 72//72
f 86//86 72//72 93//93
f 89//89 38//38 113//113
f 61//61 97//97 105//105
f 81//81 106//106 107//107
f 106//106 61//61 105//105
f 94//94 81//81 107//107
f 82//82 95//95 119//119
f 76//76 117//117 62//62
f 108//108 109//109 103//103
f 119//119 95//95 110//110
f 98//98 84//84 116//116
f 95//95 77//77 110//110
f 110//110 90//90 99//99
f 121//121 96//96 86//86
f 112//112 87//87 104//104
f 91//91 115//115 114//114
f 112//112 55//55 87//87
f 111//111 38//38 115//115
f 92//92 88//88 89//89
f 73//73 94//94 101//101
f 82//82 119//119 102//102
f 117//117 118//118 62//62
f 62//62 118//118 104//104
f 112//112 115//115 55//55
f 91//91 111//111 115//115
f 113//113 92//92 89//89
f 113//113 38//38 111//111
f 101//101 65//65 39//39
f 98//98 116//116 117//117
f 109//109 108//108 103//103
f 118//118 120//120 104//104
f 110//110 99//99 114//114
f 104//104 120//120 112//112
f 96//96 121//121 27//27
f 115//115 112//112 120//120
f 93//93 10//10 121//121
f 86//86 93//93 121//121
f 92//92 111//111 91//91
f 100//100 116//116 27//27
f 65//65 117//117 100//100
f 105//105 97//97 65//65
f 107//107 105//105 65//65
f 101//101 107//107 65//65
f 107//107 106//106 105//105
f 94//94 107//107 101//101
f 117//117 116//116 100//100
f 118//118 117//117 65//65
f 65//65 97//97 102//102
f 65//65 119//119 118//118
f 102//102 119//119 65//65
f 84//84 27//27 116//116
f 119//119 120//120 118//118
f 114//114 120//120 119//119
f 110//110 114//114 119//119
f 84//84 96//96 27//27
f 114//114 115//115 120//120
f 121//121 10//10 27//27
f 111//111 92//92 113//113
