# Blender 4.1.1
# www.blender.org
mtllib aa0383.mtl
o Liquid_Domain
v -8.134167 -8.755833 6.217273
v -8.476594 -9.103994 5.869547
v 8.471398 -9.099147 5.875058
v -8.478944 -9.097434 -5.870610
v 8.484191 -9.104630 -5.864129
v -8.134167 -8.755833 -6.217273
v 8.134167 -8.755833 -6.217273
v -8.455604 7.057301 -6.043853
v 1.757025 6.747166 6.199059
v -0.982857 0.087796 -6.190602
v 8.134167 -8.755833 6.217273
v -4.695263 6.960970 6.187330
v -8.445134 2.387620 0.356037
v -5.884536 -1.162252 -2.729035
v -6.636171 -0.418779 -3.746463
v 8.437016 6.793367 6.187252
v -3.551097 0.392446 -1.760927
v -7.113900 0.287562 -0.945519
v -6.311016 0.966089 0.294578
v -6.234921 -0.344985 -1.687751
v -5.196796 1.009139 -1.071815
v -3.710589 0.370548 -3.539002
v 6.805232 6.747395 -6.148386
v 8.439725 5.622441 -1.345941
v -6.672629 2.882001 -3.629234
v -2.301381 0.977790 -3.308666
v -5.694762 0.978821 -4.151097
v -2.505975 0.355049 -5.623862
v -1.440289 1.991637 -5.542865
v -5.163195 0.670853 -6.133179
v 6.428619 0.818220 -2.376760
v -4.881666 1.173980 -5.206379
v -6.827699 1.253824 4.555246
v -7.146430 2.480878 -1.403308
v 4.538428 1.447886 -2.114115
v -4.691967 3.329320 -1.818028
v 8.399914 4.842438 -6.164901
v -5.583955 3.918467 -5.364285
v -7.374776 2.947644 3.263570
v -6.626750 1.178552 3.632599
v 7.464046 2.530106 -1.141551
v 5.760252 2.210071 -3.495201
v -2.381689 3.414810 -3.211866
v -6.051388 2.801881 4.618937
v 6.214932 2.223792 4.413215
v -6.598899 2.185689 0.171909
v -6.033461 3.423745 0.845104
v -4.330922 3.806307 -2.636048
v -8.420959 6.654124 6.152765
v 6.994839 2.716250 3.697946
v 5.384130 2.556770 1.986813
v 6.812119 2.035504 0.707192
v -7.325999 4.093477 0.469172
v 2.476862 2.562160 1.428598
v -1.207716 3.177299 -6.131629
v 4.260699 3.514721 1.913961
v 0.857730 3.793915 1.528580
v -7.115373 3.955254 -1.330646
v 3.377449 2.625805 -1.178102
v 6.697351 4.446674 -2.635811
v 5.389940 2.389687 -3.945324
v -6.901752 3.969193 4.918140
v 7.357123 6.693089 4.437572
v 5.464220 3.889380 4.191282
v -6.352453 4.586932 0.896459
v -8.422356 7.116543 5.204193
v 7.396955 6.191814 0.715875
v 1.528139 3.400187 -4.099674
v 5.981343 3.820251 -4.993152
v -5.593130 4.983194 -6.083694
v -5.968668 4.267621 -2.251204
v -4.784027 5.320048 3.652466
v 2.303761 4.031524 -1.282606
v -3.393304 4.264127 -4.013128
v -3.451139 4.792570 -5.782590
v 1.698618 4.149005 -4.934389
v -2.240620 5.061792 -6.179909
v 0.067890 4.993987 -6.025887
v 2.047311 6.836792 -6.164273
v 6.707930 6.842786 4.862686
v 8.416551 6.787071 2.412556
v 4.789778 4.603560 2.691716
v -5.073271 5.115561 0.295827
v 0.800705 4.963903 -3.877300
v 1.567427 4.995656 -3.603164
v 8.084010 6.515814 -4.544964
v 1.357604 4.926031 2.090858
v -0.243884 4.500406 0.670205
v -8.408147 6.553991 0.630602
v 3.460054 5.028023 -4.970189
v 7.174637 6.307725 -5.321437
v -4.975734 6.594138 4.877125
v -7.255595 6.434970 3.998471
v 3.912967 4.757547 4.400690
v -0.051297 5.303174 -1.807591
v -5.940604 5.842901 0.242024
v 7.362210 6.513597 -2.649671
v -0.490824 5.395204 -5.361044
v 3.625190 6.237622 -5.314373
v 2.119164 5.904914 4.241210
v -6.141759 5.711421 -3.908046
v 2.911937 6.437586 -3.958186
v -3.574741 7.036619 2.741633
v -2.089442 6.030394 -1.072393
v -3.872946 6.270612 -3.190441
v -1.236473 6.428292 -4.402255
v 3.592674 6.831183 -6.011666
v 0.993633 6.943674 -4.996079
v -5.262877 6.453192 -6.137208
v 4.992923 6.604336 4.516906
v -7.553720 6.428821 1.091885
v -4.772200 6.733706 0.545713
v 7.949988 6.886948 -0.800177
v -2.714830 6.788803 -5.739808
v -6.340050 6.856353 -5.324142
v -0.840901 6.889687 4.726178
v -0.848090 6.823219 2.186036
v -2.475498 7.063925 0.443291
v -8.081469 7.049736 -0.579440
v -6.910619 6.949808 -2.683151
vn -0.2790 -0.2865 0.9166
vn -0.6213 -0.6523 0.4342
vn 0.6207 -0.6525 0.4347
vn -0.6224 -0.6511 -0.4344
vn 0.6223 -0.6521 -0.4330
vn -0.2781 -0.2868 -0.9167
vn 0.2771 -0.2885 -0.9165
vn -0.4779 0.5596 -0.6771
vn 0.0169 0.6018 0.7985
vn -0.0909 0.0985 -0.9910
vn 0.2781 -0.2868 0.9167
vn -0.0188 0.6360 0.7715
vn -1.0000 0.0045 0.0020
vn 0.1153 0.9921 0.0498
vn 0.4541 0.5381 0.7101
vn 0.5057 0.5278 0.6824
vn -0.6131 0.3662 -0.7000
vn 0.7788 0.5594 -0.2838
vn -0.0086 0.2249 -0.9743
vn 0.3633 0.8239 -0.4350
vn -0.5437 0.2171 -0.8107
vn -0.2285 0.9478 0.2224
vn 0.2674 0.7293 -0.6297
vn 0.9835 0.1798 -0.0218
vn 0.8982 -0.1642 0.4078
vn -0.7634 0.4241 -0.4873
vn 0.3652 0.4338 0.8236
vn -0.1629 0.9240 -0.3460
vn -0.8531 -0.0422 -0.5200
vn 0.1868 0.2238 -0.9566
vn -0.3609 0.8413 0.4024
vn 0.6852 0.7279 0.0267
vn 0.1400 0.7268 -0.6724
vn 0.9983 0.0130 -0.0566
vn 0.3967 0.9179 0.0093
vn -0.7813 -0.3932 -0.4847
vn 0.5912 0.1841 -0.7852
vn 0.9383 -0.3285 -0.1080
vn 0.9824 0.1812 -0.0448
vn -0.0695 0.9875 0.1416
vn -0.9567 0.2335 0.1737
vn -0.5014 0.5193 0.6921
vn -0.6253 -0.3865 -0.6780
vn -0.6504 0.2938 -0.7005
vn 0.0517 0.6288 -0.7758
vn 0.2743 0.6664 -0.6933
vn -0.9318 0.2044 -0.3000
vn -0.4115 -0.7496 -0.5185
vn -0.5253 0.3849 0.7589
vn -0.8418 0.4316 -0.3241
vn 0.4518 0.8230 -0.3443
vn -0.3196 0.9299 -0.1818
vn 0.9695 -0.0151 0.2446
vn 0.3218 0.7805 -0.5360
vn -0.2057 -0.1060 -0.9729
vn 0.2393 0.3324 -0.9123
vn 0.5633 0.5742 -0.5942
vn 0.8916 -0.3884 0.2329
vn 0.5649 0.8136 -0.1374
vn -0.9510 0.2551 0.1744
vn -0.2801 0.7183 0.6369
vn 0.4099 0.0391 -0.9113
vn -0.4677 0.8013 -0.3731
vn 0.5687 0.3791 -0.7300
vn -0.8132 0.3588 -0.4582
vn -0.6074 0.7944 0.0061
vn -0.9627 0.2705 -0.0006
vn 0.7066 0.6100 0.3586
vn -0.3204 0.4532 0.8319
vn 0.1399 -0.1848 -0.9728
vn 0.1064 -0.9471 0.3027
vn -0.8654 0.4757 -0.1575
vn 0.6718 0.7354 0.0891
vn -0.1650 -0.9325 -0.3214
vn -0.2367 -0.8043 -0.5451
vn 0.5262 0.0182 0.8502
vn 0.0328 0.0795 -0.9963
vn -0.2615 0.4291 -0.8646
vn -0.1444 0.5776 -0.8034
vn -0.0771 0.8012 -0.5934
vn 0.6705 0.7419 0.0100
vn 0.5115 0.7444 -0.4293
vn -0.9591 0.0729 0.2734
vn 0.1945 0.7602 0.6199
vn 0.0648 -0.0610 0.9960
vn 0.2559 0.9623 -0.0921
vn 0.4257 0.5778 -0.6964
vn 0.6099 0.7519 -0.2504
vn -0.6925 0.7035 0.1598
vn 0.3883 -0.2713 0.8807
vn 0.1238 0.8808 0.4569
vn -0.3451 0.7488 -0.5658
vn 0.6766 0.5835 -0.4491
vn 0.2559 0.5443 -0.7989
vn 0.4394 0.8762 0.1982
vn 0.0912 -0.4102 0.9074
vn -0.7137 0.6858 -0.1424
vn 0.0380 0.8653 -0.4999
vn -0.4680 0.4759 0.7446
vn 0.2499 0.5870 -0.7701
vn 0.2864 0.9497 0.1265
vn 0.3775 0.4073 0.8316
vn -0.3875 0.9216 -0.0220
vn 0.5084 0.8578 -0.0758
vn 0.0540 0.9979 -0.0353
vn 0.3785 0.9243 -0.0488
vn 0.0941 0.9798 0.1764
vn -0.4455 0.8711 0.2066
vn 0.0023 0.4263 -0.9046
vn 0.0927 0.4995 -0.8613
vn 0.6356 0.7699 0.0565
vn -0.3774 0.6225 0.6856
vn 0.1749 0.9842 -0.0276
vn 0.2164 0.7790 -0.5885
vn 0.1334 0.9910 -0.0091
vn 0.0983 0.9940 -0.0474
vn 0.3636 0.9031 -0.2284
vn 0.3162 0.9263 -0.2048
vn -0.3823 0.9152 0.1272
vn 0.1650 0.9744 -0.1527
s 1
usemtl Liquid_Domain_Material
f 2//2 3//3 1//1
f 1//1 3//3 11//11
f 3//3 2//2 4//4
f 3//3 4//4 5//5
f 5//5 4//4 6//6
f 7//7 5//5 6//6
f 1//1 11//11 9//9
f 6//6 10//10 7//7
f 13//13 8//8 4//4
f 4//4 8//8 6//6
f 37//37 5//5 7//7
f 1//1 9//9 12//12
f 2//2 13//13 4//4
f 6//6 30//30 10//10
f 11//11 16//16 9//9
f 14//14 15//15 20//20
f 3//3 5//5 16//16
f 17//17 14//14 20//20
f 15//15 14//14 27//27
f 5//5 37//37 24//24
f 10//10 30//30 28//28
f 19//19 20//20 18//18
f 20//20 21//21 17//17
f 14//14 17//17 22//22
f 27//27 14//14 22//22
f 20//20 19//19 21//21
f 25//25 18//18 20//20
f 20//20 15//15 25//25
f 17//17 26//26 22//22
f 25//25 15//15 27//27
f 26//26 28//28 22//22
f 28//28 32//32 22//22
f 28//28 30//30 32//32
f 28//28 29//29 10//10
f 7//7 10//10 23//23
f 27//27 22//22 32//32
f 16//16 5//5 24//24
f 34//34 19//19 18//18
f 36//36 17//17 21//21
f 52//52 31//31 35//35
f 18//18 25//25 34//34
f 26//26 29//29 28//28
f 40//40 39//39 33//33
f 19//19 34//34 46//46
f 19//19 46//46 21//21
f 52//52 35//35 59//59
f 31//31 42//42 35//35
f 26//26 48//48 43//43
f 26//26 43//43 29//29
f 30//30 38//38 32//32
f 2//2 1//1 49//49
f 2//2 49//49 13//13
f 33//33 44//44 40//40
f 46//46 39//39 40//40
f 47//47 40//40 44//44
f 46//46 40//40 47//47
f 52//52 41//41 31//31
f 17//17 36//36 48//48
f 26//26 17//17 48//48
f 35//35 42//42 61//61
f 6//6 8//8 30//30
f 7//7 23//23 37//37
f 1//1 12//12 49//49
f 33//33 39//39 62//62
f 45//45 52//52 51//51
f 50//50 52//52 45//45
f 39//39 46//46 53//53
f 52//52 50//50 41//41
f 51//51 59//59 54//54
f 52//52 59//59 51//51
f 21//21 46//46 36//36
f 27//27 32//32 25//25
f 10//10 29//29 55//55
f 23//23 10//10 55//55
f 56//56 51//51 54//54
f 58//58 53//53 46//46
f 57//57 54//54 59//59
f 58//58 46//46 34//34
f 42//42 31//31 41//41
f 60//60 42//42 41//41
f 61//61 68//68 35//35
f 50//50 45//45 63//63
f 45//45 51//51 64//64
f 51//51 56//56 82//82
f 44//44 65//65 47//47
f 16//16 24//24 81//81
f 59//59 73//73 57//57
f 59//59 35//35 68//68
f 60//60 61//61 42//42
f 61//61 76//76 68//68
f 69//69 76//76 61//61
f 38//38 25//25 32//32
f 30//30 8//8 70//70
f 70//70 38//38 30//30
f 33//33 62//62 44//44
f 49//49 66//66 13//13
f 57//57 56//56 54//54
f 47//47 36//36 46//46
f 58//58 34//34 25//25
f 68//68 73//73 59//59
f 71//71 25//25 38//38
f 64//64 51//51 82//82
f 44//44 72//72 65//65
f 50//50 63//63 41//41
f 88//88 57//57 73//73
f 41//41 67//67 60//60
f 71//71 58//58 25//25
f 48//48 36//36 71//71
f 13//13 89//89 8//8
f 48//48 71//71 38//38
f 74//74 43//43 48//48
f 68//68 84//84 73//73
f 74//74 48//48 38//38
f 75//75 43//43 74//74
f 74//74 38//38 70//70
f 43//43 75//75 29//29
f 55//55 29//29 75//75
f 55//55 75//75 77//77
f 55//55 78//78 79//79
f 16//16 11//11 3//3
f 45//45 64//64 80//80
f 45//45 80//80 63//63
f 82//82 94//94 64//64
f 87//87 82//82 56//56
f 63//63 67//67 41//41
f 56//56 57//57 87//87
f 36//36 47//47 83//83
f 47//47 65//65 83//83
f 68//68 85//85 84//84
f 85//85 68//68 76//76
f 60//60 86//86 61//61
f 61//61 86//86 69//69
f 55//55 77//77 78//78
f 44//44 62//62 92//92
f 94//94 82//82 87//87
f 66//66 89//89 13//13
f 88//88 73//73 95//95
f 83//83 96//96 36//36
f 58//58 71//71 96//96
f 71//71 36//36 96//96
f 73//73 84//84 95//95
f 60//60 97//97 86//86
f 69//69 91//91 76//76
f 76//76 91//91 90//90
f 74//74 70//70 75//75
f 78//78 77//77 98//98
f 92//92 62//62 93//93
f 64//64 94//94 80//80
f 83//83 65//65 72//72
f 88//88 87//87 57//57
f 58//58 96//96 53//53
f 95//95 104//104 88//88
f 95//95 84//84 106//106
f 90//90 85//85 76//76
f 55//55 79//79 23//23
f 94//94 110//110 80//80
f 62//62 39//39 93//93
f 93//93 39//39 53//53
f 94//94 87//87 100//100
f 96//96 111//111 53//53
f 84//84 98//98 106//106
f 85//85 90//90 102//102
f 86//86 91//91 69//69
f 91//91 99//99 90//90
f 75//75 70//70 77//77
f 70//70 109//109 77//77
f 98//98 77//77 114//114
f 23//23 79//79 107//107
f 44//44 92//92 72//72
f 93//93 53//53 111//111
f 88//88 118//118 87//87
f 104//104 118//118 88//88
f 67//67 97//97 60//60
f 104//104 95//95 106//106
f 102//102 84//84 85//85
f 98//98 114//114 106//106
f 100//100 117//117 116//116
f 72//72 103//103 83//83
f 100//100 87//87 117//117
f 83//83 112//112 96//96
f 106//106 105//105 104//104
f 24//24 37//37 86//86
f 98//98 84//84 108//108
f 107//107 102//102 90//90
f 90//90 99//99 107//107
f 98//98 108//108 78//78
f 37//37 23//23 91//91
f 37//37 91//91 86//86
f 70//70 8//8 109//109
f 77//77 109//109 114//114
f 94//94 100//100 110//110
f 110//110 100//100 116//116
f 92//92 103//103 72//72
f 83//83 103//103 112//112
f 87//87 118//118 117//117
f 111//111 96//96 89//89
f 96//96 112//112 89//89
f 81//81 24//24 113//113
f 104//104 105//105 118//118
f 97//97 67//67 113//113
f 105//105 101//101 120//120
f 113//113 24//24 86//86
f 106//106 114//114 105//105
f 115//115 120//120 101//101
f 101//101 105//105 115//115
f 102//102 108//108 84//84
f 78//78 108//108 79//79
f 66//66 49//49 12//12
f 9//9 116//116 12//12
f 16//16 80//80 9//9
f 12//12 92//92 66//66
f 9//9 110//110 116//116
f 80//80 110//110 9//9
f 16//16 63//63 80//80
f 81//81 63//63 16//16
f 92//92 93//93 66//66
f 116//116 103//103 12//12
f 12//12 103//103 92//92
f 93//93 111//111 66//66
f 81//81 113//113 63//63
f 111//111 89//89 66//66
f 116//116 117//117 103//103
f 63//63 113//113 67//67
f 117//117 118//118 103//103
f 103//103 118//118 112//112
f 112//112 119//119 89//89
f 118//118 119//119 112//112
f 118//118 120//120 119//119
f 105//105 120//120 118//118
f 86//86 97//97 113//113
f 120//120 8//8 119//119
f 115//115 8//8 120//120
f 89//89 119//119 8//8
f 115//115 105//105 114//114
f 107//107 108//108 102//102
f 109//109 8//8 115//115
f 114//114 109//109 115//115
f 107//107 79//79 108//108
f 91//91 107//107 99//99
f 23//23 107//107 91//91
