# Blender 4.1.1
# www.blender.org
mtllib aa0333.mtl
o Liquid_Domain
v -8.473106 -9.083677 6.209474
v 8.468826 -9.096875 6.193777
v -8.450005 -9.092797 -6.201653
v 8.439737 -9.082538 -6.209418
v 8.380617 -1.082796 -2.668601
v 8.342179 0.449400 -6.176304
v -8.437097 6.879383 -0.071678
v -8.362114 7.008874 6.109474
v 8.442842 7.046865 6.086209
v 3.339321 -0.724781 3.665027
v 2.699549 -1.318102 2.080340
v 8.367995 0.356859 0.533064
v -5.546920 -0.623470 -0.000867
v 4.815074 6.475441 6.186915
v 1.958800 0.059755 4.233253
v 4.953594 -0.945429 0.210138
v -5.932268 -1.620064 -1.036519
v -2.556383 -0.104147 -2.347332
v -5.061172 -1.174011 -2.943927
v -8.389501 6.217847 -6.150624
v 4.496882 0.915022 2.906062
v 4.923660 -0.327824 1.933458
v 7.781089 -0.627141 -0.381878
v -6.331933 2.107548 -0.029005
v -6.983421 0.955950 -0.372611
v -5.850439 0.068734 -4.967400
v 6.239564 0.137862 4.323275
v 7.746161 0.646102 2.469654
v 5.118850 1.865084 -0.552200
v -2.479779 0.814772 -5.187599
v -2.274897 2.001734 -6.127143
v 3.963433 1.566188 -6.166815
v 2.601817 1.053715 2.030664
v -6.956773 1.898720 -2.986337
v -3.692919 2.197561 -2.571087
v 7.134053 -0.566703 -2.117534
v 4.920552 2.916970 4.730577
v 5.275070 1.602107 1.012233
v 8.225131 1.403062 -0.776684
v 6.714293 1.754966 3.747400
v 7.790019 1.080737 -0.473134
v 8.330335 1.682139 -2.415524
v 7.750518 2.175661 -5.704031
v -3.442363 3.916980 -6.108193
v 5.063730 2.082835 1.949646
v 3.195217 2.043423 0.661902
v -6.221284 1.968272 -5.244485
v 7.570512 1.872181 -3.358529
v -1.669509 3.102557 -4.523655
v 3.062618 2.200845 -5.563233
v 0.691688 3.479733 1.867303
v 6.034551 4.329605 3.211770
v 8.280091 2.995735 0.146955
v 2.803567 1.712897 -0.360523
v 2.562249 2.496318 -2.554553
v 6.420055 3.386060 -3.757251
v 8.481651 2.952233 -5.874051
v 0.205104 2.941767 -6.154152
v 7.120050 3.179882 1.204928
v 7.837583 3.825039 -1.010929
v 5.339990 2.990217 -3.869222
v -7.599136 2.171256 -4.262362
v -2.712834 3.856313 -5.507185
v 3.038654 4.475604 4.789368
v 7.039614 3.188548 4.671281
v 4.998231 3.223251 0.023402
v -6.681665 5.472867 -2.360864
v 1.260170 3.331057 -4.192913
v 8.000679 3.525144 -4.001956
v -1.900183 3.066078 -5.835728
v 1.523643 3.063100 -5.607057
v 6.297896 3.857828 -1.663649
v -4.970289 4.595008 -5.630327
v 1.935143 3.731319 -6.059282
v -0.098281 5.105697 -5.491857
v 4.587029 4.256938 3.281034
v 1.151676 3.935713 4.313761
v 6.305968 4.505980 0.504974
v -6.429420 4.510735 0.762280
v -7.076112 5.036417 0.433892
v 0.713226 4.144258 -1.402793
v -7.001627 5.816061 -5.436285
v -2.542931 7.040961 6.175938
v 1.219064 5.120145 0.481222
v 4.766463 4.654523 -1.470843
v -3.715942 5.639090 -0.686472
v 5.574314 4.967597 -4.640900
v -2.476676 5.532472 -2.970123
v 5.061975 4.112920 4.898755
v 8.276998 6.767519 -0.644249
v -1.041139 4.684034 -4.862315
v 1.202638 4.925580 -5.194219
v 3.033200 5.449159 -6.073774
v -6.500254 4.566792 3.339423
v -1.193876 5.338999 2.865105
v 7.209301 5.517256 1.832404
v 6.235383 4.421933 -6.010918
v -2.050905 5.099341 -5.916723
v -4.868166 5.035547 4.708679
v 2.430339 6.160527 1.622409
v 5.648406 5.204434 -2.799046
v 3.418301 5.893426 -5.305732
v 0.621363 6.956972 -6.054531
v 8.362525 6.949671 -6.151403
v 5.622954 6.755649 5.981312
v -6.787610 6.587420 4.904113
v 7.687663 6.641632 5.019510
v 4.397429 5.208961 3.065174
v 2.345556 6.021616 -0.051254
v 7.996430 5.991778 0.556828
v 2.249721 6.475543 -0.950686
v -7.249321 6.780308 -0.195092
v 8.295283 6.292219 -1.797735
v -3.144234 6.905118 4.630150
v 8.236457 7.136724 1.804242
v 4.273078 6.941861 -5.787043
v 0.805145 6.664302 -4.992896
v -7.908493 6.704430 -4.038410
v 2.433956 6.954731 3.726268
v 2.764845 6.912601 1.595405
v -1.162974 7.136055 -1.512713
v 4.172806 6.763057 5.082692
vn -0.5035 -0.5220 0.6885
vn 0.5052 -0.5232 0.6863
vn -0.5017 -0.5219 -0.6899
vn 0.5033 -0.5202 -0.6900
vn 0.9364 0.2991 0.1835
vn 0.6020 0.1842 -0.7769
vn -0.6604 0.7506 -0.0213
vn -0.4956 0.5699 0.6554
vn 0.4797 0.6154 0.6254
vn -0.3404 0.7671 -0.5438
vn 0.1363 0.6853 0.7154
vn 0.7851 0.0516 -0.6172
vn -0.1078 0.3207 -0.9410
vn 0.0178 0.2523 0.9675
vn 0.4952 0.4803 -0.7239
vn 0.6625 0.7350 0.1448
vn 0.3132 0.9181 -0.2430
vn -0.8065 0.3775 -0.4550
vn 0.1721 0.9289 0.3279
vn -0.3961 0.5572 -0.7298
vn -0.0312 0.9994 0.0142
vn 0.7961 0.5868 -0.1479
vn -0.3862 0.9010 -0.1975
vn -0.2052 0.1264 -0.9705
vn 0.8029 0.2047 -0.5598
vn 0.3617 0.5956 0.7172
vn -0.0208 0.2979 -0.9544
vn -0.9070 -0.0256 -0.4203
vn 0.8014 0.4673 -0.3733
vn -0.4538 0.5089 0.7315
vn 0.0149 0.2019 -0.9793
vn 0.0594 0.3003 -0.9520
vn 0.3091 0.5310 0.7890
vn 0.9578 0.2680 -0.1036
vn -0.6745 -0.0636 -0.7355
vn 0.5116 0.7166 0.4740
vn 0.0018 0.1879 -0.9822
vn 0.8150 -0.5573 -0.1587
vn 0.4838 0.8749 0.0220
vn -0.7735 -0.0352 -0.6329
vn -0.8260 -0.3277 -0.4587
vn 0.7483 -0.6162 -0.2456
vn 0.4199 0.0322 -0.9070
vn 0.0361 0.1391 -0.9896
vn -0.5164 0.2185 0.8280
vn 0.1514 0.9392 0.3082
vn 0.3052 0.1646 0.9380
vn 0.6413 -0.0911 0.7619
vn -0.9308 0.2305 -0.2837
vn 0.4448 0.8951 0.0296
vn 0.7371 0.5102 0.4432
vn -0.9487 0.3137 0.0393
vn 0.5781 -0.1293 -0.8056
vn 0.3114 0.9197 -0.2390
vn 0.1127 0.9671 0.2280
vn -0.9269 -0.1822 0.3281
vn 0.6266 -0.3084 -0.7158
vn 0.0961 0.2076 -0.9735
vn -0.1200 -0.6642 -0.7378
vn 0.6159 -0.7452 0.2557
vn -0.0126 0.9919 0.1264
vn 0.9419 0.2728 0.1962
vn -0.0075 0.0008 1.0000
vn -0.0516 -0.3601 -0.9315
vn -0.7212 -0.0486 -0.6910
vn -0.9125 0.1081 -0.3945
vn 0.9659 0.2483 -0.0734
vn 0.8780 0.4598 -0.1331
vn 0.9650 -0.2259 0.1336
vn -0.7979 -0.2502 -0.5485
vn -0.2416 0.8097 0.5348
vn -0.0618 -0.9738 -0.2190
vn 0.2434 0.4585 0.8547
vn -0.1645 0.0336 -0.9858
vn -0.2495 0.1674 -0.9538
vn 0.2279 -0.3375 -0.9133
vn 0.5172 0.0335 -0.8552
vn -0.6658 0.7171 0.2061
vn 0.0715 0.8166 -0.5727
vn 0.9598 0.2103 -0.1860
vn 0.9994 0.0331 -0.0059
vn 0.6758 0.7355 0.0481
vn -0.0088 0.6201 0.7845
vn 0.9041 -0.0855 0.4186
vn -0.9227 0.3828 0.0467
vn -0.6173 0.6705 -0.4115
vn -0.7915 -0.5931 0.1478
vn -0.6176 0.5377 -0.5740
vn 0.2925 0.2243 -0.9296
vn 0.0900 0.8617 0.4994
vn -0.8208 0.5678 -0.0623
vn 0.7791 -0.3361 0.5292
vn 0.1809 -0.4078 -0.8950
vn 0.3629 0.9083 -0.2083
vn 0.9182 -0.2944 -0.2648
vn -0.7663 0.6318 -0.1167
vn -0.3062 -0.4194 -0.8546
vn -0.2071 0.8674 -0.4525
vn -0.3113 0.7250 -0.6144
vn 0.4729 -0.7845 -0.4011
vn -0.6170 0.7549 0.2224
vn -0.0170 -0.1470 0.9890
vn -0.2951 0.5761 -0.7623
vn 0.4860 0.5425 -0.6851
vn -0.0516 0.9964 -0.0673
vn 0.2359 0.8483 -0.4741
vn -0.5008 0.8244 -0.2638
vn 0.6149 -0.1563 -0.7729
vn 0.7707 -0.6109 -0.1811
vn 0.3048 0.8804 -0.3632
vn 0.9089 0.3874 -0.1542
vn 0.6536 0.7567 -0.0134
vn 0.5311 0.8116 0.2435
vn -0.2590 0.9467 -0.1917
vn 0.2190 0.9015 -0.3733
vn -0.1951 0.9192 -0.3419
vn 0.9770 0.0029 0.2130
vn 0.1482 0.9829 -0.1096
vn 0.2514 0.9645 -0.0809
vn 0.6895 0.6559 -0.3074
vn -0.2390 0.9516 -0.1933
vn 0.4171 0.8306 -0.3689
s 1
usemtl Liquid_Domain_Material
f 2//2 1//1 4//4
f 4//4 1//1 3//3
f 5//5 2//2 4//4
f 2//2 5//5 12//12
f 1//1 2//2 14//14
f 1//1 7//7 3//3
f 4//4 6//6 5//5
f 3//3 31//31 4//4
f 12//12 5//5 23//23
f 36//36 23//23 5//5
f 10//10 11//11 15//15
f 23//23 36//36 16//16
f 18//18 17//17 13//13
f 19//19 17//17 18//18
f 2//2 12//12 9//9
f 10//10 21//21 11//11
f 27//27 16//16 22//22
f 17//17 25//25 13//13
f 4//4 32//32 6//6
f 23//23 16//16 27//27
f 19//19 34//34 17//17
f 19//19 26//26 34//34
f 18//18 30//30 19//19
f 7//7 20//20 3//3
f 30//30 26//26 19//19
f 15//15 11//11 33//33
f 22//22 21//21 27//27
f 11//11 21//21 33//33
f 27//27 28//28 23//23
f 28//28 12//12 23//23
f 25//25 17//17 34//34
f 13//13 35//35 18//18
f 16//16 36//36 29//29
f 4//4 31//31 58//58
f 10//10 15//15 37//37
f 21//21 22//22 45//45
f 45//45 22//22 38//38
f 22//22 16//16 38//38
f 41//41 12//12 28//28
f 16//16 29//29 38//38
f 12//12 41//41 42//42
f 35//35 13//13 24//24
f 4//4 58//58 32//32
f 42//42 39//39 12//12
f 34//34 26//26 62//62
f 48//48 5//5 6//6
f 3//3 20//20 31//31
f 37//37 21//21 10//10
f 21//21 40//40 27//27
f 27//27 40//40 28//28
f 45//45 33//33 21//21
f 45//45 46//46 33//33
f 13//13 25//25 24//24
f 5//5 48//48 36//36
f 26//26 47//47 62//62
f 48//48 6//6 43//43
f 32//32 58//58 74//74
f 6//6 32//32 43//43
f 45//45 38//38 40//40
f 28//28 40//40 38//38
f 36//36 61//61 29//29
f 41//41 48//48 42//42
f 39//39 48//48 41//41
f 61//61 36//36 48//48
f 18//18 49//49 30//30
f 26//26 30//30 47//47
f 2//2 9//9 14//14
f 37//37 40//40 21//21
f 15//15 33//33 51//51
f 52//52 45//45 40//40
f 59//59 41//41 28//28
f 53//53 39//39 41//41
f 54//54 66//66 29//29
f 54//54 46//46 66//66
f 29//29 55//55 54//54
f 35//35 49//49 18//18
f 61//61 48//48 56//56
f 57//57 48//48 43//43
f 32//32 74//74 50//50
f 14//14 83//83 1//1
f 37//37 15//15 77//77
f 38//38 59//59 28//28
f 59//59 53//53 41//41
f 12//12 39//39 53//53
f 59//59 38//38 29//29
f 45//45 66//66 46//46
f 60//60 39//39 42//42
f 39//39 60//60 48//48
f 29//29 61//61 55//55
f 48//48 57//57 69//69
f 50//50 68//68 55//55
f 71//71 68//68 50//50
f 30//30 31//31 63//63
f 32//32 50//50 43//43
f 74//74 58//58 71//71
f 37//37 77//77 64//64
f 65//65 40//40 37//37
f 40//40 65//65 52//52
f 84//84 33//33 46//46
f 35//35 24//24 79//79
f 25//25 34//34 67//67
f 54//54 55//55 68//68
f 56//56 48//48 60//60
f 42//42 48//48 69//69
f 61//61 50//50 55//55
f 30//30 49//49 70//70
f 61//61 43//43 50//50
f 30//30 63//63 47//47
f 30//30 70//70 31//31
f 63//63 31//31 44//44
f 31//31 70//70 58//58
f 33//33 84//84 51//51
f 84//84 46//46 54//54
f 29//29 66//66 72//72
f 59//59 29//29 72//72
f 54//54 68//68 81//81
f 67//67 34//34 62//62
f 61//61 56//56 43//43
f 82//82 62//62 47//47
f 68//68 71//71 58//58
f 31//31 20//20 44//44
f 58//58 70//70 44//44
f 37//37 89//89 65//65
f 52//52 65//65 89//89
f 37//37 64//64 76//76
f 51//51 77//77 15//15
f 9//9 12//12 53//53
f 45//45 52//52 78//78
f 24//24 80//80 79//79
f 80//80 24//24 25//25
f 53//53 59//59 60//60
f 25//25 67//67 80//80
f 59//59 72//72 60//60
f 60//60 72//72 56//56
f 49//49 91//91 70//70
f 47//47 73//73 82//82
f 47//47 63//63 73//73
f 63//63 70//70 91//91
f 71//71 92//92 74//74
f 71//71 50//50 92//92
f 56//56 97//97 43//43
f 70//70 63//63 44//44
f 37//37 76//76 89//89
f 52//52 96//96 78//78
f 78//78 85//85 45//45
f 45//45 85//85 66//66
f 54//54 81//81 84//84
f 79//79 86//86 35//35
f 60//60 42//42 90//90
f 87//87 66//66 85//85
f 72//72 66//66 87//87
f 35//35 88//88 49//49
f 87//87 56//56 72//72
f 69//69 57//57 113//113
f 43//43 97//97 57//57
f 1//1 83//83 8//8
f 8//8 7//7 1//1
f 77//77 51//51 95//95
f 84//84 95//95 51//51
f 86//86 88//88 35//35
f 91//91 49//49 88//88
f 68//68 58//58 92//92
f 87//87 97//97 56//56
f 63//63 98//98 73//73
f 58//58 75//75 92//92
f 74//74 92//92 75//75
f 93//93 92//92 50//50
f 58//58 44//44 98//98
f 98//98 75//75 58//58
f 93//93 50//50 74//74
f 89//89 76//76 122//122
f 64//64 77//77 95//95
f 80//80 94//94 79//79
f 111//111 84//84 81//81
f 81//81 68//68 111//111
f 90//90 42//42 113//113
f 42//42 69//69 113//113
f 91//91 98//98 63//63
f 75//75 98//98 91//91
f 44//44 73//73 98//98
f 57//57 97//97 104//104
f 99//99 94//94 106//106
f 64//64 95//95 100//100
f 64//64 108//108 76//76
f 9//9 53//53 115//115
f 85//85 101//101 87//87
f 62//62 82//82 67//67
f 92//92 93//93 102//102
f 97//97 87//87 93//93
f 73//73 44//44 82//82
f 75//75 103//103 74//74
f 52//52 89//89 107//107
f 122//122 76//76 108//108
f 96//96 52//52 107//107
f 108//108 64//64 100//100
f 94//94 80//80 112//112
f 109//109 95//95 84//84
f 115//115 53//53 110//110
f 78//78 96//96 110//110
f 53//53 60//60 110//110
f 111//111 109//109 84//84
f 110//110 60//60 90//90
f 113//113 78//78 110//110
f 80//80 67//67 112//112
f 78//78 113//113 85//85
f 113//113 101//101 85//85
f 111//111 68//68 92//92
f 87//87 102//102 93//93
f 44//44 20//20 82//82
f 97//97 93//93 104//104
f 108//108 119//119 122//122
f 99//99 114//114 94//94
f 100//100 95//95 109//109
f 114//114 79//79 94//94
f 114//114 86//86 79//79
f 101//101 116//116 87//87
f 113//113 57//57 104//104
f 87//87 116//116 102//102
f 92//92 102//102 117//117
f 74//74 103//103 93//93
f 89//89 122//122 105//105
f 99//99 106//106 114//114
f 120//120 119//119 108//108
f 100//100 120//120 108//108
f 115//115 110//110 96//96
f 90//90 113//113 110//110
f 92//92 117//117 111//111
f 113//113 116//116 101//101
f 67//67 82//82 118//118
f 91//91 103//103 75//75
f 93//93 103//103 116//116
f 93//93 116//116 104//104
f 14//14 9//9 105//105
f 107//107 89//89 105//105
f 106//106 94//94 112//112
f 96//96 107//107 115//115
f 114//114 121//121 86//86
f 100//100 109//109 120//120
f 121//121 88//88 86//86
f 120//120 109//109 111//111
f 112//112 67//67 118//118
f 7//7 118//118 20//20
f 91//91 88//88 121//121
f 91//91 121//121 103//103
f 82//82 20//20 118//118
f 102//102 116//116 117//117
f 83//83 14//14 105//105
f 83//83 114//114 8//8
f 105//105 122//122 83//83
f 114//114 106//106 8//8
f 9//9 107//107 105//105
f 122//122 119//119 83//83
f 9//9 115//115 107//107
f 8//8 106//106 112//112
f 8//8 112//112 7//7
f 83//83 121//121 114//114
f 120//120 83//83 119//119
f 120//120 121//121 83//83
f 111//111 121//121 120//120
f 112//112 118//118 7//7
f 111//111 103//103 121//121
f 111//111 117//117 103//103
f 104//104 116//116 113//113
f 103//103 117//117 116//116
