# Blender 4.1.1
# www.blender.org
mtllib aa0349.mtl
o Liquid_Domain
v -8.134167 -8.755833 6.217273
v -8.483215 -9.103375 5.866358
v 8.438460 -9.091585 6.212777
v -8.472119 -9.099190 -5.874172
v 8.479243 -9.100617 -5.867945
v -8.134167 -8.755833 -6.217273
v 8.134167 -8.755833 -6.217273
v 8.478060 0.858535 -2.084226
v -8.461086 1.513833 -1.095030
v -3.686251 2.514645 -6.119310
v -5.942051 -1.822815 0.752997
v -6.744204 -1.581432 0.120976
v -6.355928 -1.675605 -2.329484
v -4.892117 -1.701838 -3.157808
v -5.006745 -0.877682 -0.824946
v -7.152123 -0.413125 -1.824969
v -4.426383 -0.216015 1.419467
v -2.514044 -0.784066 -0.003967
v -2.121007 -0.727617 -2.980659
v -1.834324 -0.143309 1.304284
v -5.396515 -0.034410 -4.118101
v -3.719954 0.252324 1.413621
v -6.818298 1.882881 0.970963
v -1.510813 1.239711 -0.562563
v -2.493004 -0.028371 -5.259937
v -2.065459 0.867871 1.861413
v -0.744580 1.985435 -5.618320
v -0.537874 1.004455 -6.193114
v -2.495481 3.845965 -0.149171
v -6.719993 1.492223 -2.937811
v 5.881807 2.441733 -6.119915
v -7.024492 4.145481 -0.574024
v -6.175658 2.482121 0.904877
v -1.389017 2.181679 0.873275
v -6.892576 2.578037 -5.006196
v -4.170694 2.773462 -5.515244
v -4.997452 3.837270 -6.063253
v 0.160702 6.688982 6.198898
v 7.010280 1.935832 -4.645382
v 8.103314 1.845617 -2.016489
v -8.356631 5.046993 -6.192791
v 8.239120 2.791398 -6.203102
v 8.087386 6.610016 6.204504
v -4.978808 3.761637 -0.299930
v -0.826064 2.964927 -0.776808
v -0.067075 2.926288 -3.926679
v 8.110816 2.961949 -5.058243
v 4.792784 3.999918 -6.107630
v 6.629793 1.822937 -1.920075
v 7.023599 3.626944 -2.263206
v 5.766984 3.122610 -5.527034
v -8.391194 6.069419 -2.940164
v 0.115873 3.517569 -6.159271
v 6.398262 3.273584 -5.773915
v 8.395116 4.122076 -1.740780
v 5.520300 4.400782 -1.530033
v -0.289165 4.403185 -5.335845
v 5.985085 2.688727 2.405733
v 5.916470 3.534725 3.392167
v 7.461317 4.910225 3.667555
v 1.013357 3.943462 -2.463411
v -7.479470 5.722673 -3.183622
v 4.765357 5.206713 4.033341
v 5.802330 4.224132 1.291868
v 6.535984 4.122601 1.606550
v 0.613886 6.046318 -2.408009
v 7.551068 4.328111 -5.287650
v 5.219559 4.478853 -5.403459
v 0.842603 5.120399 -5.510974
v 3.162342 4.678983 -5.785378
v 8.315583 6.839671 1.133699
v 4.984011 4.883949 1.761034
v -2.638814 6.527241 -0.274549
v 6.560956 5.036292 -3.838214
v -0.141516 6.097266 -3.881702
v 8.376498 4.915947 -4.354496
v 6.987313 6.000142 -6.113833
v 5.400363 6.842323 4.248392
v 6.128055 4.314595 -0.254572
v 4.593250 4.122917 -1.904882
v 0.191822 6.511881 -1.423651
v -7.917992 6.331419 -4.845993
v 1.715742 4.340761 -5.616156
v -0.505527 5.904180 -5.916039
v -8.362750 6.970311 0.930005
v 7.698433 6.374091 1.520843
v -7.308578 6.722423 1.571073
v -4.783673 6.826144 0.507545
v 8.042570 5.468000 -0.968543
v 7.905561 6.080178 -3.896431
v 5.753821 6.273404 -4.573921
v -8.414024 7.041942 6.106396
v 3.459025 5.108261 2.718517
v -6.480776 4.958169 1.065916
v 2.414076 5.374071 -0.744401
v 3.442194 5.201028 -3.637059
v 2.381512 6.045547 -3.254384
v -6.884843 5.682178 -5.775827
v 7.597042 6.914475 4.888587
v 1.349391 5.689723 2.800649
v -0.690864 5.608627 1.278761
v 2.727764 5.903653 2.050893
v 1.950392 5.507811 0.684973
v 2.071043 6.973367 -0.077474
v 2.696959 5.564216 4.521046
v 8.473805 7.051804 5.848503
v -1.736046 7.058486 1.865227
v 0.921453 7.043306 5.330491
v -5.766768 6.979746 3.110680
v -8.023980 6.982434 -1.578708
v -1.108577 6.997073 -0.097075
v 1.883123 7.102611 -3.606899
vn -0.2819 -0.2817 0.9171
vn -0.6248 -0.6508 0.4315
vn 0.5013 -0.5239 0.6886
vn -0.6212 -0.6519 -0.4349
vn 0.6232 -0.6507 -0.4338
vn -0.2785 -0.2856 -0.9170
vn 0.2801 -0.2879 -0.9158
vn 0.9941 0.0901 -0.0596
vn -1.0000 0.0086 -0.0049
vn 0.2035 0.4675 -0.8602
vn 0.0312 0.7535 -0.6567
vn 0.7464 0.5925 -0.3031
vn 0.4573 0.8343 0.3079
vn -0.0020 0.8517 0.5241
vn -0.2842 0.9449 -0.1627
vn 0.9448 0.2037 0.2566
vn 0.0338 0.3834 -0.9229
vn -0.4496 0.8756 -0.1767
vn -0.6032 0.7793 0.1700
vn -0.5827 0.6109 -0.5360
vn 0.4245 0.5652 0.7074
vn 0.2476 -0.4786 -0.8424
vn 0.5854 -0.0238 -0.8104
vn -0.9300 0.3623 -0.0618
vn -0.1379 0.6249 0.7684
vn -0.2052 -0.0887 -0.9747
vn -0.7266 0.6190 -0.2983
vn -0.0363 0.1031 -0.9940
vn -0.1586 -0.2881 -0.9444
vn 0.9468 0.1840 0.2642
vn 0.1016 0.3239 -0.9406
vn 0.9876 0.0988 -0.1221
vn -0.2254 -0.1645 -0.9603
vn -0.6781 -0.3333 -0.6550
vn 0.6806 0.3742 0.6299
vn 0.3140 0.5376 0.7826
vn 0.5355 0.7644 -0.3591
vn 0.0050 0.4776 0.8786
vn -0.0012 0.9551 0.2964
vn 0.3083 0.3930 -0.8663
vn -0.5021 0.3054 -0.8091
vn 0.5903 0.1598 -0.7912
vn 0.2639 0.2484 0.9320
vn -0.2811 -0.1269 -0.9512
vn -0.8220 0.1052 -0.5596
vn -0.8202 0.5609 0.1129
vn 0.4894 0.6098 0.6233
vn -0.0303 0.2600 -0.9651
vn 0.2089 0.6209 -0.7555
vn -0.1687 -0.5089 -0.8441
vn 0.9222 0.3827 -0.0555
vn -0.6651 0.7063 -0.2425
vn -0.3220 0.2440 -0.9148
vn -0.2474 -0.8090 0.5331
vn 0.9517 -0.0381 -0.3047
vn -0.4108 0.8029 -0.4319
vn -0.9173 0.1155 -0.3810
vn 0.0262 0.9885 0.1488
vn 0.0644 0.6275 -0.7760
vn -0.6451 0.4546 -0.6141
vn -0.9428 0.2545 -0.2152
vn 0.8096 0.5784 -0.0999
vn 0.0062 0.5548 -0.8320
vn 0.3385 0.8994 0.2764
vn -0.6511 0.6295 0.4239
vn -0.8510 0.5191 -0.0802
vn 0.8093 -0.4269 0.4035
vn -0.1880 0.2810 0.9411
vn 0.2387 0.4892 -0.8389
vn -0.0430 0.7622 -0.6459
vn 0.3396 0.8880 -0.3101
vn 0.5346 0.8445 0.0306
vn -0.2312 0.3979 -0.8878
vn -0.9267 -0.0807 0.3672
vn -0.8432 0.5355 0.0478
vn 0.9536 -0.0952 -0.2855
vn 0.1872 0.5766 -0.7953
vn -0.0384 0.6479 -0.7608
vn -0.3379 0.9396 0.0540
vn 0.5099 0.8331 -0.2145
vn -0.3306 0.6826 -0.6517
vn 0.0139 0.9916 -0.1283
vn 0.0208 0.7620 -0.6473
vn -0.3498 0.4434 -0.8252
vn -0.6084 0.7931 -0.0292
vn -0.7857 0.6165 -0.0507
vn 0.2161 0.2471 0.9446
vn -0.3944 0.7018 -0.5932
vn 0.3012 0.9208 -0.2478
vn 0.4294 0.8873 0.1682
vn -0.5940 0.7149 0.3689
vn -0.5064 0.5329 0.6779
vn 0.2330 0.9722 -0.0231
vn 0.1230 0.4646 -0.8769
vn 0.7567 0.6530 0.0320
vn 0.5079 0.8504 -0.1371
vn 0.7897 0.5625 -0.2448
vn 0.5724 0.7558 -0.3180
vn -0.1199 0.9488 -0.2921
vn 0.2825 0.9531 -0.1084
vn 0.4503 0.8873 0.0992
vn 0.5005 0.8616 -0.0848
vn 0.3770 0.8867 0.2676
vn 0.5395 0.7533 0.3762
vn 0.0737 0.6889 -0.7211
vn 0.6059 0.6669 0.4337
vn 0.2641 0.9543 -0.1397
vn 0.0979 0.9943 -0.0434
vn -0.0338 0.9858 -0.1647
vn -0.0188 0.9651 -0.2612
vn 0.0199 0.9966 -0.0800
vn 0.3115 0.8732 -0.3748
s 1
usemtl Liquid_Domain_Material
f 1//1 2//2 3//3
f 3//3 2//2 4//4
f 3//3 4//4 5//5
f 7//7 4//4 6//6
f 5//5 4//4 7//7
f 7//7 6//6 42//42
f 3//3 5//5 8//8
f 42//42 5//5 7//7
f 106//106 43//43 3//3
f 3//3 8//8 106//106
f 2//2 9//9 4//4
f 11//11 13//13 12//12
f 5//5 42//42 8//8
f 13//13 16//16 12//12
f 11//11 15//15 13//13
f 15//15 14//14 13//13
f 6//6 10//10 28//28
f 18//18 14//14 15//15
f 18//18 19//19 14//14
f 21//21 13//13 14//14
f 17//17 15//15 11//11
f 20//20 18//18 17//17
f 18//18 15//15 17//17
f 21//21 30//30 13//13
f 19//19 21//21 14//14
f 25//25 21//21 19//19
f 22//22 26//26 17//17
f 20//20 17//17 26//26
f 11//11 23//23 17//17
f 23//23 11//11 12//12
f 20//20 24//24 18//18
f 16//16 23//23 12//12
f 24//24 19//19 18//18
f 13//13 30//30 16//16
f 42//42 6//6 31//31
f 17//17 23//23 22//22
f 19//19 27//27 25//25
f 6//6 41//41 10//10
f 26//26 22//22 29//29
f 20//20 34//34 24//24
f 6//6 28//28 31//31
f 2//2 1//1 92//92
f 22//22 23//23 33//33
f 20//20 26//26 34//34
f 16//16 30//30 32//32
f 24//24 27//27 19//19
f 25//25 35//35 21//21
f 25//25 27//27 36//36
f 23//23 16//16 32//32
f 30//30 21//21 35//35
f 10//10 41//41 37//37
f 28//28 10//10 27//27
f 3//3 38//38 1//1
f 34//34 26//26 29//29
f 45//45 24//24 34//34
f 24//24 45//45 27//27
f 40//40 39//39 49//49
f 40//40 8//8 42//42
f 25//25 36//36 35//35
f 9//9 41//41 4//4
f 6//6 4//4 41//41
f 22//22 33//33 44//44
f 44//44 29//29 22//22
f 46//46 27//27 45//45
f 40//40 47//47 39//39
f 47//47 40//40 42//42
f 47//47 31//31 39//39
f 36//36 27//27 10//10
f 28//28 53//53 48//48
f 31//31 28//28 48//48
f 32//32 94//94 23//23
f 55//55 8//8 40//40
f 40//40 49//49 50//50
f 49//49 39//39 51//51
f 9//9 52//52 41//41
f 39//39 31//31 51//51
f 47//47 42//42 67//67
f 31//31 48//48 51//51
f 31//31 54//54 42//42
f 23//23 94//94 33//33
f 45//45 34//34 29//29
f 49//49 56//56 50//50
f 40//40 50//50 55//55
f 46//46 45//45 61//61
f 46//46 57//57 27//27
f 53//53 27//27 57//57
f 28//28 27//27 53//53
f 59//59 60//60 58//58
f 58//58 65//65 64//64
f 80//80 49//49 51//51
f 30//30 35//35 32//32
f 61//61 57//57 46//46
f 54//54 31//31 67//67
f 47//47 67//67 31//31
f 10//10 37//37 36//36
f 54//54 51//51 48//48
f 54//54 48//48 42//42
f 58//58 63//63 59//59
f 60//60 65//65 58//58
f 79//79 64//64 65//65
f 56//56 64//64 79//79
f 61//61 45//45 66//66
f 49//49 80//80 56//56
f 56//56 80//80 64//64
f 55//55 50//50 67//67
f 32//32 35//35 62//62
f 82//82 35//35 98//98
f 54//54 68//68 51//51
f 54//54 67//67 68//68
f 36//36 37//37 35//35
f 53//53 69//69 83//83
f 53//53 83//83 70//70
f 53//53 70//70 48//48
f 38//38 92//92 1//1
f 43//43 38//38 3//3
f 63//63 58//58 72//72
f 64//64 72//72 58//58
f 8//8 55//55 71//71
f 94//94 44//44 33//33
f 45//45 81//81 66//66
f 50//50 56//56 74//74
f 96//96 80//80 51//51
f 61//61 75//75 57//57
f 67//67 50//50 74//74
f 55//55 67//67 76//76
f 96//96 51//51 68//68
f 82//82 62//62 35//35
f 37//37 98//98 35//35
f 57//57 69//69 53//53
f 70//70 68//68 48//48
f 37//37 41//41 98//98
f 42//42 48//48 77//77
f 59//59 63//63 78//78
f 59//59 78//78 60//60
f 44//44 88//88 73//73
f 72//72 64//64 80//80
f 44//44 73//73 29//29
f 45//45 29//29 81//81
f 9//9 85//85 52//52
f 56//56 79//79 89//89
f 68//68 70//70 96//96
f 67//67 74//74 68//68
f 67//67 42//42 77//77
f 2//2 92//92 9//9
f 63//63 72//72 93//93
f 60//60 86//86 65//65
f 94//94 32//32 87//87
f 44//44 94//94 88//88
f 72//72 80//80 95//95
f 71//71 55//55 89//89
f 89//89 90//90 56//56
f 96//96 95//95 80//80
f 74//74 56//56 90//90
f 66//66 75//75 61//61
f 83//83 69//69 97//97
f 70//70 83//83 96//96
f 67//67 77//77 76//76
f 84//84 69//69 57//57
f 106//106 8//8 71//71
f 92//92 85//85 9//9
f 63//63 93//93 105//105
f 93//93 100//100 105//105
f 102//102 93//93 103//103
f 65//65 86//86 79//79
f 93//93 72//72 103//103
f 103//103 72//72 95//95
f 89//89 55//55 90//90
f 55//55 76//76 90//90
f 96//96 83//83 97//97
f 57//57 75//75 84//84
f 68//68 74//74 91//91
f 77//77 90//90 76//76
f 91//91 48//48 68//68
f 78//78 99//99 60//60
f 100//100 93//93 102//102
f 102//102 101//101 100//100
f 102//102 103//103 101//101
f 86//86 71//71 79//79
f 104//104 101//101 103//103
f 103//103 95//95 104//104
f 71//71 89//89 79//79
f 87//87 32//32 62//62
f 29//29 73//73 81//81
f 95//95 96//96 97//97
f 52//52 82//82 41//41
f 74//74 90//90 91//91
f 112//112 97//97 69//69
f 82//82 98//98 41//41
f 69//69 84//84 75//75
f 48//48 91//91 77//77
f 63//63 105//105 78//78
f 105//105 100//100 107//107
f 60//60 99//99 86//86
f 107//107 100//100 101//101
f 104//104 111//111 101//101
f 95//95 97//97 104//104
f 82//82 52//52 62//62
f 90//90 77//77 91//91
f 105//105 108//108 78//78
f 105//105 107//107 108//108
f 109//109 94//94 85//85
f 94//94 87//87 85//85
f 88//88 94//94 109//109
f 101//101 111//111 107//107
f 110//110 87//87 62//62
f 85//85 110//110 52//52
f 104//104 97//97 112//112
f 62//62 52//52 110//110
f 75//75 112//112 69//69
f 92//92 38//38 108//108
f 108//108 38//38 106//106
f 38//38 43//43 106//106
f 78//78 108//108 106//106
f 92//92 108//108 107//107
f 106//106 99//99 78//78
f 106//106 71//71 99//99
f 107//107 109//109 92//92
f 109//109 85//85 92//92
f 99//99 71//71 86//86
f 107//107 88//88 109//109
f 87//87 110//110 85//85
f 107//107 111//111 88//88
f 111//111 73//73 88//88
f 111//111 81//81 73//73
f 104//104 81//81 111//111
f 66//66 81//81 104//104
f 112//112 66//66 104//104
f 66//66 112//112 75//75
