# Blender 4.1.1
# www.blender.org
mtllib aa0488.mtl
o Liquid_Domain
v -8.134167 -8.755833 6.217273
v -8.483522 -9.103333 5.865528
v 8.134167 -8.755833 6.217273
v 8.479460 -9.100220 5.868324
v -8.449727 -9.099446 -5.884454
v 8.480764 -9.102297 -5.867396
v -8.134167 -8.755833 -6.217273
v 8.134167 -8.755833 -6.217273
v 7.986702 1.410109 -6.212199
v 8.468070 1.245990 -5.849003
v -8.483200 5.246083 -5.844923
v 8.458802 3.663381 -1.649941
v 8.432239 6.996933 5.878477
v -8.478074 4.808369 -0.052206
v -8.157419 5.936611 -6.171510
v -8.372956 5.786946 2.596456
v 8.440250 6.894889 2.023628
v -3.843004 2.606101 -6.153449
v -8.070397 4.394057 6.195961
v -3.488765 5.965629 6.179255
v -5.384954 2.319951 2.268919
v 4.443960 2.056510 -4.465304
v 8.139881 6.633864 6.199306
v -5.129156 2.822191 3.901601
v 5.343727 2.423588 -2.957398
v 3.767391 2.662138 -4.538906
v 7.215365 3.279267 -4.431977
v 5.242290 3.238977 -5.048104
v 0.003108 1.763051 -6.206199
v 7.024976 5.056039 -6.087549
v -6.223390 2.315390 4.353085
v -7.141801 2.959278 2.789605
v -6.627465 3.516156 2.248770
v 6.792837 3.557567 -5.120292
v 0.622988 3.773834 -4.708228
v -7.325760 3.588747 4.399663
v 4.485816 3.784549 -4.419940
v -2.348032 4.078759 -4.754383
v -6.738862 5.121753 5.414507
v -5.174074 4.463224 4.515494
v 6.398607 4.612092 -0.879804
v 1.687582 3.474132 -6.088190
v 7.439997 3.174709 -5.799102
v -5.486093 4.209692 -6.152669
v 3.948264 3.990837 -6.088483
v -6.741218 4.471656 2.444267
v 5.365828 3.906272 -0.844515
v 7.941295 3.834602 -2.871262
v 4.127432 4.170747 -4.165453
v 2.259508 3.812835 -4.072682
v 4.622538 4.837857 -5.223063
v -0.037784 6.712976 6.183727
v 5.299190 3.867744 1.480556
v 6.017860 4.235406 1.240020
v -8.428502 6.912263 -3.422032
v 5.607896 5.610490 -5.212554
v -6.827038 5.494724 -5.507676
v 5.706353 5.450618 -5.893069
v -5.323640 6.141191 6.042846
v -3.756682 5.923660 4.978860
v -7.573318 6.601178 4.830281
v -7.446187 5.512825 2.584062
v -4.901633 5.186919 2.112465
v -6.413170 5.518376 1.817995
v 4.653817 4.384889 -1.609551
v -1.438836 5.200664 -2.889016
v 0.675096 4.746519 -3.866849
v -3.733737 5.588693 -5.533185
v 7.407102 5.176295 -5.313553
v -8.379569 6.617366 5.926347
v -7.208240 5.354567 5.832643
v 3.633122 5.003131 1.288580
v -7.986281 5.698366 0.208425
v 7.868901 5.776723 0.189547
v 2.997523 4.867217 -2.847848
v -4.897089 5.198637 -5.996992
v -2.224601 5.587922 5.312970
v -3.681042 5.812828 3.244351
v -1.758887 5.356965 3.140009
v -0.875478 4.987333 1.425147
v 2.616216 5.746848 2.365827
v 7.294764 6.948407 1.535456
v -6.249437 5.872286 0.723628
v -5.062487 5.511879 0.230599
v 0.741799 6.011937 -0.695766
v 1.081969 6.555168 4.827730
v -4.193900 6.679340 1.579073
v 1.640279 6.013998 -1.095584
v -4.953880 6.888492 -1.886755
v -0.633800 5.486122 -1.183639
v -1.730119 6.984373 5.869802
v -4.338036 6.787263 5.872943
v 1.470233 6.128837 3.345877
v -6.580214 6.974908 -0.386779
v -8.092638 6.963048 -1.430481
v -8.164100 7.000949 4.365379
v -3.626971 6.923239 -1.349974
v 5.128668 6.982746 4.985564
v 6.841017 6.790943 4.344927
v -2.399873 7.033220 0.197827
v -7.003663 7.020996 -4.661292
v -4.618807 7.038593 -4.007816
vn -0.2818 -0.2856 0.9160
vn -0.6228 -0.6495 0.4362
vn 0.2819 -0.2862 0.9157
vn 0.6225 -0.6501 0.4357
vn -0.6183 -0.6526 -0.4379
vn 0.6223 -0.6500 -0.4363
vn -0.2894 -0.2779 -0.9160
vn 0.2826 -0.2855 -0.9157
vn 0.3490 0.1233 -0.9290
vn 0.8606 0.1709 -0.4798
vn -0.9182 0.0939 -0.3849
vn 0.9552 0.2526 -0.1542
vn 0.6113 0.6699 0.4215
vn -0.9831 0.1746 0.0549
vn -0.2730 0.4748 -0.8367
vn -0.6597 0.7240 -0.2016
vn 0.6787 0.7199 -0.1453
vn 0.1136 0.2087 -0.9714
vn -0.2862 0.0701 0.9556
vn 0.0909 0.5089 0.8560
vn -0.3960 0.4331 0.8097
vn 0.2428 0.9051 0.3490
vn 0.2961 0.2632 0.9182
vn -0.8429 0.4171 -0.3398
vn -0.0361 0.8962 -0.4421
vn 0.8495 0.2140 0.4822
vn -0.3350 0.9421 -0.0166
vn 0.1997 0.1721 0.9646
vn -0.0416 0.2246 -0.9736
vn 0.3831 0.4482 -0.8077
vn 0.0608 0.7847 -0.6169
vn 0.7367 0.5198 0.4325
vn 0.0931 -0.1098 0.9896
vn 0.2726 0.4705 0.8392
vn -0.0531 0.7593 -0.6486
vn 0.8046 0.3965 -0.4420
vn 0.7589 -0.1548 0.6326
vn 0.3440 0.5161 -0.7844
vn -0.2366 0.5699 -0.7869
vn -0.7305 0.3769 0.5695
vn -0.5281 0.7636 -0.3715
vn -0.2300 0.4762 -0.8487
vn 0.9302 0.3596 0.0731
vn 0.1210 0.1498 -0.9813
vn -0.1320 0.3726 -0.9186
vn 0.0508 0.3091 0.9497
vn 0.0477 0.9677 -0.2476
vn 0.4722 0.7978 -0.3748
vn 0.3030 0.9309 0.2039
vn -0.0017 0.9612 -0.2757
vn -0.5032 0.8621 -0.0601
vn -0.0057 0.3903 0.9207
vn 0.0104 0.9523 -0.3051
vn -0.6877 0.7064 -0.1678
vn -0.7113 0.7009 -0.0525
vn -0.0828 0.8271 0.5559
vn 0.2224 0.5746 -0.7876
vn -0.1440 0.7280 -0.6702
vn -0.3337 0.6298 0.7014
vn -0.0583 0.9252 -0.3751
vn 0.7847 0.6125 0.0954
vn 0.6654 0.6848 0.2971
vn -0.4390 0.8016 0.4059
vn 0.1452 0.8482 0.5094
vn 0.6631 0.7057 -0.2496
vn 0.3165 0.8779 -0.3594
vn 0.1231 0.7876 -0.6037
vn 0.4035 0.4178 -0.8140
vn 0.6735 0.5253 0.5201
vn -0.3056 0.5998 0.7395
vn 0.2062 0.8131 0.5443
vn 0.5405 0.8407 -0.0337
vn -0.6231 0.7197 0.3061
vn 0.4957 0.7024 -0.5108
vn 0.2496 0.8811 -0.4016
vn 0.1430 0.2855 -0.9476
vn -0.1352 0.8647 -0.4838
vn -0.1892 0.9641 0.1862
vn 0.0077 0.9856 -0.1690
vn 0.0605 0.9887 0.1371
vn 0.2778 0.9155 -0.2908
vn -0.3456 0.8775 -0.3324
vn 0.0988 0.9002 0.4242
vn -0.1557 0.9421 0.2971
vn -0.1982 0.9752 -0.0988
vn -0.1441 0.8838 -0.4451
vn -0.4301 0.8462 0.3144
vn 0.1471 0.9671 -0.2075
vn 0.0577 0.9721 0.2275
vn 0.1418 0.9701 -0.1971
vn -0.3464 0.9374 0.0367
vn 0.0405 0.9775 0.2069
vn -0.1130 0.9563 -0.2695
vn 0.0497 0.8585 0.5104
vn -0.5768 0.7888 0.2124
vn -0.2296 0.9499 -0.2122
vn 0.0682 0.9977 -0.0045
vn -0.0049 0.9531 -0.3026
vn -0.1770 0.9433 -0.2808
vn 0.3399 0.9341 0.1092
vn -0.0388 0.8848 -0.4644
vn 0.2629 0.9117 -0.3158
s 1
usemtl Liquid_Domain_Material
f 1//1 2//2 3//3
f 2//2 4//4 3//3
f 4//4 2//2 6//6
f 6//6 2//2 5//5
f 6//6 5//5 7//7
f 8//8 6//6 7//7
f 2//2 1//1 70//70
f 8//8 7//7 9//9
f 10//10 6//6 8//8
f 9//9 10//10 8//8
f 23//23 3//3 4//4
f 4//4 6//6 12//12
f 13//13 23//23 4//4
f 2//2 11//11 5//5
f 5//5 11//11 7//7
f 7//7 29//29 9//9
f 6//6 10//10 12//12
f 29//29 7//7 18//18
f 14//14 11//11 2//2
f 7//7 15//15 18//18
f 2//2 16//16 14//14
f 9//9 29//29 42//42
f 43//43 10//10 9//9
f 1//1 20//20 19//19
f 17//17 4//4 12//12
f 24//24 21//21 31//31
f 31//31 21//21 32//32
f 25//25 22//22 26//26
f 28//28 26//26 22//22
f 43//43 48//48 10//10
f 9//9 42//42 45//45
f 2//2 70//70 16//16
f 36//36 31//31 32//32
f 21//21 33//33 32//32
f 12//12 10//10 48//48
f 27//27 22//22 25//25
f 27//27 34//34 22//22
f 34//34 28//28 22//22
f 48//48 43//43 27//27
f 35//35 29//29 38//38
f 15//15 44//44 18//18
f 1//1 19//19 70//70
f 3//3 52//52 1//1
f 24//24 40//40 21//21
f 25//25 26//26 47//47
f 37//37 26//26 28//28
f 38//38 29//29 18//18
f 29//29 35//35 42//42
f 7//7 11//11 15//15
f 9//9 45//45 30//30
f 36//36 39//39 31//31
f 31//31 40//40 24//24
f 40//40 33//33 21//21
f 25//25 47//47 41//41
f 26//26 65//65 47//47
f 25//25 41//41 27//27
f 26//26 37//37 65//65
f 18//18 44//44 38//38
f 34//34 27//27 43//43
f 9//9 30//30 43//43
f 20//20 1//1 52//52
f 33//33 46//46 32//32
f 47//47 53//53 54//54
f 65//65 37//37 49//49
f 48//48 27//27 41//41
f 50//50 51//51 35//35
f 42//42 35//35 51//51
f 23//23 52//52 3//3
f 4//4 17//17 13//13
f 46//46 33//33 40//40
f 47//47 72//72 53//53
f 65//65 72//72 47//47
f 41//41 47//47 54//54
f 14//14 55//55 11//11
f 65//65 49//49 75//75
f 49//49 50//50 75//75
f 67//67 75//75 35//35
f 50//50 35//35 75//75
f 67//67 38//38 66//66
f 35//35 38//38 67//67
f 49//49 51//51 50//50
f 37//37 56//56 49//49
f 28//28 56//56 37//37
f 38//38 44//44 68//68
f 69//69 34//34 43//43
f 45//45 42//42 51//51
f 69//69 43//43 30//30
f 44//44 15//15 57//57
f 20//20 59//59 19//19
f 39//39 36//36 71//71
f 31//31 60//60 40//40
f 36//36 61//61 71//71
f 36//36 32//32 62//62
f 62//62 32//32 46//46
f 63//63 46//46 40//40
f 63//63 64//64 46//46
f 82//82 48//48 41//41
f 74//74 48//48 82//82
f 12//12 48//48 74//74
f 51//51 49//49 56//56
f 28//28 34//34 56//56
f 34//34 69//69 56//56
f 44//44 76//76 68//68
f 45//45 51//51 58//58
f 30//30 45//45 58//58
f 19//19 71//71 70//70
f 61//61 36//36 62//62
f 65//65 75//75 88//88
f 88//88 67//67 90//90
f 90//90 67//67 66//66
f 75//75 67//67 88//88
f 38//38 68//68 66//66
f 57//57 76//76 44//44
f 31//31 39//39 60//60
f 60//60 78//78 40//40
f 78//78 60//60 77//77
f 77//77 79//79 78//78
f 40//40 78//78 63//63
f 78//78 79//79 80//80
f 53//53 98//98 99//99
f 53//53 99//99 54//54
f 53//53 72//72 81//81
f 62//62 46//46 64//64
f 99//99 82//82 54//54
f 64//64 63//63 83//83
f 84//84 83//83 63//63
f 54//54 82//82 41//41
f 16//16 73//73 14//14
f 72//72 88//88 81//81
f 72//72 65//65 88//88
f 85//85 90//90 80//80
f 85//85 88//88 90//90
f 51//51 56//56 58//58
f 69//69 30//30 56//56
f 30//30 58//58 56//56
f 71//71 19//19 59//59
f 70//70 71//71 61//61
f 59//59 39//39 71//71
f 86//86 79//79 77//77
f 93//93 98//98 81//81
f 53//53 81//81 98//98
f 93//93 80//80 79//79
f 78//78 87//87 63//63
f 78//78 80//80 100//100
f 85//85 80//80 93//93
f 62//62 64//64 16//16
f 81//81 85//85 93//93
f 64//64 73//73 16//16
f 17//17 12//12 74//74
f 64//64 83//83 73//73
f 88//88 85//85 81//81
f 89//89 83//83 84//84
f 76//76 102//102 68//68
f 20//20 92//92 59//59
f 52//52 91//91 20//20
f 20//20 60//60 92//92
f 77//77 60//60 20//20
f 92//92 60//60 39//39
f 93//93 79//79 86//86
f 63//63 87//87 84//84
f 83//83 94//94 73//73
f 73//73 95//95 14//14
f 94//94 95//95 73//73
f 14//14 95//95 55//55
f 90//90 66//66 100//100
f 66//66 68//68 102//102
f 55//55 15//15 11//11
f 76//76 57//57 101//101
f 59//59 92//92 39//39
f 20//20 91//91 77//77
f 77//77 91//91 86//86
f 70//70 96//96 16//16
f 98//98 93//93 86//86
f 96//96 61//61 62//62
f 62//62 16//16 96//96
f 87//87 78//78 100//100
f 17//17 74//74 82//82
f 97//97 84//84 87//87
f 80//80 90//90 100//100
f 83//83 89//89 94//94
f 84//84 97//97 89//89
f 100//100 66//66 97//97
f 97//97 66//66 102//102
f 76//76 101//101 102//102
f 57//57 15//15 101//101
f 52//52 23//23 91//91
f 91//91 23//23 13//13
f 13//13 98//98 91//91
f 70//70 61//61 96//96
f 91//91 98//98 86//86
f 13//13 99//99 98//98
f 13//13 17//17 99//99
f 17//17 82//82 99//99
f 100//100 97//97 87//87
f 94//94 101//101 95//95
f 102//102 101//101 94//94
f 89//89 102//102 94//94
f 97//97 102//102 89//89
f 101//101 55//55 95//95
f 101//101 15//15 55//55
