# Blender 4.1.1
# www.blender.org
mtllib aa0466.mtl
o Liquid_Domain
v -8.134167 -8.755833 6.217273
v -8.484301 -9.103549 5.863564
v 8.483171 -9.102728 5.867004
v 8.134167 -8.755833 6.217273
v -8.452897 -9.099715 -5.880910
v 8.473268 -9.100062 -5.872908
v -8.134167 -8.755833 -6.217273
v 8.134167 -8.755833 -6.217273
v 8.481250 6.686780 5.864998
v -8.162563 6.865450 6.181683
v -4.702368 5.473302 6.196520
v 8.429251 3.210561 -4.084257
v 3.978976 1.567765 -0.306803
v 5.225044 1.294828 -0.141784
v 5.482255 1.739677 -2.590557
v 6.085583 2.421469 -0.972863
v 5.177719 1.786786 -3.098232
v -2.396261 3.775114 -6.191344
v -8.476383 6.046926 5.829416
v 4.377466 2.915673 -1.534865
v 6.044859 2.004505 -4.273558
v 4.575338 4.676965 -6.174199
v 3.177210 3.890326 -0.127870
v 3.317007 2.708699 -3.944284
v -4.972435 2.973728 4.698464
v -4.741828 2.361007 4.194163
v 7.692605 3.601585 -1.505976
v 4.986077 4.833869 -5.110176
v 7.268390 4.430084 -5.065280
v -0.725534 4.437843 -6.098840
v 5.392632 6.964180 6.161832
v -3.667480 3.621523 3.873345
v -4.717659 4.326962 2.068958
v 7.513865 3.459444 -4.296864
v 8.354411 3.897201 -6.155608
v -6.149479 4.107517 3.654582
v 4.807002 2.505585 0.897007
v -4.866142 3.318592 0.710763
v -3.780258 4.192320 1.707884
v 7.328105 4.492782 1.239356
v 8.138388 6.951673 6.211810
v -3.783397 4.411942 4.589787
v -5.923895 3.909951 0.421942
v 7.909122 5.465397 -2.661385
v 2.677936 3.334538 -4.690061
v -6.247093 4.801277 -6.123643
v -0.593691 6.710966 6.168465
v -5.552830 5.473699 4.748615
v 6.332926 4.549733 2.246931
v 2.729748 4.619482 -2.417305
v -8.409569 6.782842 -5.993939
v 2.489086 5.060420 -5.792658
v 3.869378 4.973803 -5.458405
v -8.122834 4.263690 -6.222165
v 5.061347 4.758093 4.964107
v 6.123737 5.177645 4.661374
v 8.325492 6.639090 -0.523191
v -1.116308 4.739639 -4.748642
v 0.596836 5.178784 -5.250465
v 3.782699 5.893073 -5.966638
v 7.071994 6.329481 -6.049256
v 0.823596 5.115774 4.931011
v -2.273855 6.664249 4.665401
v 3.352120 5.533823 3.575180
v 4.913536 4.179857 2.672558
v -7.383836 5.029490 3.356488
v 0.180080 4.905858 2.485325
v 2.607662 4.918651 2.278236
v 7.600277 6.452982 1.729208
v -8.374269 7.015704 -0.987439
v 0.675017 5.266946 -1.118843
v 7.707056 6.280106 -0.776238
v 0.326931 4.895238 -2.472067
v -3.378438 4.672147 -6.042877
v 4.644661 5.408183 -5.981381
v 3.354787 6.054843 4.993785
v -7.586173 6.465965 4.439767
v -0.250221 6.535540 4.975742
v 8.331573 6.993457 3.582976
v -7.276765 5.520259 1.554963
v 0.532715 5.389502 0.709469
v -3.926847 6.216083 -0.207250
v -5.214856 6.344466 -0.687458
v -6.011405 6.220359 -4.850074
v 3.643281 6.097372 -5.146756
v 4.350833 5.460485 -5.485833
v -5.411798 6.386873 5.846342
v 5.143925 6.753246 5.182109
v -7.296288 6.783408 -0.284603
v -1.016229 5.471438 -3.444688
v 6.773782 6.381692 -5.383763
v -3.591939 6.849047 5.289458
v 6.316879 6.869198 4.424987
v -6.400434 6.849493 5.807121
v -0.693168 6.927132 2.511773
v -8.054502 6.924633 1.253013
v -2.353483 6.903754 0.833330
v -0.309192 6.717119 -0.207387
v -1.556581 7.063525 5.432562
v 0.820234 7.078973 5.780671
v -2.128726 7.103747 -0.950386
v -6.462987 7.007898 -3.441718
v -2.578576 6.983515 -3.372121
v -3.984123 6.939290 -4.363942
v -7.120275 6.883577 -5.757624
vn -0.2819 -0.2869 0.9155
vn -0.6229 -0.6506 0.4345
vn 0.6224 -0.6500 0.4360
vn 0.2809 -0.2862 0.9161
vn -0.6198 -0.6528 -0.4355
vn 0.6218 -0.6516 -0.4346
vn -0.2883 -0.2808 -0.9154
vn 0.2794 -0.2859 -0.9166
vn 0.8861 0.3362 0.3189
vn -0.3899 0.6062 0.6932
vn -0.0067 0.1356 0.9907
vn 0.8943 0.4046 -0.1913
vn 0.6882 0.7092 -0.1529
vn -0.3504 0.8256 -0.4423
vn -0.3202 0.9470 0.0258
vn -0.7029 0.6773 -0.2173
vn 0.3159 0.9437 0.0981
vn 0.0588 0.2652 -0.9624
vn -0.9416 0.1283 0.3113
vn 0.8632 0.4436 0.2408
vn -0.2270 0.7671 0.6000
vn -0.0753 0.2241 -0.9717
vn 0.6834 0.7170 -0.1374
vn 0.5860 0.8095 -0.0373
vn 0.1605 0.4363 -0.8854
vn -0.0307 0.9879 -0.1518
vn -0.8737 0.4695 -0.1273
vn -0.1456 0.4670 0.8722
vn 0.3661 0.3964 0.8419
vn -0.1636 0.5976 -0.7850
vn -0.0289 0.6501 0.7593
vn -0.7906 0.6110 -0.0390
vn 0.2816 0.9595 0.0116
vn -0.2609 0.9347 0.2413
vn 0.6695 0.2741 -0.6904
vn 0.7132 0.6961 -0.0824
vn 0.0860 0.6822 -0.7261
vn -0.1078 0.9592 0.2614
vn -0.6015 0.7908 0.1131
vn -0.7520 0.4734 -0.4587
vn 0.3367 0.5488 0.7651
vn -0.3778 0.3091 -0.8727
vn 0.4610 0.7555 0.4655
vn -0.1816 0.7610 -0.6228
vn 0.2875 0.7819 0.5532
vn 0.1130 0.2860 -0.9515
vn -0.0427 0.4493 0.8923
vn 0.2370 0.4663 -0.8523
vn -0.5805 0.6875 -0.4364
vn 0.4518 0.8610 -0.2338
vn -0.4856 0.5302 -0.6950
vn -0.1728 0.9784 -0.1135
vn 0.1585 0.4017 0.9019
vn -0.2834 0.0322 -0.9585
vn 0.0110 0.6368 -0.7710
vn -0.6790 0.3945 -0.6191
vn 0.4491 0.8679 -0.2120
vn 0.2322 0.8832 -0.4076
vn 0.0161 0.9446 0.3279
vn 0.0983 0.6044 -0.7906
vn 0.3518 0.7033 -0.6178
vn 0.1892 0.6380 -0.7464
vn -0.4530 0.8067 -0.3795
vn 0.1316 0.9176 -0.3750
vn 0.0727 0.8981 -0.4338
vn 0.8048 0.5893 -0.0712
vn 0.5411 0.8369 0.0829
vn 0.1824 0.9582 -0.2206
vn -0.6940 0.6664 -0.2724
vn -0.6127 0.7877 0.0643
vn 0.5409 0.8244 -0.1669
vn -0.7897 0.5698 -0.2276
vn 0.3998 0.8550 -0.3305
vn 0.1660 0.4533 -0.8758
vn -0.4573 0.6405 -0.6169
vn 0.0723 0.4582 -0.8859
vn 0.5853 0.7552 -0.2953
vn 0.3694 0.7754 -0.5122
vn 0.5155 0.8495 -0.1124
vn 0.7660 0.6372 0.0852
vn 0.5691 0.8180 0.0842
vn -0.4000 0.6700 0.6254
vn -0.0070 0.4579 0.8890
vn 0.2981 0.7385 -0.6047
vn -0.0820 0.5777 0.8122
vn -0.4923 -0.8699 0.0315
vn 0.0958 0.9119 0.3990
vn -0.1825 0.6622 -0.7268
vn 0.3987 0.8714 0.2860
vn 0.5481 0.7462 -0.3779
vn 0.1610 0.7660 0.6223
vn -0.2335 0.8749 -0.4243
vn -0.5343 0.7369 -0.4141
vn 0.2999 0.9251 0.2329
vn 0.4702 0.8810 0.0527
vn 0.1652 0.9704 0.1763
vn -0.4364 0.8780 0.1968
vn 0.5735 0.8136 -0.0959
vn -0.0361 0.9924 0.1179
vn -0.0169 0.9980 0.0609
vn 0.0263 0.9979 0.0586
vn 0.0212 0.9940 -0.1075
vn 0.3293 0.8861 -0.3262
vn 0.1151 0.8379 -0.5336
vn 0.3001 0.7166 -0.6296
s 1
usemtl Liquid_Domain_Material
f 2//2 3//3 1//1
f 1//1 3//3 4//4
f 3//3 2//2 5//5
f 6//6 3//3 5//5
f 8//8 5//5 7//7
f 6//6 5//5 8//8
f 9//9 4//4 3//3
f 2//2 19//19 5//5
f 4//4 41//41 1//1
f 41//41 4//4 9//9
f 1//1 10//10 2//2
f 19//19 51//51 5//5
f 5//5 51//51 7//7
f 35//35 6//6 8//8
f 1//1 11//11 10//10
f 3//3 6//6 12//12
f 8//8 7//7 18//18
f 8//8 22//22 35//35
f 14//14 15//15 13//13
f 6//6 35//35 12//12
f 13//13 37//37 14//14
f 14//14 16//16 15//15
f 13//13 15//15 17//17
f 2//2 10//10 19//19
f 37//37 16//16 14//14
f 13//13 17//17 20//20
f 15//15 21//21 17//17
f 17//17 21//21 24//24
f 8//8 18//18 22//22
f 9//9 3//3 12//12
f 20//20 23//23 13//13
f 21//21 15//15 27//27
f 45//45 24//24 21//21
f 23//23 37//37 13//13
f 27//27 15//15 16//16
f 17//17 24//24 50//50
f 21//21 28//28 45//45
f 21//21 29//29 28//28
f 7//7 54//54 18//18
f 22//22 18//18 30//30
f 1//1 31//31 11//11
f 41//41 31//31 1//1
f 26//26 25//25 42//42
f 42//42 32//32 26//26
f 32//32 33//33 26//26
f 37//37 40//40 16//16
f 16//16 40//40 27//27
f 17//17 50//50 20//20
f 27//27 34//34 21//21
f 21//21 34//34 29//29
f 18//18 54//54 46//46
f 26//26 36//36 25//25
f 65//65 40//40 37//37
f 37//37 23//23 65//65
f 50//50 24//24 45//45
f 34//34 12//12 35//35
f 18//18 46//46 74//74
f 31//31 47//47 11//11
f 32//32 39//39 33//33
f 39//39 38//38 33//33
f 40//40 65//65 49//49
f 38//38 43//43 33//33
f 23//23 20//20 50//50
f 27//27 44//44 34//34
f 34//34 35//35 29//29
f 25//25 48//48 42//42
f 48//48 25//25 36//36
f 26//26 33//33 36//36
f 65//65 55//55 49//49
f 38//38 39//39 82//82
f 38//38 83//83 43//43
f 83//83 38//38 82//82
f 45//45 73//73 50//50
f 34//34 44//44 12//12
f 45//45 52//52 59//59
f 53//53 52//52 45//45
f 28//28 53//53 45//45
f 58//58 30//30 18//18
f 7//7 51//51 54//54
f 55//55 56//56 49//49
f 36//36 33//33 66//66
f 64//64 65//65 68//68
f 9//9 12//12 57//57
f 33//33 43//43 80//80
f 65//65 23//23 68//68
f 40//40 69//69 27//27
f 68//68 23//23 71//71
f 23//23 50//50 71//71
f 50//50 73//73 71//71
f 73//73 45//45 90//90
f 45//45 58//58 90//90
f 45//45 59//59 58//58
f 91//91 29//29 35//35
f 58//58 18//18 74//74
f 22//22 30//30 52//52
f 22//22 52//52 60//60
f 35//35 22//22 61//61
f 42//42 63//63 32//32
f 76//76 64//64 62//62
f 68//68 67//67 62//62
f 64//64 68//68 62//62
f 33//33 80//80 66//66
f 68//68 81//81 67//67
f 68//68 71//71 81//81
f 27//27 72//72 44//44
f 57//57 12//12 44//44
f 19//19 70//70 51//51
f 59//59 30//30 58//58
f 53//53 85//85 52//52
f 52//52 30//30 59//59
f 60//60 53//53 22//22
f 22//22 53//53 28//28
f 61//61 91//91 35//35
f 22//22 75//75 61//61
f 48//48 92//92 42//42
f 42//42 92//92 63//63
f 77//77 36//36 66//66
f 48//48 36//36 77//77
f 76//76 65//65 64//64
f 76//76 55//55 65//65
f 62//62 67//67 78//78
f 9//9 57//57 79//79
f 40//40 49//49 69//69
f 69//69 72//72 27//27
f 104//104 58//58 74//74
f 53//53 86//86 85//85
f 86//86 28//28 85//85
f 29//29 91//91 28//28
f 86//86 60//60 75//75
f 53//53 60//60 86//86
f 28//28 86//86 22//22
f 22//22 86//86 75//75
f 85//85 28//28 75//75
f 54//54 51//51 46//46
f 11//11 87//87 10//10
f 76//76 88//88 55//55
f 77//77 94//94 48//48
f 55//55 88//88 56//56
f 39//39 32//32 63//63
f 56//56 93//93 49//49
f 78//78 67//67 95//95
f 66//66 80//80 77//77
f 80//80 43//43 89//89
f 43//43 83//83 89//89
f 98//98 73//73 90//90
f 71//71 73//73 98//98
f 90//90 58//58 103//103
f 58//58 104//104 103//103
f 46//46 84//84 74//74
f 84//84 46//46 105//105
f 85//85 60//60 52//52
f 60//60 85//85 75//75
f 75//75 28//28 91//91
f 48//48 87//87 92//92
f 78//78 76//76 62//62
f 56//56 88//88 93//93
f 93//93 69//69 49//49
f 77//77 80//80 96//96
f 80//80 89//89 96//96
f 81//81 71//71 98//98
f 44//44 72//72 57//57
f 90//90 103//103 98//98
f 75//75 91//91 61//61
f 46//46 51//51 105//105
f 87//87 94//94 10//10
f 11//11 47//47 87//87
f 87//87 48//48 94//94
f 76//76 78//78 88//88
f 99//99 78//78 95//95
f 10//10 96//96 19//19
f 19//19 96//96 70//70
f 96//96 10//10 77//77
f 63//63 97//97 39//39
f 67//67 81//81 95//95
f 39//39 97//97 82//82
f 98//98 95//95 81//81
f 72//72 69//69 57//57
f 102//102 104//104 84//84
f 105//105 102//102 84//84
f 84//84 104//104 74//74
f 87//87 47//47 99//99
f 99//99 47//47 100//100
f 47//47 31//31 100//100
f 99//99 92//92 87//87
f 31//31 88//88 100//100
f 100//100 78//78 99//99
f 88//88 78//78 100//100
f 93//93 88//88 31//31
f 79//79 93//93 31//31
f 41//41 79//79 31//31
f 77//77 10//10 94//94
f 63//63 92//92 99//99
f 41//41 9//9 79//79
f 99//99 95//95 63//63
f 79//79 69//69 93//93
f 95//95 97//97 63//63
f 79//79 57//57 69//69
f 95//95 101//101 97//97
f 98//98 101//101 95//95
f 82//82 97//97 101//101
f 89//89 70//70 96//96
f 70//70 89//89 83//83
f 101//101 83//83 82//82
f 101//101 70//70 83//83
f 98//98 103//103 101//101
f 70//70 102//102 51//51
f 103//103 70//70 101//101
f 103//103 104//104 70//70
f 70//70 104//104 102//102
f 102//102 105//105 51//51
