# Blender 4.1.1
# www.blender.org
mtllib aa0591.mtl
o Liquid_Domain
v -8.134167 -8.755833 6.217273
v -8.487272 -8.755834 5.864167
v -8.134167 -9.108939 5.864167
v 8.134115 -8.754183 6.218528
v 8.487272 -8.755833 5.864167
v 8.134167 -9.108939 5.864167
v 8.484860 -9.102476 -5.866168
v -8.482918 -9.105040 -5.863630
v -8.134167 -8.755833 -6.217273
v 8.134167 -8.755833 -6.217273
v -8.483132 3.579179 -5.853745
v -8.165112 4.055443 -6.151548
v -8.137052 6.863398 6.188556
v 8.436214 6.993799 5.889844
v -1.571086 3.940913 -6.193758
v -8.469818 6.489972 5.820380
v 8.462177 6.640727 2.920627
v -0.272715 4.221324 6.212179
v -4.326635 5.181699 6.182801
v 8.126262 6.701519 -6.209267
v 8.439083 6.967698 -5.862572
v 2.158423 6.756898 6.134328
v -8.382862 6.701330 -3.195292
v -0.458807 3.734337 -2.661928
v -4.624386 3.928690 -3.219069
v -0.799664 3.793000 -3.373454
v 3.269550 5.554855 -6.167489
v 8.419852 6.675459 -3.452174
v -3.694443 4.146756 -3.098878
v -4.092063 4.985850 -2.635753
v -2.443649 4.643177 -2.643466
v 0.601048 4.522293 -3.484056
v -1.254749 4.930489 -5.109467
v -7.504537 4.846339 -5.535100
v -5.473051 4.544554 -5.785292
v -2.060685 5.093831 5.836090
v -0.257796 5.317652 5.818885
v -5.901503 4.771055 3.967624
v -6.830077 4.813399 -1.811992
v -7.255969 4.622077 -2.212401
v -5.513309 5.104819 -2.116529
v 1.293972 5.454591 -2.032655
v -6.762306 4.975916 -4.898905
v -2.741108 4.723714 -5.542507
v 2.307719 4.786706 -4.446413
v -0.349039 5.095127 -5.916560
v -4.001050 5.770861 5.745895
v 8.098651 6.704447 6.182582
v -5.709782 5.231053 4.816948
v -2.929830 5.268278 4.932081
v -2.916794 5.569365 3.172645
v -5.055660 5.763824 2.407889
v -7.562003 5.554667 -4.065567
v 5.519065 4.985140 -4.710481
v -8.145684 5.751956 -4.471421
v 0.721822 5.666675 -5.385724
v -0.707586 6.451413 4.497985
v -3.270799 6.230461 1.922180
v 8.334170 6.939992 -0.514640
v -2.951736 6.006576 -1.487605
v 3.161940 5.576195 -2.394526
v 4.401825 5.719185 -3.763876
v 3.933016 5.892042 -4.892892
v -0.934053 6.980117 3.273149
v 3.656130 5.710280 -1.604815
v 5.489151 5.994812 -0.379683
v -0.890718 5.554082 -1.008694
v -6.939028 6.160750 -1.564897
v 5.053730 6.336764 -2.396762
v -8.005117 6.936439 -4.122910
v 6.465506 5.818443 -3.949554
v 2.718904 6.668012 -5.677299
v -4.917159 6.814436 5.729454
v -7.370545 6.814630 5.127840
v -6.678352 5.895937 3.280478
v 6.261531 6.148769 3.496413
v -1.470838 7.038526 1.549347
v 3.712923 5.941968 2.174141
v -5.179315 6.767045 0.415552
v 5.327294 6.859716 1.386533
v -3.229175 6.305830 0.038357
v 3.931484 5.964031 0.974942
v 6.669321 6.533519 -2.023768
v 3.778986 6.149490 -5.746467
v 5.838832 6.918615 -5.694921
v -7.960129 7.088504 3.473285
v 7.318011 6.982298 3.017884
v -6.805509 6.689087 0.550599
v -1.923664 6.919503 0.820748
v 0.724196 6.822195 -0.206247
v 7.507587 6.776811 -4.780481
v -7.213687 7.110052 5.839377
v 2.587334 7.054600 5.753482
v 6.434693 7.049692 4.580909
v 4.536429 6.962201 3.515188
v 2.134480 7.063131 2.649888
v 2.290635 6.955896 0.378132
v 7.124062 7.084720 0.918705
v -7.895253 7.018925 -1.844764
v 7.936988 6.892494 -4.353101
vn -0.3103 -0.3154 0.8968
vn -0.8637 -0.3392 0.3728
vn -0.3319 -0.8676 0.3703
vn 0.3106 -0.3151 0.8968
vn 0.8642 -0.3390 0.3718
vn 0.3319 -0.8675 0.3706
vn 0.6227 -0.6494 -0.4365
vn -0.6220 -0.6505 -0.4359
vn -0.2825 -0.2847 -0.9160
vn 0.2801 -0.2862 -0.9163
vn -0.9032 0.0985 -0.4177
vn -0.3836 0.3217 -0.8656
vn -0.3747 0.5322 0.7592
vn 0.6195 0.6375 0.4581
vn -0.0623 0.2095 -0.9758
vn -0.9152 0.2817 0.2882
vn 0.9942 0.1073 -0.0060
vn -0.0384 0.1304 0.9907
vn 0.1002 0.2090 0.9728
vn 0.2718 0.3509 -0.8961
vn 0.6216 0.6901 -0.3706
vn -0.1601 0.4985 0.8520
vn -0.8642 0.4981 -0.0705
vn -0.1291 0.9280 -0.3494
vn 0.0706 0.9786 -0.1931
vn -0.1095 0.9708 0.2133
vn -0.0474 0.3069 -0.9505
vn 0.8618 0.5068 -0.0227
vn -0.0274 0.5569 -0.8301
vn -0.1105 0.5803 -0.8069
vn 0.1713 0.6852 -0.7079
vn -0.3807 0.9143 0.1382
vn -0.2630 0.9047 0.3352
vn 0.0017 0.7676 -0.6410
vn 0.0344 0.6468 -0.7619
vn 0.0333 0.7357 0.6765
vn -0.2359 0.4970 0.8351
vn 0.4318 0.9020 -0.0074
vn 0.1420 0.4569 -0.8781
vn 0.5928 0.7111 -0.3781
vn -0.1733 0.4444 -0.8789
vn -0.2826 0.7871 -0.5482
vn 0.2332 0.9638 -0.1291
vn -0.0565 0.9499 -0.3073
vn -0.1895 0.9089 0.3714
vn -0.2362 0.6620 -0.7113
vn 0.4006 0.8901 0.2174
vn 0.2529 0.2937 0.9218
vn 0.3506 0.7082 -0.6127
vn -0.1475 0.9878 0.0500
vn -0.3407 0.8869 0.3119
vn 0.1134 0.8848 0.4519
vn 0.7890 0.5848 -0.1883
vn -0.0918 0.9520 0.2920
vn -0.2337 0.6363 -0.7352
vn -0.2911 0.8989 0.3273
vn -0.3255 0.8022 0.5006
vn -0.2613 0.9226 0.2838
vn 0.5233 0.8492 -0.0705
vn 0.1663 0.8455 -0.5074
vn -0.1881 0.9412 -0.2807
vn -0.1489 0.9609 -0.2333
vn -0.0434 0.8332 0.5512
vn -0.3028 0.9343 0.1882
vn 0.0088 0.9959 -0.0898
vn -0.3046 0.9459 -0.1115
vn -0.0405 0.7693 -0.6376
vn 0.3478 0.5966 -0.7232
vn -0.1989 0.9731 -0.1162
vn 0.0313 0.7315 -0.6811
vn -0.4827 0.8324 -0.2724
vn -0.0642 0.9794 -0.1913
vn 0.5127 0.8555 0.0723
vn 0.2728 0.9247 -0.2656
vn 0.5956 0.7756 0.2091
vn -0.2346 0.9204 -0.3128
vn -0.2136 0.9744 0.0699
vn 0.2980 0.9265 -0.2297
vn 0.1186 0.9901 0.0752
vn -0.4109 0.9109 0.0377
vn 0.0498 0.9879 -0.1471
vn 0.0937 0.9936 -0.0638
vn -0.2502 0.9664 -0.0587
vn -0.0167 0.9096 -0.4151
vn -0.2488 0.9658 -0.0726
vn -0.0758 0.9969 0.0184
vn -0.2845 0.9551 0.0829
vn 0.1938 0.9810 0.0125
vn -0.2259 0.9441 -0.2402
vn -0.0976 0.8883 -0.4488
vn -0.3411 0.9246 0.1697
vn -0.0225 0.9781 0.2067
vn -0.0814 0.9377 0.3378
vn -0.0133 0.9876 -0.1561
vn 0.1883 0.8873 -0.4210
vn 0.1553 0.9812 -0.1146
vn 0.2624 0.9486 -0.1769
vn -0.0933 0.9900 -0.1055
vn 0.1987 0.9499 -0.2413
vn -0.0272 0.9986 0.0443
s 1
usemtl Liquid_Domain_Material
f 3//3 1//1 2//2
f 3//3 6//6 4//4
f 1//1 3//3 4//4
f 4//4 6//6 5//5
f 7//7 5//5 6//6
f 6//6 3//3 8//8
f 7//7 6//6 8//8
f 8//8 3//3 2//2
f 7//7 8//8 9//9
f 10//10 7//7 9//9
f 8//8 11//11 12//12
f 9//9 8//8 12//12
f 9//9 12//12 10//10
f 20//20 7//7 10//10
f 1//1 13//13 2//2
f 14//14 4//4 5//5
f 5//5 7//7 14//14
f 2//2 11//11 8//8
f 10//10 15//15 20//20
f 1//1 4//4 18//18
f 2//2 13//13 16//16
f 10//10 12//12 15//15
f 1//1 18//18 19//19
f 2//2 16//16 11//11
f 16//16 23//23 11//11
f 12//12 34//34 35//35
f 15//15 12//12 44//44
f 15//15 27//27 20//20
f 1//1 19//19 13//13
f 14//14 7//7 17//17
f 39//39 29//29 40//40
f 29//29 25//25 40//40
f 29//29 30//30 31//31
f 26//26 29//29 31//31
f 24//24 26//26 31//31
f 42//42 32//32 24//24
f 32//32 26//26 24//24
f 29//29 26//26 25//25
f 25//25 26//26 44//44
f 32//32 33//33 26//26
f 44//44 26//26 33//33
f 7//7 21//21 28//28
f 44//44 12//12 35//35
f 21//21 7//7 20//20
f 18//18 36//36 19//19
f 18//18 37//37 36//36
f 18//18 4//4 48//48
f 17//17 7//7 28//28
f 39//39 41//41 29//29
f 30//30 29//29 41//41
f 40//40 25//25 43//43
f 25//25 44//44 43//43
f 34//34 43//43 35//35
f 44//44 35//35 43//43
f 46//46 15//15 44//44
f 19//19 36//36 47//47
f 48//48 4//4 14//14
f 49//49 47//47 50//50
f 50//50 38//38 49//49
f 50//50 51//51 38//38
f 17//17 28//28 59//59
f 67//67 42//42 24//24
f 67//67 24//24 31//31
f 30//30 60//60 31//31
f 40//40 43//43 53//53
f 45//45 32//32 42//42
f 23//23 55//55 11//11
f 33//33 32//32 56//56
f 56//56 32//32 45//45
f 34//34 53//53 43//43
f 11//11 55//55 12//12
f 12//12 55//55 34//34
f 33//33 46//46 44//44
f 15//15 46//46 27//27
f 18//18 48//48 22//22
f 36//36 50//50 47//47
f 57//57 50//50 36//36
f 37//37 57//57 36//36
f 51//51 58//58 38//38
f 52//52 75//75 38//38
f 52//52 38//38 58//58
f 39//39 40//40 68//68
f 40//40 99//99 68//68
f 39//39 68//68 41//41
f 67//67 31//31 60//60
f 60//60 30//30 41//41
f 45//45 42//42 61//61
f 61//61 62//62 45//45
f 62//62 54//54 63//63
f 34//34 55//55 53//53
f 46//46 33//33 56//56
f 18//18 22//22 37//37
f 47//47 49//49 73//73
f 64//64 50//50 57//57
f 50//50 64//64 51//51
f 66//66 65//65 82//82
f 66//66 69//69 65//65
f 68//68 60//60 41//41
f 69//69 61//61 65//65
f 40//40 53//53 70//70
f 69//69 62//62 61//61
f 62//62 71//71 54//54
f 45//45 62//62 63//63
f 56//56 45//45 63//63
f 85//85 63//63 54//54
f 72//72 46//46 56//56
f 46//46 72//72 27//27
f 47//47 73//73 19//19
f 49//49 75//75 74//74
f 49//49 38//38 75//75
f 51//51 64//64 77//77
f 79//79 88//88 75//75
f 75//75 52//52 79//79
f 80//80 82//82 76//76
f 82//82 78//78 76//76
f 58//58 81//81 52//52
f 79//79 52//52 81//81
f 66//66 82//82 80//80
f 89//89 67//67 81//81
f 67//67 60//60 81//81
f 60//60 68//68 79//79
f 81//81 60//60 79//79
f 90//90 42//42 67//67
f 61//61 42//42 90//90
f 83//83 69//69 66//66
f 40//40 70//70 99//99
f 69//69 83//83 62//62
f 83//83 71//71 62//62
f 55//55 23//23 70//70
f 70//70 53//53 55//55
f 72//72 56//56 63//63
f 63//63 84//84 72//72
f 84//84 63//63 85//85
f 91//91 85//85 54//54
f 72//72 84//84 27//27
f 19//19 73//73 13//13
f 13//13 86//86 16//16
f 49//49 74//74 73//73
f 57//57 37//37 22//22
f 74//74 75//75 86//86
f 94//94 87//87 76//76
f 94//94 76//76 95//95
f 96//96 95//95 78//78
f 95//95 76//76 78//78
f 88//88 86//86 75//75
f 87//87 80//80 76//76
f 58//58 51//51 77//77
f 58//58 89//89 81//81
f 77//77 89//89 58//58
f 78//78 82//82 96//96
f 96//96 82//82 97//97
f 82//82 65//65 97//97
f 98//98 66//66 80//80
f 89//89 90//90 67//67
f 90//90 97//97 61//61
f 99//99 88//88 68//68
f 79//79 68//68 88//88
f 65//65 61//61 97//97
f 98//98 83//83 66//66
f 91//91 71//71 83//83
f 71//71 91//91 54//54
f 28//28 21//21 100//100
f 85//85 27//27 84//84
f 27//27 85//85 20//20
f 92//92 13//13 73//73
f 22//22 48//48 93//93
f 93//93 48//48 14//14
f 73//73 74//74 92//92
f 14//14 94//94 93//93
f 92//92 74//74 13//13
f 74//74 86//86 13//13
f 22//22 93//93 57//57
f 14//14 87//87 94//94
f 93//93 64//64 57//57
f 95//95 96//96 93//93
f 94//94 95//95 93//93
f 93//93 96//96 64//64
f 98//98 80//80 87//87
f 96//96 77//77 64//64
f 14//14 98//98 87//87
f 17//17 59//59 14//14
f 14//14 59//59 98//98
f 86//86 99//99 23//23
f 16//16 86//86 23//23
f 97//97 77//77 96//96
f 88//88 99//99 86//86
f 77//77 90//90 89//89
f 97//97 90//90 77//77
f 59//59 83//83 98//98
f 59//59 100//100 83//83
f 28//28 100//100 59//59
f 100//100 91//91 83//83
f 23//23 99//99 70//70
f 21//21 85//85 91//91
f 100//100 21//21 91//91
f 21//21 20//20 85//85
