# Blender 4.1.1
# www.blender.org
mtllib aa0503.mtl
o Liquid_Domain
v -8.134167 -8.755833 6.217273
v -8.474266 -9.098455 5.873006
v 8.475014 -9.100424 5.868650
v -8.483411 -9.103361 -5.865777
v 8.483982 -9.103127 -5.864433
v -8.134167 -8.755833 -6.217273
v 8.134167 -8.755833 -6.217273
v 8.134167 -8.755833 6.217273
v 8.451612 5.262989 -5.831417
v -8.126417 3.247881 -6.210850
v -8.469175 3.981032 -5.840392
v -3.702448 3.998670 -6.198657
v 2.882627 5.381428 -6.177621
v -5.366455 3.882641 6.184639
v -2.927579 4.131032 6.170600
v 8.437133 6.700342 3.347352
v -8.446943 4.262718 6.129130
v -6.938115 1.887275 3.998347
v -6.110163 2.339761 3.679859
v -6.867712 2.920543 2.691534
v 0.058306 5.127922 -6.112442
v -5.618784 4.687798 5.345410
v -7.314567 5.024736 2.878446
v -5.962473 4.799886 -6.133796
v -7.356471 2.905715 4.278678
v -5.919564 4.447779 2.858818
v -8.406013 4.900471 1.647521
v 8.468439 5.195364 -2.903414
v 8.073079 5.322882 -6.193124
v -6.880018 3.743074 5.287130
v -4.987086 4.825204 4.127324
v -6.223664 5.236670 5.997284
v -4.242558 4.410048 5.813313
v -7.637070 5.084512 5.356264
v -6.695214 4.334338 2.711588
v 5.536449 3.600883 -2.689346
v 5.677967 3.941126 -4.068458
v -3.449466 5.656385 6.006593
v 0.240293 6.670342 6.212842
v 4.768794 4.210138 1.168172
v 6.441689 4.281106 -1.723098
v 7.069023 4.865213 0.341403
v 2.077090 4.276286 -3.892785
v 4.759814 3.885400 -4.820246
v 3.841272 4.515218 -4.961504
v -1.509241 4.609708 -5.688309
v -3.014575 4.792454 3.322496
v -4.725039 5.122003 3.180842
v 6.898190 4.497547 2.029201
v 3.041700 4.478600 -1.927314
v 7.234262 6.087266 -1.502383
v -1.196859 4.432732 -4.522685
v 6.027577 4.949268 -4.687646
v -2.606950 5.077190 -5.506424
v -6.988865 5.492902 -5.596795
v -8.362859 5.358552 5.769990
v -2.719445 5.770856 5.923606
v 8.455786 7.031393 5.879930
v -3.191355 4.809149 5.099983
v -2.097091 5.385294 2.469501
v -0.860954 4.920415 1.891450
v -8.350222 7.059855 -0.763826
v -1.021537 5.059319 -3.173695
v 0.329933 5.033706 -3.930577
v 2.515693 5.479448 -4.504819
v 4.088931 5.779624 -5.220626
v 8.129785 6.694976 6.201756
v -1.219900 6.077439 5.034026
v -8.170172 5.738696 4.195734
v -1.776363 5.668406 3.294267
v -3.598142 6.417842 1.752886
v -6.820724 5.510652 1.875282
v -4.207321 5.771900 0.960953
v 1.523822 5.782794 0.973596
v 7.199310 6.789579 2.894715
v 3.458816 5.404506 1.099244
v -5.319077 4.973630 1.233795
v 8.371819 6.731727 -1.450013
v -4.141355 5.341087 0.008437
v -0.006632 5.460866 -0.445110
v 1.220268 5.555720 -2.153337
v -2.802096 5.555173 -4.449870
v -8.458768 6.765758 -2.989084
v 7.857432 6.037919 -3.679620
v 0.448337 5.837986 -5.087378
v 5.324995 5.470515 -5.816846
v 0.725739 5.889379 3.502971
v 5.265168 5.658857 3.301633
v -5.052890 6.599965 -1.171205
v -1.362601 5.692457 -0.671198
v -4.201037 5.575602 -2.999189
v 7.207695 6.218425 -5.627399
v 3.616182 6.091148 -5.783179
v -2.272490 6.641926 5.840128
v -6.702949 6.943758 0.604991
v -5.326828 6.971036 -2.599868
v -0.917546 7.004742 5.835447
v 2.466083 6.963589 4.470987
v 7.923751 7.021347 -0.952680
v 6.684100 6.988380 4.011296
v -7.777234 6.908443 -4.080140
vn -0.2775 -0.2876 0.9167
vn -0.6212 -0.6524 0.4341
vn 0.6225 -0.6509 0.4346
vn -0.6226 -0.6500 -0.4357
vn 0.6229 -0.6498 -0.4356
vn -0.2814 -0.2860 -0.9160
vn 0.2826 -0.2860 -0.9156
vn 0.2839 -0.2860 0.9152
vn 0.8391 0.3853 -0.3839
vn -0.3471 0.0966 -0.9329
vn -0.7128 0.2724 -0.6463
vn 0.0347 0.2135 -0.9763
vn -0.0528 0.3349 -0.9408
vn 0.0405 0.1348 0.9900
vn -0.0581 0.0781 0.9953
vn 0.7408 0.6704 -0.0421
vn -0.5737 0.1304 0.8086
vn 0.2447 0.9491 -0.1982
vn -0.6765 0.7158 0.1731
vn 0.1764 0.4089 0.8954
vn -0.1619 0.5793 -0.7989
vn -0.0494 0.8384 -0.5428
vn 0.6079 0.7498 0.2612
vn -0.0165 0.3758 -0.9265
vn 0.9120 0.3418 -0.2270
vn -0.4635 0.6245 0.6286
vn -0.8669 0.4543 0.2052
vn 0.9789 0.1835 -0.0901
vn 0.3372 0.3387 -0.8784
vn 0.1278 0.4125 -0.9020
vn -0.3935 0.9066 0.1526
vn 0.1703 0.8149 0.5540
vn -0.1399 0.7928 0.5932
vn 0.4947 0.7869 -0.3689
vn 0.0704 0.2028 0.9767
vn -0.1948 0.9808 0.0123
vn -0.5962 0.7357 0.3214
vn -0.4375 0.7533 0.4910
vn -0.0316 0.3657 0.9302
vn 0.2533 0.9087 -0.3318
vn -0.7253 0.6881 0.0204
vn -0.7919 0.6105 -0.0130
vn 0.3381 0.8618 0.3780
vn -0.0803 0.6464 0.7588
vn 0.2021 0.3289 0.9225
vn -0.1624 0.9815 -0.1013
vn -0.1943 0.9290 0.3149
vn -0.2589 0.9103 0.3230
vn -0.5433 0.7591 -0.3587
vn 0.3984 0.8902 -0.2212
vn -0.8358 0.5482 -0.0302
vn 0.0089 0.9969 -0.0785
vn -0.4852 0.6938 0.5322
vn 0.2263 0.7674 -0.5999
vn -0.1206 0.6635 -0.7383
vn -0.4977 0.7097 0.4986
vn -0.4520 0.7127 0.5364
vn 0.6215 0.6601 0.4220
vn -0.4878 0.8205 -0.2979
vn 0.1533 0.9749 0.1613
vn 0.0709 0.9975 -0.0034
vn -0.6378 0.7556 0.1493
vn 0.1409 0.9554 -0.2595
vn -0.0624 0.9863 0.1524
vn 0.2289 0.5893 0.7748
vn 0.1940 0.7114 0.6755
vn 0.2785 0.2781 0.9193
vn -0.4017 0.7608 -0.5097
vn -0.1966 0.9805 0.0088
vn -0.2909 0.9298 -0.2257
vn -0.1452 0.9746 0.1708
vn 0.0830 0.7721 0.6301
vn -0.4867 0.8253 -0.2862
vn -0.0549 0.9964 -0.0645
vn -0.5240 0.8260 -0.2076
vn 0.4207 0.8485 -0.3211
vn 0.0359 0.9261 0.3756
vn 0.7414 0.6394 -0.2037
vn 0.0556 0.9980 0.0294
vn -0.0312 0.9995 -0.0057
vn 0.1925 0.9428 -0.2721
vn 0.2401 0.9446 -0.2238
vn -0.8166 0.5645 -0.1207
vn 0.2329 0.9665 -0.1074
vn -0.2601 0.9634 0.0651
vn 0.0434 0.9910 -0.1268
vn -0.1289 0.9105 -0.3928
vn 0.0003 0.7255 -0.6882
vn 0.6017 0.7749 0.1936
vn 0.0931 0.9929 -0.0744
vn 0.3228 0.9367 -0.1359
vn -0.0185 0.9384 -0.3451
vn 0.0927 0.9007 -0.4245
vn -0.6645 0.7205 0.1985
vn 0.1059 0.8287 0.5496
vn 0.4383 0.8569 -0.2713
vn -0.2403 0.9455 0.2197
vn -0.0542 0.8914 -0.4500
vn -0.1463 0.9814 -0.1245
vn -0.1004 0.9218 -0.3744
vn -0.2320 0.8221 -0.5200
s 1
usemtl Liquid_Domain_Material
f 1//1 2//2 8//8
f 2//2 3//3 8//8
f 5//5 2//2 4//4
f 3//3 2//2 5//5
f 5//5 4//4 6//6
f 7//7 5//5 6//6
f 58//58 8//8 3//3
f 9//9 5//5 7//7
f 6//6 4//4 10//10
f 2//2 17//17 4//4
f 7//7 6//6 29//29
f 29//29 9//9 7//7
f 4//4 11//11 10//10
f 5//5 9//9 28//28
f 2//2 1//1 17//17
f 8//8 39//39 15//15
f 6//6 10//10 12//12
f 8//8 14//14 1//1
f 8//8 15//15 14//14
f 1//1 14//14 17//17
f 67//67 8//8 58//58
f 6//6 12//12 13//13
f 8//8 67//67 39//39
f 20//20 25//25 18//18
f 19//19 20//20 18//18
f 30//30 22//22 18//18
f 18//18 22//22 19//19
f 25//25 20//20 23//23
f 10//10 24//24 12//12
f 18//18 25//25 30//30
f 20//20 19//19 26//26
f 3//3 5//5 16//16
f 56//56 27//27 17//17
f 17//17 27//27 4//4
f 16//16 5//5 28//28
f 4//4 83//83 11//11
f 6//6 13//13 29//29
f 22//22 31//31 19//19
f 35//35 20//20 26//26
f 14//14 32//32 17//17
f 15//15 33//33 14//14
f 30//30 25//25 34//34
f 19//19 31//31 26//26
f 20//20 35//35 23//23
f 36//36 37//37 44//44
f 37//37 36//36 41//41
f 21//21 12//12 46//46
f 13//13 12//12 21//21
f 33//33 32//32 14//14
f 15//15 38//38 33//33
f 58//58 3//3 16//16
f 31//31 48//48 26//26
f 49//49 42//42 40//40
f 42//42 41//41 40//40
f 36//36 50//50 40//40
f 41//41 36//36 40//40
f 36//36 44//44 50//50
f 50//50 44//44 43//43
f 45//45 43//43 44//44
f 44//44 37//37 53//53
f 44//44 53//53 45//45
f 33//33 22//22 32//32
f 59//59 33//33 38//38
f 30//30 34//34 22//22
f 33//33 31//31 22//22
f 59//59 47//47 33//33
f 47//47 31//31 33//33
f 25//25 23//23 34//34
f 47//47 48//48 31//31
f 35//35 72//72 23//23
f 72//72 35//35 26//26
f 88//88 49//49 40//40
f 88//88 40//40 76//76
f 40//40 50//50 76//76
f 51//51 41//41 42//42
f 50//50 43//43 64//64
f 41//41 51//51 37//37
f 63//63 64//64 52//52
f 52//52 46//46 54//54
f 11//11 55//55 10//10
f 24//24 54//54 12//12
f 46//46 12//12 54//54
f 10//10 55//55 24//24
f 17//17 32//32 56//56
f 15//15 57//57 38//38
f 34//34 32//32 22//22
f 56//56 69//69 27//27
f 69//69 23//23 27//27
f 60//60 70//70 61//61
f 26//26 48//48 77//77
f 72//72 26//26 77//77
f 81//81 76//76 50//50
f 50//50 64//64 81//81
f 51//51 53//53 37//37
f 63//63 52//52 82//82
f 43//43 65//65 64//64
f 82//82 52//52 54//54
f 85//85 52//52 64//64
f 45//45 65//65 43//43
f 52//52 85//85 46//46
f 46//46 85//85 21//21
f 29//29 13//13 86//86
f 15//15 39//39 57//57
f 32//32 34//34 56//56
f 38//38 57//57 59//59
f 59//59 57//57 68//68
f 34//34 69//69 56//56
f 59//59 70//70 47//47
f 70//70 59//59 68//68
f 34//34 23//23 69//69
f 47//47 70//70 60//60
f 23//23 72//72 27//27
f 87//87 74//74 61//61
f 76//76 74//74 88//88
f 77//77 48//48 73//73
f 73//73 79//79 77//77
f 61//61 80//80 60//60
f 74//74 80//80 61//61
f 90//90 79//79 73//73
f 74//74 81//81 80//80
f 80//80 63//63 90//90
f 27//27 83//83 4//4
f 79//79 90//90 82//82
f 81//81 63//63 80//80
f 79//79 82//82 91//91
f 81//81 64//64 63//63
f 63//63 82//82 90//90
f 84//84 53//53 51//51
f 84//84 28//28 9//9
f 83//83 101//101 11//11
f 82//82 55//55 91//91
f 65//65 85//85 64//64
f 45//45 66//66 65//65
f 53//53 66//66 45//45
f 11//11 101//101 55//55
f 82//82 54//54 55//55
f 86//86 66//66 53//53
f 54//54 24//24 55//55
f 86//86 13//13 93//93
f 87//87 61//61 70//70
f 88//88 74//74 87//87
f 48//48 47//47 71//71
f 71//71 47//47 60//60
f 73//73 48//48 71//71
f 16//16 28//28 78//78
f 95//95 72//72 77//77
f 89//89 95//95 77//77
f 60//60 90//90 71//71
f 60//60 80//80 90//90
f 89//89 77//77 79//79
f 90//90 73//73 71//71
f 49//49 75//75 42//42
f 75//75 51//51 42//42
f 76//76 81//81 74//74
f 91//91 89//89 79//79
f 78//78 28//28 84//84
f 84//84 92//92 53//53
f 9//9 92//92 84//84
f 65//65 93//93 85//85
f 93//93 65//65 66//66
f 93//93 66//66 86//86
f 53//53 92//92 86//86
f 13//13 21//21 85//85
f 93//93 13//13 85//85
f 86//86 92//92 29//29
f 9//9 29//29 92//92
f 57//57 39//39 94//94
f 57//57 94//94 68//68
f 87//87 70//70 68//68
f 87//87 98//98 88//88
f 88//88 100//100 49//49
f 75//75 49//49 100//100
f 95//95 27//27 72//72
f 62//62 83//83 27//27
f 99//99 84//84 51//51
f 78//78 84//84 99//99
f 101//101 96//96 91//91
f 91//91 55//55 101//101
f 39//39 97//97 94//94
f 94//94 97//97 68//68
f 87//87 68//68 97//97
f 98//98 87//87 97//97
f 88//88 98//98 100//100
f 27//27 95//95 62//62
f 51//51 75//75 99//99
f 89//89 91//91 96//96
f 39//39 67//67 58//58
f 97//97 39//39 58//58
f 58//58 98//98 97//97
f 58//58 100//100 98//98
f 58//58 16//16 100//100
f 16//16 75//75 100//100
f 16//16 99//99 75//75
f 16//16 78//78 99//99
f 96//96 62//62 95//95
f 89//89 96//96 95//95
f 96//96 101//101 62//62
f 62//62 101//101 83//83
