# Blender 4.1.1
# www.blender.org
mtllib aa0529.mtl
o Liquid_Domain
v -8.134167 -8.755833 6.217273
v -8.381289 -9.101794 5.897913
v 8.134167 -8.755833 6.217273
v 8.482988 -9.102798 5.865533
v 8.477126 -8.762161 -6.206940
v 8.134167 -9.108939 -5.864167
v -8.484525 -9.102396 -5.865761
v -8.134167 -8.755833 -6.217273
v -8.419056 4.951166 5.886734
v 8.479500 5.526981 -3.023624
v -8.133553 4.165103 6.190176
v -3.697628 4.172381 6.210576
v 8.474571 4.529236 -5.849144
v -4.822015 4.181844 -6.200624
v 0.103635 3.938901 6.200712
v -8.406446 6.903366 2.848117
v 3.148552 5.545194 -6.181681
v 8.129247 4.655864 -6.173464
v -8.425373 6.960949 0.400739
v -1.367486 6.041723 -6.145317
v 6.906311 5.381651 -6.182836
v 4.461321 6.652470 6.179283
v 0.783688 5.166470 5.847904
v -5.446855 4.226876 3.949053
v 8.394779 6.906993 3.172958
v 5.447068 4.237462 -0.684298
v 0.933287 4.401558 -3.756257
v 2.747891 4.317333 -3.179371
v -0.462476 4.177169 -3.734718
v 1.755320 4.405251 -4.765556
v -8.480685 6.654066 -5.851922
v -8.094086 6.976181 -6.146689
v -4.326089 5.485768 5.697062
v 8.141673 6.715921 6.203012
v 5.055765 4.180794 0.302698
v -0.887979 4.498611 -2.353327
v 0.747668 4.601641 -1.727371
v 3.897977 4.763890 -1.890074
v 4.725414 5.537199 -2.362271
v 2.519248 4.897154 -4.575787
v -5.533195 5.192793 -5.993689
v -7.211354 5.377856 5.587202
v -1.974277 4.897884 5.538163
v -6.274942 5.007665 4.830595
v -4.268955 5.630878 4.636734
v -4.141481 5.259078 2.643671
v 0.619063 4.881603 2.343993
v -2.194102 5.020671 1.477872
v 1.382538 5.105465 0.630610
v 0.213647 5.108809 -0.495531
v 3.303715 5.106294 -0.593765
v 8.391337 6.036162 -1.374759
v -2.520725 5.137858 -0.942933
v 6.377758 5.131837 -1.037060
v -1.679049 4.883948 -4.448742
v 0.111128 5.386546 -4.990808
v 2.638235 6.343880 -5.405344
v -3.107292 5.570893 -5.612930
v -6.101108 5.776565 6.143595
v 0.446695 5.406473 4.693696
v 1.268644 5.288135 3.795327
v 3.091837 5.690862 3.580544
v -6.427081 5.631671 2.570246
v 4.348798 5.630115 3.447498
v -2.480313 5.751098 2.887330
v 4.333195 5.237899 2.211563
v -5.355763 5.724182 1.630203
v 2.404773 5.778804 2.004238
v 6.836502 5.811048 0.865275
v -3.837090 5.142498 -0.147340
v 6.771064 5.819286 -3.891701
v 3.753192 5.691540 -2.695786
v -2.137614 6.163137 -5.736632
v 5.465813 5.839294 -5.832154
v -6.423411 6.345194 5.815036
v -3.969307 6.743205 -0.966294
v 7.758898 6.679727 -3.143183
v 3.571492 7.007069 -4.017286
v -4.844896 5.647280 -3.388016
v -4.874833 6.006060 -4.593466
v 7.951106 5.891055 -5.159348
v 6.068855 6.216494 -5.011298
v 3.524096 6.794900 5.640165
v 6.376763 5.767409 3.640343
v 7.471580 6.744555 -0.689256
v -6.845266 5.983297 -3.806886
v 7.183335 6.510014 -5.820985
v 0.548790 6.735431 -5.673880
v 3.375330 6.587523 -5.850014
v 6.881701 6.847677 4.236383
v -7.490597 6.982224 2.793181
v -6.655747 6.558125 0.262267
v -3.336568 6.347115 -1.919993
v 5.142426 6.592175 -4.342331
v 8.452976 7.027967 5.869708
v 4.385618 6.982714 4.497892
v 8.047762 7.015314 0.080127
v -5.294592 7.013209 -2.554794
v -7.773933 7.051487 -3.105851
v -7.199661 6.777432 -5.165101
vn -0.3227 -0.2700 0.9072
vn -0.6148 -0.6629 0.4273
vn 0.2820 -0.2861 0.9157
vn 0.6228 -0.6499 0.4355
vn 0.5408 -0.3603 -0.7600
vn 0.2935 -0.9011 -0.3192
vn -0.6235 -0.6500 -0.4344
vn -0.2807 -0.2861 -0.9162
vn -0.5590 0.4313 0.7082
vn 0.9604 0.2712 -0.0634
vn -0.3387 0.1230 0.9328
vn 0.0685 0.2043 0.9765
vn 0.8777 0.2185 -0.4265
vn 0.0172 0.1185 -0.9928
vn -0.0471 0.1630 0.9855
vn -0.6659 0.7121 0.2225
vn 0.0095 0.1485 -0.9889
vn 0.4033 0.1933 -0.8944
vn -0.6426 0.7649 0.0454
vn -0.1150 0.4355 -0.8928
vn 0.0327 0.1900 -0.9812
vn -0.0818 0.5006 0.8618
vn -0.2772 0.6396 0.7170
vn 0.0149 0.9955 -0.0938
vn 0.6653 0.7461 -0.0269
vn -0.2499 0.9435 0.2177
vn 0.0386 0.9862 0.1608
vn -0.2986 0.9525 0.0599
vn 0.1085 0.9436 0.3127
vn -0.0691 0.7480 0.6601
vn -0.8635 0.3512 -0.3619
vn -0.1803 0.6288 -0.7564
vn 0.3097 0.7446 0.5913
vn 0.2855 0.3030 0.9092
vn -0.0439 0.9667 -0.2520
vn 0.2255 0.9542 -0.1967
vn -0.0294 0.9762 -0.2149
vn -0.2037 0.9399 0.2742
vn -0.0637 0.8082 0.5855
vn -0.6673 0.5127 0.5403
vn 0.2723 0.5531 -0.7873
vn -0.2898 0.8713 0.3959
vn 0.0425 0.7858 0.6170
vn 0.1275 0.8766 -0.4640
vn -0.0719 0.9812 -0.1792
vn -0.0858 0.9957 0.0356
vn -0.1093 0.9876 -0.1124
vn 0.2460 0.9599 0.1343
vn -0.1520 0.9812 -0.1187
vn 0.1157 0.9788 -0.1692
vn 0.1527 0.9754 -0.1589
vn 0.7984 0.5961 -0.0850
vn 0.3541 0.9134 0.2008
vn -0.6259 0.7581 0.1831
vn 0.1374 0.8875 0.4398
vn 0.0227 0.6096 0.7924
vn -0.2924 0.7588 0.5820
vn -0.1678 0.9502 -0.2627
vn -0.0377 0.3678 0.9292
vn -0.1617 0.9865 0.0259
vn -0.2187 0.9561 -0.1951
vn -0.1406 0.9380 -0.3169
vn 0.5240 0.7835 0.3339
vn -0.0515 0.8492 -0.5255
vn -0.0076 0.9802 -0.1978
vn -0.0319 0.9596 -0.2796
vn 0.2957 0.9374 0.1840
vn -0.1029 0.9900 -0.0964
vn -0.7437 0.6344 -0.2111
vn 0.2995 0.8619 0.4091
vn -0.1169 0.9857 0.1216
vn -0.5256 0.5397 0.6576
vn -0.3962 0.9162 -0.0604
vn 0.1556 0.9575 -0.2428
vn -0.3398 0.9047 0.2571
vn 0.4207 0.8011 0.4257
vn 0.1130 0.9847 -0.1329
vn -0.3205 0.8805 0.3492
vn 0.3171 0.8901 -0.3273
vn 0.2457 0.9693 -0.0060
vn 0.6852 0.7183 -0.1206
vn 0.0220 0.9981 -0.0570
vn -0.3193 0.9044 0.2831
vn -0.3994 0.7895 -0.4660
vn -0.3385 0.9127 -0.2290
vn 0.4440 0.8907 -0.0972
vn 0.2085 0.8230 -0.5284
vn -0.0792 0.9887 0.1277
vn 0.0301 0.7586 -0.6509
vn -0.1701 0.9351 -0.3108
vn 0.3571 0.8999 0.2503
vn 0.3378 0.8493 0.4056
vn 0.5427 0.8006 -0.2539
vn 0.2974 0.9514 0.0803
vn 0.6210 0.6739 0.4002
vn -0.1936 0.8864 -0.4206
vn 0.2631 0.9614 -0.0809
vn 0.2343 0.8625 -0.4485
vn -0.0136 0.9843 -0.1757
vn 0.4258 0.8976 -0.1140
s 1
usemtl Liquid_Domain_Material
f 1//1 2//2 3//3
f 2//2 4//4 3//3
f 4//4 2//2 7//7
f 6//6 4//4 7//7
f 6//6 5//5 4//4
f 6//6 7//7 8//8
f 5//5 6//6 8//8
f 2//2 1//1 9//9
f 2//2 9//9 7//7
f 7//7 31//31 8//8
f 4//4 5//5 10//10
f 5//5 8//8 18//18
f 18//18 13//13 5//5
f 1//1 11//11 9//9
f 3//3 34//34 1//1
f 34//34 3//3 4//4
f 1//1 12//12 11//11
f 95//95 34//34 4//4
f 10//10 5//5 13//13
f 1//1 15//15 12//12
f 9//9 16//16 7//7
f 8//8 14//14 17//17
f 8//8 21//21 18//18
f 8//8 17//17 21//21
f 14//14 8//8 32//32
f 14//14 20//20 17//17
f 12//12 59//59 11//11
f 15//15 43//43 12//12
f 15//15 23//23 43//43
f 1//1 22//22 15//15
f 95//95 4//4 25//25
f 4//4 10//10 25//25
f 51//51 35//35 26//26
f 7//7 19//19 31//31
f 37//37 29//29 36//36
f 27//27 29//29 37//37
f 28//28 30//30 27//27
f 27//27 30//30 56//56
f 8//8 31//31 32//32
f 11//11 42//42 9//9
f 11//11 59//59 42//42
f 12//12 33//33 59//59
f 33//33 12//12 43//43
f 1//1 34//34 22//22
f 26//26 35//35 69//69
f 51//51 26//26 38//38
f 54//54 39//39 26//26
f 50//50 37//37 36//36
f 51//51 27//27 37//37
f 38//38 28//28 51//51
f 28//28 27//27 51//51
f 40//40 28//28 38//38
f 29//29 55//55 36//36
f 28//28 40//40 30//30
f 27//27 55//55 29//29
f 15//15 22//22 23//23
f 45//45 24//24 44//44
f 24//24 45//45 46//46
f 61//61 47//47 60//60
f 24//24 46//46 63//63
f 61//61 49//49 47//47
f 16//16 19//19 7//7
f 66//66 69//69 35//35
f 49//49 50//50 47//47
f 35//35 51//51 66//66
f 50//50 46//46 48//48
f 47//47 50//50 48//48
f 46//46 53//53 70//70
f 50//50 53//53 46//46
f 50//50 36//36 53//53
f 54//54 26//26 69//69
f 25//25 10//10 52//52
f 49//49 37//37 50//50
f 51//51 37//37 49//49
f 36//36 93//93 53//53
f 26//26 39//39 38//38
f 38//38 72//72 40//40
f 79//79 36//36 55//55
f 27//27 56//56 55//55
f 57//57 30//30 40//40
f 14//14 32//32 41//41
f 58//58 14//14 41//41
f 20//20 14//14 58//58
f 42//42 75//75 44//44
f 43//43 23//23 60//60
f 44//44 75//75 45//45
f 43//43 45//45 33//33
f 65//65 45//45 43//43
f 60//60 65//65 43//43
f 44//44 24//24 63//63
f 45//45 65//65 46//46
f 62//62 68//68 61//61
f 66//66 68//68 62//62
f 64//64 66//66 62//62
f 67//67 63//63 46//46
f 60//60 47//47 65//65
f 69//69 66//66 64//64
f 65//65 48//48 46//46
f 47//47 48//48 65//65
f 61//61 68//68 49//49
f 66//66 51//51 68//68
f 46//46 70//70 67//67
f 70//70 92//92 67//67
f 51//51 49//49 68//68
f 39//39 72//72 38//38
f 36//36 79//79 93//93
f 39//39 54//54 71//71
f 40//40 72//72 78//78
f 80//80 79//79 58//58
f 79//79 55//55 58//58
f 10//10 13//13 81//81
f 55//55 73//73 58//58
f 73//73 55//55 56//56
f 30//30 57//57 56//56
f 13//13 18//18 81//81
f 21//21 17//17 89//89
f 21//21 89//89 74//74
f 75//75 42//42 59//59
f 33//33 75//75 59//59
f 33//33 45//45 75//75
f 83//83 60//60 23//23
f 62//62 61//61 60//60
f 42//42 44//44 63//63
f 84//84 69//69 64//64
f 92//92 63//63 67//67
f 53//53 76//76 70//70
f 53//53 93//93 76//76
f 54//54 77//77 71//71
f 94//94 39//39 71//71
f 79//79 80//80 86//86
f 77//77 10//10 81//81
f 58//58 41//41 80//80
f 57//57 88//88 56//56
f 94//94 74//74 89//89
f 82//82 74//74 94//94
f 18//18 87//87 81//81
f 58//58 73//73 20//20
f 87//87 18//18 21//21
f 83//83 23//23 22//22
f 42//42 16//16 9//9
f 83//83 62//62 60//60
f 96//96 62//62 83//83
f 62//62 96//96 64//64
f 91//91 63//63 92//92
f 69//69 84//84 85//85
f 54//54 69//69 85//85
f 77//77 54//54 85//85
f 77//77 52//52 10//10
f 98//98 93//93 79//79
f 79//79 86//86 99//99
f 71//71 82//82 94//94
f 77//77 81//81 71//71
f 71//71 87//87 82//82
f 80//80 41//41 100//100
f 87//87 74//74 82//82
f 81//81 87//87 71//71
f 32//32 100//100 41//41
f 88//88 73//73 56//56
f 17//17 20//20 89//89
f 87//87 21//21 74//74
f 96//96 84//84 64//64
f 90//90 84//84 96//96
f 42//42 91//91 16//16
f 42//42 63//63 91//91
f 90//90 85//85 84//84
f 70//70 76//76 92//92
f 85//85 97//97 52//52
f 52//52 77//77 85//85
f 79//79 99//99 98//98
f 72//72 39//39 78//78
f 39//39 94//94 78//78
f 100//100 99//99 86//86
f 78//78 57//57 40//40
f 80//80 100//100 86//86
f 88//88 57//57 89//89
f 88//88 20//20 73//73
f 89//89 20//20 88//88
f 83//83 22//22 95//95
f 22//22 34//34 95//95
f 95//95 96//96 83//83
f 90//90 96//96 95//95
f 25//25 90//90 95//95
f 25//25 85//85 90//90
f 25//25 97//97 85//85
f 91//91 19//19 16//16
f 25//25 52//52 97//97
f 92//92 19//19 91//91
f 19//19 92//92 76//76
f 76//76 98//98 19//19
f 98//98 99//99 19//19
f 93//93 98//98 76//76
f 99//99 32//32 31//31
f 19//19 99//99 31//31
f 99//99 100//100 32//32
f 78//78 89//89 57//57
f 94//94 89//89 78//78
