# Blender 4.1.1
# www.blender.org
mtllib aa0510.mtl
o Liquid_Domain
v -8.476472 -8.758179 6.215905
v -8.134167 -9.108939 5.864167
v 8.482502 -9.104002 5.866123
v 8.134167 -8.755833 6.217273
v 8.482257 -8.758707 -6.207582
v 8.134167 -9.108939 -5.864167
v -8.484370 -9.104357 -5.864258
v -8.134167 -8.755833 -6.217273
v 8.465561 4.461484 -5.856316
v -8.059296 3.807204 6.196847
v -8.412275 4.589451 5.802108
v -8.475453 4.322840 -5.860888
v -8.143858 4.934699 -6.162288
v -3.703296 3.717338 6.193525
v 8.090536 4.607627 -6.210058
v -6.816236 2.266629 3.446074
v -6.039477 2.436810 3.478488
v -8.378589 4.792696 2.502266
v 3.887819 3.778588 -6.216216
v -6.768893 2.386189 4.686908
v -8.480178 6.822036 -2.119377
v -5.540451 4.238274 4.096978
v -5.981551 4.300418 3.508494
v 8.452425 6.665404 3.043341
v 2.064043 6.626561 6.200855
v -4.733104 4.093202 5.773207
v -7.313547 4.258659 3.582458
v 5.592288 3.739445 -4.128306
v 5.053758 4.299063 -4.944067
v -7.076628 4.695796 5.942508
v -2.913213 4.885818 5.730508
v -6.543383 4.351841 5.409284
v -4.132478 4.604948 4.174973
v -6.416943 4.745790 3.187719
v 5.165108 4.059124 1.074602
v 8.399739 6.939774 1.471758
v 3.287982 4.251348 -2.155442
v 5.568415 4.883767 -2.404472
v 4.575721 4.288276 -3.218018
v 1.581234 4.163919 -4.024438
v 3.754008 4.481614 -3.876682
v 2.604561 4.865049 -4.421242
v -2.892228 5.121192 -6.093915
v 1.779149 5.550661 -6.139266
v 3.619351 6.642827 -6.129661
v -7.757642 4.677107 5.132231
v -4.036000 5.181279 5.882156
v -5.053393 4.789752 1.541504
v 6.962492 4.466175 1.283304
v 7.163672 5.135711 -0.602795
v 6.819602 4.776511 -3.005125
v 0.301915 4.868019 -3.976126
v 4.004234 5.698386 -4.996295
v -2.983847 5.332879 2.977504
v -4.085870 5.526932 2.517191
v -0.099322 4.994450 1.980476
v 4.225142 4.901514 1.676175
v -4.266031 5.309412 0.293831
v -3.790675 4.787219 -1.256507
v 1.992566 5.508112 -1.888621
v -2.622869 5.433514 -2.971395
v -0.805926 4.731834 -3.844502
v 7.596753 6.063228 -4.127541
v 7.632742 6.299790 -5.786562
v 6.536645 6.783432 -6.141265
v -2.428076 6.166370 6.037364
v -1.872363 5.636904 5.039961
v 6.291251 5.619943 3.134800
v 7.138175 6.602035 2.790747
v -6.613941 5.556830 2.204976
v -2.817337 5.289123 1.276079
v -6.906007 6.834176 0.907228
v -0.796071 5.677339 -0.183948
v 0.299108 5.292353 -0.839945
v 1.973790 5.579024 -0.809682
v -4.701688 5.533499 -2.843226
v 7.555712 6.671753 -2.702302
v -6.498550 5.345263 -3.689246
v -0.059496 5.986789 -5.002572
v -6.361845 5.414585 -5.641504
v 8.134792 6.720535 6.202059
v -0.030476 6.172363 4.377945
v 0.675847 5.683620 3.336110
v 4.232708 5.803643 3.706385
v 2.537659 5.781808 2.032023
v -8.238345 7.010010 0.867219
v 7.241141 6.678562 -0.064109
v 8.196962 6.892532 -2.791086
v -4.715565 6.362836 -4.896331
v 2.980392 6.795870 -5.057632
v -7.883730 6.924829 -3.835616
v 6.980378 6.194653 -4.993792
v 1.323162 7.035329 5.807940
v 6.197030 6.927032 4.024234
v -2.214550 6.174729 -4.845830
v 2.000763 6.602885 -5.554186
v 5.017978 6.829438 -5.715660
v 2.089457 6.887404 4.418571
v 6.652098 7.118899 -5.645048
v 8.447994 7.058578 5.880479
v -5.323415 6.984058 -1.673606
v -6.972252 7.010777 -2.530111
vn -0.5411 -0.3599 0.7601
vn -0.2967 -0.9013 0.3155
vn 0.6222 -0.6500 0.4363
vn 0.2818 -0.2856 0.9160
vn 0.5421 -0.3606 -0.7591
vn 0.2922 -0.9008 -0.3213
vn -0.6231 -0.6498 -0.4354
vn -0.2823 -0.2855 -0.9158
vn 0.8936 0.1586 -0.4200
vn -0.3051 0.1432 0.9415
vn -0.6297 0.6151 0.4744
vn -0.9037 0.1030 -0.4155
vn -0.3971 0.3771 -0.8367
vn -0.0673 0.1374 0.9882
vn 0.3828 0.1327 -0.9142
vn 0.3712 0.6280 0.6839
vn -0.5751 0.5330 0.6206
vn -0.7713 0.5023 0.3909
vn -0.0033 0.0148 -0.9999
vn 0.1085 0.7575 -0.6437
vn -0.7924 0.6086 -0.0413
vn -0.6257 0.7793 -0.0343
vn -0.1462 0.6123 0.7770
vn 0.9984 0.0566 -0.0070
vn -0.0187 0.3429 0.9392
vn -0.2166 0.7594 0.6135
vn 0.3854 0.7140 0.5845
vn -0.2120 0.9627 0.1679
vn 0.0641 0.5295 0.8459
vn 0.1405 0.7604 0.6341
vn -0.5595 0.8261 -0.0671
vn 0.0592 0.8332 -0.5498
vn -0.2780 0.9410 0.1932
vn 0.1493 0.7639 0.6278
vn 0.0963 0.9611 -0.2590
vn 0.5619 0.8259 -0.0463
vn 0.3044 0.9386 -0.1623
vn -0.2987 0.9475 -0.1141
vn 0.0039 0.9884 -0.1519
vn 0.2695 0.8537 0.4456
vn 0.1608 0.8800 0.4469
vn -0.0634 0.4161 0.9071
vn 0.0053 0.4392 -0.8984
vn -0.1279 0.2810 -0.9511
vn -0.0842 0.5609 -0.8236
vn 0.0385 0.9161 -0.3991
vn -0.2505 0.7836 0.5685
vn 0.1256 0.9422 0.3107
vn -0.6468 0.7387 -0.1895
vn -0.7665 0.6420 0.0156
vn -0.6136 0.7765 -0.1434
vn 0.0582 0.9010 0.4299
vn 0.3134 0.4077 0.8577
vn -0.0750 0.9946 0.0718
vn -0.2383 0.9695 0.0580
vn -0.1517 0.9818 -0.1143
vn 0.3489 0.8476 -0.3998
vn 0.3696 0.9130 0.1726
vn 0.2676 0.9626 0.0422
vn 0.2554 0.9228 -0.2885
vn 0.1333 0.9703 0.2020
vn 0.1479 0.9384 0.3124
vn -0.7694 0.6240 0.1364
vn 0.6458 0.6327 -0.4273
vn 0.1310 0.4820 -0.8663
vn -0.5496 0.6761 0.4907
vn -0.4950 0.8214 -0.2831
vn -0.3771 0.6490 -0.6608
vn -0.7611 0.3865 -0.5209
vn 0.2097 0.7230 0.6583
vn -0.0430 0.9991 -0.0052
vn 0.2782 0.8388 0.4679
vn 0.0963 0.9945 0.0417
vn 0.0165 0.9976 -0.0673
vn -0.1122 0.9926 -0.0461
vn 0.2559 0.9640 -0.0720
vn -0.6154 0.7815 0.1031
vn 0.3781 0.8819 -0.2816
vn -0.1091 0.9790 0.1724
vn -0.0122 0.8567 -0.5157
vn 0.2822 0.2804 0.9175
vn -0.2296 0.9006 -0.3690
vn -0.1196 0.9070 -0.4038
vn -0.0240 0.7213 -0.6922
vn 0.1356 0.9832 -0.1223
vn -0.5267 0.7591 0.3825
vn -0.7369 0.6711 -0.0813
vn 0.4056 0.9100 -0.0859
vn -0.2045 0.9658 -0.1592
vn 0.0478 0.8173 0.5743
vn -0.1602 0.8946 -0.4172
vn -0.1076 0.7457 0.6575
vn -0.1439 0.9286 0.3421
vn -0.1777 0.8873 -0.4256
vn 0.1500 0.9861 -0.0719
vn -0.3038 0.8422 -0.4455
vn -0.0460 0.9426 0.3307
vn -0.0949 0.8630 -0.4962
vn 0.2048 0.9580 0.2007
vn 0.6131 0.6630 0.4297
vn 0.4777 0.8649 -0.1544
vn 0.2041 0.9210 -0.3317
s 1
usemtl Liquid_Domain_Material
f 2//2 3//3 1//1
f 1//1 3//3 4//4
f 5//5 3//3 6//6
f 3//3 2//2 7//7
f 6//6 3//3 7//7
f 7//7 2//2 1//1
f 6//6 7//7 8//8
f 5//5 6//6 8//8
f 100//100 4//4 3//3
f 1//1 10//10 11//11
f 15//15 9//9 5//5
f 5//5 8//8 15//15
f 7//7 12//12 13//13
f 8//8 7//7 13//13
f 4//4 81//81 1//1
f 81//81 4//4 100//100
f 14//14 10//10 1//1
f 1//1 11//11 7//7
f 11//11 18//18 7//7
f 17//17 16//16 20//20
f 15//15 8//8 19//19
f 20//20 22//22 17//17
f 8//8 13//13 19//19
f 17//17 23//23 16//16
f 3//3 5//5 24//24
f 24//24 5//5 9//9
f 19//19 13//13 43//43
f 1//1 25//25 14//14
f 32//32 22//22 20//20
f 27//27 20//20 16//16
f 23//23 27//27 16//16
f 22//22 23//23 17//17
f 21//21 12//12 7//7
f 26//26 30//30 10//10
f 10//10 14//14 26//26
f 46//46 32//32 20//20
f 27//27 46//46 20//20
f 28//28 41//41 39//39
f 28//28 29//29 41//41
f 10//10 30//30 11//11
f 14//14 25//25 66//66
f 1//1 81//81 25//25
f 26//26 32//32 30//30
f 26//26 33//33 32//32
f 22//22 32//32 33//33
f 100//100 3//3 24//24
f 34//34 27//27 23//23
f 18//18 21//21 7//7
f 57//57 35//35 37//37
f 39//39 35//35 38//38
f 35//35 39//39 37//37
f 39//39 41//41 37//37
f 28//28 39//39 51//51
f 41//41 40//40 37//37
f 41//41 42//42 40//40
f 19//19 43//43 44//44
f 47//47 26//26 14//14
f 14//14 31//31 47//47
f 31//31 14//14 66//66
f 30//30 46//46 11//11
f 32//32 46//46 30//30
f 26//26 47//47 33//33
f 46//46 27//27 11//11
f 27//27 18//18 11//11
f 18//18 27//27 34//34
f 48//48 34//34 23//23
f 23//23 22//22 48//48
f 35//35 68//68 49//49
f 37//37 60//60 57//57
f 49//49 50//50 35//35
f 50//50 38//38 35//35
f 24//24 9//9 36//36
f 60//60 40//40 52//52
f 37//37 40//40 60//60
f 51//51 39//39 38//38
f 29//29 53//53 41//41
f 43//43 13//13 80//80
f 45//45 19//19 44//44
f 33//33 47//47 31//31
f 54//54 33//33 31//31
f 22//22 33//33 55//55
f 54//54 55//55 33//33
f 34//34 48//48 70//70
f 18//18 34//34 70//70
f 48//48 22//22 55//55
f 56//56 71//71 54//54
f 35//35 57//57 68//68
f 71//71 48//48 55//55
f 57//57 60//60 85//85
f 71//71 58//58 48//48
f 71//71 59//59 58//58
f 61//61 76//76 59//59
f 51//51 38//38 50//50
f 74//74 62//62 73//73
f 73//73 62//62 61//61
f 60//60 62//62 74//74
f 52//52 62//62 60//60
f 28//28 51//51 63//63
f 28//28 92//92 29//29
f 28//28 63//63 92//92
f 19//19 45//45 65//65
f 64//64 9//9 15//15
f 67//67 54//54 31//31
f 83//83 56//56 54//54
f 68//68 57//57 84//84
f 54//54 71//71 55//55
f 57//57 85//85 84//84
f 68//68 69//69 49//49
f 75//75 56//56 83//83
f 48//48 72//72 70//70
f 56//56 73//73 71//71
f 58//58 72//72 48//48
f 69//69 50//50 49//49
f 73//73 59//59 71//71
f 85//85 60//60 75//75
f 56//56 74//74 73//73
f 56//56 75//75 74//74
f 75//75 60//60 74//74
f 73//73 61//61 59//59
f 50//50 77//77 51//51
f 80//80 78//78 76//76
f 79//79 95//95 62//62
f 52//52 79//79 62//62
f 88//88 9//9 64//64
f 80//80 13//13 91//91
f 43//43 80//80 89//89
f 15//15 19//19 65//65
f 67//67 31//31 66//66
f 54//54 67//67 82//82
f 82//82 98//98 83//83
f 83//83 98//98 84//84
f 83//83 54//54 82//82
f 85//85 83//83 84//84
f 85//85 75//75 83//83
f 70//70 86//86 18//18
f 18//18 86//86 21//21
f 69//69 87//87 50//50
f 101//101 59//59 76//76
f 76//76 78//78 102//102
f 36//36 9//9 88//88
f 61//61 89//89 76//76
f 95//95 89//89 61//61
f 61//61 62//62 95//95
f 77//77 63//63 51//51
f 80//80 76//76 89//89
f 79//79 52//52 90//90
f 90//90 52//52 40//40
f 42//42 90//90 40//40
f 41//41 90//90 42//42
f 41//41 53//53 90//90
f 64//64 63//63 88//88
f 78//78 80//80 91//91
f 29//29 92//92 53//53
f 95//95 43//43 89//89
f 79//79 43//43 95//95
f 44//44 43//43 79//79
f 96//96 44//44 79//79
f 25//25 93//93 66//66
f 67//67 66//66 82//82
f 66//66 93//93 82//82
f 68//68 84//84 94//94
f 101//101 72//72 58//58
f 59//59 101//101 58//58
f 102//102 101//101 76//76
f 78//78 91//91 102//102
f 12//12 21//21 13//13
f 21//21 91//91 13//13
f 79//79 90//90 96//96
f 53//53 92//92 97//97
f 92//92 63//63 64//64
f 44//44 96//96 45//45
f 15//15 65//65 64//64
f 98//98 82//82 93//93
f 84//84 98//98 94//94
f 68//68 94//94 69//69
f 86//86 70//70 72//72
f 87//87 88//88 50//50
f 88//88 77//77 50//50
f 77//77 88//88 63//63
f 97//97 90//90 53//53
f 92//92 99//99 97//97
f 64//64 99//99 92//92
f 90//90 45//45 96//96
f 45//45 97//97 65//65
f 25//25 81//81 100//100
f 93//93 25//25 100//100
f 100//100 94//94 93//93
f 94//94 98//98 93//93
f 36//36 94//94 100//100
f 100//100 24//24 36//36
f 36//36 69//69 94//94
f 36//36 88//88 69//69
f 88//88 87//87 69//69
f 72//72 101//101 86//86
f 101//101 102//102 86//86
f 86//86 91//91 21//21
f 102//102 91//91 86//86
f 90//90 97//97 45//45
f 99//99 65//65 97//97
f 64//64 65//65 99//99
