# Blender 4.1.1
# www.blender.org
mtllib aa0504.mtl
o Liquid_Domain
v -8.134167 -8.755833 6.217273
v -8.478226 -9.100789 5.869162
v 8.134167 -8.755833 6.217273
v 8.480001 -9.101084 5.866843
v 8.479412 -9.100973 -5.868588
v -8.481746 -9.102352 -5.866452
v -8.134167 -8.755833 -6.217273
v 8.134167 -8.755833 -6.217273
v 8.363648 4.909842 -6.140908
v 8.452183 6.981047 5.887596
v -8.133741 3.295588 -6.210829
v -5.600504 4.434530 6.154799
v -8.373479 4.449234 -5.811778
v -8.439369 4.823398 1.686169
v 4.599426 5.245491 -6.206997
v -8.393595 4.700233 6.104484
v -3.312994 3.350399 6.195500
v -7.228724 2.316235 3.952893
v -6.498561 1.974930 3.533618
v -6.552406 2.940157 5.014122
v -6.885073 2.643215 2.736003
v -5.635638 4.245684 5.113886
v -5.885791 3.305840 3.202424
v -5.786283 4.529331 -6.169556
v -7.269200 4.896683 2.965999
v 8.479121 5.154469 -3.189704
v -7.668933 5.057377 5.374288
v -6.613644 4.241958 2.872572
v 5.502589 3.525178 -2.980907
v -1.477132 4.201458 -6.184743
v -4.319607 4.445247 5.759821
v -2.337971 5.018714 5.798329
v 6.351261 4.278594 -2.052095
v 4.214102 4.053999 -4.733687
v 6.100310 4.697063 -4.505364
v -3.405143 5.634435 6.032051
v 2.753702 6.741443 6.204534
v 8.141222 6.678809 6.187585
v 8.434556 6.732052 0.365246
v -5.568624 4.631717 2.508557
v 4.903938 4.169511 1.172213
v 6.962641 4.518709 1.926343
v 7.089267 4.900816 -0.062612
v 4.069691 4.176737 -0.532964
v -8.483475 6.631220 -0.541093
v 1.768618 4.325686 -3.705873
v 5.338799 4.935954 -4.841476
v -3.297263 5.544457 -5.495047
v 3.356375 5.824594 -6.084222
v 6.318706 6.070590 -6.069587
v -1.603876 6.115487 6.164011
v -3.017324 4.788866 3.577248
v -3.423048 4.877254 5.038518
v -4.836551 4.927101 3.555299
v 2.722253 4.512222 -2.213426
v -1.073376 4.659468 -4.275651
v 2.413352 5.409390 -4.439619
v -1.885805 4.672492 -5.646071
v -7.034225 5.482180 -5.678711
v -8.062387 5.479203 5.823997
v -1.010005 4.881513 1.979742
v -6.687176 5.633390 1.788551
v -5.141909 4.980392 1.093775
v 0.255010 5.216443 -3.473822
v -8.387807 6.646595 -3.551892
v 0.581535 5.303252 -4.248151
v -0.248725 5.813601 -5.298501
v 3.801062 5.844973 -5.194846
v -1.091090 6.066591 4.967163
v -2.176452 5.360303 2.709341
v -3.724515 6.277700 2.015383
v -2.221662 5.734529 0.894503
v 1.605812 5.748548 -0.470128
v 2.508728 5.505930 -0.943552
v 0.034426 5.288898 0.552166
v -3.932324 5.259001 -0.170703
v -4.205804 5.500865 -2.981575
v -0.667392 5.554205 -0.978183
v -2.439142 5.449863 -3.529708
v 6.904211 5.643569 -4.635984
v -3.007247 5.795465 -4.654771
v 7.732603 6.339082 -5.799054
v -2.430234 6.392859 5.745059
v 0.834089 5.940012 3.555547
v 6.157735 5.460165 3.150309
v 3.701978 5.563658 2.371491
v 7.260021 6.851886 2.994795
v 7.509469 6.875021 -0.616064
v -8.012127 7.004883 0.157440
v -5.253779 6.991563 -1.449404
v 7.623438 6.294702 -2.477096
v -5.226750 6.728971 -2.654067
v 7.930671 5.923706 -4.260127
v 6.423399 6.635168 -5.783410
v 2.411542 6.952755 4.492517
v -6.615696 6.712203 0.771613
v -0.789685 6.916080 5.837802
v 6.506827 6.880239 3.919684
v 5.077392 7.090757 5.832788
v 8.145564 7.043637 -1.228093
v -7.660330 6.972555 -3.900618
vn -0.2786 -0.2866 0.9166
vn -0.6222 -0.6514 0.4343
vn 0.2821 -0.2865 0.9156
vn 0.6223 -0.6506 0.4353
vn 0.6216 -0.6516 -0.4347
vn -0.6228 -0.6499 -0.4356
vn -0.2818 -0.2863 -0.9158
vn 0.2789 -0.2880 -0.9161
vn 0.5952 0.1744 -0.7844
vn 0.6254 0.6482 0.4343
vn -0.4048 0.0838 -0.9105
vn 0.1235 0.5825 0.8034
vn -0.6623 0.2997 -0.6867
vn -0.8670 0.4288 0.2541
vn -0.0279 0.3253 -0.9452
vn -0.5698 0.2265 0.7900
vn -0.0381 0.0585 0.9976
vn 0.7039 0.6804 -0.2038
vn -0.2668 0.9477 0.1750
vn -0.0662 0.5669 -0.8211
vn 0.1858 0.3754 0.9081
vn -0.2949 0.8736 -0.3872
vn -0.7181 0.4208 0.5542
vn -0.0154 0.2662 -0.9638
vn 0.4031 0.7870 0.4671
vn 0.9792 0.1865 -0.0803
vn 0.6232 0.6814 -0.3839
vn 0.0802 0.1078 0.9909
vn -0.2328 0.9706 0.0615
vn -0.0299 0.2818 -0.9590
vn -0.2274 0.7893 0.5704
vn -0.5874 0.7696 0.2503
vn -0.6483 0.7577 -0.0747
vn 0.0787 0.6829 0.7262
vn -0.5052 0.6081 0.6124
vn -0.1243 0.8352 0.5358
vn -0.0134 0.4023 0.9154
vn 0.2782 0.2805 0.9186
vn 0.9423 0.3336 -0.0263
vn -0.2332 0.7763 0.5857
vn 0.1783 0.9432 -0.2802
vn -0.5691 0.7478 -0.3419
vn -0.7849 0.6183 0.0399
vn 0.3430 0.9215 -0.1822
vn -0.8941 0.4445 0.0556
vn 0.3231 0.9066 0.2716
vn -0.1758 0.4771 0.8611
vn 0.1236 0.8212 -0.5571
vn 0.0675 0.6915 -0.7192
vn -0.1841 0.4514 -0.8731
vn -0.2107 0.2466 0.9459
vn -0.1857 0.9426 0.2774
vn -0.3257 0.9025 -0.2819
vn -0.4317 0.8497 0.3027
vn 0.3836 0.8803 -0.2792
vn -0.0153 0.9991 0.0391
vn 0.1856 0.6271 0.7565
vn 0.1500 0.8930 -0.4244
vn -0.1019 0.6443 -0.7579
vn -0.2533 0.8686 0.4258
vn 0.0418 0.9975 -0.0577
vn 0.1097 0.7902 0.6029
vn 0.0201 0.9705 0.2402
vn 0.0422 0.9887 -0.1439
vn -0.8072 0.5554 -0.1999
vn -0.0186 0.8844 0.4664
vn -0.3117 0.9401 -0.1380
vn 0.1525 0.8521 0.5007
vn -0.4319 0.7669 -0.4747
vn 0.0575 0.9906 0.1242
vn -0.1269 0.9790 0.1595
vn 0.1590 0.9868 -0.0313
vn 0.0244 0.9973 -0.0689
vn 0.4272 0.8548 -0.2948
vn -0.0296 0.9819 0.1870
vn 0.1483 0.9873 0.0565
vn 0.3065 0.9436 -0.1252
vn -0.0317 0.9985 -0.0449
vn 0.2409 0.9706 -0.0009
vn -0.4990 0.7109 0.4956
vn 0.1019 0.9846 -0.1424
vn 0.4736 0.7165 -0.5123
vn -0.8556 0.5175 0.0164
vn -0.1270 0.9123 -0.3894
vn -0.2396 0.6511 -0.7202
vn 0.2257 0.9420 -0.2483
vn -0.4933 0.8321 -0.2534
vn -0.6908 0.7220 -0.0390
vn -0.4152 0.8301 0.3722
vn 0.4515 0.8878 0.0893
vn -0.6751 0.7202 -0.1598
vn 0.4849 0.7809 -0.3938
vn 0.3827 0.9231 0.0386
vn -0.3542 0.8881 -0.2930
vn -0.0652 0.8912 -0.4489
vn 0.3042 0.7475 0.5905
vn -0.2295 0.9204 0.3166
vn -0.4708 0.6252 -0.6225
vn 0.0058 0.9304 0.3665
vn 0.3357 0.9048 -0.2620
vn -0.1105 0.8763 -0.4690
s 1
usemtl Liquid_Domain_Material
f 1//1 2//2 3//3
f 2//2 4//4 3//3
f 4//4 2//2 6//6
f 5//5 4//4 6//6
f 5//5 6//6 7//7
f 8//8 5//5 7//7
f 9//9 5//5 8//8
f 2//2 1//1 16//16
f 10//10 3//3 4//4
f 7//7 6//6 11//11
f 10//10 4//4 26//26
f 2//2 14//14 6//6
f 8//8 7//7 15//15
f 8//8 15//15 9//9
f 1//1 3//3 12//12
f 45//45 13//13 6//6
f 6//6 13//13 11//11
f 4//4 5//5 26//26
f 7//7 11//11 30//30
f 2//2 16//16 14//14
f 1//1 12//12 16//16
f 3//3 17//17 12//12
f 38//38 3//3 10//10
f 21//21 18//18 19//19
f 15//15 7//7 30//30
f 19//19 18//18 20//20
f 19//19 23//23 21//21
f 20//20 22//22 19//19
f 22//22 23//23 19//19
f 30//30 11//11 24//24
f 20//20 18//18 27//27
f 18//18 21//21 25//25
f 21//21 28//28 25//25
f 28//28 21//21 23//23
f 26//26 5//5 9//9
f 17//17 31//31 12//12
f 22//22 54//54 23//23
f 33//33 29//29 44//44
f 29//29 34//34 44//44
f 35//35 29//29 33//33
f 35//35 34//34 29//29
f 32//32 36//36 17//17
f 3//3 37//37 17//17
f 17//17 37//37 51//51
f 10//10 26//26 39//39
f 27//27 18//18 25//25
f 54//54 40//40 23//23
f 23//23 40//40 28//28
f 42//42 43//43 41//41
f 14//14 45//45 6//6
f 41//41 33//33 44//44
f 43//43 33//33 41//41
f 34//34 55//55 44//44
f 34//34 46//46 55//55
f 35//35 47//47 34//34
f 30//30 24//24 48//48
f 30//30 48//48 58//58
f 15//15 30//30 49//49
f 15//15 50//50 9//9
f 17//17 36//36 31//31
f 17//17 51//51 32//32
f 12//12 31//31 22//22
f 20//20 27//27 22//22
f 53//53 52//52 31//31
f 31//31 54//54 22//22
f 52//52 54//54 31//31
f 40//40 25//25 28//28
f 41//41 85//85 42//42
f 44//44 86//86 41//41
f 55//55 74//74 44//44
f 55//55 46//46 64//64
f 34//34 57//57 46//46
f 34//34 47//47 68//68
f 11//11 13//13 59//59
f 11//11 59//59 24//24
f 24//24 59//59 48//48
f 12//12 60//60 16//16
f 27//27 60//60 22//22
f 12//12 22//22 60//60
f 32//32 52//52 53//53
f 60//60 14//14 16//16
f 52//52 70//70 54//54
f 25//25 40//40 62//62
f 86//86 85//85 41//41
f 40//40 63//63 62//62
f 86//86 44//44 74//74
f 55//55 64//64 74//74
f 79//79 78//78 56//56
f 64//64 56//56 78//78
f 45//45 65//65 13//13
f 64//64 66//66 56//56
f 64//64 46//46 66//66
f 81//81 79//79 56//56
f 46//46 57//57 66//66
f 67//67 56//56 66//66
f 48//48 81//81 58//58
f 56//56 58//58 81//81
f 58//58 56//56 67//67
f 34//34 68//68 57//57
f 80//80 47//47 35//35
f 58//58 67//67 30//30
f 38//38 37//37 3//3
f 36//36 53//53 31//31
f 32//32 53//53 36//36
f 32//32 70//70 52//52
f 70//70 32//32 69//69
f 27//27 25//25 60//60
f 60//60 25//25 14//14
f 54//54 70//70 71//71
f 70//70 84//84 61//61
f 40//40 54//54 71//71
f 25//25 62//62 14//14
f 70//70 61//61 72//72
f 84//84 73//73 61//61
f 71//71 63//63 40//40
f 73//73 75//75 61//61
f 61//61 75//75 72//72
f 72//72 75//75 78//78
f 73//73 78//78 75//75
f 78//78 76//76 72//72
f 78//78 79//79 76//76
f 43//43 88//88 33//33
f 73//73 64//64 78//78
f 76//76 79//79 77//77
f 73//73 74//74 64//64
f 81//81 77//77 79//79
f 93//93 26//26 82//82
f 77//77 48//48 59//59
f 81//81 48//48 77//77
f 26//26 9//9 82//82
f 50//50 68//68 47//47
f 49//49 30//30 67//67
f 83//83 32//32 51//51
f 83//83 69//69 32//32
f 85//85 86//86 84//84
f 86//86 73//73 84//84
f 42//42 85//85 87//87
f 70//70 72//72 71//71
f 87//87 88//88 42//42
f 62//62 89//89 14//14
f 63//63 71//71 76//76
f 86//86 74//74 73//73
f 90//90 62//62 63//63
f 72//72 76//76 71//71
f 90//90 63//63 76//76
f 42//42 88//88 43//43
f 90//90 76//76 77//77
f 88//88 91//91 33//33
f 33//33 91//91 35//35
f 80//80 35//35 91//91
f 57//57 67//67 66//66
f 57//57 68//68 67//67
f 15//15 68//68 50//50
f 50//50 47//47 94//94
f 80//80 94//94 47//47
f 15//15 49//49 68//68
f 9//9 50//50 82//82
f 84//84 70//70 69//69
f 84//84 95//95 85//85
f 87//87 85//85 98//98
f 96//96 89//89 62//62
f 96//96 62//62 90//90
f 14//14 89//89 45//45
f 90//90 77//77 92//92
f 39//39 26//26 100//100
f 100//100 93//93 91//91
f 93//93 100//100 26//26
f 80//80 91//91 93//93
f 65//65 101//101 13//13
f 13//13 101//101 59//59
f 77//77 59//59 101//101
f 80//80 93//93 94//94
f 82//82 94//94 93//93
f 68//68 49//49 67//67
f 83//83 51//51 97//97
f 51//51 37//37 97//97
f 69//69 83//83 97//97
f 69//69 97//97 84//84
f 97//97 95//95 84//84
f 95//95 98//98 85//85
f 100//100 91//91 88//88
f 92//92 77//77 101//101
f 82//82 50//50 94//94
f 97//97 37//37 99//99
f 37//37 38//38 99//99
f 99//99 38//38 10//10
f 99//99 95//95 97//97
f 99//99 98//98 95//95
f 99//99 87//87 98//98
f 10//10 87//87 99//99
f 10//10 100//100 87//87
f 10//10 39//39 100//100
f 100//100 88//88 87//87
f 96//96 90//90 89//89
f 89//89 101//101 65//65
f 45//45 89//89 65//65
f 90//90 101//101 89//89
f 90//90 92//92 101//101
