# Blender 4.1.1
# www.blender.org
mtllib aa0686.mtl
o Liquid_Domain
v -8.134167 -8.755833 6.217273
v -8.487272 -8.755834 5.864167
v -8.134167 -9.108939 5.864167
v 8.134167 -8.755833 6.217273
v 8.472168 -9.103972 5.872589
v 8.134167 -9.108939 -5.864167
v 8.487272 -8.755833 -5.864167
v -8.487272 -8.755834 -5.864167
v -8.134167 -9.108939 -5.864167
v -8.134167 -8.755833 -6.217273
v 8.134167 -8.755833 -6.217273
v -8.485826 4.501478 -5.858590
v -8.131333 6.764904 6.219444
v -8.473059 7.114397 5.871263
v 8.470290 6.682132 5.850915
v -0.641269 4.556578 6.209320
v 8.474601 6.662487 -5.854914
v -6.502484 3.862745 -6.205200
v 2.547163 2.681142 -6.215939
v 8.127902 6.495480 -6.210336
v 5.312997 4.372666 6.200667
v 0.959431 5.364221 6.181632
v 3.723516 5.629666 6.149372
v -7.976290 5.071717 -6.162141
v 4.256085 4.558387 -6.150299
v 0.165737 4.420195 -6.156725
v -3.943695 5.360750 -6.165209
v -8.450487 6.693794 -0.313701
v -8.340292 6.906443 -5.083813
v 1.977994 4.682272 -5.822506
v 6.287131 6.052216 -6.120616
v 5.187352 5.367308 5.863596
v -0.841641 5.396807 -5.889279
v -2.880064 6.594627 6.133632
v -6.574502 5.002326 -5.664108
v 4.846825 5.345990 -5.855881
v -0.653777 5.706154 5.687952
v 2.614989 5.726695 5.759658
v 4.632892 5.905360 5.209508
v 5.516051 6.134283 4.994889
v 6.348370 5.777422 -0.783152
v 0.458598 5.585177 -4.579508
v 4.957352 5.663655 -4.946105
v 8.125417 7.031852 6.191824
v 0.824668 6.252295 5.733320
v 2.041961 6.287338 3.725115
v 4.604176 5.687007 3.813682
v 5.921673 5.802415 3.832872
v 5.164898 5.744453 2.349648
v 5.183502 5.776910 0.901109
v -1.578407 5.427795 -2.019308
v 1.350889 5.928340 -0.740654
v 4.339021 5.569576 -1.770233
v 2.453128 6.236282 -1.997504
v 5.416264 6.591673 -2.886339
v -6.228077 5.791262 -1.974848
v 3.089942 5.970708 -3.102900
v -1.290532 6.116085 -3.213191
v 2.353721 5.696910 -3.942879
v 4.626003 6.179089 -3.595104
v -7.022353 6.053911 -3.683805
v -5.220791 6.031440 -3.939199
v -4.381475 5.936524 -5.913109
v 6.071542 6.814185 5.787278
v 3.798106 6.899998 5.354384
v 3.236010 6.677949 4.542401
v 3.618722 6.127337 2.743485
v 2.562528 6.103490 2.322496
v 6.806616 6.960493 2.366883
v 0.090487 5.765822 -1.520523
v 3.439682 6.559668 -1.602877
v 7.156995 7.018907 -1.377259
v -6.992609 5.945724 -1.947746
v 7.353871 7.047239 4.261535
v 1.128672 6.997164 3.372417
v 0.532461 7.026572 0.666820
v -2.842535 6.469960 1.641309
v -1.159799 6.342625 0.743111
v 2.125374 6.446117 0.754026
v 3.848554 6.862130 0.966269
v 2.988908 6.809728 -0.556933
v -7.472229 6.820864 -1.645956
v -4.978283 6.767935 -1.609147
v -7.618824 6.862170 -4.761738
v -3.509939 6.819358 -4.240162
v -1.219515 6.182613 -4.711864
v 6.266001 7.055507 -3.925224
v -3.135303 7.031801 5.784800
v -8.089372 7.059097 -0.371618
v -1.524357 7.074404 4.137714
v -3.495114 7.028908 2.491528
v -2.182140 6.747665 2.844073
v -3.509926 7.005795 0.303898
v 8.123908 7.019717 -5.865857
v -4.839546 7.078685 -0.766121
v -6.908920 6.938436 -0.706425
v -2.829212 6.548670 -1.065850
v -2.691812 6.895911 -3.088919
vn -0.3100 -0.3158 0.8967
vn -0.8646 -0.3427 0.3676
vn -0.3350 -0.8684 0.3657
vn 0.2841 -0.2820 0.9164
vn 0.6206 -0.6504 0.4380
vn 0.3320 -0.8676 -0.3702
vn 0.8638 -0.3394 -0.3723
vn -0.8644 -0.3429 -0.3678
vn -0.3350 -0.8684 -0.3657
vn -0.3101 -0.3154 -0.8969
vn 0.3104 -0.3158 -0.8966
vn -0.8396 0.0674 -0.5390
vn -0.2727 0.2973 0.9150
vn -0.6126 0.6580 0.4380
vn 0.9003 0.3019 0.3135
vn 0.0236 0.1246 0.9919
vn 0.8469 0.3508 -0.3995
vn 0.0017 0.1300 -0.9915
vn -0.0025 0.0157 -0.9999
vn 0.2575 0.2660 -0.9290
vn -0.0103 0.0839 0.9964
vn -0.0351 0.2711 0.9619
vn 0.0792 0.3966 0.9146
vn -0.1444 0.3690 -0.9181
vn -0.0912 0.2429 -0.9658
vn 0.0513 0.2136 -0.9756
vn -0.0244 0.2395 -0.9706
vn -0.9259 0.3776 -0.0114
vn -0.4190 0.7112 -0.5644
vn -0.0013 0.8356 -0.5493
vn -0.2828 0.5099 -0.8124
vn -0.1384 0.5206 0.8425
vn 0.1583 0.6288 -0.7613
vn 0.1680 0.4168 0.8934
vn -0.0087 0.7089 -0.7052
vn -0.3536 0.7489 -0.5605
vn 0.0508 0.5642 0.8240
vn -0.1236 0.8349 0.5364
vn 0.3048 0.9119 0.2748
vn -0.5036 0.8549 -0.1244
vn -0.5192 0.8469 0.1150
vn 0.1963 0.9447 -0.2628
vn -0.3566 0.8613 -0.3620
vn 0.2926 0.5776 0.7621
vn 0.0334 0.7412 0.6705
vn 0.1514 0.9807 0.1238
vn 0.2198 0.9725 -0.0766
vn -0.4464 0.8944 -0.0269
vn -0.0885 0.9894 0.1153
vn 0.3035 0.9507 -0.0634
vn 0.2967 0.9263 0.2323
vn -0.0678 0.9637 -0.2581
vn 0.1634 0.9840 0.0714
vn -0.2481 0.9323 -0.2632
vn -0.4600 0.8636 0.2065
vn -0.1533 0.9235 -0.3516
vn -0.0734 0.9894 -0.1254
vn 0.3707 0.9177 0.1431
vn -0.0898 0.9544 -0.2848
vn -0.3371 0.9338 -0.1199
vn 0.5138 0.8407 -0.1709
vn -0.3049 0.9250 -0.2267
vn -0.1753 0.6647 -0.7262
vn -0.4663 0.7148 0.5212
vn 0.1863 0.9374 0.2943
vn -0.0395 0.9988 -0.0273
vn 0.1575 0.9822 0.1022
vn 0.1758 0.9762 0.1267
vn -0.4223 0.9064 -0.0104
vn -0.0953 0.9824 -0.1606
vn 0.3604 0.9107 -0.2018
vn -0.3459 0.9288 0.1328
vn 0.5201 0.8105 -0.2694
vn -0.2508 0.9673 -0.0376
vn 0.2966 0.8974 0.3267
vn 0.0187 0.9494 -0.3134
vn 0.3110 0.9482 -0.0656
vn -0.0897 0.9628 -0.2548
vn 0.0227 0.9985 -0.0500
vn 0.2304 0.9720 0.0463
vn -0.0141 0.9873 -0.1584
vn 0.5510 0.8169 -0.1707
vn -0.2894 0.8868 -0.3603
vn 0.5949 0.7081 -0.3804
vn -0.0949 0.9523 -0.2900
vn 0.2734 0.9152 -0.2959
vn -0.2893 0.9478 -0.1344
vn 0.1532 0.8690 0.4705
vn -0.3507 0.9348 -0.0551
vn 0.0913 0.9816 0.1678
vn 0.1608 0.9801 -0.1166
vn 0.0490 0.9570 -0.2860
vn 0.2112 0.9766 -0.0401
vn 0.2045 0.8410 -0.5009
vn 0.0270 0.9899 -0.1395
vn 0.0071 0.8696 -0.4937
vn 0.3993 0.9154 -0.0511
vn 0.2390 0.9709 0.0167
s 1
usemtl Liquid_Domain_Material
f 3//3 1//1 2//2
f 1//1 3//3 4//4
f 3//3 5//5 4//4
f 9//9 3//3 2//2
f 5//5 3//3 6//6
f 7//7 5//5 6//6
f 8//8 9//9 2//2
f 6//6 3//3 9//9
f 9//9 8//8 10//10
f 6//6 9//9 10//10
f 11//11 6//6 10//10
f 7//7 6//6 11//11
f 44//44 4//4 5//5
f 2//2 12//12 8//8
f 17//17 7//7 11//11
f 20//20 17//17 11//11
f 1//1 13//13 2//2
f 8//8 12//12 10//10
f 2//2 13//13 14//14
f 4//4 21//21 1//1
f 5//5 7//7 15//15
f 15//15 7//7 17//17
f 11//11 10//10 19//19
f 10//10 24//24 18//18
f 11//11 19//19 20//20
f 15//15 44//44 5//5
f 1//1 22//22 16//16
f 21//21 22//22 1//1
f 21//21 23//23 22//22
f 10//10 12//12 24//24
f 10//10 18//18 27//27
f 10//10 27//27 19//19
f 19//19 26//26 25//25
f 19//19 27//27 26//26
f 19//19 25//25 20//20
f 4//4 44//44 21//21
f 2//2 28//28 12//12
f 18//18 24//24 35//35
f 25//25 26//26 30//30
f 20//20 25//25 31//31
f 21//21 32//32 23//23
f 2//2 14//14 28//28
f 33//33 30//30 26//26
f 25//25 30//30 36//36
f 16//16 13//13 1//1
f 16//16 34//34 13//13
f 42//42 30//30 33//33
f 29//29 24//24 12//12
f 18//18 35//35 27//27
f 26//26 27//27 33//33
f 16//16 37//37 34//34
f 23//23 38//38 22//22
f 32//32 39//39 23//23
f 40//40 39//39 32//32
f 28//28 29//29 12//12
f 59//59 30//30 42//42
f 43//43 30//30 59//59
f 24//24 61//61 35//35
f 36//36 30//30 43//43
f 35//35 63//63 27//27
f 27//27 63//63 33//33
f 25//25 36//36 31//31
f 37//37 88//88 34//34
f 16//16 45//45 37//37
f 45//45 16//16 22//22
f 38//38 45//45 22//22
f 40//40 48//48 39//39
f 48//48 47//47 39//39
f 48//48 49//49 47//47
f 47//47 49//49 67//67
f 80//80 49//49 50//50
f 41//41 50//50 49//49
f 41//41 53//53 50//50
f 53//53 81//81 50//50
f 70//70 51//51 78//78
f 54//54 70//70 52//52
f 54//54 57//57 70//70
f 55//55 53//53 41//41
f 73//73 56//56 61//61
f 70//70 58//58 51//51
f 57//57 59//59 70//70
f 53//53 60//60 57//57
f 55//55 60//60 53//53
f 70//70 42//42 58//58
f 59//59 42//42 70//70
f 60//60 59//59 57//57
f 62//62 35//35 61//61
f 58//58 42//42 86//86
f 59//59 60//60 43//43
f 62//62 63//63 35//35
f 42//42 33//33 86//86
f 36//36 43//43 31//31
f 64//64 32//32 21//21
f 21//21 44//44 64//64
f 23//23 65//65 38//38
f 39//39 65//65 23//23
f 64//64 40//40 32//32
f 38//38 46//46 45//45
f 66//66 38//38 65//65
f 39//39 47//47 66//66
f 74//74 48//48 40//40
f 38//38 66//66 46//46
f 47//47 67//67 66//66
f 74//74 49//49 48//48
f 67//67 68//68 46//46
f 67//67 49//49 80//80
f 69//69 41//41 49//49
f 52//52 76//76 79//79
f 81//81 80//80 50//50
f 78//78 51//51 97//97
f 52//52 70//70 76//76
f 81//81 53//53 71//71
f 79//79 54//54 52//52
f 96//96 56//56 73//73
f 97//97 51//51 58//58
f 71//71 53//53 57//57
f 71//71 57//57 54//54
f 61//61 82//82 73//73
f 62//62 61//61 56//56
f 83//83 62//62 56//56
f 24//24 29//29 84//84
f 84//84 61//61 24//24
f 85//85 63//63 62//62
f 33//33 63//63 85//85
f 86//86 33//33 85//85
f 87//87 31//31 43//43
f 37//37 90//90 88//88
f 37//37 45//45 90//90
f 39//39 66//66 65//65
f 74//74 40//40 64//64
f 45//45 46//46 90//90
f 46//46 75//75 90//90
f 67//67 46//46 66//66
f 49//49 74//74 69//69
f 46//46 68//68 75//75
f 92//92 77//77 91//91
f 78//78 77//77 92//92
f 76//76 78//78 92//92
f 68//68 79//79 75//75
f 68//68 67//67 80//80
f 80//80 79//79 68//68
f 78//78 93//93 77//77
f 70//70 78//78 76//76
f 81//81 79//79 80//80
f 78//78 97//97 93//93
f 69//69 72//72 41//41
f 81//81 54//54 79//79
f 82//82 96//96 73//73
f 96//96 83//83 56//56
f 71//71 54//54 81//81
f 97//97 58//58 98//98
f 41//41 72//72 55//55
f 85//85 62//62 83//83
f 58//58 86//86 98//98
f 60//60 55//55 87//87
f 61//61 84//84 82//82
f 98//98 86//86 85//85
f 60//60 87//87 43//43
f 87//87 94//94 31//31
f 31//31 94//94 20//20
f 13//13 34//34 14//14
f 14//14 34//34 88//88
f 44//44 74//74 64//64
f 90//90 91//91 88//88
f 14//14 89//89 28//28
f 88//88 91//91 14//14
f 90//90 92//92 91//91
f 91//91 89//89 14//14
f 75//75 76//76 90//90
f 90//90 76//76 92//92
f 75//75 79//79 76//76
f 91//91 77//77 93//93
f 44//44 94//94 74//74
f 44//44 15//15 94//94
f 91//91 95//95 89//89
f 93//93 95//95 91//91
f 74//74 72//72 69//69
f 94//94 72//72 74//74
f 15//15 17//17 94//94
f 95//95 96//96 89//89
f 97//97 95//95 93//93
f 96//96 82//82 89//89
f 83//83 96//96 95//95
f 97//97 98//98 95//95
f 98//98 83//83 95//95
f 55//55 72//72 87//87
f 28//28 89//89 29//29
f 98//98 85//85 83//83
f 82//82 84//84 89//89
f 84//84 29//29 89//89
f 94//94 87//87 72//72
f 17//17 20//20 94//94
