# Blender 4.1.1
# www.blender.org
mtllib aa0655.mtl
o Liquid_Domain
v -8.134167 -8.755833 6.217273
v -8.487272 -8.755834 5.864167
v -8.134167 -9.108939 5.864167
v 8.487272 -8.755833 5.864167
v 8.134167 -9.108939 5.864167
v 8.487272 -8.755833 -5.864167
v 8.134167 -9.108939 -5.864167
v -8.483145 -9.104824 -5.865632
v -8.134167 -8.755833 -6.217273
v 8.134167 -8.755833 -6.217273
v 8.134167 -8.755833 6.217273
v 8.457705 6.621116 5.862767
v 1.920676 3.652290 6.210792
v -8.480887 6.634937 -5.823231
v -3.236146 4.568958 -6.211180
v 6.282209 4.783629 6.199872
v -8.476730 7.045733 5.876029
v -8.100573 6.097529 -6.203764
v -1.066591 5.254866 6.122630
v 0.766838 4.680775 6.154542
v -3.855590 5.764951 6.202414
v 4.672415 6.915448 6.145832
v -8.448629 6.630883 1.270899
v 8.452549 6.704966 -0.611975
v -7.085478 5.831035 -6.123378
v -0.682874 6.697319 -6.154741
v 4.054075 6.617999 -6.197342
v 2.298098 4.994157 5.874333
v 8.072447 6.917958 6.200990
v 8.459637 7.108858 -5.855037
v 0.938305 5.957357 5.609378
v 5.886447 5.709300 5.971968
v 1.947130 5.009732 -0.801936
v -0.176295 5.085844 -2.380469
v -8.076530 6.828525 6.215353
v -2.635772 5.988273 5.806500
v 2.679750 5.903463 5.219298
v 4.483081 5.897626 0.542965
v 1.264843 5.196269 -1.963735
v 5.350163 5.557366 -1.095241
v 3.647211 5.691283 -2.379907
v -2.171036 5.666655 -3.113519
v -1.520687 5.649579 -3.045500
v 1.193373 5.700178 -2.995942
v -3.086833 5.636792 -5.832940
v -5.848591 5.783925 -5.980444
v 6.158179 6.218814 5.342071
v -0.332603 5.995503 4.896154
v 4.902479 5.947295 4.277623
v 0.724622 5.926723 3.040415
v 2.897150 6.092123 3.736351
v 4.478572 5.789221 3.167073
v 3.026293 5.503327 1.384307
v 1.182324 5.801667 0.794062
v -1.916633 5.557709 -1.040555
v 0.648316 5.838457 -1.081451
v -3.291680 5.464966 -3.719294
v -5.667490 5.563902 -3.892503
v -0.299011 5.843524 -2.890346
v 2.723696 5.835161 -3.710042
v -5.040951 6.198070 -5.236291
v -3.700499 6.296588 -4.870899
v -2.863524 6.210129 -5.226785
v 3.675927 6.781644 5.796556
v 5.412100 6.479296 5.395558
v -3.326647 5.939448 4.334130
v -0.805800 6.462529 2.013152
v -6.317778 6.250732 2.037604
v 6.485335 6.981058 0.922563
v -5.947122 6.205962 0.714683
v -5.466302 6.189566 -1.512094
v 6.120687 7.007063 -2.489727
v -6.573299 6.104187 -4.215835
v 5.250473 6.983868 -3.808222
v -1.595062 6.819695 -3.634588
v 2.635850 6.791330 -4.776673
v -4.482624 6.880357 5.818398
v 7.998220 7.070828 5.725092
v -5.002189 7.059317 4.459278
v 6.308937 6.933535 4.392368
v 4.187932 6.869497 4.713487
v -2.768757 6.408282 2.171034
v -4.731256 6.642657 1.902349
v -8.104340 6.957780 1.459059
v -7.211936 7.062399 0.435541
v 6.767250 6.974043 -1.216635
v -0.689036 6.954858 -3.099550
v 1.137948 6.988168 -4.564609
v -6.907330 6.480284 -5.248424
v -8.011621 7.038787 -5.876352
v 8.132763 6.766216 -6.217879
v -8.094497 7.082613 2.539189
v -6.349140 6.954892 3.227046
v -4.048559 6.968765 2.933956
v 8.090992 7.068574 -0.675056
v -6.493571 7.032600 -1.580182
v -7.146432 6.996316 -3.468460
v 4.005153 7.067438 -5.719945
v -0.909697 7.007710 -5.861214
vn -0.3101 -0.3159 0.8967
vn -0.8638 -0.3395 0.3724
vn -0.3319 -0.8676 0.3704
vn 0.8647 -0.3416 0.3683
vn 0.3350 -0.8684 0.3657
vn 0.8647 -0.3426 -0.3674
vn 0.3350 -0.8684 -0.3657
vn -0.6218 -0.6499 -0.4371
vn -0.2823 -0.2853 -0.9159
vn 0.3101 -0.3159 -0.8967
vn 0.3108 -0.3151 0.8968
vn 0.8794 0.3159 0.3562
vn -0.0020 0.0677 0.9977
vn -0.8005 0.3812 -0.4626
vn -0.0176 0.1221 -0.9924
vn -0.0031 0.1083 0.9941
vn -0.6329 0.6457 0.4271
vn -0.2638 0.1584 -0.9515
vn 0.0828 0.4474 0.8905
vn 0.0608 0.2104 0.9757
vn 0.0822 0.2188 0.9723
vn 0.1252 0.6688 0.7329
vn -0.9179 0.3965 -0.0126
vn 0.9237 0.3829 0.0158
vn 0.2687 0.7131 -0.6476
vn -0.0921 0.3765 -0.9218
vn -0.0065 0.3597 -0.9331
vn -0.1474 0.3949 0.9068
vn 0.1798 0.5414 0.8213
vn 0.6168 0.6671 -0.4178
vn 0.0394 0.7847 0.6187
vn 0.5682 0.4875 0.6629
vn 0.1396 0.9872 -0.0770
vn 0.0464 0.9460 0.3208
vn -0.2327 0.3801 0.8952
vn 0.2085 0.8477 0.4877
vn -0.3387 0.8855 0.3182
vn -0.3321 0.9302 -0.1561
vn -0.0155 0.9949 0.0993
vn -0.4354 0.8951 0.0965
vn -0.2450 0.9048 0.3484
vn -0.2644 0.8896 0.3725
vn -0.0826 0.7107 0.6986
vn 0.0905 0.8050 0.5863
vn -0.1362 0.5274 -0.8386
vn 0.1052 0.6204 -0.7772
vn -0.2047 0.8199 0.5347
vn 0.0075 0.9789 0.2043
vn 0.2845 0.9062 -0.3129
vn 0.1397 0.9901 -0.0155
vn -0.0883 0.9742 -0.2078
vn -0.1917 0.9668 -0.1689
vn -0.0495 0.9930 -0.1072
vn 0.2864 0.9499 -0.1249
vn 0.0322 0.9799 -0.1968
vn 0.2126 0.9082 -0.3605
vn -0.0723 0.9696 0.2339
vn 0.2644 0.9588 0.1043
vn -0.0281 0.3597 0.9326
vn -0.0795 0.8664 0.4929
vn 0.0249 0.9924 -0.1208
vn 0.0618 0.9677 0.2443
vn -0.2530 0.9461 -0.2024
vn -0.4640 0.7574 0.4594
vn 0.4809 0.8743 -0.0664
vn 0.2961 0.9512 0.0864
vn 0.1060 0.9943 -0.0124
vn 0.1019 0.9482 -0.3009
vn -0.3022 0.9514 -0.0586
vn 0.2382 0.9712 -0.0043
vn 0.4786 0.8773 -0.0351
vn -0.2740 0.9384 0.2106
vn 0.5802 0.8113 0.0720
vn -0.1894 0.9625 0.1943
vn -0.4719 0.7820 0.4073
vn 0.0428 0.8508 0.5237
vn 0.2559 0.7988 0.5445
vn 0.2029 0.9605 0.1905
vn 0.2381 0.9710 0.0208
vn -0.4145 0.8865 0.2054
vn 0.0323 0.9430 -0.3312
vn 0.1173 0.9914 -0.0577
vn -0.0304 0.9576 -0.2864
vn -0.2255 0.9737 -0.0317
vn 0.1765 0.9729 0.1496
vn -0.3751 0.9226 0.0899
vn -0.0783 0.6647 0.7430
vn 0.1333 0.9388 0.3176
vn 0.4232 0.8632 -0.2754
vn -0.0573 0.7910 -0.6092
vn 0.2878 0.3042 -0.9081
vn -0.3050 0.9483 -0.0879
vn 0.1283 0.9498 -0.2854
vn 0.2118 0.9770 -0.0230
vn 0.3440 0.9387 0.0213
vn 0.3547 0.9337 -0.0479
vn 0.3893 0.9146 -0.1094
vn -0.0230 0.9449 -0.3267
vn -0.2186 0.8544 -0.4713
s 1
usemtl Liquid_Domain_Material
f 3//3 1//1 2//2
f 1//1 3//3 11//11
f 3//3 5//5 11//11
f 11//11 5//5 4//4
f 6//6 4//4 5//5
f 7//7 3//3 8//8
f 5//5 3//3 7//7
f 7//7 6//6 5//5
f 8//8 3//3 2//2
f 10//10 8//8 9//9
f 7//7 8//8 10//10
f 6//6 7//7 10//10
f 2//2 1//1 17//17
f 10//10 9//9 15//15
f 29//29 11//11 4//4
f 12//12 29//29 4//4
f 91//91 6//6 10//10
f 12//12 4//4 6//6
f 1//1 11//11 13//13
f 8//8 2//2 14//14
f 1//1 13//13 21//21
f 8//8 14//14 9//9
f 11//11 16//16 13//13
f 23//23 14//14 2//2
f 10//10 15//15 27//27
f 15//15 9//9 18//18
f 21//21 13//13 19//19
f 11//11 29//29 16//16
f 13//13 20//20 19//19
f 15//15 18//18 25//25
f 21//21 35//35 1//1
f 16//16 22//22 13//13
f 17//17 23//23 2//2
f 9//9 14//14 18//18
f 15//15 26//26 27//27
f 13//13 28//28 20//20
f 12//12 6//6 24//24
f 24//24 6//6 30//30
f 20//20 31//31 19//19
f 20//20 28//28 31//31
f 16//16 32//32 22//22
f 40//40 39//39 33//33
f 15//15 25//25 46//46
f 1//1 35//35 17//17
f 19//19 36//36 21//21
f 13//13 22//22 28//28
f 31//31 48//48 19//19
f 37//37 31//31 28//28
f 53//53 33//33 54//54
f 54//54 33//33 39//39
f 38//38 33//33 53//53
f 40//40 33//33 38//38
f 55//55 56//56 39//39
f 39//39 34//34 55//55
f 39//39 40//40 41//41
f 43//43 42//42 55//55
f 34//34 43//43 55//55
f 34//34 39//39 44//44
f 41//41 44//44 39//39
f 43//43 34//34 59//59
f 59//59 34//34 44//44
f 45//45 15//15 46//46
f 10//10 27//27 91//91
f 32//32 16//16 47//47
f 47//47 16//16 29//29
f 48//48 36//36 19//19
f 50//50 48//48 31//31
f 52//52 53//53 51//51
f 51//51 53//53 50//50
f 53//53 54//54 50//50
f 52//52 38//38 53//53
f 54//54 39//39 56//56
f 71//71 70//70 57//57
f 55//55 57//57 70//70
f 57//57 58//58 71//71
f 42//42 57//57 55//55
f 41//41 60//60 44//44
f 58//58 61//61 73//73
f 58//58 57//57 62//62
f 62//62 57//57 63//63
f 63//63 57//57 42//42
f 61//61 58//58 62//62
f 45//45 46//46 63//63
f 63//63 46//46 61//61
f 36//36 77//77 21//21
f 28//28 22//22 64//64
f 28//28 64//64 37//37
f 36//36 66//66 77//77
f 32//32 47//47 65//65
f 31//31 37//37 51//51
f 49//49 81//81 65//65
f 65//65 47//47 49//49
f 51//51 50//50 31//31
f 49//49 47//47 52//52
f 48//48 66//66 36//36
f 52//52 51//51 81//81
f 49//49 52//52 81//81
f 48//48 67//67 66//66
f 67//67 82//82 66//66
f 50//50 67//67 48//48
f 50//50 54//54 67//67
f 69//69 38//38 52//52
f 83//83 70//70 68//68
f 56//56 82//82 67//67
f 54//54 56//56 67//67
f 82//82 55//55 83//83
f 55//55 70//70 83//83
f 56//56 55//55 82//82
f 69//69 40//40 38//38
f 41//41 40//40 72//72
f 73//73 71//71 58//58
f 74//74 41//41 72//72
f 44//44 87//87 59//59
f 60//60 41//41 74//74
f 75//75 42//42 43//43
f 44//44 60//60 88//88
f 63//63 42//42 75//75
f 61//61 89//89 73//73
f 62//62 63//63 61//61
f 89//89 46//46 25//25
f 61//61 46//46 89//89
f 45//45 26//26 15//15
f 21//21 77//77 35//35
f 78//78 29//29 12//12
f 32//32 65//65 22//22
f 29//29 80//80 47//47
f 66//66 79//79 77//77
f 64//64 81//81 37//37
f 37//37 81//81 51//51
f 47//47 80//80 52//52
f 66//66 94//94 79//79
f 82//82 94//94 66//66
f 84//84 93//93 68//68
f 68//68 93//93 83//83
f 82//82 83//83 94//94
f 80//80 69//69 52//52
f 70//70 84//84 68//68
f 84//84 70//70 85//85
f 85//85 70//70 96//96
f 70//70 71//71 96//96
f 69//69 86//86 40//40
f 72//72 40//40 86//86
f 71//71 73//73 96//96
f 73//73 97//97 96//96
f 87//87 43//43 59//59
f 43//43 87//87 75//75
f 88//88 87//87 44//44
f 76//76 60//60 74//74
f 89//89 97//97 73//73
f 60//60 76//76 88//88
f 25//25 90//90 89//89
f 45//45 63//63 99//99
f 18//18 14//14 90//90
f 90//90 25//25 18//18
f 45//45 99//99 26//26
f 30//30 6//6 91//91
f 17//17 35//35 77//77
f 22//22 81//81 64//64
f 65//65 81//81 22//22
f 77//77 79//79 17//17
f 80//80 29//29 78//78
f 79//79 92//92 17//17
f 79//79 93//93 92//92
f 79//79 83//83 93//93
f 94//94 83//83 79//79
f 78//78 69//69 80//80
f 17//17 92//92 23//23
f 92//92 93//93 84//84
f 78//78 95//95 69//69
f 12//12 24//24 95//95
f 78//78 12//12 95//95
f 23//23 92//92 84//84
f 95//95 86//86 69//69
f 85//85 96//96 84//84
f 96//96 97//97 84//84
f 95//95 72//72 86//86
f 23//23 84//84 14//14
f 84//84 90//90 14//14
f 97//97 90//90 84//84
f 76//76 74//74 98//98
f 72//72 30//30 74//74
f 24//24 30//30 95//95
f 97//97 89//89 90//90
f 99//99 63//63 75//75
f 87//87 99//99 75//75
f 88//88 99//99 87//87
f 95//95 30//30 72//72
f 98//98 88//88 76//76
f 30//30 98//98 74//74
f 98//98 99//99 88//88
f 27//27 26//26 99//99
f 98//98 27//27 99//99
f 91//91 27//27 98//98
f 30//30 91//91 98//98
