# Blender 4.1.1
# www.blender.org
mtllib aa0699.mtl
o Liquid_Domain
v -8.134167 -8.755833 6.217273
v -8.487272 -8.755834 5.864167
v -8.134167 -9.108939 5.864167
v 8.134167 -8.755833 6.217273
v 8.487272 -8.755833 5.864167
v 8.134167 -9.108939 5.864167
v -8.487272 -8.755834 -5.864167
v -8.134167 -9.108939 -5.864167
v 8.470131 -9.103192 -5.872422
v -8.134167 -8.755833 -6.217273
v 8.134167 -8.755833 -6.217273
v -8.453425 6.552290 -5.845143
v -8.114735 6.821577 6.225980
v -8.154716 4.624180 -6.188759
v -8.489305 6.765990 5.861613
v 8.456379 6.618353 -5.857611
v -0.519044 3.942970 -6.206440
v 5.109743 3.940385 -6.196034
v 8.449619 6.776213 -0.214919
v 3.680131 4.002143 -6.136349
v -2.185669 4.903497 -6.180858
v -8.448890 6.691029 -0.275916
v 6.153738 4.906649 -6.143636
v 0.437646 4.616308 6.194766
v 5.524497 4.789617 6.212142
v -1.423383 5.733559 6.197247
v 2.282804 5.765999 6.106392
v 8.429601 6.830880 3.100098
v 1.613317 4.024472 -6.118804
v 0.289271 5.226870 -5.417868
v 8.077127 6.477978 -6.195423
v 8.327733 6.811913 6.141469
v 4.750191 5.339229 -5.458087
v -8.163248 6.961480 -5.912365
v 5.406310 5.825890 5.785966
v -2.188064 5.679730 -5.868791
v 6.538173 6.375808 5.823028
v -7.085142 5.606914 -3.216590
v -6.465816 5.598929 -4.791741
v -7.049304 5.510878 -5.802975
v 0.064714 5.543327 -4.930388
v 3.231690 5.698523 -4.702532
v -5.578934 5.555748 -5.874921
v 6.753292 6.848227 -5.434158
v -1.758951 6.877129 5.920810
v 2.659423 6.500051 5.879918
v 4.901066 6.941975 5.288089
v 0.280541 5.589315 5.711108
v 1.393546 6.120490 5.191773
v 2.752302 5.855602 4.920074
v 6.402530 5.810277 3.547049
v 5.400966 5.968430 4.762207
v 6.018169 5.849490 0.832417
v 4.639611 5.721780 -1.451756
v 6.355378 5.763228 -1.545439
v -7.353300 6.713627 -0.663065
v -0.323942 5.931726 -0.848858
v 0.485953 5.775250 -1.885985
v -3.868488 5.980422 -1.937857
v -1.526846 5.516342 -1.873122
v 3.938571 5.840106 -2.996317
v 2.144749 6.124433 -2.935730
v -5.175689 6.436825 -3.642445
v -0.046043 5.901094 -2.902050
v -7.561793 5.973073 -5.717325
v -3.172735 6.345618 -5.066807
v 3.859520 6.005243 5.689543
v 2.726109 6.237537 3.708099
v 4.243220 6.322798 2.787954
v 3.041873 6.242290 2.502079
v 6.142639 6.391644 2.123935
v 5.355742 5.964434 1.422592
v 7.420563 6.968791 0.101589
v -5.917618 5.455933 -1.250888
v 1.355318 6.961090 0.008259
v 1.975115 5.956151 -1.020267
v 3.271150 6.730165 -2.367727
v 6.139030 7.080741 -3.130856
v -3.686445 6.554343 -3.642319
v 4.957657 6.523276 -3.762035
v -7.697152 6.835730 -5.319092
v -0.653785 6.967992 4.108117
v 1.654856 6.968829 3.837170
v 3.924997 6.745515 4.434700
v 2.380019 7.079378 1.595289
v 4.490160 6.632123 1.485444
v -0.151090 6.950021 0.599350
v 3.253608 6.862856 -1.070061
v 7.089470 7.011111 -2.105352
v -8.096688 7.137825 5.895358
v 7.632125 7.031384 3.814698
v -1.602634 7.060545 1.396532
v -8.058476 7.058382 -0.043377
v -6.426745 7.052334 0.459830
v 4.333108 6.926668 0.109497
v -3.774261 6.934409 -0.664011
v -1.897485 7.006941 -0.417064
v 8.120255 7.029090 -5.652286
vn -0.3102 -0.3158 0.8967
vn -0.8647 -0.3425 0.3674
vn -0.3350 -0.8684 0.3657
vn 0.3091 -0.3170 0.8966
vn 0.8642 -0.3405 0.3704
vn 0.3321 -0.8676 0.3701
vn -0.8647 -0.3418 -0.3679
vn -0.3350 -0.8684 -0.3656
vn 0.6210 -0.6508 -0.4369
vn -0.3105 -0.3151 -0.8968
vn 0.2852 -0.2825 -0.9159
vn -0.8001 0.2465 -0.5469
vn -0.3047 0.3352 0.8915
vn -0.3279 0.0796 -0.9414
vn -0.8701 0.3448 0.3523
vn 0.7937 0.3759 -0.4782
vn 0.0560 0.1929 -0.9796
vn -0.0595 0.1711 -0.9835
vn 0.7633 0.6460 0.0114
vn -0.0079 0.5926 -0.8055
vn 0.0699 0.2332 -0.9699
vn -0.9157 0.4018 -0.0038
vn -0.3779 0.4583 -0.8045
vn 0.0014 0.1514 0.9885
vn -0.0238 0.1499 0.9884
vn 0.1151 0.1739 0.9780
vn -0.1015 0.3522 0.9304
vn 0.7702 0.6379 -0.0009
vn 0.0024 0.6080 -0.7939
vn 0.0951 0.6785 -0.7284
vn 0.1709 0.3350 -0.9266
vn 0.4164 0.5647 0.7126
vn -0.2150 0.6087 -0.7637
vn -0.0602 0.6944 -0.7171
vn -0.0914 0.5676 0.8182
vn 0.1339 0.6169 -0.7755
vn -0.3508 0.7522 0.5578
vn 0.4254 0.9045 -0.0310
vn -0.2066 0.9676 -0.1452
vn 0.2110 0.6870 -0.6953
vn 0.1183 0.9336 -0.3382
vn -0.0816 0.9312 -0.3553
vn -0.0829 0.6799 -0.7286
vn -0.3297 0.7656 -0.5524
vn 0.1940 0.7027 0.6845
vn 0.0377 0.8488 0.5273
vn 0.2758 0.9115 0.3052
vn 0.1078 0.6403 0.7605
vn -0.0770 0.9197 0.3851
vn -0.0021 1.0000 -0.0037
vn -0.3191 0.9362 0.1475
vn 0.2688 0.9435 -0.1936
vn -0.1801 0.9726 -0.1472
vn 0.3176 0.9363 -0.1499
vn -0.4581 0.8613 0.2200
vn 0.4296 0.8574 -0.2835
vn -0.0038 0.8651 -0.5016
vn -0.1085 0.9864 -0.1233
vn -0.0340 0.9951 -0.0928
vn 0.0943 0.9870 -0.1303
vn -0.0270 0.9965 -0.0795
vn -0.2742 0.8930 -0.3569
vn -0.2337 0.9722 0.0112
vn 0.0596 0.9953 0.0757
vn 0.7899 0.5574 0.2559
vn 0.0508 0.9283 -0.3682
vn -0.0221 0.7089 0.7050
vn 0.1657 0.9674 0.1917
vn 0.0566 0.9974 0.0446
vn 0.2795 0.9275 0.2484
vn -0.3237 0.9459 -0.0236
vn 0.2177 0.9739 -0.0647
vn -0.2585 0.9652 -0.0399
vn 0.0436 0.9399 -0.3387
vn -0.1016 0.9319 -0.3481
vn -0.2226 0.8628 -0.4540
vn 0.1378 0.9176 -0.3729
vn -0.2735 0.9395 0.2064
vn 0.0466 0.9952 0.0859
vn -0.4269 0.8959 -0.1230
vn 0.7021 0.6875 -0.1856
vn 0.0900 0.9686 0.2316
vn 0.2753 0.8924 0.3575
vn -0.1226 0.9923 0.0202
vn 0.1501 0.9785 0.1417
vn 0.3986 0.8799 0.2586
vn 0.0183 0.9652 -0.2609
vn 0.0426 0.9543 -0.2957
vn -0.3186 0.9227 0.2173
vn -0.3173 0.8786 0.3569
vn -0.2047 0.9778 0.0440
vn 0.0110 0.9997 -0.0197
vn -0.2875 0.9525 -0.1004
vn 0.0271 0.9669 -0.2539
vn 0.3755 0.9141 -0.1530
vn -0.0763 0.8861 -0.4572
vn 0.1305 0.8960 -0.4245
vn 0.2690 0.8834 -0.3836
s 1
usemtl Liquid_Domain_Material
f 3//3 1//1 2//2
f 1//1 3//3 4//4
f 3//3 6//6 4//4
f 4//4 6//6 5//5
f 7//7 3//3 2//2
f 6//6 3//3 8//8
f 9//9 6//6 8//8
f 9//9 5//5 6//6
f 8//8 3//3 7//7
f 8//8 7//7 10//10
f 9//9 8//8 10//10
f 11//11 9//9 10//10
f 4//4 25//25 1//1
f 7//7 12//12 10//10
f 1//1 13//13 2//2
f 10//10 12//12 14//14
f 2//2 13//13 15//15
f 5//5 9//9 16//16
f 16//16 9//9 11//11
f 10//10 17//17 11//11
f 4//4 32//32 25//25
f 32//32 4//4 5//5
f 11//11 17//17 18//18
f 31//31 16//16 11//11
f 17//17 29//29 18//18
f 18//18 29//29 20//20
f 25//25 24//24 1//1
f 17//17 10//10 14//14
f 17//17 14//14 21//21
f 7//7 22//22 12//12
f 24//24 26//26 1//1
f 11//11 18//18 31//31
f 2//2 22//22 7//7
f 17//17 30//30 29//29
f 18//18 20//20 33//33
f 18//18 23//23 31//31
f 24//24 25//25 27//27
f 32//32 5//5 28//28
f 28//28 5//5 19//19
f 19//19 5//5 16//16
f 20//20 29//29 30//30
f 20//20 30//30 33//33
f 14//14 12//12 34//34
f 17//17 21//21 30//30
f 23//23 18//18 33//33
f 26//26 13//13 1//1
f 2//2 15//15 22//22
f 14//14 34//34 40//40
f 14//14 40//40 43//43
f 21//21 14//14 36//36
f 14//14 43//43 36//36
f 36//36 30//30 21//21
f 24//24 48//48 26//26
f 27//27 48//48 24//24
f 25//25 67//67 27//27
f 25//25 37//37 35//35
f 65//65 38//38 40//40
f 39//39 40//40 38//38
f 41//41 30//30 36//36
f 42//42 30//30 41//41
f 42//42 33//33 30//30
f 23//23 33//33 44//44
f 48//48 45//45 26//26
f 67//67 46//46 27//27
f 67//67 25//25 47//47
f 35//35 47//47 25//25
f 25//25 32//32 37//37
f 48//48 27//27 49//49
f 52//52 35//35 37//37
f 51//51 52//52 37//37
f 51//51 69//69 52//52
f 69//69 51//51 71//71
f 71//71 53//53 72//72
f 55//55 54//54 53//53
f 59//59 74//74 96//96
f 58//58 60//60 57//57
f 62//62 58//58 76//76
f 74//74 38//38 56//56
f 59//59 63//63 74//74
f 63//63 38//38 74//74
f 58//58 64//64 60//60
f 61//61 54//54 55//55
f 79//79 60//60 64//64
f 63//63 39//39 38//38
f 62//62 42//42 58//58
f 42//42 64//64 58//58
f 61//61 42//42 62//62
f 64//64 41//41 79//79
f 80//80 42//42 61//61
f 41//41 66//66 79//79
f 42//42 41//41 64//64
f 33//33 42//42 80//80
f 43//43 40//40 39//39
f 41//41 36//36 66//66
f 36//36 43//43 66//66
f 40//40 34//34 65//65
f 49//49 27//27 46//46
f 46//46 50//50 49//49
f 50//50 46//46 67//67
f 49//49 50//50 68//68
f 68//68 50//50 67//67
f 52//52 69//69 84//84
f 69//69 70//70 68//68
f 71//71 72//72 69//69
f 72//72 86//86 69//69
f 72//72 53//53 95//95
f 54//54 88//88 95//95
f 53//53 54//54 95//95
f 55//55 53//53 73//73
f 74//74 56//56 94//94
f 74//74 94//94 96//96
f 87//87 57//57 97//97
f 60//60 97//97 57//57
f 75//75 58//58 57//57
f 76//76 58//58 75//75
f 60//60 59//59 96//96
f 54//54 61//61 77//77
f 88//88 54//54 77//77
f 62//62 76//76 88//88
f 61//61 55//55 78//78
f 79//79 63//63 59//59
f 59//59 60//60 79//79
f 61//61 62//62 77//77
f 80//80 61//61 78//78
f 38//38 65//65 81//81
f 39//39 63//63 43//43
f 66//66 43//43 63//63
f 33//33 80//80 44//44
f 23//23 44//44 31//31
f 26//26 45//45 13//13
f 45//45 48//48 82//82
f 35//35 52//52 47//47
f 84//84 67//67 47//47
f 49//49 83//83 48//48
f 83//83 82//82 48//48
f 67//67 84//84 68//68
f 47//47 52//52 84//84
f 51//51 37//37 91//91
f 68//68 83//83 49//49
f 68//68 84//84 69//69
f 51//51 91//91 71//71
f 85//85 83//83 68//68
f 68//68 70//70 85//85
f 70//70 69//69 86//86
f 86//86 85//85 70//70
f 73//73 53//53 71//71
f 86//86 72//72 95//95
f 75//75 57//57 87//87
f 88//88 76//76 75//75
f 73//73 89//89 55//55
f 97//97 60//60 96//96
f 77//77 62//62 88//88
f 55//55 89//89 78//78
f 56//56 38//38 81//81
f 79//79 66//66 63//63
f 65//65 34//34 81//81
f 31//31 44//44 98//98
f 98//98 16//16 31//31
f 13//13 90//90 15//15
f 90//90 13//13 45//45
f 32//32 91//91 37//37
f 45//45 92//92 90//90
f 32//32 28//28 91//91
f 45//45 82//82 92//92
f 15//15 90//90 22//22
f 83//83 85//85 82//82
f 92//92 94//94 90//90
f 85//85 92//92 82//82
f 90//90 93//93 22//22
f 94//94 93//93 90//90
f 28//28 73//73 91//91
f 85//85 87//87 92//92
f 73//73 71//71 91//91
f 28//28 19//19 73//73
f 75//75 87//87 85//85
f 87//87 97//97 92//92
f 86//86 95//95 85//85
f 92//92 96//96 94//94
f 97//97 96//96 92//92
f 95//95 75//75 85//85
f 95//95 88//88 75//75
f 94//94 56//56 93//93
f 93//93 34//34 22//22
f 56//56 34//34 93//93
f 19//19 98//98 73//73
f 98//98 89//89 73//73
f 56//56 81//81 34//34
f 98//98 78//78 89//89
f 19//19 16//16 98//98
f 22//22 34//34 12//12
f 44//44 80//80 78//78
f 98//98 44//44 78//78
