# Blender 4.1.1
# www.blender.org
mtllib aa0624.mtl
o Liquid_Domain
v -8.134167 -8.755833 6.217273
v -8.487272 -8.755834 5.864167
v -8.134167 -9.108939 5.864167
v 8.134167 -8.755833 6.217273
v 8.487272 -8.755833 5.864167
v 8.134167 -9.108939 5.864167
v 8.487272 -8.755833 -5.864167
v -8.487272 -8.755834 -5.864167
v 8.134167 -9.108939 -5.864167
v -8.134167 -9.108939 -5.864167
v -8.134167 -8.755833 -6.217273
v 8.134167 -8.755833 -6.217273
v -8.487494 4.748386 -5.843563
v 8.478328 6.695025 5.863073
v -8.140425 7.020228 6.207825
v -8.112726 4.543047 -6.194297
v 3.057653 3.682766 6.189250
v 8.475377 6.737624 -5.869473
v 1.731090 5.328077 -6.205823
v -8.467962 6.711458 5.875248
v -4.514825 3.645932 -6.192373
v -6.465830 4.419946 -6.154577
v -1.395999 4.912333 -6.157796
v 0.697995 5.926955 6.185150
v 3.442197 4.862697 5.618976
v 4.481534 5.131855 6.025840
v -2.322441 4.704259 6.201615
v 2.142738 5.377364 5.863168
v -4.652565 4.678194 -5.754010
v -2.068158 5.423292 5.890016
v 2.680170 5.145600 5.215920
v -1.674020 4.845677 4.668164
v -0.131837 5.269268 1.955295
v 1.431196 4.577903 -0.997505
v 2.801428 5.233432 -1.322932
v 0.155841 5.259699 -2.657101
v 1.466172 4.767006 -3.350202
v -3.483407 5.712557 -2.052007
v -0.820585 5.024282 -3.807977
v 1.195749 5.088470 -4.219358
v -0.340922 5.672348 -4.432371
v -3.655201 5.145304 -5.122828
v -8.412994 6.706807 -4.694313
v -2.392765 5.343849 -5.764804
v -7.029656 5.481917 -5.622416
v 8.129228 6.770643 -6.220377
v -4.709326 6.569883 6.137543
v 3.638058 5.832273 4.383018
v 0.774768 5.561570 3.514840
v -1.249928 5.201705 3.229981
v 1.276812 5.257904 4.453938
v 2.996809 5.850880 2.394254
v -1.522535 5.901960 1.602994
v 3.827252 5.648254 0.446215
v -0.168831 5.241419 -0.222848
v 3.661218 5.499706 -1.071760
v 3.923768 5.481316 -3.089205
v -2.988678 4.782977 -4.066125
v -4.507808 5.686791 -4.665509
v 5.987578 6.792583 6.150094
v -3.375957 5.854884 4.906555
v -0.432883 6.070455 3.990084
v 0.708251 6.108543 3.721677
v -4.410060 5.913991 4.327291
v -8.454540 6.736937 0.174989
v -3.753013 5.727316 1.488458
v -2.108391 5.952466 1.222752
v -6.916379 5.790047 -0.930886
v 4.872849 6.596756 0.498373
v 4.592652 6.458378 -2.732220
v -7.321251 6.137292 -2.667365
v -5.504983 5.705872 -4.047885
v 4.372947 6.710026 -3.573638
v -0.077755 6.021390 -5.728955
v 1.107130 6.059117 -5.327076
v 1.876901 6.276604 -5.858951
v 3.405697 6.971898 -6.017058
v 0.812347 6.579967 5.873187
v 0.648857 6.261941 4.903878
v -4.285311 5.706066 0.305297
v -7.140355 6.407970 -4.536213
v 2.687584 6.840282 -4.698838
v -7.955010 6.966882 -5.305702
v 8.162081 6.987169 6.185584
v -5.358083 6.742924 4.904435
v 4.446722 7.030099 3.826735
v 4.408836 6.917834 -1.534774
v -4.306553 6.926662 5.759179
v 6.495353 7.061623 5.812878
v -6.450203 7.092609 5.630877
v -4.914095 6.830431 3.630919
v -7.597622 7.013904 0.073744
v -8.078601 7.048164 -2.640884
v 4.543354 7.024716 1.738260
v -5.857037 7.013647 1.572826
v 6.008352 7.011157 0.624973
v 8.139466 7.087358 -5.832479
v 5.209785 7.061070 -3.975864
vn -0.3099 -0.3156 0.8969
vn -0.8644 -0.3428 0.3677
vn -0.3350 -0.8684 0.3657
vn 0.3099 -0.3154 0.8970
vn 0.8645 -0.3428 0.3676
vn 0.3350 -0.8684 0.3657
vn 0.8645 -0.3428 -0.3676
vn -0.8644 -0.3427 -0.3680
vn 0.3350 -0.8684 -0.3657
vn -0.3350 -0.8684 -0.3657
vn -0.3104 -0.3155 -0.8967
vn 0.3102 -0.3161 -0.8966
vn -0.8106 0.2266 -0.5401
vn 0.8961 0.3231 0.3042
vn -0.3454 0.5551 0.7567
vn -0.2833 0.1966 -0.9387
vn 0.0086 0.1132 0.9935
vn 0.8677 0.3397 -0.3628
vn -0.0604 0.1651 -0.9844
vn -0.8970 0.3190 0.3060
vn -0.0025 0.1553 -0.9879
vn 0.0718 0.3178 -0.9454
vn -0.0815 0.2921 -0.9529
vn 0.0552 0.2775 0.9591
vn -0.1139 0.6923 0.7126
vn -0.6758 0.7067 0.2093
vn 0.0225 0.1274 0.9916
vn 0.4715 0.7004 0.5359
vn 0.0145 0.6156 -0.7879
vn 0.0289 0.8010 0.5980
vn 0.0743 0.9817 0.1752
vn -0.1488 0.9778 -0.1474
vn 0.0887 0.9961 -0.0043
vn -0.0815 0.9883 -0.1292
vn -0.3194 0.9434 -0.0890
vn 0.2221 0.9687 -0.1106
vn -0.0757 0.9853 0.1530
vn 0.0865 0.9875 -0.1320
vn -0.0178 0.9822 0.1869
vn -0.1018 0.8146 0.5709
vn -0.0388 0.8312 0.5546
vn 0.0059 0.9797 -0.2002
vn -0.8606 0.4820 -0.1644
vn -0.2224 0.7225 -0.6546
vn 0.2848 0.5622 -0.7764
vn 0.3115 0.3485 -0.8840
vn 0.0980 0.4033 0.9098
vn -0.5277 0.7557 0.3879
vn 0.1852 0.9409 -0.2835
vn 0.1092 0.9928 0.0483
vn 0.4108 0.9057 -0.1041
vn -0.6292 0.7586 -0.1690
vn 0.2220 0.9735 0.0551
vn -0.4606 0.8722 -0.1649
vn 0.3053 0.9514 -0.0392
vn -0.5712 0.8207 -0.0144
vn -0.5865 0.7463 0.3147
vn 0.0913 0.9958 -0.0057
vn 0.0812 0.9701 -0.2289
vn -0.2586 0.4999 0.8265
vn 0.4012 0.8891 -0.2204
vn -0.3261 0.8503 -0.4130
vn 0.4343 0.6412 -0.6326
vn 0.4365 0.8925 -0.1133
vn -0.9002 0.4355 -0.0028
vn -0.0244 0.9991 -0.0338
vn 0.0264 0.9995 0.0149
vn 0.4679 0.8651 -0.1807
vn -0.5237 0.8446 -0.1115
vn -0.8601 0.5058 -0.0658
vn 0.5863 0.8069 0.0724
vn 0.2452 0.9568 -0.1562
vn -0.3974 0.7679 0.5024
vn -0.1515 0.8624 -0.4830
vn -0.2030 0.9118 0.3569
vn -0.3025 0.7045 -0.6420
vn -0.1566 0.6965 -0.7002
vn 0.1978 0.8800 0.4318
vn 0.4156 0.8469 -0.3317
vn 0.1504 0.9779 -0.1451
vn 0.5791 0.7944 -0.1834
vn -0.4158 0.8181 0.3973
vn -0.0865 0.7571 -0.6475
vn 0.3527 0.5499 0.7571
vn 0.3976 0.9107 -0.1118
vn -0.4274 0.8832 0.1931
vn -0.6059 0.7952 -0.0211
vn 0.3339 0.9162 0.2214
vn -0.0994 0.9569 0.2729
vn 0.0851 0.9769 0.1960
vn 0.5807 0.8127 0.0473
vn 0.2961 0.9353 -0.1936
vn 0.0269 0.9996 -0.0094
vn -0.3729 0.9103 -0.1795
vn 0.2854 0.9372 -0.2003
vn -0.1298 0.9911 -0.0293
vn 0.3440 0.8875 -0.3066
vn -0.1185 0.9892 0.0868
s 1
usemtl Liquid_Domain_Material
f 3//3 1//1 2//2
f 3//3 6//6 1//1
f 1//1 6//6 4//4
f 4//4 6//6 5//5
f 10//10 3//3 2//2
f 7//7 5//5 6//6
f 8//8 10//10 2//2
f 6//6 3//3 10//10
f 9//9 6//6 10//10
f 9//9 7//7 6//6
f 10//10 8//8 11//11
f 12//12 10//10 11//11
f 9//9 10//10 12//12
f 7//7 9//9 12//12
f 2//2 13//13 8//8
f 84//84 4//4 5//5
f 14//14 84//84 5//5
f 8//8 13//13 11//11
f 1//1 15//15 2//2
f 11//11 13//13 16//16
f 12//12 11//11 46//46
f 46//46 7//7 12//12
f 4//4 17//17 1//1
f 18//18 7//7 46//46
f 11//11 21//21 19//19
f 2//2 15//15 20//20
f 11//11 16//16 21//21
f 1//1 27//27 15//15
f 1//1 24//24 27//27
f 1//1 17//17 24//24
f 16//16 22//22 21//21
f 19//19 21//21 23//23
f 2//2 20//20 13//13
f 21//21 22//22 29//29
f 17//17 26//26 25//25
f 4//4 84//84 17//17
f 5//5 7//7 18//18
f 11//11 19//19 46//46
f 28//28 17//17 25//25
f 17//17 60//60 26//26
f 17//17 84//84 60//60
f 37//37 34//34 35//35
f 42//42 44//44 29//29
f 22//22 16//16 45//45
f 45//45 29//29 22//22
f 29//29 44//44 21//21
f 21//21 44//44 23//23
f 27//27 47//47 15//15
f 17//17 28//28 24//24
f 31//31 28//28 25//25
f 33//33 34//34 55//55
f 34//34 37//37 55//55
f 55//55 37//37 36//36
f 57//57 37//37 35//35
f 39//39 58//58 38//38
f 37//37 39//39 36//36
f 37//37 40//40 39//39
f 40//40 37//37 57//57
f 40//40 41//41 39//39
f 42//42 58//58 39//39
f 43//43 16//16 13//13
f 28//28 78//78 24//24
f 32//32 61//61 30//30
f 31//31 51//51 28//28
f 31//31 25//25 48//48
f 32//32 50//50 61//61
f 50//50 32//32 62//62
f 49//49 33//33 50//50
f 31//31 52//52 51//51
f 52//52 31//31 48//48
f 33//33 53//53 50//50
f 51//51 54//54 49//49
f 54//54 33//33 49//49
f 54//54 35//35 33//33
f 14//14 5//5 18//18
f 33//33 55//55 53//53
f 33//33 35//35 34//34
f 54//54 56//56 35//35
f 55//55 38//38 67//67
f 55//55 36//36 38//38
f 57//57 35//35 56//56
f 38//38 58//58 72//72
f 36//36 39//39 38//38
f 58//58 59//59 72//72
f 58//58 42//42 59//59
f 41//41 42//42 39//39
f 40//40 75//75 41//41
f 72//72 45//45 81//81
f 29//29 45//45 72//72
f 59//59 29//29 72//72
f 59//59 42//42 29//29
f 44//44 74//74 23//23
f 19//19 23//23 74//74
f 27//27 30//30 47//47
f 30//30 27//27 24//24
f 62//62 32//32 30//30
f 51//51 79//79 28//28
f 48//48 25//25 26//26
f 49//49 63//63 79//79
f 51//51 49//49 79//79
f 50//50 62//62 49//49
f 62//62 63//63 49//49
f 61//61 53//53 64//64
f 50//50 53//53 61//61
f 20//20 65//65 13//13
f 53//53 66//66 64//64
f 67//67 66//66 53//53
f 51//51 52//52 54//54
f 66//66 38//38 80//80
f 67//67 38//38 66//66
f 67//67 53//53 55//55
f 56//56 54//54 69//69
f 80//80 38//38 68//68
f 56//56 70//70 57//57
f 38//38 72//72 68//68
f 72//72 71//71 68//68
f 72//72 81//81 71//71
f 57//57 70//70 73//73
f 40//40 57//57 75//75
f 41//41 74//74 42//42
f 75//75 74//74 41//41
f 74//74 44//44 42//42
f 45//45 16//16 83//83
f 74//74 75//75 76//76
f 74//74 76//76 19//19
f 78//78 30//30 24//24
f 78//78 62//62 30//30
f 85//85 88//88 61//61
f 28//28 79//79 78//78
f 61//61 64//64 85//85
f 79//79 62//62 78//78
f 79//79 63//63 62//62
f 80//80 64//64 66//66
f 54//54 52//52 94//94
f 54//54 94//94 69//69
f 80//80 68//68 95//95
f 69//69 87//87 56//56
f 65//65 43//43 13//13
f 56//56 87//87 70//70
f 75//75 57//57 82//82
f 43//43 83//83 16//16
f 45//45 83//83 81//81
f 76//76 77//77 19//19
f 19//19 77//77 46//46
f 47//47 30//30 88//88
f 30//30 61//61 88//88
f 26//26 86//86 48//48
f 60//60 86//86 26//26
f 91//91 85//85 64//64
f 48//48 86//86 52//52
f 95//95 91//91 80//80
f 91//91 64//64 80//80
f 86//86 94//94 52//52
f 92//92 95//95 68//68
f 68//68 71//71 92//92
f 92//92 71//71 93//93
f 81//81 93//93 71//71
f 83//83 93//93 81//81
f 73//73 82//82 57//57
f 76//76 75//75 82//82
f 76//76 82//82 77//77
f 15//15 47//47 90//90
f 90//90 47//47 88//88
f 89//89 60//60 84//84
f 88//88 85//85 90//90
f 89//89 86//86 60//60
f 85//85 91//91 90//90
f 90//90 92//92 15//15
f 91//91 95//95 90//90
f 95//95 92//92 90//90
f 15//15 93//93 65//65
f 20//20 15//15 65//65
f 89//89 94//94 86//86
f 96//96 94//94 89//89
f 14//14 18//18 84//84
f 15//15 92//92 93//93
f 84//84 97//97 89//89
f 84//84 18//18 97//97
f 96//96 69//69 94//94
f 89//89 97//97 96//96
f 96//96 87//87 69//69
f 96//96 98//98 87//87
f 65//65 93//93 43//43
f 96//96 97//97 98//98
f 98//98 70//70 87//87
f 73//73 70//70 98//98
f 82//82 73//73 98//98
f 93//93 83//83 43//43
f 98//98 77//77 82//82
f 97//97 77//77 98//98
f 97//97 46//46 77//77
f 18//18 46//46 97//97
