# Blender 4.1.1
# www.blender.org
mtllib aa0622.mtl
o Liquid_Domain
v -8.134167 -8.755833 6.217273
v -8.487272 -8.755834 5.864167
v 8.134167 -8.755833 6.217273
v 8.487272 -8.755833 5.864167
v -8.134167 -9.108939 5.864167
v 8.134167 -9.108939 5.864167
v 8.487272 -8.755833 -5.864167
v -8.487272 -8.755834 -5.864167
v -8.134167 -9.108939 -5.864167
v 8.134167 -9.108939 -5.864167
v -8.134167 -8.755833 -6.217273
v 8.134167 -8.755833 -6.217273
v -2.737693 4.972090 6.213799
v 8.471454 6.707375 5.871013
v -8.161463 7.007432 6.184351
v -8.468667 3.812080 -5.873730
v -8.074290 4.235466 -6.181264
v 3.229467 3.141434 6.207783
v -8.460000 6.918997 0.134085
v 8.474904 6.737573 -5.869133
v -8.459790 6.713218 5.880832
v 1.972923 5.246140 -6.205786
v 8.144073 7.079142 -6.210906
v -4.138123 3.664994 -6.188342
v 0.521883 5.764850 6.186110
v -8.445823 6.510533 -4.444472
v -5.963995 4.608310 -6.105382
v -0.800376 5.461159 -6.086769
v 3.689446 4.881639 5.657158
v 1.868324 5.296746 5.943719
v 6.202480 6.791132 6.182307
v -4.497516 4.694937 -5.714243
v 1.263118 4.692923 -0.602159
v 2.644961 5.121702 -2.804744
v 1.353218 4.760695 -3.710891
v -2.360492 4.683825 -4.096200
v -3.374001 5.159966 -5.048519
v 2.836711 5.186762 5.113116
v -2.167771 4.920480 4.836010
v 1.256628 5.122313 4.608586
v -0.436985 5.974879 3.865019
v -1.112886 5.120183 3.223778
v -0.447077 4.977431 -3.854820
v 3.848996 5.676602 -3.341115
v -2.247039 5.405653 -5.086761
v -4.265079 5.580256 -4.683345
v -6.841442 5.463599 -5.352607
v 4.082006 6.685803 -6.163944
v -4.627645 6.456321 6.155405
v -2.590373 5.706226 5.855172
v -1.006402 5.859468 5.039252
v -3.518871 5.774871 4.715908
v 0.357242 5.679917 3.848368
v 2.813254 5.725174 3.396606
v -0.291435 5.454148 3.376323
v 0.145756 5.166344 1.431928
v 2.350571 5.533443 -0.246380
v -0.184696 5.291696 -0.288034
v 3.670983 5.549323 -0.980544
v 0.170721 5.276568 -2.518554
v 3.948085 5.411395 -2.591030
v -5.309127 5.588958 -4.119085
v -0.002194 5.702455 -4.328431
v 0.032935 6.506237 5.819931
v 0.719222 6.373155 5.844954
v 8.181406 6.974427 6.160894
v 4.334597 6.833206 4.313199
v -4.305725 5.885662 4.068192
v -1.808894 5.903064 1.487342
v -2.540425 5.630942 -1.105073
v 3.072701 5.926727 1.699740
v -3.744754 5.694386 0.565242
v 3.996485 5.522362 0.104288
v -6.217603 5.772110 -0.522971
v -3.954251 5.728582 -2.150987
v -5.248318 5.677325 -3.108779
v 2.878000 6.772461 -4.779496
v -0.089783 6.091315 -5.284070
v 1.270765 5.983365 -5.419034
v -8.056021 6.943822 -5.175265
v 2.420513 6.308601 -5.845840
v -5.104373 7.003995 3.355261
v -7.257284 5.837123 -1.541374
v 4.289130 6.813523 -1.574762
v -7.216358 6.247476 -4.609040
v -4.594278 6.958672 5.820777
v -5.345350 6.642551 4.884366
v 4.249707 6.971849 2.095924
v -4.848738 6.392827 1.316698
v 5.096813 6.677899 -2.974915
v 3.623632 7.027771 -5.811759
v 5.442777 7.072869 4.614681
v -5.927062 7.052463 1.736947
v 5.389667 6.990697 0.622224
v -7.609235 6.975718 -0.218750
v 5.321288 7.061719 -0.767086
v 8.147025 7.054613 -2.336516
v 5.354425 7.047332 -3.834505
vn -0.3102 -0.3158 0.8967
vn -0.8646 -0.3426 0.3675
vn 0.3102 -0.3156 0.8967
vn 0.8645 -0.3427 0.3676
vn -0.3350 -0.8684 0.3657
vn 0.3350 -0.8684 0.3657
vn 0.8645 -0.3429 -0.3675
vn -0.8646 -0.3411 -0.3688
vn -0.3350 -0.8684 -0.3657
vn 0.3350 -0.8684 -0.3657
vn -0.3110 -0.3144 -0.8969
vn 0.3100 -0.3159 -0.8967
vn 0.0256 0.1515 0.9881
vn 0.8943 0.3232 0.3094
vn -0.3471 0.5618 0.7510
vn -0.8752 0.0770 -0.4777
vn -0.3311 0.2322 -0.9146
vn 0.0032 0.0738 0.9973
vn -0.7144 0.6998 -0.0003
vn 0.9047 0.3009 -0.3016
vn -0.9011 0.2987 0.3142
vn -0.0326 0.1466 -0.9887
vn 0.3526 0.5643 -0.7465
vn -0.0124 0.1514 -0.9884
vn 0.0822 0.2649 0.9608
vn -0.9412 0.3122 -0.1290
vn 0.0544 0.4356 -0.8985
vn -0.1299 0.5252 -0.8410
vn -0.2487 0.5830 0.7735
vn 0.3803 0.6645 0.6433
vn -0.1765 0.5327 0.8277
vn 0.0209 0.6703 -0.7418
vn -0.1032 0.9822 -0.1567
vn -0.2995 0.9529 0.0472
vn -0.0876 0.9292 0.3590
vn -0.0024 0.9984 0.0560
vn 0.0135 0.9920 -0.1255
vn 0.0926 0.9793 0.1802
vn 0.0189 0.9742 -0.2249
vn 0.3024 0.9511 -0.0635
vn -0.1363 0.8728 -0.4687
vn -0.0118 0.9981 -0.0609
vn -0.0740 0.9523 0.2962
vn -0.4837 0.6929 0.5347
vn -0.1452 0.6642 0.7333
vn 0.1224 0.9549 -0.2704
vn 0.2719 0.6502 -0.7095
vn -0.1008 0.3612 -0.9270
vn 0.1294 0.3226 0.9377
vn 0.1361 0.8843 0.4467
vn -0.4431 0.8401 -0.3129
vn 0.3871 0.9157 -0.1083
vn 0.5601 0.4550 -0.6923
vn -0.3650 0.9044 0.2210
vn -0.0874 0.8986 -0.4301
vn -0.0018 0.9963 -0.0861
vn -0.2522 0.9445 -0.2105
vn 0.2921 0.9561 -0.0230
vn -0.5077 0.8615 -0.0064
vn 0.2200 0.9709 -0.0950
vn -0.5492 0.8357 -0.0038
vn 0.1418 0.9559 -0.2572
vn -0.0339 0.7775 0.6280
vn -0.0532 0.9067 0.4185
vn 0.4045 0.8346 0.3740
vn 0.3469 0.5593 0.7529
vn -0.4983 0.8112 0.3061
vn 0.4214 0.9068 -0.0103
vn 0.1718 0.9844 0.0382
vn 0.0966 0.9930 -0.0682
vn -0.3547 0.9166 -0.1844
vn 0.0992 0.9867 -0.1290
vn -0.4310 0.9002 -0.0627
vn 0.2853 0.9038 -0.3191
vn 0.0818 0.9862 -0.1441
vn 0.1798 0.9828 -0.0424
vn -0.4016 0.8628 0.3071
vn -0.0869 0.9913 -0.0988
vn -0.2175 0.9648 0.1479
vn -0.1651 0.7607 -0.6277
vn -0.2904 0.6840 -0.6691
vn 0.4835 0.8753 0.0067
vn 0.6275 0.7762 -0.0617
vn -0.6120 0.7825 -0.1145
vn 0.5836 0.7811 -0.2221
vn 0.3617 0.8899 0.2781
vn 0.9465 0.0668 -0.3157
vn -0.3930 0.9103 -0.1300
vn 0.4714 0.8480 -0.2422
vn -0.6979 0.7105 0.0905
vn -0.2544 0.8487 -0.4636
vn -0.1375 0.9805 0.1406
vn 0.2155 0.9638 -0.1570
vn -0.3062 0.9499 -0.0632
vn 0.2413 0.9504 -0.1961
vn -0.1295 0.9913 0.0235
vn 0.3830 0.9237 0.0035
vn -0.1268 0.9869 0.0994
s 1
usemtl Liquid_Domain_Material
f 5//5 1//1 2//2
f 5//5 6//6 1//1
f 1//1 6//6 3//3
f 3//3 6//6 4//4
f 7//7 4//4 6//6
f 8//8 5//5 2//2
f 6//6 5//5 9//9
f 10//10 6//6 9//9
f 9//9 5//5 8//8
f 10//10 7//7 6//6
f 9//9 8//8 11//11
f 10//10 9//9 11//11
f 12//12 10//10 11//11
f 7//7 10//10 12//12
f 3//3 13//13 1//1
f 14//14 3//3 4//4
f 4//4 7//7 14//14
f 1//1 15//15 2//2
f 1//1 13//13 15//15
f 66//66 3//3 14//14
f 8//8 16//16 17//17
f 11//11 8//8 17//17
f 23//23 7//7 12//12
f 3//3 18//18 13//13
f 2//2 19//19 8//8
f 20//20 7//7 23//23
f 11//11 22//22 12//12
f 2//2 15//15 21//21
f 11//11 24//24 22//22
f 11//11 17//17 24//24
f 12//12 22//22 23//23
f 18//18 25//25 13//13
f 3//3 31//31 18//18
f 3//3 66//66 31//31
f 26//26 16//16 8//8
f 24//24 17//17 27//27
f 22//22 24//24 28//28
f 18//18 30//30 25//25
f 29//29 30//30 18//18
f 24//24 27//27 32//32
f 29//29 38//38 30//30
f 21//21 19//19 2//2
f 19//19 26//26 8//8
f 35//35 33//33 34//34
f 17//17 16//16 26//26
f 37//37 28//28 32//32
f 28//28 24//24 32//32
f 22//22 48//48 23//23
f 18//18 31//31 29//29
f 38//38 40//40 30//30
f 41//41 42//42 39//39
f 33//33 58//58 56//56
f 57//57 33//33 56//56
f 33//33 57//57 34//34
f 58//58 33//33 60//60
f 33//33 35//35 60//60
f 43//43 36//36 75//75
f 35//35 43//43 60//60
f 44//44 35//35 34//34
f 75//75 36//36 76//76
f 36//36 37//37 76//76
f 43//43 45//45 36//36
f 36//36 45//45 37//37
f 37//37 32//32 46//46
f 27//27 17//17 47//47
f 32//32 27//27 47//47
f 13//13 49//49 15//15
f 50//50 51//51 39//39
f 30//30 40//40 65//65
f 50//50 39//39 52//52
f 39//39 51//51 41//41
f 65//65 40//40 53//53
f 39//39 42//42 52//52
f 55//55 42//42 41//41
f 40//40 55//55 53//53
f 38//38 54//54 40//40
f 54//54 55//55 40//40
f 55//55 56//56 42//42
f 14//14 7//7 20//20
f 42//42 56//56 69//69
f 57//57 56//56 55//55
f 56//56 58//58 69//69
f 58//58 70//70 69//69
f 59//59 57//57 73//73
f 59//59 34//34 57//57
f 60//60 70//70 58//58
f 59//59 61//61 34//34
f 70//70 43//43 75//75
f 60//60 43//43 70//70
f 34//34 61//61 44//44
f 46//46 62//62 76//76
f 76//76 37//37 46//46
f 63//63 43//43 35//35
f 46//46 32//32 62//62
f 63//63 45//45 43//43
f 62//62 32//32 47//47
f 78//78 37//37 45//45
f 28//28 37//37 78//78
f 13//13 50//50 49//49
f 25//25 64//64 13//13
f 13//13 64//64 50//50
f 30//30 65//65 25//25
f 52//52 87//87 50//50
f 29//29 54//54 38//38
f 67//67 54//54 29//29
f 87//87 52//52 68//68
f 52//52 69//69 68//68
f 52//52 42//42 69//69
f 41//41 53//53 55//55
f 69//69 72//72 68//68
f 72//72 89//89 68//68
f 69//69 70//70 72//72
f 71//71 55//55 54//54
f 57//57 55//55 71//71
f 71//71 73//73 57//57
f 72//72 74//74 89//89
f 70//70 75//75 72//72
f 76//76 83//83 74//74
f 72//72 75//75 74//74
f 75//75 76//76 74//74
f 76//76 85//85 83//83
f 61//61 90//90 44//44
f 85//85 76//76 62//62
f 45//45 63//63 78//78
f 35//35 44//44 77//77
f 62//62 47//47 85//85
f 78//78 63//63 79//79
f 35//35 79//79 63//63
f 77//77 79//79 35//35
f 26//26 80//80 17//17
f 47//47 80//80 85//85
f 80//80 47//47 17//17
f 78//78 79//79 28//28
f 81//81 28//28 79//79
f 81//81 22//22 28//28
f 25//25 65//65 64//64
f 64//64 51//51 50//50
f 51//51 64//64 41//41
f 64//64 53//53 41//41
f 64//64 65//65 53//53
f 89//89 82//82 68//68
f 59//59 84//84 61//61
f 50//50 86//86 49//49
f 29//29 31//31 67//67
f 50//50 87//87 86//86
f 82//82 87//87 68//68
f 88//88 54//54 67//67
f 71//71 54//54 88//88
f 71//71 88//88 73//73
f 94//94 73//73 88//88
f 89//89 74//74 95//95
f 74//74 83//83 95//95
f 73//73 84//84 59//59
f 84//84 73//73 94//94
f 84//84 90//90 61//61
f 83//83 85//85 95//95
f 95//95 85//85 80//80
f 77//77 44//44 90//90
f 77//77 81//81 79//79
f 81//81 77//77 91//91
f 81//81 91//91 22//22
f 22//22 91//91 48//48
f 15//15 49//49 86//86
f 67//67 31//31 92//92
f 66//66 92//92 31//31
f 86//86 82//82 15//15
f 87//87 82//82 86//86
f 82//82 93//93 15//15
f 92//92 88//88 67//67
f 15//15 19//19 21//21
f 93//93 19//19 15//15
f 14//14 20//20 66//66
f 82//82 89//89 93//93
f 66//66 97//97 92//92
f 66//66 20//20 97//97
f 92//92 94//94 88//88
f 97//97 94//94 92//92
f 93//93 95//95 19//19
f 89//89 95//95 93//93
f 97//97 96//96 94//94
f 94//94 96//96 84//84
f 95//95 80//80 19//19
f 19//19 80//80 26//26
f 96//96 90//90 84//84
f 96//96 98//98 90//90
f 97//97 20//20 23//23
f 77//77 90//90 98//98
f 96//96 97//97 98//98
f 98//98 91//91 77//77
f 97//97 91//91 98//98
f 23//23 91//91 97//97
f 23//23 48//48 91//91
