# Blender 4.1.1
# www.blender.org
mtllib aa0718.mtl
o Liquid_Domain
v -8.134167 -8.755833 6.217273
v -8.487272 -8.755834 5.864167
v -8.134167 -9.108939 5.864167
v 8.134167 -8.755833 6.217273
v 8.487272 -8.755833 5.864167
v 8.134167 -9.108939 5.864167
v -8.487272 -8.755834 -5.864167
v -8.134167 -9.108939 -5.864167
v 8.482434 -9.103855 -5.865927
v -8.134167 -8.755833 -6.217273
v 8.134167 -8.755833 -6.217273
v -8.155256 5.541122 -6.175670
v 8.465079 6.675083 5.877945
v -2.192206 4.902114 -6.209115
v 8.463448 6.696523 -5.873927
v -8.485678 5.268900 -5.859153
v -8.131003 6.767984 6.219285
v -8.477652 7.096847 5.875819
v 1.775845 4.073500 6.198741
v -8.473866 6.720279 -0.168844
v 4.030471 4.530114 -6.176204
v 8.089168 6.181703 6.195968
v 2.027083 4.136403 -6.196578
v 4.227410 5.361297 6.175209
v 0.871335 5.314517 -6.131374
v -3.535773 6.947104 6.159489
v 8.452306 6.651903 0.771966
v 8.164021 6.998149 -6.174445
v 2.256757 5.035915 5.796228
v 3.244044 5.009092 -5.612490
v -1.196824 5.817554 6.169657
v 0.377340 5.546842 5.936537
v 3.153572 6.358835 5.888236
v 5.957197 6.055920 5.801288
v 2.944552 5.761793 5.392252
v 1.035231 5.464017 4.512666
v 2.541550 6.066426 4.195415
v -6.192836 5.333649 -1.724340
v -4.985497 5.571774 -1.149286
v -6.919558 5.631953 -2.576020
v -8.365626 6.899059 -5.320476
v 2.801296 5.471485 -5.126702
v -0.804528 5.818041 -5.605881
v -3.433532 6.003265 -5.880598
v 4.756936 6.389488 5.224696
v 3.706712 5.869540 4.094834
v -7.306979 5.845039 -2.035056
v 0.181410 5.667093 -1.730563
v 2.074131 5.869329 -1.894874
v 6.431092 5.979623 -1.954967
v -4.175135 6.323377 -2.632551
v -1.668173 5.799683 -2.282302
v 4.718130 5.769529 -2.509765
v -1.048670 6.042964 -3.161793
v 6.251038 6.569863 -3.221689
v 0.731534 6.073792 -4.219155
v 0.544049 6.054077 -5.340492
v 3.817225 5.961490 -4.849742
v -7.426550 5.834531 -5.819239
v 6.744014 6.992733 -6.116383
v -1.985651 7.027967 5.832390
v 8.098620 7.004516 6.129164
v 6.310800 6.778439 5.170966
v 2.059840 6.835288 3.535129
v 6.466486 5.932174 3.763704
v -4.261142 7.059242 -0.238993
v -2.948764 6.317066 -2.135964
v 3.310382 6.628520 -2.065022
v -2.243315 6.492996 -3.388461
v 2.316397 6.624064 -3.309658
v 3.873393 6.157207 -3.732464
v 5.475465 7.002692 -3.932058
v -7.152175 6.274640 -4.680357
v -2.048566 6.155438 -5.264182
v -4.722193 6.479544 -5.058425
v 5.012482 6.771435 -5.042031
v -0.129252 6.754001 3.266874
v 7.280554 7.008447 4.132352
v 5.051587 6.573267 3.993636
v 3.436407 7.002593 2.046771
v 6.280335 6.418489 0.672171
v -5.574503 6.805809 1.118399
v -7.313030 6.795424 -1.344995
v 2.957020 6.559398 -0.821837
v 7.382665 7.014222 -2.454263
v 4.312551 6.781115 -1.633099
v -7.726038 6.841459 -4.916542
v 8.125564 7.007209 0.709117
v -4.644381 7.072773 2.284142
v -8.084455 7.074702 -1.144599
v -6.481649 7.031024 1.006232
v 3.257890 7.101443 0.763663
v 6.623611 6.973958 2.213181
v -0.081933 7.060628 2.436900
v 5.464998 6.899959 1.274264
v 0.943398 6.994408 -0.079574
v -0.770526 7.008136 -0.896801
v 5.341323 6.812791 -0.813507
vn -0.3099 -0.3155 0.8969
vn -0.8644 -0.3429 0.3676
vn -0.3350 -0.8684 0.3656
vn 0.3100 -0.3154 0.8969
vn 0.8639 -0.3392 0.3722
vn 0.3319 -0.8676 0.3703
vn -0.8644 -0.3427 -0.3680
vn -0.3349 -0.8684 -0.3656
vn 0.6222 -0.6501 -0.4362
vn -0.3102 -0.3155 -0.8968
vn 0.2819 -0.2856 -0.9160
vn -0.2955 0.2827 -0.9126
vn 0.8671 0.3248 0.3778
vn -0.0054 0.1360 -0.9907
vn 0.9010 0.3061 -0.3074
vn -0.9017 0.0752 -0.4257
vn -0.2794 0.2824 0.9177
vn -0.6233 0.6549 0.4273
vn 0.0118 0.1295 0.9915
vn -0.9283 0.3713 -0.0198
vn -0.1100 0.2493 -0.9622
vn 0.2504 0.0673 0.9658
vn 0.0628 0.1974 -0.9783
vn -0.0324 0.1775 0.9836
vn 0.1386 0.4343 -0.8901
vn 0.0259 0.5953 0.8031
vn 0.9303 0.3669 -0.0009
vn 0.3490 0.5618 -0.7500
vn -0.1853 0.6198 0.7626
vn -0.1896 0.6373 -0.7469
vn 0.1088 0.2163 0.9702
vn 0.3233 0.6474 0.6902
vn -0.4223 0.7736 0.4725
vn -0.1645 0.6973 0.6976
vn -0.5285 0.8397 -0.1246
vn 0.1466 0.8645 0.4809
vn -0.0024 0.8024 0.5968
vn 0.1486 0.9856 -0.0809
vn -0.3006 0.9104 -0.2842
vn 0.2460 0.9380 0.2442
vn -0.4153 0.7501 -0.5147
vn 0.0242 0.7866 -0.6170
vn 0.0723 0.9224 -0.3793
vn 0.0165 0.6137 -0.7894
vn -0.1836 0.9717 0.1487
vn -0.1249 0.9466 0.2971
vn 0.7598 0.5791 -0.2957
vn 0.0671 0.9306 -0.3598
vn -0.2957 0.9509 -0.0915
vn -0.3655 0.9293 -0.0521
vn -0.1292 0.9680 0.2153
vn 0.2399 0.9668 -0.0883
vn 0.1080 0.9929 -0.0504
vn 0.1520 0.9734 0.1716
vn -0.4475 0.5821 0.6789
vn -0.0034 0.9978 -0.0665
vn 0.0811 0.9248 -0.3717
vn -0.4786 0.8172 -0.3211
vn 0.1446 0.7069 -0.6924
vn -0.1415 0.6400 -0.7552
vn 0.2024 0.8066 0.5554
vn 0.2059 0.6097 0.7655
vn -0.2589 0.9437 0.2061
vn 0.0514 0.8617 0.5048
vn -0.1974 0.9766 0.0851
vn -0.3233 0.8838 -0.3383
vn -0.0056 0.9900 -0.1411
vn -0.0932 0.9874 -0.1280
vn 0.1235 0.9917 0.0347
vn -0.1514 0.9855 -0.0771
vn -0.1158 0.9902 -0.0778
vn -0.2540 0.9403 0.2265
vn 0.3262 0.9429 -0.0668
vn 0.1267 0.9538 -0.2723
vn -0.0069 0.9717 -0.2362
vn -0.4247 0.8328 -0.3551
vn 0.3296 0.8611 0.3871
vn -0.3338 0.9410 -0.0551
vn -0.0811 0.9844 0.1559
vn 0.0185 0.9886 0.1492
vn -0.1224 0.9781 -0.1680
vn 0.0210 0.9342 -0.3561
vn 0.5697 0.7794 -0.2608
vn -0.1765 0.9354 -0.3065
vn -0.2777 0.9548 0.1061
vn 0.1534 0.8910 -0.4272
vn 0.4860 0.8412 -0.2369
vn 0.3891 0.9212 0.0017
vn -0.0067 0.9997 -0.0226
vn -0.2130 0.9755 -0.0547
vn 0.1766 0.9616 -0.2099
vn 0.0518 0.9975 -0.0472
vn -0.0612 0.9965 0.0566
vn 0.0948 0.9851 0.1438
vn 0.1482 0.9770 -0.1530
vn 0.0411 0.9543 -0.2960
vn 0.1446 0.8782 -0.4558
vn 0.2908 0.9333 -0.2104
s 1
usemtl Liquid_Domain_Material
f 3//3 1//1 2//2
f 3//3 6//6 1//1
f 1//1 6//6 4//4
f 4//4 6//6 5//5
f 7//7 3//3 2//2
f 9//9 3//3 8//8
f 6//6 3//3 9//9
f 9//9 5//5 6//6
f 8//8 3//3 7//7
f 8//8 7//7 10//10
f 9//9 8//8 10//10
f 11//11 9//9 10//10
f 10//10 7//7 12//12
f 13//13 4//4 5//5
f 10//10 12//12 14//14
f 10//10 14//14 11//11
f 15//15 9//9 11//11
f 2//2 16//16 7//7
f 7//7 16//16 12//12
f 1//1 17//17 18//18
f 2//2 1//1 18//18
f 4//4 19//19 1//1
f 2//2 20//20 16//16
f 22//22 4//4 13//13
f 11//11 23//23 21//21
f 28//28 15//15 11//11
f 5//5 9//9 27//27
f 4//4 22//22 24//24
f 11//11 14//14 23//23
f 4//4 24//24 19//19
f 23//23 14//14 25//25
f 1//1 26//26 17//17
f 13//13 5//5 27//27
f 27//27 9//9 15//15
f 21//21 23//23 30//30
f 11//11 21//21 28//28
f 1//1 19//19 26//26
f 19//19 31//31 26//26
f 19//19 32//32 31//31
f 29//29 32//32 19//19
f 19//19 24//24 29//29
f 32//32 29//29 36//36
f 2//2 18//18 20//20
f 25//25 42//42 23//23
f 42//42 30//30 23//23
f 25//25 14//14 44//44
f 25//25 44//44 43//43
f 24//24 33//33 29//29
f 24//24 22//22 34//34
f 29//29 33//33 35//35
f 29//29 37//37 36//36
f 37//37 29//29 35//35
f 20//20 41//41 16//16
f 30//30 42//42 58//58
f 14//14 12//12 59//59
f 14//14 59//59 44//44
f 62//62 22//22 13//13
f 45//45 46//46 35//35
f 46//46 37//37 35//35
f 82//82 39//39 38//38
f 47//47 38//38 40//40
f 38//38 39//39 51//51
f 51//51 40//40 38//38
f 48//48 54//54 52//52
f 50//50 55//55 53//53
f 56//56 54//54 48//48
f 49//49 56//56 48//48
f 54//54 56//56 57//57
f 42//42 57//57 56//56
f 41//41 12//12 16//16
f 43//43 44//44 74//74
f 25//25 43//43 57//57
f 42//42 25//25 57//57
f 28//28 21//21 60//60
f 61//61 31//31 32//32
f 33//33 24//24 34//34
f 22//22 62//62 34//34
f 35//35 33//33 45//45
f 34//34 45//45 33//33
f 34//34 63//63 45//45
f 77//77 61//61 36//36
f 61//61 32//32 36//36
f 36//36 37//37 64//64
f 63//63 65//65 79//79
f 64//64 77//77 36//36
f 82//82 38//38 91//91
f 82//82 66//66 39//39
f 83//83 91//91 38//38
f 81//81 50//50 98//98
f 38//38 47//47 83//83
f 96//96 49//49 48//48
f 49//49 96//96 84//84
f 68//68 49//49 84//84
f 53//53 86//86 98//98
f 50//50 53//53 98//98
f 67//67 51//51 39//39
f 48//48 52//52 67//67
f 68//68 86//86 53//53
f 52//52 69//69 67//67
f 70//70 49//49 68//68
f 68//68 53//53 71//71
f 69//69 52//52 54//54
f 56//56 49//49 70//70
f 72//72 53//53 55//55
f 47//47 40//40 73//73
f 72//72 71//71 53//53
f 51//51 73//73 40//40
f 43//43 69//69 54//54
f 54//54 57//57 43//43
f 42//42 56//56 70//70
f 71//71 42//42 70//70
f 58//58 42//42 71//71
f 43//43 74//74 69//69
f 75//75 59//59 73//73
f 30//30 58//58 76//76
f 75//75 44//44 59//59
f 74//74 44//44 75//75
f 30//30 76//76 21//21
f 31//31 61//61 26//26
f 63//63 79//79 45//45
f 63//63 78//78 65//65
f 46//46 45//45 79//79
f 37//37 46//46 64//64
f 65//65 78//78 93//93
f 64//64 46//46 80//80
f 80//80 46//46 79//79
f 79//79 65//65 93//93
f 98//98 95//95 81//81
f 50//50 81//81 85//85
f 97//97 96//96 48//48
f 39//39 66//66 67//67
f 97//97 48//48 67//67
f 84//84 86//86 68//68
f 83//83 47//47 87//87
f 68//68 71//71 70//70
f 50//50 85//85 55//55
f 51//51 67//67 69//69
f 69//69 74//74 51//51
f 47//47 73//73 87//87
f 74//74 75//75 51//51
f 51//51 75//75 73//73
f 71//71 76//76 58//58
f 76//76 71//71 72//72
f 59//59 41//41 87//87
f 59//59 87//87 73//73
f 41//41 59//59 12//12
f 21//21 76//76 60//60
f 17//17 26//26 18//18
f 26//26 89//89 18//18
f 63//63 34//34 62//62
f 62//62 78//78 63//63
f 62//62 88//88 78//78
f 62//62 13//13 88//88
f 77//77 94//94 61//61
f 18//18 91//91 90//90
f 89//89 91//91 18//18
f 88//88 93//93 78//78
f 13//13 27//27 88//88
f 94//94 26//26 61//61
f 64//64 92//92 77//77
f 92//92 94//94 77//77
f 80//80 92//92 64//64
f 26//26 94//94 89//89
f 93//93 80//80 79//79
f 18//18 90//90 20//20
f 95//95 80//80 93//93
f 82//82 91//91 89//89
f 92//92 96//96 94//94
f 93//93 81//81 95//95
f 66//66 82//82 89//89
f 96//96 97//97 94//94
f 95//95 98//98 80//80
f 97//97 89//89 94//94
f 80//80 98//98 92//92
f 85//85 81//81 93//93
f 88//88 85//85 93//93
f 97//97 66//66 89//89
f 84//84 96//96 92//92
f 83//83 90//90 91//91
f 86//86 84//84 92//92
f 98//98 86//86 92//92
f 97//97 67//67 66//66
f 88//88 28//28 85//85
f 27//27 15//15 28//28
f 88//88 27//27 28//28
f 20//20 90//90 41//41
f 90//90 83//83 87//87
f 87//87 41//41 90//90
f 85//85 72//72 55//55
f 85//85 60//60 72//72
f 28//28 60//60 85//85
f 60//60 76//76 72//72
