# Blender 4.1.1
# www.blender.org
mtllib aa0779.mtl
o Liquid_Domain
v -8.134167 -8.755833 6.217273
v -8.487272 -8.755834 5.864167
v -8.134167 -9.108939 5.864167
v 8.134167 -8.755833 6.217273
v 8.487272 -8.755833 5.864167
v 8.134167 -9.108939 5.864167
v 8.134167 -9.108939 -5.864167
v 8.487272 -8.755833 -5.864167
v -8.134167 -9.108939 -5.864167
v -8.487272 -8.755834 -5.864167
v -8.134167 -8.755833 -6.217273
v 8.134167 -8.755833 -6.217273
v 8.487240 6.754171 5.863620
v -8.487272 6.755834 -5.864167
v -8.124045 6.767680 -6.225648
v -8.487272 6.755834 5.864167
v -8.134167 6.755833 6.217273
v -3.712712 6.749572 6.214572
v 2.546131 3.575882 6.216207
v 2.850449 4.948525 6.120175
v 3.622615 6.060018 6.156070
v 4.803838 6.719864 6.179841
v 1.562486 5.560269 6.163043
v 8.131995 6.741013 6.214358
v -0.053463 4.930748 -6.216047
v -0.018825 6.599029 6.140559
v 2.603137 5.943095 5.813424
v 8.127167 6.775317 -6.221261
v 2.061919 5.974201 5.804783
v 1.948963 6.010043 2.556612
v 0.443969 6.022177 2.081167
v 1.055626 5.757701 1.593050
v 1.527611 5.950578 1.497559
v 0.979481 6.123172 0.541613
v -0.053214 6.731228 -6.168859
v 0.947559 6.686539 5.890824
v 1.991080 6.125892 3.248779
v 2.464471 6.115246 2.998008
v 1.125523 5.940052 2.290481
v -0.176237 6.733391 1.480588
v 0.485533 6.162338 0.541099
v 3.693220 6.940907 5.825642
v 2.553470 6.734199 4.680733
v 2.275903 6.796004 4.131423
v 1.128168 6.786035 3.527180
v 3.011662 6.809072 3.342564
v -0.164236 6.740210 3.338298
v -0.939603 6.813051 2.537293
v 2.811089 6.818227 2.156266
v 2.184016 6.831602 0.768896
v 8.487272 6.755833 -5.864167
v 0.607075 6.829187 -1.394409
v 0.968526 6.852967 -1.536271
v 1.649797 7.039912 -1.207613
v -0.394043 6.424038 -2.748535
v 0.739508 6.559999 -2.543416
v 0.368592 6.504730 -3.019920
v -0.127462 6.934880 -3.867895
v -8.134167 7.108939 5.864166
v -3.540216 7.101593 5.862123
v -0.390211 7.001287 5.815593
v 4.687522 7.046689 5.868577
v 8.129507 7.106858 5.861861
v -1.398998 7.032931 3.671131
v 1.363101 7.059833 4.546463
v -5.896178 7.107183 2.379000
v -0.587825 7.049006 4.287765
v 3.517803 7.090488 4.046050
v -3.304395 7.046722 2.964502
v 5.124902 7.038195 3.278993
v 8.133126 7.107040 2.141884
v 3.572936 7.045686 2.219342
v -1.469674 7.068027 1.718592
v 4.266221 6.999875 2.036969
v 2.920984 7.061944 0.910383
v 3.802408 7.032823 0.545941
v -4.839217 7.109505 -0.857612
v -0.354833 6.971246 0.297864
v -2.147289 7.044218 0.899781
v -0.390533 7.077270 -0.733947
v -1.363585 7.027667 -1.364291
v 2.386590 7.043485 -0.575110
v 8.134167 7.108939 -5.864166
v -3.577000 7.051319 -2.489870
v 5.840185 7.107232 -2.764405
v -1.138219 6.881879 -2.130492
v 3.424620 7.045450 -2.858853
v 2.159519 7.065125 -3.029316
v -1.386750 6.885807 -3.202131
v -8.134168 7.108939 -5.864166
v -3.499025 7.109549 -5.864824
v -1.746213 7.018503 -3.662238
v 1.528357 7.039172 -3.636166
v -0.157188 7.084503 -4.734023
v 0.089973 7.063351 -5.862972
vn -0.3102 -0.3160 0.8966
vn -0.8644 -0.3430 0.3677
vn -0.3350 -0.8684 0.3657
vn 0.3102 -0.3159 0.8967
vn 0.8644 -0.3430 0.3677
vn 0.3350 -0.8684 0.3657
vn 0.3350 -0.8684 -0.3657
vn 0.8644 -0.3430 -0.3677
vn -0.3350 -0.8684 -0.3657
vn -0.8644 -0.3430 -0.3677
vn -0.3102 -0.3161 -0.8966
vn 0.3102 -0.3161 -0.8966
vn 0.8602 0.3470 0.3737
vn -0.8655 0.3417 -0.3663
vn -0.3083 0.3249 -0.8941
vn -0.8644 0.3430 0.3677
vn -0.3097 0.3163 0.8967
vn 0.0094 0.3559 0.9345
vn 0.0032 0.0162 0.9999
vn -0.0926 0.1439 0.9852
vn -0.1936 0.1989 0.9607
vn -0.0540 0.3520 0.9344
vn 0.1138 0.2032 0.9725
vn 0.3015 0.3100 0.9017
vn 0.0002 0.0110 -0.9999
vn 0.0789 0.3683 0.9263
vn -0.1750 0.5344 0.8269
vn 0.3080 0.3287 -0.8928
vn 0.1994 0.6389 0.7430
vn -0.1360 0.9880 -0.0728
vn 0.4122 0.9059 -0.0974
vn 0.0954 0.9863 0.1342
vn -0.4600 0.8427 0.2798
vn -0.1842 0.9391 0.2902
vn 0.0010 0.3504 -0.9366
vn 0.2636 0.6569 0.7064
vn 0.0741 0.8693 -0.4888
vn -0.4943 0.8595 -0.1300
vn 0.1284 0.9299 -0.3446
vn 0.5137 0.8432 0.1583
vn 0.3866 0.9022 0.1914
vn -0.2931 0.7529 0.5892
vn -0.0663 0.9567 0.2836
vn -0.0169 0.9743 -0.2245
vn 0.1688 0.8695 -0.4643
vn -0.5086 0.8459 -0.1604
vn 0.1552 0.9363 -0.3150
vn 0.3912 0.9200 -0.0224
vn -0.5018 0.8425 0.1960
vn -0.4432 0.8665 0.2297
vn 0.8661 0.3409 -0.3655
vn 0.1021 0.9948 -0.0008
vn -0.2138 0.9769 0.0041
vn -0.2179 0.9695 0.1126
vn 0.1715 0.9851 0.0146
vn -0.2383 0.9677 -0.0817
vn -0.1343 0.9549 0.2648
vn 0.0035 0.9568 0.2908
vn -0.3343 0.8685 0.3659
vn 0.0201 0.9133 0.4068
vn 0.0672 0.8862 0.4583
vn -0.0697 0.9031 0.4238
vn 0.3227 0.8692 0.3746
vn 0.0891 0.9943 -0.0593
vn 0.1402 0.9901 0.0097
vn 0.0108 0.9999 0.0011
vn 0.0124 0.9961 -0.0875
vn -0.1213 0.9925 0.0163
vn 0.0146 0.9999 -0.0027
vn -0.0105 0.9999 -0.0038
vn 0.3682 0.9297 0.0021
vn -0.1082 0.9936 0.0317
vn 0.1235 0.9912 0.0473
vn -0.0351 0.9991 0.0222
vn -0.1510 0.9863 0.0663
vn 0.0018 1.0000 0.0031
vn 0.0158 0.9999 -0.0010
vn 0.4152 0.8985 0.1423
vn -0.0036 1.0000 -0.0043
vn 0.1338 0.9908 -0.0204
vn 0.0345 0.9952 -0.0913
vn -0.0673 0.9960 0.0587
vn 0.3361 0.8738 -0.3515
vn 0.0577 0.9983 0.0071
vn -0.0100 0.9999 0.0037
vn 0.1690 0.9673 -0.1890
vn -0.0145 0.9998 0.0105
vn -0.0959 0.9954 0.0072
vn 0.1725 0.9718 0.1608
vn -0.3382 0.8719 -0.3540
vn 0.0100 0.9049 -0.4254
vn 0.0841 0.9878 0.1308
vn -0.0982 0.9847 0.1437
vn -0.0155 0.9994 0.0309
vn -0.0001 0.9054 -0.4245
s 1
usemtl Liquid_Domain_Material
f 3//3 1//1 2//2
f 3//3 6//6 1//1
f 1//1 6//6 4//4
f 4//4 6//6 5//5
f 9//9 3//3 2//2
f 6//6 3//3 7//7
f 8//8 5//5 6//6
f 3//3 9//9 7//7
f 7//7 8//8 6//6
f 10//10 9//9 2//2
f 9//9 10//10 11//11
f 7//7 9//9 11//11
f 12//12 7//7 11//11
f 8//8 7//7 12//12
f 13//13 4//4 5//5
f 11//11 10//10 15//15
f 2//2 14//14 10//10
f 2//2 1//1 16//16
f 13//13 5//5 8//8
f 10//10 14//14 15//15
f 1//1 17//17 16//16
f 51//51 8//8 12//12
f 28//28 51//51 12//12
f 1//1 18//18 17//17
f 1//1 4//4 18//18
f 13//13 8//8 51//51
f 4//4 19//19 18//18
f 2//2 16//16 14//14
f 19//19 20//20 23//23
f 19//19 21//21 20//20
f 4//4 22//22 19//19
f 12//12 11//11 25//25
f 19//19 22//22 21//21
f 4//4 24//24 22//22
f 19//19 26//26 18//18
f 20//20 27//27 23//23
f 12//12 25//25 28//28
f 19//19 23//23 26//26
f 23//23 27//27 29//29
f 20//20 21//21 27//27
f 39//39 32//32 31//31
f 33//33 32//32 30//30
f 32//32 39//39 30//30
f 34//34 31//31 32//32
f 34//34 32//32 33//33
f 25//25 11//11 15//15
f 25//25 15//15 35//35
f 25//25 35//35 28//28
f 23//23 36//36 26//26
f 29//29 36//36 23//23
f 24//24 4//4 13//13
f 45//45 37//37 39//39
f 38//38 30//30 37//37
f 47//47 39//39 31//31
f 30//30 39//39 37//37
f 33//33 30//30 38//38
f 41//41 40//40 31//31
f 31//31 34//34 41//41
f 42//42 27//27 21//21
f 21//21 22//22 42//42
f 29//29 43//43 36//36
f 43//43 29//29 27//27
f 27//27 42//42 43//43
f 44//44 37//37 45//45
f 38//38 37//37 44//44
f 44//44 46//46 38//38
f 47//47 45//45 39//39
f 46//46 49//49 38//38
f 47//47 31//31 48//48
f 48//48 31//31 40//40
f 38//38 50//50 33//33
f 50//50 38//38 49//49
f 78//78 40//40 41//41
f 33//33 50//50 34//34
f 52//52 78//78 41//41
f 54//54 34//34 50//50
f 34//34 53//53 41//41
f 53//53 52//52 41//41
f 54//54 53//53 34//34
f 55//55 86//86 52//52
f 56//56 55//55 52//52
f 53//53 56//56 52//52
f 89//89 86//86 55//55
f 56//56 57//57 55//55
f 58//58 89//89 55//55
f 57//57 58//58 55//55
f 17//17 59//59 16//16
f 17//17 18//18 60//60
f 59//59 17//17 60//60
f 18//18 26//26 61//61
f 60//60 18//18 61//61
f 26//26 36//36 61//61
f 42//42 22//22 62//62
f 62//62 22//22 63//63
f 22//22 24//24 63//63
f 24//24 13//13 63//63
f 61//61 64//64 60//60
f 36//36 65//65 61//61
f 36//36 43//43 65//65
f 60//60 66//66 59//59
f 67//67 64//64 61//61
f 65//65 67//67 61//61
f 42//42 68//68 43//43
f 43//43 44//44 65//65
f 68//68 44//44 43//43
f 62//62 70//70 42//42
f 70//70 68//68 42//42
f 69//69 66//66 60//60
f 64//64 69//69 60//60
f 63//63 71//71 62//62
f 63//63 13//13 71//71
f 45//45 47//47 67//67
f 65//65 45//45 67//67
f 44//44 45//45 65//65
f 68//68 46//46 44//44
f 71//71 70//70 62//62
f 47//47 64//64 67//67
f 72//72 46//46 68//68
f 16//16 59//59 14//14
f 48//48 73//73 64//64
f 47//47 48//48 64//64
f 72//72 49//49 46//46
f 70//70 74//74 68//68
f 64//64 73//73 69//69
f 74//74 72//72 68//68
f 73//73 79//79 69//69
f 48//48 40//40 73//73
f 72//72 75//75 49//49
f 13//13 51//51 83//83
f 71//71 13//13 83//83
f 79//79 66//66 69//69
f 50//50 49//49 75//75
f 72//72 76//76 75//75
f 74//74 76//76 72//72
f 70//70 76//76 74//74
f 66//66 77//77 59//59
f 40//40 78//78 73//73
f 80//80 79//79 73//73
f 78//78 80//80 73//73
f 70//70 71//71 76//76
f 79//79 77//77 66//66
f 80//80 81//81 79//79
f 75//75 82//82 50//50
f 76//76 82//82 75//75
f 78//78 52//52 80//80
f 50//50 82//82 54//54
f 71//71 85//85 76//76
f 79//79 84//84 77//77
f 81//81 84//84 79//79
f 85//85 82//82 76//76
f 80//80 86//86 81//81
f 85//85 87//87 82//82
f 83//83 85//85 71//71
f 86//86 84//84 81//81
f 52//52 86//86 80//80
f 87//87 54//54 82//82
f 84//84 91//91 77//77
f 54//54 88//88 53//53
f 88//88 56//56 53//53
f 86//86 89//89 84//84
f 87//87 88//88 54//54
f 59//59 90//90 14//14
f 77//77 91//91 59//59
f 91//91 90//90 59//59
f 89//89 92//92 84//84
f 57//57 56//56 93//93
f 88//88 93//93 56//56
f 58//58 94//94 89//89
f 94//94 92//92 89//89
f 93//93 58//58 57//57
f 95//95 91//91 84//84
f 93//93 94//94 58//58
f 87//87 93//93 88//88
f 92//92 95//95 84//84
f 94//94 95//95 92//92
f 93//93 95//95 94//94
f 95//95 93//93 87//87
f 85//85 95//95 87//87
f 83//83 95//95 85//85
f 14//14 90//90 15//15
f 91//91 15//15 90//90
f 35//35 15//15 91//91
f 95//95 35//35 91//91
f 28//28 35//35 95//95
f 83//83 28//28 95//95
f 51//51 28//28 83//83
