# Blender 4.1.1
# www.blender.org
mtllib aa0727.mtl
o Liquid_Domain
v -8.134167 -8.755833 6.217273
v -8.487272 -8.755834 5.864167
v -8.134167 -9.108939 5.864167
v 8.487272 -8.755833 5.864167
v -8.134167 -9.108939 -5.864167
v 8.134167 -9.108939 5.864167
v 8.487272 -8.755833 -5.864167
v 8.134167 -9.108939 -5.864167
v -8.134167 -8.755833 -6.217273
v 8.134167 -8.755833 -6.217273
v -8.487272 -8.755834 -5.864167
v 8.476402 6.585777 5.853354
v -8.138884 4.956133 -6.204726
v -8.127161 6.774212 6.221568
v 8.134167 -8.755833 6.217273
v -8.426937 5.797033 -5.903557
v 5.169807 3.834025 6.217165
v -8.466033 7.104487 5.886305
v 3.602164 4.810164 -6.186943
v 2.626580 4.143474 6.146701
v -1.774024 5.042514 -6.180742
v -5.552181 5.978408 -6.101673
v -8.462573 6.704696 -1.125862
v 8.461691 6.711658 -5.882903
v 0.870170 4.949544 -6.160137
v 8.169743 6.961542 -6.187893
v -0.436340 3.907322 6.217872
v 2.610378 4.732712 5.794460
v 5.881383 5.370979 6.150070
v -8.306760 6.972400 -5.257414
v -3.280556 6.056064 -6.144537
v 2.214520 5.500050 -5.601237
v -0.333362 5.386805 6.151889
v 0.899612 5.432174 4.192804
v 2.608446 5.205522 4.657042
v 8.468942 6.709767 -1.058940
v -2.107359 6.980105 6.090529
v 3.737266 6.413269 5.901030
v 4.182765 5.788712 6.143549
v 3.700862 5.574417 4.258743
v 0.019737 6.064013 -5.810567
v 5.393856 6.212118 5.721133
v 7.117071 6.936200 5.776856
v 8.148031 6.953517 6.190496
v 4.471928 6.116481 5.190816
v 1.921149 6.843673 3.286372
v -4.859967 5.841997 -1.354030
v 0.791759 5.998897 -1.511037
v 1.836309 5.934343 -1.849886
v -1.271323 5.886497 -2.412424
v 0.603730 5.682657 -3.083871
v 0.525112 6.090960 -4.323940
v 3.011601 6.030474 -4.675024
v 4.665404 6.615051 -5.304650
v 5.971621 6.995639 -6.124343
v 0.227262 5.719640 5.801609
v 6.068014 6.657777 5.104241
v 0.640611 5.873857 3.441683
v -5.797228 5.904741 -0.898935
v -3.501869 6.508482 -2.201807
v -7.076269 5.915679 -1.983401
v 3.441200 6.397293 -2.458725
v 5.856252 6.005027 -2.306901
v -6.856584 6.619187 -3.671357
v 2.057962 6.604367 -3.715516
v 7.016477 7.032533 -3.708713
v 4.185203 6.224786 -3.296262
v 5.143254 6.723944 3.847848
v 6.410078 6.486437 3.808609
v 3.969234 7.012835 1.986531
v -6.348448 7.002046 1.196614
v -2.870259 6.609279 -2.437016
v -5.297434 6.948530 -3.632286
v -1.400759 6.244210 -4.787679
v 4.789808 6.987823 -4.124517
v -7.092271 6.430399 -5.370607
v -1.375449 6.991477 4.725389
v -5.513741 7.059231 2.474308
v -1.784475 7.027462 3.477180
v -8.101351 7.068107 2.046964
v 7.958170 7.054689 3.265892
v 1.151922 7.089302 1.873023
v 6.246096 7.062262 2.639845
v -0.701443 7.083579 1.905383
v -5.314151 6.659454 1.059842
v -4.176048 7.064520 -0.367916
v -0.419883 7.028358 -1.049432
v 5.838675 7.074048 -0.167724
v -7.997268 7.078573 -1.548814
v 8.088590 7.080717 -1.224645
v 2.105461 6.983191 -0.250993
v 4.645154 6.991405 -1.763278
v -6.802840 6.901928 -0.760821
v 6.635532 6.594829 -1.620747
v -7.957708 7.065883 -3.510743
v -2.989916 7.004945 -4.295722
v -4.293832 6.996946 -6.016271
vn -0.3103 -0.3161 0.8965
vn -0.8646 -0.3427 0.3675
vn -0.3350 -0.8684 0.3657
vn 0.8645 -0.3426 0.3678
vn -0.3350 -0.8684 -0.3657
vn 0.3350 -0.8684 0.3657
vn 0.8645 -0.3428 -0.3675
vn 0.3350 -0.8684 -0.3657
vn -0.3098 -0.3153 -0.8970
vn 0.3097 -0.3154 -0.8970
vn -0.8647 -0.3424 -0.3676
vn 0.9088 0.2901 0.3000
vn -0.3280 0.0941 -0.9400
vn -0.2791 0.2837 0.9174
vn 0.3104 -0.3158 0.8966
vn -0.6072 0.3477 -0.7144
vn -0.0041 0.0187 0.9998
vn -0.6206 0.6548 0.4313
vn -0.0671 0.2200 -0.9732
vn -0.0260 0.2798 0.9597
vn 0.0403 0.2699 -0.9621
vn -0.1000 0.2645 -0.9592
vn -0.9021 0.4315 -0.0061
vn 0.8918 0.3399 -0.2986
vn 0.0740 0.5966 -0.7992
vn 0.3513 0.5490 -0.7584
vn 0.0076 0.0236 0.9997
vn -0.2228 0.6693 0.7089
vn -0.0622 0.2007 0.9777
vn -0.4076 0.7744 -0.4838
vn 0.3097 0.4726 0.8251
vn -0.0081 0.7635 -0.6458
vn 0.1283 0.2167 0.9678
vn 0.2644 0.9196 0.2905
vn -0.2284 0.9244 0.3055
vn 0.9184 0.3957 0.0034
vn 0.1462 0.6388 0.7554
vn -0.3105 0.8151 0.4890
vn -0.0507 0.2479 0.9675
vn -0.3208 0.8966 0.3054
vn 0.0421 0.7522 -0.6576
vn -0.1167 0.7588 0.6408
vn -0.2653 0.8455 0.4634
vn 0.2961 0.5724 0.7646
vn -0.2630 0.9536 -0.1465
vn -0.1340 0.7752 0.6174
vn -0.3110 0.9498 -0.0334
vn 0.1009 0.8459 -0.5237
vn -0.2333 0.9475 -0.2186
vn 0.2789 0.9006 -0.3333
vn -0.1373 0.9835 0.1179
vn -0.0401 0.9991 0.0117
vn -0.1758 0.9494 -0.2601
vn -0.4271 0.7980 -0.4252
vn -0.1539 0.6392 -0.7535
vn 0.4010 0.7288 0.5550
vn -0.2372 0.9677 0.0854
vn 0.0670 0.8310 0.5522
vn 0.2231 0.9207 -0.3203
vn -0.2288 0.9735 -0.0059
vn 0.3810 0.9245 -0.0094
vn -0.0505 0.9716 -0.2313
vn -0.1569 0.9603 -0.2305
vn 0.0819 0.9872 0.1371
vn -0.0734 0.9938 -0.0832
vn -0.1074 0.9868 0.1214
vn -0.0999 0.9806 0.1688
vn -0.2050 0.9452 0.2542
vn -0.0646 0.9870 0.1470
vn -0.0135 0.9834 0.1810
vn 0.1797 0.9718 -0.1529
vn 0.0959 0.9900 -0.1034
vn -0.1152 0.9768 0.1804
vn 0.1792 0.9572 -0.2271
vn -0.2794 0.9348 0.2191
vn 0.0013 0.8519 -0.5236
vn 0.3356 0.9411 0.0414
vn 0.0015 0.9992 -0.0404
vn 0.1945 0.9784 0.0697
vn -0.2226 0.9743 -0.0336
vn 0.2375 0.9680 0.0804
vn -0.0563 0.9770 0.2058
vn -0.0286 0.9844 0.1737
vn 0.0744 0.9835 0.1648
vn -0.2207 0.9092 -0.3532
vn -0.3462 0.9079 -0.2365
vn 0.1430 0.8963 -0.4197
vn 0.0041 0.9970 -0.0769
vn -0.0299 0.9854 -0.1677
vn 0.2932 0.9548 -0.0480
vn -0.0510 0.9685 -0.2439
vn 0.0471 0.8777 -0.4768
vn 0.4612 0.8222 -0.3335
vn -0.1762 0.9532 -0.2459
vn 0.1543 0.9867 0.0503
vn 0.2522 0.9669 -0.0386
vn 0.0706 0.6706 -0.7385
s 1
usemtl Liquid_Domain_Material
f 3//3 1//1 2//2
f 3//3 6//6 15//15
f 1//1 3//3 15//15
f 15//15 6//6 4//4
f 5//5 3//3 2//2
f 7//7 4//4 6//6
f 6//6 3//3 8//8
f 8//8 3//3 5//5
f 8//8 7//7 6//6
f 11//11 5//5 2//2
f 5//5 11//11 9//9
f 8//8 5//5 9//9
f 10//10 8//8 9//9
f 7//7 8//8 10//10
f 4//4 7//7 12//12
f 12//12 15//15 4//4
f 9//9 11//11 13//13
f 26//26 7//7 10//10
f 1//1 14//14 2//2
f 1//1 15//15 14//14
f 24//24 7//7 26//26
f 11//11 16//16 13//13
f 15//15 17//17 27//27
f 9//9 21//21 10//10
f 2//2 14//14 18//18
f 44//44 15//15 12//12
f 2//2 18//18 11//11
f 10//10 21//21 19//19
f 17//17 20//20 27//27
f 15//15 44//44 17//17
f 9//9 13//13 21//21
f 27//27 20//20 33//33
f 20//20 17//17 39//39
f 12//12 7//7 36//36
f 11//11 23//23 16//16
f 19//19 21//21 25//25
f 10//10 19//19 26//26
f 15//15 27//27 14//14
f 20//20 28//28 33//33
f 17//17 29//29 39//39
f 23//23 30//30 16//16
f 13//13 22//22 21//21
f 19//19 25//25 32//32
f 56//56 33//33 28//28
f 20//20 39//39 28//28
f 17//17 44//44 29//29
f 35//35 34//34 28//28
f 11//11 18//18 23//23
f 36//36 7//7 24//24
f 21//21 22//22 97//97
f 19//19 55//55 26//26
f 27//27 37//37 14//14
f 28//28 39//39 38//38
f 28//28 38//38 35//35
f 56//56 28//28 34//34
f 58//58 34//34 35//35
f 40//40 58//58 35//35
f 21//21 97//97 31//31
f 25//25 21//21 41//41
f 41//41 32//32 25//25
f 33//33 37//37 27//27
f 29//29 42//42 39//39
f 29//29 43//43 42//42
f 29//29 44//44 43//43
f 38//38 45//45 35//35
f 45//45 40//40 35//35
f 56//56 34//34 77//77
f 40//40 46//46 58//58
f 47//47 61//61 59//59
f 50//50 48//48 49//49
f 49//49 51//51 50//50
f 50//50 51//51 74//74
f 74//74 51//51 52//52
f 54//54 32//32 53//53
f 31//31 74//74 21//21
f 21//21 74//74 41//41
f 54//54 19//19 32//32
f 13//13 16//16 22//22
f 42//42 38//38 39//39
f 42//42 45//45 38//38
f 43//43 57//57 42//42
f 37//37 56//56 77//77
f 40//40 45//45 68//68
f 59//59 85//85 47//47
f 89//89 93//93 59//59
f 59//59 61//61 89//89
f 61//61 47//47 60//60
f 65//65 51//51 49//49
f 65//65 49//49 62//62
f 94//94 66//66 63//63
f 74//74 72//72 50//50
f 63//63 67//67 62//62
f 66//66 67//67 63//63
f 67//67 53//53 62//62
f 65//65 52//52 51//51
f 62//62 53//53 65//65
f 65//65 32//32 52//52
f 53//53 32//32 65//65
f 52//52 41//41 74//74
f 32//32 41//41 52//52
f 16//16 30//30 76//76
f 16//16 76//76 22//22
f 97//97 96//96 31//31
f 74//74 31//31 96//96
f 19//19 54//54 55//55
f 56//56 37//37 33//33
f 42//42 68//68 45//45
f 57//57 68//68 42//42
f 34//34 79//79 77//77
f 57//57 69//69 68//68
f 34//34 58//58 79//79
f 79//79 58//58 84//84
f 40//40 68//68 70//70
f 68//68 69//69 83//83
f 46//46 40//40 70//70
f 82//82 58//58 46//46
f 82//82 84//84 58//58
f 85//85 59//59 71//71
f 59//59 93//93 71//71
f 85//85 86//86 47//47
f 47//47 86//86 60//60
f 87//87 91//91 48//48
f 91//91 49//49 48//48
f 72//72 87//87 48//48
f 49//49 91//91 62//62
f 92//92 94//94 63//63
f 48//48 50//50 72//72
f 89//89 61//61 95//95
f 63//63 62//62 92//92
f 61//61 60//60 73//73
f 61//61 64//64 95//95
f 73//73 64//64 61//61
f 72//72 96//96 60//60
f 96//96 72//72 74//74
f 67//67 66//66 75//75
f 75//75 53//53 67//67
f 30//30 64//64 76//76
f 53//53 75//75 54//54
f 97//97 22//22 76//76
f 14//14 37//37 18//18
f 37//37 78//78 18//18
f 44//44 81//81 43//43
f 37//37 79//79 78//78
f 77//77 79//79 37//37
f 69//69 57//57 43//43
f 44//44 12//12 81//81
f 78//78 80//80 18//18
f 43//43 81//81 69//69
f 18//18 80//80 23//23
f 68//68 83//83 70//70
f 83//83 69//69 81//81
f 70//70 82//82 46//46
f 81//81 12//12 90//90
f 84//84 78//78 79//79
f 81//81 90//90 83//83
f 78//78 71//71 80//80
f 85//85 71//71 78//78
f 12//12 36//36 90//90
f 83//83 88//88 70//70
f 86//86 85//85 78//78
f 87//87 86//86 78//78
f 84//84 87//87 78//78
f 90//90 88//88 83//83
f 80//80 89//89 23//23
f 71//71 89//89 80//80
f 91//91 84//84 82//82
f 88//88 82//82 70//70
f 71//71 93//93 89//89
f 91//91 87//87 84//84
f 92//92 91//91 82//82
f 88//88 92//92 82//82
f 94//94 92//92 88//88
f 92//92 62//62 91//91
f 60//60 86//86 72//72
f 87//87 72//72 86//86
f 90//90 94//94 88//88
f 90//90 66//66 94//94
f 23//23 89//89 30//30
f 36//36 24//24 90//90
f 89//89 95//95 30//30
f 96//96 73//73 60//60
f 90//90 26//26 66//66
f 90//90 24//24 26//26
f 96//96 97//97 73//73
f 95//95 64//64 30//30
f 64//64 73//73 76//76
f 97//97 76//76 73//73
f 66//66 55//55 75//75
f 55//55 54//54 75//75
f 26//26 55//55 66//66
