# Blender 4.1.1
# www.blender.org
mtllib aa0777.mtl
o Liquid_Domain
v -8.134167 -8.755833 6.217273
v -8.487272 -8.755834 5.864167
v -8.134167 -9.108939 5.864167
v 8.134167 -8.755833 6.217273
v 8.487272 -8.755833 5.864167
v 8.134167 -9.108939 5.864167
v 8.487272 -8.755833 -5.864167
v -8.487272 -8.755834 -5.864167
v -8.134167 -9.108939 -5.864167
v 8.134167 -9.108939 -5.864167
v -8.134167 -8.755833 -6.217273
v 8.134167 -8.755833 -6.217273
v 8.487213 6.753570 5.863656
v -8.487272 6.755834 -5.864167
v -8.134167 6.755833 6.217273
v 8.487272 6.755833 -5.864167
v -8.487272 6.755834 5.864167
v 8.134167 6.755833 -6.217273
v -8.134167 6.755833 -6.217273
v 2.354920 4.447756 6.201088
v 1.242764 5.404245 6.198349
v 5.738280 6.717895 6.187455
v 1.230453 5.722086 -6.209958
v 8.131341 6.739804 6.215350
v 0.486655 6.274684 6.161601
v 3.821939 6.585848 6.152719
v 4.318175 6.748984 -6.213639
v -1.961770 6.747551 6.200283
v 2.026058 5.789380 5.821041
v 2.483282 5.783536 5.836632
v 1.981033 6.008014 3.292234
v 1.411820 5.835732 2.262958
v 0.951404 5.687893 1.601075
v 1.536044 5.879222 1.600453
v 0.438088 6.062993 0.747875
v -2.337651 6.742605 -6.213466
v 1.247522 6.704376 -6.151919
v 0.897749 6.687615 5.894181
v 3.213864 6.697324 5.845364
v 2.176991 6.727596 4.731238
v 2.376702 6.053505 3.036423
v 0.727088 6.728400 3.379906
v 0.117187 6.200208 2.525988
v 1.331329 6.316652 0.546556
v 0.558491 6.717008 -0.801512
v 1.144669 6.723312 -0.823270
v 2.148040 6.747304 4.198400
v 2.937525 6.747870 3.077045
v -0.356241 6.741528 1.356558
v 2.459738 6.825055 1.171115
v -0.107539 7.016470 -0.537963
v 0.659034 6.808576 -1.678213
v 0.657638 6.367381 -2.597626
v 0.300784 6.334669 -2.927062
v 1.887961 6.804336 -3.560230
v -8.134167 7.108939 5.864166
v -3.518789 7.100389 5.861734
v -0.500624 6.971622 5.852699
v 4.006637 7.046137 5.835573
v 8.122394 7.114979 5.846239
v 1.076039 7.081544 4.752537
v 5.114154 7.058124 4.039824
v -2.070048 7.039714 3.855675
v -0.708185 7.060847 4.200090
v 3.266356 7.080602 4.384613
v -4.714715 7.092756 3.120434
v 3.634735 7.058864 3.214547
v -0.329581 6.821066 3.399302
v -1.678888 7.058666 3.141770
v -0.965836 6.773884 2.462639
v -8.134167 7.108939 -5.864166
v -5.207067 7.110003 -0.381313
v -1.712921 7.069184 1.994974
v -2.422699 7.011692 1.956763
v 4.094891 6.952569 2.470561
v 3.285389 7.039630 1.629822
v 3.734339 7.046767 0.186166
v 6.001516 7.096273 0.458199
v -2.045131 7.049218 -0.800217
v -0.947425 7.075957 0.368988
v 2.145911 7.070163 -0.513191
v -1.277707 7.041603 -1.939733
v -2.004966 7.050233 -2.588605
v 3.796367 7.015241 -2.748526
v 6.492670 7.100179 -3.123710
v -3.104279 7.040540 -3.059620
v 2.138607 7.076192 -2.412800
v -0.922721 6.787075 -3.110260
v 3.059155 7.031741 -3.937642
v -1.268139 7.074096 -5.868724
v 0.402813 7.068458 -5.289744
v 0.879391 6.694608 -4.097454
v 1.802078 7.016436 -4.754559
v 8.108673 7.131543 -5.852034
v 1.426793 7.020471 -5.856906
vn -0.3101 -0.3159 0.8967
vn -0.8644 -0.3430 0.3677
vn -0.3350 -0.8684 0.3657
vn 0.3102 -0.3160 0.8966
vn 0.8644 -0.3430 0.3677
vn 0.3350 -0.8684 0.3657
vn 0.8644 -0.3430 -0.3677
vn -0.8644 -0.3430 -0.3677
vn -0.3350 -0.8684 -0.3657
vn 0.3350 -0.8684 -0.3657
vn -0.3102 -0.3160 -0.8966
vn 0.3101 -0.3160 -0.8966
vn 0.8581 0.3493 0.3763
vn -0.8644 0.3430 -0.3677
vn -0.3089 0.3159 0.8971
vn 0.8622 0.3468 -0.3693
vn -0.8644 0.3430 0.3677
vn 0.3118 0.3146 -0.8965
vn -0.3095 0.3164 -0.8967
vn -0.0031 0.0707 0.9975
vn 0.1373 0.1504 0.9790
vn -0.0160 0.3546 0.9349
vn -0.0002 0.0240 -0.9997
vn 0.3024 0.3161 0.8993
vn 0.1266 0.2612 0.9570
vn -0.1580 0.3308 0.9304
vn -0.0078 0.3740 -0.9274
vn 0.0237 0.3865 0.9220
vn 0.2067 0.4794 0.8529
vn -0.2790 0.4308 0.8583
vn 0.0057 0.8852 -0.4652
vn -0.0354 0.9746 -0.2211
vn 0.1039 0.9890 0.1048
vn -0.4342 0.8639 0.2553
vn 0.4010 0.8781 0.2611
vn 0.0041 0.3580 -0.9337
vn -0.0007 0.3706 -0.9288
vn 0.2853 0.6387 0.7146
vn -0.4356 0.6236 0.6492
vn 0.0092 0.9530 0.3028
vn -0.5378 0.8329 -0.1309
vn 0.1840 0.8751 -0.4475
vn 0.3070 0.8848 -0.3506
vn -0.5019 0.7986 0.3322
vn 0.2489 0.9347 0.2537
vn -0.2428 0.9274 0.2845
vn -0.0671 0.9671 -0.2455
vn -0.5587 0.8232 -0.1014
vn 0.4835 0.8585 0.1709
vn -0.4675 0.8475 0.2514
vn 0.3041 0.9448 0.1221
vn -0.0418 0.9905 -0.1313
vn -0.1891 0.9449 -0.2670
vn 0.1066 0.9914 0.0764
vn -0.2347 0.9720 0.0148
vn -0.3339 0.8688 0.3656
vn 0.0145 0.9155 0.4020
vn 0.0766 0.8628 0.4997
vn -0.1532 0.8616 0.4840
vn 0.3206 0.8734 0.3667
vn 0.1662 0.9846 0.0549
vn -0.0114 0.9999 -0.0081
vn 0.0038 1.0000 0.0046
vn 0.0341 0.9971 -0.0680
vn -0.1603 0.9863 0.0383
vn 0.0159 0.9999 -0.0023
vn -0.1310 0.9887 -0.0732
vn 0.1787 0.9342 -0.3087
vn 0.0880 0.9948 -0.0509
vn 0.3833 0.9226 -0.0424
vn -0.3335 0.8689 -0.3658
vn 0.0104 0.9999 -0.0000
vn 0.1037 0.9937 0.0430
vn -0.0165 0.9999 0.0045
vn 0.0339 0.9991 -0.0261
vn -0.1173 0.9907 0.0696
vn -0.0018 0.9999 0.0104
vn -0.0233 0.9997 0.0079
vn 0.0025 1.0000 -0.0060
vn 0.1204 0.9902 0.0709
vn -0.1818 0.9785 0.0976
vn 0.1105 0.9881 -0.1074
vn 0.0613 0.9980 -0.0117
vn -0.0030 1.0000 0.0034
vn -0.0237 0.9997 -0.0002
vn 0.1333 0.9867 0.0934
vn -0.1167 0.9907 -0.0703
vn 0.3211 0.9311 0.1729
vn -0.0602 0.9980 0.0180
vn 0.0135 0.9090 -0.4166
vn 0.0328 0.9974 0.0645
vn -0.0233 0.9674 0.2523
vn -0.0654 0.9906 0.1201
vn 0.3232 0.8739 -0.3630
vn 0.0019 0.9056 -0.4242
s 1
usemtl Liquid_Domain_Material
f 3//3 1//1 2//2
f 3//3 6//6 1//1
f 1//1 6//6 4//4
f 4//4 6//6 5//5
f 10//10 5//5 6//6
f 7//7 5//5 10//10
f 8//8 3//3 2//2
f 9//9 3//3 8//8
f 6//6 3//3 9//9
f 10//10 6//6 9//9
f 9//9 8//8 11//11
f 10//10 9//9 11//11
f 12//12 10//10 11//11
f 7//7 10//10 12//12
f 13//13 4//4 5//5
f 5//5 7//7 16//16
f 2//2 14//14 8//8
f 8//8 14//14 11//11
f 1//1 15//15 2//2
f 2//2 15//15 17//17
f 16//16 7//7 12//12
f 12//12 11//11 36//36
f 11//11 14//14 19//19
f 18//18 16//16 12//12
f 13//13 5//5 16//16
f 1//1 4//4 24//24
f 18//18 12//12 23//23
f 20//20 21//21 1//1
f 1//1 22//22 20//20
f 12//12 36//36 23//23
f 1//1 28//28 15//15
f 21//21 28//28 1//1
f 1//1 24//24 22//22
f 21//21 25//25 28//28
f 20//20 29//29 21//21
f 20//20 22//22 26//26
f 20//20 30//30 29//29
f 20//20 26//26 30//30
f 18//18 23//23 27//27
f 43//43 32//32 33//33
f 34//34 31//31 41//41
f 32//32 31//31 34//34
f 34//34 33//33 32//32
f 23//23 36//36 37//37
f 38//38 25//25 21//21
f 21//21 29//29 38//38
f 39//39 30//30 26//26
f 24//24 4//4 13//13
f 40//40 29//29 30//30
f 41//41 31//31 47//47
f 31//31 32//32 42//42
f 42//42 32//32 43//43
f 33//33 35//35 49//49
f 33//33 34//34 44//44
f 33//33 46//46 35//35
f 46//46 45//45 35//35
f 46//46 33//33 44//44
f 25//25 38//38 28//28
f 40//40 38//38 29//29
f 30//30 39//39 40//40
f 31//31 42//42 47//47
f 41//41 47//47 48//48
f 43//43 70//70 68//68
f 42//42 43//43 68//68
f 43//43 33//33 70//70
f 41//41 48//48 50//50
f 33//33 49//49 70//70
f 41//41 50//50 34//34
f 44//44 34//34 50//50
f 35//35 51//51 49//49
f 17//17 14//14 2//2
f 35//35 45//45 51//51
f 46//46 44//44 50//50
f 52//52 53//53 82//82
f 88//88 82//82 54//54
f 53//53 54//54 82//82
f 52//52 55//55 53//53
f 55//55 54//54 53//53
f 88//88 54//54 92//92
f 55//55 92//92 54//54
f 11//11 19//19 36//36
f 27//27 23//23 37//37
f 15//15 56//56 17//17
f 15//15 28//28 57//57
f 56//56 15//15 57//57
f 57//57 28//28 58//58
f 28//28 38//38 58//58
f 26//26 59//59 39//39
f 26//26 22//22 59//59
f 59//59 22//22 60//60
f 22//22 24//24 60//60
f 24//24 13//13 60//60
f 58//58 63//63 57//57
f 38//38 61//61 58//58
f 60//60 62//62 59//59
f 38//38 40//40 61//61
f 59//59 65//65 39//39
f 62//62 65//65 59//59
f 57//57 66//66 56//56
f 64//64 63//63 58//58
f 61//61 64//64 58//58
f 40//40 47//47 61//61
f 47//47 40//40 65//65
f 39//39 65//65 40//40
f 63//63 66//66 57//57
f 61//61 42//42 64//64
f 47//47 42//42 61//61
f 67//67 47//47 65//65
f 64//64 69//69 63//63
f 42//42 68//68 64//64
f 62//62 67//67 65//65
f 70//70 69//69 64//64
f 68//68 70//70 64//64
f 48//48 47//47 67//67
f 62//62 75//75 67//67
f 56//56 71//71 17//17
f 66//66 72//72 56//56
f 72//72 71//71 56//56
f 69//69 73//73 63//63
f 13//13 16//16 94//94
f 60//60 13//13 94//94
f 63//63 74//74 66//66
f 73//73 74//74 63//63
f 70//70 73//73 69//69
f 67//67 76//76 48//48
f 75//75 76//76 67//67
f 76//76 50//50 48//48
f 78//78 75//75 62//62
f 60//60 78//78 62//62
f 94//94 78//78 60//60
f 75//75 77//77 76//76
f 49//49 73//73 70//70
f 78//78 77//77 75//75
f 66//66 79//79 72//72
f 73//73 79//79 74//74
f 49//49 80//80 73//73
f 74//74 79//79 66//66
f 73//73 80//80 79//79
f 49//49 51//51 80//80
f 76//76 81//81 50//50
f 77//77 81//81 76//76
f 17//17 71//71 14//14
f 46//46 50//50 81//81
f 94//94 85//85 78//78
f 80//80 82//82 79//79
f 51//51 82//82 80//80
f 51//51 45//45 52//52
f 52//52 82//82 51//51
f 45//45 46//46 52//52
f 81//81 52//52 46//46
f 78//78 85//85 77//77
f 79//79 86//86 72//72
f 82//82 83//83 79//79
f 81//81 84//84 87//87
f 77//77 84//84 81//81
f 81//81 87//87 52//52
f 85//85 84//84 77//77
f 83//83 86//86 79//79
f 82//82 88//88 83//83
f 55//55 52//52 87//87
f 84//84 89//89 87//87
f 89//89 55//55 87//87
f 88//88 91//91 83//83
f 85//85 89//89 84//84
f 83//83 90//90 86//86
f 91//91 90//90 83//83
f 86//86 90//90 72//72
f 92//92 91//91 88//88
f 94//94 89//89 85//85
f 93//93 91//91 92//92
f 55//55 93//93 92//92
f 89//89 93//93 55//55
f 89//89 95//95 93//93
f 94//94 95//95 89//89
f 72//72 90//90 71//71
f 95//95 90//90 91//91
f 93//93 95//95 91//91
f 14//14 71//71 19//19
f 36//36 19//19 71//71
f 90//90 36//36 71//71
f 37//37 36//36 90//90
f 95//95 37//37 90//90
f 27//27 37//37 95//95
f 94//94 27//27 95//95
f 18//18 27//27 94//94
f 16//16 18//18 94//94
