# Blender 4.1.1
# www.blender.org
mtllib aa0769.mtl
o Liquid_Domain
v -8.134167 -8.755833 6.217273
v -8.487272 -8.755834 5.864167
v -8.134167 -9.108939 5.864167
v 8.134167 -8.755833 6.217273
v 8.487272 -8.755833 5.864167
v 8.487272 -8.755833 -5.864167
v -8.487272 -8.755834 -5.864167
v 8.134167 -9.108939 5.864167
v -8.134167 -9.108939 -5.864167
v 8.134167 -9.108939 -5.864167
v -8.134167 -8.755833 -6.217273
v 8.134167 -8.755833 -6.217273
v -8.487272 6.755834 5.864167
v -8.487272 6.755834 -5.864167
v -8.129014 6.768241 6.220562
v 8.486753 6.751335 5.863819
v 8.486999 6.751827 -5.863259
v 1.230342 3.599627 6.215758
v 2.304840 5.560968 -6.214779
v -2.259900 6.695271 -6.193439
v 2.475824 5.165971 6.146514
v 8.133595 6.760559 6.217634
v 3.895055 6.718495 6.188255
v 0.943696 6.739930 -6.205670
v 8.125175 6.798865 -6.223132
v 0.903825 4.969364 6.155903
v -0.497068 6.217837 6.158401
v 1.443787 5.369863 5.922489
v -2.749400 6.735306 6.161901
v 2.099122 5.670006 5.885529
v 0.443161 5.580503 1.641264
v 0.748171 5.556591 1.264175
v -8.125611 6.768989 -6.223929
v 1.793471 6.268189 5.264750
v 2.170099 6.009717 3.795445
v 1.572429 5.706781 3.142693
v 1.623250 5.851255 1.553995
v 0.110228 5.978415 0.862954
v 2.693468 6.725890 5.888685
v 0.830112 6.753221 5.208783
v 2.429363 6.574818 5.378010
v 3.025229 6.279733 4.096474
v 2.662941 6.832459 1.601972
v -0.326907 6.047724 2.234968
v -0.604172 6.984874 0.204111
v 1.035056 6.355083 0.254954
v 1.558646 6.334484 -2.465745
v 0.212572 6.473518 -3.238752
v 1.303452 6.366696 -3.895193
v -0.342739 6.844632 5.800739
v 1.132069 6.836075 4.454755
v 1.955145 6.446741 4.507558
v 3.600925 6.742705 4.221373
v -0.168522 6.747883 3.730800
v -0.026516 7.053017 -0.727864
v 1.449468 6.850152 -0.874823
v 2.927919 6.481710 -1.809370
v -1.999813 6.800718 -2.444011
v 1.099774 6.295520 -2.749969
v 3.128164 6.837074 -3.164254
v -1.903884 6.276662 -3.292317
v -0.125282 6.735621 -4.017064
v 2.379089 6.904043 -4.194634
v -2.124296 6.786290 -4.331133
v 1.345996 6.746906 -4.544450
v -8.115232 7.121667 5.885334
v -1.860005 6.967172 5.913918
v 3.135394 7.049786 5.824740
v 8.123518 7.108911 5.844321
v -1.979160 7.049533 3.519418
v 4.469562 7.070580 4.012642
v -0.421421 7.086729 4.612646
v -5.141073 7.087806 2.252842
v -1.030144 6.575248 2.390900
v 3.729851 7.032703 2.808752
v 5.564989 7.057210 2.976427
v -6.682918 7.106963 -2.230803
v -2.623330 6.987132 2.705805
v -1.358024 7.068172 1.075414
v -2.467109 7.059629 0.187623
v 2.955202 7.057624 1.123531
v 2.625846 7.064176 -0.369879
v 8.129740 7.103152 -2.418712
v -3.274055 7.012875 -3.173510
v 4.363008 6.978639 -1.490946
v -2.317050 7.025773 -1.951873
v 0.222908 6.828169 -2.009458
v 4.123006 7.063620 -1.874384
v -5.031759 7.051676 -3.486247
v 3.954192 7.010570 -3.225400
v -8.114483 7.123215 -5.867782
v -3.280400 7.082561 -4.093387
v -1.607644 7.081387 -5.804864
v 1.875465 7.054460 -5.203291
v 8.106403 7.128527 -5.860252
v 2.543911 7.043275 -5.852915
vn -0.3102 -0.3161 0.8966
vn -0.8644 -0.3430 0.3677
vn -0.3350 -0.8684 0.3657
vn 0.3102 -0.3159 0.8967
vn 0.8644 -0.3430 0.3677
vn 0.8644 -0.3430 -0.3677
vn -0.8644 -0.3430 -0.3677
vn 0.3350 -0.8684 0.3657
vn -0.3350 -0.8684 -0.3657
vn 0.3350 -0.8684 -0.3657
vn -0.3102 -0.3160 -0.8966
vn 0.3103 -0.3162 -0.8965
vn -0.8672 0.3415 0.3625
vn -0.8651 0.3440 -0.3651
vn -0.3091 0.3126 0.8982
vn 0.8620 0.3491 0.3677
vn 0.8688 0.3409 -0.3590
vn 0.0026 0.0162 0.9999
vn -0.0026 0.0031 -1.0000
vn 0.0025 0.3508 -0.9364
vn -0.3103 0.3287 0.8920
vn 0.3065 0.3301 0.8928
vn -0.0638 0.3594 0.9310
vn -0.0033 0.3830 -0.9237
vn 0.3122 0.3401 -0.8870
vn 0.0749 0.1557 0.9850
vn 0.1206 0.2584 0.9585
vn 0.0462 0.5015 0.8639
vn 0.0233 0.3683 0.9294
vn -0.3265 0.4284 0.8425
vn 0.3155 0.9489 -0.0046
vn -0.0351 0.9371 0.3472
vn -0.3071 0.3209 -0.8959
vn -0.0646 0.7913 0.6080
vn 0.0267 0.9194 -0.3924
vn -0.0173 0.9634 -0.2675
vn -0.5093 0.8046 0.3055
vn 0.4178 0.8010 0.4287
vn -0.5242 0.5300 0.6666
vn 0.3135 0.8275 0.4657
vn -0.5298 0.8431 0.0925
vn -0.4769 0.8716 -0.1133
vn -0.5077 0.8244 0.2503
vn 0.4994 0.8509 -0.1632
vn 0.5627 0.7409 0.3666
vn -0.1966 0.8642 0.4631
vn -0.0228 0.9936 -0.1109
vn 0.0173 0.9420 0.3351
vn -0.0916 0.9525 0.2904
vn 0.2146 0.7411 0.6362
vn 0.3072 0.9391 -0.1543
vn 0.3746 0.9091 -0.1825
vn -0.4688 0.8761 -0.1129
vn 0.2679 0.8825 -0.3865
vn 0.1399 0.9830 0.1187
vn 0.0158 0.9986 -0.0496
vn -0.2013 0.9741 -0.1032
vn 0.1923 0.8967 -0.3987
vn 0.0465 0.9882 -0.1461
vn -0.2268 0.9597 0.1657
vn 0.2119 0.9772 -0.0104
vn 0.0321 0.9471 0.3193
vn -0.1981 0.9628 0.1839
vn 0.1805 0.9418 0.2835
vn -0.0032 0.8830 0.4693
vn -0.3247 0.8658 0.3806
vn 0.0742 0.8206 0.5666
vn -0.2902 0.8646 0.4101
vn 0.3245 0.8809 0.3445
vn 0.0875 0.9893 -0.1171
vn -0.1326 0.9912 -0.0066
vn 0.1022 0.9944 -0.0286
vn 0.0175 0.9998 0.0003
vn 0.4131 0.9094 -0.0491
vn -0.1871 0.9791 0.0794
vn -0.0131 0.9999 -0.0068
vn 0.0167 0.9998 -0.0050
vn 0.1108 0.9925 -0.0511
vn 0.1783 0.9744 0.1372
vn 0.0050 1.0000 -0.0003
vn -0.2293 0.9710 0.0682
vn -0.1029 0.9913 -0.0823
vn 0.3617 0.9323 0.0004
vn 0.1777 0.9839 -0.0175
vn -0.0893 0.9959 -0.0119
vn 0.0675 0.9889 -0.1326
vn 0.1299 0.9344 -0.3316
vn -0.0026 0.9912 0.1325
vn 0.0166 0.9998 0.0066
vn -0.0862 0.9955 0.0386
vn -0.3252 0.8731 -0.3633
vn 0.1005 0.9933 0.0563
vn 0.0119 0.9437 -0.3305
vn 0.0151 0.9910 0.1330
vn 0.3256 0.8842 -0.3348
vn -0.0037 0.9404 -0.3401
s 1
usemtl Liquid_Domain_Material
f 3//3 1//1 2//2
f 1//1 3//3 4//4
f 3//3 8//8 4//4
f 4//4 8//8 5//5
f 6//6 5//5 8//8
f 10//10 6//6 8//8
f 9//9 3//3 2//2
f 7//7 9//9 2//2
f 8//8 3//3 9//9
f 10//10 8//8 9//9
f 9//9 7//7 11//11
f 10//10 9//9 11//11
f 12//12 10//10 11//11
f 6//6 10//10 12//12
f 12//12 11//11 25//25
f 25//25 6//6 12//12
f 2//2 13//13 7//7
f 7//7 14//14 11//11
f 1//1 15//15 2//2
f 16//16 4//4 5//5
f 5//5 6//6 16//16
f 11//11 14//14 33//33
f 17//17 6//6 25//25
f 2//2 15//15 13//13
f 4//4 18//18 1//1
f 22//22 4//4 16//16
f 13//13 14//14 7//7
f 18//18 21//21 26//26
f 4//4 23//23 18//18
f 22//22 23//23 4//4
f 19//19 11//11 24//24
f 11//11 20//20 24//24
f 18//18 15//15 1//1
f 18//18 23//23 21//21
f 6//6 17//17 16//16
f 11//11 19//19 25//25
f 18//18 26//26 27//27
f 26//26 21//21 28//28
f 20//20 11//11 33//33
f 18//18 27//27 29//29
f 26//26 28//28 27//27
f 30//30 28//28 21//21
f 18//18 29//29 15//15
f 28//28 34//34 40//40
f 30//30 34//34 28//28
f 36//36 35//35 42//42
f 36//36 31//31 44//44
f 37//37 36//36 42//42
f 36//36 32//32 31//31
f 37//37 32//32 36//36
f 44//44 31//31 38//38
f 32//32 38//38 31//31
f 28//28 50//50 27//27
f 39//39 30//30 21//21
f 28//28 40//40 50//50
f 30//30 41//41 34//34
f 30//30 39//39 41//41
f 41//41 35//35 52//52
f 42//42 35//35 41//41
f 35//35 36//36 54//54
f 36//36 44//44 54//54
f 37//37 42//42 43//43
f 38//38 74//74 44//44
f 46//46 37//37 43//43
f 32//32 37//37 46//46
f 46//46 38//38 32//32
f 27//27 67//67 29//29
f 27//27 50//50 67//67
f 21//21 23//23 39//39
f 40//40 34//34 51//51
f 34//34 52//52 51//51
f 41//41 52//52 34//34
f 42//42 41//41 53//53
f 52//52 35//35 51//51
f 35//35 54//54 51//51
f 54//54 44//44 74//74
f 43//43 42//42 53//53
f 74//74 38//38 45//45
f 45//45 38//38 55//55
f 46//46 55//55 38//38
f 56//56 46//46 43//43
f 56//56 55//55 46//46
f 56//56 47//47 87//87
f 57//57 47//47 56//56
f 58//58 87//87 59//59
f 87//87 47//47 59//59
f 60//60 47//47 57//57
f 60//60 57//57 88//88
f 59//59 61//61 58//58
f 61//61 84//84 58//58
f 59//59 48//48 61//61
f 61//61 48//48 62//62
f 59//59 49//49 48//48
f 59//59 47//47 49//49
f 63//63 49//49 47//47
f 63//63 47//47 60//60
f 61//61 64//64 84//84
f 61//61 62//62 64//64
f 49//49 62//62 48//48
f 49//49 65//65 62//62
f 65//65 49//49 63//63
f 19//19 24//24 25//25
f 15//15 66//66 13//13
f 15//15 29//29 66//66
f 66//66 29//29 67//67
f 39//39 23//23 68//68
f 23//23 22//22 68//68
f 68//68 22//22 69//69
f 22//22 16//16 69//69
f 70//70 66//66 67//67
f 68//68 41//41 39//39
f 50//50 72//72 67//67
f 67//67 72//72 70//70
f 40//40 51//51 50//50
f 51//51 72//72 50//50
f 41//41 68//68 53//53
f 71//71 53//53 68//68
f 68//68 69//69 71//71
f 70//70 73//73 66//66
f 51//51 54//54 72//72
f 69//69 76//76 71//71
f 72//72 74//74 70//70
f 54//54 74//74 72//72
f 71//71 75//75 53//53
f 76//76 75//75 71//71
f 73//73 77//77 66//66
f 75//75 43//43 53//53
f 70//70 78//78 73//73
f 74//74 78//78 70//70
f 79//79 78//78 74//74
f 75//75 81//81 43//43
f 69//69 83//83 76//76
f 69//69 16//16 83//83
f 80//80 73//73 78//78
f 79//79 80//80 78//78
f 74//74 45//45 79//79
f 81//81 82//82 43//43
f 82//82 56//56 43//43
f 75//75 82//82 81//81
f 45//45 55//55 79//79
f 75//75 85//85 82//82
f 76//76 83//83 75//75
f 83//83 85//85 75//75
f 16//16 17//17 83//83
f 73//73 80//80 77//77
f 79//79 55//55 80//80
f 55//55 86//86 80//80
f 57//57 56//56 82//82
f 85//85 57//57 82//82
f 80//80 84//84 77//77
f 86//86 84//84 80//80
f 87//87 86//86 55//55
f 56//56 87//87 55//55
f 85//85 88//88 57//57
f 87//87 58//58 86//86
f 90//90 60//60 88//88
f 84//84 89//89 77//77
f 58//58 84//84 86//86
f 85//85 90//90 88//88
f 66//66 91//91 14//14
f 13//13 66//66 14//14
f 77//77 91//91 66//66
f 95//95 85//85 83//83
f 83//83 17//17 95//95
f 84//84 92//92 89//89
f 84//84 64//64 92//92
f 90//90 63//63 60//60
f 64//64 93//93 92//92
f 95//95 90//90 85//85
f 65//65 94//94 62//62
f 65//65 63//63 94//94
f 90//90 96//96 63//63
f 89//89 91//91 77//77
f 62//62 93//93 64//64
f 94//94 93//93 62//62
f 63//63 96//96 94//94
f 95//95 96//96 90//90
f 92//92 93//93 89//89
f 93//93 91//91 89//89
f 96//96 93//93 94//94
f 14//14 91//91 33//33
f 20//20 33//33 91//91
f 93//93 20//20 91//91
f 24//24 20//20 93//93
f 96//96 24//24 93//93
f 25//25 24//24 96//96
f 95//95 25//25 96//96
f 17//17 25//25 95//95
