# Blender 4.1.1
# www.blender.org
mtllib aa0772.mtl
o Liquid_Domain
v -8.134167 -8.755833 6.217273
v -8.487272 -8.755834 5.864167
v -8.134167 -9.108939 5.864167
v 8.134167 -9.108939 5.864167
v 8.134167 -8.755833 6.217273
v 8.487272 -8.755833 5.864167
v -8.487272 -8.755834 -5.864167
v 8.487272 -8.755833 -5.864167
v -8.134167 -9.108939 -5.864167
v 8.134167 -9.108939 -5.864167
v -8.134167 -8.755833 -6.217273
v -8.487272 6.755834 5.864167
v 8.134167 -8.755833 -6.217273
v -8.134167 6.755833 6.217273
v -8.487272 6.755834 -5.864167
v 8.484715 6.749472 5.866381
v -8.134167 6.755833 -6.217273
v 1.450027 3.712960 6.215693
v 8.487272 6.755833 -5.864167
v 1.418420 6.643012 -6.201629
v 1.850056 4.789292 6.153005
v 8.134167 6.755833 -6.217273
v -0.898196 6.745344 -6.208202
v 3.595496 6.716777 6.150288
v -1.054396 6.719882 6.160516
v 0.300209 6.142818 6.156373
v 2.108836 5.557455 5.807276
v 8.134995 6.764820 6.214740
v -4.277228 6.746138 6.210661
v 1.237123 5.687095 5.935657
v 4.244753 6.749442 -6.212320
v 2.852895 6.755023 5.915380
v 2.013722 6.308518 5.238030
v 1.442132 5.960972 3.386996
v 2.216418 5.952280 3.362519
v 0.997613 5.801262 2.564682
v 1.945272 5.825893 2.679195
v 0.820653 5.607698 1.694105
v 1.164259 5.765269 1.181930
v 0.419118 5.773628 1.012497
v 1.486823 6.728086 4.879042
v 2.457200 6.473690 5.369538
v 2.233684 6.337405 4.146279
v -0.169084 6.195564 2.582847
v 2.644308 6.806716 1.509831
v -0.009239 5.959765 1.979008
v -0.474621 6.797473 0.575241
v 1.320029 6.689803 -0.253718
v 0.565718 6.852151 -0.731302
v 1.117017 6.354893 -2.700265
v 0.344546 6.830426 5.899407
v 2.995993 6.964379 5.800601
v 3.515514 6.758504 4.226119
v 2.992652 6.399939 4.086907
v 1.150685 6.820702 4.214262
v -1.300667 6.790581 2.443873
v -0.049124 6.559861 -2.576885
v 2.373654 7.073150 -2.181055
v -0.277921 6.745819 -2.902294
v 2.365171 6.799575 -3.346810
v 1.114632 6.548508 -3.881742
v 1.880766 6.950954 -4.482682
v -8.134167 7.108939 5.864166
v -4.440512 7.114748 5.846327
v -1.105959 7.047547 5.822176
v 8.125135 7.101010 5.876964
v 0.037306 7.086585 4.643366
v 4.133832 7.080022 4.826621
v -2.673210 7.038284 3.391775
v -0.149203 6.757983 3.568392
v -1.680075 7.061749 3.445633
v 3.879874 7.054161 2.918641
v -2.340994 7.028832 2.344216
v 5.233803 7.029623 3.407699
v 8.133801 7.115439 1.407884
v -5.014456 7.108576 -1.487160
v 5.790796 7.107177 -0.671849
v 3.981074 6.982004 1.764038
v -0.917451 7.070502 0.294873
v 3.055295 7.066775 1.178665
v -1.994399 7.061610 -0.817347
v 2.414281 7.049663 -0.089627
v 0.172494 7.036242 -0.886770
v 1.214483 6.887218 -1.644851
v 1.953901 7.074383 -1.175200
v -2.627761 7.043139 -2.934662
v -1.157647 7.027204 -2.108237
v -1.891421 7.027315 -2.353713
v 4.289981 7.037842 -3.159724
v -8.134168 7.108939 -5.864166
v 8.117060 7.122964 -5.859167
v 0.275804 7.060045 -4.592267
v -0.430135 7.080523 -5.873657
v 1.661877 7.060915 -5.811533
v 3.131293 7.046677 -4.431556
vn -0.3102 -0.3160 0.8966
vn -0.8644 -0.3430 0.3677
vn -0.3350 -0.8684 0.3657
vn 0.3350 -0.8684 0.3657
vn 0.3102 -0.3160 0.8966
vn 0.8644 -0.3430 0.3677
vn -0.8644 -0.3430 -0.3677
vn 0.8644 -0.3430 -0.3677
vn -0.3350 -0.8684 -0.3657
vn 0.3350 -0.8684 -0.3657
vn -0.3102 -0.3161 -0.8966
vn -0.8644 0.3430 0.3677
vn 0.3102 -0.3160 -0.8966
vn -0.3091 0.3162 0.8969
vn -0.8644 0.3430 -0.3677
vn 0.8658 0.3436 0.3637
vn -0.3095 0.3164 -0.8967
vn 0.0008 0.0154 0.9999
vn 0.8631 0.3458 -0.3680
vn 0.0034 0.3325 -0.9431
vn -0.0354 0.1706 0.9847
vn 0.3110 0.3142 -0.8969
vn 0.0064 0.3539 -0.9353
vn -0.1011 0.4027 0.9098
vn 0.0433 0.3830 0.9227
vn 0.1643 0.1992 0.9661
vn -0.2247 0.5149 0.8273
vn 0.3069 0.3230 0.8953
vn 0.0072 0.3545 0.9350
vn 0.3579 0.4867 0.7969
vn -0.0081 0.3758 -0.9266
vn -0.5927 0.4629 0.6592
vn -0.0616 0.8403 0.5386
vn 0.1692 0.8838 -0.4362
vn -0.3183 0.9395 -0.1265
vn 0.1636 0.9509 -0.2626
vn -0.3850 0.9228 0.0160
vn 0.0669 0.9977 -0.0055
vn -0.3262 0.8770 0.3528
vn 0.3025 0.8901 0.3408
vn 0.3920 0.8846 0.2527
vn -0.5816 0.7902 0.1934
vn 0.0964 0.9448 -0.3132
vn 0.3996 0.8503 -0.3425
vn -0.4949 0.8358 0.2379
vn 0.4720 0.8803 -0.0477
vn 0.5213 0.8066 0.2785
vn -0.2448 0.9133 0.3255
vn 0.1566 0.9184 0.3633
vn -0.0899 0.9845 -0.1505
vn 0.3028 0.6822 0.6656
vn -0.4038 0.8538 0.3286
vn -0.4848 0.8737 -0.0395
vn -0.4243 0.9025 -0.0735
vn 0.2793 0.8987 -0.3382
vn 0.3469 0.9358 -0.0626
vn 0.2616 0.9642 -0.0431
vn -0.1660 0.9786 -0.1220
vn 0.3107 0.9250 0.2187
vn -0.3924 0.9192 -0.0326
vn 0.0158 0.9697 0.2439
vn -0.2235 0.9628 0.1516
vn -0.3347 0.8682 0.3665
vn 0.0115 0.9152 0.4028
vn 0.0462 0.9141 0.4029
vn 0.3222 0.8725 0.3674
vn 0.1242 0.9913 -0.0441
vn -0.1349 0.9901 -0.0381
vn 0.0190 0.9998 -0.0002
vn 0.2694 0.8757 -0.4007
vn 0.0820 0.9923 -0.0925
vn -0.1438 0.9891 0.0324
vn 0.0925 0.9957 0.0027
vn -0.0040 0.9999 -0.0123
vn 0.3833 0.9236 0.0049
vn 0.0098 1.0000 0.0007
vn -0.0162 0.9999 0.0044
vn 0.0345 0.9993 -0.0163
vn 0.1757 0.9767 0.1230
vn -0.1378 0.9887 0.0595
vn 0.0107 0.9999 -0.0067
vn -0.1727 0.9801 0.0982
vn 0.1901 0.9753 0.1122
vn -0.1203 0.9781 -0.1697
vn -0.1636 0.9850 0.0547
vn 0.0361 0.9990 0.0282
vn 0.1177 0.9832 -0.1399
vn 0.0503 0.9985 -0.0200
vn -0.0081 1.0000 -0.0023
vn -0.3338 0.8687 -0.3659
vn 0.3258 0.8721 -0.3652
vn 0.1479 0.9765 0.1567
vn 0.0178 0.9078 -0.4189
vn -0.0071 0.9278 -0.3731
vn -0.0532 0.9976 0.0436
s 1
usemtl Liquid_Domain_Material
f 3//3 1//1 2//2
f 3//3 4//4 1//1
f 1//1 4//4 5//5
f 5//5 4//4 6//6
f 7//7 3//3 2//2
f 8//8 6//6 4//4
f 10//10 3//3 9//9
f 4//4 3//3 10//10
f 10//10 8//8 4//4
f 9//9 3//3 7//7
f 9//9 7//7 11//11
f 10//10 9//9 11//11
f 13//13 10//10 11//11
f 8//8 10//10 13//13
f 2//2 12//12 7//7
f 1//1 14//14 2//2
f 7//7 15//15 11//11
f 28//28 5//5 6//6
f 16//16 28//28 6//6
f 7//7 12//12 15//15
f 11//11 15//15 17//17
f 11//11 17//17 13//13
f 5//5 18//18 1//1
f 22//22 8//8 13//13
f 16//16 6//6 8//8
f 2//2 14//14 12//12
f 18//18 29//29 1//1
f 13//13 17//17 23//23
f 13//13 23//23 20//20
f 22//22 13//13 31//31
f 19//19 8//8 22//22
f 18//18 25//25 29//29
f 18//18 21//21 26//26
f 18//18 24//24 21//21
f 5//5 28//28 18//18
f 13//13 20//20 31//31
f 1//1 29//29 14//14
f 21//21 30//30 26//26
f 27//27 30//30 21//21
f 21//21 24//24 27//27
f 18//18 26//26 25//25
f 32//32 27//27 24//24
f 18//18 28//28 24//24
f 27//27 33//33 30//30
f 35//35 37//37 34//34
f 37//37 36//36 34//34
f 36//36 38//38 44//44
f 38//38 46//46 44//44
f 37//37 38//38 36//36
f 37//37 39//39 38//38
f 38//38 40//40 46//46
f 38//38 39//39 40//40
f 30//30 51//51 26//26
f 30//30 41//41 51//51
f 41//41 30//30 33//33
f 42//42 33//33 27//27
f 54//54 35//35 43//43
f 43//43 35//35 34//34
f 70//70 34//34 44//44
f 34//34 36//36 44//44
f 35//35 45//45 37//37
f 45//45 35//35 54//54
f 37//37 45//45 39//39
f 47//47 46//46 40//40
f 48//48 39//39 45//45
f 39//39 48//48 40//40
f 48//48 49//49 40//40
f 26//26 51//51 25//25
f 42//42 27//27 52//52
f 27//27 32//32 52//52
f 52//52 53//53 42//42
f 53//53 54//54 42//42
f 55//55 41//41 43//43
f 33//33 43//43 41//41
f 42//42 43//43 33//33
f 43//43 42//42 54//54
f 34//34 70//70 55//55
f 43//43 34//34 55//55
f 70//70 44//44 56//56
f 45//45 54//54 53//53
f 44//44 46//46 56//56
f 47//47 56//56 46//46
f 47//47 40//40 83//83
f 40//40 49//49 83//83
f 16//16 8//8 19//19
f 84//84 50//50 57//57
f 58//58 50//50 84//84
f 58//58 60//60 50//50
f 61//61 59//59 57//57
f 50//50 61//61 57//57
f 60//60 61//61 50//50
f 60//60 62//62 61//61
f 14//14 63//63 12//12
f 14//14 29//29 64//64
f 63//63 14//14 64//64
f 29//29 25//25 64//64
f 64//64 25//25 65//65
f 65//65 25//25 51//51
f 32//32 24//24 52//52
f 24//24 28//28 66//66
f 52//52 24//24 66//66
f 28//28 16//16 66//66
f 66//66 68//68 52//52
f 51//51 67//67 65//65
f 66//66 74//74 68//68
f 65//65 69//69 64//64
f 51//51 41//41 67//67
f 53//53 52//52 68//68
f 67//67 69//69 65//65
f 41//41 55//55 67//67
f 67//67 71//71 69//69
f 55//55 70//70 67//67
f 74//74 72//72 68//68
f 67//67 70//70 71//71
f 68//68 72//72 53//53
f 75//75 74//74 66//66
f 66//66 16//16 75//75
f 69//69 73//73 64//64
f 70//70 56//56 71//71
f 12//12 63//63 15//15
f 64//64 76//76 63//63
f 73//73 76//76 64//64
f 71//71 73//73 69//69
f 72//72 45//45 53//53
f 56//56 73//73 71//71
f 74//74 78//78 72//72
f 72//72 80//80 45//45
f 78//78 80//80 72//72
f 75//75 77//77 74//74
f 75//75 16//16 91//91
f 73//73 81//81 76//76
f 56//56 79//79 73//73
f 56//56 47//47 79//79
f 74//74 77//77 78//78
f 79//79 81//81 73//73
f 48//48 45//45 82//82
f 80//80 82//82 45//45
f 78//78 82//82 80//80
f 79//79 83//83 81//81
f 47//47 83//83 79//79
f 77//77 82//82 78//78
f 16//16 19//19 91//91
f 49//49 48//48 84//84
f 85//85 84//84 48//48
f 82//82 85//85 48//48
f 91//91 77//77 75//75
f 81//81 86//86 76//76
f 83//83 87//87 81//81
f 84//84 83//83 49//49
f 77//77 89//89 82//82
f 87//87 88//88 81//81
f 83//83 57//57 87//87
f 84//84 57//57 83//83
f 85//85 58//58 84//84
f 82//82 58//58 85//85
f 89//89 58//58 82//82
f 76//76 90//90 63//63
f 88//88 86//86 81//81
f 59//59 88//88 87//87
f 57//57 59//59 87//87
f 91//91 89//89 77//77
f 63//63 90//90 15//15
f 58//58 95//95 60//60
f 59//59 92//92 88//88
f 58//58 89//89 95//95
f 88//88 92//92 86//86
f 59//59 61//61 92//92
f 60//60 95//95 62//62
f 92//92 93//93 86//86
f 61//61 94//94 92//92
f 62//62 94//94 61//61
f 95//95 94//94 62//62
f 91//91 95//95 89//89
f 86//86 93//93 76//76
f 94//94 93//93 92//92
f 76//76 93//93 90//90
f 91//91 94//94 95//95
f 15//15 90//90 17//17
f 23//23 17//17 90//90
f 93//93 23//23 90//90
f 20//20 23//23 93//93
f 94//94 20//20 93//93
f 31//31 20//20 94//94
f 91//91 31//31 94//94
f 22//22 31//31 91//91
f 19//19 22//22 91//91
