# Blender 4.1.1
# www.blender.org
mtllib aa0708.mtl
o Liquid_Domain
v -8.134167 -8.755833 6.217273
v -8.487272 -8.755834 5.864167
v -8.134167 -9.108939 5.864167
v 8.134167 -8.755833 6.217273
v 8.487272 -8.755833 5.864167
v 8.134167 -9.108939 5.864167
v -8.134167 -9.108939 -5.864167
v -8.487272 -8.755834 -5.864167
v 8.487272 -8.755833 -5.864167
v 8.134167 -9.108939 -5.864167
v -8.134167 -8.755833 -6.217273
v 8.134167 -8.755833 -6.217273
v -8.132675 6.769544 6.217848
v -8.142797 4.994625 -6.182468
v 8.471653 6.850299 5.848540
v -8.486185 5.186472 -5.857563
v -8.460515 7.095421 5.884274
v 1.180374 4.118214 6.210626
v -1.327809 4.644016 -6.195415
v 4.910243 4.010409 -6.202402
v 8.470459 6.621613 -5.860206
v 8.059948 6.977571 -6.200380
v 6.084803 4.856052 6.204065
v 4.177228 4.314674 -6.142313
v 2.052831 4.480282 -6.163535
v 3.553765 5.550655 6.160862
v 8.133558 6.978849 6.175337
v 3.418308 4.919084 -5.664978
v -1.260026 6.480454 6.103063
v 0.963680 5.194586 5.835066
v 2.215401 5.837548 5.580984
v 8.394394 6.838825 2.348558
v -8.393364 6.978369 -0.284011
v -8.330868 6.883667 -5.777213
v -0.893190 5.466771 -5.807284
v 1.424949 5.789058 -5.602321
v 6.659855 6.274481 5.768359
v -4.822890 5.288231 -1.626507
v -6.778203 5.758404 -3.315605
v 3.058464 5.552588 -4.884468
v 4.812058 5.818990 -5.421191
v -7.232664 5.708844 -5.726540
v -4.124771 7.020649 6.131474
v 3.318288 6.458020 5.890491
v 4.994778 5.640814 6.095165
v 0.395733 5.755284 5.007948
v 3.264823 5.762959 4.780766
v 6.287550 5.798436 3.811834
v -5.951236 5.485444 -0.937637
v 2.047991 5.928432 -1.406953
v -7.187009 5.696273 -2.500725
v -3.467063 5.856135 -1.952666
v 0.224802 5.865299 -1.424567
v 4.448150 5.669364 -2.250000
v 6.040728 5.836331 -2.063094
v 0.053830 5.728841 -2.311894
v 1.439352 6.044328 -3.333788
v -1.830658 6.189595 -3.114992
v -4.916928 6.404940 -4.130213
v 3.513845 5.920892 -3.488669
v 4.217168 6.303533 5.148614
v 5.384241 6.756952 5.156930
v 1.788442 6.719136 3.922151
v 3.335172 6.208577 3.784349
v 3.437334 6.089269 2.672036
v 5.562108 6.108644 1.507553
v 6.608324 6.647331 1.784391
v 6.381716 5.886757 -0.407525
v -3.230114 6.856830 -1.051794
v 0.116775 6.105094 -0.803016
v 7.153488 6.775361 -1.825592
v 3.402676 6.781324 -1.478950
v 6.454098 7.052770 -3.276180
v -7.642651 6.692173 -5.359356
v 5.038397 6.616136 -3.543126
v -0.495292 5.875445 -4.705535
v -2.915063 6.035589 -5.734053
v 6.173679 6.923497 -5.370415
v 7.378286 6.999110 3.912381
v -0.001533 6.968848 3.753953
v 4.643227 6.507352 3.933105
v 4.720683 6.667130 1.671573
v 7.270506 7.010729 -0.141496
v -6.988509 6.716477 -0.078172
v 5.213086 6.715735 -0.316660
v 1.396636 6.920612 -0.200481
v 2.653971 6.679645 -0.582181
v 2.897056 6.655967 -2.912431
v -1.528459 7.063859 4.936577
v 0.233944 7.053936 0.414159
v -5.615997 7.048388 1.478788
v 3.560502 7.098649 0.222039
v 2.283436 7.036032 2.845616
v 3.531988 6.820411 1.332559
v -5.649235 6.754889 0.600887
v -7.940302 7.044237 -1.234688
v -1.316285 6.821235 -0.811544
v 8.033950 7.077444 -2.188716
vn -0.3101 -0.3160 0.8966
vn -0.8645 -0.3428 0.3676
vn -0.3350 -0.8684 0.3657
vn 0.3104 -0.3155 0.8967
vn 0.8645 -0.3424 0.3679
vn 0.3350 -0.8684 0.3657
vn -0.3350 -0.8684 -0.3657
vn -0.8644 -0.3426 -0.3680
vn 0.8645 -0.3425 -0.3678
vn 0.3350 -0.8684 -0.3657
vn -0.3100 -0.3150 -0.8970
vn 0.3100 -0.3154 -0.8969
vn -0.2890 0.2772 0.9163
vn -0.2793 0.1340 -0.9508
vn 0.6576 0.6919 0.2981
vn -0.8959 0.0555 -0.4407
vn -0.6248 0.6559 0.4236
vn 0.0140 0.1222 0.9924
vn 0.0204 0.1930 -0.9810
vn -0.0299 0.1379 -0.9900
vn 0.8749 0.3245 -0.3596
vn 0.2420 0.5737 -0.7825
vn -0.0100 0.0983 0.9951
vn 0.0191 0.3878 -0.9215
vn 0.0593 0.3374 -0.9395
vn -0.0661 0.1576 0.9853
vn 0.1620 0.7476 0.6441
vn -0.0105 0.6366 -0.7711
vn 0.2370 0.5316 0.8132
vn 0.1447 0.5459 0.8252
vn -0.1988 0.7603 0.6184
vn 0.3841 0.9233 -0.0071
vn -0.6262 0.7795 -0.0186
vn -0.3135 0.6619 -0.6808
vn 0.0702 0.6544 -0.7529
vn 0.0963 0.7792 -0.6193
vn -0.2474 0.7663 0.5930
vn -0.2268 0.9670 -0.1162
vn 0.1141 0.9710 0.2099
vn 0.0167 0.9331 -0.3592
vn -0.3292 0.6399 -0.6943
vn 0.2264 0.6402 -0.7341
vn 0.0340 0.6337 0.7728
vn -0.2099 0.8273 0.5211
vn 0.0127 0.3836 0.9234
vn 0.2020 0.8411 0.5018
vn -0.1452 0.9824 0.1174
vn -0.1935 0.9796 -0.0540
vn 0.1744 0.8875 -0.4266
vn -0.2795 0.9267 -0.2512
vn 0.5283 0.8491 -0.0001
vn -0.1575 0.9713 -0.1782
vn 0.0279 0.9243 -0.3806
vn 0.1733 0.9849 -0.0018
vn -0.3625 0.8687 0.3376
vn -0.0131 0.9997 0.0196
vn -0.1174 0.9885 -0.0954
vn 0.1054 0.9854 0.1338
vn -0.1062 0.9941 0.0221
vn -0.0380 0.9637 -0.2643
vn -0.2349 0.9514 0.1991
vn 0.0413 0.9734 0.2252
vn 0.1452 0.8779 0.4564
vn 0.0662 0.9834 0.1691
vn 0.1907 0.9641 0.1851
vn 0.1433 0.9885 0.0485
vn -0.5138 0.8573 0.0326
vn -0.2460 0.9561 -0.1593
vn -0.1287 0.8363 -0.5329
vn 0.0638 0.8833 -0.4644
vn -0.5034 0.8535 0.1346
vn 0.0119 0.9602 -0.2789
vn -0.2242 0.9541 0.1986
vn 0.6235 0.7224 -0.2990
vn -0.3991 0.9101 0.1113
vn 0.0482 0.9859 -0.1601
vn 0.0593 0.7402 -0.6697
vn -0.3465 0.8034 -0.4842
vn -0.3124 0.9482 0.0579
vn 0.2685 0.8470 0.4588
vn 0.0369 0.9923 -0.1183
vn 0.2643 0.9424 0.2051
vn -0.3898 0.9204 -0.0289
vn 0.3373 0.8309 -0.4425
vn 0.4246 0.8761 -0.2284
vn -0.0850 0.8729 -0.4805
vn -0.1916 0.8847 -0.4250
vn 0.0784 0.9221 -0.3790
vn 0.2159 0.9490 0.2297
vn 0.0009 0.9725 -0.2329
vn -0.0052 0.9959 -0.0905
vn 0.0897 0.9939 -0.0648
vn 0.2723 0.9434 0.1896
vn 0.2557 0.9143 0.3140
vn -0.0415 0.8976 -0.4389
vn 0.2715 0.9568 -0.1043
vn 0.1543 0.8348 -0.5286
vn 0.2599 0.9648 0.0416
s 1
usemtl Liquid_Domain_Material
f 3//3 1//1 2//2
f 3//3 6//6 1//1
f 1//1 6//6 4//4
f 4//4 6//6 5//5
f 7//7 3//3 2//2
f 8//8 7//7 2//2
f 9//9 5//5 6//6
f 10//10 3//3 7//7
f 6//6 3//3 10//10
f 10//10 9//9 6//6
f 7//7 8//8 11//11
f 10//10 7//7 11//11
f 12//12 10//10 11//11
f 9//9 10//10 12//12
f 1//1 13//13 2//2
f 11//11 8//8 14//14
f 11//11 14//14 12//12
f 21//21 9//9 12//12
f 15//15 4//4 5//5
f 8//8 16//16 14//14
f 2//2 16//16 8//8
f 2//2 13//13 17//17
f 4//4 18//18 1//1
f 5//5 9//9 15//15
f 4//4 23//23 18//18
f 15//15 9//9 21//21
f 27//27 4//4 15//15
f 12//12 19//19 20//20
f 12//12 20//20 22//22
f 22//22 21//21 12//12
f 12//12 14//14 19//19
f 1//1 18//18 13//13
f 20//20 19//19 25//25
f 18//18 23//23 45//45
f 20//20 25//25 24//24
f 4//4 27//27 23//23
f 24//24 25//25 28//28
f 18//18 45//45 26//26
f 2//2 17//17 16//16
f 18//18 43//43 13//13
f 18//18 29//29 43//43
f 18//18 30//30 29//29
f 30//30 18//18 31//31
f 18//18 26//26 31//31
f 17//17 33//33 16//16
f 19//19 35//35 36//36
f 25//25 19//19 36//36
f 36//36 28//28 25//25
f 24//24 41//41 20//20
f 23//23 37//37 45//45
f 31//31 46//46 30//30
f 15//15 21//21 32//32
f 38//38 39//39 49//49
f 39//39 51//51 49//49
f 16//16 33//33 34//34
f 40//40 28//28 36//36
f 28//28 40//40 41//41
f 28//28 41//41 24//24
f 14//14 42//42 77//77
f 19//19 14//14 77//77
f 77//77 35//35 19//19
f 26//26 44//44 31//31
f 23//23 27//27 37//37
f 29//29 30//30 46//46
f 55//55 54//54 68//68
f 55//55 68//68 71//71
f 56//56 52//52 53//53
f 50//50 56//56 53//53
f 50//50 57//57 56//56
f 56//56 58//58 52//52
f 38//38 52//52 39//39
f 39//39 74//74 51//51
f 52//52 59//59 39//39
f 57//57 76//76 56//56
f 56//56 76//76 58//58
f 36//36 76//76 57//57
f 60//60 40//40 57//57
f 41//41 40//40 60//60
f 40//40 36//36 57//57
f 77//77 76//76 35//35
f 36//36 35//35 76//76
f 34//34 14//14 16//16
f 26//26 45//45 44//44
f 61//61 31//31 44//44
f 44//44 45//45 61//61
f 45//45 37//37 62//62
f 61//61 47//47 31//31
f 62//62 61//61 45//45
f 37//37 48//48 62//62
f 31//31 63//63 46//46
f 63//63 31//31 47//47
f 48//48 81//81 62//62
f 65//65 93//93 64//64
f 81//81 48//48 66//66
f 48//48 67//67 66//66
f 67//67 68//68 66//66
f 49//49 95//95 38//38
f 85//85 66//66 68//68
f 51//51 84//84 49//49
f 69//69 52//52 38//38
f 53//53 70//70 86//86
f 50//50 53//53 86//86
f 68//68 72//72 85//85
f 53//53 52//52 97//97
f 52//52 69//69 97//97
f 70//70 53//53 97//97
f 72//72 68//68 54//54
f 57//57 50//50 72//72
f 55//55 71//71 73//73
f 88//88 72//72 60//60
f 72//72 54//54 60//60
f 54//54 55//55 73//73
f 60//60 54//54 75//75
f 73//73 75//75 54//54
f 58//58 59//59 52//52
f 60//60 57//57 88//88
f 75//75 41//41 60//60
f 59//59 42//42 39//39
f 58//58 77//77 59//59
f 41//41 75//75 78//78
f 39//39 42//42 74//74
f 77//77 42//42 59//59
f 76//76 77//77 58//58
f 34//34 42//42 14//14
f 20//20 41//41 78//78
f 20//20 78//78 22//22
f 29//29 46//46 89//89
f 61//61 64//64 47//47
f 64//64 61//61 62//62
f 48//48 37//37 79//79
f 62//62 81//81 64//64
f 46//46 80//80 89//89
f 80//80 46//46 63//63
f 63//63 47//47 93//93
f 47//47 64//64 93//93
f 81//81 65//65 64//64
f 81//81 66//66 82//82
f 48//48 79//79 67//67
f 65//65 94//94 93//93
f 81//81 82//82 65//65
f 82//82 94//94 65//65
f 68//68 67//67 83//83
f 84//84 95//95 49//49
f 85//85 82//82 66//66
f 38//38 95//95 69//69
f 97//97 90//90 70//70
f 70//70 90//90 86//86
f 83//83 71//71 68//68
f 87//87 50//50 86//86
f 96//96 84//84 51//51
f 50//50 87//87 72//72
f 88//88 57//57 72//72
f 51//51 74//74 96//96
f 34//34 74//74 42//42
f 17//17 13//13 43//43
f 29//29 89//89 43//43
f 27//27 15//15 37//37
f 15//15 79//79 37//37
f 43//43 91//91 17//17
f 92//92 90//90 43//43
f 89//89 92//92 43//43
f 80//80 92//92 89//89
f 15//15 32//32 79//79
f 91//91 33//33 17//17
f 90//90 91//91 43//43
f 63//63 93//93 80//80
f 93//93 92//92 80//80
f 32//32 83//83 79//79
f 94//94 92//92 93//93
f 79//79 83//83 67//67
f 95//95 33//33 91//91
f 86//86 90//90 92//92
f 95//95 84//84 33//33
f 82//82 92//92 94//94
f 85//85 92//92 82//82
f 87//87 86//86 92//92
f 84//84 96//96 33//33
f 69//69 95//95 91//91
f 90//90 69//69 91//91
f 97//97 69//69 90//90
f 72//72 87//87 92//92
f 85//85 72//72 92//92
f 83//83 98//98 71//71
f 32//32 98//98 83//83
f 98//98 73//73 71//71
f 32//32 21//21 98//98
f 33//33 96//96 34//34
f 74//74 34//34 96//96
f 98//98 22//22 73//73
f 98//98 21//21 22//22
f 73//73 78//78 75//75
f 22//22 78//78 73//73
