# Blender 4.1.1
# www.blender.org
mtllib aa0706.mtl
o Liquid_Domain
v -8.134167 -8.755833 6.217273
v -8.487272 -8.755834 5.864167
v -8.134167 -9.108939 5.864167
v 8.487272 -8.755833 5.864167
v 8.134167 -9.108939 5.864167
v -8.134167 -9.108939 -5.864167
v 8.134167 -9.108939 -5.864167
v -8.487272 -8.755834 -5.864167
v 8.487272 -8.755833 -5.864167
v -8.134167 -8.755833 -6.217273
v 8.134167 -8.755833 -6.217273
v -8.107897 6.851284 6.228707
v 8.478293 6.599752 5.865143
v 4.655914 3.932539 -6.208772
v 8.134167 -8.755833 6.217273
v -8.117589 5.034267 -6.207237
v 0.369277 4.478152 6.207911
v 8.448251 6.682555 -5.825762
v -0.668916 4.812613 -6.125169
v 8.093753 6.971351 -6.205995
v -8.489546 6.779667 5.857984
v 2.548404 5.381403 6.192649
v 6.204854 5.075057 6.174536
v -2.038197 4.894152 -6.185844
v 1.637291 4.493909 -6.160043
v 5.263371 5.680528 6.139812
v 8.145696 6.987922 6.182252
v -8.477050 4.979130 -5.855823
v -6.971761 5.267645 -6.088766
v 3.585346 4.578025 -5.882903
v -0.899171 6.030203 6.145257
v 1.060516 5.312302 5.740700
v 5.258656 5.975209 -5.459408
v 4.388297 5.803116 5.855793
v 6.240386 6.016118 5.812993
v 8.378321 6.814129 3.549459
v -8.394241 6.734674 -5.236175
v -6.810733 5.502307 -2.756528
v -3.530201 5.760649 -1.969970
v -7.316307 5.796617 -2.622269
v 3.481828 5.448637 -5.083427
v 1.042492 5.444881 -5.866897
v 3.220892 6.542075 5.877111
v -0.845394 6.781422 4.524540
v 1.831239 6.035387 5.110355
v 2.697575 5.849733 5.089741
v 3.940086 6.167681 4.914680
v -5.806733 5.503616 -0.778973
v 4.694214 5.621457 -1.967031
v -1.390169 5.578705 -1.898180
v 0.568654 5.760977 -1.798902
v 1.985743 5.912721 -1.333669
v 6.552476 5.905046 -1.821795
v 1.613211 6.084338 -3.367062
v 3.711170 5.933356 -3.273072
v -4.523691 6.443620 -3.718459
v -0.680824 5.944719 -2.946794
v -0.549671 5.803272 -5.059449
v -6.772534 5.826035 -5.389727
v 1.557439 5.863205 -5.243525
v -7.475258 6.106132 -5.626033
v -8.165056 6.977097 -5.835161
v 7.196736 6.811180 -6.139741
v 5.387533 6.720746 5.254412
v 6.633848 6.062397 3.758465
v 7.384984 6.997106 3.920807
v 0.583792 6.907374 3.824024
v 6.027511 5.840086 3.789230
v 4.515595 6.515618 2.227165
v 3.367660 6.253396 2.445663
v 6.205187 6.222020 1.948876
v 5.883283 5.990482 0.322263
v 0.238375 6.605290 -0.095503
v -3.464536 6.917918 -0.818515
v 7.136878 6.863308 -1.877992
v 6.383413 7.033111 -3.231744
v 3.030058 6.723608 -2.718158
v 5.573805 6.871850 -4.267418
v -2.796071 6.107244 -5.616937
v 7.157215 6.814408 5.824659
v 4.339571 6.653967 4.425888
v 3.132667 6.202873 3.758662
v 7.071921 7.001969 0.653639
v 4.834675 6.988928 0.011366
v 2.534151 6.815388 -0.307478
v -7.587912 6.784184 -1.339039
v -7.705104 6.804292 -5.334393
v -8.138069 7.127394 5.856289
v -1.715519 6.951124 5.852889
v -1.047775 7.053752 3.247166
v -5.807774 7.031224 0.888403
v 1.769095 7.079758 3.033733
v -3.383401 7.046546 1.405324
v -8.021387 7.041904 -0.112759
v -1.675215 7.055455 -0.588079
v 1.324202 6.980941 -0.053379
v 3.381947 6.713010 -1.488727
v 8.079743 7.056861 -2.155136
vn -0.3102 -0.3159 0.8967
vn -0.8643 -0.3429 0.3679
vn -0.3350 -0.8684 0.3657
vn 0.8647 -0.3426 0.3674
vn 0.3350 -0.8684 0.3657
vn -0.3350 -0.8684 -0.3657
vn 0.3350 -0.8684 -0.3657
vn -0.8644 -0.3426 -0.3681
vn 0.8648 -0.3418 -0.3679
vn -0.3103 -0.3156 -0.8967
vn 0.3105 -0.3154 -0.8967
vn -0.2999 0.3696 0.8795
vn 0.9062 0.2580 0.3351
vn -0.0454 0.1478 -0.9880
vn 0.3101 -0.3155 0.8968
vn -0.3125 0.1742 -0.9338
vn 0.0388 0.1245 0.9915
vn 0.8900 0.3504 -0.2918
vn 0.0561 0.5541 -0.8306
vn 0.3022 0.5672 -0.7661
vn -0.8700 0.3389 0.3582
vn -0.1290 0.3010 0.9449
vn -0.0121 0.1098 0.9939
vn 0.0277 0.2597 -0.9653
vn 0.0384 0.1948 -0.9801
vn 0.0076 0.3877 0.9218
vn 0.2483 0.6126 0.7504
vn -0.8899 0.0977 -0.4456
vn 0.0386 0.5240 -0.8508
vn 0.0208 0.5463 -0.8374
vn 0.2430 0.4114 0.8785
vn -0.0096 0.6785 0.7345
vn -0.3969 0.6284 -0.6690
vn -0.0211 0.7640 0.6449
vn -0.1403 0.6559 0.7417
vn 0.6041 0.7965 0.0241
vn -0.9198 0.3780 -0.1056
vn 0.1869 0.9799 0.0700
vn -0.0930 0.9832 -0.1572
vn 0.7434 0.6603 -0.1066
vn -0.0963 0.8458 -0.5247
vn 0.0276 0.6064 -0.7947
vn -0.0252 0.8449 0.5343
vn 0.3205 0.8936 0.3142
vn -0.0695 0.8928 0.4450
vn 0.0068 0.9694 -0.2456
vn -0.2659 0.9398 0.2148
vn 0.0456 0.8979 -0.4379
vn 0.1570 0.9876 0.0032
vn 0.0624 0.9777 -0.2003
vn -0.0755 0.9813 -0.1771
vn -0.2242 0.9276 -0.2988
vn -0.5138 0.8197 0.2534
vn -0.1019 0.9887 -0.1095
vn -0.0280 0.9798 -0.1982
vn -0.0952 0.9888 0.1148
vn 0.1008 0.9901 0.0977
vn 0.0530 0.9347 -0.3515
vn 0.1336 0.9390 -0.3169
vn 0.1062 0.9088 -0.4035
vn 0.5753 0.5417 -0.6128
vn -0.1743 0.6301 -0.7567
vn -0.2396 0.5800 -0.7786
vn 0.0814 0.9486 0.3057
vn -0.5494 0.8349 -0.0329
vn -0.2795 0.9577 0.0684
vn 0.1080 0.9129 0.3935
vn -0.0276 0.9749 -0.2211
vn 0.1145 0.9905 0.0765
vn 0.2084 0.9401 0.2697
vn -0.6909 0.7210 0.0538
vn 0.1935 0.9774 -0.0847
vn 0.0606 0.3240 -0.9441
vn -0.1650 0.8358 -0.5237
vn -0.5215 0.8406 0.1460
vn -0.2254 0.9516 0.2088
vn 0.0983 0.9502 -0.2956
vn -0.3346 0.9299 -0.1525
vn 0.0752 0.7988 -0.5969
vn -0.4290 0.7869 0.4435
vn -0.1487 0.9842 0.0965
vn 0.0035 0.9800 0.1989
vn -0.4359 0.8989 -0.0433
vn 0.4198 0.8962 -0.1434
vn -0.0887 0.8729 -0.4798
vn 0.5887 0.8020 -0.1005
vn 0.7181 0.6779 -0.1573
vn -0.3378 0.8917 0.3014
vn 0.2385 0.7568 0.6086
vn 0.0247 0.9976 0.0650
vn -0.0085 0.9700 -0.2430
vn 0.2096 0.9442 0.2540
vn -0.0061 1.0000 0.0024
vn -0.0602 0.9882 -0.1408
vn 0.1148 0.8797 -0.4614
vn -0.0220 0.9234 -0.3831
vn 0.0315 0.9627 -0.2689
vn 0.3071 0.9514 0.0245
s 1
usemtl Liquid_Domain_Material
f 3//3 1//1 2//2
f 3//3 5//5 1//1
f 1//1 5//5 15//15
f 15//15 5//5 4//4
f 7//7 3//3 6//6
f 5//5 3//3 7//7
f 6//6 3//3 2//2
f 7//7 4//4 5//5
f 8//8 6//6 2//2
f 9//9 4//4 7//7
f 6//6 8//8 10//10
f 7//7 6//6 10//10
f 11//11 7//7 10//10
f 9//9 7//7 11//11
f 1//1 12//12 2//2
f 13//13 15//15 4//4
f 27//27 15//15 13//13
f 8//8 28//28 16//16
f 10//10 8//8 16//16
f 10//10 14//14 11//11
f 15//15 17//17 1//1
f 10//10 16//16 14//14
f 14//14 16//16 24//24
f 11//11 14//14 20//20
f 20//20 9//9 11//11
f 15//15 22//22 17//17
f 15//15 23//23 22//22
f 4//4 9//9 18//18
f 14//14 24//24 19//19
f 2//2 21//21 8//8
f 14//14 19//19 25//25
f 17//17 12//12 1//1
f 15//15 27//27 23//23
f 24//24 16//16 29//29
f 14//14 25//25 30//30
f 20//20 14//14 63//63
f 18//18 9//9 20//20
f 2//2 12//12 21//21
f 17//17 22//22 32//32
f 22//22 23//23 26//26
f 25//25 42//42 30//30
f 21//21 28//28 8//8
f 13//13 4//4 18//18
f 42//42 41//41 30//30
f 30//30 41//41 33//33
f 25//25 19//19 42//42
f 33//33 14//14 30//30
f 17//17 31//31 12//12
f 31//31 17//17 32//32
f 26//26 34//34 22//22
f 23//23 35//35 26//26
f 21//21 37//37 28//28
f 39//39 38//38 48//48
f 48//48 38//38 40//40
f 79//79 58//58 19//19
f 42//42 19//19 58//58
f 60//60 41//41 42//42
f 24//24 29//29 79//79
f 19//19 24//24 79//79
f 31//31 32//32 44//44
f 22//22 45//45 32//32
f 43//43 45//45 22//22
f 82//82 46//46 47//47
f 36//36 13//13 18//18
f 71//71 53//53 72//72
f 53//53 49//49 72//72
f 50//50 73//73 51//51
f 57//57 50//50 51//51
f 54//54 51//51 52//52
f 56//56 38//38 39//39
f 57//57 39//39 50//50
f 51//51 58//58 57//57
f 54//54 58//58 51//51
f 40//40 38//38 59//59
f 61//61 40//40 59//59
f 54//54 60//60 58//58
f 41//41 60//60 54//54
f 55//55 41//41 54//54
f 60//60 42//42 58//58
f 28//28 37//37 16//16
f 37//37 62//62 16//16
f 59//59 29//29 61//61
f 79//79 29//29 59//59
f 61//61 16//16 62//62
f 29//29 16//16 61//61
f 14//14 33//33 63//63
f 34//34 43//43 22//22
f 80//80 35//35 23//23
f 44//44 89//89 31//31
f 45//45 43//43 46//46
f 26//26 64//64 34//34
f 35//35 64//64 26//26
f 46//46 43//43 47//47
f 34//34 47//47 43//43
f 64//64 47//47 34//34
f 65//65 64//64 35//35
f 65//65 35//35 66//66
f 67//67 44//44 32//32
f 45//45 67//67 32//32
f 45//45 46//46 82//82
f 81//81 64//64 68//68
f 65//65 68//68 64//64
f 70//70 82//82 69//69
f 68//68 65//65 71//71
f 72//72 69//69 68//68
f 71//71 72//72 68//68
f 96//96 51//51 73//73
f 72//72 49//49 84//84
f 39//39 48//48 74//74
f 52//52 51//51 96//96
f 84//84 49//49 97//97
f 48//48 40//40 86//86
f 95//95 50//50 39//39
f 52//52 97//97 54//54
f 77//77 97//97 55//55
f 97//97 49//49 55//55
f 53//53 75//75 76//76
f 49//49 53//53 76//76
f 57//57 56//56 39//39
f 55//55 49//49 76//76
f 57//57 58//58 56//56
f 55//55 54//54 77//77
f 78//78 55//55 76//76
f 59//59 38//38 56//56
f 58//58 79//79 56//56
f 41//41 55//55 78//78
f 33//33 41//41 78//78
f 79//79 59//59 56//56
f 31//31 89//89 12//12
f 23//23 27//27 80//80
f 35//35 80//80 66//66
f 64//64 81//81 47//47
f 82//82 67//67 45//45
f 47//47 81//81 82//82
f 81//81 69//69 82//82
f 65//65 66//66 71//71
f 81//81 68//68 69//69
f 83//83 71//71 66//66
f 69//69 72//72 84//84
f 94//94 91//91 48//48
f 86//86 94//94 48//48
f 50//50 95//95 73//73
f 71//71 83//83 53//53
f 53//53 83//83 75//75
f 48//48 91//91 74//74
f 85//85 52//52 96//96
f 97//97 52//52 85//85
f 39//39 74//74 95//95
f 54//54 97//97 77//77
f 86//86 40//40 87//87
f 40//40 61//61 87//87
f 78//78 63//63 33//33
f 62//62 87//87 61//61
f 12//12 88//88 21//21
f 88//88 12//12 89//89
f 89//89 90//90 88//88
f 27//27 13//13 36//36
f 90//90 91//91 88//88
f 44//44 90//90 89//89
f 27//27 36//36 80//80
f 36//36 66//66 80//80
f 67//67 90//90 44//44
f 92//92 67//67 82//82
f 90//90 93//93 91//91
f 92//92 90//90 67//67
f 82//82 70//70 92//92
f 95//95 93//93 90//90
f 91//91 94//94 88//88
f 92//92 95//95 90//90
f 36//36 98//98 66//66
f 98//98 83//83 66//66
f 88//88 94//94 37//37
f 21//21 88//88 37//37
f 93//93 95//95 91//91
f 92//92 96//96 95//95
f 92//92 84//84 96//96
f 70//70 84//84 92//92
f 69//69 84//84 70//70
f 36//36 18//18 98//98
f 95//95 74//74 91//91
f 96//96 73//73 95//95
f 84//84 85//85 96//96
f 97//97 85//85 84//84
f 98//98 75//75 83//83
f 94//94 62//62 37//37
f 86//86 62//62 94//94
f 98//98 76//76 75//75
f 86//86 87//87 62//62
f 98//98 20//20 76//76
f 76//76 20//20 78//78
f 98//98 18//18 20//20
f 63//63 78//78 20//20
