# Blender 4.1.1
# www.blender.org
mtllib aa0970.mtl
o Liquid_Domain
v -8.134167 -8.755833 6.217273
v -8.487272 -8.755834 5.864167
v -8.134167 -9.108939 5.864167
v 8.134167 -8.755833 6.217273
v 8.487272 -8.755833 5.864167
v 8.134167 -9.108939 5.864167
v -8.487272 -8.755834 -5.864167
v 8.487272 -8.755833 -5.864167
v -8.134167 -9.108939 -5.864167
v 8.134167 -9.108939 -5.864167
v -8.134167 -8.755833 -6.217273
v -8.487272 6.755834 -5.864167
v 8.134167 -8.755833 -6.217273
v 8.134167 6.755833 -6.217273
v 8.487045 6.745691 5.863173
v -8.134167 6.755833 6.217273
v -8.487272 6.755834 5.864167
v -8.134167 6.755833 -6.217273
v 8.487272 6.755833 -5.864167
v 1.688577 5.094350 6.210434
v 2.744336 3.210313 6.215765
v 3.562564 5.088632 6.152739
v -2.707044 6.752657 6.213053
v 2.346828 4.759112 6.151652
v 4.262030 6.190516 6.160821
v 8.134226 6.738657 6.210541
v 1.332975 5.816292 6.159467
v 1.685835 4.912993 2.920759
v 1.415224 4.667284 2.460804
v 2.074378 4.829239 2.536003
v 1.352471 4.923577 1.999178
v 1.931528 4.837195 2.097565
v 0.643875 6.271872 6.170702
v 2.858337 5.629900 5.859796
v 1.932455 5.364632 1.738812
v 2.011300 5.947786 5.852315
v 1.330467 5.018425 2.935517
v 0.994555 5.820398 3.399276
v 0.870485 5.362228 2.122358
v 0.694733 5.875671 1.500891
v 5.828841 6.748077 6.162047
v 2.708970 6.630950 5.257841
v 2.536796 5.667350 3.119113
v 0.355562 6.240567 2.342930
v 3.512586 6.829700 2.024869
v 3.036287 6.734575 1.605213
v 1.209438 5.774022 1.388080
v 2.162343 6.736323 1.283405
v -0.049735 6.739050 6.128508
v 1.921581 6.390868 4.982820
v 3.363122 6.771053 5.491031
v 1.688850 6.260715 4.070930
v 0.196635 6.598754 3.807603
v 0.666268 5.849971 2.980050
v 3.563710 6.784892 2.801601
v -0.086699 6.685081 1.373446
v 0.752566 6.784688 0.741072
v 1.448422 6.802031 0.961556
v 0.647361 6.860407 5.905964
v 4.342691 6.863701 5.864308
v 2.101567 6.438042 4.298244
v 2.453707 6.740224 4.402442
v -0.327534 6.836703 3.371622
v -8.134167 7.108939 5.864166
v -3.637199 7.111281 5.862959
v -0.514670 7.043164 5.863955
v 5.798402 7.048094 5.863480
v 8.132370 7.103166 5.855031
v -1.840824 7.049147 4.423419
v 4.951908 7.040981 4.714345
v 0.057744 7.057282 4.696893
v 0.906289 6.795208 4.477950
v 3.762506 7.018316 5.120923
v -0.601538 7.071607 4.128194
v 3.233791 7.043917 4.569171
v -5.936605 7.107061 2.331363
v 8.131384 7.094592 2.603736
v -2.565208 7.039331 3.424279
v 3.950488 7.072054 3.567268
v -1.219391 7.077122 3.367706
v -8.134167 7.108939 -5.864166
v 5.926981 7.043951 2.106250
v -2.464291 7.052937 0.697159
v 4.132189 7.073375 1.515724
v -1.059321 7.092076 1.597744
v 0.568627 7.084851 -0.066714
v 6.287077 7.095250 0.376160
v 3.199735 7.064256 0.907927
v 1.725330 7.071917 0.397271
v 4.004164 7.048466 0.134242
v 1.092502 7.107088 -4.766736
v 0.222929 7.054426 -1.864483
v 1.635588 7.040431 -1.379023
v 8.134167 7.108939 -5.864166
v 4.776396 7.108987 -1.959817
vn -0.3102 -0.3160 0.8966
vn -0.8644 -0.3430 0.3677
vn -0.3350 -0.8684 0.3657
vn 0.3102 -0.3160 0.8966
vn 0.8644 -0.3430 0.3677
vn 0.3350 -0.8684 0.3657
vn -0.8644 -0.3430 -0.3677
vn 0.8644 -0.3430 -0.3677
vn -0.3350 -0.8684 -0.3657
vn 0.3350 -0.8684 -0.3657
vn -0.3102 -0.3161 -0.8966
vn -0.8644 0.3430 -0.3677
vn 0.3102 -0.3161 -0.8966
vn 0.3102 0.3161 -0.8966
vn 0.8614 0.3434 0.3742
vn -0.3100 0.3159 0.8967
vn -0.8644 0.3430 0.3677
vn -0.3102 0.3161 -0.8966
vn 0.8644 0.3431 -0.3675
vn 0.1069 0.1181 0.9872
vn 0.0003 0.0109 0.9999
vn -0.1741 0.1579 0.9720
vn 0.0088 0.3595 0.9331
vn 0.0791 0.1382 0.9872
vn -0.1701 0.2325 0.9576
vn 0.3026 0.3144 0.8998
vn 0.2272 0.2566 0.9395
vn -0.1074 0.7705 -0.6284
vn 0.3154 0.9472 -0.0573
vn -0.5316 0.8324 -0.1567
vn 0.2935 0.7358 0.6103
vn -0.3508 0.7679 0.5360
vn 0.1458 0.2316 0.9618
vn -0.0824 0.3706 0.9251
vn -0.2873 0.4897 0.8232
vn 0.2336 0.5381 0.8098
vn 0.4454 0.6856 -0.5758
vn 0.4512 0.6483 -0.6133
vn 0.7934 0.5957 0.1251
vn 0.5523 0.6488 0.5234
vn -0.0448 0.3891 0.9201
vn -0.3306 0.7911 0.5146
vn -0.6183 0.6255 -0.4759
vn 0.7622 0.6470 0.0214
vn -0.4992 0.8340 0.2351
vn -0.4389 0.7084 0.5527
vn 0.0010 0.5236 0.8520
vn -0.2459 0.6466 0.7221
vn 0.0788 0.4341 0.8974
vn 0.0462 0.9917 0.1199
vn -0.3410 0.7038 0.6232
vn 0.2017 0.7745 -0.5996
vn 0.4102 0.8185 -0.4021
vn 0.7193 0.6549 -0.2316
vn -0.6196 0.7757 -0.1196
vn 0.4981 0.8069 0.3173
vn 0.0341 0.8329 0.5524
vn -0.2368 0.7085 0.6648
vn 0.2938 0.7795 0.5531
vn -0.2021 0.7283 0.6548
vn -0.4016 0.8581 -0.3201
vn -0.5516 0.8307 -0.0751
vn 0.4596 0.8815 -0.1084
vn -0.3351 0.8684 0.3656
vn 0.0093 0.9157 0.4017
vn 0.0672 0.9099 0.4094
vn -0.0575 0.9075 0.4162
vn 0.3250 0.8713 0.3678
vn 0.0011 1.0000 -0.0026
vn -0.0138 0.9990 0.0416
vn 0.2066 0.9761 -0.0669
vn 0.3057 0.9161 -0.2596
vn -0.1223 0.9689 0.2151
vn 0.1726 0.9777 -0.1198
vn -0.2277 0.9717 0.0628
vn 0.0078 1.0000 0.0005
vn 0.3608 0.9326 0.0032
vn 0.0007 1.0000 -0.0035
vn -0.1500 0.9865 -0.0663
vn 0.0919 0.9956 -0.0202
vn -0.3350 0.8684 -0.3656
vn -0.0066 0.9999 0.0136
vn 0.0086 0.9999 0.0117
vn -0.0879 0.9939 0.0667
vn 0.1495 0.9878 0.0445
vn 0.0152 0.9955 0.0940
vn -0.0084 0.9999 0.0088
vn -0.0841 0.9834 0.1606
vn -0.0646 0.9798 0.1895
vn -0.0100 1.0000 -0.0008
vn 0.0001 1.0000 0.0058
vn 0.0133 0.9998 0.0119
vn 0.0005 1.0000 0.0029
vn 0.3351 0.8685 -0.3653
vn -0.0072 0.9999 0.0109
s 1
usemtl Liquid_Domain_Material
f 3//3 1//1 2//2
f 3//3 6//6 1//1
f 1//1 6//6 4//4
f 4//4 6//6 5//5
f 10//10 5//5 6//6
f 9//9 3//3 2//2
f 7//7 9//9 2//2
f 8//8 5//5 10//10
f 6//6 3//3 9//9
f 6//6 9//9 10//10
f 9//9 7//7 11//11
f 10//10 9//9 11//11
f 13//13 10//10 11//11
f 8//8 10//10 13//13
f 2//2 12//12 7//7
f 5//5 8//8 15//15
f 14//14 8//8 13//13
f 15//15 4//4 5//5
f 13//13 11//11 14//14
f 1//1 16//16 17//17
f 2//2 1//1 17//17
f 2//2 17//17 12//12
f 11//11 7//7 18//18
f 15//15 8//8 19//19
f 19//19 8//8 14//14
f 7//7 12//12 18//18
f 4//4 21//21 1//1
f 1//1 21//21 20//20
f 20//20 23//23 1//1
f 21//21 24//24 20//20
f 22//22 24//24 21//21
f 21//21 25//25 22//22
f 4//4 26//26 21//21
f 21//21 26//26 25//25
f 28//28 29//29 37//37
f 30//30 29//29 28//28
f 31//31 29//29 32//32
f 32//32 29//29 30//30
f 20//20 33//33 23//23
f 24//24 34//34 20//20
f 24//24 22//22 34//34
f 37//37 29//29 54//54
f 29//29 39//39 54//54
f 31//31 39//39 29//29
f 32//32 35//35 31//31
f 27//27 33//33 20//20
f 20//20 36//36 27//27
f 20//20 34//34 36//36
f 37//37 52//52 28//28
f 28//28 61//61 30//30
f 28//28 52//52 61//61
f 61//61 43//43 30//30
f 37//37 54//54 38//38
f 39//39 31//31 40//40
f 47//47 40//40 31//31
f 35//35 47//47 31//31
f 22//22 25//25 34//34
f 26//26 41//41 25//25
f 42//42 36//36 34//34
f 52//52 37//37 38//38
f 54//54 39//39 44//44
f 30//30 45//45 32//32
f 44//44 39//39 40//40
f 35//35 32//32 46//46
f 45//45 46//46 32//32
f 48//48 35//35 46//46
f 33//33 49//49 23//23
f 27//27 36//36 33//33
f 26//26 4//4 15//15
f 51//51 42//42 34//34
f 50//50 36//36 42//42
f 53//53 52//52 38//38
f 61//61 62//62 43//43
f 38//38 54//54 53//53
f 43//43 55//55 30//30
f 55//55 45//45 30//30
f 56//56 44//44 40//40
f 35//35 48//48 47//47
f 47//47 57//57 40//40
f 47//47 58//58 57//57
f 48//48 58//58 47//47
f 1//1 23//23 16//16
f 33//33 59//59 49//49
f 59//59 33//33 36//36
f 60//60 34//34 25//25
f 25//25 41//41 60//60
f 36//36 50//50 59//59
f 60//60 51//51 34//34
f 72//72 59//59 50//50
f 50//50 42//42 61//61
f 61//61 42//42 62//62
f 52//52 72//72 50//50
f 52//52 50//50 61//61
f 72//72 52//52 53//53
f 62//62 55//55 43//43
f 53//53 54//54 63//63
f 44//44 63//63 54//54
f 56//56 63//63 44//44
f 40//40 57//57 56//56
f 11//11 18//18 14//14
f 16//16 64//64 17//17
f 16//16 23//23 65//65
f 64//64 16//16 65//65
f 65//65 23//23 66//66
f 23//23 49//49 66//66
f 66//66 49//49 59//59
f 60//60 41//41 67//67
f 41//41 26//26 68//68
f 67//67 41//41 68//68
f 26//26 15//15 68//68
f 66//66 69//69 65//65
f 67//67 70//70 60//60
f 59//59 72//72 66//66
f 72//72 71//71 66//66
f 42//42 51//51 73//73
f 60//60 73//73 51//51
f 70//70 73//73 60//60
f 65//65 76//76 64//64
f 69//69 78//78 65//65
f 74//74 69//69 66//66
f 71//71 74//74 66//66
f 42//42 75//75 62//62
f 73//73 75//75 42//42
f 65//65 78//78 76//76
f 79//79 75//75 73//73
f 68//68 77//77 67//67
f 53//53 74//74 71//71
f 72//72 53//53 71//71
f 75//75 79//79 62//62
f 70//70 79//79 73//73
f 67//67 82//82 70//70
f 77//77 82//82 67//67
f 80//80 78//78 69//69
f 74//74 80//80 69//69
f 74//74 53//53 63//63
f 55//55 62//62 79//79
f 68//68 15//15 77//77
f 74//74 63//63 80//80
f 64//64 81//81 17//17
f 76//76 81//81 64//64
f 82//82 84//84 79//79
f 70//70 82//82 79//79
f 78//78 83//83 76//76
f 79//79 84//84 55//55
f 80//80 85//85 78//78
f 63//63 85//85 80//80
f 56//56 85//85 63//63
f 84//84 45//45 55//55
f 46//46 45//45 88//88
f 84//84 88//88 45//45
f 87//87 90//90 84//84
f 82//82 87//87 84//84
f 85//85 83//83 78//78
f 56//56 86//86 85//85
f 58//58 48//48 88//88
f 46//46 88//88 48//48
f 77//77 87//87 82//82
f 56//56 57//57 86//86
f 57//57 58//58 89//89
f 88//88 89//89 58//58
f 84//84 90//90 88//88
f 94//94 87//87 77//77
f 77//77 15//15 94//94
f 86//86 83//83 85//85
f 89//89 86//86 57//57
f 17//17 81//81 12//12
f 88//88 90//90 89//89
f 91//91 81//81 76//76
f 92//92 76//76 83//83
f 86//86 92//92 83//83
f 89//89 93//93 86//86
f 90//90 93//93 89//89
f 87//87 95//95 90//90
f 15//15 19//19 94//94
f 93//93 92//92 86//86
f 87//87 94//94 95//95
f 90//90 95//95 93//93
f 92//92 91//91 76//76
f 95//95 91//91 93//93
f 93//93 91//91 92//92
f 95//95 94//94 91//91
f 94//94 81//81 91//91
f 12//12 81//81 18//18
f 14//14 18//18 81//81
f 94//94 14//14 81//81
f 19//19 14//14 94//94
