# Blender 4.1.1
# www.blender.org
mtllib aa0999.mtl
o Liquid_Domain
v -8.134167 -8.755833 6.217273
v -8.487272 -8.755834 5.864167
v -8.134167 -9.108939 5.864167
v 8.134167 -8.755833 6.217273
v 8.487272 -8.755833 5.864167
v 8.134167 -9.108939 5.864167
v 8.487272 -8.755833 -5.864167
v -8.134167 -9.108939 -5.864167
v 8.134167 -9.108939 -5.864167
v -8.487272 -8.755834 -5.864167
v -8.134167 -8.755833 -6.217273
v 8.134167 -8.755833 -6.217273
v 8.134167 6.755833 -6.217273
v 8.480306 6.732578 5.867975
v -8.487272 6.755834 -5.864167
v -8.134167 6.755833 6.217273
v 8.487272 6.755833 -5.864167
v -8.487272 6.755834 5.864167
v 0.841378 4.623095 6.217044
v 2.912862 3.219160 6.217115
v -8.134167 6.755833 -6.217273
v 8.484463 6.744399 1.218978
v 3.548028 4.778640 6.155145
v 1.902850 5.090201 6.162282
v 4.685404 5.512646 6.195323
v 0.950548 5.830758 6.162464
v -1.355073 6.744143 6.171438
v 0.150701 6.279269 6.160390
v 2.713155 5.497041 5.916188
v 3.383785 5.558497 5.760371
v -3.911522 6.755935 6.213767
v 1.748042 5.953374 5.917078
v 4.628826 6.262339 6.146582
v 6.081867 6.724741 6.134265
v 8.132789 6.730667 6.201565
v 2.815618 6.448320 5.145832
v 3.355040 6.166098 5.474685
v 3.633419 5.953791 3.737812
v 3.141587 6.134895 2.731037
v 1.330354 6.295509 5.839272
v 3.366128 6.558100 5.086725
v 3.134953 6.486508 4.676767
v 3.146036 5.992882 3.720090
v 4.221374 6.775213 3.889385
v 2.756076 6.180740 2.623203
v 3.581270 6.390052 2.611689
v 3.617779 6.366201 1.427540
v 2.651159 6.011297 1.760166
v 3.098496 6.091789 1.263618
v 2.661732 6.139589 1.293111
v 0.313830 6.803501 5.934647
v 5.057782 6.899710 5.883699
v 1.559019 6.808765 5.198195
v 4.011081 6.756958 5.486910
v 3.818045 6.764077 4.701266
v 2.191938 6.770088 3.941488
v 3.857156 6.801213 2.600366
v 3.938455 6.764880 1.417297
v 1.571046 6.702117 1.278587
v 2.118557 6.812046 0.774612
v 3.437125 6.804344 0.790274
v -8.134167 7.108939 5.864166
v -3.194790 7.097713 5.863156
v -0.743423 7.004840 5.856986
v 8.132514 7.077183 5.865568
v 0.529938 7.071291 5.098484
v 4.562542 7.070611 5.251922
v 6.267979 7.060102 5.075611
v 1.744898 6.947538 4.707725
v -3.413503 7.108051 1.515631
v -0.299813 7.061763 3.466864
v 4.911801 7.079435 4.071695
v 6.358841 7.042571 3.450907
v 8.135895 7.078767 2.175444
v 2.001482 6.810771 2.727655
v 4.608207 7.063996 2.909117
v 1.155164 7.054431 2.520684
v 5.903176 7.025591 1.676374
v 0.736979 7.079165 0.857482
v 1.158937 6.942939 1.904693
v -0.972594 7.057635 1.104460
v 4.506359 7.075470 0.935547
v 5.884049 7.035130 0.653911
v 3.895771 7.044384 0.670913
v 2.068920 7.091310 -0.047852
v 2.804367 7.057975 -2.399637
v 3.623951 7.078906 0.002712
v -8.134167 7.108939 -5.864166
v 4.928902 7.049813 -0.538023
v 8.135881 7.114060 -0.849665
v 2.645168 7.108410 -4.537843
v 3.615634 7.024515 -1.412860
v 5.355515 7.109191 -2.826599
v 8.134167 7.108939 -5.864166
vn -0.3102 -0.3161 0.8966
vn -0.8644 -0.3430 0.3677
vn -0.3350 -0.8684 0.3657
vn 0.3102 -0.3160 0.8966
vn 0.8644 -0.3429 0.3677
vn 0.3350 -0.8684 0.3657
vn 0.8644 -0.3430 -0.3677
vn -0.3350 -0.8684 -0.3657
vn 0.3350 -0.8684 -0.3657
vn -0.8644 -0.3430 -0.3677
vn -0.3102 -0.3161 -0.8966
vn 0.3102 -0.3161 -0.8966
vn 0.3102 0.3161 -0.8966
vn 0.8592 0.3442 0.3787
vn -0.8644 0.3430 -0.3677
vn -0.3096 0.3163 0.8967
vn 0.8644 0.3432 -0.3673
vn -0.8644 0.3430 0.3677
vn 0.0144 0.0229 0.9996
vn 0.0007 0.0124 0.9999
vn -0.3102 0.3161 -0.8966
vn 0.9213 0.3888 0.0042
vn -0.0624 0.1956 0.9787
vn 0.0795 0.1619 0.9836
vn -0.1126 0.0756 0.9908
vn 0.1303 0.2242 0.9658
vn 0.0349 0.3913 0.9196
vn 0.1070 0.2100 0.9718
vn 0.1372 0.4554 0.8797
vn -0.0940 0.3996 0.9119
vn 0.0033 0.3581 0.9337
vn 0.2087 0.3973 0.8936
vn -0.2356 0.2696 0.9337
vn -0.0460 0.4153 0.9085
vn 0.2958 0.3174 0.9010
vn 0.1116 0.8359 0.5374
vn -0.2773 0.5580 0.7821
vn -0.4072 0.9063 -0.1133
vn -0.1707 0.9790 0.1111
vn 0.2758 0.5410 0.7945
vn -0.3390 0.8877 0.3115
vn 0.0180 0.9818 -0.1889
vn 0.3151 0.9316 -0.1810
vn -0.5876 0.8077 -0.0486
vn 0.3890 0.9076 -0.1580
vn -0.6765 0.7268 0.1191
vn -0.6398 0.7284 0.2450
vn 0.2049 0.9788 -0.0030
vn -0.2016 0.8471 0.4917
vn 0.2464 0.8365 0.4895
vn 0.2126 0.6478 0.7315
vn -0.1621 0.7544 0.6361
vn 0.2539 0.8381 0.4829
vn -0.4292 0.7142 0.5529
vn -0.4087 0.8931 -0.1878
vn 0.4396 0.8922 -0.1039
vn -0.6300 0.7727 0.0778
vn -0.5930 0.7901 0.1555
vn 0.4035 0.8918 0.2045
vn 0.1219 0.8701 0.4775
vn -0.2553 0.8282 0.4989
vn -0.3342 0.8685 0.3660
vn 0.0150 0.9128 0.4081
vn 0.0615 0.8972 0.4374
vn 0.3174 0.8695 0.3784
vn 0.0926 0.9815 0.1678
vn -0.2039 0.9626 0.1786
vn -0.0144 0.9983 0.0564
vn 0.2332 0.9612 0.1475
vn 0.0078 1.0000 0.0022
vn 0.0061 1.0000 0.0030
vn -0.1589 0.9870 -0.0235
vn -0.0062 0.9999 -0.0109
vn 0.3625 0.9320 0.0028
vn 0.4762 0.8578 -0.1936
vn -0.1874 0.9814 0.0417
vn 0.1746 0.9831 -0.0556
vn -0.0203 0.9998 0.0066
vn 0.1069 0.9922 0.0644
vn 0.5287 0.8370 -0.1410
vn 0.0096 0.9999 0.0065
vn -0.0942 0.9922 0.0817
vn -0.0013 1.0000 0.0079
vn -0.2475 0.9441 0.2178
vn 0.0214 0.9933 0.1131
vn 0.0030 0.9998 0.0193
vn -0.0303 0.9963 0.0801
vn -0.3350 0.8684 -0.3656
vn -0.0043 1.0000 0.0045
vn 0.3846 0.9231 0.0078
vn 0.0003 1.0000 0.0058
vn -0.0270 0.9988 0.0400
vn -0.0085 0.9999 0.0111
vn 0.3352 0.8684 -0.3655
s 1
usemtl Liquid_Domain_Material
f 3//3 1//1 2//2
f 1//1 3//3 4//4
f 3//3 6//6 4//4
f 4//4 6//6 5//5
f 8//8 3//3 2//2
f 7//7 5//5 6//6
f 6//6 3//3 8//8
f 6//6 8//8 9//9
f 9//9 7//7 6//6
f 10//10 8//8 2//2
f 8//8 10//10 11//11
f 9//9 8//8 11//11
f 12//12 9//9 11//11
f 7//7 9//9 12//12
f 13//13 7//7 12//12
f 12//12 11//11 13//13
f 14//14 4//4 5//5
f 2//2 15//15 10//10
f 10//10 15//15 11//11
f 1//1 16//16 2//2
f 17//17 7//7 13//13
f 7//7 17//17 5//5
f 1//1 4//4 20//20
f 2//2 18//18 15//15
f 1//1 20//20 19//19
f 11//11 15//15 21//21
f 20//20 24//24 19//19
f 20//20 25//25 23//23
f 20//20 23//23 24//24
f 20//20 35//35 25//25
f 20//20 4//4 35//35
f 2//2 16//16 18//18
f 19//19 31//31 1//1
f 5//5 17//17 22//22
f 19//19 27//27 31//31
f 19//19 28//28 27//27
f 19//19 24//24 26//26
f 23//23 29//29 24//24
f 23//23 30//30 29//29
f 26//26 28//28 19//19
f 24//24 32//32 26//26
f 24//24 29//29 32//32
f 23//23 25//25 30//30
f 35//35 4//4 14//14
f 14//14 5//5 22//22
f 25//25 33//33 30//30
f 35//35 34//34 25//25
f 40//40 32//32 29//29
f 29//29 36//36 40//40
f 30//30 37//37 29//29
f 29//29 37//37 36//36
f 37//37 30//30 33//33
f 38//38 39//39 43//43
f 26//26 40//40 28//28
f 32//32 40//40 26//26
f 25//25 34//34 33//33
f 41//41 36//36 37//37
f 38//38 43//43 42//42
f 45//45 56//56 43//43
f 43//43 39//39 45//45
f 38//38 46//46 39//39
f 46//46 38//38 44//44
f 39//39 48//48 45//45
f 47//47 39//39 46//46
f 39//39 49//49 48//48
f 47//47 49//49 39//39
f 59//59 48//48 50//50
f 49//49 50//50 48//48
f 1//1 31//31 16//16
f 28//28 51//51 27//27
f 51//51 28//28 40//40
f 34//34 52//52 33//33
f 53//53 51//51 40//40
f 33//33 54//54 37//37
f 52//52 54//54 33//33
f 53//53 40//40 36//36
f 37//37 54//54 41//41
f 53//53 36//36 69//69
f 42//42 69//69 36//36
f 41//41 42//42 36//36
f 55//55 42//42 41//41
f 42//42 56//56 69//69
f 55//55 38//38 42//42
f 43//43 56//56 42//42
f 38//38 55//55 44//44
f 75//75 56//56 45//45
f 44//44 57//57 46//46
f 75//75 45//45 80//80
f 47//47 46//46 57//57
f 45//45 48//48 80//80
f 57//57 58//58 47//47
f 59//59 80//80 48//48
f 59//59 50//50 60//60
f 47//47 61//61 49//49
f 58//58 61//61 47//47
f 49//49 60//60 50//50
f 61//61 60//60 49//49
f 11//11 21//21 13//13
f 16//16 62//62 18//18
f 16//16 31//31 63//63
f 62//62 16//16 63//63
f 31//31 27//27 63//63
f 63//63 27//27 64//64
f 64//64 27//27 51//51
f 34//34 35//35 65//65
f 52//52 34//34 65//65
f 35//35 14//14 65//65
f 51//51 66//66 64//64
f 66//66 51//51 53//53
f 54//54 52//52 67//67
f 68//68 67//67 52//52
f 65//65 68//68 52//52
f 53//53 69//69 66//66
f 54//54 67//67 41//41
f 64//64 71//71 63//63
f 67//67 55//55 41//41
f 68//68 72//72 67//67
f 70//70 62//62 63//63
f 66//66 71//71 64//64
f 72//72 55//55 67//67
f 73//73 72//72 68//68
f 65//65 74//74 68//68
f 65//65 14//14 74//74
f 71//71 70//70 63//63
f 55//55 72//72 44//44
f 74//74 73//73 68//68
f 69//69 77//77 66//66
f 72//72 76//76 44//44
f 69//69 75//75 77//77
f 56//56 75//75 69//69
f 73//73 76//76 72//72
f 66//66 77//77 71//71
f 44//44 76//76 57//57
f 73//73 78//78 76//76
f 14//14 22//22 74//74
f 77//77 79//79 71//71
f 75//75 80//80 77//77
f 83//83 78//78 73//73
f 71//71 81//81 70//70
f 79//79 81//81 71//71
f 80//80 79//79 77//77
f 76//76 82//82 57//57
f 82//82 58//58 57//57
f 74//74 83//83 73//73
f 59//59 79//79 80//80
f 76//76 83//83 82//82
f 78//78 83//83 76//76
f 18//18 62//62 15//15
f 61//61 58//58 84//84
f 82//82 84//84 58//58
f 59//59 85//85 79//79
f 59//59 60//60 85//85
f 74//74 22//22 90//90
f 79//79 86//86 81//81
f 85//85 86//86 79//79
f 61//61 87//87 60//60
f 87//87 85//85 60//60
f 84//84 87//87 61//61
f 82//82 87//87 84//84
f 83//83 89//89 82//82
f 82//82 89//89 87//87
f 90//90 83//83 74//74
f 81//81 91//91 70//70
f 92//92 85//85 87//87
f 89//89 92//92 87//87
f 62//62 88//88 15//15
f 70//70 88//88 62//62
f 91//91 88//88 70//70
f 86//86 91//91 81//81
f 92//92 86//86 85//85
f 83//83 90//90 89//89
f 90//90 22//22 94//94
f 89//89 90//90 93//93
f 94//94 93//93 90//90
f 89//89 86//86 92//92
f 89//89 93//93 86//86
f 22//22 17//17 94//94
f 93//93 91//91 86//86
f 93//93 94//94 91//91
f 94//94 88//88 91//91
f 15//15 88//88 21//21
f 13//13 21//21 88//88
f 94//94 13//13 88//88
f 17//17 13//13 94//94
