# Blender 4.1.1
# www.blender.org
mtllib bb0030.mtl
o グリッド
v 0.926730 360.445129 -4.643880
v 0.403887 360.452148 -4.377478
v -0.118955 360.390381 -4.111077
v -0.641798 360.307098 -3.844675
v -1.164640 360.242523 -3.578273
v -1.687483 360.218842 -3.311872
v -2.210326 360.242523 -3.045470
v -2.733168 360.307098 -2.779068
v -3.256011 360.390381 -2.512667
v -3.778854 360.452148 -2.246265
v -4.301696 360.445129 -1.979864
v 1.264227 360.452148 -3.981506
v 0.741384 360.360901 -3.715104
v 0.218541 360.218842 -3.448702
v -0.304301 360.087463 -3.182301
v -0.827144 360.001801 -2.915899
v -1.349986 360.027893 -2.649498
v -1.872829 360.001801 -2.383096
v -2.395672 360.087463 -2.116694
v -2.918514 360.218842 -1.850293
v -3.441357 360.360901 -1.583891
v -3.964200 360.452148 -1.317489
v 1.601723 360.390381 -3.319131
v 1.078880 360.218842 -3.052730
v 0.556038 360.030670 -2.786328
v 0.033195 360.126007 -2.519926
v -0.489647 360.235413 -2.253525
v -1.012490 360.273193 -1.987123
v -1.535333 360.235413 -1.720721
v -2.058175 360.126007 -1.454320
v -2.581018 360.030670 -1.187918
v -3.103860 360.218842 -0.921517
v -3.626703 360.390381 -0.655115
v 1.939220 360.307098 -2.656757
v 1.416377 360.087463 -2.390355
v 0.893535 360.126007 -2.123954
v 0.370692 360.310852 -1.857552
v -0.152151 360.413940 -1.591150
v -0.674993 360.439789 -1.324749
v -1.197836 360.413940 -1.058347
v -1.720678 360.310852 -0.791945
v -2.243521 360.126007 -0.525544
v -2.766364 360.087463 -0.259142
v -3.289206 360.307098 0.007259
v 2.276716 360.242523 -1.994382
v 1.753874 360.001801 -1.727981
v 1.231031 360.235413 -1.461579
v 0.708189 360.413940 -1.195178
v 0.185346 360.458221 -0.928776
v -0.337497 360.430573 -0.662374
v -0.860339 360.458221 -0.395973
v -1.383182 360.413940 -0.129571
v -1.906024 360.235413 0.136831
v -2.428867 360.001801 0.403232
v -2.951710 360.242523 0.669634
v 2.614213 360.218842 -1.332008
v 2.091370 360.027893 -1.065606
v 1.568528 360.273193 -0.799205
v 1.045685 360.439789 -0.532803
v 0.522843 360.430573 -0.266402
v 0.000000 360.251251 0.000000
v -0.522843 360.430573 0.266402
v -1.045685 360.439789 0.532803
v -1.568528 360.273193 0.799205
v -2.091371 360.027893 1.065607
v -2.614213 360.218842 1.332008
v 2.951710 360.242523 -0.669634
v 2.428867 360.001801 -0.403232
v 1.906024 360.235413 -0.136830
v 1.383182 360.413940 0.129571
v 0.860339 360.458221 0.395973
v 0.337497 360.430573 0.662374
v -0.185346 360.458221 0.928776
v -0.708188 360.413940 1.195178
v -1.231031 360.235413 1.461579
v -1.753874 360.001801 1.727981
v -2.276716 360.242523 1.994383
v 3.289206 360.307098 -0.007259
v 2.766364 360.087463 0.259142
v 2.243521 360.126007 0.525544
v 1.720678 360.310852 0.791945
v 1.197836 360.413940 1.058347
v 0.674993 360.439789 1.324749
v 0.152151 360.413940 1.591150
v -0.370692 360.310852 1.857552
v -0.893535 360.126007 2.123954
v -1.416377 360.087463 2.390355
v -1.939220 360.307098 2.656757
v 3.626703 360.390381 0.655115
v 3.103860 360.218842 0.921517
v 2.581018 360.030670 1.187918
v 2.058175 360.126007 1.454320
v 1.535332 360.235413 1.720721
v 1.012490 360.273193 1.987123
v 0.489647 360.235413 2.253525
v -0.033195 360.126007 2.519926
v -0.556038 360.030670 2.786328
v -1.078881 360.218842 3.052730
v -1.601723 360.390381 3.319131
v 3.964200 360.452148 1.317490
v 3.441357 360.360901 1.583891
v 2.918514 360.218842 1.850293
v 2.395672 360.087463 2.116694
v 1.872829 360.001801 2.383096
v 1.349987 360.027893 2.649498
v 0.827144 360.001801 2.915900
v 0.304301 360.087463 3.182301
v -0.218541 360.218842 3.448703
v -0.741384 360.360901 3.715104
v -1.264226 360.452148 3.981506
v 4.301696 360.445129 1.979864
v 3.778853 360.452148 2.246265
v 3.256011 360.390381 2.512667
v 2.733168 360.307098 2.779068
v 2.210326 360.242523 3.045470
v 1.687483 360.218842 3.311872
v 1.164640 360.242523 3.578274
v 0.641798 360.307098 3.844675
v 0.118955 360.390381 4.111077
v -0.403888 360.452148 4.377479
v -0.926730 360.445129 4.643880
vn -0.0381 0.9958 0.0827
vn -0.0723 0.9706 0.2294
vn -0.0414 0.9523 0.3023
vn 0.0251 0.9482 0.3167
vn 0.1283 0.9603 0.2475
vn 0.1248 0.9603 0.2493
vn 0.2414 0.9482 0.2065
vn 0.2689 0.9523 0.1442
vn 0.2281 0.9706 0.0763
vn 0.0893 0.9958 0.0178
vn -0.1328 0.9672 0.2165
vn -0.1411 0.9413 0.3066
vn 0.0182 0.9945 0.1030
vn -0.0640 0.9835 -0.1694
vn -0.0929 0.9506 -0.2963
vn -0.1851 0.9506 -0.2493
vn -0.0994 0.9835 -0.1514
vn 0.0726 0.9945 0.0753
vn 0.3309 0.9413 0.0660
vn 0.2532 0.9672 0.0198
vn -0.2175 0.9399 0.2631
vn -0.1017 0.9917 0.0788
vn 0.1217 0.9567 -0.2643
vn 0.0482 0.9567 -0.2870
vn -0.0555 0.9727 -0.2251
vn -0.1495 0.9727 -0.1772
vn -0.2605 0.9567 -0.1297
vn -0.2854 0.9567 -0.0569
vn 0.1236 0.9917 -0.0360
vn 0.3407 0.9399 -0.0213
vn -0.2814 0.9268 0.2485
vn 0.1942 0.9740 -0.1164
vn 0.1997 0.9465 -0.2536
vn 0.0660 0.9874 -0.1435
vn -0.0121 0.9997 -0.0203
vn -0.0093 0.9997 -0.0217
vn -0.1549 0.9874 -0.0309
vn -0.3225 0.9465 0.0125
vn -0.2083 0.9740 0.0887
vn 0.3665 0.9268 -0.0816
vn -0.3083 0.9385 0.1554
vn 0.3183 0.9251 -0.2068
vn 0.2325 0.9586 -0.1645
vn 0.0271 0.9996 -0.0125
vn -0.0916 0.9757 0.1991
vn 0.2150 0.9757 0.0429
vn -0.0260 0.9996 0.0146
vn -0.2698 0.9586 0.0914
vn -0.3544 0.9251 0.1360
vn 0.3069 0.9385 -0.1581
vn -0.3069 0.9385 0.1581
vn 0.3544 0.9251 -0.1360
vn 0.2698 0.9586 -0.0914
vn 0.0260 0.9996 -0.0146
vn -0.2150 0.9757 -0.0429
vn 0.0916 0.9757 -0.1991
vn -0.0271 0.9996 0.0125
vn -0.2325 0.9586 0.1645
vn -0.3183 0.9251 0.2068
vn 0.3083 0.9385 -0.1554
vn -0.3665 0.9268 0.0816
vn 0.2083 0.9740 -0.0887
vn 0.3225 0.9465 -0.0125
vn 0.1549 0.9874 0.0309
vn 0.0093 0.9997 0.0217
vn 0.0121 0.9997 0.0203
vn -0.0660 0.9874 0.1435
vn -0.1997 0.9465 0.2536
vn -0.1942 0.9740 0.1164
vn 0.2814 0.9268 -0.2485
vn -0.3407 0.9399 0.0213
vn -0.1236 0.9917 0.0360
vn 0.2854 0.9567 0.0569
vn 0.2605 0.9567 0.1297
vn 0.1495 0.9727 0.1772
vn 0.0555 0.9727 0.2251
vn -0.0482 0.9567 0.2870
vn -0.1217 0.9567 0.2643
vn 0.1017 0.9917 -0.0788
vn 0.2175 0.9399 -0.2631
vn -0.2532 0.9672 -0.0198
vn -0.3309 0.9413 -0.0660
vn -0.0726 0.9945 -0.0753
vn 0.0994 0.9835 0.1514
vn 0.1851 0.9506 0.2493
vn 0.0929 0.9506 0.2963
vn 0.0640 0.9835 0.1694
vn -0.0182 0.9945 -0.1030
vn 0.1411 0.9413 -0.3066
vn 0.1328 0.9672 -0.2165
vn -0.0893 0.9958 -0.0178
vn -0.2281 0.9706 -0.0763
vn -0.2689 0.9523 -0.1442
vn -0.2414 0.9482 -0.2065
vn -0.1248 0.9603 -0.2493
vn -0.1283 0.9603 -0.2475
vn -0.0251 0.9482 -0.3167
vn 0.0414 0.9523 -0.3023
vn 0.0723 0.9706 -0.2294
vn 0.0381 0.9958 -0.0827
vt 0.000000 0.000000
vt 0.100000 0.000000
vt 0.100000 0.100000
vt 0.000000 0.100000
vt 0.200000 0.000000
vt 0.200000 0.100000
vt 0.300000 0.000000
vt 0.300000 0.100000
vt 0.200000 0.100000
vt 0.400000 0.000000
vt 0.400000 0.100000
vt 0.500000 0.000000
vt 0.500000 0.100000
vt 0.600000 0.000000
vt 0.600000 0.100000
vt 0.700000 0.000000
vt 0.700000 0.100000
vt 0.800000 0.000000
vt 0.800000 0.100000
vt 0.900000 0.000000
vt 0.900000 0.100000
vt 1.000000 0.000000
vt 1.000000 0.100000
vt 0.100000 0.200000
vt 0.000000 0.200000
vt 0.200000 0.200000
vt 0.300000 0.200000
vt 0.200000 0.200000
vt 0.400000 0.200000
vt 0.500000 0.200000
vt 0.600000 0.200000
vt 0.700000 0.200000
vt 0.800000 0.200000
vt 0.900000 0.200000
vt 1.000000 0.200000
vt 0.000000 0.200000
vt 0.100000 0.200000
vt 0.100000 0.300000
vt 0.000000 0.300000
vt 0.200000 0.200000
vt 0.200000 0.300000
vt 0.300000 0.200000
vt 0.300000 0.300000
vt 0.200000 0.300000
vt 0.400000 0.200000
vt 0.400000 0.300000
vt 0.500000 0.200000
vt 0.500000 0.300000
vt 0.600000 0.200000
vt 0.600000 0.300000
vt 0.700000 0.200000
vt 0.700000 0.300000
vt 0.800000 0.200000
vt 0.800000 0.300000
vt 0.900000 0.200000
vt 0.900000 0.300000
vt 1.000000 0.200000
vt 1.000000 0.300000
vt 0.100000 0.400000
vt 0.000000 0.400000
vt 0.200000 0.400000
vt 0.300000 0.400000
vt 0.200000 0.400000
vt 0.400000 0.400000
vt 0.500000 0.400000
vt 0.600000 0.400000
vt 0.700000 0.400000
vt 0.800000 0.400000
vt 0.900000 0.400000
vt 1.000000 0.400000
vt 0.100000 0.500000
vt 0.000000 0.500000
vt 0.200000 0.500000
vt 0.300000 0.500000
vt 0.200000 0.500000
vt 0.400000 0.500000
vt 0.500000 0.500000
vt 0.600000 0.500000
vt 0.700000 0.500000
vt 0.800000 0.500000
vt 0.900000 0.500000
vt 1.000000 0.500000
vt 0.100000 0.600000
vt 0.000000 0.600000
vt 0.200000 0.600000
vt 0.300000 0.600000
vt 0.200000 0.600000
vt 0.400000 0.600000
vt 0.500000 0.600000
vt 0.600000 0.600000
vt 0.700000 0.600000
vt 0.800000 0.600000
vt 0.900000 0.600000
vt 1.000000 0.600000
vt 0.100000 0.700000
vt 0.000000 0.700000
vt 0.200000 0.700000
vt 0.300000 0.700000
vt 0.200000 0.700000
vt 0.400000 0.700000
vt 0.500000 0.700000
vt 0.600000 0.700000
vt 0.700000 0.700000
vt 0.800000 0.700000
vt 0.900000 0.700000
vt 1.000000 0.700000
vt 0.100000 0.800000
vt 0.000000 0.800000
vt 0.200000 0.800000
vt 0.300000 0.800000
vt 0.200000 0.800000
vt 0.400000 0.800000
vt 0.500000 0.800000
vt 0.600000 0.800000
vt 0.700000 0.800000
vt 0.800000 0.800000
vt 0.900000 0.800000
vt 1.000000 0.800000
vt 0.100000 0.900000
vt 0.000000 0.900000
vt 0.200000 0.900000
vt 0.300000 0.900000
vt 0.200000 0.900000
vt 0.400000 0.900000
vt 0.500000 0.900000
vt 0.600000 0.900000
vt 0.700000 0.900000
vt 0.800000 0.900000
vt 0.900000 0.900000
vt 1.000000 0.900000
vt 0.100000 1.000000
vt 0.000000 1.000000
vt 0.200000 1.000000
vt 0.300000 1.000000
vt 0.200000 1.000000
vt 0.400000 1.000000
vt 0.500000 1.000000
vt 0.600000 1.000000
vt 0.700000 1.000000
vt 0.800000 1.000000
vt 0.900000 1.000000
vt 1.000000 1.000000
s 0
f 1/1/1 2/2/1 13/3/1 12/4/1
f 2/2/2 3/5/2 14/6/2 13/3/2
f 3/5/3 4/7/3 15/8/3 14/9/3
f 4/7/4 5/10/4 16/11/4 15/8/4
f 5/10/5 6/12/5 17/13/5 16/11/5
f 6/12/6 7/14/6 18/15/6 17/13/6
f 7/14/7 8/16/7 19/17/7 18/15/7
f 8/16/8 9/18/8 20/19/8 19/17/8
f 9/18/9 10/20/9 21/21/9 20/19/9
f 10/20/10 11/22/10 22/23/10 21/21/10
f 12/4/11 13/3/11 24/24/11 23/25/11
f 13/3/12 14/6/12 25/26/12 24/24/12
f 14/6/13 15/8/13 26/27/13 25/28/13
f 15/8/14 16/11/14 27/29/14 26/27/14
f 16/11/15 17/13/15 28/30/15 27/29/15
f 17/13/16 18/15/16 29/31/16 28/30/16
f 18/15/17 19/17/17 30/32/17 29/31/17
f 19/17/18 20/19/18 31/33/18 30/32/18
f 20/19/19 21/21/19 32/34/19 31/33/19
f 21/21/20 22/23/20 33/35/20 32/34/20
f 23/36/21 24/37/21 35/38/21 34/39/21
f 24/37/22 25/40/22 36/41/22 35/38/22
f 25/40/23 26/42/23 37/43/23 36/44/23
f 26/42/24 27/45/24 38/46/24 37/43/24
f 27/45/25 28/47/25 39/48/25 38/46/25
f 28/47/26 29/49/26 40/50/26 39/48/26
f 29/49/27 30/51/27 41/52/27 40/50/27
f 30/51/28 31/53/28 42/54/28 41/52/28
f 31/53/29 32/55/29 43/56/29 42/54/29
f 32/55/30 33/57/30 44/58/30 43/56/30
f 34/39/31 35/38/31 46/59/31 45/60/31
f 35/38/32 36/41/32 47/61/32 46/59/32
f 36/41/33 37/43/33 48/62/33 47/63/33
f 37/43/34 38/46/34 49/64/34 48/62/34
f 38/46/35 39/48/35 50/65/35 49/64/35
f 39/48/36 40/50/36 51/66/36 50/65/36
f 40/50/37 41/52/37 52/67/37 51/66/37
f 41/52/38 42/54/38 53/68/38 52/67/38
f 42/54/39 43/56/39 54/69/39 53/68/39
f 43/56/40 44/58/40 55/70/40 54/69/40
f 45/60/41 46/59/41 57/71/41 56/72/41
f 46/59/42 47/61/42 58/73/42 57/71/42
f 47/61/43 48/62/43 59/74/43 58/75/43
f 48/62/44 49/64/44 60/76/44 59/74/44
f 49/64/45 50/65/45 61/77/45 60/76/45
f 50/65/46 51/66/46 62/78/46 61/77/46
f 51/66/47 52/67/47 63/79/47 62/78/47
f 52/67/48 53/68/48 64/80/48 63/79/48
f 53/68/49 54/69/49 65/81/49 64/80/49
f 54/69/50 55/70/50 66/82/50 65/81/50
f 56/72/51 57/71/51 68/83/51 67/84/51
f 57/71/52 58/73/52 69/85/52 68/83/52
f 58/73/53 59/74/53 70/86/53 69/87/53
f 59/74/54 60/76/54 71/88/54 70/86/54
f 60/76/55 61/77/55 72/89/55 71/88/55
f 61/77/56 62/78/56 73/90/56 72/89/56
f 62/78/57 63/79/57 74/91/57 73/90/57
f 63/79/58 64/80/58 75/92/58 74/91/58
f 64/80/59 65/81/59 76/93/59 75/92/59
f 65/81/60 66/82/60 77/94/60 76/93/60
f 67/84/61 68/83/61 79/95/61 78/96/61
f 68/83/62 69/85/62 80/97/62 79/95/62
f 69/85/63 70/86/63 81/98/63 80/99/63
f 70/86/64 71/88/64 82/100/64 81/98/64
f 71/88/65 72/89/65 83/101/65 82/100/65
f 72/89/66 73/90/66 84/102/66 83/101/66
f 73/90/67 74/91/67 85/103/67 84/102/67
f 74/91/68 75/92/68 86/104/68 85/103/68
f 75/92/69 76/93/69 87/105/69 86/104/69
f 76/93/70 77/94/70 88/106/70 87/105/70
f 78/96/71 79/95/71 90/107/71 89/108/71
f 79/95/72 80/97/72 91/109/72 90/107/72
f 80/97/73 81/98/73 92/110/73 91/111/73
f 81/98/74 82/100/74 93/112/74 92/110/74
f 82/100/75 83/101/75 94/113/75 93/112/75
f 83/101/76 84/102/76 95/114/76 94/113/76
f 84/102/77 85/103/77 96/115/77 95/114/77
f 85/103/78 86/104/78 97/116/78 96/115/78
f 86/104/79 87/105/79 98/117/79 97/116/79
f 87/105/80 88/106/80 99/118/80 98/117/80
f 89/108/81 90/107/81 101/119/81 100/120/81
f 90/107/82 91/109/82 102/121/82 101/119/82
f 91/109/83 92/110/83 103/122/83 102/123/83
f 92/110/84 93/112/84 104/124/84 103/122/84
f 93/112/85 94/113/85 105/125/85 104/124/85
f 94/113/86 95/114/86 106/126/86 105/125/86
f 95/114/87 96/115/87 107/127/87 106/126/87
f 96/115/88 97/116/88 108/128/88 107/127/88
f 97/116/89 98/117/89 109/129/89 108/128/89
f 98/117/90 99/118/90 110/130/90 109/129/90
f 100/120/91 101/119/91 112/131/91 111/132/91
f 101/119/92 102/121/92 113/133/92 112/131/92
f 102/121/93 103/122/93 114/134/93 113/135/93
f 103/122/94 104/124/94 115/136/94 114/134/94
f 104/124/95 105/125/95 116/137/95 115/136/95
f 105/125/96 106/126/96 117/138/96 116/137/96
f 106/126/97 107/127/97 118/139/97 117/138/97
f 107/127/98 108/128/98 119/140/98 118/139/98
f 108/128/99 109/129/99 120/141/99 119/140/99
f 109/129/100 110/130/100 121/142/100 120/141/100
o Liquid_Domain
v -0.430751 335.280212 2.280177
v -0.030579 338.596313 -7.816895
v 7.213599 354.439026 18.664555
v 19.943743 353.905029 4.975348
v -17.359795 354.422974 -9.580912
v 9.640540 351.109924 -15.154206
v -4.374165 371.780640 -27.132586
v -19.068838 370.055450 16.515213
v -4.035129 371.722748 27.602934
v -10.855739 347.230011 11.818755
v -27.421272 371.272491 -4.238412
v 27.345400 373.457550 4.592683
v 27.413399 372.889771 -4.009405
v 3.850277 373.926758 -27.537729
v 4.426661 374.886108 27.468620
v 15.895084 376.317108 19.759678
v -27.256193 374.600067 4.838475
v -16.869150 374.249298 -18.359110
v 18.775898 372.031677 -16.665749
v 17.845655 491.182159 18.527285
v 19.830822 491.245148 -15.824404
v -3.337209 486.818268 -28.345306
v -27.763735 497.000732 4.240624
v 3.495298 486.899567 -28.307667
v 4.260980 488.927307 27.843121
v -4.492904 488.692963 27.819508
v -17.962032 488.460083 18.426546
v 29.856081 490.492676 0.032563
v -25.812719 491.236481 -8.782434
v -14.175644 513.260193 13.798822
v 3.460640 508.923767 22.119114
v -3.541075 510.385132 -21.146887
v 12.429848 514.474487 -14.004977
v 19.114388 513.349121 4.901689
v -13.713149 518.136414 -7.420644
v 2.316033 530.798462 2.225122
vn -0.0207 -0.9888 0.1480
vn 0.0119 -0.8287 -0.5596
vn 0.2733 -0.4875 0.8293
vn 0.7883 -0.5481 0.2797
vn -0.6715 -0.5061 -0.5413
vn 0.3688 -0.5183 -0.7716
vn -0.2091 -0.2130 -0.9544
vn -0.6876 -0.1944 0.6995
vn -0.1691 -0.1900 0.9671
vn -0.4453 -0.6082 0.6571
vn -0.9393 -0.2459 -0.2391
vn 0.9181 -0.1705 0.3578
vn 0.9197 -0.2243 -0.3221
vn 0.1976 -0.1516 -0.9685
vn 0.2377 -0.1271 0.9630
vn 0.6597 -0.1333 0.7396
vn -0.9281 -0.2037 0.3118
vn -0.6616 -0.1443 -0.7359
vn 0.6890 -0.1704 -0.7044
vn 0.6729 0.1626 0.7217
vn 0.7030 0.1395 -0.6974
vn -0.2200 0.1213 -0.9679
vn -0.9375 0.2726 0.2161
vn 0.2159 0.1261 -0.9682
vn 0.2028 0.1197 0.9719
vn -0.2158 0.1261 0.9683
vn -0.6652 0.1090 0.7387
vn 0.9807 0.1950 -0.0142
vn -0.8225 0.1738 -0.5416
vn -0.5144 0.5180 0.6834
vn 0.1145 0.4304 0.8953
vn -0.1400 0.4226 -0.8954
vn 0.4755 0.5452 -0.6904
vn 0.7795 0.5343 0.3269
vn -0.5962 0.6463 -0.4764
vn 0.0663 0.9876 0.1426
s 1
usemtl Liquid_Domain_Material
f 124//103 131//110 122//101
f 124//103 122//101 125//104
f 131//110 126//105 122//101
f 122//101 123//102 125//104
f 123//102 122//101 126//105
f 123//102 127//106 125//104
f 123//102 126//105 128//107
f 124//103 130//109 131//110
f 131//110 132//111 126//105
f 133//112 125//104 134//113
f 125//104 127//106 134//113
f 123//102 128//107 127//106
f 129//108 131//110 130//109
f 128//107 135//114 127//106
f 140//119 127//106 135//114
f 130//109 124//103 136//115
f 131//110 129//108 138//117
f 125//104 137//116 124//103
f 131//110 138//117 132//111
f 134//113 127//106 140//119
f 128//107 126//105 139//118
f 124//103 137//116 136//115
f 133//112 137//116 125//104
f 126//105 132//111 139//118
f 141//120 136//115 137//116
f 138//117 129//108 144//123
f 142//121 134//113 140//119
f 132//111 150//129 139//118
f 135//114 145//124 140//119
f 128//107 143//122 135//114
f 137//116 133//112 141//120
f 129//108 148//127 144//123
f 128//107 139//118 143//122
f 136//115 146//125 130//109
f 138//117 144//123 132//111
f 133//112 134//113 149//128
f 130//109 146//125 147//126
f 130//109 148//127 129//108
f 140//119 145//124 142//121
f 135//114 143//122 145//124
f 149//128 141//120 133//112
f 144//123 150//129 132//111
f 149//128 134//113 142//121
f 139//118 150//129 143//122
f 130//109 147//126 148//127
f 146//125 136//115 141//120
f 148//127 147//126 151//130
f 152//131 151//130 147//126
f 146//125 152//131 147//126
f 152//131 146//125 141//120
f 144//123 148//127 151//130
f 143//122 150//129 153//132
f 154//133 142//121 145//124
f 145//124 143//122 153//132
f 145//124 153//132 154//133
f 141//120 155//134 152//131
f 155//134 141//120 149//128
f 144//123 156//135 150//129
f 149//128 154//133 155//134
f 142//121 154//133 149//128
f 150//129 156//135 153//132
f 155//134 157//136 152//131
f 156//135 144//123 151//130
f 151//130 152//131 157//136
f 156//135 151//130 157//136
f 157//136 155//134 154//133
f 157//136 153//132 156//135
f 154//133 153//132 157//136
o 平面
v -0.900000 -15.535239 0.900000
v 0.900000 -15.535239 0.900000
v -0.900000 -15.535239 -0.900000
v 0.900000 -15.535239 -0.900000
vn -0.0000 1.0000 -0.0000
vt 0.000000 0.000000
vt 1.000000 0.000000
vt 1.000000 1.000000
vt 0.000000 1.000000
s 0
f 158/143/137 159/144/137 161/145/137 160/146/137
