# Blender 4.1.1
# www.blender.org
mtllib bb0003.mtl
o グリッド
v 0.926730 360.000031 -4.643880
v 0.403887 360.000031 -4.377478
v -0.118955 360.120239 -4.111077
v -0.641798 360.230530 -3.844675
v -1.164640 360.296204 -3.578273
v -1.687483 360.317322 -3.311872
v -2.210326 360.296204 -3.045470
v -2.733168 360.230530 -2.779068
v -3.256011 360.120239 -2.512667
v -3.778854 360.000031 -2.246265
v -4.301696 360.000031 -1.979864
v 1.264227 360.000031 -3.981506
v 0.741384 360.163879 -3.715104
v 0.218541 360.317322 -3.448702
v -0.304301 360.409454 -3.182301
v -0.827144 360.446198 -2.915899
v -1.349986 360.453766 -2.649498
v -1.872829 360.446198 -2.383096
v -2.395672 360.409454 -2.116694
v -2.918514 360.317322 -1.850293
v -3.441357 360.163879 -1.583891
v -3.964200 360.000031 -1.317489
v 1.601723 360.120239 -3.319131
v 1.078880 360.317322 -3.052730
v 0.556038 360.436096 -2.786328
v 0.033195 360.457916 -2.519926
v -0.489647 360.426178 -2.253525
v -1.012490 360.405609 -1.987123
v -1.535333 360.426178 -1.720721
v -2.058175 360.457916 -1.454320
v -2.581018 360.436096 -1.187918
v -3.103860 360.317322 -0.921517
v -3.626703 360.120239 -0.655115
v 1.939220 360.230530 -2.656757
v 1.416377 360.409454 -2.390355
v 0.893535 360.457916 -2.123954
v 0.370692 360.379242 -1.857552
v -0.152151 360.259094 -1.591150
v -0.674993 360.202698 -1.324749
v -1.197836 360.259094 -1.058347
v -1.720678 360.379242 -0.791945
v -2.243521 360.457916 -0.525544
v -2.766364 360.409454 -0.259142
v -3.289206 360.230530 0.007259
v 2.276716 360.296204 -1.994382
v 1.753874 360.446198 -1.727981
v 1.231031 360.426178 -1.461579
v 0.708189 360.259094 -1.195178
v 0.185346 360.056549 -0.928776
v -0.337497 360.044128 -0.662374
v -0.860339 360.056549 -0.395973
v -1.383182 360.259094 -0.129571
v -1.906024 360.426178 0.136831
v -2.428867 360.446198 0.403232
v -2.951710 360.296204 0.669634
v 2.614213 360.317322 -1.332008
v 2.091370 360.453766 -1.065606
v 1.568528 360.405609 -0.799205
v 1.045685 360.202698 -0.532803
v 0.522843 360.044128 -0.266402
v 0.000000 360.288086 0.000000
v -0.522843 360.044128 0.266402
v -1.045685 360.202698 0.532803
v -1.568528 360.405609 0.799205
v -2.091371 360.453766 1.065607
v -2.614213 360.317322 1.332008
v 2.951710 360.296204 -0.669634
v 2.428867 360.446198 -0.403232
v 1.906024 360.426178 -0.136830
v 1.383182 360.259094 0.129571
v 0.860339 360.056549 0.395973
v 0.337497 360.044128 0.662374
v -0.185346 360.056549 0.928776
v -0.708188 360.259094 1.195178
v -1.231031 360.426178 1.461579
v -1.753874 360.446198 1.727981
v -2.276716 360.296204 1.994383
v 3.289206 360.230530 -0.007259
v 2.766364 360.409454 0.259142
v 2.243521 360.457916 0.525544
v 1.720678 360.379242 0.791945
v 1.197836 360.259094 1.058347
v 0.674993 360.202698 1.324749
v 0.152151 360.259094 1.591150
v -0.370692 360.379242 1.857552
v -0.893535 360.457916 2.123954
v -1.416377 360.409454 2.390355
v -1.939220 360.230530 2.656757
v 3.626703 360.120239 0.655115
v 3.103860 360.317322 0.921517
v 2.581018 360.436096 1.187918
v 2.058175 360.457916 1.454320
v 1.535332 360.426178 1.720721
v 1.012490 360.405609 1.987123
v 0.489647 360.426178 2.253525
v -0.033195 360.457916 2.519926
v -0.556038 360.436096 2.786328
v -1.078881 360.317322 3.052730
v -1.601723 360.120239 3.319131
v 3.964200 360.000031 1.317490
v 3.441357 360.163879 1.583891
v 2.918514 360.317322 1.850293
v 2.395672 360.409454 2.116694
v 1.872829 360.446198 2.383096
v 1.349987 360.453766 2.649498
v 0.827144 360.446198 2.915900
v 0.304301 360.409454 3.182301
v -0.218541 360.317322 3.448703
v -0.741384 360.163879 3.715104
v -1.264226 360.000031 3.981506
v 4.301696 360.000031 1.979864
v 3.778853 360.000031 2.246265
v 3.256011 360.120239 2.512667
v 2.733168 360.230530 2.779068
v 2.210326 360.296204 3.045470
v 1.687483 360.317322 3.311872
v 1.164640 360.296204 3.578274
v 0.641798 360.230530 3.844675
v 0.118955 360.120239 4.111077
v -0.403888 360.000031 4.377479
v -0.926730 360.000031 4.643880
vn 0.0732 0.9845 -0.1591
vn 0.0924 0.9477 -0.3053
vn 0.0372 0.9562 -0.2904
vn -0.0221 0.9729 -0.2303
vn -0.0645 0.9817 -0.1794
vn -0.1072 0.9817 -0.1576
vn -0.1734 0.9729 -0.1532
vn -0.2567 0.9562 -0.1406
vn -0.3014 0.9477 -0.1047
vn -0.1717 0.9845 -0.0343
vn 0.1793 0.9414 -0.2858
vn 0.1185 0.9590 -0.2574
vn 0.0351 0.9891 -0.1427
vn -0.0049 0.9998 -0.0190
vn 0.0109 0.9989 0.0458
vn 0.0306 0.9989 0.0358
vn -0.0125 0.9998 -0.0151
vn -0.1361 0.9891 -0.0555
vn -0.2779 0.9590 -0.0555
vn -0.3366 0.9414 -0.0229
vn 0.2112 0.9444 -0.2519
vn 0.0910 0.9872 -0.1313
vn -0.0258 0.9981 0.0560
vn -0.0394 0.9787 0.2016
vn 0.0528 0.9684 0.2436
vn 0.1660 0.9684 0.1859
vn 0.1863 0.9787 0.0866
vn 0.0604 0.9981 0.0121
vn -0.1597 0.9872 -0.0036
vn -0.3280 0.9444 0.0228
vn 0.2099 0.9608 -0.1812
vn 0.0200 0.9997 -0.0140
vn -0.1365 0.9739 0.1812
vn -0.1382 0.9438 0.3003
vn 0.0563 0.9702 0.2358
vn 0.1576 0.9702 0.1841
vn 0.3242 0.9438 0.0647
vn 0.2269 0.9739 -0.0039
vn -0.0231 0.9997 0.0080
vn -0.2700 0.9608 0.0633
vn 0.2027 0.9713 -0.1243
vn -0.0477 0.9983 0.0341
vn -0.2452 0.9526 0.1803
vn -0.2417 0.9548 0.1727
vn 0.1019 0.9698 -0.2214
vn -0.2390 0.9698 -0.0477
vn 0.2818 0.9548 -0.0940
vn 0.2900 0.9526 -0.0924
vn 0.0556 0.9983 -0.0186
vn -0.2197 0.9713 0.0909
vn 0.2197 0.9713 -0.0909
vn -0.0556 0.9983 0.0186
vn -0.2900 0.9526 0.0924
vn -0.2818 0.9548 0.0940
vn 0.2390 0.9698 0.0477
vn -0.1019 0.9698 0.2214
vn 0.2417 0.9548 -0.1727
vn 0.2452 0.9526 -0.1803
vn 0.0477 0.9983 -0.0341
vn -0.2027 0.9713 0.1243
vn 0.2700 0.9608 -0.0633
vn 0.0231 0.9997 -0.0080
vn -0.2269 0.9739 0.0039
vn -0.3242 0.9438 -0.0647
vn -0.1576 0.9702 -0.1841
vn -0.0563 0.9702 -0.2358
vn 0.1382 0.9438 -0.3003
vn 0.1365 0.9739 -0.1812
vn -0.0200 0.9997 0.0140
vn -0.2099 0.9608 0.1812
vn 0.3280 0.9444 -0.0228
vn 0.1597 0.9872 0.0036
vn -0.0604 0.9981 -0.0121
vn -0.1863 0.9787 -0.0866
vn -0.1660 0.9684 -0.1859
vn -0.0528 0.9684 -0.2436
vn 0.0394 0.9787 -0.2016
vn 0.0258 0.9981 -0.0560
vn -0.0910 0.9872 0.1313
vn -0.2112 0.9444 0.2519
vn 0.3366 0.9414 0.0229
vn 0.2779 0.9590 0.0555
vn 0.1361 0.9891 0.0555
vn 0.0125 0.9998 0.0151
vn -0.0306 0.9989 -0.0358
vn -0.0109 0.9989 -0.0458
vn 0.0049 0.9998 0.0190
vn -0.0351 0.9891 0.1427
vn -0.1185 0.9590 0.2574
vn -0.1793 0.9414 0.2858
vn 0.1717 0.9845 0.0343
vn 0.3014 0.9477 0.1047
vn 0.2567 0.9562 0.1406
vn 0.1734 0.9729 0.1532
vn 0.1072 0.9817 0.1576
vn 0.0645 0.9817 0.1794
vn 0.0221 0.9729 0.2303
vn -0.0372 0.9562 0.2904
vn -0.0924 0.9477 0.3053
vn -0.0732 0.9845 0.1591
vt 0.000000 0.000000
vt 0.100000 0.000000
vt 0.100000 0.100000
vt 0.000000 0.100000
vt 0.200000 0.000000
vt 0.200000 0.100000
vt 0.300000 0.000000
vt 0.300000 0.100000
vt 0.200000 0.100000
vt 0.400000 0.000000
vt 0.400000 0.100000
vt 0.500000 0.000000
vt 0.500000 0.100000
vt 0.600000 0.000000
vt 0.600000 0.100000
vt 0.700000 0.000000
vt 0.700000 0.100000
vt 0.800000 0.000000
vt 0.800000 0.100000
vt 0.900000 0.000000
vt 0.900000 0.100000
vt 1.000000 0.000000
vt 1.000000 0.100000
vt 0.100000 0.200000
vt 0.000000 0.200000
vt 0.200000 0.200000
vt 0.300000 0.200000
vt 0.200000 0.200000
vt 0.400000 0.200000
vt 0.500000 0.200000
vt 0.600000 0.200000
vt 0.700000 0.200000
vt 0.800000 0.200000
vt 0.900000 0.200000
vt 1.000000 0.200000
vt 0.000000 0.200000
vt 0.100000 0.200000
vt 0.100000 0.300000
vt 0.000000 0.300000
vt 0.200000 0.200000
vt 0.200000 0.300000
vt 0.300000 0.200000
vt 0.300000 0.300000
vt 0.200000 0.300000
vt 0.400000 0.200000
vt 0.400000 0.300000
vt 0.500000 0.200000
vt 0.500000 0.300000
vt 0.600000 0.200000
vt 0.600000 0.300000
vt 0.700000 0.200000
vt 0.700000 0.300000
vt 0.800000 0.200000
vt 0.800000 0.300000
vt 0.900000 0.200000
vt 0.900000 0.300000
vt 1.000000 0.200000
vt 1.000000 0.300000
vt 0.100000 0.400000
vt 0.000000 0.400000
vt 0.200000 0.400000
vt 0.300000 0.400000
vt 0.200000 0.400000
vt 0.400000 0.400000
vt 0.500000 0.400000
vt 0.600000 0.400000
vt 0.700000 0.400000
vt 0.800000 0.400000
vt 0.900000 0.400000
vt 1.000000 0.400000
vt 0.100000 0.500000
vt 0.000000 0.500000
vt 0.200000 0.500000
vt 0.300000 0.500000
vt 0.200000 0.500000
vt 0.400000 0.500000
vt 0.500000 0.500000
vt 0.600000 0.500000
vt 0.700000 0.500000
vt 0.800000 0.500000
vt 0.900000 0.500000
vt 1.000000 0.500000
vt 0.100000 0.600000
vt 0.000000 0.600000
vt 0.200000 0.600000
vt 0.300000 0.600000
vt 0.200000 0.600000
vt 0.400000 0.600000
vt 0.500000 0.600000
vt 0.600000 0.600000
vt 0.700000 0.600000
vt 0.800000 0.600000
vt 0.900000 0.600000
vt 1.000000 0.600000
vt 0.100000 0.700000
vt 0.000000 0.700000
vt 0.200000 0.700000
vt 0.300000 0.700000
vt 0.200000 0.700000
vt 0.400000 0.700000
vt 0.500000 0.700000
vt 0.600000 0.700000
vt 0.700000 0.700000
vt 0.800000 0.700000
vt 0.900000 0.700000
vt 1.000000 0.700000
vt 0.100000 0.800000
vt 0.000000 0.800000
vt 0.200000 0.800000
vt 0.300000 0.800000
vt 0.200000 0.800000
vt 0.400000 0.800000
vt 0.500000 0.800000
vt 0.600000 0.800000
vt 0.700000 0.800000
vt 0.800000 0.800000
vt 0.900000 0.800000
vt 1.000000 0.800000
vt 0.100000 0.900000
vt 0.000000 0.900000
vt 0.200000 0.900000
vt 0.300000 0.900000
vt 0.200000 0.900000
vt 0.400000 0.900000
vt 0.500000 0.900000
vt 0.600000 0.900000
vt 0.700000 0.900000
vt 0.800000 0.900000
vt 0.900000 0.900000
vt 1.000000 0.900000
vt 0.100000 1.000000
vt 0.000000 1.000000
vt 0.200000 1.000000
vt 0.300000 1.000000
vt 0.200000 1.000000
vt 0.400000 1.000000
vt 0.500000 1.000000
vt 0.600000 1.000000
vt 0.700000 1.000000
vt 0.800000 1.000000
vt 0.900000 1.000000
vt 1.000000 1.000000
s 0
f 1/1/1 2/2/1 13/3/1 12/4/1
f 2/2/2 3/5/2 14/6/2 13/3/2
f 3/5/3 4/7/3 15/8/3 14/9/3
f 4/7/4 5/10/4 16/11/4 15/8/4
f 5/10/5 6/12/5 17/13/5 16/11/5
f 6/12/6 7/14/6 18/15/6 17/13/6
f 7/14/7 8/16/7 19/17/7 18/15/7
f 8/16/8 9/18/8 20/19/8 19/17/8
f 9/18/9 10/20/9 21/21/9 20/19/9
f 10/20/10 11/22/10 22/23/10 21/21/10
f 12/4/11 13/3/11 24/24/11 23/25/11
f 13/3/12 14/6/12 25/26/12 24/24/12
f 14/6/13 15/8/13 26/27/13 25/28/13
f 15/8/14 16/11/14 27/29/14 26/27/14
f 16/11/15 17/13/15 28/30/15 27/29/15
f 17/13/16 18/15/16 29/31/16 28/30/16
f 18/15/17 19/17/17 30/32/17 29/31/17
f 19/17/18 20/19/18 31/33/18 30/32/18
f 20/19/19 21/21/19 32/34/19 31/33/19
f 21/21/20 22/23/20 33/35/20 32/34/20
f 23/36/21 24/37/21 35/38/21 34/39/21
f 24/37/22 25/40/22 36/41/22 35/38/22
f 25/40/23 26/42/23 37/43/23 36/44/23
f 26/42/24 27/45/24 38/46/24 37/43/24
f 27/45/25 28/47/25 39/48/25 38/46/25
f 28/47/26 29/49/26 40/50/26 39/48/26
f 29/49/27 30/51/27 41/52/27 40/50/27
f 30/51/28 31/53/28 42/54/28 41/52/28
f 31/53/29 32/55/29 43/56/29 42/54/29
f 32/55/30 33/57/30 44/58/30 43/56/30
f 34/39/31 35/38/31 46/59/31 45/60/31
f 35/38/32 36/41/32 47/61/32 46/59/32
f 36/41/33 37/43/33 48/62/33 47/63/33
f 37/43/34 38/46/34 49/64/34 48/62/34
f 38/46/35 39/48/35 50/65/35 49/64/35
f 39/48/36 40/50/36 51/66/36 50/65/36
f 40/50/37 41/52/37 52/67/37 51/66/37
f 41/52/38 42/54/38 53/68/38 52/67/38
f 42/54/39 43/56/39 54/69/39 53/68/39
f 43/56/40 44/58/40 55/70/40 54/69/40
f 45/60/41 46/59/41 57/71/41 56/72/41
f 46/59/42 47/61/42 58/73/42 57/71/42
f 47/61/43 48/62/43 59/74/43 58/75/43
f 48/62/44 49/64/44 60/76/44 59/74/44
f 49/64/45 50/65/45 61/77/45 60/76/45
f 50/65/46 51/66/46 62/78/46 61/77/46
f 51/66/47 52/67/47 63/79/47 62/78/47
f 52/67/48 53/68/48 64/80/48 63/79/48
f 53/68/49 54/69/49 65/81/49 64/80/49
f 54/69/50 55/70/50 66/82/50 65/81/50
f 56/72/51 57/71/51 68/83/51 67/84/51
f 57/71/52 58/73/52 69/85/52 68/83/52
f 58/73/53 59/74/53 70/86/53 69/87/53
f 59/74/54 60/76/54 71/88/54 70/86/54
f 60/76/55 61/77/55 72/89/55 71/88/55
f 61/77/56 62/78/56 73/90/56 72/89/56
f 62/78/57 63/79/57 74/91/57 73/90/57
f 63/79/58 64/80/58 75/92/58 74/91/58
f 64/80/59 65/81/59 76/93/59 75/92/59
f 65/81/60 66/82/60 77/94/60 76/93/60
f 67/84/61 68/83/61 79/95/61 78/96/61
f 68/83/62 69/85/62 80/97/62 79/95/62
f 69/85/63 70/86/63 81/98/63 80/99/63
f 70/86/64 71/88/64 82/100/64 81/98/64
f 71/88/65 72/89/65 83/101/65 82/100/65
f 72/89/66 73/90/66 84/102/66 83/101/66
f 73/90/67 74/91/67 85/103/67 84/102/67
f 74/91/68 75/92/68 86/104/68 85/103/68
f 75/92/69 76/93/69 87/105/69 86/104/69
f 76/93/70 77/94/70 88/106/70 87/105/70
f 78/96/71 79/95/71 90/107/71 89/108/71
f 79/95/72 80/97/72 91/109/72 90/107/72
f 80/97/73 81/98/73 92/110/73 91/111/73
f 81/98/74 82/100/74 93/112/74 92/110/74
f 82/100/75 83/101/75 94/113/75 93/112/75
f 83/101/76 84/102/76 95/114/76 94/113/76
f 84/102/77 85/103/77 96/115/77 95/114/77
f 85/103/78 86/104/78 97/116/78 96/115/78
f 86/104/79 87/105/79 98/117/79 97/116/79
f 87/105/80 88/106/80 99/118/80 98/117/80
f 89/108/81 90/107/81 101/119/81 100/120/81
f 90/107/82 91/109/82 102/121/82 101/119/82
f 91/109/83 92/110/83 103/122/83 102/123/83
f 92/110/84 93/112/84 104/124/84 103/122/84
f 93/112/85 94/113/85 105/125/85 104/124/85
f 94/113/86 95/114/86 106/126/86 105/125/86
f 95/114/87 96/115/87 107/127/87 106/126/87
f 96/115/88 97/116/88 108/128/88 107/127/88
f 97/116/89 98/117/89 109/129/89 108/128/89
f 98/117/90 99/118/90 110/130/90 109/129/90
f 100/120/91 101/119/91 112/131/91 111/132/91
f 101/119/92 102/121/92 113/133/92 112/131/92
f 102/121/93 103/122/93 114/134/93 113/135/93
f 103/122/94 104/124/94 115/136/94 114/134/94
f 104/124/95 105/125/95 116/137/95 115/136/95
f 105/125/96 106/126/96 117/138/96 116/137/96
f 106/126/97 107/127/97 118/139/97 117/138/97
f 107/127/98 108/128/98 119/140/98 118/139/98
f 108/128/99 109/129/99 120/141/99 119/140/99
f 109/129/100 110/130/100 121/142/100 120/141/100
o Liquid_Domain
v -4.494228 336.842499 6.941932
v 8.622426 340.501434 -9.143572
v 15.745935 354.597748 16.247486
v 30.773739 365.091675 0.044413
v -0.752869 364.557739 -29.473885
v -2.785351 364.668579 29.361477
v -30.735380 363.827118 1.612770
v -22.224928 364.013641 -17.869669
v 12.118359 371.836761 -22.408573
v 9.727304 374.143433 23.527985
v -2.268674 398.364197 1.345560
vn -0.1561 -0.9041 0.3979
vn 0.2376 -0.7762 -0.5840
vn 0.5530 -0.4207 0.7192
vn 0.9993 0.0233 -0.0276
vn -0.0118 -0.0153 -0.9998
vn -0.0710 -0.0194 0.9973
vn -0.9842 -0.0344 0.1738
vn -0.6090 -0.0397 -0.7922
vn 0.4617 0.2445 -0.8527
vn 0.3438 0.3232 0.8817
vn -0.0628 0.9944 0.0844
s 1
usemtl Liquid_Domain_Material
f 123//102 122//101 129//108
f 122//101 123//102 124//103
f 127//106 122//101 124//103
f 123//102 125//104 124//103
f 129//108 122//101 128//107
f 126//105 123//102 129//108
f 122//101 127//106 128//107
f 130//109 125//104 123//102
f 126//105 130//109 123//102
f 131//110 127//106 124//103
f 131//110 124//103 125//104
f 127//106 132//111 128//107
f 127//106 131//110 132//111
f 131//110 125//104 132//111
f 128//107 132//111 129//108
f 132//111 125//104 130//109
f 132//111 126//105 129//108
f 130//109 126//105 132//111
o 平面
v -0.900000 -15.811084 0.900000
v 0.900000 -15.811084 0.900000
v -0.900000 -15.811084 -0.900000
v 0.900000 -15.811084 -0.900000
vn -0.0000 1.0000 -0.0000
vt 0.000000 0.000000
vt 1.000000 0.000000
vt 1.000000 1.000000
vt 0.000000 1.000000
s 0
f 133/143/112 134/144/112 136/145/112 135/146/112
