# Blender 4.1.1
# www.blender.org
mtllib bb0065.mtl
o グリッド
v 0.926730 360.071838 -4.643880
v 0.403887 360.091888 -4.377478
v -0.118955 360.233734 -4.111077
v -0.641798 360.332428 -3.844675
v -1.164640 360.384460 -3.578273
v -1.687483 360.399750 -3.311872
v -2.210326 360.384460 -3.045470
v -2.733168 360.332428 -2.779068
v -3.256011 360.233734 -2.512667
v -3.778854 360.091888 -2.246265
v -4.301696 360.071838 -1.979864
v 1.264227 360.091888 -3.981506
v 0.741384 360.274261 -3.715104
v 0.218541 360.399750 -3.448702
v -0.304301 360.453094 -3.182301
v -0.827144 360.459259 -2.915899
v -1.349986 360.455627 -2.649498
v -1.872829 360.459259 -2.383096
v -2.395672 360.453094 -2.116694
v -2.918514 360.399750 -1.850293
v -3.441357 360.274261 -1.583891
v -3.964200 360.091888 -1.317489
v 1.601723 360.233734 -3.319131
v 1.078880 360.399750 -3.052730
v 0.556038 360.459869 -2.786328
v 0.033195 360.424377 -2.519926
v -0.489647 360.357239 -2.253525
v -1.012490 360.325745 -1.987123
v -1.535333 360.357239 -1.720721
v -2.058175 360.424377 -1.454320
v -2.581018 360.459869 -1.187918
v -3.103860 360.399750 -0.921517
v -3.626703 360.233734 -0.655115
v 1.939220 360.332428 -2.656757
v 1.416377 360.453094 -2.390355
v 0.893535 360.424377 -2.123954
v 0.370692 360.289246 -1.857552
v -0.152151 360.147308 -1.591150
v -0.674993 360.088074 -1.324749
v -1.197836 360.147308 -1.058347
v -1.720678 360.289246 -0.791945
v -2.243521 360.424377 -0.525544
v -2.766364 360.453094 -0.259142
v -3.289206 360.332428 0.007259
v 2.276716 360.384460 -1.994382
v 1.753874 360.459259 -1.727981
v 1.231031 360.357239 -1.461579
v 0.708189 360.147308 -1.195178
v 0.185346 360.055237 -0.928776
v -0.337497 360.158875 -0.662374
v -0.860339 360.055237 -0.395973
v -1.383182 360.147308 -0.129571
v -1.906024 360.357239 0.136831
v -2.428867 360.459259 0.403232
v -2.951710 360.384460 0.669634
v 2.614213 360.399750 -1.332008
v 2.091370 360.455627 -1.065606
v 1.568528 360.325745 -0.799205
v 1.045685 360.088074 -0.532803
v 0.522843 360.158875 -0.266402
v 0.000000 360.378357 0.000000
v -0.522843 360.158875 0.266402
v -1.045685 360.088074 0.532803
v -1.568528 360.325745 0.799205
v -2.091371 360.455627 1.065607
v -2.614213 360.399750 1.332008
v 2.951710 360.384460 -0.669634
v 2.428867 360.459259 -0.403232
v 1.906024 360.357239 -0.136830
v 1.383182 360.147308 0.129571
v 0.860339 360.055237 0.395973
v 0.337497 360.158875 0.662374
v -0.185346 360.055237 0.928776
v -0.708188 360.147308 1.195178
v -1.231031 360.357239 1.461579
v -1.753874 360.459259 1.727981
v -2.276716 360.384460 1.994383
v 3.289206 360.332428 -0.007259
v 2.766364 360.453094 0.259142
v 2.243521 360.424377 0.525544
v 1.720678 360.289246 0.791945
v 1.197836 360.147308 1.058347
v 0.674993 360.088074 1.324749
v 0.152151 360.147308 1.591150
v -0.370692 360.289246 1.857552
v -0.893535 360.424377 2.123954
v -1.416377 360.453094 2.390355
v -1.939220 360.332428 2.656757
v 3.626703 360.233734 0.655115
v 3.103860 360.399750 0.921517
v 2.581018 360.459869 1.187918
v 2.058175 360.424377 1.454320
v 1.535332 360.357239 1.720721
v 1.012490 360.325745 1.987123
v 0.489647 360.357239 2.253525
v -0.033195 360.424377 2.519926
v -0.556038 360.459869 2.786328
v -1.078881 360.399750 3.052730
v -1.601723 360.233734 3.319131
v 3.964200 360.091888 1.317490
v 3.441357 360.274261 1.583891
v 2.918514 360.399750 1.850293
v 2.395672 360.453094 2.116694
v 1.872829 360.459259 2.383096
v 1.349987 360.455627 2.649498
v 0.827144 360.459259 2.915900
v 0.304301 360.453094 3.182301
v -0.218541 360.399750 3.448703
v -0.741384 360.274261 3.715104
v -1.264226 360.091888 3.981506
v 4.301696 360.071838 1.979864
v 3.778853 360.091888 2.246265
v 3.256011 360.233734 2.512667
v 2.733168 360.332428 2.779068
v 2.210326 360.384460 3.045470
v 1.687483 360.399750 3.311872
v 1.164640 360.384460 3.578274
v 0.641798 360.332428 3.844675
v 0.118955 360.233734 4.111077
v -0.403888 360.091888 4.377479
v -0.926730 360.071838 4.643880
vn 0.0897 0.9767 -0.1950
vn 0.0918 0.9505 -0.2968
vn 0.0272 0.9741 -0.2247
vn -0.0154 0.9903 -0.1383
vn -0.0309 0.9961 -0.0825
vn -0.0486 0.9961 -0.0735
vn -0.1028 0.9903 -0.0937
vn -0.1977 0.9741 -0.1101
vn -0.2940 0.9505 -0.1002
vn -0.2105 0.9767 -0.0420
vn 0.1728 0.9447 -0.2787
vn 0.0826 0.9803 -0.1794
vn 0.0040 0.9997 -0.0257
vn -0.0063 0.9948 0.1014
vn 0.0436 0.9876 0.1507
vn 0.0963 0.9876 0.1238
vn 0.0858 0.9948 0.0545
vn -0.0231 0.9997 -0.0119
vn -0.1937 0.9803 -0.0387
vn -0.3270 0.9447 -0.0240
vn 0.1655 0.9667 -0.1953
vn 0.0184 0.9996 -0.0228
vn -0.0761 0.9833 0.1654
vn -0.0512 0.9598 0.2761
vn 0.0647 0.9549 0.2897
vn 0.1963 0.9549 0.2226
vn 0.2535 0.9598 0.1208
vn 0.1786 0.9833 0.0356
vn -0.0293 0.9996 0.0014
vn -0.2553 0.9667 0.0191
vn 0.1288 0.9857 -0.1089
vn -0.0801 0.9930 0.0865
vn -0.1884 0.9508 0.2460
vn -0.1029 0.9692 0.2237
vn 0.0402 0.9992 -0.0044
vn -0.0272 0.9992 0.0299
vn 0.2415 0.9692 0.0482
vn 0.3098 0.9508 -0.0078
vn 0.1171 0.9930 -0.0139
vn -0.1638 0.9857 0.0402
vn 0.0950 0.9938 -0.0572
vn -0.1622 0.9808 0.1086
vn -0.2911 0.9328 0.2123
vn -0.0297 0.9994 -0.0184
vn 0.1384 0.9436 -0.3007
vn -0.3246 0.9436 -0.0648
vn 0.0026 0.9994 -0.0348
vn 0.3428 0.9328 -0.1108
vn 0.1832 0.9808 -0.0673
vn -0.1021 0.9938 0.0433
vn 0.1021 0.9938 -0.0433
vn -0.1832 0.9808 0.0673
vn -0.3428 0.9328 0.1108
vn -0.0026 0.9994 0.0348
vn 0.3246 0.9436 0.0648
vn -0.1384 0.9436 0.3007
vn 0.0297 0.9994 0.0184
vn 0.2911 0.9328 -0.2123
vn 0.1622 0.9808 -0.1086
vn -0.0950 0.9938 0.0572
vn 0.1638 0.9857 -0.0402
vn -0.1171 0.9930 0.0139
vn -0.3098 0.9508 0.0078
vn -0.2415 0.9692 -0.0482
vn 0.0272 0.9992 -0.0299
vn -0.0402 0.9992 0.0044
vn 0.1029 0.9692 -0.2237
vn 0.1884 0.9508 -0.2460
vn 0.0801 0.9930 -0.0865
vn -0.1288 0.9857 0.1089
vn 0.2553 0.9667 -0.0191
vn 0.0293 0.9996 -0.0014
vn -0.1786 0.9833 -0.0356
vn -0.2535 0.9598 -0.1208
vn -0.1963 0.9549 -0.2226
vn -0.0647 0.9549 -0.2897
vn 0.0512 0.9598 -0.2761
vn 0.0761 0.9833 -0.1654
vn -0.0184 0.9996 0.0228
vn -0.1655 0.9667 0.1953
vn 0.3270 0.9447 0.0240
vn 0.1937 0.9803 0.0387
vn 0.0231 0.9997 0.0119
vn -0.0858 0.9948 -0.0545
vn -0.0963 0.9876 -0.1238
vn -0.0436 0.9876 -0.1507
vn 0.0063 0.9948 -0.1014
vn -0.0040 0.9997 0.0257
vn -0.0826 0.9803 0.1794
vn -0.1728 0.9447 0.2787
vn 0.2105 0.9767 0.0420
vn 0.2940 0.9505 0.1002
vn 0.1977 0.9741 0.1101
vn 0.1028 0.9903 0.0937
vn 0.0486 0.9961 0.0735
vn 0.0309 0.9961 0.0825
vn 0.0154 0.9903 0.1383
vn -0.0272 0.9741 0.2247
vn -0.0918 0.9505 0.2968
vn -0.0897 0.9767 0.1950
vt 0.000000 0.000000
vt 0.100000 0.000000
vt 0.100000 0.100000
vt 0.000000 0.100000
vt 0.200000 0.000000
vt 0.200000 0.100000
vt 0.300000 0.000000
vt 0.300000 0.100000
vt 0.200000 0.100000
vt 0.400000 0.000000
vt 0.400000 0.100000
vt 0.500000 0.000000
vt 0.500000 0.100000
vt 0.600000 0.000000
vt 0.600000 0.100000
vt 0.700000 0.000000
vt 0.700000 0.100000
vt 0.800000 0.000000
vt 0.800000 0.100000
vt 0.900000 0.000000
vt 0.900000 0.100000
vt 1.000000 0.000000
vt 1.000000 0.100000
vt 0.100000 0.200000
vt 0.000000 0.200000
vt 0.200000 0.200000
vt 0.300000 0.200000
vt 0.200000 0.200000
vt 0.400000 0.200000
vt 0.500000 0.200000
vt 0.600000 0.200000
vt 0.700000 0.200000
vt 0.800000 0.200000
vt 0.900000 0.200000
vt 1.000000 0.200000
vt 0.000000 0.200000
vt 0.100000 0.200000
vt 0.100000 0.300000
vt 0.000000 0.300000
vt 0.200000 0.200000
vt 0.200000 0.300000
vt 0.300000 0.200000
vt 0.300000 0.300000
vt 0.200000 0.300000
vt 0.400000 0.200000
vt 0.400000 0.300000
vt 0.500000 0.200000
vt 0.500000 0.300000
vt 0.600000 0.200000
vt 0.600000 0.300000
vt 0.700000 0.200000
vt 0.700000 0.300000
vt 0.800000 0.200000
vt 0.800000 0.300000
vt 0.900000 0.200000
vt 0.900000 0.300000
vt 1.000000 0.200000
vt 1.000000 0.300000
vt 0.100000 0.400000
vt 0.000000 0.400000
vt 0.200000 0.400000
vt 0.300000 0.400000
vt 0.200000 0.400000
vt 0.400000 0.400000
vt 0.500000 0.400000
vt 0.600000 0.400000
vt 0.700000 0.400000
vt 0.800000 0.400000
vt 0.900000 0.400000
vt 1.000000 0.400000
vt 0.100000 0.500000
vt 0.000000 0.500000
vt 0.200000 0.500000
vt 0.300000 0.500000
vt 0.200000 0.500000
vt 0.400000 0.500000
vt 0.500000 0.500000
vt 0.600000 0.500000
vt 0.700000 0.500000
vt 0.800000 0.500000
vt 0.900000 0.500000
vt 1.000000 0.500000
vt 0.100000 0.600000
vt 0.000000 0.600000
vt 0.200000 0.600000
vt 0.300000 0.600000
vt 0.200000 0.600000
vt 0.400000 0.600000
vt 0.500000 0.600000
vt 0.600000 0.600000
vt 0.700000 0.600000
vt 0.800000 0.600000
vt 0.900000 0.600000
vt 1.000000 0.600000
vt 0.100000 0.700000
vt 0.000000 0.700000
vt 0.200000 0.700000
vt 0.300000 0.700000
vt 0.200000 0.700000
vt 0.400000 0.700000
vt 0.500000 0.700000
vt 0.600000 0.700000
vt 0.700000 0.700000
vt 0.800000 0.700000
vt 0.900000 0.700000
vt 1.000000 0.700000
vt 0.100000 0.800000
vt 0.000000 0.800000
vt 0.200000 0.800000
vt 0.300000 0.800000
vt 0.200000 0.800000
vt 0.400000 0.800000
vt 0.500000 0.800000
vt 0.600000 0.800000
vt 0.700000 0.800000
vt 0.800000 0.800000
vt 0.900000 0.800000
vt 1.000000 0.800000
vt 0.100000 0.900000
vt 0.000000 0.900000
vt 0.200000 0.900000
vt 0.300000 0.900000
vt 0.200000 0.900000
vt 0.400000 0.900000
vt 0.500000 0.900000
vt 0.600000 0.900000
vt 0.700000 0.900000
vt 0.800000 0.900000
vt 0.900000 0.900000
vt 1.000000 0.900000
vt 0.100000 1.000000
vt 0.000000 1.000000
vt 0.200000 1.000000
vt 0.300000 1.000000
vt 0.200000 1.000000
vt 0.400000 1.000000
vt 0.500000 1.000000
vt 0.600000 1.000000
vt 0.700000 1.000000
vt 0.800000 1.000000
vt 0.900000 1.000000
vt 1.000000 1.000000
s 0
f 1/1/1 2/2/1 13/3/1 12/4/1
f 2/2/2 3/5/2 14/6/2 13/3/2
f 3/5/3 4/7/3 15/8/3 14/9/3
f 4/7/4 5/10/4 16/11/4 15/8/4
f 5/10/5 6/12/5 17/13/5 16/11/5
f 6/12/6 7/14/6 18/15/6 17/13/6
f 7/14/7 8/16/7 19/17/7 18/15/7
f 8/16/8 9/18/8 20/19/8 19/17/8
f 9/18/9 10/20/9 21/21/9 20/19/9
f 10/20/10 11/22/10 22/23/10 21/21/10
f 12/4/11 13/3/11 24/24/11 23/25/11
f 13/3/12 14/6/12 25/26/12 24/24/12
f 14/6/13 15/8/13 26/27/13 25/28/13
f 15/8/14 16/11/14 27/29/14 26/27/14
f 16/11/15 17/13/15 28/30/15 27/29/15
f 17/13/16 18/15/16 29/31/16 28/30/16
f 18/15/17 19/17/17 30/32/17 29/31/17
f 19/17/18 20/19/18 31/33/18 30/32/18
f 20/19/19 21/21/19 32/34/19 31/33/19
f 21/21/20 22/23/20 33/35/20 32/34/20
f 23/36/21 24/37/21 35/38/21 34/39/21
f 24/37/22 25/40/22 36/41/22 35/38/22
f 25/40/23 26/42/23 37/43/23 36/44/23
f 26/42/24 27/45/24 38/46/24 37/43/24
f 27/45/25 28/47/25 39/48/25 38/46/25
f 28/47/26 29/49/26 40/50/26 39/48/26
f 29/49/27 30/51/27 41/52/27 40/50/27
f 30/51/28 31/53/28 42/54/28 41/52/28
f 31/53/29 32/55/29 43/56/29 42/54/29
f 32/55/30 33/57/30 44/58/30 43/56/30
f 34/39/31 35/38/31 46/59/31 45/60/31
f 35/38/32 36/41/32 47/61/32 46/59/32
f 36/41/33 37/43/33 48/62/33 47/63/33
f 37/43/34 38/46/34 49/64/34 48/62/34
f 38/46/35 39/48/35 50/65/35 49/64/35
f 39/48/36 40/50/36 51/66/36 50/65/36
f 40/50/37 41/52/37 52/67/37 51/66/37
f 41/52/38 42/54/38 53/68/38 52/67/38
f 42/54/39 43/56/39 54/69/39 53/68/39
f 43/56/40 44/58/40 55/70/40 54/69/40
f 45/60/41 46/59/41 57/71/41 56/72/41
f 46/59/42 47/61/42 58/73/42 57/71/42
f 47/61/43 48/62/43 59/74/43 58/75/43
f 48/62/44 49/64/44 60/76/44 59/74/44
f 49/64/45 50/65/45 61/77/45 60/76/45
f 50/65/46 51/66/46 62/78/46 61/77/46
f 51/66/47 52/67/47 63/79/47 62/78/47
f 52/67/48 53/68/48 64/80/48 63/79/48
f 53/68/49 54/69/49 65/81/49 64/80/49
f 54/69/50 55/70/50 66/82/50 65/81/50
f 56/72/51 57/71/51 68/83/51 67/84/51
f 57/71/52 58/73/52 69/85/52 68/83/52
f 58/73/53 59/74/53 70/86/53 69/87/53
f 59/74/54 60/76/54 71/88/54 70/86/54
f 60/76/55 61/77/55 72/89/55 71/88/55
f 61/77/56 62/78/56 73/90/56 72/89/56
f 62/78/57 63/79/57 74/91/57 73/90/57
f 63/79/58 64/80/58 75/92/58 74/91/58
f 64/80/59 65/81/59 76/93/59 75/92/59
f 65/81/60 66/82/60 77/94/60 76/93/60
f 67/84/61 68/83/61 79/95/61 78/96/61
f 68/83/62 69/85/62 80/97/62 79/95/62
f 69/85/63 70/86/63 81/98/63 80/99/63
f 70/86/64 71/88/64 82/100/64 81/98/64
f 71/88/65 72/89/65 83/101/65 82/100/65
f 72/89/66 73/90/66 84/102/66 83/101/66
f 73/90/67 74/91/67 85/103/67 84/102/67
f 74/91/68 75/92/68 86/104/68 85/103/68
f 75/92/69 76/93/69 87/105/69 86/104/69
f 76/93/70 77/94/70 88/106/70 87/105/70
f 78/96/71 79/95/71 90/107/71 89/108/71
f 79/95/72 80/97/72 91/109/72 90/107/72
f 80/97/73 81/98/73 92/110/73 91/111/73
f 81/98/74 82/100/74 93/112/74 92/110/74
f 82/100/75 83/101/75 94/113/75 93/112/75
f 83/101/76 84/102/76 95/114/76 94/113/76
f 84/102/77 85/103/77 96/115/77 95/114/77
f 85/103/78 86/104/78 97/116/78 96/115/78
f 86/104/79 87/105/79 98/117/79 97/116/79
f 87/105/80 88/106/80 99/118/80 98/117/80
f 89/108/81 90/107/81 101/119/81 100/120/81
f 90/107/82 91/109/82 102/121/82 101/119/82
f 91/109/83 92/110/83 103/122/83 102/123/83
f 92/110/84 93/112/84 104/124/84 103/122/84
f 93/112/85 94/113/85 105/125/85 104/124/85
f 94/113/86 95/114/86 106/126/86 105/125/86
f 95/114/87 96/115/87 107/127/87 106/126/87
f 96/115/88 97/116/88 108/128/88 107/127/88
f 97/116/89 98/117/89 109/129/89 108/128/89
f 98/117/90 99/118/90 110/130/90 109/129/90
f 100/120/91 101/119/91 112/131/91 111/132/91
f 101/119/92 102/121/92 113/133/92 112/131/92
f 102/121/93 103/122/93 114/134/93 113/135/93
f 103/122/94 104/124/94 115/136/94 114/134/94
f 104/124/95 105/125/95 116/137/95 115/136/95
f 105/125/96 106/126/96 117/138/96 116/137/96
f 106/126/97 107/127/97 118/139/97 117/138/97
f 107/127/98 108/128/98 119/140/98 118/139/98
f 108/128/99 109/129/99 120/141/99 119/140/99
f 109/129/100 110/130/100 121/142/100 120/141/100
o Liquid_Domain
v -0.430840 335.280304 2.280097
v -0.030425 338.596344 -7.816731
v -6.205062 350.203949 15.964462
v 7.213335 354.439056 18.664860
v 19.941210 353.905762 4.980114
v 9.640704 351.110260 -15.154144
v -15.157464 346.396118 0.355936
v -4.378965 363.341248 -23.540024
v -21.626356 368.577271 13.185146
v -3.314048 371.534607 27.677448
v -28.104593 372.081543 0.007481
v 27.279079 373.260254 4.581385
v 27.448816 372.756409 -3.775563
v -18.370333 367.166687 -16.208740
v 2.674052 373.009247 -27.622480
v 4.189630 374.753632 27.511356
v 15.846269 376.149475 19.765438
v -15.506262 377.744019 20.100204
v -24.856737 377.899292 -8.509083
v 19.185905 371.843689 -16.216036
v -3.847241 378.424194 -27.518173
v 8.098249 377.615204 -25.130632
v -16.019861 609.261169 20.372154
v -19.765610 551.996948 16.430323
v -19.632782 557.694031 -16.255167
v 20.128836 549.771484 15.954004
v 14.941906 610.824341 21.137587
v -13.890522 610.873657 -21.682255
v -28.145885 613.782227 5.537954
v 29.023266 553.266357 3.234334
v 28.263262 556.200317 -4.698332
v -2.417225 557.723145 -29.351435
v 2.600553 557.104614 -29.341431
v 5.027048 547.120972 27.938900
v -5.050603 549.353638 28.004271
v 15.708569 557.791626 -20.170843
v -27.606428 616.608154 -6.607665
v 3.812171 616.519287 28.795538
v 26.796503 621.971252 8.313424
v 23.258951 617.732056 -12.819603
v -11.501654 636.705444 -25.246262
v -7.829379 619.401855 27.372555
v 31.208368 620.521362 0.117576
v -0.862409 621.565247 -31.428337
v 2.326072 615.319641 -30.288258
v -0.052604 624.790283 32.349907
v -34.471207 638.583618 -3.014047
v -16.855169 645.138855 21.062258
v -32.260246 645.735962 5.089647
v 27.772419 642.015015 -9.313690
v 3.798268 642.498169 -33.044994
v -5.002244 642.882019 32.828148
v 4.829761 643.993530 32.652554
v 32.654514 642.827820 4.567457
v 33.788654 647.063843 -1.305016
v -2.269709 646.121399 -32.835274
v 5.629457 653.858154 26.863520
v -13.480649 664.538025 16.354626
v 16.197069 661.479614 15.844559
v -14.959307 664.119507 -14.979173
v -22.632721 661.544189 -1.499722
v 16.239981 657.594482 -17.190723
v -3.051971 661.442871 22.995443
v 1.678679 660.940063 -22.814817
v 18.695602 665.548767 3.421921
v 12.455647 665.719299 -14.085614
vn 0.0290 -0.9762 0.2148
vn -0.0032 -0.8101 -0.5863
vn -0.2935 -0.5614 0.7738
vn 0.3148 -0.4762 0.8211
vn 0.7879 -0.5483 0.2803
vn 0.3995 -0.5203 -0.7548
vn -0.7640 -0.6449 -0.0202
vn -0.2087 -0.3943 -0.8950
vn -0.7585 -0.2459 0.6035
vn -0.1525 -0.1924 0.9694
vn -0.9739 -0.2269 -0.0024
vn 0.9184 -0.1686 0.3579
vn 0.9250 -0.2245 -0.3065
vn -0.6595 -0.2714 -0.7010
vn 0.1220 -0.1835 -0.9754
vn 0.2425 -0.1236 0.9622
vn 0.6580 -0.1339 0.7410
vn -0.6207 -0.0788 0.7801
vn -0.8599 -0.0758 -0.5048
vn 0.6991 -0.1797 -0.6921
vn -0.2567 -0.0725 -0.9638
vn 0.5263 -0.0786 -0.8467
vn -0.6912 -0.0218 0.7224
vn -0.7532 -0.0016 0.6578
vn -0.7119 -0.0046 -0.7022
vn 0.7568 -0.0042 0.6536
vn 0.6614 -0.0171 0.7498
vn -0.7007 -0.0201 -0.7131
vn -0.9227 -0.0742 0.3782
vn 0.9586 -0.0146 0.2844
vn 0.9110 -0.0139 -0.4123
vn -0.2256 -0.0115 -0.9741
vn 0.2306 -0.0061 -0.9730
vn 0.2351 -0.0058 0.9720
vn -0.2318 -0.0078 0.9727
vn 0.6591 0.0056 -0.7520
vn -0.8697 -0.0838 -0.4864
vn 0.1971 -0.1348 0.9711
vn 0.7891 -0.0508 0.6122
vn 0.7485 -0.0320 -0.6623
vn -0.6663 0.0384 -0.7447
vn -0.4426 -0.1022 0.8909
vn 0.9965 -0.0698 -0.0457
vn -0.1350 -0.0739 -0.9881
vn 0.4142 -0.0563 -0.9084
vn 0.0067 -0.1961 0.9806
vn -0.9436 0.0864 -0.3197
vn -0.6884 0.1228 0.7149
vn -0.8868 0.2337 0.3987
vn 0.7645 0.0533 -0.6424
vn 0.2269 0.0853 -0.9702
vn -0.2372 0.1344 0.9621
vn 0.2361 0.1625 0.9580
vn 0.8607 0.1188 0.4951
vn 0.9351 0.2835 -0.2126
vn -0.1690 0.2144 -0.9620
vn 0.2762 0.4998 0.8209
vn -0.4229 0.7264 0.5417
vn 0.5136 0.6185 0.5948
vn -0.4908 0.6685 -0.5588
vn -0.6570 0.7493 -0.0831
vn 0.6132 0.3810 -0.6919
vn -0.0814 0.6496 0.7559
vn 0.0906 0.6245 -0.7758
vn 0.4600 0.8822 0.1010
vn 0.4131 0.8199 -0.3963
s 1
usemtl Liquid_Domain_Material
f 122//101 124//103 128//107
f 125//104 124//103 122//101
f 125//104 122//101 126//105
f 122//101 123//102 126//105
f 123//102 122//101 128//107
f 123//102 127//106 126//105
f 123//102 128//107 135//114
f 123//102 135//114 129//108
f 125//104 131//110 124//103
f 124//103 130//109 128//107
f 128//107 130//109 132//111
f 133//112 126//105 134//113
f 135//114 128//107 132//111
f 126//105 127//106 134//113
f 123//102 129//108 127//106
f 130//109 124//103 131//110
f 129//108 136//115 127//106
f 141//120 127//106 136//115
f 131//110 125//104 137//116
f 126//105 138//117 125//104
f 134//113 127//106 141//120
f 139//118 130//109 131//110
f 125//104 138//117 137//116
f 133//112 138//117 126//105
f 132//111 140//119 135//114
f 142//121 129//108 135//114
f 136//115 143//122 141//120
f 142//121 136//115 129//108
f 139//118 131//110 144//123
f 140//119 146//125 135//114
f 135//114 146//125 142//121
f 141//120 143//122 157//136
f 138//117 133//112 147//126
f 148//127 137//116 138//117
f 139//118 145//124 130//109
f 142//121 146//125 149//128
f 130//109 145//124 150//129
f 150//129 132//111 130//109
f 133//112 134//113 151//130
f 158//137 140//119 132//111
f 131//110 156//135 144//123
f 151//130 147//126 133//112
f 152//131 134//113 141//120
f 143//122 136//115 154//133
f 154//133 157//136 143//122
f 155//134 137//116 148//127
f 139//118 144//123 145//124
f 151//130 134//113 152//131
f 142//121 153//132 136//115
f 137//116 155//134 131//110
f 131//110 155//134 156//135
f 141//120 157//136 152//131
f 138//117 147//126 148//127
f 150//129 158//137 132//111
f 142//121 149//128 153//132
f 136//115 153//132 154//133
f 140//119 158//137 146//125
f 156//135 163//142 144//123
f 147//126 151//130 160//139
f 147//126 160//139 148//127
f 145//124 144//123 150//129
f 152//131 157//136 161//140
f 153//132 149//128 162//141
f 155//134 159//138 156//135
f 155//134 148//127 159//138
f 156//135 159//138 163//142
f 164//143 160//139 151//130
f 151//130 152//131 164//143
f 164//143 152//131 161//140
f 149//128 146//125 158//137
f 157//136 154//133 161//140
f 154//133 153//132 166//145
f 153//132 165//144 166//145
f 154//133 166//145 161//140
f 153//132 162//141 165//144
f 163//142 159//138 167//146
f 150//129 168//147 158//137
f 163//142 173//152 169//148
f 163//142 167//146 173//152
f 159//138 174//153 167//146
f 159//138 148//127 174//153
f 169//148 144//123 163//142
f 148//127 160//139 174//153
f 150//129 144//123 170//149
f 150//129 170//149 168//147
f 171//150 164//143 161//140
f 172//151 161//140 166//145
f 169//148 170//149 144//123
f 160//139 175//154 174//153
f 175//154 160//139 164//143
f 175//154 164//143 176//155
f 164//143 171//150 176//155
f 168//147 162//141 158//137
f 162//141 149//128 158//137
f 161//140 172//151 171//150
f 165//144 162//141 177//156
f 172//151 166//145 165//144
f 167//146 174//153 173//152
f 165//144 177//156 172//151
f 179//158 169//148 173//152
f 174//153 180//159 178//157
f 175//154 180//159 174//153
f 168//147 181//160 162//141
f 177//156 162//141 181//160
f 172//151 183//162 171//150
f 174//153 184//163 173//152
f 178//157 184//163 174//153
f 168//147 170//149 182//161
f 177//156 185//164 172//151
f 179//158 173//152 184//163
f 169//148 179//158 170//149
f 176//155 180//159 175//154
f 182//161 181//160 168//147
f 171//150 183//162 176//155
f 185//164 183//162 172//151
f 180//159 184//163 178//157
f 182//161 170//149 179//158
f 180//159 176//155 186//165
f 187//166 186//165 183//162
f 186//165 176//155 183//162
f 181//160 185//164 177//156
f 185//164 187//166 183//162
f 180//159 186//165 184//163
f 186//165 179//158 184//163
f 187//166 181//160 179//158
f 186//165 187//166 179//158
f 179//158 181//160 182//161
f 187//166 185//164 181//160
o 平面
v -0.900000 -15.554341 0.900000
v 0.900000 -15.554341 0.900000
v -0.900000 -15.554341 -0.900000
v 0.900000 -15.554341 -0.900000
vn -0.0000 1.0000 -0.0000
vt 0.000000 0.000000
vt 1.000000 0.000000
vt 1.000000 1.000000
vt 0.000000 1.000000
s 0
f 188/143/167 189/144/167 191/145/167 190/146/167
