# Blender 4.1.1
# www.blender.org
mtllib bb0073.mtl
o グリッド
v 0.926730 360.140045 -4.643880
v 0.403887 360.024567 -4.377478
v -0.118955 360.167114 -4.111077
v -0.641798 360.274170 -3.844675
v -1.164640 360.335236 -3.578273
v -1.687483 360.354279 -3.311872
v -2.210326 360.335236 -3.045470
v -2.733168 360.274170 -2.779068
v -3.256011 360.167114 -2.512667
v -3.778854 360.024567 -2.246265
v -4.301696 360.140045 -1.979864
v 1.264227 360.024567 -3.981506
v 0.741384 360.210083 -3.715104
v 0.218541 360.354279 -3.448702
v -0.304301 360.431885 -3.182301
v -0.827144 360.456543 -2.915899
v -1.349986 360.459595 -2.649498
v -1.872829 360.456543 -2.383096
v -2.395672 360.431885 -2.116694
v -2.918514 360.354279 -1.850293
v -3.441357 360.210083 -1.583891
v -3.964200 360.024567 -1.317489
v 1.601723 360.167114 -3.319131
v 1.078880 360.354279 -3.052730
v 0.556038 360.450714 -2.786328
v 0.033195 360.449066 -2.519926
v -0.489647 360.402100 -2.253525
v -1.012490 360.376648 -1.987123
v -1.535333 360.402100 -1.720721
v -2.058175 360.449066 -1.454320
v -2.581018 360.450714 -1.187918
v -3.103860 360.354279 -0.921517
v -3.626703 360.167114 -0.655115
v 1.939220 360.274170 -2.656757
v 1.416377 360.431885 -2.390355
v 0.893535 360.449066 -2.123954
v 0.370692 360.345642 -1.857552
v -0.152151 360.214661 -1.591150
v -0.674993 360.156342 -1.324749
v -1.197836 360.214661 -1.058347
v -1.720678 360.345642 -0.791945
v -2.243521 360.449066 -0.525544
v -2.766364 360.431885 -0.259142
v -3.289206 360.274170 0.007259
v 2.276716 360.335236 -1.994382
v 1.753874 360.456543 -1.727981
v 1.231031 360.402100 -1.461579
v 0.708189 360.214661 -1.195178
v 0.185346 360.010834 -0.928776
v -0.337497 360.090607 -0.662374
v -0.860339 360.010834 -0.395973
v -1.383182 360.214661 -0.129571
v -1.906024 360.402100 0.136831
v -2.428867 360.456543 0.403232
v -2.951710 360.335236 0.669634
v 2.614213 360.354279 -1.332008
v 2.091370 360.459595 -1.065606
v 1.568528 360.376648 -0.799205
v 1.045685 360.156342 -0.532803
v 0.522843 360.090607 -0.266402
v 0.000000 360.327820 0.000000
v -0.522843 360.090607 0.266402
v -1.045685 360.156342 0.532803
v -1.568528 360.376648 0.799205
v -2.091371 360.459595 1.065607
v -2.614213 360.354279 1.332008
v 2.951710 360.335236 -0.669634
v 2.428867 360.456543 -0.403232
v 1.906024 360.402100 -0.136830
v 1.383182 360.214661 0.129571
v 0.860339 360.010834 0.395973
v 0.337497 360.090607 0.662374
v -0.185346 360.010834 0.928776
v -0.708188 360.214661 1.195178
v -1.231031 360.402100 1.461579
v -1.753874 360.456543 1.727981
v -2.276716 360.335236 1.994383
v 3.289206 360.274170 -0.007259
v 2.766364 360.431885 0.259142
v 2.243521 360.449066 0.525544
v 1.720678 360.345642 0.791945
v 1.197836 360.214661 1.058347
v 0.674993 360.156342 1.324749
v 0.152151 360.214661 1.591150
v -0.370692 360.345642 1.857552
v -0.893535 360.449066 2.123954
v -1.416377 360.431885 2.390355
v -1.939220 360.274170 2.656757
v 3.626703 360.167114 0.655115
v 3.103860 360.354279 0.921517
v 2.581018 360.450714 1.187918
v 2.058175 360.449066 1.454320
v 1.535332 360.402100 1.720721
v 1.012490 360.376648 1.987123
v 0.489647 360.402100 2.253525
v -0.033195 360.449066 2.519926
v -0.556038 360.450714 2.786328
v -1.078881 360.354279 3.052730
v -1.601723 360.167114 3.319131
v 3.964200 360.024567 1.317490
v 3.441357 360.210083 1.583891
v 2.918514 360.354279 1.850293
v 2.395672 360.431885 2.116694
v 1.872829 360.456543 2.383096
v 1.349987 360.459595 2.649498
v 0.827144 360.456543 2.915900
v 0.304301 360.431885 3.182301
v -0.218541 360.354279 3.448703
v -0.741384 360.210083 3.715104
v -1.264226 360.024567 3.981506
v 4.301696 360.140045 1.979864
v 3.778853 360.024567 2.246265
v 3.256011 360.167114 2.512667
v 2.733168 360.274170 2.779068
v 2.210326 360.335236 3.045470
v 1.687483 360.354279 3.311872
v 1.164640 360.335236 3.578274
v 0.641798 360.274170 3.844675
v 0.118955 360.167114 4.111077
v -0.403888 360.024567 4.377479
v -0.926730 360.140045 4.643880
vn 0.0317 0.9971 -0.0689
vn 0.0981 0.9439 -0.3155
vn 0.0336 0.9629 -0.2678
vn -0.0197 0.9803 -0.1964
vn -0.0518 0.9884 -0.1427
vn -0.0850 0.9884 -0.1258
vn -0.1473 0.9803 -0.1314
vn -0.2364 0.9629 -0.1302
vn -0.3129 0.9439 -0.1061
vn -0.0743 0.9971 -0.0148
vn 0.1831 0.9374 -0.2962
vn 0.1057 0.9675 -0.2296
vn 0.0229 0.9950 -0.0970
vn -0.0056 0.9995 0.0309
vn 0.0248 0.9956 0.0906
vn 0.0587 0.9956 0.0733
vn 0.0283 0.9995 0.0137
vn -0.0919 0.9950 -0.0385
vn -0.2478 0.9675 -0.0495
vn -0.3473 0.9374 -0.0259
vn 0.1957 0.9527 -0.2325
vn 0.0627 0.9941 -0.0890
vn -0.0474 0.9936 0.1030
vn -0.0449 0.9707 0.2360
vn 0.0586 0.9621 0.2663
vn 0.1810 0.9621 0.2039
vn 0.2174 0.9707 0.1024
vn 0.1111 0.9936 0.0222
vn -0.1088 0.9941 -0.0016
vn -0.3031 0.9527 0.0217
vn 0.1803 0.9714 -0.1547
vn -0.0214 0.9994 0.0278
vn -0.1605 0.9641 0.2113
vn -0.1428 0.9399 0.3103
vn 0.0970 0.9838 0.1507
vn 0.0649 0.9838 0.1671
vn 0.3350 0.9399 0.0668
vn 0.2653 0.9641 -0.0057
vn 0.0351 0.9994 -0.0010
vn -0.2312 0.9714 0.0549
vn 0.1623 0.9818 -0.0991
vn -0.0968 0.9931 0.0661
vn -0.2679 0.9433 0.1961
vn -0.2058 0.9745 0.0891
vn 0.1360 0.9456 -0.2956
vn -0.3191 0.9456 -0.0637
vn 0.1930 0.9745 -0.1141
vn 0.3161 0.9433 -0.1014
vn 0.1104 0.9931 -0.0394
vn -0.1755 0.9818 0.0731
vn 0.1755 0.9818 -0.0731
vn -0.1104 0.9931 0.0394
vn -0.3161 0.9433 0.1014
vn -0.1930 0.9745 0.1141
vn 0.3191 0.9456 0.0637
vn -0.1360 0.9456 0.2956
vn 0.2058 0.9745 -0.0891
vn 0.2679 0.9433 -0.1961
vn 0.0968 0.9931 -0.0661
vn -0.1623 0.9818 0.0991
vn 0.2312 0.9714 -0.0549
vn -0.0351 0.9994 0.0010
vn -0.2653 0.9641 0.0057
vn -0.3350 0.9399 -0.0668
vn -0.0649 0.9838 -0.1671
vn -0.0970 0.9838 -0.1507
vn 0.1428 0.9399 -0.3103
vn 0.1605 0.9641 -0.2113
vn 0.0214 0.9994 -0.0278
vn -0.1803 0.9714 0.1547
vn 0.3031 0.9527 -0.0217
vn 0.1088 0.9941 0.0016
vn -0.1111 0.9936 -0.0222
vn -0.2174 0.9707 -0.1024
vn -0.1810 0.9621 -0.2039
vn -0.0586 0.9621 -0.2663
vn 0.0449 0.9707 -0.2360
vn 0.0474 0.9936 -0.1030
vn -0.0627 0.9941 0.0890
vn -0.1957 0.9527 0.2325
vn 0.3473 0.9374 0.0259
vn 0.2478 0.9675 0.0495
vn 0.0919 0.9950 0.0385
vn -0.0283 0.9995 -0.0137
vn -0.0587 0.9956 -0.0733
vn -0.0248 0.9956 -0.0906
vn 0.0056 0.9995 -0.0309
vn -0.0229 0.9950 0.0970
vn -0.1057 0.9675 0.2296
vn -0.1831 0.9374 0.2962
vn 0.0743 0.9971 0.0148
vn 0.3129 0.9439 0.1061
vn 0.2364 0.9629 0.1302
vn 0.1473 0.9803 0.1314
vn 0.0850 0.9884 0.1258
vn 0.0518 0.9884 0.1427
vn 0.0197 0.9803 0.1964
vn -0.0336 0.9629 0.2678
vn -0.0981 0.9439 0.3155
vn -0.0317 0.9971 0.0689
vt 0.000000 0.000000
vt 0.100000 0.000000
vt 0.100000 0.100000
vt 0.000000 0.100000
vt 0.200000 0.000000
vt 0.200000 0.100000
vt 0.300000 0.000000
vt 0.300000 0.100000
vt 0.200000 0.100000
vt 0.400000 0.000000
vt 0.400000 0.100000
vt 0.500000 0.000000
vt 0.500000 0.100000
vt 0.600000 0.000000
vt 0.600000 0.100000
vt 0.700000 0.000000
vt 0.700000 0.100000
vt 0.800000 0.000000
vt 0.800000 0.100000
vt 0.900000 0.000000
vt 0.900000 0.100000
vt 1.000000 0.000000
vt 1.000000 0.100000
vt 0.100000 0.200000
vt 0.000000 0.200000
vt 0.200000 0.200000
vt 0.300000 0.200000
vt 0.200000 0.200000
vt 0.400000 0.200000
vt 0.500000 0.200000
vt 0.600000 0.200000
vt 0.700000 0.200000
vt 0.800000 0.200000
vt 0.900000 0.200000
vt 1.000000 0.200000
vt 0.000000 0.200000
vt 0.100000 0.200000
vt 0.100000 0.300000
vt 0.000000 0.300000
vt 0.200000 0.200000
vt 0.200000 0.300000
vt 0.300000 0.200000
vt 0.300000 0.300000
vt 0.200000 0.300000
vt 0.400000 0.200000
vt 0.400000 0.300000
vt 0.500000 0.200000
vt 0.500000 0.300000
vt 0.600000 0.200000
vt 0.600000 0.300000
vt 0.700000 0.200000
vt 0.700000 0.300000
vt 0.800000 0.200000
vt 0.800000 0.300000
vt 0.900000 0.200000
vt 0.900000 0.300000
vt 1.000000 0.200000
vt 1.000000 0.300000
vt 0.100000 0.400000
vt 0.000000 0.400000
vt 0.200000 0.400000
vt 0.300000 0.400000
vt 0.200000 0.400000
vt 0.400000 0.400000
vt 0.500000 0.400000
vt 0.600000 0.400000
vt 0.700000 0.400000
vt 0.800000 0.400000
vt 0.900000 0.400000
vt 1.000000 0.400000
vt 0.100000 0.500000
vt 0.000000 0.500000
vt 0.200000 0.500000
vt 0.300000 0.500000
vt 0.200000 0.500000
vt 0.400000 0.500000
vt 0.500000 0.500000
vt 0.600000 0.500000
vt 0.700000 0.500000
vt 0.800000 0.500000
vt 0.900000 0.500000
vt 1.000000 0.500000
vt 0.100000 0.600000
vt 0.000000 0.600000
vt 0.200000 0.600000
vt 0.300000 0.600000
vt 0.200000 0.600000
vt 0.400000 0.600000
vt 0.500000 0.600000
vt 0.600000 0.600000
vt 0.700000 0.600000
vt 0.800000 0.600000
vt 0.900000 0.600000
vt 1.000000 0.600000
vt 0.100000 0.700000
vt 0.000000 0.700000
vt 0.200000 0.700000
vt 0.300000 0.700000
vt 0.200000 0.700000
vt 0.400000 0.700000
vt 0.500000 0.700000
vt 0.600000 0.700000
vt 0.700000 0.700000
vt 0.800000 0.700000
vt 0.900000 0.700000
vt 1.000000 0.700000
vt 0.100000 0.800000
vt 0.000000 0.800000
vt 0.200000 0.800000
vt 0.300000 0.800000
vt 0.200000 0.800000
vt 0.400000 0.800000
vt 0.500000 0.800000
vt 0.600000 0.800000
vt 0.700000 0.800000
vt 0.800000 0.800000
vt 0.900000 0.800000
vt 1.000000 0.800000
vt 0.100000 0.900000
vt 0.000000 0.900000
vt 0.200000 0.900000
vt 0.300000 0.900000
vt 0.200000 0.900000
vt 0.400000 0.900000
vt 0.500000 0.900000
vt 0.600000 0.900000
vt 0.700000 0.900000
vt 0.800000 0.900000
vt 0.900000 0.900000
vt 1.000000 0.900000
vt 0.100000 1.000000
vt 0.000000 1.000000
vt 0.200000 1.000000
vt 0.300000 1.000000
vt 0.200000 1.000000
vt 0.400000 1.000000
vt 0.500000 1.000000
vt 0.600000 1.000000
vt 0.700000 1.000000
vt 0.800000 1.000000
vt 0.900000 1.000000
vt 1.000000 1.000000
s 0
f 1/1/1 2/2/1 13/3/1 12/4/1
f 2/2/2 3/5/2 14/6/2 13/3/2
f 3/5/3 4/7/3 15/8/3 14/9/3
f 4/7/4 5/10/4 16/11/4 15/8/4
f 5/10/5 6/12/5 17/13/5 16/11/5
f 6/12/6 7/14/6 18/15/6 17/13/6
f 7/14/7 8/16/7 19/17/7 18/15/7
f 8/16/8 9/18/8 20/19/8 19/17/8
f 9/18/9 10/20/9 21/21/9 20/19/9
f 10/20/10 11/22/10 22/23/10 21/21/10
f 12/4/11 13/3/11 24/24/11 23/25/11
f 13/3/12 14/6/12 25/26/12 24/24/12
f 14/6/13 15/8/13 26/27/13 25/28/13
f 15/8/14 16/11/14 27/29/14 26/27/14
f 16/11/15 17/13/15 28/30/15 27/29/15
f 17/13/16 18/15/16 29/31/16 28/30/16
f 18/15/17 19/17/17 30/32/17 29/31/17
f 19/17/18 20/19/18 31/33/18 30/32/18
f 20/19/19 21/21/19 32/34/19 31/33/19
f 21/21/20 22/23/20 33/35/20 32/34/20
f 23/36/21 24/37/21 35/38/21 34/39/21
f 24/37/22 25/40/22 36/41/22 35/38/22
f 25/40/23 26/42/23 37/43/23 36/44/23
f 26/42/24 27/45/24 38/46/24 37/43/24
f 27/45/25 28/47/25 39/48/25 38/46/25
f 28/47/26 29/49/26 40/50/26 39/48/26
f 29/49/27 30/51/27 41/52/27 40/50/27
f 30/51/28 31/53/28 42/54/28 41/52/28
f 31/53/29 32/55/29 43/56/29 42/54/29
f 32/55/30 33/57/30 44/58/30 43/56/30
f 34/39/31 35/38/31 46/59/31 45/60/31
f 35/38/32 36/41/32 47/61/32 46/59/32
f 36/41/33 37/43/33 48/62/33 47/63/33
f 37/43/34 38/46/34 49/64/34 48/62/34
f 38/46/35 39/48/35 50/65/35 49/64/35
f 39/48/36 40/50/36 51/66/36 50/65/36
f 40/50/37 41/52/37 52/67/37 51/66/37
f 41/52/38 42/54/38 53/68/38 52/67/38
f 42/54/39 43/56/39 54/69/39 53/68/39
f 43/56/40 44/58/40 55/70/40 54/69/40
f 45/60/41 46/59/41 57/71/41 56/72/41
f 46/59/42 47/61/42 58/73/42 57/71/42
f 47/61/43 48/62/43 59/74/43 58/75/43
f 48/62/44 49/64/44 60/76/44 59/74/44
f 49/64/45 50/65/45 61/77/45 60/76/45
f 50/65/46 51/66/46 62/78/46 61/77/46
f 51/66/47 52/67/47 63/79/47 62/78/47
f 52/67/48 53/68/48 64/80/48 63/79/48
f 53/68/49 54/69/49 65/81/49 64/80/49
f 54/69/50 55/70/50 66/82/50 65/81/50
f 56/72/51 57/71/51 68/83/51 67/84/51
f 57/71/52 58/73/52 69/85/52 68/83/52
f 58/73/53 59/74/53 70/86/53 69/87/53
f 59/74/54 60/76/54 71/88/54 70/86/54
f 60/76/55 61/77/55 72/89/55 71/88/55
f 61/77/56 62/78/56 73/90/56 72/89/56
f 62/78/57 63/79/57 74/91/57 73/90/57
f 63/79/58 64/80/58 75/92/58 74/91/58
f 64/80/59 65/81/59 76/93/59 75/92/59
f 65/81/60 66/82/60 77/94/60 76/93/60
f 67/84/61 68/83/61 79/95/61 78/96/61
f 68/83/62 69/85/62 80/97/62 79/95/62
f 69/85/63 70/86/63 81/98/63 80/99/63
f 70/86/64 71/88/64 82/100/64 81/98/64
f 71/88/65 72/89/65 83/101/65 82/100/65
f 72/89/66 73/90/66 84/102/66 83/101/66
f 73/90/67 74/91/67 85/103/67 84/102/67
f 74/91/68 75/92/68 86/104/68 85/103/68
f 75/92/69 76/93/69 87/105/69 86/104/69
f 76/93/70 77/94/70 88/106/70 87/105/70
f 78/96/71 79/95/71 90/107/71 89/108/71
f 79/95/72 80/97/72 91/109/72 90/107/72
f 80/97/73 81/98/73 92/110/73 91/111/73
f 81/98/74 82/100/74 93/112/74 92/110/74
f 82/100/75 83/101/75 94/113/75 93/112/75
f 83/101/76 84/102/76 95/114/76 94/113/76
f 84/102/77 85/103/77 96/115/77 95/114/77
f 85/103/78 86/104/78 97/116/78 96/115/78
f 86/104/79 87/105/79 98/117/79 97/116/79
f 87/105/80 88/106/80 99/118/80 98/117/80
f 89/108/81 90/107/81 101/119/81 100/120/81
f 90/107/82 91/109/82 102/121/82 101/119/82
f 91/109/83 92/110/83 103/122/83 102/123/83
f 92/110/84 93/112/84 104/124/84 103/122/84
f 93/112/85 94/113/85 105/125/85 104/124/85
f 94/113/86 95/114/86 106/126/86 105/125/86
f 95/114/87 96/115/87 107/127/87 106/126/87
f 96/115/88 97/116/88 108/128/88 107/127/88
f 97/116/89 98/117/89 109/129/89 108/128/89
f 98/117/90 99/118/90 110/130/90 109/129/90
f 100/120/91 101/119/91 112/131/91 111/132/91
f 101/119/92 102/121/92 113/133/92 112/131/92
f 102/121/93 103/122/93 114/134/93 113/135/93
f 103/122/94 104/124/94 115/136/94 114/134/94
f 104/124/95 105/125/95 116/137/95 115/136/95
f 105/125/96 106/126/96 117/138/96 116/137/96
f 106/126/97 107/127/97 118/139/97 117/138/97
f 107/127/98 108/128/98 119/140/98 118/139/98
f 108/128/99 109/129/99 120/141/99 119/140/99
f 109/129/100 110/130/100 121/142/100 120/141/100
o Liquid_Domain
v -0.430789 335.280334 2.280135
v -0.030463 338.596313 -7.816738
v 7.213349 354.438904 18.664764
v 19.943663 353.905090 4.975636
v -17.360332 354.423218 -9.580463
v 9.640691 351.110046 -15.154010
v -2.895072 371.158661 -27.440510
v -18.850700 370.112427 16.729568
v -2.122910 371.275513 27.813833
v -10.856195 347.230957 11.819184
v -27.343674 371.097778 -4.283192
v 27.172174 373.231750 4.863210
v 27.181505 373.120483 -4.715918
v 2.673585 373.013550 -27.624483
v -7.584789 374.767395 25.726719
v 13.098414 373.181091 -21.923655
v 4.172879 374.717773 27.506807
v 16.027435 376.070282 19.591692
v -27.141479 374.710724 5.138749
v -11.522926 375.596039 -23.026716
v -17.935108 556.875854 18.478588
v 17.783195 557.826538 18.617081
v 28.996132 557.155334 3.306670
v -15.527394 558.597412 -20.313061
v 7.901389 559.298523 -26.175632
v -27.211817 559.881226 -6.508929
v -29.026253 612.202271 -0.274183
v 28.698635 553.641113 -3.604235
v -2.544576 556.593079 -29.239052
v 19.594175 557.485229 -16.368942
v -5.155519 549.230164 27.956768
v 5.156982 556.062012 27.930523
v -27.011936 603.442627 7.985577
v 2.468899 561.415161 -29.684500
v 3.558717 611.972412 28.990374
v -27.576384 630.768127 -7.707328
v 23.188381 629.899597 13.817846
v -8.607852 631.032349 27.310310
v -20.352760 630.596741 16.969336
v 31.536680 633.649902 0.194233
v 23.771748 629.779297 -12.938527
v -18.103596 629.195068 -18.495789
v -2.980088 631.503662 -30.410479
v 8.530954 630.118652 -26.987724
v -0.160066 617.157349 -31.530800
v -0.136007 619.545288 32.106758
v -31.047613 633.397644 4.077199
v 3.510227 632.373535 30.847168
v 10.572901 650.406738 39.646450
v 42.475601 652.705933 11.266511
v -8.034496 640.650024 -35.123817
v -11.061593 652.144653 41.452896
v 42.663010 648.987976 -5.016779
v 0.958439 655.259277 -49.146564
v 26.800806 660.902222 27.547777
v -41.362221 654.537964 -11.733489
v 25.198803 661.010498 -27.976179
v -16.710915 660.339233 -37.387058
v 6.793236 662.081421 -51.860691
v -26.147221 661.204468 29.644844
v -42.571732 652.500000 10.686228
v 51.108093 661.533081 -4.786456
v -5.518510 661.588867 -51.798450
v -4.599236 661.816772 53.019432
v 3.112407 660.885254 51.628353
v -41.965012 661.429932 13.667954
v 53.844604 661.448730 7.360646
v -55.509335 661.166260 2.392532
v -42.824471 662.398926 -11.630600
v -1.686425 666.792786 40.918362
v 32.375462 667.115540 -7.529866
v 41.758312 664.015015 12.049183
v -43.616421 666.760132 1.671048
v 2.371023 666.891113 -41.442593
vn -0.0207 -0.9888 0.1480
vn 0.0118 -0.8304 -0.5571
vn 0.2769 -0.4908 0.8261
vn 0.7896 -0.5484 0.2752
vn -0.6714 -0.4927 -0.5536
vn 0.3907 -0.5160 -0.7623
vn -0.1707 -0.2235 -0.9596
vn -0.6765 -0.2030 0.7079
vn -0.1014 -0.2073 0.9730
vn -0.4454 -0.6054 0.6597
vn -0.9316 -0.2410 -0.2723
vn 0.9205 -0.1700 0.3519
vn 0.9062 -0.2136 -0.3649
vn 0.1871 -0.1521 -0.9705
vn -0.4922 -0.1272 0.8612
vn 0.5885 -0.1615 -0.7922
vn 0.2655 -0.1154 0.9572
vn 0.6586 -0.1335 0.7405
vn -0.9253 -0.2017 0.3211
vn -0.5955 -0.1338 -0.7921
vn -0.6874 -0.0096 0.7262
vn 0.6894 -0.0032 0.7244
vn 0.9452 -0.0166 0.3262
vn -0.6641 -0.0080 -0.7476
vn 0.5902 -0.0070 -0.8072
vn -0.8767 -0.0068 -0.4810
vn -0.9969 -0.0393 -0.0682
vn 0.9373 -0.0142 -0.3482
vn -0.2743 -0.0134 -0.9616
vn 0.7231 -0.0054 -0.6907
vn -0.2305 -0.0070 0.9731
vn 0.2439 -0.0081 0.9698
vn -0.8823 -0.0242 0.4700
vn 0.1851 -0.0230 -0.9824
vn 0.1755 -0.0615 0.9826
vn -0.8456 -0.2918 -0.4471
vn 0.7198 -0.2391 0.6517
vn -0.4812 -0.2595 0.8373
vn -0.6986 -0.2296 0.6777
vn 0.9328 -0.3588 0.0325
vn 0.7382 -0.2109 -0.6408
vn -0.6769 -0.2125 -0.7047
vn -0.1589 -0.3392 -0.9272
vn 0.5411 -0.1999 -0.8168
vn 0.0111 0.0112 -0.9999
vn -0.0640 -0.1654 0.9841
vn -0.9342 -0.3239 0.1495
vn 0.1914 -0.3213 0.9274
vn 0.5728 -0.4217 0.7029
vn 0.6514 -0.3410 0.6779
vn -0.4849 -0.4958 -0.7204
vn -0.4713 -0.4769 0.7419
vn 0.7555 -0.5353 -0.3778
vn 0.0274 -0.5513 -0.8338
vn 0.6586 0.2119 0.7220
vn -0.7109 -0.3036 -0.6343
vn 0.7136 0.2287 -0.6622
vn -0.7081 0.2599 -0.6565
vn 0.2398 0.1010 -0.9655
vn -0.6933 0.2501 0.6759
vn -0.6911 -0.4078 0.5967
vn 0.8393 0.2917 -0.4589
vn -0.2514 0.0866 -0.9640
vn -0.1062 0.0430 0.9934
vn 0.2615 0.0190 0.9650
vn -0.6559 0.3174 0.6849
vn 0.8425 0.2224 0.4907
vn -0.9680 0.1830 0.1719
vn -0.6341 0.4281 -0.6440
vn 0.0035 0.9524 0.3048
vn 0.1807 0.9745 -0.1334
vn 0.4955 0.5553 0.6679
vn -0.2636 0.9644 0.0230
vn 0.0184 0.9644 -0.2639
s 1
usemtl Liquid_Domain_Material
f 124//103 131//110 122//101
f 124//103 122//101 125//104
f 131//110 126//105 122//101
f 122//101 123//102 125//104
f 123//102 122//101 126//105
f 123//102 127//106 125//104
f 123//102 126//105 128//107
f 124//103 130//109 131//110
f 131//110 132//111 126//105
f 133//112 125//104 134//113
f 125//104 127//106 134//113
f 123//102 128//107 127//106
f 129//108 131//110 136//115
f 136//115 131//110 130//109
f 128//107 135//114 127//106
f 137//116 127//106 135//114
f 130//109 124//103 138//117
f 131//110 129//108 140//119
f 125//104 139//118 124//103
f 131//110 140//119 132//111
f 134//113 127//106 137//116
f 128//107 126//105 141//120
f 124//103 139//118 138//117
f 133//112 139//118 125//104
f 126//105 132//111 141//120
f 143//122 138//117 139//118
f 132//111 147//126 141//120
f 129//108 142//121 140//119
f 133//112 134//113 144//123
f 147//126 145//124 141//120
f 137//116 135//114 146//125
f 136//115 142//121 129//108
f 144//123 143//122 133//112
f 140//119 148//127 132//111
f 150//129 128//107 141//120
f 136//115 152//131 142//121
f 152//131 136//115 130//109
f 139//118 133//112 143//122
f 153//132 138//117 143//122
f 144//123 134//113 149//128
f 134//113 137//116 151//130
f 151//130 149//128 134//113
f 138//117 153//132 130//109
f 130//109 153//132 152//131
f 140//119 154//133 148//127
f 148//127 147//126 132//111
f 137//116 146//125 151//130
f 141//120 145//124 150//129
f 135//114 128//107 155//134
f 155//134 146//125 135//114
f 142//121 154//133 140//119
f 128//107 150//129 155//134
f 152//131 156//135 159//138
f 153//132 156//135 152//131
f 152//131 159//138 142//121
f 147//126 148//127 157//136
f 143//122 158//137 153//132
f 160//139 142//121 159//138
f 154//133 142//121 160//139
f 143//122 144//123 158//137
f 144//123 149//128 161//140
f 161//140 149//128 162//141
f 149//128 151//130 162//141
f 163//142 145//124 147//126
f 151//130 146//125 162//141
f 150//129 145//124 164//143
f 145//124 163//142 164//143
f 150//129 166//145 155//134
f 165//144 146//125 155//134
f 161//140 158//137 144//123
f 153//132 158//137 156//135
f 150//129 164//143 166//145
f 166//145 165//144 155//134
f 157//136 163//142 147//126
f 146//125 165//144 162//141
f 156//135 167//146 159//138
f 154//133 168//147 148//127
f 168//147 154//133 160//139
f 167//146 169//148 159//138
f 156//135 169//148 167//146
f 158//137 169//148 156//135
f 157//136 148//127 168//147
f 165//144 166//145 164//143
f 169//148 158//137 170//149
f 171//150 158//137 161//140
f 161//140 162//141 174//153
f 163//142 172//151 164//143
f 186//165 173//152 159//138
f 186//165 159//138 169//148
f 169//148 170//149 186//165
f 173//152 160//139 159//138
f 160//139 182//161 168//147
f 171//150 161//140 174//153
f 172//151 175//154 164//143
f 175//154 165//144 164//143
f 160//139 173//152 181//160
f 158//137 176//155 170//149
f 160//139 181//160 182//161
f 168//147 182//161 157//136
f 177//156 163//142 157//136
f 174//153 162//141 178//157
f 172//151 163//142 179//158
f 165//144 178//157 162//141
f 165//144 175//154 180//159
f 173//152 186//165 185//164
f 158//137 171//150 176//155
f 182//161 189//168 157//136
f 174//153 188//167 171//150
f 183//162 188//167 174//153
f 177//156 157//136 189//168
f 163//142 177//156 179//158
f 178//157 165//144 180//159
f 172//151 179//158 184//163
f 184//163 175//154 172//151
f 182//161 181//160 187//166
f 174//153 178//157 183//162
f 185//164 181//160 173//152
f 170//149 176//155 186//165
f 193//172 176//155 171//150
f 188//167 193//172 171//150
f 189//168 182//161 187//166
f 190//169 177//156 189//168
f 179//158 177//156 190//169
f 180//159 175//154 184//163
f 185//164 191//170 181//160
f 185//164 186//165 191//170
f 186//165 176//155 191//170
f 176//155 193//172 191//170
f 193//172 192//171 191//170
f 191//170 194//173 181//160
f 181//160 194//173 187//166
f 189//168 187//166 194//173
f 192//171 194//173 191//170
f 192//171 195//174 194//173
f 183//162 192//171 193//172
f 188//167 183//162 193//172
f 190//169 189//168 194//173
f 183//162 178//157 192//171
f 178//157 195//174 192//171
f 179//158 190//169 194//173
f 195//174 179//158 194//173
f 195//174 178//157 180//159
f 179//158 195//174 184//163
f 180//159 184//163 195//174
o 平面
v -0.900000 -15.956531 0.900000
v 0.900000 -15.956531 0.900000
v -0.900000 -15.956531 -0.900000
v 0.900000 -15.956531 -0.900000
vn -0.0000 1.0000 -0.0000
vt 0.000000 0.000000
vt 1.000000 0.000000
vt 1.000000 1.000000
vt 0.000000 1.000000
s 0
f 196/143/175 197/144/175 199/145/175 198/146/175
