# Blender 4.1.1
# www.blender.org
mtllib bb0062.mtl
o グリッド
v 0.926730 360.267853 -4.643880
v 0.403887 360.397217 -4.377478
v -0.118955 360.454468 -4.111077
v -0.641798 360.455597 -3.844675
v -1.164640 360.435760 -3.578273
v -1.687483 360.425323 -3.311872
v -2.210326 360.435760 -3.045470
v -2.733168 360.455597 -2.779068
v -3.256011 360.454468 -2.512667
v -3.778854 360.397217 -2.246265
v -4.301696 360.267853 -1.979864
v 1.264227 360.397217 -3.981506
v 0.741384 360.459595 -3.715104
v 0.218541 360.425323 -3.448702
v -0.304301 360.342834 -3.182301
v -0.827144 360.268707 -2.915899
v -1.349986 360.240021 -2.649498
v -1.872829 360.268707 -2.383096
v -2.395672 360.342834 -2.116694
v -2.918514 360.425323 -1.850293
v -3.441357 360.459595 -1.583891
v -3.964200 360.397217 -1.317489
v 1.601723 360.454468 -3.319131
v 1.078880 360.425323 -3.052730
v 0.556038 360.295441 -2.786328
v 0.033195 360.143158 -2.519926
v -0.489647 360.032654 -2.253525
v -1.012490 360.006531 -1.987123
v -1.535333 360.032654 -1.720721
v -2.058175 360.143158 -1.454320
v -2.581018 360.295441 -1.187918
v -3.103860 360.425323 -0.921517
v -3.626703 360.454468 -0.655115
v 1.939220 360.455597 -2.656757
v 1.416377 360.342834 -2.390355
v 0.893535 360.143158 -2.123954
v 0.370692 360.048279 -1.857552
v -0.152151 360.196106 -1.591150
v -0.674993 360.252838 -1.324749
v -1.197836 360.196106 -1.058347
v -1.720678 360.048279 -0.791945
v -2.243521 360.143158 -0.525544
v -2.766364 360.342834 -0.259142
v -3.289206 360.455597 0.007259
v 2.276716 360.435760 -1.994382
v 1.753874 360.268707 -1.727981
v 1.231031 360.032654 -1.461579
v 0.708189 360.196106 -1.195178
v 0.185346 360.373596 -0.928776
v -0.337497 360.431274 -0.662374
v -0.860339 360.373596 -0.395973
v -1.383182 360.196106 -0.129571
v -1.906024 360.032654 0.136831
v -2.428867 360.268707 0.403232
v -2.951710 360.435760 0.669634
v 2.614213 360.425323 -1.332008
v 2.091370 360.240021 -1.065606
v 1.568528 360.006531 -0.799205
v 1.045685 360.252838 -0.532803
v 0.522843 360.431274 -0.266402
v 0.000000 360.439178 0.000000
v -0.522843 360.431274 0.266402
v -1.045685 360.252838 0.532803
v -1.568528 360.006531 0.799205
v -2.091371 360.240021 1.065607
v -2.614213 360.425323 1.332008
v 2.951710 360.435760 -0.669634
v 2.428867 360.268707 -0.403232
v 1.906024 360.032654 -0.136830
v 1.383182 360.196106 0.129571
v 0.860339 360.373596 0.395973
v 0.337497 360.431274 0.662374
v -0.185346 360.373596 0.928776
v -0.708188 360.196106 1.195178
v -1.231031 360.032654 1.461579
v -1.753874 360.268707 1.727981
v -2.276716 360.435760 1.994383
v 3.289206 360.455597 -0.007259
v 2.766364 360.342834 0.259142
v 2.243521 360.143158 0.525544
v 1.720678 360.048279 0.791945
v 1.197836 360.196106 1.058347
v 0.674993 360.252838 1.324749
v 0.152151 360.196106 1.591150
v -0.370692 360.048279 1.857552
v -0.893535 360.143158 2.123954
v -1.416377 360.342834 2.390355
v -1.939220 360.455597 2.656757
v 3.626703 360.454468 0.655115
v 3.103860 360.425323 0.921517
v 2.581018 360.295441 1.187918
v 2.058175 360.143158 1.454320
v 1.535332 360.032654 1.720721
v 1.012490 360.006531 1.987123
v 0.489647 360.032654 2.253525
v -0.033195 360.143158 2.519926
v -0.556038 360.295441 2.786328
v -1.078881 360.425323 3.052730
v -1.601723 360.454468 3.319131
v 3.964200 360.397217 1.317490
v 3.441357 360.459595 1.583891
v 2.918514 360.425323 1.850293
v 2.395672 360.342834 2.116694
v 1.872829 360.268707 2.383096
v 1.349987 360.240021 2.649498
v 0.827144 360.268707 2.915900
v 0.304301 360.342834 3.182301
v -0.218541 360.425323 3.448703
v -0.741384 360.459595 3.715104
v -1.264226 360.397217 3.981506
v 4.301696 360.267853 1.979864
v 3.778853 360.397217 2.246265
v 3.256011 360.454468 2.512667
v 2.733168 360.455597 2.779068
v 2.210326 360.435760 3.045470
v 1.687483 360.425323 3.311872
v 1.164640 360.435760 3.578274
v 0.641798 360.455597 3.844675
v 0.118955 360.454468 4.111077
v -0.403888 360.397217 4.377479
v -0.926730 360.267853 4.643880
vn 0.0852 0.9790 -0.1851
vn 0.0073 0.9996 -0.0288
vn -0.0183 0.9931 0.1157
vn 0.0138 0.9797 0.1999
vn 0.0758 0.9725 0.2201
vn 0.1335 0.9725 0.1906
vn 0.1536 0.9797 0.1287
vn 0.1044 0.9931 0.0532
vn -0.0276 0.9996 -0.0110
vn -0.1998 0.9790 -0.0399
vn 0.0182 0.9995 -0.0266
vn -0.0734 0.9845 0.1594
vn -0.0744 0.9582 0.2763
vn -0.0068 0.9489 0.3156
vn 0.0970 0.9526 0.2883
vn 0.1762 0.9526 0.2479
vn 0.2593 0.9489 0.1800
vn 0.2672 0.9582 0.1022
vn 0.1721 0.9845 0.0343
vn -0.0322 0.9995 -0.0009
vn -0.0821 0.9913 0.1027
vn -0.1699 0.9518 0.2553
vn -0.1083 0.9658 0.2354
vn 0.0074 0.9984 -0.0554
vn -0.0982 0.9638 -0.2481
vn -0.1430 0.9638 -0.2252
vn -0.0492 0.9984 -0.0266
vn 0.2541 0.9658 0.0507
vn 0.3064 0.9518 0.0126
vn 0.1314 0.9913 -0.0061
vn -0.1784 0.9709 0.1598
vn -0.2556 0.9312 0.2600
vn 0.0406 0.9980 -0.0488
vn 0.1392 0.9429 -0.3025
vn -0.0211 0.9682 -0.2494
vn -0.1893 0.9682 -0.1637
vn -0.3265 0.9429 -0.0652
vn -0.0633 0.9980 0.0042
vn 0.3606 0.9312 -0.0539
vn 0.2341 0.9709 -0.0504
vn -0.2447 0.9575 0.1529
vn -0.3153 0.9279 0.1990
vn 0.2848 0.9439 -0.1669
vn 0.2245 0.9544 -0.1968
vn 0.0297 0.9975 -0.0645
vn -0.0697 0.9975 -0.0139
vn -0.2912 0.9544 0.0660
vn -0.3025 0.9439 0.1323
vn 0.3463 0.9279 -0.1381
vn 0.2676 0.9575 -0.1081
vn -0.2676 0.9575 0.1081
vn -0.3463 0.9279 0.1381
vn 0.3025 0.9439 -0.1323
vn 0.2912 0.9544 -0.0660
vn 0.0697 0.9975 0.0139
vn -0.0297 0.9975 0.0645
vn -0.2245 0.9544 0.1968
vn -0.2848 0.9439 0.1669
vn 0.3153 0.9279 -0.1990
vn 0.2447 0.9575 -0.1529
vn -0.2341 0.9709 0.0504
vn -0.3606 0.9312 0.0539
vn 0.0633 0.9980 -0.0042
vn 0.3265 0.9429 0.0652
vn 0.1893 0.9682 0.1637
vn 0.0211 0.9682 0.2494
vn -0.1392 0.9429 0.3025
vn -0.0406 0.9980 0.0488
vn 0.2556 0.9312 -0.2600
vn 0.1784 0.9709 -0.1598
vn -0.1314 0.9913 0.0061
vn -0.3064 0.9518 -0.0126
vn -0.2541 0.9658 -0.0507
vn 0.0492 0.9984 0.0266
vn 0.1430 0.9638 0.2252
vn 0.0982 0.9638 0.2481
vn -0.0074 0.9984 0.0554
vn 0.1083 0.9658 -0.2354
vn 0.1699 0.9518 -0.2553
vn 0.0821 0.9913 -0.1027
vn 0.0322 0.9995 0.0009
vn -0.1721 0.9845 -0.0343
vn -0.2672 0.9582 -0.1022
vn -0.2593 0.9489 -0.1800
vn -0.1762 0.9526 -0.2479
vn -0.0970 0.9526 -0.2883
vn 0.0068 0.9489 -0.3156
vn 0.0744 0.9582 -0.2763
vn 0.0734 0.9845 -0.1594
vn -0.0182 0.9995 0.0266
vn 0.1998 0.9790 0.0399
vn 0.0276 0.9996 0.0110
vn -0.1044 0.9931 -0.0532
vn -0.1536 0.9797 -0.1287
vn -0.1335 0.9725 -0.1906
vn -0.0758 0.9725 -0.2201
vn -0.0138 0.9797 -0.1999
vn 0.0183 0.9931 -0.1157
vn -0.0073 0.9996 0.0288
vn -0.0852 0.9790 0.1851
vt 0.000000 0.000000
vt 0.100000 0.000000
vt 0.100000 0.100000
vt 0.000000 0.100000
vt 0.200000 0.000000
vt 0.200000 0.100000
vt 0.300000 0.000000
vt 0.300000 0.100000
vt 0.200000 0.100000
vt 0.400000 0.000000
vt 0.400000 0.100000
vt 0.500000 0.000000
vt 0.500000 0.100000
vt 0.600000 0.000000
vt 0.600000 0.100000
vt 0.700000 0.000000
vt 0.700000 0.100000
vt 0.800000 0.000000
vt 0.800000 0.100000
vt 0.900000 0.000000
vt 0.900000 0.100000
vt 1.000000 0.000000
vt 1.000000 0.100000
vt 0.100000 0.200000
vt 0.000000 0.200000
vt 0.200000 0.200000
vt 0.300000 0.200000
vt 0.200000 0.200000
vt 0.400000 0.200000
vt 0.500000 0.200000
vt 0.600000 0.200000
vt 0.700000 0.200000
vt 0.800000 0.200000
vt 0.900000 0.200000
vt 1.000000 0.200000
vt 0.000000 0.200000
vt 0.100000 0.200000
vt 0.100000 0.300000
vt 0.000000 0.300000
vt 0.200000 0.200000
vt 0.200000 0.300000
vt 0.300000 0.200000
vt 0.300000 0.300000
vt 0.200000 0.300000
vt 0.400000 0.200000
vt 0.400000 0.300000
vt 0.500000 0.200000
vt 0.500000 0.300000
vt 0.600000 0.200000
vt 0.600000 0.300000
vt 0.700000 0.200000
vt 0.700000 0.300000
vt 0.800000 0.200000
vt 0.800000 0.300000
vt 0.900000 0.200000
vt 0.900000 0.300000
vt 1.000000 0.200000
vt 1.000000 0.300000
vt 0.100000 0.400000
vt 0.000000 0.400000
vt 0.200000 0.400000
vt 0.300000 0.400000
vt 0.200000 0.400000
vt 0.400000 0.400000
vt 0.500000 0.400000
vt 0.600000 0.400000
vt 0.700000 0.400000
vt 0.800000 0.400000
vt 0.900000 0.400000
vt 1.000000 0.400000
vt 0.100000 0.500000
vt 0.000000 0.500000
vt 0.200000 0.500000
vt 0.300000 0.500000
vt 0.200000 0.500000
vt 0.400000 0.500000
vt 0.500000 0.500000
vt 0.600000 0.500000
vt 0.700000 0.500000
vt 0.800000 0.500000
vt 0.900000 0.500000
vt 1.000000 0.500000
vt 0.100000 0.600000
vt 0.000000 0.600000
vt 0.200000 0.600000
vt 0.300000 0.600000
vt 0.200000 0.600000
vt 0.400000 0.600000
vt 0.500000 0.600000
vt 0.600000 0.600000
vt 0.700000 0.600000
vt 0.800000 0.600000
vt 0.900000 0.600000
vt 1.000000 0.600000
vt 0.100000 0.700000
vt 0.000000 0.700000
vt 0.200000 0.700000
vt 0.300000 0.700000
vt 0.200000 0.700000
vt 0.400000 0.700000
vt 0.500000 0.700000
vt 0.600000 0.700000
vt 0.700000 0.700000
vt 0.800000 0.700000
vt 0.900000 0.700000
vt 1.000000 0.700000
vt 0.100000 0.800000
vt 0.000000 0.800000
vt 0.200000 0.800000
vt 0.300000 0.800000
vt 0.200000 0.800000
vt 0.400000 0.800000
vt 0.500000 0.800000
vt 0.600000 0.800000
vt 0.700000 0.800000
vt 0.800000 0.800000
vt 0.900000 0.800000
vt 1.000000 0.800000
vt 0.100000 0.900000
vt 0.000000 0.900000
vt 0.200000 0.900000
vt 0.300000 0.900000
vt 0.200000 0.900000
vt 0.400000 0.900000
vt 0.500000 0.900000
vt 0.600000 0.900000
vt 0.700000 0.900000
vt 0.800000 0.900000
vt 0.900000 0.900000
vt 1.000000 0.900000
vt 0.100000 1.000000
vt 0.000000 1.000000
vt 0.200000 1.000000
vt 0.300000 1.000000
vt 0.200000 1.000000
vt 0.400000 1.000000
vt 0.500000 1.000000
vt 0.600000 1.000000
vt 0.700000 1.000000
vt 0.800000 1.000000
vt 0.900000 1.000000
vt 1.000000 1.000000
s 0
f 1/1/1 2/2/1 13/3/1 12/4/1
f 2/2/2 3/5/2 14/6/2 13/3/2
f 3/5/3 4/7/3 15/8/3 14/9/3
f 4/7/4 5/10/4 16/11/4 15/8/4
f 5/10/5 6/12/5 17/13/5 16/11/5
f 6/12/6 7/14/6 18/15/6 17/13/6
f 7/14/7 8/16/7 19/17/7 18/15/7
f 8/16/8 9/18/8 20/19/8 19/17/8
f 9/18/9 10/20/9 21/21/9 20/19/9
f 10/20/10 11/22/10 22/23/10 21/21/10
f 12/4/11 13/3/11 24/24/11 23/25/11
f 13/3/12 14/6/12 25/26/12 24/24/12
f 14/6/13 15/8/13 26/27/13 25/28/13
f 15/8/14 16/11/14 27/29/14 26/27/14
f 16/11/15 17/13/15 28/30/15 27/29/15
f 17/13/16 18/15/16 29/31/16 28/30/16
f 18/15/17 19/17/17 30/32/17 29/31/17
f 19/17/18 20/19/18 31/33/18 30/32/18
f 20/19/19 21/21/19 32/34/19 31/33/19
f 21/21/20 22/23/20 33/35/20 32/34/20
f 23/36/21 24/37/21 35/38/21 34/39/21
f 24/37/22 25/40/22 36/41/22 35/38/22
f 25/40/23 26/42/23 37/43/23 36/44/23
f 26/42/24 27/45/24 38/46/24 37/43/24
f 27/45/25 28/47/25 39/48/25 38/46/25
f 28/47/26 29/49/26 40/50/26 39/48/26
f 29/49/27 30/51/27 41/52/27 40/50/27
f 30/51/28 31/53/28 42/54/28 41/52/28
f 31/53/29 32/55/29 43/56/29 42/54/29
f 32/55/30 33/57/30 44/58/30 43/56/30
f 34/39/31 35/38/31 46/59/31 45/60/31
f 35/38/32 36/41/32 47/61/32 46/59/32
f 36/41/33 37/43/33 48/62/33 47/63/33
f 37/43/34 38/46/34 49/64/34 48/62/34
f 38/46/35 39/48/35 50/65/35 49/64/35
f 39/48/36 40/50/36 51/66/36 50/65/36
f 40/50/37 41/52/37 52/67/37 51/66/37
f 41/52/38 42/54/38 53/68/38 52/67/38
f 42/54/39 43/56/39 54/69/39 53/68/39
f 43/56/40 44/58/40 55/70/40 54/69/40
f 45/60/41 46/59/41 57/71/41 56/72/41
f 46/59/42 47/61/42 58/73/42 57/71/42
f 47/61/43 48/62/43 59/74/43 58/75/43
f 48/62/44 49/64/44 60/76/44 59/74/44
f 49/64/45 50/65/45 61/77/45 60/76/45
f 50/65/46 51/66/46 62/78/46 61/77/46
f 51/66/47 52/67/47 63/79/47 62/78/47
f 52/67/48 53/68/48 64/80/48 63/79/48
f 53/68/49 54/69/49 65/81/49 64/80/49
f 54/69/50 55/70/50 66/82/50 65/81/50
f 56/72/51 57/71/51 68/83/51 67/84/51
f 57/71/52 58/73/52 69/85/52 68/83/52
f 58/73/53 59/74/53 70/86/53 69/87/53
f 59/74/54 60/76/54 71/88/54 70/86/54
f 60/76/55 61/77/55 72/89/55 71/88/55
f 61/77/56 62/78/56 73/90/56 72/89/56
f 62/78/57 63/79/57 74/91/57 73/90/57
f 63/79/58 64/80/58 75/92/58 74/91/58
f 64/80/59 65/81/59 76/93/59 75/92/59
f 65/81/60 66/82/60 77/94/60 76/93/60
f 67/84/61 68/83/61 79/95/61 78/96/61
f 68/83/62 69/85/62 80/97/62 79/95/62
f 69/85/63 70/86/63 81/98/63 80/99/63
f 70/86/64 71/88/64 82/100/64 81/98/64
f 71/88/65 72/89/65 83/101/65 82/100/65
f 72/89/66 73/90/66 84/102/66 83/101/66
f 73/90/67 74/91/67 85/103/67 84/102/67
f 74/91/68 75/92/68 86/104/68 85/103/68
f 75/92/69 76/93/69 87/105/69 86/104/69
f 76/93/70 77/94/70 88/106/70 87/105/70
f 78/96/71 79/95/71 90/107/71 89/108/71
f 79/95/72 80/97/72 91/109/72 90/107/72
f 80/97/73 81/98/73 92/110/73 91/111/73
f 81/98/74 82/100/74 93/112/74 92/110/74
f 82/100/75 83/101/75 94/113/75 93/112/75
f 83/101/76 84/102/76 95/114/76 94/113/76
f 84/102/77 85/103/77 96/115/77 95/114/77
f 85/103/78 86/104/78 97/116/78 96/115/78
f 86/104/79 87/105/79 98/117/79 97/116/79
f 87/105/80 88/106/80 99/118/80 98/117/80
f 89/108/81 90/107/81 101/119/81 100/120/81
f 90/107/82 91/109/82 102/121/82 101/119/82
f 91/109/83 92/110/83 103/122/83 102/123/83
f 92/110/84 93/112/84 104/124/84 103/122/84
f 93/112/85 94/113/85 105/125/85 104/124/85
f 94/113/86 95/114/86 106/126/86 105/125/86
f 95/114/87 96/115/87 107/127/87 106/126/87
f 96/115/88 97/116/88 108/128/88 107/127/88
f 97/116/89 98/117/89 109/129/89 108/128/89
f 98/117/90 99/118/90 110/130/90 109/129/90
f 100/120/91 101/119/91 112/131/91 111/132/91
f 101/119/92 102/121/92 113/133/92 112/131/92
f 102/121/93 103/122/93 114/134/93 113/135/93
f 103/122/94 104/124/94 115/136/94 114/134/94
f 104/124/95 105/125/95 116/137/95 115/136/95
f 105/125/96 106/126/96 117/138/96 116/137/96
f 106/126/97 107/127/97 118/139/97 117/138/97
f 107/127/98 108/128/98 119/140/98 118/139/98
f 108/128/99 109/129/99 120/141/99 119/140/99
f 109/129/100 110/130/100 121/142/100 120/141/100
o Liquid_Domain
v -0.430809 335.280273 2.279984
v 2.016418 337.785522 -5.226638
v -4.712894 344.944794 -12.088599
v -6.204748 350.203735 15.964485
v 7.213512 354.439056 18.664688
v 19.943485 353.904785 4.975652
v -17.360033 354.423035 -9.580790
v 9.640430 351.109741 -15.154075
v -4.378842 363.341492 -23.540112
v -18.882500 370.148102 16.716043
v -2.123587 371.277710 27.814619
v -17.965336 353.700806 7.475665
v -27.282730 371.057434 -4.541986
v 27.076735 373.159210 5.070542
v 27.148935 373.102356 -4.777275
v 5.744133 372.066406 -26.387024
v -7.494082 374.835419 25.797325
v 15.714944 373.063568 -19.655823
v 3.973839 374.641968 27.553726
v 15.841407 376.361237 19.816074
v -27.237228 374.893616 5.053091
v -14.883245 375.276184 -20.196856
v -3.331178 378.323181 -27.614006
v 2.484401 379.014160 -27.795158
v -14.670596 635.289551 21.522032
v 7.598781 554.443481 26.817062
v -19.729948 558.349243 16.489389
v -19.782904 557.148438 -16.074844
v 19.473202 556.857544 16.657631
v -27.158424 559.792480 6.956282
v 29.341982 554.830994 2.481662
v 26.607836 624.748047 8.116908
v 26.507818 626.633911 -8.041305
v 8.144330 562.476807 -26.045527
v -2.157995 554.789917 -29.441294
v 29.191042 556.564331 -2.464799
v -7.760821 561.884277 -26.136026
v -27.115538 634.500977 -7.361469
v -6.891531 559.077148 27.296614
v -28.735544 639.468018 -0.216779
v -0.211428 555.088257 28.560658
v 19.480850 557.361206 -16.477711
v 2.198289 558.316040 -29.632637
v 5.853034 635.654297 28.051561
v 17.056379 636.650024 19.249577
v -16.510036 636.514954 -19.334797
v 11.213230 634.005005 -24.599857
v -26.730661 638.802612 7.925425
v -5.853450 636.250610 28.118578
v 30.606691 635.570435 0.053470
v -2.373204 633.794312 -29.880857
v 2.505383 632.888245 -30.192476
v 21.610073 647.343384 9.869146
v 22.405085 646.024048 -9.152411
v 11.391955 650.658203 -18.798857
v 0.183549 661.319336 16.957554
v 9.090226 650.965210 20.154356
v -11.443280 651.727783 18.596037
v -11.541858 651.175659 -18.362696
v -0.092561 661.224854 -16.613905
v -12.806665 665.479919 -5.068317
v -9.159260 665.229492 9.311946
v 14.896743 663.876892 4.928146
v 8.262174 666.151123 -8.752070
vn -0.0324 -0.9777 0.2077
vn 0.1684 -0.8789 -0.4464
vn -0.2370 -0.6375 -0.7331
vn -0.2764 -0.5567 0.7833
vn 0.3190 -0.4786 0.8181
vn 0.7896 -0.5422 0.2873
vn -0.7087 -0.4934 -0.5042
vn 0.4039 -0.5234 -0.7503
vn -0.1979 -0.3701 -0.9077
vn -0.6687 -0.2030 0.7153
vn -0.1029 -0.2065 0.9730
vn -0.7588 -0.5374 0.3679
vn -0.9285 -0.2228 -0.2972
vn 0.9169 -0.1711 0.3606
vn 0.9109 -0.2164 -0.3513
vn 0.2276 -0.2065 -0.9516
vn -0.4895 -0.1268 0.8627
vn 0.6589 -0.1567 -0.7357
vn 0.2598 -0.1176 0.9585
vn 0.6552 -0.1336 0.7435
vn -0.9337 -0.1622 0.3191
vn -0.6297 -0.1365 -0.7648
vn -0.2057 -0.1199 -0.9712
vn 0.1292 -0.0835 -0.9881
vn -0.6575 0.1215 0.7436
vn 0.3963 -0.0039 0.9181
vn -0.7387 -0.0027 0.6741
vn -0.7158 -0.0035 -0.6983
vn 0.7203 -0.0037 0.6937
vn -0.8997 -0.0032 0.4364
vn 0.9693 -0.0086 0.2456
vn 0.8266 0.0492 0.5606
vn 0.8107 0.0557 -0.5829
vn 0.5772 -0.0075 -0.8165
vn -0.2304 -0.0079 -0.9731
vn 0.9616 -0.0087 -0.2745
vn -0.5738 -0.0041 -0.8190
vn -0.8547 0.1730 -0.4895
vn -0.3676 -0.0053 0.9300
vn -0.9582 0.2851 -0.0247
vn 0.0117 -0.0045 0.9999
vn 0.7188 -0.0041 -0.6952
vn 0.1876 -0.0078 -0.9822
vn 0.2225 0.1561 0.9624
vn 0.6773 0.1489 0.7205
vn -0.6612 0.1383 -0.7373
vn 0.5967 0.1365 -0.7908
vn -0.8584 0.2404 0.4532
vn -0.2054 0.1658 0.9645
vn 0.9750 0.2221 -0.0073
vn -0.2195 0.1808 -0.9587
vn 0.1698 0.1423 -0.9752
vn 0.7722 0.3235 0.5469
vn 0.7891 0.3401 -0.5114
vn 0.4802 0.3995 -0.7809
vn 0.0275 0.6225 0.7822
vn 0.4071 0.4158 0.8132
vn -0.4868 0.4176 0.7672
vn -0.4963 0.4151 -0.7624
vn -0.0157 0.6040 -0.7968
vn -0.5269 0.8142 -0.2438
vn -0.3995 0.8243 0.4012
vn 0.5553 0.7957 0.2420
vn 0.3712 0.8327 -0.4108
s 1
usemtl Liquid_Domain_Material
f 124//103 123//102 122//101
f 122//101 125//104 133//112
f 126//105 125//104 122//101
f 126//105 122//101 127//106
f 133//112 128//107 122//101
f 122//101 123//102 127//106
f 124//103 122//101 128//107
f 123//102 129//108 127//106
f 124//103 128//107 130//109
f 124//103 129//108 123//102
f 126//105 132//111 125//104
f 125//104 131//110 133//112
f 133//112 134//113 128//107
f 135//114 127//106 136//115
f 127//106 129//108 136//115
f 124//103 130//109 129//108
f 131//110 125//104 138//117
f 138//117 125//104 132//111
f 130//109 137//116 129//108
f 139//118 129//108 137//116
f 132//111 126//105 140//119
f 133//112 131//110 142//121
f 127//106 141//120 126//105
f 133//112 142//121 134//113
f 136//115 129//108 139//118
f 130//109 128//107 143//122
f 126//105 141//120 140//119
f 135//114 141//120 127//106
f 128//107 134//113 143//122
f 130//109 143//122 144//123
f 130//109 145//124 137//116
f 144//123 145//124 130//109
f 147//126 140//119 141//120
f 131//110 148//127 142//121
f 134//113 149//128 143//122
f 138//117 146//125 131//110
f 135//114 136//115 152//131
f 155//134 139//118 137//116
f 141//120 150//129 147//126
f 135//114 152//131 153//132
f 139//118 155//134 163//142
f 136//115 154//133 157//136
f 143//122 158//137 144//123
f 137//116 145//124 155//134
f 150//129 135//114 153//132
f 160//139 138//117 132//111
f 131//110 146//125 148//127
f 146//125 138//117 160//139
f 141//120 135//114 150//129
f 142//121 161//140 134//113
f 134//113 161//140 159//138
f 144//123 156//135 145//124
f 132//111 162//141 160//139
f 140//119 162//141 132//111
f 162//141 140//119 147//126
f 142//121 151//130 161//140
f 152//131 136//115 157//136
f 136//115 139//118 163//142
f 143//122 149//128 158//137
f 163//142 154//133 136//115
f 158//137 156//135 144//123
f 145//124 164//143 155//134
f 145//124 156//135 164//143
f 148//127 151//130 142//121
f 134//113 159//138 149//128
f 165//144 162//141 147//126
f 163//142 155//134 168//147
f 150//129 166//145 147//126
f 159//138 167//146 149//128
f 167//146 158//137 149//128
f 156//135 158//137 172//151
f 156//135 172//151 164//143
f 162//141 170//149 160//139
f 162//141 165//144 170//149
f 148//127 169//148 151//130
f 151//130 169//148 161//140
f 171//150 153//132 152//131
f 152//131 157//136 171//150
f 171//150 157//136 154//133
f 163//142 168//147 154//133
f 164//143 172//151 173//152
f 173//152 155//134 164//143
f 146//125 169//148 148//127
f 160//139 170//149 146//125
f 147//126 166//145 165//144
f 150//129 153//132 166//145
f 158//137 167//146 172//151
f 168//147 155//134 173//152
f 153//132 174//153 166//145
f 153//132 171//150 174//153
f 154//133 175//154 171//150
f 154//133 168//147 175//154
f 170//149 179//158 146//125
f 179//158 170//149 177//156
f 165//144 177//156 170//149
f 178//157 177//156 165//144
f 165//144 166//145 178//157
f 169//148 146//125 179//158
f 166//145 174//153 178//157
f 167//146 159//138 180//159
f 176//155 175//154 168//147
f 176//155 168//147 173//152
f 167//146 180//159 172//151
f 180//159 181//160 172//151
f 173//152 172//151 181//160
f 181//160 176//155 173//152
f 161//140 182//161 159//138
f 182//161 180//159 159//138
f 184//163 178//157 174//153
f 179//158 183//162 169//148
f 169//148 182//161 161//140
f 184//163 174//153 171//150
f 175//154 184//163 171//150
f 175//154 176//155 185//164
f 177//156 183//162 179//158
f 178//157 184//163 177//156
f 169//148 183//162 182//161
f 175//154 185//164 184//163
f 180//159 182//161 181//160
f 181//160 185//164 176//155
f 184//163 183//162 177//156
f 184//163 185//164 183//162
f 185//164 182//161 183//162
f 185//164 181//160 182//161
o 平面
v -0.900000 -15.909220 0.900000
v 0.900000 -15.909220 0.900000
v -0.900000 -15.909220 -0.900000
v 0.900000 -15.909220 -0.900000
vn -0.0000 1.0000 -0.0000
vt 0.000000 0.000000
vt 1.000000 0.000000
vt 1.000000 1.000000
vt 0.000000 1.000000
s 0
f 186/143/165 187/144/165 189/145/165 188/146/165
