# Blender 4.1.1
# www.blender.org
mtllib 無題0003.mtl
o グリッド
v 10.403781 600.000000 -30.463547
v 6.287332 600.000000 -28.366112
v 2.170882 600.429382 -26.268675
v -1.945569 600.823303 -24.171238
v -6.062018 601.057922 -22.073803
v -10.178468 601.133362 -19.976366
v -14.294918 601.057922 -17.878929
v -18.411366 600.823303 -15.781494
v -22.527817 600.429382 -13.684057
v -26.644268 600.000000 -11.586620
v -30.760715 600.000000 -9.489185
v 12.439474 600.000000 -26.468273
v 8.323025 600.585266 -24.370838
v 4.206575 601.133362 -22.273403
v 0.090124 601.462463 -20.175964
v -4.026325 601.593628 -18.078529
v -8.142775 601.620667 -15.981093
v -12.259226 601.593628 -13.883657
v -16.375673 601.462463 -11.786222
v -20.492125 601.133362 -9.688785
v -24.608576 600.585266 -7.591348
v -28.725023 600.000000 -5.493913
v 14.475168 600.429382 -22.473000
v 10.358719 601.133362 -20.375565
v 6.242269 601.557556 -18.278130
v 2.125818 601.635437 -16.180691
v -1.990632 601.522156 -14.083256
v -6.107081 601.448730 -11.985820
v -10.223532 601.522156 -9.888383
v -14.339979 601.635437 -7.790948
v -18.456430 601.557556 -5.693511
v -22.572882 601.133362 -3.596074
v -26.689329 600.429382 -1.498639
v 16.510862 600.823303 -18.477726
v 12.394413 601.462463 -16.380291
v 8.277964 601.635437 -14.282854
v 4.161512 601.354492 -12.185417
v 0.045063 600.925293 -10.087982
v -4.071387 600.723938 -7.990546
v -8.187838 600.925293 -5.893109
v -12.304285 601.354492 -3.795674
v -16.420736 601.635437 -1.698237
v -20.537188 601.462463 0.399200
v -24.653635 600.823303 2.496635
v 18.546555 601.057922 -14.482453
v 14.430106 601.593628 -12.385017
v 10.313657 601.522156 -10.287581
v 6.197206 600.925293 -8.190145
v 2.080756 600.201843 -6.092709
v -2.035693 600.157532 -3.995273
v -6.152144 600.201843 -1.897836
v -10.268592 600.925293 0.199599
v -14.385043 601.522156 2.297036
v -18.501495 601.593628 4.394473
v -22.617943 601.057922 6.491908
v 20.582249 601.133362 -10.487181
v 16.465799 601.620667 -8.389745
v 12.349350 601.448730 -6.292309
v 8.232899 600.723938 -4.194872
v 4.116449 600.157532 -2.097436
v 0.000000 601.028870 0.000000
v -4.116451 600.157532 2.097437
v -8.232899 600.723938 4.194872
v -12.349350 601.448730 6.292309
v -16.465801 601.620667 8.389746
v -20.582249 601.133362 10.487181
v 22.617943 601.057922 -6.491907
v 18.501493 601.593628 -4.394471
v 14.385044 601.522156 -2.297035
v 10.268593 600.925293 -0.199598
v 6.152143 600.201843 1.897838
v 2.035694 600.157532 3.995274
v -2.080757 600.201843 6.092710
v -6.197205 600.925293 8.190145
v -10.313656 601.522156 10.287582
v -14.430107 601.593628 12.385019
v -18.546555 601.057922 14.482454
v 24.653635 600.823303 -2.496635
v 20.537186 601.462463 -0.399199
v 16.420736 601.635437 1.698237
v 12.304285 601.354492 3.795674
v 8.187836 600.925293 5.893110
v 4.071387 600.723938 7.990546
v -0.045064 600.925293 10.087982
v -4.161512 601.354492 12.185417
v -8.277964 601.635437 14.282854
v -12.394415 601.462463 16.380291
v -16.510862 600.823303 18.477726
v 26.689329 600.429382 1.498639
v 22.572880 601.133362 3.596075
v 18.456430 601.557556 5.693511
v 14.339979 601.635437 7.790948
v 10.223530 601.522156 9.888384
v 6.107081 601.448730 11.985820
v 1.990630 601.522156 14.083257
v -2.125818 601.635437 16.180691
v -6.242269 601.557556 18.278130
v -10.358721 601.133362 20.375565
v -14.475168 600.429382 22.473000
v 28.725023 600.000000 5.493914
v 24.608574 600.585266 7.591350
v 20.492125 601.133362 9.688786
v 16.375673 601.462463 11.786222
v 12.259224 601.593628 13.883658
v 8.142775 601.620667 15.981094
v 4.026324 601.593628 18.078531
v -0.090124 601.462463 20.175966
v -4.206575 601.133362 22.273403
v -8.323027 600.585266 24.370840
v -12.439474 600.000000 26.468275
v 30.760715 600.000000 9.489185
v 26.644268 600.000000 11.586621
v 22.527817 600.429382 13.684057
v 18.411366 600.823303 15.781494
v 14.294917 601.057922 17.878929
v 10.178468 601.133362 19.976366
v 6.062017 601.057922 22.073803
v 1.945569 600.823303 24.171238
v -2.170882 600.429382 26.268675
v -6.287333 600.000000 28.366112
v -10.403781 600.000000 30.463547
vn 0.0267 0.9959 -0.0865
vn 0.0285 0.9844 -0.1734
vn 0.0017 0.9860 -0.1666
vn -0.0240 0.9908 -0.1335
vn -0.0416 0.9935 -0.1060
vn -0.0613 0.9935 -0.0960
vn -0.0939 0.9908 -0.0978
vn -0.1358 0.9860 -0.0966
vn -0.1570 0.9844 -0.0788
vn -0.0857 0.9959 -0.0293
vn 0.0737 0.9847 -0.1580
vn 0.0440 0.9888 -0.1427
vn 0.0090 0.9968 -0.0791
vn -0.0034 0.9999 -0.0110
vn 0.0078 0.9996 0.0265
vn 0.0168 0.9996 0.0219
vn -0.0069 0.9999 -0.0092
vn -0.0693 0.9968 -0.0392
vn -0.1414 0.9888 -0.0483
vn -0.1711 0.9847 -0.0332
vn 0.0917 0.9865 -0.1360
vn 0.0369 0.9969 -0.0696
vn -0.0093 0.9995 0.0301
vn -0.0078 0.9935 0.1131
vn 0.0400 0.9889 0.1432
vn 0.0924 0.9889 0.1165
vn 0.0961 0.9935 0.0602
vn 0.0298 0.9995 0.0102
vn -0.0780 0.9969 -0.0111
vn -0.1639 0.9865 -0.0058
vn 0.0939 0.9912 -0.0932
vn 0.0089 0.9999 -0.0068
vn -0.0568 0.9937 0.0964
vn -0.0520 0.9843 0.1685
vn 0.0412 0.9895 0.1387
vn 0.0881 0.9895 0.1149
vn 0.1668 0.9843 0.0570
vn 0.1114 0.9937 0.0107
vn -0.0107 0.9999 0.0032
vn -0.1307 0.9912 0.0212
vn 0.0929 0.9939 -0.0601
vn -0.0211 0.9996 0.0166
vn -0.1123 0.9895 0.0913
vn -0.1108 0.9900 0.0869
vn 0.0376 0.9918 -0.1218
vn -0.1206 0.9918 -0.0412
vn 0.1355 0.9900 -0.0386
vn 0.1399 0.9895 -0.0372
vn 0.0258 0.9996 -0.0073
vn -0.1032 0.9939 0.0398
vn 0.1032 0.9939 -0.0398
vn -0.0258 0.9996 0.0073
vn -0.1399 0.9895 0.0372
vn -0.1355 0.9900 0.0386
vn 0.1206 0.9918 0.0412
vn -0.0376 0.9918 0.1218
vn 0.1108 0.9900 -0.0869
vn 0.1123 0.9895 -0.0913
vn 0.0211 0.9996 -0.0166
vn -0.0929 0.9939 0.0601
vn 0.1307 0.9912 -0.0212
vn 0.0107 0.9999 -0.0032
vn -0.1114 0.9937 -0.0107
vn -0.1668 0.9843 -0.0570
vn -0.0881 0.9895 -0.1149
vn -0.0412 0.9895 -0.1387
vn 0.0520 0.9843 -0.1685
vn 0.0568 0.9937 -0.0964
vn -0.0089 0.9999 0.0068
vn -0.0939 0.9912 0.0932
vn 0.1639 0.9865 0.0058
vn 0.0780 0.9969 0.0111
vn -0.0298 0.9995 -0.0102
vn -0.0961 0.9935 -0.0602
vn -0.0924 0.9889 -0.1165
vn -0.0400 0.9889 -0.1432
vn 0.0078 0.9935 -0.1131
vn 0.0093 0.9995 -0.0301
vn -0.0369 0.9969 0.0696
vn -0.0917 0.9865 0.1360
vn 0.1711 0.9847 0.0332
vn 0.1414 0.9888 0.0483
vn 0.0693 0.9968 0.0392
vn 0.0069 0.9999 0.0092
vn -0.0168 0.9996 -0.0219
vn -0.0078 0.9996 -0.0265
vn 0.0034 0.9999 0.0110
vn -0.0090 0.9968 0.0791
vn -0.0440 0.9888 0.1427
vn -0.0737 0.9847 0.1580
vn 0.0857 0.9959 0.0293
vn 0.1570 0.9844 0.0788
vn 0.1358 0.9860 0.0966
vn 0.0939 0.9908 0.0978
vn 0.0613 0.9935 0.0960
vn 0.0416 0.9935 0.1060
vn 0.0240 0.9908 0.1335
vn -0.0017 0.9860 0.1666
vn -0.0285 0.9844 0.1734
vn -0.0267 0.9959 0.0865
vt 0.000000 0.000000
vt 0.100000 0.000000
vt 0.100000 0.100000
vt 0.000000 0.100000
vt 0.200000 0.000000
vt 0.200000 0.100000
vt 0.300000 0.000000
vt 0.300000 0.100000
vt 0.200000 0.100000
vt 0.400000 0.000000
vt 0.400000 0.100000
vt 0.500000 0.000000
vt 0.500000 0.100000
vt 0.600000 0.000000
vt 0.600000 0.100000
vt 0.700000 0.000000
vt 0.700000 0.100000
vt 0.800000 0.000000
vt 0.800000 0.100000
vt 0.900000 0.000000
vt 0.900000 0.100000
vt 1.000000 0.000000
vt 1.000000 0.100000
vt 0.100000 0.200000
vt 0.000000 0.200000
vt 0.200000 0.200000
vt 0.300000 0.200000
vt 0.200000 0.200000
vt 0.400000 0.200000
vt 0.500000 0.200000
vt 0.600000 0.200000
vt 0.700000 0.200000
vt 0.800000 0.200000
vt 0.900000 0.200000
vt 1.000000 0.200000
vt 0.000000 0.200000
vt 0.100000 0.200000
vt 0.100000 0.300000
vt 0.000000 0.300000
vt 0.200000 0.200000
vt 0.200000 0.300000
vt 0.300000 0.200000
vt 0.300000 0.300000
vt 0.200000 0.300000
vt 0.400000 0.200000
vt 0.400000 0.300000
vt 0.500000 0.200000
vt 0.500000 0.300000
vt 0.600000 0.200000
vt 0.600000 0.300000
vt 0.700000 0.200000
vt 0.700000 0.300000
vt 0.800000 0.200000
vt 0.800000 0.300000
vt 0.900000 0.200000
vt 0.900000 0.300000
vt 1.000000 0.200000
vt 1.000000 0.300000
vt 0.100000 0.400000
vt 0.000000 0.400000
vt 0.200000 0.400000
vt 0.300000 0.400000
vt 0.200000 0.400000
vt 0.400000 0.400000
vt 0.500000 0.400000
vt 0.600000 0.400000
vt 0.700000 0.400000
vt 0.800000 0.400000
vt 0.900000 0.400000
vt 1.000000 0.400000
vt 0.100000 0.500000
vt 0.000000 0.500000
vt 0.200000 0.500000
vt 0.300000 0.500000
vt 0.200000 0.500000
vt 0.400000 0.500000
vt 0.500000 0.500000
vt 0.600000 0.500000
vt 0.700000 0.500000
vt 0.800000 0.500000
vt 0.900000 0.500000
vt 1.000000 0.500000
vt 0.100000 0.600000
vt 0.000000 0.600000
vt 0.200000 0.600000
vt 0.300000 0.600000
vt 0.200000 0.600000
vt 0.400000 0.600000
vt 0.500000 0.600000
vt 0.600000 0.600000
vt 0.700000 0.600000
vt 0.800000 0.600000
vt 0.900000 0.600000
vt 1.000000 0.600000
vt 0.100000 0.700000
vt 0.000000 0.700000
vt 0.200000 0.700000
vt 0.300000 0.700000
vt 0.200000 0.700000
vt 0.400000 0.700000
vt 0.500000 0.700000
vt 0.600000 0.700000
vt 0.700000 0.700000
vt 0.800000 0.700000
vt 0.900000 0.700000
vt 1.000000 0.700000
vt 0.100000 0.800000
vt 0.000000 0.800000
vt 0.200000 0.800000
vt 0.300000 0.800000
vt 0.200000 0.800000
vt 0.400000 0.800000
vt 0.500000 0.800000
vt 0.600000 0.800000
vt 0.700000 0.800000
vt 0.800000 0.800000
vt 0.900000 0.800000
vt 1.000000 0.800000
vt 0.100000 0.900000
vt 0.000000 0.900000
vt 0.200000 0.900000
vt 0.300000 0.900000
vt 0.200000 0.900000
vt 0.400000 0.900000
vt 0.500000 0.900000
vt 0.600000 0.900000
vt 0.700000 0.900000
vt 0.800000 0.900000
vt 0.900000 0.900000
vt 1.000000 0.900000
vt 0.100000 1.000000
vt 0.000000 1.000000
vt 0.200000 1.000000
vt 0.300000 1.000000
vt 0.200000 1.000000
vt 0.400000 1.000000
vt 0.500000 1.000000
vt 0.600000 1.000000
vt 0.700000 1.000000
vt 0.800000 1.000000
vt 0.900000 1.000000
vt 1.000000 1.000000
s 0
f 1/1/1 2/2/1 13/3/1 12/4/1
f 2/2/2 3/5/2 14/6/2 13/3/2
f 3/5/3 4/7/3 15/8/3 14/9/3
f 4/7/4 5/10/4 16/11/4 15/8/4
f 5/10/5 6/12/5 17/13/5 16/11/5
f 6/12/6 7/14/6 18/15/6 17/13/6
f 7/14/7 8/16/7 19/17/7 18/15/7
f 8/16/8 9/18/8 20/19/8 19/17/8
f 9/18/9 10/20/9 21/21/9 20/19/9
f 10/20/10 11/22/10 22/23/10 21/21/10
f 12/4/11 13/3/11 24/24/11 23/25/11
f 13/3/12 14/6/12 25/26/12 24/24/12
f 14/6/13 15/8/13 26/27/13 25/28/13
f 15/8/14 16/11/14 27/29/14 26/27/14
f 16/11/15 17/13/15 28/30/15 27/29/15
f 17/13/16 18/15/16 29/31/16 28/30/16
f 18/15/17 19/17/17 30/32/17 29/31/17
f 19/17/18 20/19/18 31/33/18 30/32/18
f 20/19/19 21/21/19 32/34/19 31/33/19
f 21/21/20 22/23/20 33/35/20 32/34/20
f 23/36/21 24/37/21 35/38/21 34/39/21
f 24/37/22 25/40/22 36/41/22 35/38/22
f 25/40/23 26/42/23 37/43/23 36/44/23
f 26/42/24 27/45/24 38/46/24 37/43/24
f 27/45/25 28/47/25 39/48/25 38/46/25
f 28/47/26 29/49/26 40/50/26 39/48/26
f 29/49/27 30/51/27 41/52/27 40/50/27
f 30/51/28 31/53/28 42/54/28 41/52/28
f 31/53/29 32/55/29 43/56/29 42/54/29
f 32/55/30 33/57/30 44/58/30 43/56/30
f 34/39/31 35/38/31 46/59/31 45/60/31
f 35/38/32 36/41/32 47/61/32 46/59/32
f 36/41/33 37/43/33 48/62/33 47/63/33
f 37/43/34 38/46/34 49/64/34 48/62/34
f 38/46/35 39/48/35 50/65/35 49/64/35
f 39/48/36 40/50/36 51/66/36 50/65/36
f 40/50/37 41/52/37 52/67/37 51/66/37
f 41/52/38 42/54/38 53/68/38 52/67/38
f 42/54/39 43/56/39 54/69/39 53/68/39
f 43/56/40 44/58/40 55/70/40 54/69/40
f 45/60/41 46/59/41 57/71/41 56/72/41
f 46/59/42 47/61/42 58/73/42 57/71/42
f 47/61/43 48/62/43 59/74/43 58/75/43
f 48/62/44 49/64/44 60/76/44 59/74/44
f 49/64/45 50/65/45 61/77/45 60/76/45
f 50/65/46 51/66/46 62/78/46 61/77/46
f 51/66/47 52/67/47 63/79/47 62/78/47
f 52/67/48 53/68/48 64/80/48 63/79/48
f 53/68/49 54/69/49 65/81/49 64/80/49
f 54/69/50 55/70/50 66/82/50 65/81/50
f 56/72/51 57/71/51 68/83/51 67/84/51
f 57/71/52 58/73/52 69/85/52 68/83/52
f 58/73/53 59/74/53 70/86/53 69/87/53
f 59/74/54 60/76/54 71/88/54 70/86/54
f 60/76/55 61/77/55 72/89/55 71/88/55
f 61/77/56 62/78/56 73/90/56 72/89/56
f 62/78/57 63/79/57 74/91/57 73/90/57
f 63/79/58 64/80/58 75/92/58 74/91/58
f 64/80/59 65/81/59 76/93/59 75/92/59
f 65/81/60 66/82/60 77/94/60 76/93/60
f 67/84/61 68/83/61 79/95/61 78/96/61
f 68/83/62 69/85/62 80/97/62 79/95/62
f 69/85/63 70/86/63 81/98/63 80/99/63
f 70/86/64 71/88/64 82/100/64 81/98/64
f 71/88/65 72/89/65 83/101/65 82/100/65
f 72/89/66 73/90/66 84/102/66 83/101/66
f 73/90/67 74/91/67 85/103/67 84/102/67
f 74/91/68 75/92/68 86/104/68 85/103/68
f 75/92/69 76/93/69 87/105/69 86/104/69
f 76/93/70 77/94/70 88/106/70 87/105/70
f 78/96/71 79/95/71 90/107/71 89/108/71
f 79/95/72 80/97/72 91/109/72 90/107/72
f 80/97/73 81/98/73 92/110/73 91/111/73
f 81/98/74 82/100/74 93/112/74 92/110/74
f 82/100/75 83/101/75 94/113/75 93/112/75
f 83/101/76 84/102/76 95/114/76 94/113/76
f 84/102/77 85/103/77 96/115/77 95/114/77
f 85/103/78 86/104/78 97/116/78 96/115/78
f 86/104/79 87/105/79 98/117/79 97/116/79
f 87/105/80 88/106/80 99/118/80 98/117/80
f 89/108/81 90/107/81 101/119/81 100/120/81
f 90/107/82 91/109/82 102/121/82 101/119/82
f 91/109/83 92/110/83 103/122/83 102/123/83
f 92/110/84 93/112/84 104/124/84 103/122/84
f 93/112/85 94/113/85 105/125/85 104/124/85
f 94/113/86 95/114/86 106/126/86 105/125/86
f 95/114/87 96/115/87 107/127/87 106/126/87
f 96/115/88 97/116/88 108/128/88 107/127/88
f 97/116/89 98/117/89 109/129/89 108/128/89
f 98/117/90 99/118/90 110/130/90 109/129/90
f 100/120/91 101/119/91 112/131/91 111/132/91
f 101/119/92 102/121/92 113/133/92 112/131/92
f 102/121/93 103/122/93 114/134/93 113/135/93
f 103/122/94 104/124/94 115/136/94 114/134/94
f 104/124/95 105/125/95 116/137/95 115/136/95
f 105/125/96 106/126/96 117/138/96 116/137/96
f 106/126/97 107/127/97 118/139/97 117/138/97
f 107/127/98 108/128/98 119/140/98 118/139/98
f 108/128/99 109/129/99 120/141/99 119/140/99
f 109/129/100 110/130/100 121/142/100 120/141/100
o Liquid_Domain
v -9.051425 518.317749 -16.942396
v 32.929253 526.771667 13.263331
v -86.394180 563.223267 19.724812
v 40.774284 550.717346 -51.826435
v 11.516596 570.523315 92.919197
v 85.644829 576.131531 26.512724
v -76.033951 555.406799 -13.386239
v 101.827072 594.355530 -9.937606
v -27.844040 576.969421 -84.499931
v 13.769806 582.828613 -95.716255
v -33.953560 620.499084 91.913216
v -89.483772 633.840088 -37.550117
v 83.325562 657.647034 44.594486
v -89.702499 698.574341 29.646852
v -94.830688 712.114502 -19.120615
v 52.025715 663.714355 -77.444878
v -6.873624 704.745789 95.447510
v -13.178315 661.641968 -103.297188
v 35.288586 707.185547 87.325455
v 98.154755 711.367188 -14.610198
v 81.524498 714.263428 39.569481
v -44.237171 703.711731 -74.077446
v 10.055432 701.279175 -95.144943
v 24.486301 746.611267 -98.181862
v -35.613243 752.901367 90.502480
v -23.032738 755.950806 -99.419579
v -14.203450 827.752197 94.204659
v -85.689400 832.669434 28.238710
v 20.075535 835.751099 90.859924
v 104.853767 821.631592 -0.213531
v -93.523285 833.003052 -15.040435
v 35.116810 839.276489 -78.046867
v -30.732752 844.809937 -77.008713
v -1.989889 820.169556 -99.158981
v 73.562775 850.771301 24.079191
v -6.977034 898.511719 6.863737
vn -0.0934 -0.9693 -0.2275
vn 0.3056 -0.9165 0.2582
vn -0.7522 -0.5306 0.3907
vn 0.4513 -0.6438 -0.6179
vn 0.0881 -0.3210 0.9430
vn 0.7818 -0.4301 0.4515
vn -0.7387 -0.6004 -0.3064
vn 0.9174 -0.3395 -0.2078
vn -0.3871 -0.4040 -0.8288
vn 0.1461 -0.2703 -0.9516
vn -0.3451 -0.0890 0.9343
vn -0.8350 -0.0948 -0.5420
vn 0.7877 -0.0252 0.6155
vn -0.8858 -0.0092 0.4639
vn -0.9504 0.0189 -0.3104
vn 0.5969 0.0753 -0.7988
vn -0.0919 -0.0121 0.9957
vn -0.0910 0.0525 -0.9945
vn 0.4098 0.0071 0.9121
vn 0.9481 0.0146 -0.3175
vn 0.8191 0.0674 0.5697
vn -0.6283 0.0072 -0.7779
vn 0.1298 -0.0111 -0.9915
vn 0.2990 -0.0481 -0.9530
vn -0.4246 -0.0331 0.9048
vn -0.2638 -0.0385 -0.9638
vn -0.1776 0.2421 0.9539
vn -0.7802 0.4172 0.4661
vn 0.2559 0.3213 0.9117
vn 0.9157 0.3945 -0.0764
vn -0.8578 0.4285 -0.2838
vn 0.4590 0.4743 -0.7512
vn -0.3923 0.5226 -0.7570
vn -0.0150 0.2359 -0.9717
vn 0.6640 0.6265 0.4082
vn -0.0421 0.9981 0.0451
s 1
usemtl Liquid_Domain_Material
f 126//105 124//103 122//101
f 123//102 126//105 122//101
f 122//101 124//103 128//107
f 123//102 122//101 125//104
f 123//102 127//106 126//105
f 129//108 127//106 123//102
f 125//104 129//108 123//102
f 122//101 128//107 130//109
f 131//110 122//101 130//109
f 125//104 122//101 131//110
f 126//105 132//111 124//103
f 129//108 125//104 131//110
f 133//112 128//107 124//103
f 133//112 130//109 128//107
f 127//106 134//113 126//105
f 124//103 136//115 133//112
f 126//105 138//117 132//111
f 134//113 140//119 126//105
f 135//114 124//103 132//111
f 135//114 136//115 124//103
f 127//106 129//108 134//113
f 131//110 137//116 129//108
f 139//118 130//109 133//112
f 131//110 130//109 139//118
f 131//110 139//118 137//116
f 126//105 140//119 138//117
f 134//113 129//108 141//120
f 129//108 137//116 141//120
f 138//117 135//114 132//111
f 134//113 142//121 140//119
f 134//113 141//120 142//121
f 136//115 143//122 133//112
f 143//122 139//118 133//112
f 137//116 144//123 141//120
f 143//122 144//123 139//118
f 144//123 137//116 139//118
f 138//117 146//125 135//114
f 145//124 141//120 144//123
f 147//126 144//123 143//122
f 144//123 147//126 145//124
f 147//126 143//122 136//115
f 146//125 138//117 148//127
f 140//119 150//129 138//117
f 135//114 149//128 136//115
f 152//131 147//126 136//115
f 138//117 150//129 148//127
f 149//128 135//114 146//125
f 149//128 152//131 136//115
f 142//121 141//120 151//130
f 141//120 153//132 151//130
f 145//124 153//132 141//120
f 145//124 147//126 155//134
f 149//128 146//125 148//127
f 140//119 151//130 150//129
f 142//121 151//130 140//119
f 154//133 147//126 152//131
f 147//126 154//133 155//134
f 153//132 145//124 155//134
f 156//135 150//129 151//130
f 154//133 153//132 155//134
f 148//127 157//136 149//128
f 150//129 157//136 148//127
f 152//131 149//128 157//136
f 153//132 156//135 151//130
f 150//129 156//135 157//136
f 157//136 154//133 152//131
f 156//135 153//132 157//136
f 153//132 154//133 157//136
