# Blender 4.1.1
# www.blender.org
mtllib 無題0009.mtl
o グリッド
v 10.403781 601.333008 -30.463547
v 6.287332 601.613220 -28.366112
v 2.170882 601.614441 -26.268675
v -1.945569 601.459229 -24.171238
v -6.062018 601.296692 -22.073803
v -10.178468 601.230774 -19.976366
v -14.294918 601.296692 -17.878929
v -18.411366 601.459229 -15.781494
v -22.527817 601.614441 -13.684057
v -26.644268 601.613220 -11.586620
v -30.760715 601.333008 -9.489185
v 12.439474 601.613220 -26.468273
v 8.323025 601.569275 -24.370838
v 4.206575 601.230774 -22.273403
v 0.090124 600.817566 -20.175964
v -4.026325 600.510193 -18.078529
v -8.142775 600.399780 -15.981093
v -12.259226 600.510193 -13.883657
v -16.375673 600.817566 -11.786222
v -20.492125 601.230774 -9.688785
v -24.608576 601.569275 -7.591348
v -28.725023 601.613220 -5.493913
v 14.475168 601.614441 -22.473000
v 10.358719 601.230774 -20.375565
v 6.242269 600.616943 -18.278130
v 2.125818 600.051086 -16.180691
v -1.990632 600.336609 -14.083256
v -6.107081 600.482178 -11.985820
v -10.223532 600.336609 -9.888383
v -14.339979 600.051086 -7.790948
v -18.456430 600.616943 -5.693511
v -22.572882 601.230774 -3.596074
v -26.689329 601.614441 -1.498639
v 16.510862 601.459229 -18.477726
v 12.394413 600.817566 -16.380291
v 8.277964 600.051086 -14.282854
v 4.161512 600.635376 -12.185417
v 0.045063 601.127258 -10.087982
v -4.071387 601.292053 -7.990546
v -8.187838 601.127258 -5.893109
v -12.304285 600.635376 -3.795674
v -16.420736 600.051086 -1.698237
v -20.537188 600.817566 0.399200
v -24.653635 601.459229 2.496635
v 18.546555 601.296692 -14.482453
v 14.430106 600.510193 -12.385017
v 10.313657 600.336609 -10.287581
v 6.197206 601.127258 -8.190145
v 2.080756 601.575745 -6.092709
v -2.035693 601.642700 -3.995273
v -6.152144 601.575745 -1.897836
v -10.268592 601.127258 0.199599
v -14.385043 600.336609 2.297036
v -18.501495 600.510193 4.394473
v -22.617943 601.296692 6.491908
v 20.582249 601.230774 -10.487181
v 16.465799 600.399780 -8.389745
v 12.349350 600.482178 -6.292309
v 8.232899 601.292053 -4.194872
v 4.116449 601.642700 -2.097436
v 0.000000 601.320129 0.000000
v -4.116451 601.642700 2.097437
v -8.232899 601.292053 4.194872
v -12.349350 600.482178 6.292309
v -16.465801 600.399780 8.389746
v -20.582249 601.230774 10.487181
v 22.617943 601.296692 -6.491907
v 18.501493 600.510193 -4.394471
v 14.385044 600.336609 -2.297035
v 10.268593 601.127258 -0.199598
v 6.152143 601.575745 1.897838
v 2.035694 601.642700 3.995274
v -2.080757 601.575745 6.092710
v -6.197205 601.127258 8.190145
v -10.313656 600.336609 10.287582
v -14.430107 600.510193 12.385019
v -18.546555 601.296692 14.482454
v 24.653635 601.459229 -2.496635
v 20.537186 600.817566 -0.399199
v 16.420736 600.051086 1.698237
v 12.304285 600.635376 3.795674
v 8.187836 601.127258 5.893110
v 4.071387 601.292053 7.990546
v -0.045064 601.127258 10.087982
v -4.161512 600.635376 12.185417
v -8.277964 600.051086 14.282854
v -12.394415 600.817566 16.380291
v -16.510862 601.459229 18.477726
v 26.689329 601.614441 1.498639
v 22.572880 601.230774 3.596075
v 18.456430 600.616943 5.693511
v 14.339979 600.051086 7.790948
v 10.223530 600.336609 9.888384
v 6.107081 600.482178 11.985820
v 1.990630 600.336609 14.083257
v -2.125818 600.051086 16.180691
v -6.242269 600.616943 18.278130
v -10.358721 601.230774 20.375565
v -14.475168 601.614441 22.473000
v 28.725023 601.613220 5.493914
v 24.608574 601.569275 7.591350
v 20.492125 601.230774 9.688786
v 16.375673 600.817566 11.786222
v 12.259224 600.510193 13.883658
v 8.142775 600.399780 15.981094
v 4.026324 600.510193 18.078531
v -0.090124 600.817566 20.175966
v -4.206575 601.230774 22.273403
v -8.323027 601.569275 24.370840
v -12.439474 601.613220 26.468275
v 30.760715 601.333008 9.489185
v 26.644268 601.613220 11.586621
v 22.527817 601.614441 13.684057
v 18.411366 601.459229 15.781494
v 14.294917 601.296692 17.878929
v 10.178468 601.230774 19.976366
v 6.062017 601.296692 22.073803
v 1.945569 601.459229 24.171238
v -2.170882 601.614441 26.268675
v -6.287333 601.613220 28.366112
v -10.403781 601.333008 30.463547
vn 0.0108 0.9993 -0.0351
vn -0.0109 0.9982 0.0589
vn -0.0029 0.9917 0.1287
vn 0.0266 0.9863 0.1627
vn 0.0638 0.9839 0.1667
vn 0.0973 0.9839 0.1496
vn 0.1160 0.9863 0.1172
vn 0.1058 0.9917 0.0733
vn 0.0541 0.9982 0.0259
vn -0.0347 0.9993 -0.0119
vn -0.0241 0.9982 0.0544
vn -0.0432 0.9892 0.1399
vn -0.0241 0.9830 0.1821
vn 0.0452 0.9945 0.0940
vn 0.0080 0.9999 0.0073
vn 0.0012 0.9999 0.0108
vn 0.0494 0.9945 0.0918
vn 0.1615 0.9830 0.0875
vn 0.1385 0.9892 0.0473
vn 0.0582 0.9982 0.0125
vn -0.0695 0.9919 0.1060
vn -0.0822 0.9833 0.1623
vn 0.0008 1.0000 -0.0027
vn 0.0053 0.9851 -0.1722
vn -0.0503 0.9839 -0.1715
vn -0.1092 0.9839 -0.1415
vn -0.1424 0.9851 -0.0969
vn -0.0027 1.0000 -0.0009
vn 0.1796 0.9833 0.0290
vn 0.1266 0.9919 0.0061
vn -0.1124 0.9869 0.1153
vn -0.0891 0.9949 0.0481
vn 0.0919 0.9855 -0.1427
vn 0.0426 0.9895 -0.1382
vn -0.0180 0.9957 -0.0904
vn -0.0625 0.9957 -0.0677
vn -0.1368 0.9895 -0.0467
vn -0.1694 0.9855 -0.0095
vn 0.0913 0.9949 -0.0438
vn 0.1594 0.9869 -0.0232
vn -0.1448 0.9848 0.0955
vn -0.0106 0.9999 0.0010
vn 0.1365 0.9848 -0.1078
vn 0.0651 0.9960 -0.0620
vn -0.0117 0.9992 0.0379
vn 0.0376 0.9992 0.0128
vn -0.0884 0.9960 0.0162
vn -0.1675 0.9848 0.0471
vn 0.0070 0.9999 -0.0080
vn 0.1624 0.9848 -0.0610
vn -0.1624 0.9848 0.0610
vn -0.0070 0.9999 0.0080
vn 0.1675 0.9848 -0.0471
vn 0.0884 0.9960 -0.0162
vn -0.0376 0.9992 -0.0128
vn 0.0117 0.9992 -0.0379
vn -0.0651 0.9960 0.0620
vn -0.1365 0.9848 0.1078
vn 0.0106 0.9999 -0.0010
vn 0.1448 0.9848 -0.0955
vn -0.1594 0.9869 0.0232
vn -0.0913 0.9949 0.0438
vn 0.1694 0.9855 0.0095
vn 0.1368 0.9895 0.0467
vn 0.0625 0.9957 0.0677
vn 0.0180 0.9957 0.0904
vn -0.0426 0.9895 0.1382
vn -0.0919 0.9855 0.1427
vn 0.0891 0.9949 -0.0481
vn 0.1124 0.9869 -0.1153
vn -0.1266 0.9919 -0.0061
vn -0.1796 0.9833 -0.0290
vn 0.0027 1.0000 0.0009
vn 0.1424 0.9851 0.0969
vn 0.1092 0.9839 0.1415
vn 0.0503 0.9839 0.1715
vn -0.0053 0.9851 0.1722
vn -0.0008 1.0000 0.0027
vn 0.0822 0.9833 -0.1623
vn 0.0695 0.9919 -0.1060
vn -0.0582 0.9982 -0.0125
vn -0.1385 0.9892 -0.0473
vn -0.1615 0.9830 -0.0875
vn -0.0494 0.9945 -0.0918
vn -0.0012 0.9999 -0.0108
vn -0.0080 0.9999 -0.0073
vn -0.0452 0.9945 -0.0940
vn 0.0241 0.9830 -0.1821
vn 0.0432 0.9892 -0.1399
vn 0.0241 0.9982 -0.0544
vn 0.0347 0.9993 0.0119
vn -0.0541 0.9982 -0.0259
vn -0.1058 0.9917 -0.0733
vn -0.1160 0.9863 -0.1172
vn -0.0973 0.9839 -0.1496
vn -0.0638 0.9839 -0.1667
vn -0.0266 0.9863 -0.1627
vn 0.0029 0.9917 -0.1287
vn 0.0109 0.9982 -0.0589
vn -0.0108 0.9993 0.0351
vt 0.000000 0.000000
vt 0.100000 0.000000
vt 0.100000 0.100000
vt 0.000000 0.100000
vt 0.200000 0.000000
vt 0.200000 0.100000
vt 0.300000 0.000000
vt 0.300000 0.100000
vt 0.200000 0.100000
vt 0.400000 0.000000
vt 0.400000 0.100000
vt 0.500000 0.000000
vt 0.500000 0.100000
vt 0.600000 0.000000
vt 0.600000 0.100000
vt 0.700000 0.000000
vt 0.700000 0.100000
vt 0.800000 0.000000
vt 0.800000 0.100000
vt 0.900000 0.000000
vt 0.900000 0.100000
vt 1.000000 0.000000
vt 1.000000 0.100000
vt 0.100000 0.200000
vt 0.000000 0.200000
vt 0.200000 0.200000
vt 0.300000 0.200000
vt 0.200000 0.200000
vt 0.400000 0.200000
vt 0.500000 0.200000
vt 0.600000 0.200000
vt 0.700000 0.200000
vt 0.800000 0.200000
vt 0.900000 0.200000
vt 1.000000 0.200000
vt 0.000000 0.200000
vt 0.100000 0.200000
vt 0.100000 0.300000
vt 0.000000 0.300000
vt 0.200000 0.200000
vt 0.200000 0.300000
vt 0.300000 0.200000
vt 0.300000 0.300000
vt 0.200000 0.300000
vt 0.400000 0.200000
vt 0.400000 0.300000
vt 0.500000 0.200000
vt 0.500000 0.300000
vt 0.600000 0.200000
vt 0.600000 0.300000
vt 0.700000 0.200000
vt 0.700000 0.300000
vt 0.800000 0.200000
vt 0.800000 0.300000
vt 0.900000 0.200000
vt 0.900000 0.300000
vt 1.000000 0.200000
vt 1.000000 0.300000
vt 0.100000 0.400000
vt 0.000000 0.400000
vt 0.200000 0.400000
vt 0.300000 0.400000
vt 0.200000 0.400000
vt 0.400000 0.400000
vt 0.500000 0.400000
vt 0.600000 0.400000
vt 0.700000 0.400000
vt 0.800000 0.400000
vt 0.900000 0.400000
vt 1.000000 0.400000
vt 0.100000 0.500000
vt 0.000000 0.500000
vt 0.200000 0.500000
vt 0.300000 0.500000
vt 0.200000 0.500000
vt 0.400000 0.500000
vt 0.500000 0.500000
vt 0.600000 0.500000
vt 0.700000 0.500000
vt 0.800000 0.500000
vt 0.900000 0.500000
vt 1.000000 0.500000
vt 0.100000 0.600000
vt 0.000000 0.600000
vt 0.200000 0.600000
vt 0.300000 0.600000
vt 0.200000 0.600000
vt 0.400000 0.600000
vt 0.500000 0.600000
vt 0.600000 0.600000
vt 0.700000 0.600000
vt 0.800000 0.600000
vt 0.900000 0.600000
vt 1.000000 0.600000
vt 0.100000 0.700000
vt 0.000000 0.700000
vt 0.200000 0.700000
vt 0.300000 0.700000
vt 0.200000 0.700000
vt 0.400000 0.700000
vt 0.500000 0.700000
vt 0.600000 0.700000
vt 0.700000 0.700000
vt 0.800000 0.700000
vt 0.900000 0.700000
vt 1.000000 0.700000
vt 0.100000 0.800000
vt 0.000000 0.800000
vt 0.200000 0.800000
vt 0.300000 0.800000
vt 0.200000 0.800000
vt 0.400000 0.800000
vt 0.500000 0.800000
vt 0.600000 0.800000
vt 0.700000 0.800000
vt 0.800000 0.800000
vt 0.900000 0.800000
vt 1.000000 0.800000
vt 0.100000 0.900000
vt 0.000000 0.900000
vt 0.200000 0.900000
vt 0.300000 0.900000
vt 0.200000 0.900000
vt 0.400000 0.900000
vt 0.500000 0.900000
vt 0.600000 0.900000
vt 0.700000 0.900000
vt 0.800000 0.900000
vt 0.900000 0.900000
vt 1.000000 0.900000
vt 0.100000 1.000000
vt 0.000000 1.000000
vt 0.200000 1.000000
vt 0.300000 1.000000
vt 0.200000 1.000000
vt 0.400000 1.000000
vt 0.500000 1.000000
vt 0.600000 1.000000
vt 0.700000 1.000000
vt 0.800000 1.000000
vt 0.900000 1.000000
vt 1.000000 1.000000
s 0
f 1/1/1 2/2/1 13/3/1 12/4/1
f 2/2/2 3/5/2 14/6/2 13/3/2
f 3/5/3 4/7/3 15/8/3 14/9/3
f 4/7/4 5/10/4 16/11/4 15/8/4
f 5/10/5 6/12/5 17/13/5 16/11/5
f 6/12/6 7/14/6 18/15/6 17/13/6
f 7/14/7 8/16/7 19/17/7 18/15/7
f 8/16/8 9/18/8 20/19/8 19/17/8
f 9/18/9 10/20/9 21/21/9 20/19/9
f 10/20/10 11/22/10 22/23/10 21/21/10
f 12/4/11 13/3/11 24/24/11 23/25/11
f 13/3/12 14/6/12 25/26/12 24/24/12
f 14/6/13 15/8/13 26/27/13 25/28/13
f 15/8/14 16/11/14 27/29/14 26/27/14
f 16/11/15 17/13/15 28/30/15 27/29/15
f 17/13/16 18/15/16 29/31/16 28/30/16
f 18/15/17 19/17/17 30/32/17 29/31/17
f 19/17/18 20/19/18 31/33/18 30/32/18
f 20/19/19 21/21/19 32/34/19 31/33/19
f 21/21/20 22/23/20 33/35/20 32/34/20
f 23/36/21 24/37/21 35/38/21 34/39/21
f 24/37/22 25/40/22 36/41/22 35/38/22
f 25/40/23 26/42/23 37/43/23 36/44/23
f 26/42/24 27/45/24 38/46/24 37/43/24
f 27/45/25 28/47/25 39/48/25 38/46/25
f 28/47/26 29/49/26 40/50/26 39/48/26
f 29/49/27 30/51/27 41/52/27 40/50/27
f 30/51/28 31/53/28 42/54/28 41/52/28
f 31/53/29 32/55/29 43/56/29 42/54/29
f 32/55/30 33/57/30 44/58/30 43/56/30
f 34/39/31 35/38/31 46/59/31 45/60/31
f 35/38/32 36/41/32 47/61/32 46/59/32
f 36/41/33 37/43/33 48/62/33 47/63/33
f 37/43/34 38/46/34 49/64/34 48/62/34
f 38/46/35 39/48/35 50/65/35 49/64/35
f 39/48/36 40/50/36 51/66/36 50/65/36
f 40/50/37 41/52/37 52/67/37 51/66/37
f 41/52/38 42/54/38 53/68/38 52/67/38
f 42/54/39 43/56/39 54/69/39 53/68/39
f 43/56/40 44/58/40 55/70/40 54/69/40
f 45/60/41 46/59/41 57/71/41 56/72/41
f 46/59/42 47/61/42 58/73/42 57/71/42
f 47/61/43 48/62/43 59/74/43 58/75/43
f 48/62/44 49/64/44 60/76/44 59/74/44
f 49/64/45 50/65/45 61/77/45 60/76/45
f 50/65/46 51/66/46 62/78/46 61/77/46
f 51/66/47 52/67/47 63/79/47 62/78/47
f 52/67/48 53/68/48 64/80/48 63/79/48
f 53/68/49 54/69/49 65/81/49 64/80/49
f 54/69/50 55/70/50 66/82/50 65/81/50
f 56/72/51 57/71/51 68/83/51 67/84/51
f 57/71/52 58/73/52 69/85/52 68/83/52
f 58/73/53 59/74/53 70/86/53 69/87/53
f 59/74/54 60/76/54 71/88/54 70/86/54
f 60/76/55 61/77/55 72/89/55 71/88/55
f 61/77/56 62/78/56 73/90/56 72/89/56
f 62/78/57 63/79/57 74/91/57 73/90/57
f 63/79/58 64/80/58 75/92/58 74/91/58
f 64/80/59 65/81/59 76/93/59 75/92/59
f 65/81/60 66/82/60 77/94/60 76/93/60
f 67/84/61 68/83/61 79/95/61 78/96/61
f 68/83/62 69/85/62 80/97/62 79/95/62
f 69/85/63 70/86/63 81/98/63 80/99/63
f 70/86/64 71/88/64 82/100/64 81/98/64
f 71/88/65 72/89/65 83/101/65 82/100/65
f 72/89/66 73/90/66 84/102/66 83/101/66
f 73/90/67 74/91/67 85/103/67 84/102/67
f 74/91/68 75/92/68 86/104/68 85/103/68
f 75/92/69 76/93/69 87/105/69 86/104/69
f 76/93/70 77/94/70 88/106/70 87/105/70
f 78/96/71 79/95/71 90/107/71 89/108/71
f 79/95/72 80/97/72 91/109/72 90/107/72
f 80/97/73 81/98/73 92/110/73 91/111/73
f 81/98/74 82/100/74 93/112/74 92/110/74
f 82/100/75 83/101/75 94/113/75 93/112/75
f 83/101/76 84/102/76 95/114/76 94/113/76
f 84/102/77 85/103/77 96/115/77 95/114/77
f 85/103/78 86/104/78 97/116/78 96/115/78
f 86/104/79 87/105/79 98/117/79 97/116/79
f 87/105/80 88/106/80 99/118/80 98/117/80
f 89/108/81 90/107/81 101/119/81 100/120/81
f 90/107/82 91/109/82 102/121/82 101/119/82
f 91/109/83 92/110/83 103/122/83 102/123/83
f 92/110/84 93/112/84 104/124/84 103/122/84
f 93/112/85 94/113/85 105/125/85 104/124/85
f 94/113/86 95/114/86 106/126/86 105/125/86
f 95/114/87 96/115/87 107/127/87 106/126/87
f 96/115/88 97/116/88 108/128/88 107/127/88
f 97/116/89 98/117/89 109/129/89 108/128/89
f 98/117/90 99/118/90 110/130/90 109/129/90
f 100/120/91 101/119/91 112/131/91 111/132/91
f 101/119/92 102/121/92 113/133/92 112/131/92
f 102/121/93 103/122/93 114/134/93 113/135/93
f 103/122/94 104/124/94 115/136/94 114/134/94
f 104/124/95 105/125/95 116/137/95 115/136/95
f 105/125/96 106/126/96 117/138/96 116/137/96
f 106/126/97 107/127/97 118/139/97 117/138/97
f 107/127/98 108/128/98 119/140/98 118/139/98
f 108/128/99 109/129/99 120/141/99 119/140/99
f 109/129/100 110/130/100 121/142/100 120/141/100
o Liquid_Domain
v 6.130536 511.757141 -5.835909
v -90.559006 560.804810 10.371779
v 40.774223 550.717346 -51.826553
v 11.516628 570.526978 92.919098
v 85.644470 576.131104 26.512810
v 101.826027 594.354919 -9.943674
v -27.844034 576.969360 -84.499939
v 13.769814 582.828369 -95.716049
v -28.980350 592.391418 88.791260
v 95.500725 681.052368 26.567099
v -90.001945 690.172607 28.423782
v -94.872276 622.375610 -27.911877
v -33.300957 677.885864 89.125732
v 17.422613 693.099731 94.137260
v 77.489349 688.664062 -44.452305
v -40.349663 696.557739 -79.891365
v 14.195317 655.367615 -103.761002
v -91.781616 742.249512 -35.024704
v 10.115982 703.384705 -94.707726
v -12.079943 785.164795 96.622826
v 37.759357 751.111511 90.209457
v -93.689339 772.670410 26.935286
v 87.009850 752.886536 -40.095085
v 3.474641 757.324585 -107.754280
v -34.222614 754.258301 91.488152
v 102.811363 773.032837 11.296525
v 102.217209 837.022766 -16.372898
v -87.778343 851.208740 -36.777012
v 0.005555 808.460571 -97.168549
v 27.004282 841.347778 92.761978
v -21.236670 862.136475 96.884911
v -87.312729 894.566406 36.548920
v -18.211193 862.401123 -100.727257
v 23.228962 862.401184 -99.332672
v -27.891853 919.234314 88.580719
v 86.107315 895.866699 37.105034
v -89.305664 952.734070 -34.090950
v 26.433603 911.641724 -87.590797
v 37.548485 949.594543 89.036423
v 107.040199 956.554504 8.755782
v -21.150070 920.755066 -92.017105
v -34.072319 972.441528 92.922195
v 82.090080 969.693848 -47.538815
v 9.886364 967.873779 -104.210663
v -91.612923 1013.805115 19.088776
v 12.137813 1008.838135 94.133728
v -14.840441 1017.757263 90.854271
v 98.054153 1034.107178 16.518583
v 85.079567 1019.104370 -34.556725
v -49.029785 1017.685242 -70.542923
v 10.739614 1017.598633 -90.592445
v 36.024071 1078.912476 89.883820
v -94.939629 1064.790039 31.641956
v 1.587437 1067.420898 -109.208145
v -18.046194 1107.648193 94.143715
v -87.857704 1069.899292 -40.820881
v -88.715202 1152.876465 31.314051
v -93.842255 1132.704224 -22.112734
v 78.100098 1116.334473 42.258625
v -10.380092 1117.154663 -94.863525
v 84.453743 1120.442871 -30.003649
v 73.947426 1147.125000 -53.974407
v 26.763985 1166.225464 96.307228
v 102.491173 1187.901978 15.326619
v 12.268157 1169.967529 -104.014587
v -29.869215 1183.406006 92.549736
v -37.216206 1174.254395 -89.559685
v 102.259331 1253.193359 -16.340376
v -89.719284 1258.382446 -32.994171
v 0.008654 1225.231689 -97.200897
v 27.304367 1265.210205 92.869812
v -21.804167 1279.252441 96.799957
v -89.246666 1278.263794 37.369793
v -96.888641 1340.563232 10.929361
v -18.760164 1278.976685 -100.494751
v 23.196995 1279.255371 -99.424583
v -29.150681 1336.061279 89.344925
v 36.263676 1331.152588 -83.108315
v -30.665537 1331.411865 -86.740967
v 16.090221 1351.401367 95.336937
v 87.112144 1295.597168 36.872257
v 101.905617 1360.563721 11.668855
v 64.934319 1388.269775 63.204121
v 87.434959 1381.509766 -38.287453
v 5.130681 1382.715332 -106.860992
v -32.621464 1451.029175 85.051308
v -87.058006 1391.345459 -40.169899
v -93.081528 1465.542358 -6.590258
v 5.422834 1469.464844 90.593697
v 99.184357 1455.749756 6.385025
v -1.493601 1452.577637 -96.285042
v 52.766182 1467.984131 -53.119850
vn 0.0650 -0.9953 -0.0722
vn -0.8012 -0.5517 0.2317
vn 0.4476 -0.6433 -0.6212
vn 0.1168 -0.2997 0.9469
vn 0.7443 -0.4522 0.4914
vn 0.9147 -0.3230 -0.2428
vn -0.3811 -0.3739 -0.8456
vn 0.1341 -0.2721 -0.9529
vn -0.3667 -0.1987 0.9089
vn 0.8883 -0.0280 0.4585
vn -0.8886 -0.0436 0.4567
vn -0.8752 -0.1604 -0.4565
vn -0.3470 -0.0347 0.9372
vn 0.1855 -0.0512 0.9813
vn 0.7695 -0.0350 -0.6377
vn -0.5202 0.0013 -0.8540
vn 0.0781 0.0286 -0.9965
vn -0.8497 0.0177 -0.5269
vn 0.1388 -0.0180 -0.9902
vn -0.1445 0.0157 0.9894
vn 0.3952 -0.0123 0.9185
vn -0.9106 -0.0005 0.4133
vn 0.7786 -0.0151 -0.6273
vn 0.0135 0.0188 -0.9997
vn -0.4307 0.0658 0.9001
vn 0.9726 -0.0229 0.2315
vn 0.9150 0.0281 -0.4025
vn -0.8300 -0.0042 -0.5577
vn -0.0165 -0.0207 -0.9996
vn 0.3116 0.0063 0.9502
vn -0.2057 0.0157 0.9785
vn -0.8581 0.0044 0.5134
vn -0.2185 0.0142 -0.9757
vn 0.2790 0.0266 -0.9599
vn -0.2942 0.0062 0.9557
vn 0.7937 -0.0158 0.6081
vn -0.8769 0.1017 -0.4698
vn 0.4109 0.0057 -0.9117
vn 0.3233 0.0280 0.9459
vn 0.9924 0.0143 0.1224
vn -0.2792 0.0005 -0.9602
vn -0.2733 0.0148 0.9618
vn 0.7590 -0.0893 -0.6450
vn 0.0509 0.0404 -0.9979
vn -0.9710 -0.0398 0.2359
vn 0.1495 0.0323 0.9882
vn -0.2663 0.0769 0.9608
vn 0.9481 0.0838 0.3067
vn 0.8227 0.0634 -0.5649
vn -0.6013 -0.0175 -0.7988
vn 0.1540 -0.0291 -0.9876
vn 0.3396 -0.0531 0.9391
vn -0.8469 -0.0673 0.5274
vn 0.0109 -0.0192 -0.9998
vn -0.2184 -0.0448 0.9748
vn -0.8083 -0.0699 -0.5845
vn -0.8834 0.0089 0.4685
vn -0.9427 0.0078 -0.3335
vn 0.8293 -0.0075 0.5588
vn -0.1344 0.0307 -0.9905
vn 0.9087 -0.0214 -0.4169
vn 0.7256 -0.0675 -0.6848
vn 0.2224 0.0086 0.9749
vn 0.9589 -0.0878 0.2696
vn 0.1194 -0.0248 -0.9925
vn -0.3065 -0.0101 0.9518
vn -0.4865 0.0049 -0.8736
vn 0.9195 0.0257 -0.3922
vn -0.8604 0.0715 -0.5046
vn 0.0058 0.0039 -1.0000
vn 0.3063 -0.0018 0.9519
vn -0.1988 -0.0002 0.9800
vn -0.8175 0.0536 0.5734
vn -0.9813 0.0425 0.1876
vn -0.2177 0.0403 -0.9752
vn 0.2608 0.0430 -0.9644
vn -0.3914 0.0587 0.9183
vn 0.4600 0.0084 -0.8879
vn -0.3743 0.0223 -0.9270
vn 0.1586 0.0412 0.9865
vn 0.7968 -0.0131 0.6041
vn 0.9874 0.0077 0.1578
vn 0.6508 0.0724 0.7558
vn 0.8172 -0.0906 -0.5692
vn 0.0209 -0.0143 -0.9997
vn -0.4287 0.2541 0.8670
vn -0.7884 -0.0153 -0.6150
vn -0.7308 0.6808 -0.0492
vn 0.0857 0.3579 0.9298
vn 0.7897 0.6042 0.1060
vn -0.0288 0.3272 -0.9445
vn 0.4703 0.6577 -0.5884
s 1
usemtl Liquid_Domain_Material
f 125//104 123//102 122//101
f 122//101 126//105 125//104
f 127//106 126//105 122//101
f 124//103 127//106 122//101
f 122//101 123//102 128//107
f 129//108 122//101 128//107
f 124//103 122//101 129//108
f 125//104 130//109 123//102
f 127//106 124//103 129//108
f 133//112 128//107 123//102
f 126//105 131//110 125//104
f 125//104 135//114 130//109
f 130//109 135//114 134//113
f 131//110 135//114 125//104
f 134//113 123//102 130//109
f 132//111 123//102 134//113
f 132//111 133//112 123//102
f 126//105 127//106 131//110
f 129//108 136//115 127//106
f 137//116 128//107 133//112
f 138//117 136//115 129//108
f 129//108 128//107 138//117
f 128//107 137//116 138//117
f 132//111 139//118 133//112
f 136//115 131//110 127//106
f 133//112 139//118 137//116
f 138//117 140//119 136//115
f 137//116 140//119 138//117
f 134//113 141//120 146//125
f 135//114 141//120 134//113
f 142//121 141//120 135//114
f 134//113 146//125 132//111
f 135//114 131//110 142//121
f 132//111 146//125 143//122
f 142//121 131//110 147//126
f 132//111 143//122 139//118
f 136//115 144//123 131//110
f 144//123 147//126 131//110
f 144//123 136//115 140//119
f 145//124 140//119 137//116
f 140//119 145//124 144//123
f 145//124 137//116 139//118
f 143//122 146//125 141//120
f 143//122 149//128 139//118
f 144//123 148//127 147//126
f 145//124 139//118 150//129
f 139//118 149//128 150//129
f 151//130 141//120 142//121
f 142//121 147//126 151//130
f 145//124 148//127 144//123
f 145//124 150//129 148//127
f 153//132 143//122 141//120
f 150//129 149//128 154//133
f 151//130 152//131 141//120
f 152//131 153//132 141//120
f 147//126 157//136 151//130
f 157//136 147//126 148//127
f 155//134 148//127 150//129
f 150//129 154//133 155//134
f 156//135 153//132 152//131
f 153//132 158//137 143//122
f 158//137 149//128 143//122
f 148//127 155//134 161//140
f 154//133 149//128 162//141
f 152//131 160//139 156//135
f 160//139 152//131 151//130
f 151//130 157//136 160//139
f 157//136 148//127 161//140
f 155//134 159//138 161//140
f 162//141 149//128 158//137
f 155//134 154//133 159//138
f 154//133 162//141 159//138
f 156//135 160//139 163//142
f 161//140 159//138 164//143
f 165//144 164//143 159//138
f 159//138 162//141 165//144
f 160//139 167//146 163//142
f 163//142 153//132 156//135
f 161//140 160//139 157//136
f 153//132 166//145 158//137
f 163//142 166//145 153//132
f 171//150 162//141 158//137
f 171//150 165//144 162//141
f 167//146 168//147 163//142
f 168//147 166//145 163//142
f 160//139 169//148 167//146
f 161//140 169//148 160//139
f 169//148 161//140 170//149
f 166//145 171//150 158//137
f 161//140 164//143 170//149
f 172//151 170//149 164//143
f 172//151 164//143 165//144
f 171//150 172//151 165//144
f 168//147 167//146 173//152
f 174//153 166//145 168//147
f 167//146 169//148 173//152
f 166//145 174//153 177//156
f 177//156 171//150 166//145
f 171//150 177//156 175//154
f 172//151 171//150 175//154
f 170//149 172//151 175//154
f 168//147 173//152 176//155
f 168//147 176//155 174//153
f 180//159 173//152 169//148
f 178//157 179//158 174//153
f 174//153 179//158 177//156
f 169//148 170//149 182//161
f 170//149 175//154 182//161
f 178//157 174//153 176//155
f 169//148 182//161 180//159
f 181//160 177//156 179//158
f 175//154 183//162 182//161
f 175//154 177//156 181//160
f 175//154 181//160 183//162
f 176//155 184//163 187//166
f 173//152 184//163 176//155
f 173//152 180//159 184//163
f 187//166 178//157 176//155
f 185//164 184//163 180//159
f 180//159 182//161 185//164
f 183//162 185//164 182//161
f 181//160 186//165 183//162
f 181//160 188//167 186//165
f 188//167 181//160 179//158
f 184//163 185//164 192//171
f 178//157 190//169 179//158
f 183//162 189//168 185//164
f 188//167 190//169 191//170
f 188//167 191//170 186//165
f 192//171 187//166 184//163
f 179//158 190//169 188//167
f 186//165 189//168 183//162
f 186//165 191//170 189//168
f 194//173 178//157 187//166
f 185//164 202//181 192//171
f 178//157 195//174 190//169
f 191//170 190//169 196//175
f 187//166 192//171 193//172
f 193//172 194//173 187//166
f 178//157 194//173 195//174
f 202//181 185//164 189//168
f 197//176 189//168 191//170
f 191//170 196//175 197//176
f 189//168 197//176 199//178
f 200//179 196//175 190//169
f 193//172 201//180 198//177
f 201//180 193//172 192//171
f 192//171 202//181 201//180
f 198//177 194//173 193//172
f 198//177 195//174 194//173
f 203//182 202//181 189//168
f 189//168 199//178 203//182
f 195//174 200//179 190//169
f 197//176 196//175 199//178
f 196//175 200//179 199//178
f 202//181 204//183 201//180
f 203//182 204//183 202//181
f 203//182 199//178 205//184
f 195//174 208//187 200//179
f 199//178 206//185 205//184
f 199//178 200//179 206//185
f 207//186 195//174 198//177
f 208//187 206//185 200//179
f 198//177 201//180 207//186
f 201//180 204//183 210//189
f 209//188 195//174 207//186
f 210//189 207//186 201//180
f 209//188 208//187 195//174
f 205//184 211//190 203//182
f 205//184 206//185 213//192
f 206//185 208//187 212//191
f 204//183 211//190 210//189
f 211//190 204//183 203//182
f 205//184 213//192 211//190
f 208//187 209//188 212//191
f 206//185 212//191 213//192
f 209//188 207//186 210//189
f 211//190 213//192 210//189
f 213//192 209//188 210//189
f 213//192 212//191 209//188
